<?xml version="1.0" encoding="UTF-8"?>
<!DOCTYPE svg PUBLIC "-//W3C//DTD SVG 1.1//EN" "http://www.w3.org/Graphics/SVG/1.1/DTD/svg11.dtd">
<svg version="1.2" width="118.99mm" height="99.99mm" viewBox="4900 9100 11899 9999" preserveAspectRatio="xMidYMid" fill-rule="evenodd" stroke-width="28.222" stroke-linejoin="round" xmlns="http://www.w3.org/2000/svg" xmlns:ooo="http://xml.openoffice.org/svg/export" xmlns:xlink="http://www.w3.org/1999/xlink" xmlns:presentation="http://sun.com/xmlns/staroffice/presentation" xmlns:smil="http://www.w3.org/2001/SMIL20/" xmlns:anim="urn:oasis:names:tc:opendocument:xmlns:animation:1.0" xml:space="preserve">
 <defs class="ClipPathGroup">
  <clipPath id="presentation_clip_path" clipPathUnits="userSpaceOnUse">
   <rect x="4900" y="9100" width="11899" height="9999"/>
  </clipPath>
  <clipPath id="presentation_clip_path_shrink" clipPathUnits="userSpaceOnUse">
   <rect x="4911" y="9109" width="11876" height="9980"/>
  </clipPath>
 </defs>
 <defs class="TextShapeIndex">
  <g ooo:slide="id1" ooo:id-list="id3"/>
 </defs>
 <defs class="EmbeddedBulletChars">
  <g id="bullet-char-template-57356" transform="scale(0.00048828125,-0.00048828125)">
   <path d="M 580,1141 L 1163,571 580,0 -4,571 580,1141 Z"/>
  </g>
  <g id="bullet-char-template-57354" transform="scale(0.00048828125,-0.00048828125)">
   <path d="M 8,1128 L 1137,1128 1137,0 8,0 8,1128 Z"/>
  </g>
  <g id="bullet-char-template-10146" transform="scale(0.00048828125,-0.00048828125)">
   <path d="M 174,0 L 602,739 174,1481 1456,739 174,0 Z M 1358,739 L 309,1346 659,739 1358,739 Z"/>
  </g>
  <g id="bullet-char-template-10132" transform="scale(0.00048828125,-0.00048828125)">
   <path d="M 2015,739 L 1276,0 717,0 1260,543 174,543 174,936 1260,936 717,1481 1274,1481 2015,739 Z"/>
  </g>
  <g id="bullet-char-template-10007" transform="scale(0.00048828125,-0.00048828125)">
   <path d="M 0,-2 C -7,14 -16,27 -25,37 L 356,567 C 262,823 215,952 215,954 215,979 228,992 255,992 264,992 276,990 289,987 310,991 331,999 354,1012 L 381,999 492,748 772,1049 836,1024 860,1049 C 881,1039 901,1025 922,1006 886,937 835,863 770,784 769,783 710,716 594,584 L 774,223 C 774,196 753,168 711,139 L 727,119 C 717,90 699,76 672,76 641,76 570,178 457,381 L 164,-76 C 142,-110 111,-127 72,-127 30,-127 9,-110 8,-76 1,-67 -2,-52 -2,-32 -2,-23 -1,-13 0,-2 Z"/>
  </g>
  <g id="bullet-char-template-10004" transform="scale(0.00048828125,-0.00048828125)">
   <path d="M 285,-33 C 182,-33 111,30 74,156 52,228 41,333 41,471 41,549 55,616 82,672 116,743 169,778 240,778 293,778 328,747 346,684 L 369,508 C 377,444 397,411 428,410 L 1163,1116 C 1174,1127 1196,1133 1229,1133 1271,1133 1292,1118 1292,1087 L 1292,965 C 1292,929 1282,901 1262,881 L 442,47 C 390,-6 338,-33 285,-33 Z"/>
  </g>
  <g id="bullet-char-template-9679" transform="scale(0.00048828125,-0.00048828125)">
   <path d="M 813,0 C 632,0 489,54 383,161 276,268 223,411 223,592 223,773 276,916 383,1023 489,1130 632,1184 813,1184 992,1184 1136,1130 1245,1023 1353,916 1407,772 1407,592 1407,412 1353,268 1245,161 1136,54 992,0 813,0 Z"/>
  </g>
  <g id="bullet-char-template-8226" transform="scale(0.00048828125,-0.00048828125)">
   <path d="M 346,457 C 273,457 209,483 155,535 101,586 74,649 74,723 74,796 101,859 155,911 209,963 273,989 346,989 419,989 480,963 531,910 582,859 608,796 608,723 608,648 583,586 532,535 482,483 420,457 346,457 Z"/>
  </g>
  <g id="bullet-char-template-8211" transform="scale(0.00048828125,-0.00048828125)">
   <path d="M -4,459 L 1135,459 1135,606 -4,606 -4,459 Z"/>
  </g>
  <g id="bullet-char-template-61548" transform="scale(0.00048828125,-0.00048828125)">
   <path d="M 173,740 C 173,903 231,1043 346,1159 462,1274 601,1332 765,1332 928,1332 1067,1274 1183,1159 1299,1043 1357,903 1357,740 1357,577 1299,437 1183,322 1067,206 928,148 765,148 601,148 462,206 346,322 231,437 173,577 173,740 Z"/>
  </g>
 </defs>
 <defs class="TextEmbeddedBitmaps"/>
 <g class="SlideGroup">
  <g>
   <g id="container-id1">
    <g id="id1" class="Slide" clip-path="url(#presentation_clip_path)">
     <g class="Page">
      <g class="Graphic">
       <g id="id3">
        <rect class="BoundingBox" stroke="none" fill="none" x="4900" y="9100" width="11900" height="10000"/>
        <defs>
         <clipPath id="clip_path_1" clipPathUnits="userSpaceOnUse">
          <path d="M 4900,9100 L 16799,9100 16799,19099 4900,19099 4900,9100 Z"/>
         </clipPath>
        </defs>
        <g clip-path="url(#clip_path_1)"/>
        <defs>
         <clipPath id="clip_path_2" clipPathUnits="userSpaceOnUse">
          <path d="M 4900,9100 L 16799,9100 16799,19099 4900,19099 4900,9100 Z"/>
         </clipPath>
        </defs>
        <g clip-path="url(#clip_path_2)">
         <path fill="rgb(255,255,255)" stroke="none" d="M 2106,8331 L 19293,8331 19293,20127 2106,20127 2106,8331 Z"/>
        </g>
        <g clip-path="url(#clip_path_1)">
         <path fill="rgb(0,0,0)" stroke="none" d="M 6949,11065 L 15230,11065 15465,11143 15621,11221 15699,11378 15777,11612 15777,16768 15699,17002 15621,17159 15465,17237 15230,17315 6949,17315 6715,17237 6559,17159 6481,17002 6402,16768 6402,11612 6481,11378 6559,11221 6715,11143 6949,11065 Z"/>
        </g>
        <defs>
         <clipPath id="clip_path_3" clipPathUnits="userSpaceOnUse">
          <path d="M 6559,10674 L 14840,10674 15074,10753 15230,10831 15309,10987 15387,11221 15387,16377 15309,16612 15230,16768 15074,16846 14840,16924 6559,16924 6324,16846 6168,16768 6090,16612 6012,16377 6012,11221 6090,10987 6168,10831 6324,10753 6559,10674 Z"/>
         </clipPath>
        </defs>
        <g clip-path="url(#clip_path_3)"/>
        <defs>
         <clipPath id="clip_path_4" clipPathUnits="userSpaceOnUse">
          <path d="M 6559,10674 L 14840,10674 15074,10753 15230,10831 15309,10987 15387,11221 15387,16377 15309,16612 15230,16768 15074,16846 14840,16924 6559,16924 6324,16846 6168,16768 6090,16612 6012,16377 6012,11221 6090,10987 6168,10831 6324,10753 6559,10674 Z"/>
         </clipPath>
        </defs>
        <g clip-path="url(#clip_path_4)">
         <path fill="rgb(189,212,236)" stroke="none" d="M 3050,14809 L 3204,14919 9327,6346 9174,6237 3050,14809 Z"/>
         <path fill="rgb(189,212,236)" stroke="none" d="M 3194,14911 L 3347,15021 9471,6449 9317,6339 3194,14911 Z"/>
         <path fill="rgb(190,213,236)" stroke="none" d="M 3337,15014 L 3491,15124 9614,6551 9460,6441 3337,15014 Z"/>
         <path fill="rgb(191,213,236)" stroke="none" d="M 3480,15116 L 3634,15226 9757,6653 9603,6543 3480,15116 Z"/>
         <path fill="rgb(192,214,237)" stroke="none" d="M 3623,15218 L 3777,15328 9900,6756 9746,6646 3623,15218 Z"/>
         <path fill="rgb(192,214,237)" stroke="none" d="M 3766,15320 L 3920,15430 10043,6858 9890,6748 3766,15320 Z"/>
         <path fill="rgb(193,215,237)" stroke="none" d="M 3910,15423 L 4063,15533 10187,6960 10033,6850 3910,15423 Z"/>
         <path fill="rgb(194,215,237)" stroke="none" d="M 4053,15525 L 4207,15635 10330,7062 10176,6952 4053,15525 Z"/>
         <path fill="rgb(195,216,237)" stroke="none" d="M 4196,15627 L 4350,15737 10473,7165 10319,7055 4196,15627 Z"/>
         <path fill="rgb(196,216,237)" stroke="none" d="M 4339,15730 L 4493,15839 10616,7267 10462,7157 4339,15730 Z"/>
         <path fill="rgb(196,216,238)" stroke="none" d="M 4482,15832 L 4636,15942 10759,7369 10605,7259 4482,15832 Z"/>
         <path fill="rgb(197,217,238)" stroke="none" d="M 4625,15934 L 4779,16044 10902,7472 10749,7362 4625,15934 Z"/>
         <path fill="rgb(198,217,238)" stroke="none" d="M 4769,16036 L 4922,16146 11046,7574 10892,7464 4769,16036 Z"/>
         <path fill="rgb(199,218,238)" stroke="none" d="M 4912,16139 L 5066,16249 11189,7676 11035,7566 4912,16139 Z"/>
         <path fill="rgb(200,218,238)" stroke="none" d="M 5055,16241 L 5209,16351 11332,7778 11178,7668 5055,16241 Z"/>
         <path fill="rgb(200,219,238)" stroke="none" d="M 5198,16343 L 5352,16453 11475,7881 11321,7771 5198,16343 Z"/>
         <path fill="rgb(201,219,239)" stroke="none" d="M 5341,16445 L 5495,16555 11618,7983 11465,7873 5341,16445 Z"/>
         <path fill="rgb(202,220,239)" stroke="none" d="M 5485,16548 L 5638,16658 11762,8085 11608,7975 5485,16548 Z"/>
         <path fill="rgb(203,220,239)" stroke="none" d="M 5628,16650 L 5782,16760 11905,8187 11751,8078 5628,16650 Z"/>
         <path fill="rgb(203,221,239)" stroke="none" d="M 5771,16752 L 5925,16862 12048,8290 11894,8180 5771,16752 Z"/>
         <path fill="rgb(204,221,239)" stroke="none" d="M 5914,16855 L 6017,16928 12140,8356 12037,8282 5914,16855 Z"/>
         <path fill="rgb(205,222,239)" stroke="none" d="M 6006,16921 L 6068,16964 12191,8392 12130,8348 6006,16921 Z"/>
         <path fill="rgb(205,222,239)" stroke="none" d="M 6057,16957 L 6211,17067 12334,8494 12180,8384 6057,16957 Z"/>
         <path fill="rgb(206,222,239)" stroke="none" d="M 6200,17059 L 6354,17169 12478,8597 12324,8487 6200,17059 Z"/>
         <path fill="rgb(207,223,240)" stroke="none" d="M 6344,17161 L 6498,17271 12621,8699 12467,8589 6344,17161 Z"/>
         <path fill="rgb(207,223,240)" stroke="none" d="M 6487,17264 L 6641,17374 12764,8801 12610,8691 6487,17264 Z"/>
         <path fill="rgb(208,224,240)" stroke="none" d="M 6630,17366 L 6784,17476 12907,8903 12753,8793 6630,17366 Z"/>
         <path fill="rgb(209,224,240)" stroke="none" d="M 6773,17468 L 6927,17578 13050,9006 12896,8896 6773,17468 Z"/>
         <path fill="rgb(210,224,240)" stroke="none" d="M 6916,17570 L 7070,17680 13193,9108 13040,8998 6916,17570 Z"/>
         <path fill="rgb(211,225,240)" stroke="none" d="M 7060,17673 L 7213,17783 13337,9210 13183,9100 7060,17673 Z"/>
         <path fill="rgb(211,225,241)" stroke="none" d="M 7203,17775 L 7357,17885 13480,9312 13326,9203 7203,17775 Z"/>
         <path fill="rgb(212,226,241)" stroke="none" d="M 7346,17877 L 7500,17987 13623,9415 13469,9305 7346,17877 Z"/>
         <path fill="rgb(213,226,241)" stroke="none" d="M 7489,17980 L 7643,18089 13766,9517 13612,9407 7489,17980 Z"/>
         <path fill="rgb(214,227,241)" stroke="none" d="M 7632,18082 L 7786,18192 13909,9619 13755,9509 7632,18082 Z"/>
         <path fill="rgb(214,227,241)" stroke="none" d="M 7775,18184 L 7929,18294 14053,9722 13899,9612 7775,18184 Z"/>
         <path fill="rgb(215,228,241)" stroke="none" d="M 7919,18286 L 8073,18396 14196,9824 14042,9714 7919,18286 Z"/>
         <path fill="rgb(216,228,241)" stroke="none" d="M 8062,18389 L 8216,18499 14339,9926 14185,9816 8062,18389 Z"/>
         <path fill="rgb(217,229,242)" stroke="none" d="M 8205,18491 L 8359,18601 14482,10028 14328,9918 8205,18491 Z"/>
         <path fill="rgb(218,229,242)" stroke="none" d="M 8348,18593 L 8502,18703 14625,10131 14471,10021 8348,18593 Z"/>
         <path fill="rgb(218,230,242)" stroke="none" d="M 8491,18695 L 8645,18805 14768,10233 14615,10123 8491,18695 Z"/>
         <path fill="rgb(219,230,242)" stroke="none" d="M 8635,18798 L 8788,18908 14912,10335 14758,10225 8635,18798 Z"/>
         <path fill="rgb(220,231,242)" stroke="none" d="M 8778,18900 L 8932,19010 15055,10437 14901,10328 8778,18900 Z"/>
         <path fill="rgb(221,231,242)" stroke="none" d="M 8921,19002 L 9075,19112 15198,10540 15044,10430 8921,19002 Z"/>
         <path fill="rgb(222,232,243)" stroke="none" d="M 9064,19105 L 9218,19214 15341,10642 15187,10532 9064,19105 Z"/>
         <path fill="rgb(222,232,243)" stroke="none" d="M 9207,19207 L 9269,19251 15392,10678 15330,10634 9207,19207 Z"/>
         <path fill="rgb(223,232,243)" stroke="none" d="M 9258,19243 L 9361,19317 15484,10744 15381,10671 9258,19243 Z"/>
         <path fill="rgb(223,233,243)" stroke="none" d="M 9350,19309 L 9504,19419 15628,10847 15474,10737 9350,19309 Z"/>
         <path fill="rgb(224,233,243)" stroke="none" d="M 9494,19411 L 9648,19521 15771,10949 15617,10839 9494,19411 Z"/>
         <path fill="rgb(225,233,243)" stroke="none" d="M 9637,19514 L 9791,19624 15914,11051 15760,10941 9637,19514 Z"/>
         <path fill="rgb(225,234,243)" stroke="none" d="M 9780,19616 L 9934,19726 16057,11153 15903,11043 9780,19616 Z"/>
         <path fill="rgb(226,234,244)" stroke="none" d="M 9923,19718 L 10077,19828 16200,11256 16046,11146 9923,19718 Z"/>
         <path fill="rgb(227,235,244)" stroke="none" d="M 10066,19820 L 10220,19930 16343,11358 16190,11248 10066,19820 Z"/>
         <path fill="rgb(228,235,244)" stroke="none" d="M 10210,19923 L 10363,20033 16487,11460 16333,11350 10210,19923 Z"/>
         <path fill="rgb(229,236,244)" stroke="none" d="M 10353,20025 L 10507,20135 16630,11562 16476,11453 10353,20025 Z"/>
         <path fill="rgb(229,236,244)" stroke="none" d="M 10496,20127 L 10650,20237 16773,11665 16619,11555 10496,20127 Z"/>
         <path fill="rgb(230,237,244)" stroke="none" d="M 10639,20230 L 10793,20339 16916,11767 16762,11657 10639,20230 Z"/>
         <path fill="rgb(231,237,244)" stroke="none" d="M 10782,20332 L 10936,20442 17059,11869 16905,11759 10782,20332 Z"/>
         <path fill="rgb(232,238,245)" stroke="none" d="M 10925,20434 L 11079,20544 17203,11972 17049,11862 10925,20434 Z"/>
         <path fill="rgb(233,238,245)" stroke="none" d="M 11069,20536 L 11223,20646 17346,12074 17192,11964 11069,20536 Z"/>
         <path fill="rgb(233,239,245)" stroke="none" d="M 11212,20639 L 11366,20749 17489,12176 17335,12066 11212,20639 Z"/>
         <path fill="rgb(234,239,245)" stroke="none" d="M 11355,20741 L 11509,20851 17632,12278 17478,12168 11355,20741 Z"/>
         <path fill="rgb(235,240,245)" stroke="none" d="M 11498,20843 L 11652,20953 17775,12381 17621,12271 11498,20843 Z"/>
         <path fill="rgb(236,240,245)" stroke="none" d="M 11641,20945 L 11795,21055 17918,12483 17765,12373 11641,20945 Z"/>
         <path fill="rgb(236,240,246)" stroke="none" d="M 11785,21048 L 11938,21158 18062,12585 17908,12475 11785,21048 Z"/>
         <path fill="rgb(237,241,246)" stroke="none" d="M 11928,21150 L 12082,21260 18205,12687 18051,12578 11928,21150 Z"/>
         <path fill="rgb(238,241,246)" stroke="none" d="M 12071,21252 L 12225,21362 18348,12790 18194,12680 12071,21252 Z"/>
        </g>
        <g clip-path="url(#clip_path_3)"/>
        <g clip-path="url(#clip_path_1)">
         <path fill="rgb(0,0,0)" stroke="none" d="M 7085,10278 C 7076,10280 7072,10280 7068,10280 7040,10280 7025,10266 7025,10242 L 7025,9953 C 7025,9866 6962,9819 6841,9819 6770,9819 6711,9840 6678,9876 6655,9901 6646,9929 6644,9978 L 6723,9978 C 6729,9918 6765,9891 6838,9891 6908,9891 6948,9917 6948,9964 L 6948,9985 C 6948,10017 6928,10032 6866,10039 6756,10053 6739,10057 6709,10069 6651,10093 6622,10137 6622,10201 6622,10289 6684,10346 6784,10346 6846,10346 6895,10324 6951,10274 6956,10323 6980,10346 7031,10346 7047,10346 7059,10344 7085,10337 L 7085,10278 Z M 6948,10170 C 6948,10196 6940,10212 6917,10233 6885,10262 6847,10277 6801,10277 6740,10277 6704,10248 6704,10199 6704,10147 6739,10121 6822,10109 6905,10097 6922,10094 6948,10081 L 6948,10170 Z"/>
         <path fill="rgb(0,0,0)" stroke="none" d="M 7568,9641 L 7490,9641 7490,9895 C 7458,9845 7405,9819 7340,9819 7212,9819 7129,9921 7129,10078 7129,10244 7211,10346 7342,10346 7410,10346 7457,10320 7499,10259 L 7499,10324 7568,10324 7568,9641 Z M 7353,9892 C 7437,9892 7490,9967 7490,10084 7490,10198 7436,10273 7354,10273 7268,10273 7211,10197 7211,10082 7211,9968 7268,9892 7353,9892 L 7353,9892 Z"/>
         <path fill="rgb(0,0,0)" stroke="none" d="M 8090,9641 L 8012,9641 8012,9895 C 7979,9845 7926,9819 7861,9819 7734,9819 7650,9921 7650,10078 7650,10244 7732,10346 7864,10346 7931,10346 7978,10320 8020,10259 L 8020,10324 8090,10324 8090,9641 Z M 7874,9892 C 7958,9892 8012,9967 8012,10084 8012,10198 7957,10273 7875,10273 7789,10273 7732,10197 7732,10082 7732,9968 7789,9892 7874,9892 L 7874,9892 Z"/>
         <path fill="rgb(0,0,0)" stroke="none" d="M 8628,10105 C 8628,10030 8622,9985 8608,9948 8576,9868 8501,9819 8409,9819 8272,9819 8184,9924 8184,10085 8184,10246 8269,10346 8408,10346 8520,10346 8598,10282 8617,10175 L 8539,10175 C 8517,10240 8473,10274 8410,10274 8361,10274 8318,10251 8292,10210 8273,10182 8267,10154 8266,10105 L 8628,10105 Z M 8268,10041 C 8274,9950 8330,9891 8408,9891 8486,9891 8544,9955 8544,10035 8544,10037 8544,10039 8544,10041 L 8268,10041 Z"/>
         <path fill="rgb(0,0,0)" stroke="none" d="M 8733,9833 L 8733,10324 8812,10324 8812,10069 C 8812,9999 8829,9953 8867,9926 8891,9908 8915,9902 8969,9901 L 8969,9822 C 8956,9820 8949,9819 8939,9819 8889,9819 8850,9849 8805,9922 L 8805,9833 8733,9833 Z"/>
         <path fill="rgb(0,0,0)" stroke="none" d="M 9522,10442 L 8960,10442 8960,10489 9522,10489 9522,10442 Z"/>
         <path fill="rgb(0,0,0)" stroke="none" d="M 10021,10324 L 10165,9833 10077,9833 9980,10216 9883,9833 9787,9833 9694,10216 9594,9833 9507,9833 9650,10324 9738,10324 9832,9939 9932,10324 10021,10324 Z"/>
         <path fill="rgb(0,0,0)" stroke="none" d="M 10319,9833 L 10241,9833 10241,10324 10319,10324 10319,9833 Z M 10319,9641 L 10240,9641 10240,9739 10319,9739 10319,9641 Z"/>
         <path fill="rgb(0,0,0)" stroke="none" d="M 10624,9833 L 10544,9833 10544,9698 10466,9698 10466,9833 10400,9833 10400,9897 10466,9897 10466,10268 C 10466,10317 10500,10346 10561,10346 10580,10346 10598,10344 10624,10339 L 10624,10274 C 10614,10276 10602,10277 10587,10277 10553,10277 10544,10268 10544,10233 L 10544,9897 10624,9897 10624,9833 Z"/>
         <path fill="rgb(0,0,0)" stroke="none" d="M 10713,9641 L 10713,10324 10791,10324 10791,10053 C 10791,9953 10843,9887 10924,9887 10949,9887 10974,9896 10993,9910 11015,9926 11025,9949 11025,9984 L 11025,10324 11103,10324 11103,9953 C 11103,9870 11044,9819 10948,9819 10879,9819 10837,9841 10791,9900 L 10791,9641 10713,9641 Z"/>
         <path fill="rgb(0,0,0)" stroke="none" d="M 11710,10442 L 11148,10442 11148,10489 11710,10489 11710,10442 Z"/>
         <path fill="rgb(0,0,0)" stroke="none" d="M 12131,9998 C 12128,9950 12117,9919 12099,9892 12065,9846 12006,9819 11937,9819 11805,9819 11719,9924 11719,10087 11719,10245 11803,10346 11936,10346 12053,10346 12128,10275 12137,10156 L 12058,10156 C 12045,10234 12005,10274 11938,10274 11852,10274 11800,10203 11800,10087 11800,9964 11851,9891 11936,9891 12002,9891 12043,9929 12052,9998 L 12131,9998 Z"/>
         <path fill="rgb(0,0,0)" stroke="none" d="M 12660,10278 C 12652,10280 12648,10280 12643,10280 12616,10280 12601,10266 12601,10242 L 12601,9953 C 12601,9866 12537,9819 12416,9819 12345,9819 12286,9840 12253,9876 12231,9901 12221,9929 12219,9978 L 12298,9978 C 12305,9918 12340,9891 12413,9891 12483,9891 12523,9917 12523,9964 L 12523,9985 C 12523,10017 12503,10032 12441,10039 12331,10053 12314,10057 12284,10069 12227,10093 12198,10137 12198,10201 12198,10289 12260,10346 12359,10346 12421,10346 12470,10324 12526,10274 12531,10323 12556,10346 12606,10346 12622,10346 12635,10344 12660,10337 L 12660,10278 Z M 12523,10170 C 12523,10196 12515,10212 12492,10233 12460,10262 12422,10277 12376,10277 12315,10277 12280,10248 12280,10199 12280,10147 12314,10121 12397,10109 12480,10097 12497,10094 12523,10081 L 12523,10170 Z"/>
         <path fill="rgb(0,0,0)" stroke="none" d="M 12745,9833 L 12745,10324 12823,10324 12823,10069 C 12823,9999 12841,9953 12878,9926 12903,9908 12926,9902 12980,9901 L 12980,9822 C 12967,9820 12961,9819 12950,9819 12900,9819 12861,9849 12817,9922 L 12817,9833 12745,9833 Z"/>
         <path fill="rgb(0,0,0)" stroke="none" d="M 13057,9833 L 13057,10324 13135,10324 13135,10069 C 13135,9999 13153,9953 13190,9926 13215,9908 13238,9902 13293,9901 L 13293,9822 C 13280,9820 13273,9819 13263,9819 13212,9819 13174,9849 13129,9922 L 13129,9833 13057,9833 Z"/>
         <path fill="rgb(0,0,0)" stroke="none" d="M 13668,9833 L 13532,10216 13406,9833 13323,9833 13489,10326 13459,10404 C 13446,10438 13429,10452 13396,10452 13384,10452 13371,10450 13354,10446 L 13354,10516 C 13370,10525 13386,10529 13407,10529 13432,10529 13460,10520 13480,10505 13505,10487 13519,10467 13534,10427 L 13752,9833 13668,9833 Z"/>
         <path fill="rgb(0,0,0)" stroke="none" d="M 14314,10442 L 13752,10442 13752,10489 14314,10489 14314,10442 Z"/>
         <path fill="rgb(0,0,0)" stroke="none" d="M 14552,9660 C 14490,9660 14434,9687 14399,9733 14356,9791 14334,9880 14334,10002 14334,10227 14409,10346 14552,10346 14692,10346 14769,10227 14769,10008 14769,9879 14748,9793 14705,9733 14670,9686 14615,9660 14552,9660 L 14552,9660 Z M 14552,9733 C 14641,9733 14685,9823 14685,10001 14685,10189 14642,10277 14550,10277 14463,10277 14419,10186 14419,10003 14419,9822 14463,9733 14552,9733 L 14552,9733 Z"/>
         <path fill="rgb(63,110,158)" stroke="none" d="M 6329,18020 C 6321,18022 6317,18022 6312,18022 6285,18022 6270,18008 6270,17984 L 6270,17695 C 6270,17608 6206,17561 6085,17561 6014,17561 5955,17582 5922,17618 5900,17643 5891,17671 5889,17720 L 5967,17720 C 5974,17660 6009,17633 6082,17633 6153,17633 6192,17659 6192,17706 L 6192,17727 C 6192,17760 6172,17774 6110,17781 6000,17795 5983,17799 5953,17811 5896,17835 5867,17879 5867,17943 5867,18031 5929,18088 6028,18088 6090,18088 6140,18066 6195,18016 6201,18065 6225,18088 6276,18088 6292,18088 6304,18086 6329,18079 L 6329,18020 Z M 6192,17912 C 6192,17938 6185,17954 6161,17975 6129,18004 6091,18019 6045,18019 5984,18019 5949,17990 5949,17941 5949,17889 5983,17863 6066,17851 6149,17840 6166,17836 6192,17824 L 6192,17912 Z"/>
         <path fill="rgb(63,110,158)" stroke="none" d="M 6813,17383 L 6735,17383 6735,17637 C 6702,17587 6650,17561 6584,17561 6457,17561 6373,17663 6373,17820 6373,17986 6455,18088 6587,18088 6654,18088 6701,18062 6744,18001 L 6744,18066 6813,18066 6813,17383 Z M 6597,17634 C 6682,17634 6735,17709 6735,17826 6735,17940 6681,18015 6598,18015 6512,18015 6455,17939 6455,17825 6455,17710 6512,17634 6597,17634 L 6597,17634 Z"/>
         <path fill="rgb(63,110,158)" stroke="none" d="M 7334,17383 L 7256,17383 7256,17637 C 7223,17587 7171,17561 7105,17561 6978,17561 6894,17663 6894,17820 6894,17986 6976,18088 7108,18088 7176,18088 7223,18062 7265,18001 L 7265,18066 7334,18066 7334,17383 Z M 7119,17634 C 7203,17634 7256,17709 7256,17826 7256,17940 7202,18015 7120,18015 7033,18015 6976,17939 6976,17825 6976,17710 7033,17634 7119,17634 L 7119,17634 Z"/>
         <path fill="rgb(63,110,158)" stroke="none" d="M 7872,17847 C 7872,17772 7866,17727 7852,17690 7820,17610 7745,17561 7654,17561 7517,17561 7429,17666 7429,17827 7429,17988 7514,18088 7652,18088 7764,18088 7842,18024 7862,17917 L 7783,17917 C 7761,17982 7717,18016 7655,18016 7605,18016 7563,17993 7537,17952 7518,17924 7511,17896 7510,17847 L 7872,17847 Z M 7512,17783 C 7519,17692 7574,17633 7653,17633 7730,17633 7789,17697 7789,17778 7789,17779 7789,17781 7788,17783 L 7512,17783 Z"/>
         <path fill="rgb(63,110,158)" stroke="none" d="M 7977,17575 L 7977,18066 8056,18066 8056,17811 C 8056,17741 8074,17695 8111,17668 8136,17650 8159,17644 8213,17643 L 8213,17564 C 8200,17562 8193,17561 8183,17561 8133,17561 8094,17591 8050,17664 L 8050,17575 7977,17575 Z"/>
         <path fill="rgb(63,110,158)" stroke="none" d="M 8766,18184 L 8204,18184 8204,18231 8766,18231 8766,18184 Z"/>
         <path fill="rgb(63,110,158)" stroke="none" d="M 9265,18066 L 9410,17575 9321,17575 9224,17958 9128,17575 9032,17575 8938,17958 8838,17575 8752,17575 8894,18066 8982,18066 9077,17681 9176,18066 9265,18066 Z"/>
         <path fill="rgb(63,110,158)" stroke="none" d="M 9563,17575 L 9486,17575 9486,18066 9563,18066 9563,17575 Z M 9563,17383 L 9485,17383 9485,17482 9563,17482 9563,17383 Z"/>
         <path fill="rgb(63,110,158)" stroke="none" d="M 9869,17575 L 9788,17575 9788,17440 9710,17440 9710,17575 9644,17575 9644,17639 9710,17639 9710,18010 C 9710,18059 9744,18088 9805,18088 9824,18088 9843,18086 9869,18081 L 9869,18016 C 9859,18018 9847,18019 9831,18019 9798,18019 9788,18010 9788,17975 L 9788,17639 9869,17639 9869,17575 Z"/>
         <path fill="rgb(63,110,158)" stroke="none" d="M 9957,17383 L 9957,18066 10035,18066 10035,17795 C 10035,17695 10087,17629 10168,17629 10193,17629 10219,17638 10237,17652 10260,17668 10269,17691 10269,17726 L 10269,18066 10347,18066 10347,17695 C 10347,17612 10288,17561 10192,17561 10123,17561 10081,17583 10035,17642 L 10035,17383 9957,17383 Z"/>
         <path fill="rgb(63,110,158)" stroke="none" d="M 10954,18184 L 10392,18184 10392,18231 10954,18231 10954,18184 Z"/>
         <path fill="rgb(63,110,158)" stroke="none" d="M 11375,17740 C 11372,17692 11361,17661 11343,17634 11309,17588 11250,17561 11182,17561 11049,17561 10963,17666 10963,17829 10963,17987 11047,18088 11181,18088 11298,18088 11372,18017 11381,17898 L 11302,17898 C 11289,17976 11249,18016 11183,18016 11096,18016 11045,17945 11045,17829 11045,17706 11095,17633 11181,17633 11246,17633 11287,17671 11297,17740 L 11375,17740 Z"/>
         <path fill="rgb(63,110,158)" stroke="none" d="M 11904,18020 C 11896,18022 11892,18022 11887,18022 11860,18022 11845,18008 11845,17984 L 11845,17695 C 11845,17608 11782,17561 11661,17561 11589,17561 11530,17582 11497,17618 11475,17643 11466,17671 11464,17720 L 11542,17720 C 11549,17660 11584,17633 11658,17633 11728,17633 11768,17659 11768,17706 L 11768,17727 C 11768,17760 11748,17774 11686,17781 11575,17795 11558,17799 11528,17811 11471,17835 11442,17879 11442,17943 11442,18031 11504,18088 11603,18088 11665,18088 11715,18066 11770,18016 11776,18065 11800,18088 11851,18088 11867,18088 11879,18086 11904,18079 L 11904,18020 Z M 11768,17912 C 11768,17938 11760,17954 11737,17975 11705,18004 11666,18019 11620,18019 11559,18019 11524,17990 11524,17941 11524,17889 11558,17863 11642,17851 11724,17840 11741,17836 11768,17824 L 11768,17912 Z"/>
         <path fill="rgb(63,110,158)" stroke="none" d="M 11989,17575 L 11989,18066 12067,18066 12067,17811 C 12067,17741 12085,17695 12123,17668 12147,17650 12171,17644 12225,17643 L 12225,17564 C 12212,17562 12205,17561 12195,17561 12144,17561 12106,17591 12061,17664 L 12061,17575 11989,17575 Z"/>
         <path fill="rgb(63,110,158)" stroke="none" d="M 12301,17575 L 12301,18066 12380,18066 12380,17811 C 12380,17741 12398,17695 12435,17668 12460,17650 12483,17644 12537,17643 L 12537,17564 C 12524,17562 12517,17561 12507,17561 12457,17561 12418,17591 12373,17664 L 12373,17575 12301,17575 Z"/>
         <path fill="rgb(63,110,158)" stroke="none" d="M 12912,17575 L 12776,17958 12651,17575 12567,17575 12733,18068 12703,18146 C 12691,18181 12673,18194 12640,18194 12629,18194 12616,18192 12599,18188 L 12599,18259 C 12615,18267 12631,18271 12652,18271 12677,18271 12704,18262 12725,18247 12749,18229 12763,18209 12778,18169 L 12996,17575 12912,17575 Z"/>
         <path fill="rgb(63,110,158)" stroke="none" d="M 13559,18184 L 12996,18184 12996,18231 13559,18231 13559,18184 Z"/>
         <path fill="rgb(63,110,158)" stroke="none" d="M 13805,18066 L 13994,17575 13906,17575 13767,17973 13636,17575 13548,17575 13720,18066 13805,18066 Z"/>
         <path fill="rgb(63,110,158)" stroke="none" d="M 14250,17593 L 14250,18066 14332,18066 14332,17402 14278,17402 C 14249,17504 14230,17518 14103,17534 L 14103,17593 14250,17593 Z"/>
         <path fill="rgb(63,110,158)" stroke="none" d="M 15070,18184 L 14508,18184 14508,18231 15070,18231 15070,18184 Z"/>
         <path fill="rgb(63,110,158)" stroke="none" d="M 15307,17402 C 15245,17402 15189,17429 15155,17475 15112,17533 15090,17622 15090,17745 15090,17969 15165,18088 15307,18088 15448,18088 15525,17969 15525,17750 15525,17621 15504,17535 15460,17475 15426,17428 15370,17402 15307,17402 L 15307,17402 Z M 15307,17475 C 15396,17475 15441,17565 15441,17743 15441,17931 15397,18019 15305,18019 15218,18019 15174,17928 15174,17746 15174,17564 15218,17475 15307,17475 L 15307,17475 Z"/>
         <path fill="none" stroke="rgb(0,0,0)" stroke-width="391" stroke-linejoin="miter" d="M 5231,12237 L 6012,12237"/>
         <path fill="rgb(0,0,0)" stroke="none" d="M 6539,12346 L 6597,12517 6678,12517 6478,11948 6385,11948 6181,12517 6259,12517 6319,12346 6539,12346 Z M 6518,12285 L 6337,12285 6431,12026 6518,12285 Z"/>
         <path fill="rgb(0,0,0)" stroke="none" d="M 7141,12616 L 6672,12616 6672,12655 7141,12655 7141,12616 Z"/>
         <path fill="rgb(0,0,0)" stroke="none" d="M 7241,12108 L 7176,12108 7176,12517 7241,12517 7241,12108 Z M 7241,11948 L 7175,11948 7175,12030 7241,12030 7241,11948 Z"/>
         <path fill="rgb(0,0,0)" stroke="none" d="M 7492,11948 L 7347,11948 7347,12683 7492,12683 7492,12627 7412,12627 7412,12004 7492,12004 7492,11948 Z"/>
         <path fill="rgb(0,0,0)" stroke="none" d="M 7687,12264 L 7695,12264 7724,12263 C 7800,12263 7839,12297 7839,12363 7839,12433 7796,12474 7724,12474 7649,12474 7612,12437 7608,12357 L 7539,12357 C 7542,12401 7550,12430 7564,12455 7592,12508 7646,12535 7722,12535 7836,12535 7909,12467 7909,12363 7909,12292 7882,12253 7816,12231 7867,12210 7893,12171 7893,12116 7893,12020 7830,11963 7724,11963 7612,11963 7553,12024 7551,12142 L 7620,12142 C 7620,12109 7624,12090 7632,12073 7648,12042 7682,12024 7725,12024 7786,12024 7823,12060 7823,12118 7823,12157 7809,12181 7778,12193 7759,12201 7735,12204 7687,12205 L 7687,12264 Z"/>
         <path fill="rgb(0,0,0)" stroke="none" d="M 8116,12436 L 8034,12436 8034,12517 8116,12517 8116,12436 Z M 8116,12108 L 8034,12108 8034,12189 8116,12189 8116,12108 Z"/>
         <path fill="rgb(0,0,0)" stroke="none" d="M 8381,11963 C 8329,11963 8282,11986 8253,12024 8217,12073 8199,12147 8199,12250 8199,12436 8262,12535 8381,12535 8498,12535 8562,12436 8562,12254 8562,12146 8544,12074 8508,12024 8479,11986 8433,11963 8381,11963 L 8381,11963 Z M 8381,12024 C 8455,12024 8492,12099 8492,12248 8492,12405 8455,12478 8379,12478 8306,12478 8270,12402 8270,12250 8270,12098 8306,12024 8381,12024 L 8381,12024 Z"/>
         <path fill="rgb(0,0,0)" stroke="none" d="M 8618,12683 L 8763,12683 8763,11948 8618,11948 8618,12004 8698,12004 8698,12627 8618,12627 8618,12683 Z"/>
         <path fill="none" stroke="rgb(0,0,0)" stroke-width="391" stroke-linejoin="miter" d="M 5231,13799 L 6012,13799"/>
         <path fill="rgb(0,0,0)" stroke="none" d="M 6230,14080 L 6487,14080 C 6541,14080 6581,14065 6611,14032 6639,14002 6655,13962 6655,13917 6655,13849 6623,13807 6551,13779 6603,13755 6630,13713 6630,13655 6630,13613 6614,13577 6585,13550 6555,13523 6516,13510 6461,13510 L 6230,13510 6230,14080 Z M 6302,13756 L 6302,13574 6443,13574 C 6484,13574 6506,13580 6526,13594 6546,13610 6557,13634 6557,13665 6557,13695 6546,13719 6526,13735 6506,13750 6484,13756 6443,13756 L 6302,13756 Z M 6302,14016 L 6302,13820 6480,13820 C 6515,13820 6539,13828 6556,13847 6573,13865 6582,13890 6582,13918 6582,13946 6573,13970 6556,13988 6539,14007 6515,14016 6480,14016 L 6302,14016 Z"/>
         <path fill="rgb(0,0,0)" stroke="none" d="M 7141,14178 L 6672,14178 6672,14217 7141,14217 7141,14178 Z"/>
         <path fill="rgb(0,0,0)" stroke="none" d="M 7241,13671 L 7176,13671 7176,14080 7241,14080 7241,13671 Z M 7241,13510 L 7175,13510 7175,13592 7241,13592 7241,13510 Z"/>
         <path fill="rgb(0,0,0)" stroke="none" d="M 7492,13510 L 7347,13510 7347,14246 7492,14246 7492,14189 7412,14189 7412,13566 7492,13566 7492,13510 Z"/>
         <path fill="rgb(0,0,0)" stroke="none" d="M 7687,13826 L 7695,13826 7724,13825 C 7800,13825 7839,13859 7839,13926 7839,13996 7796,14037 7724,14037 7649,14037 7612,13999 7608,13919 L 7539,13919 C 7542,13964 7550,13992 7564,14017 7592,14071 7646,14098 7722,14098 7836,14098 7909,14030 7909,13925 7909,13855 7882,13816 7816,13793 7867,13773 7893,13734 7893,13678 7893,13583 7830,13526 7724,13526 7612,13526 7553,13587 7551,13705 L 7620,13705 C 7620,13671 7624,13653 7632,13635 7648,13605 7682,13586 7725,13586 7786,13586 7823,13622 7823,13681 7823,13719 7809,13743 7778,13756 7759,13764 7735,13766 7687,13767 L 7687,13826 Z"/>
         <path fill="rgb(0,0,0)" stroke="none" d="M 8116,13998 L 8034,13998 8034,14080 8116,14080 8116,13998 Z M 8116,13671 L 8034,13671 8034,13752 8116,13752 8116,13671 Z"/>
         <path fill="rgb(0,0,0)" stroke="none" d="M 8381,13526 C 8329,13526 8282,13548 8253,13587 8217,13635 8199,13709 8199,13812 8199,13998 8262,14098 8381,14098 8498,14098 8562,13998 8562,13816 8562,13709 8544,13637 8508,13587 8479,13548 8433,13526 8381,13526 L 8381,13526 Z M 8381,13587 C 8455,13587 8492,13662 8492,13811 8492,13967 8455,14041 8379,14041 8306,14041 8270,13964 8270,13812 8270,13661 8306,13587 8381,13587 L 8381,13587 Z"/>
         <path fill="rgb(0,0,0)" stroke="none" d="M 8618,14246 L 8763,14246 8763,13510 8618,13510 8618,13566 8698,13566 8698,14189 8618,14189 8618,14246 Z"/>
         <path fill="none" stroke="rgb(0,0,0)" stroke-width="234" stroke-linejoin="miter" d="M 5231,15362 L 6012,15362"/>
         <path fill="rgb(0,0,0)" stroke="none" d="M 6685,15249 C 6663,15125 6591,15063 6466,15063 6389,15063 6327,15088 6285,15135 6233,15191 6205,15272 6205,15364 6205,15458 6234,15538 6288,15594 6332,15639 6388,15660 6463,15660 6602,15660 6680,15585 6697,15435 L 6622,15435 C 6616,15474 6608,15500 6596,15523 6573,15570 6525,15596 6464,15596 6350,15596 6278,15506 6278,15363 6278,15218 6347,15127 6457,15127 6503,15127 6546,15141 6570,15163 6591,15183 6603,15207 6611,15249 L 6685,15249 Z"/>
         <path fill="rgb(0,0,0)" stroke="none" d="M 7184,15741 L 6715,15741 6715,15780 7184,15780 7184,15741 Z"/>
         <path fill="rgb(0,0,0)" stroke="none" d="M 7284,15233 L 7219,15233 7219,15642 7284,15642 7284,15233 Z M 7284,15073 L 7218,15073 7218,15155 7284,15155 7284,15073 Z"/>
         <path fill="none" stroke="rgb(0,0,0)" stroke-width="391" stroke-linejoin="miter" d="M 16168,13018 L 15387,13018"/>
         <path fill="rgb(0,0,0)" stroke="none" d="M 12623,13075 L 12837,12729 12750,12729 12588,13007 12420,12729 12330,12729 12550,13075 12550,13299 12623,13299 12623,13075 Z"/>
         <path fill="rgb(0,0,0)" stroke="none" d="M 13293,13397 L 12824,13397 12824,13436 13293,13436 13293,13397 Z"/>
         <path fill="rgb(0,0,0)" stroke="none" d="M 13488,12878 C 13374,12878 13304,12960 13304,13097 13304,13235 13373,13317 13489,13317 13604,13317 13674,13235 13674,13100 13674,12959 13606,12878 13488,12878 L 13488,12878 Z M 13489,12938 C 13563,12938 13606,12998 13606,13100 13606,13195 13561,13256 13489,13256 13416,13256 13372,13196 13372,13097 13372,12999 13416,12938 13489,12938 L 13489,12938 Z"/>
         <path fill="rgb(0,0,0)" stroke="none" d="M 13905,12729 L 13760,12729 13760,13464 13905,13464 13905,13408 13825,13408 13825,12785 13905,12785 13905,12729 Z"/>
         <path fill="rgb(0,0,0)" stroke="none" d="M 14100,13045 L 14108,13045 14138,13044 C 14213,13044 14252,13078 14252,13145 14252,13214 14209,13256 14138,13256 14062,13256 14026,13218 14021,13138 L 13952,13138 C 13955,13182 13963,13211 13977,13236 14005,13289 14060,13317 14135,13317 14249,13317 14323,13249 14323,13144 14323,13073 14295,13035 14229,13012 14280,12992 14306,12952 14306,12897 14306,12802 14243,12744 14138,12744 14026,12744 13967,12806 13964,12924 L 14033,12924 C 14033,12890 14037,12871 14046,12854 14061,12823 14095,12805 14139,12805 14199,12805 14236,12841 14236,12899 14236,12938 14222,12962 14191,12975 14172,12982 14148,12985 14100,12986 L 14100,13045 Z"/>
         <path fill="rgb(0,0,0)" stroke="none" d="M 14529,13217 L 14447,13217 14447,13299 14529,13299 14529,13217 Z M 14529,12889 L 14447,12889 14447,12971 14529,12971 14529,12889 Z"/>
         <path fill="rgb(0,0,0)" stroke="none" d="M 14794,12744 C 14742,12744 14695,12767 14667,12806 14630,12854 14612,12928 14612,13031 14612,13217 14675,13317 14794,13317 14911,13317 14975,13217 14975,13035 14975,12928 14958,12855 14921,12806 14892,12767 14846,12744 14794,12744 L 14794,12744 Z M 14794,12806 C 14868,12806 14905,12881 14905,13029 14905,13186 14869,13259 14792,13259 14719,13259 14683,13183 14683,13031 14683,12880 14719,12806 14794,12806 L 14794,12806 Z"/>
         <path fill="rgb(0,0,0)" stroke="none" d="M 15031,13464 L 15176,13464 15176,12729 15031,12729 15031,12785 15112,12785 15112,13408 15031,13408 15031,13464 Z"/>
         <path fill="none" stroke="rgb(0,0,0)" stroke-width="234" stroke-linejoin="miter" d="M 16168,14581 L 15387,14581"/>
         <path fill="rgb(0,0,0)" stroke="none" d="M 14315,14468 C 14292,14343 14221,14282 14096,14282 14019,14282 13957,14306 13915,14353 13863,14410 13835,14491 13835,14583 13835,14677 13864,14757 13918,14813 13962,14858 14018,14879 14092,14879 14231,14879 14310,14804 14327,14653 L 14252,14653 C 14245,14693 14237,14719 14226,14741 14203,14788 14154,14815 14093,14815 13980,14815 13908,14725 13908,14582 13908,14436 13976,14346 14087,14346 14133,14346 14176,14360 14199,14382 14221,14402 14232,14426 14241,14468 L 14315,14468 Z"/>
         <path fill="rgb(0,0,0)" stroke="none" d="M 14813,14959 L 14345,14959 14345,14999 14813,14999 14813,14959 Z"/>
         <path fill="rgb(0,0,0)" stroke="none" d="M 15009,14440 C 14894,14440 14824,14522 14824,14660 14824,14797 14893,14879 15009,14879 15124,14879 15195,14797 15195,14662 15195,14521 15126,14440 15009,14440 L 15009,14440 Z M 15009,14500 C 15083,14500 15126,14560 15126,14662 15126,14758 15081,14819 15009,14819 14937,14819 14892,14759 14892,14660 14892,14561 14937,14500 15009,14500 L 15009,14500 Z"/>
         <path fill="none" stroke="rgb(63,110,158)" stroke-width="78" stroke-linejoin="miter" d="M 6559,10674 L 14840,10674"/>
         <path fill="none" stroke="rgb(63,110,158)" stroke-width="78" stroke-linejoin="miter" d="M 15387,11221 C 15387,11213 15387,11204 15387,11195 15379,10900 15135,10667 14840,10674"/>
         <path fill="none" stroke="rgb(63,110,158)" stroke-width="78" stroke-linejoin="miter" d="M 15387,11221 L 15387,16377"/>
         <path fill="none" stroke="rgb(63,110,158)" stroke-width="78" stroke-linejoin="miter" d="M 14840,16924 C 14848,16925 14857,16925 14866,16924 15161,16917 15394,16672 15387,16377"/>
         <path fill="none" stroke="rgb(63,110,158)" stroke-width="78" stroke-linejoin="miter" d="M 14840,16924 L 6559,16924"/>
         <path fill="none" stroke="rgb(63,110,158)" stroke-width="78" stroke-linejoin="miter" d="M 6012,16377 C 6012,16386 6012,16395 6012,16403 6019,16698 6264,16932 6559,16924"/>
         <path fill="none" stroke="rgb(63,110,158)" stroke-width="78" stroke-linejoin="miter" d="M 6012,16377 L 6012,11221"/>
         <path fill="none" stroke="rgb(63,110,158)" stroke-width="78" stroke-linejoin="miter" d="M 6559,10674 C 6550,10674 6541,10674 6533,10674 6238,10682 6005,10926 6012,11221"/>
        </g>
       </g>
      </g>
     </g>
    </g>
   </g>
  </g>
 </g>
</svg>