<?xml version="1.0" encoding="UTF-8"?>
<!DOCTYPE svg PUBLIC "-//W3C//DTD SVG 1.1//EN" "http://www.w3.org/Graphics/SVG/1.1/DTD/svg11.dtd">
<svg version="1.2" width="145.99mm" height="139.99mm" viewBox="3800 6400 14599 13999" preserveAspectRatio="xMidYMid" fill-rule="evenodd" stroke-width="28.222" stroke-linejoin="round" xmlns="http://www.w3.org/2000/svg" xmlns:ooo="http://xml.openoffice.org/svg/export" xmlns:xlink="http://www.w3.org/1999/xlink" xmlns:presentation="http://sun.com/xmlns/staroffice/presentation" xmlns:smil="http://www.w3.org/2001/SMIL20/" xmlns:anim="urn:oasis:names:tc:opendocument:xmlns:animation:1.0" xml:space="preserve">
 <defs class="ClipPathGroup">
  <clipPath id="presentation_clip_path" clipPathUnits="userSpaceOnUse">
   <rect x="3800" y="6400" width="14599" height="13999"/>
  </clipPath>
  <clipPath id="presentation_clip_path_shrink" clipPathUnits="userSpaceOnUse">
   <rect x="3814" y="6413" width="14570" height="13972"/>
  </clipPath>
 </defs>
 <defs class="TextShapeIndex">
  <g ooo:slide="id1" ooo:id-list="id3"/>
 </defs>
 <defs class="EmbeddedBulletChars">
  <g id="bullet-char-template-57356" transform="scale(0.00048828125,-0.00048828125)">
   <path d="M 580,1141 L 1163,571 580,0 -4,571 580,1141 Z"/>
  </g>
  <g id="bullet-char-template-57354" transform="scale(0.00048828125,-0.00048828125)">
   <path d="M 8,1128 L 1137,1128 1137,0 8,0 8,1128 Z"/>
  </g>
  <g id="bullet-char-template-10146" transform="scale(0.00048828125,-0.00048828125)">
   <path d="M 174,0 L 602,739 174,1481 1456,739 174,0 Z M 1358,739 L 309,1346 659,739 1358,739 Z"/>
  </g>
  <g id="bullet-char-template-10132" transform="scale(0.00048828125,-0.00048828125)">
   <path d="M 2015,739 L 1276,0 717,0 1260,543 174,543 174,936 1260,936 717,1481 1274,1481 2015,739 Z"/>
  </g>
  <g id="bullet-char-template-10007" transform="scale(0.00048828125,-0.00048828125)">
   <path d="M 0,-2 C -7,14 -16,27 -25,37 L 356,567 C 262,823 215,952 215,954 215,979 228,992 255,992 264,992 276,990 289,987 310,991 331,999 354,1012 L 381,999 492,748 772,1049 836,1024 860,1049 C 881,1039 901,1025 922,1006 886,937 835,863 770,784 769,783 710,716 594,584 L 774,223 C 774,196 753,168 711,139 L 727,119 C 717,90 699,76 672,76 641,76 570,178 457,381 L 164,-76 C 142,-110 111,-127 72,-127 30,-127 9,-110 8,-76 1,-67 -2,-52 -2,-32 -2,-23 -1,-13 0,-2 Z"/>
  </g>
  <g id="bullet-char-template-10004" transform="scale(0.00048828125,-0.00048828125)">
   <path d="M 285,-33 C 182,-33 111,30 74,156 52,228 41,333 41,471 41,549 55,616 82,672 116,743 169,778 240,778 293,778 328,747 346,684 L 369,508 C 377,444 397,411 428,410 L 1163,1116 C 1174,1127 1196,1133 1229,1133 1271,1133 1292,1118 1292,1087 L 1292,965 C 1292,929 1282,901 1262,881 L 442,47 C 390,-6 338,-33 285,-33 Z"/>
  </g>
  <g id="bullet-char-template-9679" transform="scale(0.00048828125,-0.00048828125)">
   <path d="M 813,0 C 632,0 489,54 383,161 276,268 223,411 223,592 223,773 276,916 383,1023 489,1130 632,1184 813,1184 992,1184 1136,1130 1245,1023 1353,916 1407,772 1407,592 1407,412 1353,268 1245,161 1136,54 992,0 813,0 Z"/>
  </g>
  <g id="bullet-char-template-8226" transform="scale(0.00048828125,-0.00048828125)">
   <path d="M 346,457 C 273,457 209,483 155,535 101,586 74,649 74,723 74,796 101,859 155,911 209,963 273,989 346,989 419,989 480,963 531,910 582,859 608,796 608,723 608,648 583,586 532,535 482,483 420,457 346,457 Z"/>
  </g>
  <g id="bullet-char-template-8211" transform="scale(0.00048828125,-0.00048828125)">
   <path d="M -4,459 L 1135,459 1135,606 -4,606 -4,459 Z"/>
  </g>
  <g id="bullet-char-template-61548" transform="scale(0.00048828125,-0.00048828125)">
   <path d="M 173,740 C 173,903 231,1043 346,1159 462,1274 601,1332 765,1332 928,1332 1067,1274 1183,1159 1299,1043 1357,903 1357,740 1357,577 1299,437 1183,322 1067,206 928,148 765,148 601,148 462,206 346,322 231,437 173,577 173,740 Z"/>
  </g>
 </defs>
 <defs class="TextEmbeddedBitmaps"/>
 <g class="SlideGroup">
  <g>
   <g id="container-id1">
    <g id="id1" class="Slide" clip-path="url(#presentation_clip_path)">
     <g class="Page">
      <g class="Graphic">
       <g id="id3">
        <rect class="BoundingBox" stroke="none" fill="none" x="3800" y="6400" width="14600" height="14000"/>
        <defs>
         <clipPath id="clip_path_1" clipPathUnits="userSpaceOnUse">
          <path d="M 3800,6400 L 18399,6400 18399,20399 3800,20399 3800,6400 Z"/>
         </clipPath>
        </defs>
        <g clip-path="url(#clip_path_1)"/>
        <defs>
         <clipPath id="clip_path_2" clipPathUnits="userSpaceOnUse">
          <path d="M 3800,6400 L 18399,6400 18399,20399 3800,20399 3800,6400 Z"/>
         </clipPath>
        </defs>
        <g clip-path="url(#clip_path_2)">
         <path fill="rgb(255,255,255)" stroke="none" d="M 2496,5785 L 19685,5785 19685,21309 2496,21309 2496,5785 Z"/>
        </g>
        <g clip-path="url(#clip_path_1)">
         <path fill="rgb(0,0,0)" stroke="none" d="M 5475,7790 L 17278,7790 17450,7847 17565,7904 17622,8019 17679,8191 17679,18846 17622,19018 17565,19133 17450,19190 17278,19247 5475,19247 5303,19190 5189,19133 5132,19018 5074,18846 5074,8191 5132,8019 5189,7904 5303,7847 5475,7790 Z"/>
        </g>
        <defs>
         <clipPath id="clip_path_3" clipPathUnits="userSpaceOnUse">
          <path d="M 5189,7504 L 16992,7504 17164,7561 17278,7618 17336,7733 17393,7904 17393,18560 17336,18732 17278,18846 17164,18903 16992,18961 5189,18961 5017,18903 4902,18846 4845,18732 4788,18560 4788,7904 4845,7733 4902,7618 5017,7561 5189,7504 Z"/>
         </clipPath>
        </defs>
        <g clip-path="url(#clip_path_3)"/>
        <defs>
         <clipPath id="clip_path_4" clipPathUnits="userSpaceOnUse">
          <path d="M 5189,7504 L 16992,7504 17164,7561 17278,7618 17336,7733 17393,7904 17393,18560 17336,18732 17278,18846 17164,18903 16992,18961 5189,18961 5017,18903 4902,18846 4845,18732 4788,18560 4788,7904 4845,7733 4902,7618 5017,7561 5189,7504 Z"/>
         </clipPath>
        </defs>
        <g clip-path="url(#clip_path_4)">
         <path fill="rgb(187,211,236)" stroke="none" d="M -921,13728 L -919,13730 10544,1227 10542,1225 -921,13728 Z"/>
         <path fill="rgb(187,211,236)" stroke="none" d="M -921,13728 L -723,13910 10741,1407 10542,1225 -921,13728 Z"/>
         <path fill="rgb(187,211,236)" stroke="none" d="M -725,13908 L -527,14090 10937,1587 10738,1405 -725,13908 Z"/>
         <path fill="rgb(188,211,236)" stroke="none" d="M -529,14088 L -330,14270 11133,1766 10934,1584 -529,14088 Z"/>
         <path fill="rgb(189,212,236)" stroke="none" d="M -333,14268 L -134,14450 11329,1946 11131,1764 -333,14268 Z"/>
         <path fill="rgb(190,212,236)" stroke="none" d="M -137,14448 L 62,14630 11526,2126 11327,1944 -137,14448 Z"/>
         <path fill="rgb(191,213,236)" stroke="none" d="M 60,14627 L 258,14809 11722,2306 11523,2124 60,14627 Z"/>
         <path fill="rgb(191,213,237)" stroke="none" d="M 256,14807 L 454,14989 11918,2486 11719,2304 256,14807 Z"/>
         <path fill="rgb(192,214,237)" stroke="none" d="M 452,14987 L 651,15169 12114,2666 11916,2484 452,14987 Z"/>
         <path fill="rgb(193,215,237)" stroke="none" d="M 648,15167 L 847,15349 12310,2845 12112,2663 648,15167 Z"/>
         <path fill="rgb(194,215,237)" stroke="none" d="M 845,15347 L 1043,15529 12507,3025 12308,2843 845,15347 Z"/>
         <path fill="rgb(195,216,237)" stroke="none" d="M 1041,15527 L 1239,15709 12703,3205 12504,3023 1041,15527 Z"/>
         <path fill="rgb(196,216,237)" stroke="none" d="M 1237,15706 L 1436,15888 12899,3385 12700,3203 1237,15706 Z"/>
         <path fill="rgb(197,217,238)" stroke="none" d="M 1433,15886 L 1632,16068 13095,3565 12897,3383 1433,15886 Z"/>
         <path fill="rgb(197,217,238)" stroke="none" d="M 1629,16066 L 1828,16248 13291,3745 13093,3562 1629,16066 Z"/>
         <path fill="rgb(198,218,238)" stroke="none" d="M 1826,16246 L 2024,16428 13488,3924 13289,3742 1826,16246 Z"/>
         <path fill="rgb(199,218,238)" stroke="none" d="M 2022,16426 L 2220,16608 13684,4104 13485,3922 2022,16426 Z"/>
         <path fill="rgb(200,219,238)" stroke="none" d="M 2218,16606 L 2417,16788 13880,4284 13681,4102 2218,16606 Z"/>
         <path fill="rgb(201,219,238)" stroke="none" d="M 2414,16785 L 2613,16967 14076,4464 13878,4282 2414,16785 Z"/>
         <path fill="rgb(202,220,239)" stroke="none" d="M 2610,16965 L 2809,17147 14272,4644 14074,4462 2610,16965 Z"/>
         <path fill="rgb(203,220,239)" stroke="none" d="M 2807,17145 L 3005,17327 14469,4824 14270,4641 2807,17145 Z"/>
         <path fill="rgb(203,221,239)" stroke="none" d="M 3003,17325 L 3201,17507 14665,5003 14466,4821 3003,17325 Z"/>
         <path fill="rgb(204,221,239)" stroke="none" d="M 3199,17505 L 3398,17687 14861,5183 14662,5001 3199,17505 Z"/>
         <path fill="rgb(205,222,239)" stroke="none" d="M 3395,17684 L 3594,17867 15057,5363 14859,5181 3395,17684 Z"/>
         <path fill="rgb(206,222,239)" stroke="none" d="M 3591,17864 L 3790,18046 15254,5543 15055,5361 3591,17864 Z"/>
         <path fill="rgb(207,223,240)" stroke="none" d="M 3788,18044 L 3986,18226 15450,5723 15251,5541 3788,18044 Z"/>
         <path fill="rgb(208,223,240)" stroke="none" d="M 3984,18224 L 4182,18406 15646,5902 15447,5720 3984,18224 Z"/>
         <path fill="rgb(209,224,240)" stroke="none" d="M 4180,18404 L 4379,18586 15842,6082 15644,5900 4180,18404 Z"/>
         <path fill="rgb(209,224,240)" stroke="none" d="M 4376,18584 L 4575,18766 16038,6262 15840,6080 4376,18584 Z"/>
         <path fill="rgb(210,225,240)" stroke="none" d="M 4573,18763 L 4771,18946 16235,6442 16036,6260 4573,18763 Z"/>
         <path fill="rgb(211,225,241)" stroke="none" d="M 4769,18943 L 4789,18962 16252,6458 16232,6440 4769,18943 Z"/>
         <path fill="rgb(212,226,241)" stroke="none" d="M 4787,18960 L 4967,19125 16431,6622 16250,6456 4787,18960 Z"/>
         <path fill="rgb(212,226,241)" stroke="none" d="M 4965,19123 L 5164,19305 16627,6802 16428,6620 4965,19123 Z"/>
         <path fill="rgb(213,226,241)" stroke="none" d="M 5161,19303 L 5360,19485 16823,6981 16625,6799 5161,19303 Z"/>
         <path fill="rgb(214,227,241)" stroke="none" d="M 5357,19483 L 5556,19665 17019,7161 16821,6979 5357,19483 Z"/>
         <path fill="rgb(214,227,241)" stroke="none" d="M 5554,19663 L 5752,19845 17216,7341 17017,7159 5554,19663 Z"/>
         <path fill="rgb(215,228,241)" stroke="none" d="M 5750,19842 L 5931,20008 17394,7505 17213,7339 5750,19842 Z"/>
         <path fill="rgb(216,228,242)" stroke="none" d="M 5928,20006 L 5948,20024 17412,7521 17392,7502 5928,20006 Z"/>
         <path fill="rgb(217,229,242)" stroke="none" d="M 5946,20022 L 6145,20204 17608,7701 17409,7519 5946,20022 Z"/>
         <path fill="rgb(217,229,242)" stroke="none" d="M 6142,20202 L 6341,20384 17804,7881 17606,7699 6142,20202 Z"/>
         <path fill="rgb(218,229,242)" stroke="none" d="M 6338,20382 L 6537,20564 18000,8060 17802,7878 6338,20382 Z"/>
         <path fill="rgb(219,230,242)" stroke="none" d="M 6535,20562 L 6733,20744 18197,8240 17998,8058 6535,20562 Z"/>
         <path fill="rgb(220,230,242)" stroke="none" d="M 6731,20742 L 6929,20924 18393,8420 18194,8238 6731,20742 Z"/>
         <path fill="rgb(220,231,242)" stroke="none" d="M 6927,20921 L 7126,21103 18589,8600 18390,8418 6927,20921 Z"/>
         <path fill="rgb(221,231,243)" stroke="none" d="M 7123,21101 L 7322,21283 18785,8780 18587,8598 7123,21101 Z"/>
         <path fill="rgb(222,232,243)" stroke="none" d="M 7319,21281 L 7518,21463 18982,8960 18783,8778 7319,21281 Z"/>
         <path fill="rgb(223,232,243)" stroke="none" d="M 7516,21461 L 7714,21643 19178,9139 18979,8957 7516,21461 Z"/>
         <path fill="rgb(224,233,243)" stroke="none" d="M 7712,21641 L 7910,21823 19374,9319 19175,9137 7712,21641 Z"/>
         <path fill="rgb(225,233,243)" stroke="none" d="M 7908,21821 L 8107,22003 19570,9499 19372,9317 7908,21821 Z"/>
         <path fill="rgb(226,234,243)" stroke="none" d="M 8104,22000 L 8303,22182 19766,9679 19568,9497 8104,22000 Z"/>
         <path fill="rgb(226,235,244)" stroke="none" d="M 8301,22180 L 8499,22362 19963,9859 19764,9677 8301,22180 Z"/>
         <path fill="rgb(227,235,244)" stroke="none" d="M 8497,22360 L 8695,22542 20159,10039 19960,9857 8497,22360 Z"/>
         <path fill="rgb(228,236,244)" stroke="none" d="M 8693,22540 L 8892,22722 20355,10218 20156,10036 8693,22540 Z"/>
         <path fill="rgb(229,236,244)" stroke="none" d="M 8889,22720 L 9088,22902 20551,10398 20353,10216 8889,22720 Z"/>
         <path fill="rgb(230,237,244)" stroke="none" d="M 9085,22900 L 9284,23082 20747,10578 20549,10396 9085,22900 Z"/>
         <path fill="rgb(231,237,244)" stroke="none" d="M 9282,23079 L 9480,23261 20944,10758 20745,10576 9282,23079 Z"/>
         <path fill="rgb(232,238,245)" stroke="none" d="M 9478,23259 L 9676,23441 21140,10938 20941,10756 9478,23259 Z"/>
         <path fill="rgb(232,238,245)" stroke="none" d="M 9674,23439 L 9873,23621 21336,11118 21137,10936 9674,23439 Z"/>
         <path fill="rgb(233,239,245)" stroke="none" d="M 9870,23619 L 10069,23801 21532,11297 21334,11115 9870,23619 Z"/>
         <path fill="rgb(234,239,245)" stroke="none" d="M 10066,23799 L 10265,23981 21728,11477 21530,11295 10066,23799 Z"/>
         <path fill="rgb(235,240,245)" stroke="none" d="M 10263,23979 L 10461,24161 21925,11657 21726,11475 10263,23979 Z"/>
         <path fill="rgb(236,240,245)" stroke="none" d="M 10459,24158 L 10657,24340 22121,11837 21922,11655 10459,24158 Z"/>
         <path fill="rgb(237,241,246)" stroke="none" d="M 10655,24338 L 10854,24520 22317,12017 22118,11835 10655,24338 Z"/>
         <path fill="rgb(238,241,246)" stroke="none" d="M 10851,24518 L 11050,24700 22513,12197 22315,12015 10851,24518 Z"/>
         <path fill="rgb(238,242,246)" stroke="none" d="M 11047,24698 L 11246,24880 22710,12376 22511,12194 11047,24698 Z"/>
         <path fill="rgb(239,242,246)" stroke="none" d="M 11244,24878 L 11442,25060 22906,12556 22707,12374 11244,24878 Z"/>
         <path fill="rgb(240,243,246)" stroke="none" d="M 11440,25058 L 11638,25240 23102,12736 22903,12554 11440,25058 Z"/>
        </g>
        <g clip-path="url(#clip_path_3)"/>
        <g clip-path="url(#clip_path_1)">
         <path fill="rgb(0,0,0)" stroke="none" d="M 9872,7213 C 9865,7214 9863,7214 9860,7214 9839,7214 9829,7204 9829,7186 L 9829,6974 C 9829,6910 9782,6876 9693,6876 9641,6876 9598,6891 9573,6918 9557,6937 9550,6957 9549,6993 L 9606,6993 C 9611,6949 9637,6929 9691,6929 9742,6929 9772,6948 9772,6983 L 9772,6998 C 9772,7022 9757,7032 9712,7038 9631,7048 9618,7051 9596,7060 9554,7077 9533,7109 9533,7156 9533,7221 9578,7263 9651,7263 9696,7263 9733,7247 9773,7209 9778,7246 9796,7263 9833,7263 9844,7263 9853,7261 9872,7256 L 9872,7213 Z M 9772,7133 C 9772,7153 9766,7164 9749,7180 9725,7201 9697,7212 9663,7212 9619,7212 9593,7191 9593,7155 9593,7117 9618,7097 9679,7089 9740,7081 9752,7078 9772,7068 L 9772,7133 Z"/>
         <path fill="rgb(0,0,0)" stroke="none" d="M 9991,6746 L 9933,6746 9933,7247 9991,7247 9991,6746 Z"/>
         <path fill="rgb(0,0,0)" stroke="none" d="M 10370,7247 L 10370,6886 10313,6886 10313,7091 C 10313,7164 10275,7212 10215,7212 10170,7212 10141,7185 10141,7142 L 10141,6886 10084,6886 10084,7164 C 10084,7224 10128,7263 10198,7263 10251,7263 10285,7244 10319,7196 L 10319,7247 10370,7247 Z"/>
         <path fill="rgb(0,0,0)" stroke="none" d="M 10819,7333 L 10406,7333 10406,7368 10819,7368 10819,7333 Z"/>
         <path fill="rgb(0,0,0)" stroke="none" d="M 11135,7247 L 11135,6886 11078,6886 11078,7091 C 11078,7164 11039,7212 10979,7212 10934,7212 10905,7185 10905,7142 L 10905,6886 10848,6886 10848,7164 C 10848,7224 10893,7263 10963,7263 11016,7263 11050,7244 11084,7196 L 11084,7247 11135,7247 Z"/>
         <path fill="rgb(0,0,0)" stroke="none" d="M 11234,6886 L 11234,7247 11292,7247 11292,7048 C 11292,6974 11330,6926 11389,6926 11435,6926 11463,6954 11463,6997 L 11463,7247 11521,7247 11521,6974 C 11521,6915 11476,6876 11407,6876 11353,6876 11319,6897 11287,6947 L 11287,6886 11234,6886 Z"/>
         <path fill="rgb(0,0,0)" stroke="none" d="M 11671,6886 L 11614,6886 11614,7247 11671,7247 11671,6886 Z M 11671,6746 L 11614,6746 11614,6818 11671,6818 11671,6746 Z"/>
         <path fill="rgb(0,0,0)" stroke="none" d="M 11895,6886 L 11836,6886 11836,6787 11779,6787 11779,6886 11730,6886 11730,6933 11779,6933 11779,7205 C 11779,7242 11804,7263 11849,7263 11862,7263 11876,7261 11895,7258 L 11895,7209 C 11888,7212 11879,7212 11868,7212 11843,7212 11836,7205 11836,7180 L 11836,6933 11895,6933 11895,6886 Z"/>
         <path fill="rgb(0,0,0)" stroke="none" d="M 12309,7333 L 11897,7333 11897,7368 12309,7368 12309,7333 Z"/>
         <path fill="rgb(0,0,0)" stroke="none" d="M 12483,6759 C 12438,6759 12396,6779 12371,6813 12340,6856 12324,6921 12324,7011 12324,7175 12379,7263 12483,7263 12586,7263 12642,7175 12642,7015 12642,6920 12627,6857 12595,6813 12570,6779 12529,6759 12483,6759 L 12483,6759 Z M 12483,6813 C 12548,6813 12581,6879 12581,7009 12581,7148 12549,7212 12482,7212 12418,7212 12386,7145 12386,7012 12386,6878 12418,6813 12483,6813 L 12483,6813 Z"/>
         <path fill="rgb(63,110,158)" stroke="none" d="M 9318,19764 C 9311,19766 9309,19766 9306,19766 9285,19766 9275,19755 9275,19738 L 9275,19526 C 9275,19462 9228,19428 9139,19428 9087,19428 9043,19443 9019,19470 9003,19488 8996,19509 8995,19544 L 9052,19544 C 9057,19501 9083,19480 9137,19480 9188,19480 9217,19500 9217,19534 L 9217,19549 C 9217,19573 9203,19583 9158,19589 9076,19599 9064,19602 9042,19611 9000,19629 8979,19660 8979,19707 8979,19772 9024,19814 9097,19814 9142,19814 9179,19798 9219,19761 9224,19798 9242,19814 9278,19814 9290,19814 9299,19813 9318,19808 L 9318,19764 Z M 9217,19685 C 9217,19704 9212,19716 9195,19731 9171,19753 9143,19764 9109,19764 9065,19764 9039,19742 9039,19706 9039,19668 9064,19649 9125,19640 9186,19632 9198,19629 9217,19620 L 9217,19685 Z"/>
         <path fill="rgb(63,110,158)" stroke="none" d="M 9437,19297 L 9379,19297 9379,19798 9437,19798 9437,19297 Z"/>
         <path fill="rgb(63,110,158)" stroke="none" d="M 9816,19798 L 9816,19438 9759,19438 9759,19642 C 9759,19716 9721,19764 9661,19764 9616,19764 9587,19736 9587,19693 L 9587,19438 9529,19438 9529,19716 C 9529,19775 9574,19814 9644,19814 9697,19814 9731,19795 9765,19748 L 9765,19798 9816,19798 Z"/>
         <path fill="rgb(63,110,158)" stroke="none" d="M 10264,19885 L 9852,19885 9852,19919 10264,19919 10264,19885 Z"/>
         <path fill="rgb(63,110,158)" stroke="none" d="M 10581,19798 L 10581,19438 10524,19438 10524,19642 C 10524,19716 10485,19764 10425,19764 10380,19764 10351,19736 10351,19693 L 10351,19438 10294,19438 10294,19716 C 10294,19775 10339,19814 10409,19814 10462,19814 10495,19795 10529,19748 L 10529,19798 10581,19798 Z"/>
         <path fill="rgb(63,110,158)" stroke="none" d="M 10680,19438 L 10680,19798 10738,19798 10738,19599 C 10738,19526 10776,19478 10835,19478 10881,19478 10909,19505 10909,19549 L 10909,19798 10966,19798 10966,19526 C 10966,19466 10922,19428 10853,19428 10799,19428 10764,19448 10733,19498 L 10733,19438 10680,19438 Z"/>
         <path fill="rgb(63,110,158)" stroke="none" d="M 11117,19438 L 11060,19438 11060,19798 11117,19798 11117,19438 Z M 11117,19297 L 11059,19297 11059,19369 11117,19369 11117,19297 Z"/>
         <path fill="rgb(63,110,158)" stroke="none" d="M 11341,19438 L 11282,19438 11282,19339 11225,19339 11225,19438 11176,19438 11176,19485 11225,19485 11225,19757 C 11225,19793 11250,19814 11294,19814 11308,19814 11322,19813 11341,19809 L 11341,19761 C 11334,19763 11325,19764 11314,19764 11289,19764 11282,19757 11282,19731 L 11282,19485 11341,19485 11341,19438 Z"/>
         <path fill="rgb(63,110,158)" stroke="none" d="M 11755,19885 L 11343,19885 11343,19919 11755,19919 11755,19885 Z"/>
         <path fill="rgb(63,110,158)" stroke="none" d="M 11936,19798 L 12074,19438 12009,19438 11908,19730 11812,19438 11747,19438 11873,19798 11936,19798 Z"/>
         <path fill="rgb(63,110,158)" stroke="none" d="M 12262,19451 L 12262,19798 12322,19798 12322,19311 12282,19311 C 12261,19386 12248,19396 12154,19408 L 12154,19451 12262,19451 Z"/>
         <path fill="rgb(63,110,158)" stroke="none" d="M 12863,19885 L 12451,19885 12451,19919 12863,19919 12863,19885 Z"/>
         <path fill="rgb(63,110,158)" stroke="none" d="M 13196,19738 L 12940,19738 C 12946,19698 12968,19673 13028,19638 L 13096,19601 C 13165,19564 13200,19514 13200,19454 13200,19413 13183,19375 13154,19349 13125,19323 13090,19311 13044,19311 12982,19311 12936,19333 12909,19374 12891,19400 12884,19430 12883,19480 L 12943,19480 C 12945,19447 12950,19427 12958,19411 12973,19382 13005,19364 13042,19364 13096,19364 13138,19403 13138,19455 13138,19493 13115,19526 13072,19552 L 13009,19587 C 12907,19645 12877,19691 12872,19798 L 13196,19798 13196,19738 Z"/>
         <path fill="none" stroke="rgb(0,0,0)" stroke-width="286" stroke-linejoin="miter" d="M 4215,10941 L 4788,10941"/>
         <path fill="rgb(0,0,0)" stroke="none" d="M 4943,10846 L 4943,11146 4991,11146 4991,10981 C 4991,10920 5022,10879 5072,10879 5110,10879 5134,10902 5134,10939 L 5134,11146 5181,11146 5181,10920 C 5181,10870 5144,10837 5086,10837 5041,10837 5013,10855 4987,10896 L 4987,10846 4943,10846 Z"/>
         <path fill="rgb(0,0,0)" stroke="none" d="M 5497,11146 L 5497,10846 5450,10846 5450,11016 C 5450,11078 5418,11118 5368,11118 5330,11118 5306,11095 5306,11059 L 5306,10846 5258,10846 5258,11078 C 5258,11127 5296,11159 5354,11159 5398,11159 5426,11144 5454,11105 L 5454,11146 5497,11146 Z"/>
         <path fill="rgb(0,0,0)" stroke="none" d="M 5580,10846 L 5580,11146 5628,11146 5628,10958 C 5628,10914 5659,10879 5698,10879 5734,10879 5754,10901 5754,10940 L 5754,11146 5802,11146 5802,10958 C 5802,10914 5834,10879 5872,10879 5907,10879 5928,10902 5928,10940 L 5928,11146 5976,11146 5976,10921 C 5976,10867 5945,10837 5889,10837 5849,10837 5825,10849 5797,10883 5779,10851 5755,10837 5716,10837 5676,10837 5649,10852 5624,10889 L 5624,10846 5580,10846 Z"/>
         <path fill="rgb(0,0,0)" stroke="none" d="M 6048,10729 L 6048,11146 6091,11146 6091,11108 C 6114,11143 6144,11159 6186,11159 6265,11159 6317,11095 6317,10995 6317,10898 6267,10837 6188,10837 6147,10837 6118,10853 6095,10887 L 6095,10729 6048,10729 Z M 6179,10882 C 6232,10882 6267,10928 6267,11000 6267,11068 6231,11115 6179,11115 6129,11115 6095,11069 6095,10999 6095,10928 6129,10882 6179,10882 L 6179,10882 Z"/>
         <path fill="rgb(0,0,0)" stroke="none" d="M 6629,11012 C 6629,10967 6626,10939 6617,10917 6598,10867 6552,10837 6496,10837 6412,10837 6358,10902 6358,11000 6358,11099 6410,11159 6495,11159 6563,11159 6611,11121 6623,11055 L 6575,11055 C 6562,11095 6535,11115 6496,11115 6466,11115 6440,11102 6424,11077 6413,11059 6408,11042 6408,11012 L 6629,11012 Z M 6409,10973 C 6413,10918 6447,10881 6495,10881 6542,10881 6578,10921 6578,10970 6578,10971 6578,10972 6578,10973 L 6409,10973 Z"/>
         <path fill="rgb(0,0,0)" stroke="none" d="M 6694,10846 L 6694,11146 6742,11146 6742,10990 C 6742,10947 6752,10920 6775,10903 6790,10892 6805,10889 6838,10888 L 6838,10839 C 6830,10838 6826,10837 6820,10837 6789,10837 6765,10856 6738,10900 L 6738,10846 6694,10846 Z"/>
         <path fill="rgb(0,0,0)" stroke="none" d="M 7176,11219 L 6832,11219 6832,11247 7176,11247 7176,11219 Z"/>
         <path fill="rgb(0,0,0)" stroke="none" d="M 7470,11118 C 7465,11119 7463,11119 7460,11119 7443,11119 7434,11111 7434,11096 L 7434,10920 C 7434,10866 7395,10837 7321,10837 7277,10837 7241,10850 7221,10873 7207,10888 7202,10905 7201,10935 L 7248,10935 C 7253,10898 7275,10881 7319,10881 7362,10881 7386,10898 7386,10926 L 7386,10939 C 7386,10959 7374,10968 7336,10972 7269,10981 7258,10983 7240,10990 7205,11005 7187,11032 7187,11071 7187,11125 7225,11159 7286,11159 7324,11159 7354,11146 7388,11115 7391,11146 7406,11159 7437,11159 7447,11159 7454,11158 7470,11155 L 7470,11118 Z M 7386,11052 C 7386,11068 7382,11078 7367,11091 7348,11109 7324,11118 7296,11118 7259,11118 7237,11100 7237,11069 7237,11038 7258,11022 7310,11015 7360,11008 7370,11005 7386,10998 L 7386,11052 Z"/>
         <path fill="rgb(0,0,0)" stroke="none" d="M 7813,11219 L 7469,11219 7469,11247 7813,11247 7813,11219 Z"/>
         <path fill="rgb(0,0,0)" stroke="none" d="M 7886,10846 L 7839,10846 7839,11146 7886,11146 7886,10846 Z M 7886,10729 L 7838,10729 7838,10789 7886,10789 7886,10729 Z"/>
         <path fill="rgb(0,0,0)" stroke="none" d="M 8071,10729 L 7964,10729 7964,11268 8071,11268 8071,11227 8012,11227 8012,10770 8071,10770 8071,10729 Z"/>
         <path fill="rgb(0,0,0)" stroke="none" d="M 8213,10960 L 8220,10960 8241,10959 C 8297,10959 8325,10985 8325,11033 8325,11084 8294,11115 8241,11115 8186,11115 8159,11087 8156,11028 L 8105,11028 C 8108,11061 8113,11082 8123,11100 8144,11140 8184,11159 8239,11159 8323,11159 8377,11110 8377,11033 8377,10981 8357,10953 8308,10936 8346,10921 8365,10893 8365,10852 8365,10782 8318,10740 8241,10740 8159,10740 8115,10785 8114,10871 L 8164,10871 C 8165,10847 8167,10833 8174,10820 8185,10798 8210,10784 8241,10784 8286,10784 8313,10811 8313,10853 8313,10882 8303,10899 8281,10909 8267,10914 8249,10917 8213,10917 L 8213,10960 Z"/>
         <path fill="rgb(0,0,0)" stroke="none" d="M 8528,11087 L 8468,11087 8468,11146 8528,11146 8528,11087 Z M 8528,10846 L 8468,10846 8468,10906 8528,10906 8528,10846 Z"/>
         <path fill="rgb(0,0,0)" stroke="none" d="M 8722,10740 C 8684,10740 8650,10757 8629,10785 8602,10820 8589,10875 8589,10950 8589,11087 8635,11159 8722,11159 8808,11159 8855,11087 8855,10953 8855,10874 8843,10821 8816,10785 8794,10756 8761,10740 8722,10740 L 8722,10740 Z M 8722,10785 C 8777,10785 8804,10840 8804,10949 8804,11064 8777,11118 8721,11118 8668,11118 8641,11062 8641,10950 8641,10839 8668,10785 8722,10785 L 8722,10785 Z"/>
         <path fill="rgb(0,0,0)" stroke="none" d="M 8896,11268 L 9003,11268 9003,10729 8896,10729 8896,10770 8955,10770 8955,11227 8896,11227 8896,11268 Z"/>
         <path fill="none" stroke="rgb(0,0,0)" stroke-width="286" stroke-linejoin="miter" d="M 4215,12086 L 4788,12086"/>
         <path fill="rgb(0,0,0)" stroke="none" d="M 4943,11992 L 4943,12292 4991,12292 4991,12126 C 4991,12065 5022,12025 5072,12025 5110,12025 5134,12048 5134,12084 L 5134,12292 5181,12292 5181,12065 C 5181,12016 5144,11983 5086,11983 5041,11983 5013,12000 4987,12042 L 4987,11992 4943,11992 Z"/>
         <path fill="rgb(0,0,0)" stroke="none" d="M 5497,12292 L 5497,11992 5450,11992 5450,12162 C 5450,12223 5418,12263 5368,12263 5330,12263 5306,12241 5306,12204 L 5306,11992 5258,11992 5258,12223 C 5258,12273 5296,12305 5354,12305 5398,12305 5426,12290 5454,12250 L 5454,12292 5497,12292 Z"/>
         <path fill="rgb(0,0,0)" stroke="none" d="M 5580,11992 L 5580,12292 5628,12292 5628,12104 C 5628,12060 5659,12025 5698,12025 5734,12025 5754,12047 5754,12085 L 5754,12292 5802,12292 5802,12104 C 5802,12060 5834,12025 5872,12025 5907,12025 5928,12047 5928,12085 L 5928,12292 5976,12292 5976,12067 C 5976,12013 5945,11983 5889,11983 5849,11983 5825,11995 5797,12029 5779,11997 5755,11983 5716,11983 5676,11983 5649,11998 5624,12034 L 5624,11992 5580,11992 Z"/>
         <path fill="rgb(0,0,0)" stroke="none" d="M 6048,11875 L 6048,12292 6091,12292 6091,12254 C 6114,12289 6144,12305 6186,12305 6265,12305 6317,12241 6317,12141 6317,12044 6267,11983 6188,11983 6147,11983 6118,11999 6095,12032 L 6095,11875 6048,11875 Z M 6179,12028 C 6232,12028 6267,12074 6267,12146 6267,12214 6231,12261 6179,12261 6129,12261 6095,12215 6095,12144 6095,12074 6129,12028 6179,12028 L 6179,12028 Z"/>
         <path fill="rgb(0,0,0)" stroke="none" d="M 6629,12158 C 6629,12112 6626,12085 6617,12062 6598,12013 6552,11983 6496,11983 6412,11983 6358,12047 6358,12146 6358,12245 6410,12305 6495,12305 6563,12305 6611,12266 6623,12201 L 6575,12201 C 6562,12241 6535,12261 6496,12261 6466,12261 6440,12248 6424,12222 6413,12205 6408,12188 6408,12158 L 6629,12158 Z M 6409,12119 C 6413,12063 6447,12027 6495,12027 6542,12027 6578,12066 6578,12116 6578,12117 6578,12118 6578,12119 L 6409,12119 Z"/>
         <path fill="rgb(0,0,0)" stroke="none" d="M 6694,11992 L 6694,12292 6742,12292 6742,12136 C 6742,12093 6752,12065 6775,12048 6790,12038 6805,12034 6838,12033 L 6838,11985 C 6830,11984 6826,11983 6820,11983 6789,11983 6765,12001 6738,12046 L 6738,11992 6694,11992 Z"/>
         <path fill="rgb(0,0,0)" stroke="none" d="M 7176,12364 L 6832,12364 6832,12393 7176,12393 7176,12364 Z"/>
         <path fill="rgb(0,0,0)" stroke="none" d="M 7194,11875 L 7194,12292 7237,12292 7237,12254 C 7260,12289 7291,12305 7332,12305 7411,12305 7463,12241 7463,12141 7463,12044 7414,11983 7335,11983 7294,11983 7264,11999 7242,12032 L 7242,11875 7194,11875 Z M 7326,12028 C 7379,12028 7413,12074 7413,12146 7413,12214 7377,12261 7326,12261 7275,12261 7242,12215 7242,12144 7242,12074 7275,12028 7326,12028 L 7326,12028 Z"/>
         <path fill="rgb(0,0,0)" stroke="none" d="M 7813,12364 L 7469,12364 7469,12393 7813,12393 7813,12364 Z"/>
         <path fill="rgb(0,0,0)" stroke="none" d="M 7886,11992 L 7839,11992 7839,12292 7886,12292 7886,11992 Z M 7886,11875 L 7838,11875 7838,11935 7886,11935 7886,11875 Z"/>
         <path fill="rgb(0,0,0)" stroke="none" d="M 8071,11875 L 7964,11875 7964,12414 8071,12414 8071,12372 8012,12372 8012,11916 8071,11916 8071,11875 Z"/>
         <path fill="rgb(0,0,0)" stroke="none" d="M 8213,12106 L 8220,12106 8241,12105 C 8297,12105 8325,12130 8325,12179 8325,12230 8294,12261 8241,12261 8186,12261 8159,12233 8156,12174 L 8105,12174 C 8108,12207 8113,12228 8123,12246 8144,12285 8184,12305 8239,12305 8323,12305 8377,12255 8377,12179 8377,12127 8357,12098 8308,12082 8346,12067 8365,12038 8365,11998 8365,11928 8318,11886 8241,11886 8159,11886 8115,11931 8114,12017 L 8164,12017 C 8165,11992 8167,11979 8174,11966 8185,11944 8210,11930 8241,11930 8286,11930 8313,11956 8313,11999 8313,12028 8303,12045 8281,12054 8267,12060 8249,12062 8213,12063 L 8213,12106 Z"/>
         <path fill="rgb(0,0,0)" stroke="none" d="M 8528,12232 L 8468,12232 8468,12292 8528,12292 8528,12232 Z M 8528,11992 L 8468,11992 8468,12051 8528,12051 8528,11992 Z"/>
         <path fill="rgb(0,0,0)" stroke="none" d="M 8722,11886 C 8684,11886 8650,11903 8629,11931 8602,11966 8589,12020 8589,12095 8589,12232 8635,12305 8722,12305 8808,12305 8855,12232 8855,12099 8855,12020 8843,11967 8816,11931 8794,11902 8761,11886 8722,11886 L 8722,11886 Z M 8722,11931 C 8777,11931 8804,11985 8804,12094 8804,12210 8777,12263 8721,12263 8668,12263 8641,12207 8641,12096 8641,11985 8668,11931 8722,11931 L 8722,11931 Z"/>
         <path fill="rgb(0,0,0)" stroke="none" d="M 8896,12414 L 9003,12414 9003,11875 8896,11875 8896,11916 8955,11916 8955,12372 8896,12372 8896,12414 Z"/>
         <path fill="none" stroke="rgb(0,0,0)" stroke-width="286" stroke-linejoin="miter" d="M 4215,13232 L 4788,13232"/>
         <path fill="rgb(0,0,0)" stroke="none" d="M 5172,13238 C 5170,13209 5163,13190 5152,13174 5131,13146 5096,13129 5053,13129 4973,13129 4920,13193 4920,13293 4920,13390 4972,13451 5053,13451 5125,13451 5170,13408 5176,13335 L 5128,13335 C 5119,13383 5095,13407 5054,13407 5002,13407 4970,13364 4970,13293 4970,13218 5001,13173 5053,13173 5093,13173 5118,13197 5124,13238 L 5172,13238 Z"/>
         <path fill="rgb(0,0,0)" stroke="none" d="M 5345,13129 C 5261,13129 5210,13189 5210,13290 5210,13391 5260,13451 5345,13451 5430,13451 5481,13391 5481,13292 5481,13188 5431,13129 5345,13129 L 5345,13129 Z M 5345,13173 C 5399,13173 5431,13217 5431,13292 5431,13362 5398,13407 5345,13407 5292,13407 5260,13363 5260,13290 5260,13218 5292,13173 5345,13173 L 5345,13173 Z"/>
         <path fill="rgb(0,0,0)" stroke="none" d="M 5548,13137 L 5548,13438 5596,13438 5596,13272 C 5596,13211 5628,13171 5677,13171 5715,13171 5739,13194 5739,13230 L 5739,13438 5786,13438 5786,13211 C 5786,13161 5749,13129 5691,13129 5646,13129 5618,13146 5592,13188 L 5592,13137 5548,13137 Z"/>
         <path fill="rgb(0,0,0)" stroke="none" d="M 5971,13137 L 5922,13137 5922,13055 5875,13055 5875,13137 5834,13137 5834,13177 5875,13177 5875,13403 C 5875,13434 5895,13451 5933,13451 5944,13451 5955,13450 5971,13447 L 5971,13407 C 5965,13409 5958,13409 5949,13409 5928,13409 5922,13403 5922,13382 L 5922,13177 5971,13177 5971,13137 Z"/>
         <path fill="rgb(0,0,0)" stroke="none" d="M 6025,13137 L 6025,13438 6073,13438 6073,13282 C 6073,13239 6084,13211 6107,13194 6122,13184 6136,13180 6169,13179 L 6169,13131 C 6161,13130 6157,13129 6151,13129 6120,13129 6097,13147 6069,13192 L 6069,13137 6025,13137 Z"/>
         <path fill="rgb(0,0,0)" stroke="none" d="M 6332,13129 C 6248,13129 6197,13189 6197,13290 6197,13391 6247,13451 6333,13451 6417,13451 6468,13391 6468,13292 6468,13188 6418,13129 6332,13129 L 6332,13129 Z M 6333,13173 C 6386,13173 6418,13217 6418,13292 6418,13362 6385,13407 6333,13407 6279,13407 6247,13363 6247,13290 6247,13218 6279,13173 6333,13173 L 6333,13173 Z"/>
         <path fill="rgb(0,0,0)" stroke="none" d="M 6582,13020 L 6533,13020 6533,13438 6582,13438 6582,13020 Z"/>
         <path fill="rgb(0,0,0)" stroke="none" d="M 6953,13510 L 6609,13510 6609,13539 6953,13539 6953,13510 Z"/>
         <path fill="rgb(0,0,0)" stroke="none" d="M 7191,13221 C 7191,13162 7152,13129 7082,13129 7013,13129 6967,13165 6967,13221 6967,13268 6991,13290 7062,13307 L 7107,13318 C 7140,13326 7154,13338 7154,13360 7154,13388 7125,13407 7084,13407 7058,13407 7036,13400 7024,13387 7016,13378 7013,13369 7010,13348 L 6960,13348 C 6962,13418 7001,13451 7079,13451 7155,13451 7203,13414 7203,13356 7203,13311 7178,13287 7119,13272 L 7073,13261 C 7034,13252 7017,13240 7017,13218 7017,13191 7042,13173 7081,13173 7119,13173 7140,13190 7141,13221 L 7191,13221 Z"/>
         <path fill="rgb(0,0,0)" stroke="none" d="M 7313,13137 L 7265,13137 7265,13438 7313,13438 7313,13137 Z M 7313,13020 L 7265,13020 7265,13080 7313,13080 7313,13020 Z"/>
         <path fill="rgb(0,0,0)" stroke="none" d="M 7590,13137 L 7590,13181 C 7566,13146 7537,13129 7498,13129 7422,13129 7370,13196 7370,13293 7370,13342 7384,13382 7408,13411 7431,13436 7463,13451 7495,13451 7532,13451 7558,13435 7586,13397 L 7586,13413 C 7586,13453 7580,13478 7568,13494 7556,13512 7531,13523 7502,13523 7480,13523 7461,13517 7448,13507 7436,13498 7432,13490 7429,13472 L 7380,13472 C 7386,13529 7430,13563 7500,13563 7545,13563 7583,13548 7603,13524 7626,13497 7634,13459 7634,13388 L 7634,13137 7590,13137 Z M 7504,13173 C 7555,13173 7586,13216 7586,13292 7586,13363 7555,13407 7504,13407 7452,13407 7420,13363 7420,13290 7420,13218 7452,13173 7504,13173 L 7504,13173 Z"/>
         <path fill="rgb(0,0,0)" stroke="none" d="M 8004,13510 L 7660,13510 7660,13539 8004,13539 8004,13510 Z"/>
         <path fill="rgb(0,0,0)" stroke="none" d="M 8077,13137 L 8029,13137 8029,13438 8077,13438 8077,13137 Z M 8077,13020 L 8029,13020 8029,13080 8077,13080 8077,13020 Z"/>
         <path fill="rgb(0,0,0)" stroke="none" d="M 8262,13020 L 8155,13020 8155,13559 8262,13559 8262,13518 8203,13518 8203,13061 8262,13061 8262,13020 Z"/>
         <path fill="rgb(0,0,0)" stroke="none" d="M 8404,13252 L 8410,13252 8432,13251 C 8487,13251 8516,13276 8516,13325 8516,13376 8484,13406 8432,13406 8377,13406 8350,13379 8346,13320 L 8296,13320 C 8298,13353 8304,13374 8314,13392 8334,13431 8375,13451 8430,13451 8514,13451 8568,13401 8568,13324 8568,13273 8547,13244 8499,13228 8537,13213 8556,13184 8556,13143 8556,13074 8509,13031 8432,13031 8350,13031 8306,13076 8305,13163 L 8355,13163 C 8356,13138 8358,13124 8364,13112 8375,13090 8401,13075 8432,13075 8477,13075 8504,13102 8504,13145 8504,13174 8494,13191 8471,13200 8457,13206 8440,13208 8404,13209 L 8404,13252 Z"/>
         <path fill="rgb(0,0,0)" stroke="none" d="M 8719,13378 L 8659,13378 8659,13438 8719,13438 8719,13378 Z M 8719,13137 L 8659,13137 8659,13197 8719,13197 8719,13137 Z"/>
         <path fill="rgb(0,0,0)" stroke="none" d="M 8913,13031 C 8875,13031 8841,13048 8819,13076 8793,13112 8780,13166 8780,13241 8780,13378 8826,13451 8913,13451 8999,13451 9046,13378 9046,13245 9046,13166 9034,13113 9006,13076 8985,13047 8952,13031 8913,13031 L 8913,13031 Z M 8913,13076 C 8968,13076 8994,13131 8994,13240 8994,13355 8968,13409 8912,13409 8859,13409 8832,13353 8832,13242 8832,13131 8859,13076 8913,13076 L 8913,13076 Z"/>
         <path fill="rgb(0,0,0)" stroke="none" d="M 9087,13559 L 9194,13559 9194,13020 9087,13020 9087,13061 9146,13061 9146,13518 9087,13518 9087,13559 Z"/>
         <path fill="none" stroke="rgb(0,0,0)" stroke-width="172" stroke-linejoin="miter" d="M 4215,14378 L 4788,14378"/>
         <path fill="rgb(0,0,0)" stroke="none" d="M 5172,14384 C 5170,14355 5163,14336 5152,14320 5131,14291 5096,14274 5053,14274 4973,14274 4920,14339 4920,14439 4920,14536 4972,14597 5053,14597 5125,14597 5170,14553 5176,14480 L 5128,14480 C 5119,14528 5095,14553 5054,14553 5002,14553 4970,14509 4970,14439 4970,14364 5001,14319 5053,14319 5093,14319 5118,14342 5124,14384 L 5172,14384 Z"/>
         <path fill="rgb(0,0,0)" stroke="none" d="M 5495,14555 C 5490,14556 5488,14556 5485,14556 5468,14556 5459,14548 5459,14533 L 5459,14357 C 5459,14304 5420,14274 5346,14274 5303,14274 5267,14287 5246,14310 5233,14325 5227,14342 5226,14372 L 5274,14372 C 5278,14336 5300,14319 5345,14319 5388,14319 5412,14335 5412,14364 L 5412,14376 C 5412,14396 5400,14405 5362,14409 5294,14418 5284,14420 5266,14428 5230,14442 5213,14469 5213,14508 5213,14562 5251,14597 5311,14597 5349,14597 5380,14584 5414,14553 5417,14583 5432,14597 5463,14597 5473,14597 5480,14596 5495,14592 L 5495,14555 Z M 5412,14489 C 5412,14505 5407,14515 5393,14528 5373,14546 5350,14555 5322,14555 5285,14555 5263,14537 5263,14507 5263,14475 5284,14459 5335,14452 5386,14445 5396,14443 5412,14435 L 5412,14489 Z"/>
         <path fill="rgb(0,0,0)" stroke="none" d="M 5547,14283 L 5547,14584 5595,14584 5595,14428 C 5595,14384 5606,14357 5629,14340 5644,14329 5658,14326 5691,14325 L 5691,14276 C 5683,14275 5679,14274 5673,14274 5642,14274 5619,14293 5591,14337 L 5591,14283 5547,14283 Z"/>
         <path fill="rgb(0,0,0)" stroke="none" d="M 5738,14283 L 5738,14584 5786,14584 5786,14428 C 5786,14384 5797,14357 5820,14340 5835,14329 5849,14326 5882,14325 L 5882,14276 C 5874,14275 5870,14274 5864,14274 5833,14274 5810,14293 5782,14337 L 5782,14283 5738,14283 Z"/>
         <path fill="rgb(0,0,0)" stroke="none" d="M 6111,14283 L 6028,14517 5951,14283 5901,14283 6002,14584 5983,14632 C 5976,14653 5965,14661 5945,14661 5938,14661 5930,14661 5920,14658 L 5920,14701 C 5930,14706 5939,14708 5952,14708 5967,14708 5984,14703 5997,14694 6012,14683 6020,14671 6029,14646 L 6163,14283 6111,14283 Z"/>
         <path fill="rgb(0,0,0)" stroke="none" d="M 6507,14656 L 6163,14656 6163,14684 6507,14684 6507,14656 Z"/>
         <path fill="rgb(0,0,0)" stroke="none" d="M 6580,14283 L 6532,14283 6532,14584 6580,14584 6580,14283 Z M 6580,14166 L 6532,14166 6532,14226 6580,14226 6580,14166 Z"/>
         <path fill="none" stroke="rgb(0,0,0)" stroke-width="172" stroke-linejoin="miter" d="M 4215,15524 L 4788,15524"/>
         <path fill="rgb(0,0,0)" stroke="none" d="M 5172,15530 C 5170,15501 5163,15482 5152,15465 5131,15437 5096,15420 5053,15420 4973,15420 4920,15485 4920,15584 4920,15681 4972,15742 5053,15742 5125,15742 5170,15699 5176,15626 L 5128,15626 C 5119,15674 5095,15698 5054,15698 5002,15698 4970,15655 4970,15584 4970,15509 5001,15464 5053,15464 5093,15464 5118,15488 5124,15530 L 5172,15530 Z"/>
         <path fill="rgb(0,0,0)" stroke="none" d="M 5276,15312 L 5228,15312 5228,15729 5276,15729 5276,15312 Z"/>
         <path fill="rgb(0,0,0)" stroke="none" d="M 5397,15312 L 5349,15312 5349,15729 5397,15729 5397,15613 5443,15566 5545,15729 5604,15729 5481,15533 5585,15429 5524,15429 5397,15556 5397,15312 Z"/>
         <path fill="rgb(0,0,0)" stroke="none" d="M 5934,15801 L 5590,15801 5590,15830 5934,15830 5934,15801 Z"/>
         <path fill="rgb(0,0,0)" stroke="none" d="M 6007,15429 L 5959,15429 5959,15729 6007,15729 6007,15429 Z M 6007,15312 L 5959,15312 5959,15372 6007,15372 6007,15312 Z"/>
         <path fill="none" stroke="rgb(0,0,0)" stroke-width="172" stroke-linejoin="miter" d="M 17966,8649 L 17393,8649"/>
         <path fill="rgb(0,0,0)" stroke="none" d="M 15638,8655 C 15635,8626 15629,8607 15618,8591 15597,8563 15561,8546 15519,8546 15439,8546 15386,8610 15386,8710 15386,8807 15437,8868 15519,8868 15590,8868 15635,8825 15641,8752 L 15593,8752 C 15585,8800 15560,8824 15520,8824 15467,8824 15436,8781 15436,8710 15436,8635 15466,8590 15519,8590 15559,8590 15584,8614 15590,8655 L 15638,8655 Z"/>
         <path fill="rgb(0,0,0)" stroke="none" d="M 15961,8827 C 15956,8828 15954,8828 15951,8828 15934,8828 15925,8820 15925,8805 L 15925,8628 C 15925,8575 15886,8546 15812,8546 15768,8546 15732,8558 15712,8581 15699,8596 15693,8614 15692,8643 L 15740,8643 C 15744,8607 15766,8590 15810,8590 15854,8590 15877,8606 15877,8635 L 15877,8648 C 15877,8667 15865,8676 15827,8681 15760,8689 15749,8692 15731,8699 15696,8713 15679,8740 15679,8779 15679,8834 15716,8868 15777,8868 15815,8868 15845,8855 15879,8824 15883,8854 15898,8868 15928,8868 15938,8868 15946,8867 15961,8863 L 15961,8827 Z M 15877,8760 C 15877,8776 15873,8786 15858,8799 15839,8817 15815,8826 15787,8826 15750,8826 15729,8808 15729,8778 15729,8746 15749,8730 15801,8723 15851,8716 15861,8714 15877,8707 L 15877,8760 Z"/>
         <path fill="rgb(0,0,0)" stroke="none" d="M 16013,8555 L 16013,8855 16061,8855 16061,8699 C 16061,8656 16071,8628 16095,8611 16110,8601 16124,8597 16157,8596 L 16157,8548 C 16149,8547 16145,8546 16139,8546 16108,8546 16084,8564 16057,8609 L 16057,8555 16013,8555 Z"/>
         <path fill="rgb(0,0,0)" stroke="none" d="M 16204,8555 L 16204,8855 16251,8855 16251,8699 C 16251,8656 16262,8628 16285,8611 16300,8601 16314,8597 16348,8596 L 16348,8548 C 16340,8547 16336,8546 16329,8546 16298,8546 16275,8564 16248,8609 L 16248,8555 16204,8555 Z"/>
         <path fill="rgb(0,0,0)" stroke="none" d="M 16577,8555 L 16494,8789 16417,8555 16366,8555 16467,8856 16449,8904 C 16442,8925 16431,8933 16411,8933 16404,8933 16396,8932 16386,8929 L 16386,8973 C 16395,8977 16405,8980 16418,8980 16433,8980 16450,8975 16462,8965 16477,8955 16486,8942 16495,8918 L 16628,8555 16577,8555 Z"/>
         <path fill="rgb(0,0,0)" stroke="none" d="M 16972,8927 L 16628,8927 16628,8956 16972,8956 16972,8927 Z"/>
         <path fill="rgb(0,0,0)" stroke="none" d="M 17116,8546 C 17031,8546 16980,8606 16980,8707 16980,8808 17031,8868 17116,8868 17200,8868 17252,8808 17252,8710 17252,8605 17202,8546 17116,8546 L 17116,8546 Z M 17116,8590 C 17170,8590 17202,8635 17202,8709 17202,8779 17169,8824 17116,8824 17063,8824 17030,8780 17030,8707 17030,8635 17063,8590 17116,8590 L 17116,8590 Z"/>
         <path fill="none" stroke="rgb(0,0,0)" stroke-width="172" stroke-linejoin="miter" d="M 17966,9795 L 17393,9795"/>
         <path fill="rgb(0,0,0)" stroke="none" d="M 14873,9801 C 14871,9772 14865,9753 14854,9737 14833,9709 14797,9692 14755,9692 14674,9692 14622,9756 14622,9856 14622,9953 14673,10014 14754,10014 14826,10014 14871,9971 14877,9897 L 14829,9897 C 14821,9945 14796,9970 14755,9970 14703,9970 14671,9927 14671,9856 14671,9781 14702,9736 14754,9736 14795,9736 14820,9759 14826,9801 L 14873,9801 Z"/>
         <path fill="rgb(0,0,0)" stroke="none" d="M 15197,9973 C 15191,9973 15189,9973 15187,9973 15170,9973 15160,9965 15160,9950 L 15160,9774 C 15160,9721 15122,9692 15048,9692 15004,9692 14968,9704 14948,9727 14934,9742 14928,9759 14927,9789 L 14975,9789 C 14980,9753 15002,9736 15046,9736 15089,9736 15113,9752 15113,9781 L 15113,9793 C 15113,9813 15101,9822 15063,9826 14996,9835 14985,9837 14967,9845 14932,9859 14914,9886 14914,9925 14914,9979 14952,10014 15013,10014 15050,10014 15081,10001 15115,9970 15118,10000 15133,10014 15164,10014 15174,10014 15181,10013 15197,10009 L 15197,9973 Z M 15113,9906 C 15113,9922 15109,9932 15094,9945 15075,9963 15051,9972 15023,9972 14986,9972 14964,9954 14964,9924 14964,9892 14985,9876 15036,9869 15087,9862 15097,9860 15113,9852 L 15113,9906 Z"/>
         <path fill="rgb(0,0,0)" stroke="none" d="M 15248,9700 L 15248,10001 15296,10001 15296,9845 C 15296,9802 15307,9774 15330,9757 15345,9746 15359,9743 15393,9742 L 15393,9694 C 15385,9693 15381,9692 15374,9692 15343,9692 15320,9710 15292,9755 L 15292,9700 15248,9700 Z"/>
         <path fill="rgb(0,0,0)" stroke="none" d="M 15439,9700 L 15439,10001 15487,10001 15487,9845 C 15487,9802 15498,9774 15521,9757 15536,9746 15550,9743 15584,9742 L 15584,9694 C 15575,9693 15571,9692 15565,9692 15534,9692 15511,9710 15483,9755 L 15483,9700 15439,9700 Z"/>
         <path fill="rgb(0,0,0)" stroke="none" d="M 15813,9700 L 15729,9934 15653,9700 15602,9700 15703,10002 15685,10050 C 15677,10070 15666,10079 15646,10079 15640,10079 15631,10078 15621,10075 L 15621,10118 C 15631,10123 15641,10126 15653,10126 15669,10126 15685,10120 15698,10111 15713,10100 15722,10088 15731,10064 L 15864,9700 15813,9700 Z"/>
         <path fill="rgb(0,0,0)" stroke="none" d="M 16208,10073 L 15864,10073 15864,10101 16208,10101 16208,10073 Z"/>
         <path fill="rgb(0,0,0)" stroke="none" d="M 16281,9700 L 16234,9700 16234,10001 16281,10001 16281,9700 Z M 16281,9583 L 16233,9583 16233,9643 16281,9643 16281,9583 Z"/>
         <path fill="rgb(0,0,0)" stroke="none" d="M 16363,9700 L 16363,10001 16411,10001 16411,9835 C 16411,9774 16443,9734 16492,9734 16530,9734 16554,9757 16554,9793 L 16554,10001 16602,10001 16602,9774 C 16602,9724 16564,9692 16507,9692 16462,9692 16433,9709 16407,9751 L 16407,9700 16363,9700 Z"/>
         <path fill="rgb(0,0,0)" stroke="none" d="M 16972,10073 L 16628,10073 16628,10101 16972,10101 16972,10073 Z"/>
         <path fill="rgb(0,0,0)" stroke="none" d="M 17116,9692 C 17031,9692 16980,9752 16980,9853 16980,9954 17031,10014 17116,10014 17200,10014 17252,9954 17252,9855 17252,9751 17202,9692 17116,9692 L 17116,9692 Z M 17116,9736 C 17170,9736 17202,9780 17202,9854 17202,9925 17169,9970 17116,9970 17063,9970 17030,9926 17030,9853 17030,9781 17063,9736 17116,9736 L 17116,9736 Z"/>
         <path fill="none" stroke="rgb(0,0,0)" stroke-width="172" stroke-linejoin="miter" d="M 17966,10941 L 17393,10941"/>
         <path fill="rgb(0,0,0)" stroke="none" d="M 15271,11271 L 15319,11271 15319,11115 C 15344,11146 15372,11159 15412,11159 15489,11159 15540,11097 15540,11002 15540,10900 15491,10837 15411,10837 15371,10837 15338,10856 15315,10892 L 15315,10846 15271,10846 15271,11271 Z M 15403,10882 C 15456,10882 15490,10928 15490,11000 15490,11068 15455,11115 15403,11115 15353,11115 15319,11069 15319,10999 15319,10928 15353,10882 15403,10882 L 15403,10882 Z"/>
         <path fill="rgb(0,0,0)" stroke="none" d="M 15865,11118 C 15860,11119 15858,11119 15855,11119 15838,11119 15829,11111 15829,11096 L 15829,10920 C 15829,10866 15790,10837 15716,10837 15673,10837 15637,10850 15616,10873 15603,10888 15597,10905 15596,10935 L 15644,10935 C 15648,10898 15670,10881 15715,10881 15758,10881 15782,10898 15782,10926 L 15782,10939 C 15782,10959 15769,10968 15732,10972 15664,10981 15654,10983 15636,10990 15600,11005 15583,11032 15583,11071 15583,11125 15621,11159 15681,11159 15719,11159 15750,11146 15784,11115 15787,11146 15802,11159 15832,11159 15843,11159 15850,11158 15865,11155 L 15865,11118 Z M 15782,11052 C 15782,11068 15777,11078 15763,11091 15743,11109 15720,11118 15691,11118 15655,11118 15633,11100 15633,11069 15633,11038 15654,11022 15705,11015 15755,11008 15766,11005 15782,10998 L 15782,11052 Z"/>
         <path fill="rgb(0,0,0)" stroke="none" d="M 15917,10846 L 15917,11146 15965,11146 15965,10990 C 15965,10947 15976,10920 15999,10903 16014,10892 16028,10889 16061,10888 L 16061,10839 C 16053,10838 16049,10837 16043,10837 16012,10837 15989,10856 15961,10900 L 15961,10846 15917,10846 Z"/>
         <path fill="rgb(0,0,0)" stroke="none" d="M 16154,10846 L 16106,10846 16106,11146 16154,11146 16154,10846 Z M 16154,10729 L 16106,10729 16106,10789 16154,10789 16154,10729 Z"/>
         <path fill="rgb(0,0,0)" stroke="none" d="M 16341,10846 L 16292,10846 16292,10764 16244,10764 16244,10846 16204,10846 16204,10885 16244,10885 16244,11112 C 16244,11142 16265,11159 16302,11159 16314,11159 16325,11158 16341,11156 L 16341,11115 C 16334,11117 16327,11118 16318,11118 16298,11118 16292,11112 16292,11091 L 16292,10885 16341,10885 16341,10846 Z"/>
         <path fill="rgb(0,0,0)" stroke="none" d="M 16577,10846 L 16494,11080 16417,10846 16366,10846 16467,11147 16449,11195 C 16442,11216 16431,11224 16411,11224 16404,11224 16396,11223 16386,11221 L 16386,11264 C 16395,11269 16405,11271 16418,11271 16433,11271 16450,11266 16462,11257 16477,11246 16486,11234 16495,11209 L 16628,10846 16577,10846 Z"/>
         <path fill="rgb(0,0,0)" stroke="none" d="M 16972,11219 L 16628,11219 16628,11247 16972,11247 16972,11219 Z"/>
         <path fill="rgb(0,0,0)" stroke="none" d="M 17116,10837 C 17031,10837 16980,10898 16980,10999 16980,11099 17031,11159 17116,11159 17200,11159 17252,11099 17252,11001 17252,10897 17202,10837 17116,10837 L 17116,10837 Z M 17116,10881 C 17170,10881 17202,10926 17202,11000 17202,11071 17169,11115 17116,11115 17063,11115 17030,11071 17030,10999 17030,10926 17063,10881 17116,10881 L 17116,10881 Z"/>
         <path fill="none" stroke="rgb(0,0,0)" stroke-width="286" stroke-linejoin="miter" d="M 17966,12086 L 17393,12086"/>
         <path fill="rgb(0,0,0)" stroke="none" d="M 12987,11992 L 12987,12292 13035,12292 13035,12126 C 13035,12065 13067,12025 13116,12025 13154,12025 13178,12048 13178,12084 L 13178,12292 13226,12292 13226,12065 C 13226,12016 13188,11983 13131,11983 13086,11983 13057,12000 13031,12042 L 13031,11992 12987,11992 Z"/>
         <path fill="rgb(0,0,0)" stroke="none" d="M 13541,12292 L 13541,11992 13494,11992 13494,12162 C 13494,12223 13462,12263 13412,12263 13374,12263 13350,12241 13350,12204 L 13350,11992 13303,11992 13303,12223 C 13303,12273 13340,12305 13398,12305 13443,12305 13471,12290 13498,12250 L 13498,12292 13541,12292 Z"/>
         <path fill="rgb(0,0,0)" stroke="none" d="M 13624,11992 L 13624,12292 13672,12292 13672,12104 C 13672,12060 13703,12025 13743,12025 13778,12025 13798,12047 13798,12085 L 13798,12292 13846,12292 13846,12104 C 13846,12060 13878,12025 13917,12025 13951,12025 13972,12047 13972,12085 L 13972,12292 14020,12292 14020,12067 C 14020,12013 13990,11983 13934,11983 13893,11983 13869,11995 13841,12029 13823,11997 13799,11983 13760,11983 13720,11983 13694,11998 13668,12034 L 13668,11992 13624,11992 Z"/>
         <path fill="rgb(0,0,0)" stroke="none" d="M 14092,11875 L 14092,12292 14135,12292 14135,12254 C 14158,12289 14188,12305 14230,12305 14309,12305 14361,12241 14361,12141 14361,12044 14312,11983 14233,11983 14191,11983 14162,11999 14140,12032 L 14140,11875 14092,11875 Z M 14223,12028 C 14277,12028 14311,12074 14311,12146 14311,12214 14275,12261 14223,12261 14173,12261 14140,12215 14140,12144 14140,12074 14173,12028 14223,12028 L 14223,12028 Z"/>
         <path fill="rgb(0,0,0)" stroke="none" d="M 14674,12158 C 14674,12112 14670,12085 14662,12062 14642,12013 14596,11983 14540,11983 14457,11983 14402,12047 14402,12146 14402,12245 14455,12305 14539,12305 14608,12305 14655,12266 14667,12201 L 14619,12201 C 14606,12241 14579,12261 14540,12261 14510,12261 14484,12248 14468,12222 14457,12205 14453,12188 14452,12158 L 14674,12158 Z M 14454,12119 C 14458,12063 14492,12027 14539,12027 14586,12027 14623,12066 14623,12116 14623,12117 14623,12118 14622,12119 L 14454,12119 Z"/>
         <path fill="rgb(0,0,0)" stroke="none" d="M 14738,11992 L 14738,12292 14786,12292 14786,12136 C 14786,12093 14797,12065 14820,12048 14835,12038 14849,12034 14882,12033 L 14882,11985 C 14874,11984 14870,11983 14864,11983 14833,11983 14810,12001 14782,12046 L 14782,11992 14738,11992 Z"/>
         <path fill="rgb(0,0,0)" stroke="none" d="M 15220,12364 L 14876,12364 14876,12393 15220,12393 15220,12364 Z"/>
         <path fill="rgb(0,0,0)" stroke="none" d="M 15514,12264 C 15509,12265 15507,12265 15504,12265 15487,12265 15478,12257 15478,12242 L 15478,12065 C 15478,12012 15439,11983 15365,11983 15321,11983 15286,11996 15265,12018 15252,12033 15246,12051 15245,12080 L 15293,12080 C 15297,12044 15319,12027 15364,12027 15407,12027 15430,12044 15430,12072 L 15430,12085 C 15430,12105 15418,12113 15380,12118 15313,12126 15302,12129 15285,12136 15249,12151 15232,12177 15232,12217 15232,12271 15270,12305 15330,12305 15368,12305 15398,12292 15432,12261 15436,12292 15451,12305 15481,12305 15491,12305 15499,12304 15514,12300 L 15514,12264 Z M 15430,12198 C 15430,12214 15426,12223 15411,12236 15392,12254 15368,12263 15340,12263 15303,12263 15282,12246 15282,12215 15282,12184 15302,12168 15354,12160 15404,12154 15414,12151 15430,12144 L 15430,12198 Z"/>
         <path fill="rgb(0,0,0)" stroke="none" d="M 15857,12364 L 15514,12364 15514,12393 15857,12393 15857,12364 Z"/>
         <path fill="rgb(0,0,0)" stroke="none" d="M 16001,11983 C 15916,11983 15865,12044 15865,12144 15865,12245 15916,12305 16001,12305 16085,12305 16137,12245 16137,12147 16137,12043 16087,11983 16001,11983 L 16001,11983 Z M 16001,12027 C 16055,12027 16087,12072 16087,12146 16087,12217 16054,12261 16001,12261 15948,12261 15915,12217 15915,12144 15915,12072 15948,12027 16001,12027 L 16001,12027 Z"/>
         <path fill="rgb(0,0,0)" stroke="none" d="M 16307,11875 L 16200,11875 16200,12414 16307,12414 16307,12372 16248,12372 16248,11916 16307,11916 16307,11875 Z"/>
         <path fill="rgb(0,0,0)" stroke="none" d="M 16449,12106 L 16455,12106 16477,12105 C 16532,12105 16561,12130 16561,12179 16561,12230 16529,12261 16477,12261 16422,12261 16395,12233 16391,12174 L 16341,12174 C 16343,12207 16349,12228 16359,12246 16379,12285 16419,12305 16475,12305 16558,12305 16613,12255 16613,12179 16613,12127 16592,12098 16544,12082 16582,12067 16601,12038 16601,11998 16601,11928 16554,11886 16477,11886 16395,11886 16351,11931 16350,12017 L 16400,12017 C 16401,11992 16403,11979 16409,11966 16420,11944 16446,11930 16477,11930 16522,11930 16549,11956 16549,11999 16549,12028 16539,12045 16516,12054 16502,12060 16485,12062 16449,12063 L 16449,12106 Z"/>
         <path fill="rgb(0,0,0)" stroke="none" d="M 16764,12232 L 16704,12232 16704,12292 16764,12292 16764,12232 Z M 16764,11992 L 16704,11992 16704,12051 16764,12051 16764,11992 Z"/>
         <path fill="rgb(0,0,0)" stroke="none" d="M 16958,11886 C 16920,11886 16886,11903 16864,11931 16838,11966 16825,12020 16825,12095 16825,12232 16871,12305 16958,12305 17044,12305 17091,12232 17091,12099 17091,12020 17078,11967 17051,11931 17030,11902 16997,11886 16958,11886 L 16958,11886 Z M 16958,11931 C 17013,11931 17039,11985 17039,12094 17039,12210 17013,12263 16957,12263 16904,12263 16876,12207 16876,12096 16876,11985 16904,11931 16958,11931 L 16958,11931 Z"/>
         <path fill="rgb(0,0,0)" stroke="none" d="M 17132,12414 L 17239,12414 17239,11875 17132,11875 17132,11916 17191,11916 17191,12372 17132,12372 17132,12414 Z"/>
         <path fill="none" stroke="rgb(0,0,0)" stroke-width="286" stroke-linejoin="miter" d="M 17966,13232 L 17393,13232"/>
         <path fill="rgb(0,0,0)" stroke="none" d="M 12987,13137 L 12987,13438 13035,13438 13035,13272 C 13035,13211 13067,13171 13116,13171 13154,13171 13178,13194 13178,13230 L 13178,13438 13226,13438 13226,13211 C 13226,13161 13188,13129 13131,13129 13086,13129 13057,13146 13031,13188 L 13031,13137 12987,13137 Z"/>
         <path fill="rgb(0,0,0)" stroke="none" d="M 13541,13438 L 13541,13137 13494,13137 13494,13308 C 13494,13369 13462,13409 13412,13409 13374,13409 13350,13386 13350,13350 L 13350,13137 13303,13137 13303,13369 C 13303,13419 13340,13451 13398,13451 13443,13451 13471,13435 13498,13396 L 13498,13438 13541,13438 Z"/>
         <path fill="rgb(0,0,0)" stroke="none" d="M 13624,13137 L 13624,13438 13672,13438 13672,13249 C 13672,13206 13703,13171 13743,13171 13778,13171 13798,13193 13798,13231 L 13798,13438 13846,13438 13846,13249 C 13846,13206 13878,13171 13917,13171 13951,13171 13972,13193 13972,13231 L 13972,13438 14020,13438 14020,13213 C 14020,13159 13990,13129 13934,13129 13893,13129 13869,13141 13841,13175 13823,13143 13799,13129 13760,13129 13720,13129 13694,13144 13668,13180 L 13668,13137 13624,13137 Z"/>
         <path fill="rgb(0,0,0)" stroke="none" d="M 14092,13020 L 14092,13438 14135,13438 14135,13400 C 14158,13434 14188,13451 14230,13451 14309,13451 14361,13386 14361,13287 14361,13189 14312,13129 14233,13129 14191,13129 14162,13144 14140,13178 L 14140,13020 14092,13020 Z M 14223,13174 C 14277,13174 14311,13220 14311,13292 14311,13360 14275,13406 14223,13406 14173,13406 14140,13360 14140,13290 14140,13219 14173,13174 14223,13174 L 14223,13174 Z"/>
         <path fill="rgb(0,0,0)" stroke="none" d="M 14674,13304 C 14674,13258 14670,13230 14662,13208 14642,13159 14596,13129 14540,13129 14457,13129 14402,13193 14402,13292 14402,13390 14455,13451 14539,13451 14608,13451 14655,13412 14667,13347 L 14619,13347 C 14606,13386 14579,13407 14540,13407 14510,13407 14484,13393 14468,13368 14457,13351 14453,13334 14452,13304 L 14674,13304 Z M 14454,13265 C 14458,13209 14492,13173 14539,13173 14586,13173 14623,13212 14623,13261 14623,13262 14623,13263 14622,13265 L 14454,13265 Z"/>
         <path fill="rgb(0,0,0)" stroke="none" d="M 14738,13137 L 14738,13438 14786,13438 14786,13282 C 14786,13239 14797,13211 14820,13194 14835,13184 14849,13180 14882,13179 L 14882,13131 C 14874,13130 14870,13129 14864,13129 14833,13129 14810,13147 14782,13192 L 14782,13137 14738,13137 Z"/>
         <path fill="rgb(0,0,0)" stroke="none" d="M 15220,13510 L 14876,13510 14876,13539 15220,13539 15220,13510 Z"/>
         <path fill="rgb(0,0,0)" stroke="none" d="M 15239,13020 L 15239,13438 15282,13438 15282,13400 C 15304,13434 15335,13451 15377,13451 15456,13451 15507,13386 15507,13287 15507,13189 15458,13129 15379,13129 15338,13129 15308,13144 15286,13178 L 15286,13020 15239,13020 Z M 15370,13174 C 15423,13174 15458,13220 15458,13292 15458,13360 15422,13406 15370,13406 15319,13406 15286,13360 15286,13290 15286,13219 15319,13174 15370,13174 L 15370,13174 Z"/>
         <path fill="rgb(0,0,0)" stroke="none" d="M 15857,13510 L 15514,13510 15514,13539 15857,13539 15857,13510 Z"/>
         <path fill="rgb(0,0,0)" stroke="none" d="M 16001,13129 C 15916,13129 15865,13189 15865,13290 15865,13391 15916,13451 16001,13451 16085,13451 16137,13391 16137,13292 16137,13188 16087,13129 16001,13129 L 16001,13129 Z M 16001,13173 C 16055,13173 16087,13217 16087,13292 16087,13362 16054,13407 16001,13407 15948,13407 15915,13363 15915,13290 15915,13218 15948,13173 16001,13173 L 16001,13173 Z"/>
         <path fill="rgb(0,0,0)" stroke="none" d="M 16307,13020 L 16200,13020 16200,13559 16307,13559 16307,13518 16248,13518 16248,13061 16307,13061 16307,13020 Z"/>
         <path fill="rgb(0,0,0)" stroke="none" d="M 16449,13252 L 16455,13252 16477,13251 C 16532,13251 16561,13276 16561,13325 16561,13376 16529,13406 16477,13406 16422,13406 16395,13379 16391,13320 L 16341,13320 C 16343,13353 16349,13374 16359,13392 16379,13431 16419,13451 16475,13451 16558,13451 16613,13401 16613,13324 16613,13273 16592,13244 16544,13228 16582,13213 16601,13184 16601,13143 16601,13074 16554,13031 16477,13031 16395,13031 16351,13076 16350,13163 L 16400,13163 C 16401,13138 16403,13124 16409,13112 16420,13090 16446,13075 16477,13075 16522,13075 16549,13102 16549,13145 16549,13174 16539,13191 16516,13200 16502,13206 16485,13208 16449,13209 L 16449,13252 Z"/>
         <path fill="rgb(0,0,0)" stroke="none" d="M 16764,13378 L 16704,13378 16704,13438 16764,13438 16764,13378 Z M 16764,13137 L 16704,13137 16704,13197 16764,13197 16764,13137 Z"/>
         <path fill="rgb(0,0,0)" stroke="none" d="M 16958,13031 C 16920,13031 16886,13048 16864,13076 16838,13112 16825,13166 16825,13241 16825,13378 16871,13451 16958,13451 17044,13451 17091,13378 17091,13245 17091,13166 17078,13113 17051,13076 17030,13047 16997,13031 16958,13031 L 16958,13031 Z M 16958,13076 C 17013,13076 17039,13131 17039,13240 17039,13355 17013,13409 16957,13409 16904,13409 16876,13353 16876,13242 16876,13131 16904,13076 16958,13076 L 16958,13076 Z"/>
         <path fill="rgb(0,0,0)" stroke="none" d="M 17132,13559 L 17239,13559 17239,13020 17132,13020 17132,13061 17191,13061 17191,13518 17132,13518 17132,13559 Z"/>
         <path fill="none" stroke="rgb(0,0,0)" stroke-width="286" stroke-linejoin="miter" d="M 17966,14378 L 17393,14378"/>
         <path fill="rgb(0,0,0)" stroke="none" d="M 13026,14384 C 13023,14355 13017,14336 13006,14320 12985,14291 12949,14274 12907,14274 12827,14274 12774,14339 12774,14439 12774,14536 12825,14597 12907,14597 12978,14597 13023,14553 13029,14480 L 12981,14480 C 12973,14528 12948,14553 12907,14553 12855,14553 12824,14509 12824,14439 12824,14364 12854,14319 12907,14319 12947,14319 12972,14342 12978,14384 L 13026,14384 Z"/>
         <path fill="rgb(0,0,0)" stroke="none" d="M 13198,14274 C 13114,14274 13063,14335 13063,14436 13063,14537 13114,14597 13199,14597 13283,14597 13334,14537 13334,14438 13334,14334 13285,14274 13198,14274 L 13198,14274 Z M 13199,14319 C 13253,14319 13285,14363 13285,14437 13285,14508 13252,14553 13199,14553 13146,14553 13113,14508 13113,14436 13113,14364 13146,14319 13199,14319 L 13199,14319 Z"/>
         <path fill="rgb(0,0,0)" stroke="none" d="M 13401,14283 L 13401,14584 13449,14584 13449,14418 C 13449,14357 13481,14317 13530,14317 13568,14317 13592,14339 13592,14376 L 13592,14584 13640,14584 13640,14357 C 13640,14307 13603,14274 13545,14274 13500,14274 13471,14292 13445,14334 L 13445,14283 13401,14283 Z"/>
         <path fill="rgb(0,0,0)" stroke="none" d="M 13825,14283 L 13776,14283 13776,14201 13728,14201 13728,14283 13688,14283 13688,14322 13728,14322 13728,14549 C 13728,14580 13749,14597 13786,14597 13798,14597 13809,14596 13825,14593 L 13825,14553 C 13818,14554 13811,14555 13802,14555 13782,14555 13776,14549 13776,14528 L 13776,14322 13825,14322 13825,14283 Z"/>
         <path fill="rgb(0,0,0)" stroke="none" d="M 13878,14283 L 13878,14584 13926,14584 13926,14428 C 13926,14384 13937,14357 13960,14340 13975,14329 13989,14326 14023,14325 L 14023,14276 C 14015,14275 14011,14274 14004,14274 13973,14274 13950,14293 13923,14337 L 13923,14283 13878,14283 Z"/>
         <path fill="rgb(0,0,0)" stroke="none" d="M 14186,14274 C 14101,14274 14050,14335 14050,14436 14050,14537 14101,14597 14186,14597 14270,14597 14322,14537 14322,14438 14322,14334 14272,14274 14186,14274 L 14186,14274 Z M 14186,14319 C 14240,14319 14272,14363 14272,14437 14272,14508 14239,14553 14186,14553 14133,14553 14100,14508 14100,14436 14100,14364 14133,14319 14186,14319 L 14186,14319 Z"/>
         <path fill="rgb(0,0,0)" stroke="none" d="M 14435,14166 L 14387,14166 14387,14584 14435,14584 14435,14166 Z"/>
         <path fill="rgb(0,0,0)" stroke="none" d="M 14807,14656 L 14463,14656 14463,14684 14807,14684 14807,14656 Z"/>
         <path fill="rgb(0,0,0)" stroke="none" d="M 15045,14367 C 15044,14308 15006,14274 14936,14274 14866,14274 14821,14311 14821,14367 14821,14414 14845,14436 14916,14453 L 14961,14464 C 14994,14472 15007,14484 15007,14506 15007,14534 14979,14553 14937,14553 14912,14553 14890,14545 14878,14533 14870,14524 14867,14515 14864,14494 L 14813,14494 C 14816,14564 14854,14597 14933,14597 15009,14597 15057,14559 15057,14502 15057,14457 15032,14432 14972,14418 L 14926,14407 C 14887,14398 14871,14385 14871,14364 14871,14336 14895,14319 14934,14319 14973,14319 14993,14336 14994,14367 L 15045,14367 Z"/>
         <path fill="rgb(0,0,0)" stroke="none" d="M 15166,14283 L 15119,14283 15119,14584 15166,14584 15166,14283 Z M 15166,14166 L 15118,14166 15118,14226 15166,14226 15166,14166 Z"/>
         <path fill="rgb(0,0,0)" stroke="none" d="M 15443,14283 L 15443,14327 C 15420,14291 15390,14274 15352,14274 15276,14274 15224,14341 15224,14439 15224,14488 15238,14528 15262,14556 15285,14582 15317,14597 15348,14597 15386,14597 15412,14581 15439,14543 L 15439,14558 C 15439,14599 15434,14624 15422,14640 15409,14658 15385,14668 15355,14668 15333,14668 15314,14662 15301,14652 15290,14644 15286,14636 15283,14618 L 15234,14618 C 15239,14675 15283,14708 15354,14708 15398,14708 15437,14694 15456,14670 15479,14643 15488,14605 15488,14534 L 15488,14283 15443,14283 Z M 15357,14319 C 15409,14319 15439,14362 15439,14437 15439,14509 15408,14553 15358,14553 15305,14553 15274,14508 15274,14436 15274,14364 15306,14319 15357,14319 L 15357,14319 Z"/>
         <path fill="rgb(0,0,0)" stroke="none" d="M 15857,14656 L 15514,14656 15514,14684 15857,14684 15857,14656 Z"/>
         <path fill="rgb(0,0,0)" stroke="none" d="M 16001,14274 C 15916,14274 15865,14335 15865,14436 15865,14537 15916,14597 16001,14597 16085,14597 16137,14537 16137,14438 16137,14334 16087,14274 16001,14274 L 16001,14274 Z M 16001,14319 C 16055,14319 16087,14363 16087,14437 16087,14508 16054,14553 16001,14553 15948,14553 15915,14508 15915,14436 15915,14364 15948,14319 16001,14319 L 16001,14319 Z"/>
         <path fill="rgb(0,0,0)" stroke="none" d="M 16307,14166 L 16200,14166 16200,14705 16307,14705 16307,14664 16248,14664 16248,14207 16307,14207 16307,14166 Z"/>
         <path fill="rgb(0,0,0)" stroke="none" d="M 16449,14398 L 16455,14398 16477,14397 C 16532,14397 16561,14422 16561,14471 16561,14522 16529,14552 16477,14552 16422,14552 16395,14524 16391,14465 L 16341,14465 C 16343,14498 16349,14520 16359,14538 16379,14577 16419,14597 16475,14597 16558,14597 16613,14547 16613,14470 16613,14418 16592,14390 16544,14373 16582,14358 16601,14330 16601,14289 16601,14219 16554,14177 16477,14177 16395,14177 16351,14222 16350,14308 L 16400,14308 C 16401,14284 16403,14270 16409,14258 16420,14235 16446,14221 16477,14221 16522,14221 16549,14248 16549,14290 16549,14320 16539,14336 16516,14346 16502,14352 16485,14354 16449,14354 L 16449,14398 Z"/>
         <path fill="rgb(0,0,0)" stroke="none" d="M 16764,14524 L 16704,14524 16704,14584 16764,14584 16764,14524 Z M 16764,14283 L 16704,14283 16704,14343 16764,14343 16764,14283 Z"/>
         <path fill="rgb(0,0,0)" stroke="none" d="M 16958,14177 C 16920,14177 16886,14194 16864,14222 16838,14258 16825,14312 16825,14387 16825,14524 16871,14597 16958,14597 17044,14597 17091,14524 17091,14390 17091,14311 17078,14259 17051,14222 17030,14193 16997,14177 16958,14177 L 16958,14177 Z M 16958,14222 C 17013,14222 17039,14277 17039,14386 17039,14501 17013,14555 16957,14555 16904,14555 16876,14499 16876,14387 16876,14276 16904,14222 16958,14222 L 16958,14222 Z"/>
         <path fill="rgb(0,0,0)" stroke="none" d="M 17132,14705 L 17239,14705 17239,14166 17132,14166 17132,14207 17191,14207 17191,14664 17132,14664 17132,14705 Z"/>
         <path fill="none" stroke="rgb(0,0,0)" stroke-width="286" stroke-linejoin="miter" d="M 17966,15524 L 17393,15524"/>
         <path fill="rgb(0,0,0)" stroke="none" d="M 13349,15701 C 13344,15702 13342,15702 13339,15702 13322,15702 13313,15694 13313,15679 L 13313,15503 C 13313,15449 13274,15420 13200,15420 13156,15420 13120,15433 13100,15456 13086,15471 13081,15488 13080,15518 L 13128,15518 C 13132,15481 13154,15464 13198,15464 13241,15464 13265,15481 13265,15509 L 13265,15522 C 13265,15542 13253,15551 13215,15555 13148,15564 13137,15566 13119,15573 13084,15588 13067,15614 13067,15654 13067,15708 13104,15742 13165,15742 13203,15742 13233,15729 13267,15698 13271,15729 13286,15742 13316,15742 13326,15742 13333,15741 13349,15737 L 13349,15701 Z M 13265,15635 C 13265,15651 13261,15660 13246,15674 13227,15691 13203,15701 13175,15701 13138,15701 13116,15683 13116,15652 13116,15621 13137,15605 13189,15597 13239,15591 13249,15588 13265,15581 L 13265,15635 Z"/>
         <path fill="rgb(0,0,0)" stroke="none" d="M 13448,15312 L 13400,15312 13400,15729 13448,15729 13448,15312 Z"/>
         <path fill="rgb(0,0,0)" stroke="none" d="M 13764,15729 L 13764,15429 13717,15429 13717,15599 C 13717,15660 13685,15701 13635,15701 13597,15701 13573,15678 13573,15642 L 13573,15429 13525,15429 13525,15660 C 13525,15710 13563,15742 13621,15742 13665,15742 13693,15727 13721,15688 L 13721,15729 13764,15729 Z"/>
         <path fill="rgb(0,0,0)" stroke="none" d="M 14138,15801 L 13794,15801 13794,15830 14138,15830 14138,15801 Z"/>
         <path fill="rgb(0,0,0)" stroke="none" d="M 14165,15429 L 14165,15729 14213,15729 14213,15573 C 14213,15530 14224,15503 14247,15486 14262,15475 14276,15472 14309,15471 L 14309,15422 C 14301,15421 14297,15420 14291,15420 14260,15420 14237,15439 14209,15483 L 14209,15429 14165,15429 Z"/>
         <path fill="rgb(0,0,0)" stroke="none" d="M 14610,15595 C 14610,15550 14607,15522 14598,15500 14579,15450 14533,15420 14476,15420 14393,15420 14339,15485 14339,15583 14339,15682 14391,15742 14475,15742 14544,15742 14592,15704 14604,15638 L 14555,15638 C 14542,15678 14516,15698 14477,15698 14447,15698 14421,15685 14405,15659 14394,15642 14389,15625 14389,15595 L 14610,15595 Z M 14390,15556 C 14394,15501 14428,15464 14476,15464 14523,15464 14559,15504 14559,15553 14559,15554 14559,15555 14558,15556 L 14390,15556 Z"/>
         <path fill="rgb(0,0,0)" stroke="none" d="M 14886,15513 C 14885,15454 14846,15420 14777,15420 14707,15420 14662,15457 14662,15512 14662,15559 14685,15582 14757,15598 L 14801,15610 C 14835,15617 14848,15629 14848,15651 14848,15679 14820,15698 14778,15698 14752,15698 14730,15691 14718,15678 14711,15670 14707,15661 14704,15640 L 14654,15640 C 14656,15709 14695,15742 14774,15742 14850,15742 14898,15705 14898,15647 14898,15603 14872,15578 14813,15564 L 14767,15553 C 14728,15544 14712,15531 14712,15510 14712,15482 14736,15464 14775,15464 14813,15464 14834,15481 14835,15513 L 14886,15513 Z"/>
         <path fill="rgb(0,0,0)" stroke="none" d="M 15197,15729 L 15197,15429 15150,15429 15150,15599 C 15150,15660 15118,15701 15068,15701 15030,15701 15006,15678 15006,15642 L 15006,15429 14958,15429 14958,15660 C 14958,15710 14996,15742 15054,15742 15098,15742 15126,15727 15154,15688 L 15154,15729 15197,15729 Z"/>
         <path fill="rgb(0,0,0)" stroke="none" d="M 15327,15312 L 15278,15312 15278,15729 15327,15729 15327,15312 Z"/>
         <path fill="rgb(0,0,0)" stroke="none" d="M 15512,15429 L 15463,15429 15463,15347 15416,15347 15416,15429 15375,15429 15375,15468 15416,15468 15416,15695 C 15416,15725 15436,15742 15473,15742 15485,15742 15496,15741 15512,15738 L 15512,15698 C 15506,15700 15499,15701 15489,15701 15469,15701 15463,15695 15463,15674 L 15463,15468 15512,15468 15512,15429 Z"/>
         <path fill="rgb(0,0,0)" stroke="none" d="M 15857,15801 L 15514,15801 15514,15830 15857,15830 15857,15801 Z"/>
         <path fill="rgb(0,0,0)" stroke="none" d="M 16001,15420 C 15916,15420 15865,15481 15865,15582 15865,15682 15916,15742 16001,15742 16085,15742 16137,15682 16137,15584 16137,15480 16087,15420 16001,15420 L 16001,15420 Z M 16001,15464 C 16055,15464 16087,15509 16087,15583 16087,15654 16054,15698 16001,15698 15948,15698 15915,15654 15915,15582 15915,15509 15948,15464 16001,15464 L 16001,15464 Z"/>
         <path fill="rgb(0,0,0)" stroke="none" d="M 16307,15312 L 16200,15312 16200,15851 16307,15851 16307,15810 16248,15810 16248,15353 16307,15353 16307,15312 Z"/>
         <path fill="rgb(0,0,0)" stroke="none" d="M 16449,15543 L 16455,15543 16477,15542 C 16532,15542 16561,15567 16561,15616 16561,15667 16529,15698 16477,15698 16422,15698 16395,15670 16391,15611 L 16341,15611 C 16343,15644 16349,15665 16359,15683 16379,15722 16419,15742 16475,15742 16558,15742 16613,15692 16613,15616 16613,15564 16592,15535 16544,15519 16582,15504 16601,15475 16601,15435 16601,15365 16554,15323 16477,15323 16395,15323 16351,15368 16350,15454 L 16400,15454 C 16401,15429 16403,15416 16409,15403 16420,15381 16446,15367 16477,15367 16522,15367 16549,15394 16549,15436 16549,15465 16539,15482 16516,15491 16502,15497 16485,15500 16449,15500 L 16449,15543 Z"/>
         <path fill="rgb(0,0,0)" stroke="none" d="M 16764,15670 L 16704,15670 16704,15729 16764,15729 16764,15670 Z M 16764,15429 L 16704,15429 16704,15489 16764,15489 16764,15429 Z"/>
         <path fill="rgb(0,0,0)" stroke="none" d="M 16958,15323 C 16920,15323 16886,15340 16864,15368 16838,15403 16825,15458 16825,15533 16825,15670 16871,15742 16958,15742 17044,15742 17091,15670 17091,15536 17091,15457 17078,15404 17051,15368 17030,15339 16997,15323 16958,15323 L 16958,15323 Z M 16958,15368 C 17013,15368 17039,15423 17039,15532 17039,15647 17013,15701 16957,15701 16904,15701 16876,15644 16876,15533 16876,15422 16904,15368 16958,15368 L 16958,15368 Z"/>
         <path fill="rgb(0,0,0)" stroke="none" d="M 17132,15851 L 17239,15851 17239,15312 17132,15312 17132,15353 17191,15353 17191,15810 17132,15810 17132,15851 Z"/>
         <path fill="none" stroke="rgb(0,0,0)" stroke-width="286" stroke-linejoin="miter" d="M 17966,16669 L 17393,16669"/>
         <path fill="rgb(0,0,0)" stroke="none" d="M 13390,16457 L 13342,16457 13342,16612 C 13322,16582 13290,16566 13250,16566 13172,16566 13121,16628 13121,16724 13121,16826 13171,16888 13251,16888 13293,16888 13322,16873 13347,16835 L 13347,16875 13390,16875 13390,16457 Z M 13258,16611 C 13309,16611 13342,16657 13342,16728 13342,16797 13309,16843 13259,16843 13206,16843 13171,16797 13171,16727 13171,16657 13206,16611 13258,16611 L 13258,16611 Z"/>
         <path fill="rgb(0,0,0)" stroke="none" d="M 13510,16575 L 13463,16575 13463,16875 13510,16875 13510,16575 Z M 13510,16457 L 13462,16457 13462,16518 13510,16518 13510,16457 Z"/>
         <path fill="rgb(0,0,0)" stroke="none" d="M 13803,16658 C 13802,16599 13763,16566 13694,16566 13624,16566 13579,16602 13579,16658 13579,16705 13603,16727 13674,16744 L 13718,16755 C 13752,16763 13765,16775 13765,16797 13765,16825 13737,16844 13695,16844 13669,16844 13648,16837 13635,16824 13628,16815 13624,16807 13621,16785 L 13571,16785 C 13573,16855 13612,16888 13691,16888 13767,16888 13815,16851 13815,16793 13815,16749 13790,16724 13730,16709 L 13684,16699 C 13645,16689 13629,16677 13629,16656 13629,16628 13653,16610 13692,16610 13730,16610 13751,16627 13752,16658 L 13803,16658 Z"/>
         <path fill="rgb(0,0,0)" stroke="none" d="M 13869,17000 L 13917,17000 13917,16843 C 13942,16874 13970,16888 14010,16888 14087,16888 14138,16826 14138,16730 14138,16629 14089,16566 14009,16566 13968,16566 13936,16584 13913,16620 L 13913,16575 13869,16575 13869,17000 Z M 14001,16611 C 14054,16611 14088,16657 14088,16729 14088,16797 14053,16843 14001,16843 13951,16843 13917,16797 13917,16727 13917,16657 13951,16611 14001,16611 L 14001,16611 Z"/>
         <path fill="rgb(0,0,0)" stroke="none" d="M 14488,16947 L 14144,16947 14144,16976 14488,16976 14488,16947 Z"/>
         <path fill="rgb(0,0,0)" stroke="none" d="M 14759,16457 L 14711,16457 14711,16612 C 14691,16582 14659,16566 14619,16566 14541,16566 14490,16628 14490,16724 14490,16826 14540,16888 14621,16888 14662,16888 14691,16873 14717,16835 L 14717,16875 14759,16875 14759,16457 Z M 14627,16611 C 14679,16611 14711,16657 14711,16728 14711,16797 14678,16843 14628,16843 14575,16843 14540,16797 14540,16727 14540,16657 14575,16611 14627,16611 L 14627,16611 Z"/>
         <path fill="rgb(0,0,0)" stroke="none" d="M 14880,16575 L 14832,16575 14832,16875 14880,16875 14880,16575 Z M 14880,16457 L 14832,16457 14832,16518 14880,16518 14880,16457 Z"/>
         <path fill="rgb(0,0,0)" stroke="none" d="M 15157,16575 L 15157,16618 C 15133,16583 15104,16566 15065,16566 14989,16566 14938,16633 14938,16730 14938,16779 14951,16819 14975,16848 14998,16873 15030,16888 15062,16888 15099,16888 15125,16872 15153,16834 L 15153,16850 C 15153,16890 15147,16915 15135,16932 15123,16950 15098,16960 15069,16960 15047,16960 15028,16954 15015,16944 15003,16935 14999,16927 14996,16909 L 14947,16909 C 14953,16966 14997,17000 15067,17000 15112,17000 15150,16985 15170,16962 15193,16934 15201,16896 15201,16826 L 15201,16575 15157,16575 Z M 15071,16610 C 15122,16610 15153,16654 15153,16729 15153,16800 15122,16844 15071,16844 15019,16844 14987,16800 14987,16727 14987,16655 15019,16610 15071,16610 L 15071,16610 Z"/>
         <path fill="rgb(0,0,0)" stroke="none" d="M 15325,16575 L 15278,16575 15278,16875 15325,16875 15325,16575 Z M 15325,16457 L 15277,16457 15277,16518 15325,16518 15325,16457 Z"/>
         <path fill="rgb(0,0,0)" stroke="none" d="M 15512,16575 L 15463,16575 15463,16492 15416,16492 15416,16575 15375,16575 15375,16614 15416,16614 15416,16841 C 15416,16871 15436,16888 15473,16888 15485,16888 15496,16887 15512,16884 L 15512,16844 C 15506,16846 15499,16846 15489,16846 15469,16846 15463,16841 15463,16819 L 15463,16614 15512,16614 15512,16575 Z"/>
         <path fill="rgb(0,0,0)" stroke="none" d="M 15857,16947 L 15514,16947 15514,16976 15857,16976 15857,16947 Z"/>
         <path fill="rgb(0,0,0)" stroke="none" d="M 16001,16566 C 15916,16566 15865,16626 15865,16727 15865,16828 15916,16888 16001,16888 16085,16888 16137,16828 16137,16730 16137,16626 16087,16566 16001,16566 L 16001,16566 Z M 16001,16610 C 16055,16610 16087,16655 16087,16729 16087,16799 16054,16844 16001,16844 15948,16844 15915,16800 15915,16727 15915,16655 15948,16610 16001,16610 L 16001,16610 Z"/>
         <path fill="rgb(0,0,0)" stroke="none" d="M 16307,16457 L 16200,16457 16200,16997 16307,16997 16307,16955 16248,16955 16248,16499 16307,16499 16307,16457 Z"/>
         <path fill="rgb(0,0,0)" stroke="none" d="M 16449,16689 L 16455,16689 16477,16688 C 16532,16688 16561,16713 16561,16762 16561,16813 16529,16843 16477,16843 16422,16843 16395,16816 16391,16757 L 16341,16757 C 16343,16790 16349,16811 16359,16829 16379,16868 16419,16888 16475,16888 16558,16888 16613,16838 16613,16762 16613,16710 16592,16681 16544,16665 16582,16650 16601,16621 16601,16580 16601,16511 16554,16469 16477,16469 16395,16469 16351,16514 16350,16600 L 16400,16600 C 16401,16575 16403,16562 16409,16549 16420,16527 16446,16513 16477,16513 16522,16513 16549,16539 16549,16582 16549,16611 16539,16628 16516,16637 16502,16643 16485,16645 16449,16646 L 16449,16689 Z"/>
         <path fill="rgb(0,0,0)" stroke="none" d="M 16764,16815 L 16704,16815 16704,16875 16764,16875 16764,16815 Z M 16764,16575 L 16704,16575 16704,16634 16764,16634 16764,16575 Z"/>
         <path fill="rgb(0,0,0)" stroke="none" d="M 16958,16469 C 16920,16469 16886,16486 16864,16514 16838,16549 16825,16603 16825,16678 16825,16815 16871,16888 16958,16888 17044,16888 17091,16815 17091,16682 17091,16603 17078,16550 17051,16514 17030,16485 16997,16469 16958,16469 L 16958,16469 Z M 16958,16514 C 17013,16514 17039,16568 17039,16677 17039,16793 17013,16846 16957,16846 16904,16846 16876,16790 16876,16679 16876,16568 16904,16514 16958,16514 L 16958,16514 Z"/>
         <path fill="rgb(0,0,0)" stroke="none" d="M 17132,16997 L 17239,16997 17239,16457 17132,16457 17132,16499 17191,16499 17191,16955 17132,16955 17132,16997 Z"/>
         <path fill="none" stroke="rgb(0,0,0)" stroke-width="286" stroke-linejoin="miter" d="M 17966,17815 L 17393,17815"/>
         <path fill="rgb(0,0,0)" stroke="none" d="M 13231,17603 L 13183,17603 13183,17758 C 13163,17728 13131,17712 13091,17712 13013,17712 12962,17774 12962,17870 12962,17971 13012,18034 13092,18034 13134,18034 13162,18018 13188,17981 L 13188,18021 13231,18021 13231,17603 Z M 13098,17757 C 13150,17757 13183,17802 13183,17874 13183,17943 13150,17989 13099,17989 13046,17989 13012,17943 13012,17873 13012,17803 13046,17757 13098,17757 L 13098,17757 Z"/>
         <path fill="rgb(0,0,0)" stroke="none" d="M 13351,17720 L 13303,17720 13303,18021 13351,18021 13351,17720 Z M 13351,17603 L 13303,17603 13303,17663 13351,17663 13351,17603 Z"/>
         <path fill="rgb(0,0,0)" stroke="none" d="M 13643,17804 C 13643,17745 13604,17712 13534,17712 13465,17712 13420,17748 13420,17804 13420,17851 13443,17873 13514,17890 L 13559,17901 C 13592,17909 13606,17921 13606,17943 13606,17971 13577,17990 13536,17990 13510,17990 13488,17982 13476,17970 13468,17961 13465,17952 13462,17931 L 13412,17931 C 13414,18001 13453,18034 13531,18034 13608,18034 13655,17996 13655,17939 13655,17894 13630,17870 13571,17855 L 13525,17844 C 13486,17835 13469,17823 13469,17801 13469,17774 13494,17756 13533,17756 13571,17756 13592,17773 13593,17804 L 13643,17804 Z"/>
         <path fill="rgb(0,0,0)" stroke="none" d="M 13710,18146 L 13758,18146 13758,17989 C 13783,18020 13811,18034 13850,18034 13927,18034 13979,17971 13979,17876 13979,17775 13929,17712 13850,17712 13809,17712 13776,17730 13754,17766 L 13754,17720 13710,17720 13710,18146 Z M 13842,17757 C 13894,17757 13929,17803 13929,17874 13929,17943 13894,17989 13842,17989 13791,17989 13758,17943 13758,17873 13758,17802 13791,17757 13842,17757 L 13842,17757 Z"/>
         <path fill="rgb(0,0,0)" stroke="none" d="M 14329,18093 L 13985,18093 13985,18121 14329,18121 14329,18093 Z"/>
         <path fill="rgb(0,0,0)" stroke="none" d="M 14567,17804 C 14566,17745 14528,17712 14458,17712 14388,17712 14343,17748 14343,17804 14343,17851 14367,17873 14438,17890 L 14483,17901 C 14516,17909 14529,17921 14529,17943 14529,17971 14501,17990 14459,17990 14434,17990 14412,17982 14400,17970 14392,17961 14389,17952 14386,17931 L 14335,17931 C 14338,18001 14377,18034 14455,18034 14531,18034 14579,17996 14579,17939 14579,17894 14554,17870 14494,17855 L 14448,17844 C 14410,17835 14393,17823 14393,17801 14393,17774 14417,17756 14457,17756 14495,17756 14516,17773 14517,17804 L 14567,17804 Z"/>
         <path fill="rgb(0,0,0)" stroke="none" d="M 14853,17804 C 14853,17745 14814,17712 14744,17712 14675,17712 14630,17748 14630,17804 14630,17851 14653,17873 14725,17890 L 14769,17901 C 14803,17909 14816,17921 14816,17943 14816,17971 14788,17990 14746,17990 14720,17990 14698,17982 14686,17970 14679,17961 14675,17952 14672,17931 L 14622,17931 C 14624,18001 14663,18034 14742,18034 14818,18034 14866,17996 14866,17939 14866,17894 14840,17870 14781,17855 L 14735,17844 C 14696,17835 14680,17823 14680,17801 14680,17774 14704,17756 14743,17756 14781,17756 14802,17773 14803,17804 L 14853,17804 Z"/>
         <path fill="rgb(0,0,0)" stroke="none" d="M 15183,17887 C 15183,17841 15180,17813 15171,17791 15152,17742 15106,17712 15049,17712 14966,17712 14912,17776 14912,17874 14912,17973 14964,18034 15048,18034 15117,18034 15165,17995 15177,17930 L 15128,17930 C 15115,17969 15089,17990 15050,17990 15020,17990 14994,17976 14978,17951 14966,17934 14962,17917 14962,17887 L 15183,17887 Z M 14963,17848 C 14967,17792 15001,17756 15049,17756 15096,17756 15132,17795 15132,17844 15132,17845 15132,17846 15131,17848 L 14963,17848 Z"/>
         <path fill="rgb(0,0,0)" stroke="none" d="M 15443,17720 L 15443,17764 C 15420,17729 15390,17712 15352,17712 15276,17712 15224,17779 15224,17876 15224,17925 15238,17965 15262,17994 15285,18019 15317,18034 15348,18034 15386,18034 15412,18018 15439,17980 L 15439,17996 C 15439,18036 15434,18061 15422,18077 15409,18095 15385,18105 15355,18105 15333,18105 15314,18100 15301,18089 15290,18081 15286,18073 15283,18055 L 15234,18055 C 15239,18112 15283,18146 15354,18146 15398,18146 15437,18131 15456,18107 15479,18080 15488,18042 15488,17971 L 15488,17720 15443,17720 Z M 15357,17756 C 15409,17756 15439,17799 15439,17874 15439,17946 15408,17990 15358,17990 15305,17990 15274,17946 15274,17873 15274,17801 15306,17756 15357,17756 L 15357,17756 Z"/>
         <path fill="rgb(0,0,0)" stroke="none" d="M 15857,18093 L 15514,18093 15514,18121 15857,18121 15857,18093 Z"/>
         <path fill="rgb(0,0,0)" stroke="none" d="M 16001,17712 C 15916,17712 15865,17772 15865,17873 15865,17974 15916,18034 16001,18034 16085,18034 16137,17974 16137,17875 16137,17771 16087,17712 16001,17712 L 16001,17712 Z M 16001,17756 C 16055,17756 16087,17800 16087,17874 16087,17945 16054,17990 16001,17990 15948,17990 15915,17946 15915,17873 15915,17801 15948,17756 16001,17756 L 16001,17756 Z"/>
         <path fill="rgb(0,0,0)" stroke="none" d="M 16307,17603 L 16200,17603 16200,18142 16307,18142 16307,18101 16248,18101 16248,17644 16307,17644 16307,17603 Z"/>
         <path fill="rgb(0,0,0)" stroke="none" d="M 16608,17720 C 16598,17654 16555,17614 16493,17614 16448,17614 16408,17636 16384,17672 16359,17712 16347,17762 16347,17836 16347,17904 16357,17948 16382,17983 16403,18016 16439,18034 16483,18034 16561,18034 16617,17977 16617,17897 16617,17821 16565,17768 16492,17768 16452,17768 16420,17783 16399,17813 16400,17714 16432,17659 16489,17659 16525,17659 16549,17682 16557,17720 L 16608,17720 Z M 16486,17813 C 16535,17813 16565,17846 16565,17901 16565,17952 16530,17989 16484,17989 16437,17989 16401,17950 16401,17898 16401,17848 16436,17813 16486,17813 L 16486,17813 Z"/>
         <path fill="rgb(0,0,0)" stroke="none" d="M 16764,17961 L 16704,17961 16704,18021 16764,18021 16764,17961 Z M 16764,17720 L 16704,17720 16704,17780 16764,17780 16764,17720 Z"/>
         <path fill="rgb(0,0,0)" stroke="none" d="M 16958,17614 C 16920,17614 16886,17631 16864,17659 16838,17695 16825,17749 16825,17824 16825,17961 16871,18034 16958,18034 17044,18034 17091,17961 17091,17827 17091,17748 17078,17696 17051,17659 17030,17630 16997,17614 16958,17614 L 16958,17614 Z M 16958,17659 C 17013,17659 17039,17714 17039,17823 17039,17938 17013,17992 16957,17992 16904,17992 16876,17936 16876,17825 16876,17714 16904,17659 16958,17659 L 16958,17659 Z"/>
         <path fill="rgb(0,0,0)" stroke="none" d="M 17132,18142 L 17239,18142 17239,17603 17132,17603 17132,17644 17191,17644 17191,18101 17132,18101 17132,18142 Z"/>
         <path fill="none" stroke="rgb(63,110,158)" stroke-width="57" stroke-linejoin="miter" d="M 5189,7504 L 16992,7504"/>
         <path fill="none" stroke="rgb(63,110,158)" stroke-width="57" stroke-linejoin="miter" d="M 17393,7904 C 17393,7898 17393,7892 17393,7885 17387,7669 17208,7498 16992,7504"/>
         <path fill="none" stroke="rgb(63,110,158)" stroke-width="57" stroke-linejoin="miter" d="M 17393,7904 L 17393,18560"/>
         <path fill="none" stroke="rgb(63,110,158)" stroke-width="57" stroke-linejoin="miter" d="M 16992,18961 C 16998,18961 17004,18961 17011,18961 17227,18956 17398,18776 17393,18560"/>
         <path fill="none" stroke="rgb(63,110,158)" stroke-width="57" stroke-linejoin="miter" d="M 16992,18961 L 5189,18961"/>
         <path fill="none" stroke="rgb(63,110,158)" stroke-width="57" stroke-linejoin="miter" d="M 4788,18560 C 4788,18566 4788,18572 4788,18579 4793,18795 4973,18966 5189,18961"/>
         <path fill="none" stroke="rgb(63,110,158)" stroke-width="57" stroke-linejoin="miter" d="M 4788,18560 L 4788,7904"/>
         <path fill="none" stroke="rgb(63,110,158)" stroke-width="57" stroke-linejoin="miter" d="M 5189,7504 C 5182,7503 5176,7503 5170,7504 4954,7509 4783,7688 4788,7904"/>
        </g>
       </g>
      </g>
     </g>
    </g>
   </g>
  </g>
 </g>
</svg>