<?xml version="1.0" encoding="UTF-8"?>
<!DOCTYPE svg PUBLIC "-//W3C//DTD SVG 1.1//EN" "http://www.w3.org/Graphics/SVG/1.1/DTD/svg11.dtd">
<svg version="1.2" width="128.99mm" height="63.99mm" viewBox="4100 11500 12899 6399" preserveAspectRatio="xMidYMid" fill-rule="evenodd" stroke-width="28.222" stroke-linejoin="round" xmlns="http://www.w3.org/2000/svg" xmlns:ooo="http://xml.openoffice.org/svg/export" xmlns:xlink="http://www.w3.org/1999/xlink" xmlns:presentation="http://sun.com/xmlns/staroffice/presentation" xmlns:smil="http://www.w3.org/2001/SMIL20/" xmlns:anim="urn:oasis:names:tc:opendocument:xmlns:animation:1.0" xml:space="preserve">
 <defs class="ClipPathGroup">
  <clipPath id="presentation_clip_path" clipPathUnits="userSpaceOnUse">
   <rect x="4100" y="11500" width="12899" height="6399"/>
  </clipPath>
  <clipPath id="presentation_clip_path_shrink" clipPathUnits="userSpaceOnUse">
   <rect x="4112" y="11506" width="12874" height="6387"/>
  </clipPath>
 </defs>
 <defs class="TextShapeIndex">
  <g ooo:slide="id1" ooo:id-list="id3"/>
 </defs>
 <defs class="EmbeddedBulletChars">
  <g id="bullet-char-template-57356" transform="scale(0.00048828125,-0.00048828125)">
   <path d="M 580,1141 L 1163,571 580,0 -4,571 580,1141 Z"/>
  </g>
  <g id="bullet-char-template-57354" transform="scale(0.00048828125,-0.00048828125)">
   <path d="M 8,1128 L 1137,1128 1137,0 8,0 8,1128 Z"/>
  </g>
  <g id="bullet-char-template-10146" transform="scale(0.00048828125,-0.00048828125)">
   <path d="M 174,0 L 602,739 174,1481 1456,739 174,0 Z M 1358,739 L 309,1346 659,739 1358,739 Z"/>
  </g>
  <g id="bullet-char-template-10132" transform="scale(0.00048828125,-0.00048828125)">
   <path d="M 2015,739 L 1276,0 717,0 1260,543 174,543 174,936 1260,936 717,1481 1274,1481 2015,739 Z"/>
  </g>
  <g id="bullet-char-template-10007" transform="scale(0.00048828125,-0.00048828125)">
   <path d="M 0,-2 C -7,14 -16,27 -25,37 L 356,567 C 262,823 215,952 215,954 215,979 228,992 255,992 264,992 276,990 289,987 310,991 331,999 354,1012 L 381,999 492,748 772,1049 836,1024 860,1049 C 881,1039 901,1025 922,1006 886,937 835,863 770,784 769,783 710,716 594,584 L 774,223 C 774,196 753,168 711,139 L 727,119 C 717,90 699,76 672,76 641,76 570,178 457,381 L 164,-76 C 142,-110 111,-127 72,-127 30,-127 9,-110 8,-76 1,-67 -2,-52 -2,-32 -2,-23 -1,-13 0,-2 Z"/>
  </g>
  <g id="bullet-char-template-10004" transform="scale(0.00048828125,-0.00048828125)">
   <path d="M 285,-33 C 182,-33 111,30 74,156 52,228 41,333 41,471 41,549 55,616 82,672 116,743 169,778 240,778 293,778 328,747 346,684 L 369,508 C 377,444 397,411 428,410 L 1163,1116 C 1174,1127 1196,1133 1229,1133 1271,1133 1292,1118 1292,1087 L 1292,965 C 1292,929 1282,901 1262,881 L 442,47 C 390,-6 338,-33 285,-33 Z"/>
  </g>
  <g id="bullet-char-template-9679" transform="scale(0.00048828125,-0.00048828125)">
   <path d="M 813,0 C 632,0 489,54 383,161 276,268 223,411 223,592 223,773 276,916 383,1023 489,1130 632,1184 813,1184 992,1184 1136,1130 1245,1023 1353,916 1407,772 1407,592 1407,412 1353,268 1245,161 1136,54 992,0 813,0 Z"/>
  </g>
  <g id="bullet-char-template-8226" transform="scale(0.00048828125,-0.00048828125)">
   <path d="M 346,457 C 273,457 209,483 155,535 101,586 74,649 74,723 74,796 101,859 155,911 209,963 273,989 346,989 419,989 480,963 531,910 582,859 608,796 608,723 608,648 583,586 532,535 482,483 420,457 346,457 Z"/>
  </g>
  <g id="bullet-char-template-8211" transform="scale(0.00048828125,-0.00048828125)">
   <path d="M -4,459 L 1135,459 1135,606 -4,606 -4,459 Z"/>
  </g>
  <g id="bullet-char-template-61548" transform="scale(0.00048828125,-0.00048828125)">
   <path d="M 173,740 C 173,903 231,1043 346,1159 462,1274 601,1332 765,1332 928,1332 1067,1274 1183,1159 1299,1043 1357,903 1357,740 1357,577 1299,437 1183,322 1067,206 928,148 765,148 601,148 462,206 346,322 231,437 173,577 173,740 Z"/>
  </g>
 </defs>
 <defs class="TextEmbeddedBitmaps"/>
 <g class="SlideGroup">
  <g>
   <g id="container-id1">
    <g id="id1" class="Slide" clip-path="url(#presentation_clip_path)">
     <g class="Page">
      <g class="Graphic">
       <g id="id3">
        <rect class="BoundingBox" stroke="none" fill="none" x="4100" y="11500" width="12900" height="6400"/>
        <defs>
         <clipPath id="clip_path_1" clipPathUnits="userSpaceOnUse">
          <path d="M 4100,11500 L 16999,11500 16999,17899 4100,17899 4100,11500 Z"/>
         </clipPath>
        </defs>
        <g clip-path="url(#clip_path_1)"/>
        <defs>
         <clipPath id="clip_path_2" clipPathUnits="userSpaceOnUse">
          <path d="M 4100,11500 L 16999,11500 16999,17899 4100,17899 4100,11500 Z"/>
         </clipPath>
        </defs>
        <g clip-path="url(#clip_path_2)">
         <path fill="rgb(255,255,255)" stroke="none" d="M 1906,10285 L 19093,10285 19093,19822 1906,19822 1906,10285 Z"/>
        </g>
        <g clip-path="url(#clip_path_1)">
         <path fill="rgb(0,0,0)" stroke="none" d="M 6375,13292 L 15484,13292 15742,13378 15913,13464 15999,13635 16085,13893 16085,16127 15999,16385 15913,16557 15742,16643 15484,16729 6375,16729 6117,16643 5945,16557 5859,16385 5773,16127 5773,13893 5859,13635 5945,13464 6117,13378 6375,13292 Z"/>
        </g>
        <defs>
         <clipPath id="clip_path_3" clipPathUnits="userSpaceOnUse">
          <path d="M 5945,12862 L 15054,12862 15312,12948 15484,13034 15570,13206 15656,13464 15656,15697 15570,15955 15484,16127 15312,16213 15054,16299 5945,16299 5687,16213 5515,16127 5429,15955 5343,15697 5343,13464 5429,13206 5515,13034 5687,12948 5945,12862 Z"/>
         </clipPath>
        </defs>
        <g clip-path="url(#clip_path_3)"/>
        <defs>
         <clipPath id="clip_path_4" clipPathUnits="userSpaceOnUse">
          <path d="M 5945,12862 L 15054,12862 15312,12948 15484,13034 15570,13206 15656,13464 15656,15697 15570,15955 15484,16127 15312,16213 15054,16299 5945,16299 5687,16213 5515,16127 5429,15955 5343,15697 5343,13464 5429,13206 5515,13034 5687,12948 5945,12862 Z"/>
         </clipPath>
        </defs>
        <g clip-path="url(#clip_path_4)">
         <path fill="rgb(189,212,236)" stroke="none" d="M 4080,15757 L 4118,15774 6963,9137 6924,9121 4080,15757 Z"/>
         <path fill="rgb(189,212,236)" stroke="none" d="M 4080,15757 L 4273,15840 7118,9204 6924,9121 4080,15757 Z"/>
         <path fill="rgb(190,212,236)" stroke="none" d="M 4235,15824 L 4429,15907 7274,9271 7080,9188 4235,15824 Z"/>
         <path fill="rgb(190,213,236)" stroke="none" d="M 4391,15891 L 4585,15974 7429,9337 7235,9254 4391,15891 Z"/>
         <path fill="rgb(191,213,237)" stroke="none" d="M 4546,15957 L 4740,16040 7585,9404 7391,9321 4546,15957 Z"/>
         <path fill="rgb(192,214,237)" stroke="none" d="M 4702,16024 L 4896,16107 7740,9471 7547,9387 4702,16024 Z"/>
         <path fill="rgb(193,214,237)" stroke="none" d="M 4857,16091 L 5051,16174 7896,9537 7702,9454 4857,16091 Z"/>
         <path fill="rgb(194,215,237)" stroke="none" d="M 5013,16157 L 5207,16240 8052,9604 7858,9521 5013,16157 Z"/>
         <path fill="rgb(194,215,237)" stroke="none" d="M 5169,16224 L 5362,16307 8207,9671 8013,9587 5169,16224 Z"/>
         <path fill="rgb(195,216,237)" stroke="none" d="M 5324,16291 L 5518,16374 8363,9737 8169,9654 5324,16291 Z"/>
         <path fill="rgb(196,216,237)" stroke="none" d="M 5480,16357 L 5674,16440 8518,9804 8324,9721 5480,16357 Z"/>
         <path fill="rgb(197,217,238)" stroke="none" d="M 5635,16424 L 5829,16507 8674,9871 8480,9787 5635,16424 Z"/>
         <path fill="rgb(197,217,238)" stroke="none" d="M 5791,16491 L 5985,16574 8830,9937 8636,9854 5791,16491 Z"/>
         <path fill="rgb(198,218,238)" stroke="none" d="M 5946,16557 L 6140,16640 8985,10004 8791,9921 5946,16557 Z"/>
         <path fill="rgb(199,218,238)" stroke="none" d="M 6102,16624 L 6296,16707 9141,10071 8947,9987 6102,16624 Z"/>
         <path fill="rgb(200,218,238)" stroke="none" d="M 6258,16691 L 6451,16774 9296,10137 9102,10054 6258,16691 Z"/>
         <path fill="rgb(201,219,238)" stroke="none" d="M 6413,16757 L 6607,16840 9452,10204 9258,10121 6413,16757 Z"/>
         <path fill="rgb(201,219,239)" stroke="none" d="M 6569,16824 L 6763,16907 9607,10271 9413,10187 6569,16824 Z"/>
         <path fill="rgb(202,220,239)" stroke="none" d="M 6724,16891 L 6918,16974 9763,10337 9569,10254 6724,16891 Z"/>
         <path fill="rgb(203,220,239)" stroke="none" d="M 6880,16957 L 7074,17040 9919,10404 9725,10321 6880,16957 Z"/>
         <path fill="rgb(204,221,239)" stroke="none" d="M 7035,17024 L 7229,17107 10074,10471 9880,10387 7035,17024 Z"/>
         <path fill="rgb(204,221,239)" stroke="none" d="M 7191,17091 L 7385,17174 10230,10537 10036,10454 7191,17091 Z"/>
         <path fill="rgb(205,222,239)" stroke="none" d="M 7347,17157 L 7540,17240 10385,10604 10191,10521 7347,17157 Z"/>
         <path fill="rgb(206,222,239)" stroke="none" d="M 7502,17224 L 7696,17307 10541,10670 10347,10587 7502,17224 Z"/>
         <path fill="rgb(207,223,240)" stroke="none" d="M 7658,17291 L 7852,17374 10696,10737 10502,10654 7658,17291 Z"/>
         <path fill="rgb(207,223,240)" stroke="none" d="M 7813,17357 L 8007,17440 10852,10804 10658,10721 7813,17357 Z"/>
         <path fill="rgb(208,224,240)" stroke="none" d="M 7969,17424 L 8163,17507 11008,10870 10814,10787 7969,17424 Z"/>
         <path fill="rgb(209,224,240)" stroke="none" d="M 8124,17491 L 8318,17574 11163,10937 10969,10854 8124,17491 Z"/>
         <path fill="rgb(210,225,240)" stroke="none" d="M 8280,17557 L 8474,17640 11319,11004 11125,10921 8280,17557 Z"/>
         <path fill="rgb(211,225,240)" stroke="none" d="M 8436,17624 L 8629,17707 11474,11070 11280,10987 8436,17624 Z"/>
         <path fill="rgb(211,225,241)" stroke="none" d="M 8591,17691 L 8785,17774 11630,11137 11436,11054 8591,17691 Z"/>
         <path fill="rgb(212,226,241)" stroke="none" d="M 8747,17757 L 8941,17840 11785,11204 11591,11121 8747,17757 Z"/>
         <path fill="rgb(213,226,241)" stroke="none" d="M 8902,17824 L 9096,17907 11941,11270 11747,11187 8902,17824 Z"/>
         <path fill="rgb(214,227,241)" stroke="none" d="M 9058,17890 L 9252,17974 12097,11337 11903,11254 9058,17890 Z"/>
         <path fill="rgb(214,227,241)" stroke="none" d="M 9213,17957 L 9407,18040 12252,11404 12058,11321 9213,17957 Z"/>
         <path fill="rgb(215,228,241)" stroke="none" d="M 9369,18024 L 9563,18107 12408,11470 12214,11387 9369,18024 Z"/>
         <path fill="rgb(216,228,241)" stroke="none" d="M 9525,18090 L 9719,18174 12563,11537 12369,11454 9525,18090 Z"/>
         <path fill="rgb(217,229,242)" stroke="none" d="M 9680,18157 L 9874,18240 12719,11604 12525,11521 9680,18157 Z"/>
         <path fill="rgb(218,229,242)" stroke="none" d="M 9836,18224 L 10030,18307 12874,11670 12681,11587 9836,18224 Z"/>
         <path fill="rgb(218,230,242)" stroke="none" d="M 9991,18290 L 10185,18374 13030,11737 12836,11654 9991,18290 Z"/>
         <path fill="rgb(219,230,242)" stroke="none" d="M 10147,18357 L 10341,18440 13186,11804 12992,11721 10147,18357 Z"/>
         <path fill="rgb(220,231,242)" stroke="none" d="M 10302,18424 L 10496,18507 13341,11870 13147,11787 10302,18424 Z"/>
         <path fill="rgb(221,231,242)" stroke="none" d="M 10458,18490 L 10652,18574 13497,11937 13303,11854 10458,18490 Z"/>
         <path fill="rgb(221,231,243)" stroke="none" d="M 10614,18557 L 10808,18640 13652,12004 13458,11921 10614,18557 Z"/>
         <path fill="rgb(222,232,243)" stroke="none" d="M 10769,18624 L 10963,18707 13808,12070 13614,11987 10769,18624 Z"/>
         <path fill="rgb(223,232,243)" stroke="none" d="M 10925,18690 L 11119,18774 13963,12137 13770,12054 10925,18690 Z"/>
         <path fill="rgb(224,233,243)" stroke="none" d="M 11080,18757 L 11274,18840 14119,12204 13925,12121 11080,18757 Z"/>
         <path fill="rgb(225,233,243)" stroke="none" d="M 11236,18824 L 11430,18907 14275,12270 14081,12187 11236,18824 Z"/>
         <path fill="rgb(225,234,243)" stroke="none" d="M 11391,18890 L 11585,18973 14430,12337 14236,12254 11391,18890 Z"/>
         <path fill="rgb(226,234,244)" stroke="none" d="M 11547,18957 L 11741,19040 14586,12404 14392,12321 11547,18957 Z"/>
         <path fill="rgb(227,235,244)" stroke="none" d="M 11703,19024 L 11897,19107 14741,12470 14547,12387 11703,19024 Z"/>
         <path fill="rgb(228,235,244)" stroke="none" d="M 11858,19090 L 12052,19173 14897,12537 14703,12454 11858,19090 Z"/>
         <path fill="rgb(228,236,244)" stroke="none" d="M 12014,19157 L 12208,19240 15052,12604 14859,12521 12014,19157 Z"/>
         <path fill="rgb(229,236,244)" stroke="none" d="M 12169,19224 L 12363,19307 15208,12670 15014,12587 12169,19224 Z"/>
         <path fill="rgb(230,237,244)" stroke="none" d="M 12325,19290 L 12519,19373 15364,12737 15170,12654 12325,19290 Z"/>
         <path fill="rgb(231,237,244)" stroke="none" d="M 12480,19357 L 12674,19440 15519,12804 15325,12721 12480,19357 Z"/>
         <path fill="rgb(232,238,245)" stroke="none" d="M 12636,19424 L 12830,19507 15675,12870 15481,12787 12636,19424 Z"/>
         <path fill="rgb(232,238,245)" stroke="none" d="M 12792,19490 L 12986,19573 15830,12937 15636,12854 12792,19490 Z"/>
         <path fill="rgb(233,238,245)" stroke="none" d="M 12947,19557 L 13141,19640 15986,13004 15792,12921 12947,19557 Z"/>
         <path fill="rgb(234,239,245)" stroke="none" d="M 13103,19624 L 13297,19707 16141,13070 15948,12987 13103,19624 Z"/>
         <path fill="rgb(235,239,245)" stroke="none" d="M 13258,19690 L 13452,19773 16297,13137 16103,13054 13258,19690 Z"/>
         <path fill="rgb(235,240,245)" stroke="none" d="M 13414,19757 L 13608,19840 16453,13204 16259,13121 13414,19757 Z"/>
         <path fill="rgb(236,240,246)" stroke="none" d="M 13570,19824 L 13763,19907 16608,13270 16414,13187 13570,19824 Z"/>
         <path fill="rgb(237,241,246)" stroke="none" d="M 13725,19890 L 13919,19973 16764,13337 16570,13254 13725,19890 Z"/>
         <path fill="rgb(238,241,246)" stroke="none" d="M 13881,19957 L 14075,20040 16919,13404 16725,13321 13881,19957 Z"/>
        </g>
        <g clip-path="url(#clip_path_3)"/>
        <g clip-path="url(#clip_path_1)">
         <path fill="rgb(0,0,0)" stroke="none" d="M 8234,11725 L 8234,12477 8311,12477 8311,12408 C 8352,12471 8407,12501 8482,12501 8625,12501 8717,12384 8717,12205 8717,12029 8629,11921 8487,11921 8412,11921 8360,11949 8320,12010 L 8320,11725 8234,11725 Z M 8470,12002 C 8566,12002 8628,12085 8628,12214 8628,12336 8564,12420 8470,12420 8379,12420 8320,12338 8320,12211 8320,12084 8379,12002 8470,12002 L 8470,12002 Z"/>
         <path fill="rgb(0,0,0)" stroke="none" d="M 8906,11936 L 8821,11936 8821,12477 8906,12477 8906,11936 Z M 8906,11725 L 8820,11725 8820,11834 8906,11834 8906,11725 Z"/>
         <path fill="rgb(0,0,0)" stroke="none" d="M 9242,11936 L 9154,11936 9154,11788 9068,11788 9068,11936 8995,11936 8995,12007 9068,12007 9068,12415 C 9068,12470 9105,12501 9172,12501 9193,12501 9213,12499 9242,12493 L 9242,12421 C 9231,12424 9218,12426 9201,12426 9164,12426 9154,12415 9154,12377 L 9154,12007 9242,12007 9242,11936 Z"/>
         <path fill="rgb(0,0,0)" stroke="none" d="M 9719,12087 C 9718,11981 9648,11921 9523,11921 9397,11921 9316,11986 9316,12086 9316,12171 9359,12211 9487,12242 L 9567,12261 C 9627,12276 9651,12298 9651,12336 9651,12387 9600,12421 9525,12421 9478,12421 9440,12408 9418,12385 9404,12370 9398,12354 9393,12316 L 9302,12316 C 9306,12441 9377,12501 9518,12501 9654,12501 9740,12434 9740,12330 9740,12249 9695,12205 9588,12179 L 9505,12159 C 9435,12143 9405,12120 9405,12082 9405,12032 9450,12000 9520,12000 9589,12000 9626,12030 9628,12087 L 9719,12087 Z"/>
         <path fill="rgb(0,0,0)" stroke="none" d="M 10354,12477 L 10513,11936 10416,11936 10309,12357 10203,11936 10097,11936 9994,12357 9884,11936 9789,11936 9945,12477 10043,12477 10147,12053 10256,12477 10354,12477 Z"/>
         <path fill="rgb(0,0,0)" stroke="none" d="M 11079,12426 C 11070,12428 11065,12428 11061,12428 11031,12428 11014,12413 11014,12386 L 11014,12069 C 11014,11973 10944,11921 10811,11921 10733,11921 10668,11944 10631,11984 10607,12012 10597,12043 10594,12096 L 10681,12096 C 10688,12030 10727,12000 10808,12000 10885,12000 10928,12029 10928,12081 L 10928,12103 C 10928,12140 10907,12155 10839,12164 10717,12179 10698,12183 10665,12196 10602,12222 10570,12271 10570,12341 10570,12439 10639,12501 10748,12501 10816,12501 10871,12477 10932,12421 10938,12476 10965,12501 11020,12501 11038,12501 11051,12499 11079,12491 L 11079,12426 Z M 10928,12307 C 10928,12335 10920,12353 10894,12377 10860,12409 10817,12426 10767,12426 10700,12426 10660,12394 10660,12339 10660,12282 10698,12253 10790,12240 10881,12227 10900,12223 10928,12210 L 10928,12307 Z"/>
         <path fill="rgb(0,0,0)" stroke="none" d="M 11156,12702 L 11243,12702 11243,12420 C 11288,12476 11339,12501 11409,12501 11548,12501 11640,12388 11640,12216 11640,12035 11551,11921 11408,11921 11335,11921 11276,11954 11236,12018 L 11236,11936 11156,11936 11156,12702 Z M 11394,12002 C 11489,12002 11550,12085 11550,12214 11550,12336 11487,12420 11394,12420 11303,12420 11243,12338 11243,12211 11243,12084 11303,12002 11394,12002 L 11394,12002 Z"/>
         <path fill="rgb(0,0,0)" stroke="none" d="M 12270,12607 L 11651,12607 11651,12658 12270,12658 12270,12607 Z"/>
         <path fill="rgb(0,0,0)" stroke="none" d="M 12531,11746 C 12463,11746 12401,11776 12363,11826 12316,11890 12292,11988 12292,12123 12292,12370 12374,12501 12531,12501 12686,12501 12770,12370 12770,12130 12770,11987 12748,11892 12699,11826 12661,11775 12600,11746 12531,11746 L 12531,11746 Z M 12531,11826 C 12629,11826 12677,11925 12677,12121 12677,12328 12630,12426 12529,12426 12433,12426 12384,12324 12384,12124 12384,11924 12433,11826 12531,11826 L 12531,11826 Z"/>
         <path fill="rgb(63,110,158)" stroke="none" d="M 7403,16803 L 7403,17555 7480,17555 7480,17485 C 7521,17548 7576,17578 7651,17578 7794,17578 7886,17462 7886,17282 7886,17107 7797,16999 7655,16999 7581,16999 7529,17027 7488,17088 L 7488,16803 7403,16803 Z M 7639,17080 C 7735,17080 7796,17163 7796,17292 7796,17414 7733,17498 7639,17498 7548,17498 7488,17416 7488,17289 7488,17162 7548,17080 7639,17080 L 7639,17080 Z"/>
         <path fill="rgb(63,110,158)" stroke="none" d="M 8075,17014 L 7990,17014 7990,17555 8075,17555 8075,17014 Z M 8075,16803 L 7989,16803 7989,16912 8075,16912 8075,16803 Z"/>
         <path fill="rgb(63,110,158)" stroke="none" d="M 8411,17014 L 8323,17014 8323,16866 8237,16866 8237,17014 8164,17014 8164,17084 8237,17084 8237,17493 C 8237,17547 8274,17578 8341,17578 8362,17578 8382,17576 8411,17571 L 8411,17499 C 8400,17502 8387,17503 8370,17503 8333,17503 8323,17493 8323,17454 L 8323,17084 8411,17084 8411,17014 Z"/>
         <path fill="rgb(63,110,158)" stroke="none" d="M 8888,17165 C 8886,17059 8817,16999 8692,16999 8566,16999 8484,17064 8484,17164 8484,17249 8527,17289 8655,17320 L 8736,17339 C 8796,17354 8820,17375 8820,17414 8820,17465 8769,17499 8694,17499 8647,17499 8608,17485 8587,17463 8573,17448 8567,17432 8562,17394 L 8471,17394 C 8475,17518 8545,17578 8686,17578 8822,17578 8909,17512 8909,17407 8909,17327 8864,17282 8757,17257 L 8674,17237 C 8604,17221 8574,17198 8574,17160 8574,17110 8619,17078 8689,17078 8758,17078 8795,17108 8797,17165 L 8888,17165 Z"/>
         <path fill="rgb(63,110,158)" stroke="none" d="M 9523,17555 L 9682,17014 9585,17014 9478,17435 9372,17014 9266,17014 9163,17435 9053,17014 8958,17014 9114,17555 9212,17555 9316,17131 9425,17555 9523,17555 Z"/>
         <path fill="rgb(63,110,158)" stroke="none" d="M 10248,17504 C 10239,17506 10234,17506 10229,17506 10199,17506 10183,17491 10183,17464 L 10183,17146 C 10183,17051 10113,16999 9979,16999 9901,16999 9837,17021 9800,17062 9776,17090 9765,17121 9763,17174 L 9850,17174 C 9857,17108 9896,17078 9977,17078 10054,17078 10097,17107 10097,17159 L 10097,17181 C 10097,17218 10075,17233 10008,17241 9886,17257 9867,17261 9834,17274 9771,17300 9739,17348 9739,17419 9739,17516 9807,17578 9917,17578 9985,17578 10040,17555 10101,17499 10106,17554 10133,17578 10189,17578 10207,17578 10220,17576 10248,17569 L 10248,17504 Z M 10097,17385 C 10097,17413 10089,17431 10063,17454 10028,17486 9986,17503 9935,17503 9869,17503 9829,17471 9829,17417 9829,17360 9867,17331 9959,17317 10050,17305 10069,17301 10097,17288 L 10097,17385 Z"/>
         <path fill="rgb(63,110,158)" stroke="none" d="M 10325,17779 L 10412,17779 10412,17498 C 10457,17554 10508,17578 10578,17578 10717,17578 10809,17466 10809,17294 10809,17113 10720,16999 10577,16999 10503,16999 10445,17032 10405,17096 L 10405,17014 10325,17014 10325,17779 Z M 10563,17080 C 10657,17080 10719,17163 10719,17292 10719,17414 10656,17498 10563,17498 10471,17498 10412,17416 10412,17289 10412,17162 10471,17080 10563,17080 L 10563,17080 Z"/>
         <path fill="rgb(63,110,158)" stroke="none" d="M 11439,17684 L 10820,17684 10820,17736 11439,17736 11439,17684 Z"/>
         <path fill="rgb(63,110,158)" stroke="none" d="M 11710,17555 L 11918,17014 11821,17014 11668,17452 11523,17014 11426,17014 11616,17555 11710,17555 Z"/>
         <path fill="rgb(63,110,158)" stroke="none" d="M 12199,17034 L 12199,17555 12290,17555 12290,16824 12230,16824 C 12198,16936 12177,16952 12037,16969 L 12037,17034 12199,17034 Z"/>
         <path fill="rgb(63,110,158)" stroke="none" d="M 13101,17684 L 12482,17684 12482,17736 13101,17736 13101,17684 Z"/>
         <path fill="rgb(63,110,158)" stroke="none" d="M 13362,16824 C 13294,16824 13232,16853 13194,16904 13147,16968 13123,17066 13123,17201 13123,17448 13205,17578 13362,17578 13517,17578 13601,17448 13601,17207 13601,17065 13579,16970 13530,16904 13492,16852 13431,16824 13362,16824 L 13362,16824 Z M 13362,16904 C 13460,16904 13509,17003 13509,17199 13509,17406 13461,17503 13360,17503 13264,17503 13216,17402 13216,17202 13216,17002 13264,16904 13362,16904 L 13362,16904 Z"/>
         <path fill="none" stroke="rgb(0,0,0)" stroke-width="430" stroke-linejoin="miter" d="M 4484,14581 L 5343,14581"/>
         <path fill="rgb(0,0,0)" stroke="none" d="M 5923,14701 L 5987,14889 6076,14889 5856,14263 5753,14263 5530,14889 5615,14889 5681,14701 5923,14701 Z M 5900,14634 L 5701,14634 5804,14348 5900,14634 Z"/>
         <path fill="rgb(0,0,0)" stroke="none" d="M 6585,14997 L 6069,14997 6069,15040 6585,15040 6585,14997 Z"/>
         <path fill="rgb(0,0,0)" stroke="none" d="M 6695,14439 L 6624,14439 6624,14889 6695,14889 6695,14439 Z M 6695,14263 L 6623,14263 6623,14353 6695,14353 6695,14263 Z"/>
         <path fill="rgb(0,0,0)" stroke="none" d="M 6972,14263 L 6812,14263 6812,15071 6972,15071 6972,15009 6883,15009 6883,14324 6972,14324 6972,14263 Z"/>
         <path fill="rgb(0,0,0)" stroke="none" d="M 7186,14610 L 7195,14610 7227,14609 C 7310,14609 7353,14647 7353,14720 7353,14796 7306,14841 7227,14841 7145,14841 7104,14800 7099,14712 L 7023,14712 C 7027,14761 7036,14793 7050,14820 7081,14879 7141,14909 7224,14909 7350,14909 7431,14834 7431,14719 7431,14641 7401,14598 7328,14574 7384,14551 7412,14508 7412,14447 7412,14343 7343,14280 7227,14280 7104,14280 7039,14347 7036,14476 L 7112,14476 C 7113,14440 7116,14419 7126,14400 7143,14366 7180,14346 7228,14346 7295,14346 7335,14385 7335,14450 7335,14493 7320,14518 7286,14533 7266,14541 7239,14545 7186,14545 L 7186,14610 Z"/>
         <path fill="rgb(0,0,0)" stroke="none" d="M 7658,14800 L 7568,14800 7568,14889 7658,14889 7658,14800 Z M 7658,14439 L 7568,14439 7568,14528 7658,14528 7658,14439 Z"/>
         <path fill="rgb(0,0,0)" stroke="none" d="M 7949,14280 C 7892,14280 7840,14305 7809,14347 7769,14400 7749,14482 7749,14594 7749,14800 7818,14909 7949,14909 8078,14909 8148,14800 8148,14599 8148,14481 8129,14402 8089,14347 8057,14304 8007,14280 7949,14280 L 7949,14280 Z M 7949,14347 C 8030,14347 8071,14429 8071,14593 8071,14765 8031,14846 7947,14846 7867,14846 7827,14762 7827,14595 7827,14428 7867,14347 7949,14347 L 7949,14347 Z"/>
         <path fill="rgb(0,0,0)" stroke="none" d="M 8210,15071 L 8370,15071 8370,14263 8210,14263 8210,14324 8299,14324 8299,15009 8210,15009 8210,15071 Z"/>
         <path fill="none" stroke="rgb(0,0,0)" stroke-width="430" stroke-linejoin="miter" d="M 16515,14581 L 15656,14581"/>
         <path fill="rgb(0,0,0)" stroke="none" d="M 12615,14643 L 12851,14263 12755,14263 12577,14568 12393,14263 12294,14263 12535,14643 12535,14889 12615,14889 12615,14643 Z"/>
         <path fill="rgb(0,0,0)" stroke="none" d="M 13352,14997 L 12837,14997 12837,15040 13352,15040 13352,14997 Z"/>
         <path fill="rgb(0,0,0)" stroke="none" d="M 13568,14426 C 13441,14426 13365,14516 13365,14667 13365,14819 13440,14909 13568,14909 13694,14909 13772,14819 13772,14671 13772,14515 13697,14426 13568,14426 L 13568,14426 Z M 13568,14492 C 13649,14492 13697,14558 13697,14670 13697,14776 13647,14842 13568,14842 13488,14842 13439,14777 13439,14667 13439,14559 13488,14492 13568,14492 L 13568,14492 Z"/>
         <path fill="rgb(0,0,0)" stroke="none" d="M 14026,14263 L 13867,14263 13867,15071 14026,15071 14026,15009 13938,15009 13938,14324 14026,14324 14026,14263 Z"/>
         <path fill="rgb(0,0,0)" stroke="none" d="M 14240,14610 L 14250,14610 14281,14609 C 14365,14609 14408,14647 14408,14720 14408,14796 14360,14841 14281,14841 14199,14841 14159,14800 14153,14712 L 14078,14712 C 14081,14761 14090,14793 14105,14820 14136,14879 14196,14909 14279,14909 14404,14909 14485,14834 14485,14719 14485,14641 14455,14598 14382,14574 14439,14551 14467,14508 14467,14447 14467,14343 14398,14280 14281,14280 14159,14280 14093,14347 14090,14476 L 14166,14476 C 14167,14440 14170,14419 14180,14400 14197,14366 14235,14346 14282,14346 14349,14346 14390,14385 14390,14450 14390,14493 14374,14518 14341,14533 14320,14541 14293,14545 14240,14545 L 14240,14610 Z"/>
         <path fill="rgb(0,0,0)" stroke="none" d="M 14712,14800 L 14623,14800 14623,14889 14712,14889 14712,14800 Z M 14712,14439 L 14623,14439 14623,14528 14712,14528 14712,14439 Z"/>
         <path fill="rgb(0,0,0)" stroke="none" d="M 15003,14280 C 14947,14280 14895,14305 14863,14347 14824,14400 14804,14482 14804,14594 14804,14800 14873,14909 15003,14909 15132,14909 15202,14800 15202,14599 15202,14481 15184,14402 15143,14347 15111,14304 15061,14280 15003,14280 L 15003,14280 Z M 15003,14347 C 15085,14347 15125,14429 15125,14593 15125,14765 15086,14846 15001,14846 14922,14846 14881,14762 14881,14595 14881,14428 14922,14347 15003,14347 L 15003,14347 Z"/>
         <path fill="rgb(0,0,0)" stroke="none" d="M 15265,15071 L 15424,15071 15424,14263 15265,14263 15265,14324 15353,14324 15353,15009 15265,15009 15265,15071 Z"/>
         <path fill="none" stroke="rgb(63,110,158)" stroke-width="86" stroke-linejoin="miter" d="M 5945,12862 L 15054,12862"/>
         <path fill="none" stroke="rgb(63,110,158)" stroke-width="86" stroke-linejoin="miter" d="M 15656,13464 C 15656,13454 15656,13444 15656,13435 15648,13111 15378,12854 15054,12862"/>
         <path fill="none" stroke="rgb(63,110,158)" stroke-width="86" stroke-linejoin="miter" d="M 15656,13464 L 15656,15697"/>
         <path fill="none" stroke="rgb(63,110,158)" stroke-width="86" stroke-linejoin="miter" d="M 15054,16299 C 15064,16299 15073,16299 15083,16299 15407,16291 15663,16022 15656,15697"/>
         <path fill="none" stroke="rgb(63,110,158)" stroke-width="86" stroke-linejoin="miter" d="M 15054,16299 L 5945,16299"/>
         <path fill="none" stroke="rgb(63,110,158)" stroke-width="86" stroke-linejoin="miter" d="M 5343,15697 C 5343,15707 5343,15717 5343,15726 5351,16050 5620,16307 5945,16299"/>
         <path fill="none" stroke="rgb(63,110,158)" stroke-width="86" stroke-linejoin="miter" d="M 5343,15697 L 5343,13464"/>
         <path fill="none" stroke="rgb(63,110,158)" stroke-width="86" stroke-linejoin="miter" d="M 5945,12862 C 5935,12862 5926,12862 5916,12862 5592,12870 5335,13139 5343,13464"/>
        </g>
       </g>
      </g>
     </g>
    </g>
   </g>
  </g>
 </g>
</svg>