<?xml version="1.0" encoding="UTF-8"?>
<!DOCTYPE svg PUBLIC "-//W3C//DTD SVG 1.1//EN" "http://www.w3.org/Graphics/SVG/1.1/DTD/svg11.dtd">
<svg version="1.2" width="128.99mm" height="83.99mm" viewBox="4100 10900 12899 8399" preserveAspectRatio="xMidYMid" fill-rule="evenodd" stroke-width="28.222" stroke-linejoin="round" xmlns="http://www.w3.org/2000/svg" xmlns:ooo="http://xml.openoffice.org/svg/export" xmlns:xlink="http://www.w3.org/1999/xlink" xmlns:presentation="http://sun.com/xmlns/staroffice/presentation" xmlns:smil="http://www.w3.org/2001/SMIL20/" xmlns:anim="urn:oasis:names:tc:opendocument:xmlns:animation:1.0" xml:space="preserve">
 <defs class="ClipPathGroup">
  <clipPath id="presentation_clip_path" clipPathUnits="userSpaceOnUse">
   <rect x="4100" y="10900" width="12899" height="8399"/>
  </clipPath>
  <clipPath id="presentation_clip_path_shrink" clipPathUnits="userSpaceOnUse">
   <rect x="4112" y="10908" width="12874" height="8383"/>
  </clipPath>
 </defs>
 <defs class="TextShapeIndex">
  <g ooo:slide="id1" ooo:id-list="id3"/>
 </defs>
 <defs class="EmbeddedBulletChars">
  <g id="bullet-char-template-57356" transform="scale(0.00048828125,-0.00048828125)">
   <path d="M 580,1141 L 1163,571 580,0 -4,571 580,1141 Z"/>
  </g>
  <g id="bullet-char-template-57354" transform="scale(0.00048828125,-0.00048828125)">
   <path d="M 8,1128 L 1137,1128 1137,0 8,0 8,1128 Z"/>
  </g>
  <g id="bullet-char-template-10146" transform="scale(0.00048828125,-0.00048828125)">
   <path d="M 174,0 L 602,739 174,1481 1456,739 174,0 Z M 1358,739 L 309,1346 659,739 1358,739 Z"/>
  </g>
  <g id="bullet-char-template-10132" transform="scale(0.00048828125,-0.00048828125)">
   <path d="M 2015,739 L 1276,0 717,0 1260,543 174,543 174,936 1260,936 717,1481 1274,1481 2015,739 Z"/>
  </g>
  <g id="bullet-char-template-10007" transform="scale(0.00048828125,-0.00048828125)">
   <path d="M 0,-2 C -7,14 -16,27 -25,37 L 356,567 C 262,823 215,952 215,954 215,979 228,992 255,992 264,992 276,990 289,987 310,991 331,999 354,1012 L 381,999 492,748 772,1049 836,1024 860,1049 C 881,1039 901,1025 922,1006 886,937 835,863 770,784 769,783 710,716 594,584 L 774,223 C 774,196 753,168 711,139 L 727,119 C 717,90 699,76 672,76 641,76 570,178 457,381 L 164,-76 C 142,-110 111,-127 72,-127 30,-127 9,-110 8,-76 1,-67 -2,-52 -2,-32 -2,-23 -1,-13 0,-2 Z"/>
  </g>
  <g id="bullet-char-template-10004" transform="scale(0.00048828125,-0.00048828125)">
   <path d="M 285,-33 C 182,-33 111,30 74,156 52,228 41,333 41,471 41,549 55,616 82,672 116,743 169,778 240,778 293,778 328,747 346,684 L 369,508 C 377,444 397,411 428,410 L 1163,1116 C 1174,1127 1196,1133 1229,1133 1271,1133 1292,1118 1292,1087 L 1292,965 C 1292,929 1282,901 1262,881 L 442,47 C 390,-6 338,-33 285,-33 Z"/>
  </g>
  <g id="bullet-char-template-9679" transform="scale(0.00048828125,-0.00048828125)">
   <path d="M 813,0 C 632,0 489,54 383,161 276,268 223,411 223,592 223,773 276,916 383,1023 489,1130 632,1184 813,1184 992,1184 1136,1130 1245,1023 1353,916 1407,772 1407,592 1407,412 1353,268 1245,161 1136,54 992,0 813,0 Z"/>
  </g>
  <g id="bullet-char-template-8226" transform="scale(0.00048828125,-0.00048828125)">
   <path d="M 346,457 C 273,457 209,483 155,535 101,586 74,649 74,723 74,796 101,859 155,911 209,963 273,989 346,989 419,989 480,963 531,910 582,859 608,796 608,723 608,648 583,586 532,535 482,483 420,457 346,457 Z"/>
  </g>
  <g id="bullet-char-template-8211" transform="scale(0.00048828125,-0.00048828125)">
   <path d="M -4,459 L 1135,459 1135,606 -4,606 -4,459 Z"/>
  </g>
  <g id="bullet-char-template-61548" transform="scale(0.00048828125,-0.00048828125)">
   <path d="M 173,740 C 173,903 231,1043 346,1159 462,1274 601,1332 765,1332 928,1332 1067,1274 1183,1159 1299,1043 1357,903 1357,740 1357,577 1299,437 1183,322 1067,206 928,148 765,148 601,148 462,206 346,322 231,437 173,577 173,740 Z"/>
  </g>
 </defs>
 <defs class="TextEmbeddedBitmaps"/>
 <g class="SlideGroup">
  <g>
   <g id="container-id1">
    <g id="id1" class="Slide" clip-path="url(#presentation_clip_path)">
     <g class="Page">
      <g class="Graphic">
       <g id="id3">
        <rect class="BoundingBox" stroke="none" fill="none" x="4100" y="10900" width="12900" height="8400"/>
        <defs>
         <clipPath id="clip_path_1" clipPathUnits="userSpaceOnUse">
          <path d="M 4100,10900 L 16999,10900 16999,19299 4100,19299 4100,10900 Z"/>
         </clipPath>
        </defs>
        <g clip-path="url(#clip_path_1)"/>
        <defs>
         <clipPath id="clip_path_2" clipPathUnits="userSpaceOnUse">
          <path d="M 4100,10900 L 16999,10900 16999,19299 4100,19299 4100,10900 Z"/>
         </clipPath>
        </defs>
        <g clip-path="url(#clip_path_2)">
         <path fill="rgb(255,255,255)" stroke="none" d="M 1907,9705 L 19095,9705 19095,20962 1907,20962 1907,9705 Z"/>
        </g>
        <g clip-path="url(#clip_path_1)">
         <path fill="rgb(0,0,0)" stroke="none" d="M 6376,12712 L 15485,12712 15743,12798 15915,12884 16001,13056 16087,13314 16087,17267 16001,17524 15915,17696 15743,17782 15485,17868 6376,17868 6118,17782 5946,17696 5860,17524 5774,17267 5774,13314 5860,13056 5946,12884 6118,12798 6376,12712 Z"/>
        </g>
        <defs>
         <clipPath id="clip_path_3" clipPathUnits="userSpaceOnUse">
          <path d="M 5946,12283 L 15056,12283 15313,12369 15485,12454 15571,12626 15657,12884 15657,16837 15571,17095 15485,17267 15313,17353 15056,17438 5946,17438 5688,17353 5516,17267 5430,17095 5344,16837 5344,12884 5430,12626 5516,12454 5688,12369 5946,12283 Z"/>
         </clipPath>
        </defs>
        <g clip-path="url(#clip_path_3)"/>
        <defs>
         <clipPath id="clip_path_4" clipPathUnits="userSpaceOnUse">
          <path d="M 5946,12283 L 15056,12283 15313,12369 15485,12454 15571,12626 15657,12884 15657,16837 15571,17095 15485,17267 15313,17353 15056,17438 5946,17438 5688,17353 5516,17267 5430,17095 5344,16837 5344,12884 5430,12626 5516,12454 5688,12369 5946,12283 Z"/>
         </clipPath>
        </defs>
        <g clip-path="url(#clip_path_4)">
         <path fill="rgb(189,212,236)" stroke="none" d="M 3113,16163 L 3133,16175 7893,7847 7873,7835 3113,16163 Z"/>
         <path fill="rgb(189,212,236)" stroke="none" d="M 3113,16163 L 3289,16264 8049,7936 7873,7835 3113,16163 Z"/>
         <path fill="rgb(190,212,236)" stroke="none" d="M 3269,16253 L 3446,16354 8205,8025 8029,7924 3269,16253 Z"/>
         <path fill="rgb(190,213,236)" stroke="none" d="M 3425,16342 L 3602,16443 8362,8114 8185,8013 3425,16342 Z"/>
         <path fill="rgb(191,213,237)" stroke="none" d="M 3581,16431 L 3758,16532 8518,8203 8341,8103 3581,16431 Z"/>
         <path fill="rgb(192,214,237)" stroke="none" d="M 3737,16520 L 3914,16621 8674,8293 8497,8192 3737,16520 Z"/>
         <path fill="rgb(193,214,237)" stroke="none" d="M 3894,16610 L 4070,16711 8830,8382 8653,8281 3894,16610 Z"/>
         <path fill="rgb(193,215,237)" stroke="none" d="M 4050,16699 L 4226,16800 8986,8471 8810,8370 4050,16699 Z"/>
         <path fill="rgb(194,215,237)" stroke="none" d="M 4206,16788 L 4383,16889 9143,8560 8966,8459 4206,16788 Z"/>
         <path fill="rgb(195,216,237)" stroke="none" d="M 4362,16877 L 4539,16978 9299,8650 9122,8549 4362,16877 Z"/>
         <path fill="rgb(196,216,237)" stroke="none" d="M 4518,16967 L 4695,17068 9455,8739 9278,8638 4518,16967 Z"/>
         <path fill="rgb(197,217,238)" stroke="none" d="M 4675,17056 L 4851,17157 9611,8828 9434,8727 4675,17056 Z"/>
         <path fill="rgb(197,217,238)" stroke="none" d="M 4831,17145 L 5007,17246 9767,8917 9591,8816 4831,17145 Z"/>
         <path fill="rgb(198,218,238)" stroke="none" d="M 4987,17234 L 5164,17335 9923,9007 9747,8906 4987,17234 Z"/>
         <path fill="rgb(199,218,238)" stroke="none" d="M 5143,17324 L 5320,17425 10080,9096 9903,8995 5143,17324 Z"/>
         <path fill="rgb(200,218,238)" stroke="none" d="M 5299,17413 L 5354,17444 10114,9116 10059,9084 5299,17413 Z"/>
         <path fill="rgb(200,219,238)" stroke="none" d="M 5334,17433 L 5476,17514 10236,9185 10094,9104 5334,17433 Z"/>
         <path fill="rgb(201,219,238)" stroke="none" d="M 5455,17502 L 5632,17603 10392,9274 10215,9173 5455,17502 Z"/>
         <path fill="rgb(201,219,239)" stroke="none" d="M 5612,17591 L 5788,17692 10548,9364 10371,9263 5612,17591 Z"/>
         <path fill="rgb(202,220,239)" stroke="none" d="M 5768,17680 L 5944,17781 10704,9453 10528,9352 5768,17680 Z"/>
         <path fill="rgb(203,220,239)" stroke="none" d="M 5924,17770 L 6101,17871 10861,9542 10684,9441 5924,17770 Z"/>
         <path fill="rgb(204,221,239)" stroke="none" d="M 6080,17859 L 6257,17960 11017,9631 10840,9530 6080,17859 Z"/>
         <path fill="rgb(204,221,239)" stroke="none" d="M 6236,17948 L 6413,18049 11173,9720 10996,9620 6236,17948 Z"/>
         <path fill="rgb(205,222,239)" stroke="none" d="M 6393,18037 L 6569,18138 11329,9810 11152,9709 6393,18037 Z"/>
         <path fill="rgb(206,222,239)" stroke="none" d="M 6549,18127 L 6725,18228 11485,9899 11309,9798 6549,18127 Z"/>
         <path fill="rgb(207,223,240)" stroke="none" d="M 6705,18216 L 6882,18317 11641,9988 11465,9887 6705,18216 Z"/>
         <path fill="rgb(207,223,240)" stroke="none" d="M 6861,18305 L 7038,18406 11798,10077 11621,9976 6861,18305 Z"/>
         <path fill="rgb(208,224,240)" stroke="none" d="M 7017,18394 L 7194,18495 11954,10167 11777,10066 7017,18394 Z"/>
         <path fill="rgb(209,224,240)" stroke="none" d="M 7173,18484 L 7350,18585 12110,10256 11933,10155 7173,18484 Z"/>
         <path fill="rgb(210,225,240)" stroke="none" d="M 7330,18573 L 7506,18674 12266,10345 12089,10244 7330,18573 Z"/>
         <path fill="rgb(211,225,240)" stroke="none" d="M 7486,18662 L 7662,18763 12422,10434 12246,10333 7486,18662 Z"/>
         <path fill="rgb(211,225,241)" stroke="none" d="M 7642,18751 L 7819,18852 12579,10524 12402,10423 7642,18751 Z"/>
         <path fill="rgb(212,226,241)" stroke="none" d="M 7798,18841 L 7975,18942 12735,10613 12558,10512 7798,18841 Z"/>
         <path fill="rgb(213,226,241)" stroke="none" d="M 7954,18930 L 8131,19031 12891,10702 12714,10601 7954,18930 Z"/>
         <path fill="rgb(214,227,241)" stroke="none" d="M 8111,19019 L 8287,19120 13047,10791 12870,10690 8111,19019 Z"/>
         <path fill="rgb(214,227,241)" stroke="none" d="M 8267,19108 L 8443,19209 13203,10881 13027,10780 8267,19108 Z"/>
         <path fill="rgb(215,228,241)" stroke="none" d="M 8423,19197 L 8600,19298 13359,10970 13183,10869 8423,19197 Z"/>
         <path fill="rgb(216,228,241)" stroke="none" d="M 8579,19287 L 8756,19388 13516,11059 13339,10958 8579,19287 Z"/>
         <path fill="rgb(217,229,242)" stroke="none" d="M 8735,19376 L 8912,19477 13672,11148 13495,11047 8735,19376 Z"/>
         <path fill="rgb(218,229,242)" stroke="none" d="M 8891,19465 L 9068,19566 13828,11237 13651,11137 8891,19465 Z"/>
         <path fill="rgb(218,230,242)" stroke="none" d="M 9048,19554 L 9224,19655 13984,11327 13807,11226 9048,19554 Z"/>
         <path fill="rgb(219,230,242)" stroke="none" d="M 9204,19644 L 9381,19745 14140,11416 13964,11315 9204,19644 Z"/>
         <path fill="rgb(220,231,242)" stroke="none" d="M 9360,19733 L 9537,19834 14297,11505 14120,11404 9360,19733 Z"/>
         <path fill="rgb(221,231,242)" stroke="none" d="M 9516,19822 L 9693,19923 14453,11594 14276,11493 9516,19822 Z"/>
         <path fill="rgb(221,232,243)" stroke="none" d="M 9672,19911 L 9849,20012 14609,11684 14432,11583 9672,19911 Z"/>
         <path fill="rgb(222,232,243)" stroke="none" d="M 9829,20001 L 10005,20102 14765,11773 14588,11672 9829,20001 Z"/>
         <path fill="rgb(223,232,243)" stroke="none" d="M 9985,20090 L 10161,20191 14921,11862 14745,11761 9985,20090 Z"/>
         <path fill="rgb(224,233,243)" stroke="none" d="M 10141,20179 L 10318,20280 15077,11951 14901,11850 10141,20179 Z"/>
         <path fill="rgb(225,233,243)" stroke="none" d="M 10297,20268 L 10474,20369 15234,12041 15057,11940 10297,20268 Z"/>
         <path fill="rgb(225,234,243)" stroke="none" d="M 10453,20358 L 10630,20459 15390,12130 15213,12029 10453,20358 Z"/>
         <path fill="rgb(226,234,244)" stroke="none" d="M 10609,20447 L 10786,20548 15546,12219 15369,12118 10609,20447 Z"/>
         <path fill="rgb(227,235,244)" stroke="none" d="M 10766,20536 L 10908,20617 15667,12288 15525,12207 10766,20536 Z"/>
         <path fill="rgb(228,235,244)" stroke="none" d="M 10887,20605 L 10942,20637 15702,12308 15647,12277 10887,20605 Z"/>
         <path fill="rgb(228,235,244)" stroke="none" d="M 10922,20625 L 11099,20726 15858,12398 15682,12297 10922,20625 Z"/>
         <path fill="rgb(228,236,244)" stroke="none" d="M 11078,20714 L 11255,20815 16015,12487 15838,12386 11078,20714 Z"/>
         <path fill="rgb(229,236,244)" stroke="none" d="M 11234,20804 L 11411,20905 16171,12576 15994,12475 11234,20804 Z"/>
         <path fill="rgb(230,237,244)" stroke="none" d="M 11390,20893 L 11567,20994 16327,12665 16150,12564 11390,20893 Z"/>
         <path fill="rgb(231,237,244)" stroke="none" d="M 11547,20982 L 11723,21083 16483,12754 16306,12654 11547,20982 Z"/>
         <path fill="rgb(232,238,245)" stroke="none" d="M 11703,21071 L 11879,21172 16639,12844 16463,12743 11703,21071 Z"/>
         <path fill="rgb(232,238,245)" stroke="none" d="M 11859,21161 L 12036,21262 16795,12933 16619,12832 11859,21161 Z"/>
         <path fill="rgb(233,239,245)" stroke="none" d="M 12015,21250 L 12192,21351 16952,13022 16775,12921 12015,21250 Z"/>
         <path fill="rgb(234,239,245)" stroke="none" d="M 12171,21339 L 12348,21440 17108,13111 16931,13010 12171,21339 Z"/>
         <path fill="rgb(235,239,245)" stroke="none" d="M 12327,21428 L 12504,21529 17264,13201 17087,13100 12327,21428 Z"/>
         <path fill="rgb(235,240,245)" stroke="none" d="M 12484,21518 L 12660,21619 17420,13290 17243,13189 12484,21518 Z"/>
         <path fill="rgb(236,240,246)" stroke="none" d="M 12640,21607 L 12817,21708 17576,13379 17400,13278 12640,21607 Z"/>
         <path fill="rgb(237,241,246)" stroke="none" d="M 12796,21696 L 12973,21797 17733,13468 17556,13367 12796,21696 Z"/>
         <path fill="rgb(238,241,246)" stroke="none" d="M 12952,21785 L 13129,21886 17889,13558 17712,13457 12952,21785 Z"/>
         <path fill="rgb(239,242,246)" stroke="none" d="M 13108,21875 L 13129,21886 17889,13558 17868,13546 13108,21875 Z"/>
        </g>
        <g clip-path="url(#clip_path_3)"/>
        <g clip-path="url(#clip_path_1)">
         <path fill="rgb(0,0,0)" stroke="none" d="M 7805,11538 C 7801,11486 7790,11452 7769,11422 7732,11371 7666,11341 7591,11341 7446,11341 7351,11457 7351,11636 7351,11811 7444,11921 7590,11921 7719,11921 7801,11844 7811,11712 L 7725,11712 C 7710,11798 7666,11842 7592,11842 7497,11842 7441,11764 7441,11636 7441,11501 7496,11421 7590,11421 7663,11421 7708,11463 7718,11538 L 7805,11538 Z"/>
         <path fill="rgb(0,0,0)" stroke="none" d="M 8115,11341 C 7964,11341 7872,11450 7872,11631 7872,11813 7963,11921 8116,11921 8268,11921 8361,11813 8361,11635 8361,11449 8271,11341 8115,11341 L 8115,11341 Z M 8116,11421 C 8213,11421 8271,11500 8271,11634 8271,11761 8211,11842 8116,11842 8020,11842 7962,11762 7962,11631 7962,11501 8020,11421 8116,11421 L 8116,11421 Z"/>
         <path fill="rgb(0,0,0)" stroke="none" d="M 8480,11357 L 8480,11897 8567,11897 8567,11599 C 8567,11489 8625,11417 8713,11417 8782,11417 8825,11458 8825,11523 L 8825,11897 8911,11897 8911,11489 C 8911,11399 8843,11341 8739,11341 8659,11341 8607,11372 8560,11448 L 8560,11357 8480,11357 Z"/>
         <path fill="rgb(0,0,0)" stroke="none" d="M 9054,11357 L 9054,11976 C 9054,12030 9036,12047 8984,12047 8981,12047 8981,12047 8963,12046 L 8963,12119 C 8973,12121 8979,12122 8992,12122 9089,12122 9140,12083 9140,12010 L 9140,11357 9054,11357 Z M 9140,11146 L 9054,11146 9054,11254 9140,11254 9140,11146 Z"/>
         <path fill="rgb(0,0,0)" stroke="none" d="M 9708,11897 L 9708,11357 9622,11357 9622,11663 C 9622,11774 9564,11846 9475,11846 9407,11846 9363,11804 9363,11739 L 9363,11357 9277,11357 9277,11774 C 9277,11863 9345,11921 9450,11921 9529,11921 9580,11893 9631,11822 L 9631,11897 9708,11897 Z"/>
         <path fill="rgb(0,0,0)" stroke="none" d="M 9856,11357 L 9856,11897 9943,11897 9943,11599 C 9943,11489 10001,11417 10089,11417 10157,11417 10201,11458 10201,11523 L 10201,11897 10286,11897 10286,11489 C 10286,11399 10219,11341 10115,11341 10034,11341 9983,11372 9936,11448 L 9936,11357 9856,11357 Z"/>
         <path fill="rgb(0,0,0)" stroke="none" d="M 10843,11538 C 10839,11486 10828,11452 10807,11422 10770,11371 10705,11341 10630,11341 10484,11341 10389,11457 10389,11636 10389,11811 10482,11921 10629,11921 10758,11921 10839,11844 10850,11712 L 10763,11712 C 10748,11798 10704,11842 10631,11842 10536,11842 10479,11764 10479,11636 10479,11501 10535,11421 10629,11421 10701,11421 10746,11463 10757,11538 L 10843,11538 Z"/>
         <path fill="rgb(0,0,0)" stroke="none" d="M 11135,11357 L 11046,11357 11046,11209 10961,11209 10961,11357 10888,11357 10888,11427 10961,11427 10961,11835 C 10961,11890 10998,11921 11065,11921 11086,11921 11106,11919 11135,11914 L 11135,11842 C 11123,11845 11110,11846 11094,11846 11057,11846 11046,11835 11046,11797 L 11046,11427 11135,11427 11135,11357 Z"/>
         <path fill="rgb(0,0,0)" stroke="none" d="M 11314,11357 L 11229,11357 11229,11897 11314,11897 11314,11357 Z M 11314,11146 L 11228,11146 11228,11254 11314,11254 11314,11146 Z"/>
         <path fill="rgb(0,0,0)" stroke="none" d="M 11669,11341 C 11518,11341 11426,11450 11426,11631 11426,11813 11517,11921 11670,11921 11822,11921 11915,11813 11915,11635 11915,11449 11825,11341 11669,11341 L 11669,11341 Z M 11670,11421 C 11767,11421 11825,11500 11825,11634 11825,11761 11765,11842 11670,11842 11574,11842 11516,11762 11516,11631 11516,11501 11574,11421 11670,11421 L 11670,11421 Z"/>
         <path fill="rgb(0,0,0)" stroke="none" d="M 12034,11357 L 12034,11897 12121,11897 12121,11599 C 12121,11489 12179,11417 12267,11417 12336,11417 12379,11458 12379,11523 L 12379,11897 12464,11897 12464,11489 C 12464,11399 12397,11341 12293,11341 12213,11341 12161,11372 12114,11448 L 12114,11357 12034,11357 Z"/>
         <path fill="rgb(0,0,0)" stroke="none" d="M 13132,12027 L 12513,12027 12513,12079 13132,12079 13132,12027 Z"/>
         <path fill="rgb(0,0,0)" stroke="none" d="M 13392,11166 C 13324,11166 13262,11196 13224,11247 13177,11311 13153,11409 13153,11544 13153,11790 13236,11921 13392,11921 13547,11921 13632,11790 13632,11550 13632,11408 13609,11313 13561,11247 13523,11195 13462,11166 13392,11166 L 13392,11166 Z M 13392,11247 C 13491,11247 13539,11346 13539,11541 13539,11749 13492,11846 13390,11846 13294,11846 13246,11745 13246,11545 13246,11345 13294,11247 13392,11247 L 13392,11247 Z"/>
         <path fill="rgb(63,110,158)" stroke="none" d="M 6974,18335 C 6969,18283 6958,18249 6937,18219 6901,18168 6835,18138 6760,18138 6615,18138 6520,18254 6520,18433 6520,18608 6613,18718 6759,18718 6888,18718 6969,18641 6980,18509 L 6893,18509 C 6879,18596 6834,18639 6761,18639 6666,18639 6610,18561 6610,18433 6610,18298 6665,18218 6759,18218 6831,18218 6877,18260 6887,18335 L 6974,18335 Z"/>
         <path fill="rgb(63,110,158)" stroke="none" d="M 7284,18138 C 7132,18138 7041,18247 7041,18428 7041,18610 7131,18718 7285,18718 7437,18718 7530,18610 7530,18432 7530,18246 7440,18138 7284,18138 L 7284,18138 Z M 7285,18218 C 7382,18218 7440,18297 7440,18431 7440,18558 7380,18639 7285,18639 7189,18639 7131,18559 7131,18428 7131,18298 7189,18218 7285,18218 L 7285,18218 Z"/>
         <path fill="rgb(63,110,158)" stroke="none" d="M 7649,18154 L 7649,18694 7736,18694 7736,18397 C 7736,18286 7794,18214 7882,18214 7950,18214 7994,18255 7994,18320 L 7994,18694 8079,18694 8079,18286 C 8079,18196 8012,18138 7908,18138 7827,18138 7776,18169 7729,18245 L 7729,18154 7649,18154 Z"/>
         <path fill="rgb(63,110,158)" stroke="none" d="M 8223,18154 L 8223,18773 C 8223,18827 8205,18844 8152,18844 8149,18844 8149,18844 8132,18843 L 8132,18916 C 8142,18918 8147,18919 8161,18919 8257,18919 8308,18880 8308,18807 L 8308,18154 8223,18154 Z M 8308,17943 L 8223,17943 8223,18051 8308,18051 8308,17943 Z"/>
         <path fill="rgb(63,110,158)" stroke="none" d="M 8876,18694 L 8876,18154 8791,18154 8791,18460 C 8791,18571 8733,18643 8643,18643 8576,18643 8532,18601 8532,18537 L 8532,18154 8446,18154 8446,18571 C 8446,18661 8514,18718 8619,18718 8698,18718 8748,18690 8799,18619 L 8799,18694 8876,18694 Z"/>
         <path fill="rgb(63,110,158)" stroke="none" d="M 9025,18154 L 9025,18694 9112,18694 9112,18397 C 9112,18286 9169,18214 9258,18214 9326,18214 9369,18255 9369,18320 L 9369,18694 9455,18694 9455,18286 C 9455,18196 9388,18138 9284,18138 9203,18138 9152,18169 9104,18245 L 9104,18154 9025,18154 Z"/>
         <path fill="rgb(63,110,158)" stroke="none" d="M 10012,18335 C 10008,18283 9997,18249 9976,18219 9939,18168 9873,18138 9798,18138 9653,18138 9558,18254 9558,18433 9558,18608 9651,18718 9797,18718 9926,18718 10008,18641 10018,18509 L 9932,18509 C 9917,18596 9873,18639 9799,18639 9704,18639 9648,18561 9648,18433 9648,18298 9703,18218 9797,18218 9870,18218 9915,18260 9925,18335 L 10012,18335 Z"/>
         <path fill="rgb(63,110,158)" stroke="none" d="M 10304,18154 L 10215,18154 10215,18006 10129,18006 10129,18154 10056,18154 10056,18224 10129,18224 10129,18632 C 10129,18687 10167,18718 10234,18718 10254,18718 10275,18716 10304,18711 L 10304,18639 C 10292,18642 10279,18643 10263,18643 10225,18643 10215,18632 10215,18594 L 10215,18224 10304,18224 10304,18154 Z"/>
         <path fill="rgb(63,110,158)" stroke="none" d="M 10483,18154 L 10398,18154 10398,18694 10483,18694 10483,18154 Z M 10483,17943 L 10397,17943 10397,18051 10483,18051 10483,17943 Z"/>
         <path fill="rgb(63,110,158)" stroke="none" d="M 10838,18138 C 10686,18138 10595,18247 10595,18428 10595,18610 10685,18718 10839,18718 10991,18718 11084,18610 11084,18432 11084,18246 10994,18138 10838,18138 L 10838,18138 Z M 10839,18218 C 10936,18218 10994,18297 10994,18431 10994,18558 10934,18639 10839,18639 10743,18639 10684,18559 10684,18428 10684,18298 10743,18218 10839,18218 L 10839,18218 Z"/>
         <path fill="rgb(63,110,158)" stroke="none" d="M 11203,18154 L 11203,18694 11290,18694 11290,18397 C 11290,18286 11347,18214 11436,18214 11504,18214 11547,18255 11547,18320 L 11547,18694 11633,18694 11633,18286 C 11633,18196 11566,18138 11462,18138 11381,18138 11330,18169 11282,18245 L 11282,18154 11203,18154 Z"/>
         <path fill="rgb(63,110,158)" stroke="none" d="M 12301,18824 L 11681,18824 11681,18876 12301,18876 12301,18824 Z"/>
         <path fill="rgb(63,110,158)" stroke="none" d="M 12572,18694 L 12779,18154 12682,18154 12529,18592 12385,18154 12288,18154 12478,18694 12572,18694 Z"/>
         <path fill="rgb(63,110,158)" stroke="none" d="M 13060,18174 L 13060,18694 13151,18694 13151,17964 13091,17964 C 13059,18076 13039,18091 12898,18109 L 12898,18174 13060,18174 Z"/>
         <path fill="rgb(63,110,158)" stroke="none" d="M 13963,18824 L 13344,18824 13344,18876 13963,18876 13963,18824 Z"/>
         <path fill="rgb(63,110,158)" stroke="none" d="M 14224,17964 C 14156,17964 14094,17993 14055,18044 14008,18108 13985,18206 13985,18341 13985,18587 14067,18718 14224,18718 14379,18718 14463,18587 14463,18347 14463,18205 14441,18110 14392,18044 14354,17992 14293,17964 14224,17964 L 14224,17964 Z M 14224,18044 C 14322,18044 14370,18143 14370,18338 14370,18546 14323,18643 14222,18643 14126,18643 14077,18542 14077,18342 14077,18142 14126,18044 14224,18044 L 14224,18044 Z"/>
         <path fill="none" stroke="rgb(0,0,0)" stroke-width="430" stroke-linejoin="miter" d="M 4485,14001 L 5344,14001"/>
         <path fill="rgb(0,0,0)" stroke="none" d="M 5924,14121 L 5988,14310 6077,14310 5857,13683 5754,13683 5531,14310 5616,14310 5682,14121 5924,14121 Z M 5901,14054 L 5702,14054 5805,13769 5901,14054 Z"/>
         <path fill="rgb(0,0,0)" stroke="none" d="M 6586,14418 L 6070,14418 6070,14461 6586,14461 6586,14418 Z"/>
         <path fill="rgb(0,0,0)" stroke="none" d="M 6696,13859 L 6625,13859 6625,14310 6696,14310 6696,13859 Z M 6696,13683 L 6624,13683 6624,13774 6696,13774 6696,13683 Z"/>
         <path fill="rgb(0,0,0)" stroke="none" d="M 6973,13683 L 6813,13683 6813,14492 6973,14492 6973,14430 6884,14430 6884,13745 6973,13745 6973,13683 Z"/>
         <path fill="rgb(0,0,0)" stroke="none" d="M 7187,14030 L 7196,14030 7228,14030 C 7311,14030 7354,14068 7354,14141 7354,14217 7307,14262 7228,14262 7146,14262 7105,14221 7100,14133 L 7024,14133 C 7028,14182 7037,14213 7051,14241 7082,14300 7142,14330 7226,14330 7351,14330 7432,14255 7432,14140 7432,14062 7402,14019 7329,13994 7385,13972 7413,13929 7413,13868 7413,13763 7344,13700 7228,13700 7105,13700 7040,13768 7037,13897 L 7113,13897 C 7114,13860 7117,13840 7127,13821 7144,13787 7181,13767 7229,13767 7296,13767 7336,13806 7336,13870 7336,13914 7321,13939 7288,13953 7267,13962 7240,13965 7187,13966 L 7187,14030 Z"/>
         <path fill="rgb(0,0,0)" stroke="none" d="M 7659,14221 L 7569,14221 7569,14310 7659,14310 7659,14221 Z M 7659,13859 L 7569,13859 7569,13949 7659,13949 7659,13859 Z"/>
         <path fill="rgb(0,0,0)" stroke="none" d="M 7950,13700 C 7893,13700 7842,13726 7810,13768 7770,13821 7750,13902 7750,14015 7750,14221 7819,14330 7950,14330 8079,14330 8149,14221 8149,14020 8149,13901 8130,13822 8090,13768 8058,13725 8008,13700 7950,13700 L 7950,13700 Z M 7950,13768 C 8031,13768 8072,13850 8072,14013 8072,14186 8032,14267 7948,14267 7868,14267 7828,14182 7828,14016 7828,13849 7868,13768 7950,13768 L 7950,13768 Z"/>
         <path fill="rgb(0,0,0)" stroke="none" d="M 8211,14492 L 8371,14492 8371,13683 8211,13683 8211,13745 8300,13745 8300,14430 8211,14430 8211,14492 Z"/>
         <path fill="none" stroke="rgb(0,0,0)" stroke-width="430" stroke-linejoin="miter" d="M 4485,15720 L 5344,15720"/>
         <path fill="rgb(0,0,0)" stroke="none" d="M 5584,16028 L 5867,16028 C 5926,16028 5970,16012 6003,15976 6034,15943 6051,15899 6051,15850 6051,15774 6017,15729 5937,15698 5994,15671 6024,15624 6024,15561 6024,15515 6007,15475 5974,15446 5941,15416 5898,15402 5838,15402 L 5584,15402 5584,16028 Z M 5664,15672 L 5664,15472 5818,15472 C 5863,15472 5888,15479 5909,15495 5932,15512 5944,15538 5944,15572 5944,15605 5932,15632 5909,15650 5888,15666 5863,15672 5818,15672 L 5664,15672 Z M 5664,15958 L 5664,15742 5859,15742 C 5898,15742 5924,15752 5942,15772 5961,15792 5971,15820 5971,15851 5971,15881 5961,15908 5942,15928 5924,15948 5898,15958 5859,15958 L 5664,15958 Z"/>
         <path fill="rgb(0,0,0)" stroke="none" d="M 6586,16137 L 6070,16137 6070,16179 6586,16179 6586,16137 Z"/>
         <path fill="rgb(0,0,0)" stroke="none" d="M 6696,15578 L 6625,15578 6625,16028 6696,16028 6696,15578 Z M 6696,15402 L 6624,15402 6624,15492 6696,15492 6696,15402 Z"/>
         <path fill="rgb(0,0,0)" stroke="none" d="M 6973,15402 L 6813,15402 6813,16210 6973,16210 6973,16148 6884,16148 6884,15464 6973,15464 6973,15402 Z"/>
         <path fill="rgb(0,0,0)" stroke="none" d="M 7187,15749 L 7196,15749 7228,15748 C 7311,15748 7354,15786 7354,15859 7354,15935 7307,15981 7228,15981 7146,15981 7105,15940 7100,15852 L 7024,15852 C 7028,15900 7037,15932 7051,15960 7082,16018 7142,16048 7226,16048 7351,16048 7432,15973 7432,15858 7432,15781 7402,15738 7329,15713 7385,15691 7413,15648 7413,15587 7413,15482 7344,15419 7228,15419 7105,15419 7040,15486 7037,15616 L 7113,15616 C 7114,15579 7117,15558 7127,15540 7144,15506 7181,15485 7229,15485 7296,15485 7336,15525 7336,15589 7336,15632 7321,15658 7288,15672 7267,15681 7240,15684 7187,15684 L 7187,15749 Z"/>
         <path fill="rgb(0,0,0)" stroke="none" d="M 7659,15939 L 7569,15939 7569,16028 7659,16028 7659,15939 Z M 7659,15578 L 7569,15578 7569,15667 7659,15667 7659,15578 Z"/>
         <path fill="rgb(0,0,0)" stroke="none" d="M 7950,15419 C 7893,15419 7842,15444 7810,15486 7770,15540 7750,15621 7750,15734 7750,15939 7819,16048 7950,16048 8079,16048 8149,15939 8149,15739 8149,15620 8130,15541 8090,15486 8058,15443 8008,15419 7950,15419 L 7950,15419 Z M 7950,15486 C 8031,15486 8072,15569 8072,15732 8072,15905 8032,15985 7948,15985 7868,15985 7828,15901 7828,15734 7828,15568 7868,15486 7950,15486 L 7950,15486 Z"/>
         <path fill="rgb(0,0,0)" stroke="none" d="M 8211,16210 L 8371,16210 8371,15402 8211,15402 8211,15464 8300,15464 8300,16148 8211,16148 8211,16210 Z"/>
         <path fill="none" stroke="rgb(0,0,0)" stroke-width="430" stroke-linejoin="miter" d="M 16517,14861 L 15657,14861"/>
         <path fill="rgb(0,0,0)" stroke="none" d="M 12617,14923 L 12852,14543 12757,14543 12578,14848 12394,14543 12295,14543 12537,14923 12537,15169 12617,15169 12617,14923 Z"/>
         <path fill="rgb(0,0,0)" stroke="none" d="M 13354,15278 L 12838,15278 12838,15320 13354,15320 13354,15278 Z"/>
         <path fill="rgb(0,0,0)" stroke="none" d="M 13569,14706 C 13443,14706 13366,14796 13366,14947 13366,15099 13442,15189 13570,15189 13696,15189 13773,15099 13773,14951 13773,14795 13698,14706 13569,14706 L 13569,14706 Z M 13570,14772 C 13650,14772 13698,14838 13698,14950 13698,15056 13649,15123 13570,15123 13490,15123 13441,15057 13441,14947 13441,14839 13490,14772 13570,14772 L 13570,14772 Z"/>
         <path fill="rgb(0,0,0)" stroke="none" d="M 14028,14543 L 13868,14543 13868,15351 14028,15351 14028,15289 13939,15289 13939,14604 14028,14604 14028,14543 Z"/>
         <path fill="rgb(0,0,0)" stroke="none" d="M 14242,14890 L 14251,14890 14283,14889 C 14366,14889 14409,14927 14409,15000 14409,15076 14362,15122 14283,15122 14201,15122 14160,15080 14155,14992 L 14079,14992 C 14083,15041 14092,15073 14106,15100 14137,15159 14197,15189 14280,15189 14406,15189 14487,15114 14487,14999 14487,14922 14457,14878 14384,14854 14440,14831 14468,14788 14468,14727 14468,14623 14399,14560 14283,14560 14160,14560 14095,14627 14092,14756 L 14168,14756 C 14169,14720 14172,14699 14182,14680 14199,14646 14236,14626 14284,14626 14351,14626 14391,14665 14391,14730 14391,14773 14376,14798 14342,14813 14322,14821 14295,14825 14242,14825 L 14242,14890 Z"/>
         <path fill="rgb(0,0,0)" stroke="none" d="M 14714,15080 L 14624,15080 14624,15169 14714,15169 14714,15080 Z M 14714,14719 L 14624,14719 14624,14808 14714,14808 14714,14719 Z"/>
         <path fill="rgb(0,0,0)" stroke="none" d="M 15005,14560 C 14948,14560 14896,14585 14865,14627 14825,14680 14805,14762 14805,14875 14805,15080 14874,15189 15005,15189 15134,15189 15204,15080 15204,14879 15204,14761 15185,14682 15145,14627 15113,14584 15063,14560 15005,14560 L 15005,14560 Z M 15005,14627 C 15086,14627 15127,14709 15127,14873 15127,15046 15087,15126 15003,15126 14923,15126 14883,15042 14883,14875 14883,14708 14923,14627 15005,14627 L 15005,14627 Z"/>
         <path fill="rgb(0,0,0)" stroke="none" d="M 15266,15351 L 15426,15351 15426,14543 15266,14543 15266,14604 15355,14604 15355,15289 15266,15289 15266,15351 Z"/>
         <path fill="none" stroke="rgb(63,110,158)" stroke-width="86" stroke-linejoin="miter" d="M 5946,12283 L 15056,12283"/>
         <path fill="none" stroke="rgb(63,110,158)" stroke-width="86" stroke-linejoin="miter" d="M 15657,12884 C 15657,12875 15657,12865 15657,12856 15649,12531 15380,12275 15056,12283"/>
         <path fill="none" stroke="rgb(63,110,158)" stroke-width="86" stroke-linejoin="miter" d="M 15657,12884 L 15657,16837"/>
         <path fill="none" stroke="rgb(63,110,158)" stroke-width="86" stroke-linejoin="miter" d="M 15056,17438 C 15065,17439 15075,17439 15084,17438 15409,17431 15665,17161 15657,16837"/>
         <path fill="none" stroke="rgb(63,110,158)" stroke-width="86" stroke-linejoin="miter" d="M 15056,17438 L 5946,17438"/>
         <path fill="none" stroke="rgb(63,110,158)" stroke-width="86" stroke-linejoin="miter" d="M 5344,16837 C 5344,16846 5344,16856 5344,16866 5352,17190 5621,17446 5946,17438"/>
         <path fill="none" stroke="rgb(63,110,158)" stroke-width="86" stroke-linejoin="miter" d="M 5344,16837 L 5344,12884"/>
         <path fill="none" stroke="rgb(63,110,158)" stroke-width="86" stroke-linejoin="miter" d="M 5946,12283 C 5936,12282 5927,12282 5917,12283 5593,12291 5336,12560 5344,12884"/>
        </g>
       </g>
      </g>
     </g>
    </g>
   </g>
  </g>
 </g>
</svg>