<?xml version="1.0" encoding="UTF-8"?>
<!DOCTYPE svg PUBLIC "-//W3C//DTD SVG 1.1//EN" "http://www.w3.org/Graphics/SVG/1.1/DTD/svg11.dtd">
<svg version="1.2" width="126.99mm" height="85.99mm" viewBox="4500 10500 12699 8599" preserveAspectRatio="xMidYMid" fill-rule="evenodd" stroke-width="28.222" stroke-linejoin="round" xmlns="http://www.w3.org/2000/svg" xmlns:ooo="http://xml.openoffice.org/svg/export" xmlns:xlink="http://www.w3.org/1999/xlink" xmlns:presentation="http://sun.com/xmlns/staroffice/presentation" xmlns:smil="http://www.w3.org/2001/SMIL20/" xmlns:anim="urn:oasis:names:tc:opendocument:xmlns:animation:1.0" xml:space="preserve">
 <defs class="ClipPathGroup">
  <clipPath id="presentation_clip_path" clipPathUnits="userSpaceOnUse">
   <rect x="4500" y="10500" width="12699" height="8599"/>
  </clipPath>
  <clipPath id="presentation_clip_path_shrink" clipPathUnits="userSpaceOnUse">
   <rect x="4512" y="10508" width="12674" height="8582"/>
  </clipPath>
 </defs>
 <defs class="TextShapeIndex">
  <g ooo:slide="id1" ooo:id-list="id3"/>
 </defs>
 <defs class="EmbeddedBulletChars">
  <g id="bullet-char-template-57356" transform="scale(0.00048828125,-0.00048828125)">
   <path d="M 580,1141 L 1163,571 580,0 -4,571 580,1141 Z"/>
  </g>
  <g id="bullet-char-template-57354" transform="scale(0.00048828125,-0.00048828125)">
   <path d="M 8,1128 L 1137,1128 1137,0 8,0 8,1128 Z"/>
  </g>
  <g id="bullet-char-template-10146" transform="scale(0.00048828125,-0.00048828125)">
   <path d="M 174,0 L 602,739 174,1481 1456,739 174,0 Z M 1358,739 L 309,1346 659,739 1358,739 Z"/>
  </g>
  <g id="bullet-char-template-10132" transform="scale(0.00048828125,-0.00048828125)">
   <path d="M 2015,739 L 1276,0 717,0 1260,543 174,543 174,936 1260,936 717,1481 1274,1481 2015,739 Z"/>
  </g>
  <g id="bullet-char-template-10007" transform="scale(0.00048828125,-0.00048828125)">
   <path d="M 0,-2 C -7,14 -16,27 -25,37 L 356,567 C 262,823 215,952 215,954 215,979 228,992 255,992 264,992 276,990 289,987 310,991 331,999 354,1012 L 381,999 492,748 772,1049 836,1024 860,1049 C 881,1039 901,1025 922,1006 886,937 835,863 770,784 769,783 710,716 594,584 L 774,223 C 774,196 753,168 711,139 L 727,119 C 717,90 699,76 672,76 641,76 570,178 457,381 L 164,-76 C 142,-110 111,-127 72,-127 30,-127 9,-110 8,-76 1,-67 -2,-52 -2,-32 -2,-23 -1,-13 0,-2 Z"/>
  </g>
  <g id="bullet-char-template-10004" transform="scale(0.00048828125,-0.00048828125)">
   <path d="M 285,-33 C 182,-33 111,30 74,156 52,228 41,333 41,471 41,549 55,616 82,672 116,743 169,778 240,778 293,778 328,747 346,684 L 369,508 C 377,444 397,411 428,410 L 1163,1116 C 1174,1127 1196,1133 1229,1133 1271,1133 1292,1118 1292,1087 L 1292,965 C 1292,929 1282,901 1262,881 L 442,47 C 390,-6 338,-33 285,-33 Z"/>
  </g>
  <g id="bullet-char-template-9679" transform="scale(0.00048828125,-0.00048828125)">
   <path d="M 813,0 C 632,0 489,54 383,161 276,268 223,411 223,592 223,773 276,916 383,1023 489,1130 632,1184 813,1184 992,1184 1136,1130 1245,1023 1353,916 1407,772 1407,592 1407,412 1353,268 1245,161 1136,54 992,0 813,0 Z"/>
  </g>
  <g id="bullet-char-template-8226" transform="scale(0.00048828125,-0.00048828125)">
   <path d="M 346,457 C 273,457 209,483 155,535 101,586 74,649 74,723 74,796 101,859 155,911 209,963 273,989 346,989 419,989 480,963 531,910 582,859 608,796 608,723 608,648 583,586 532,535 482,483 420,457 346,457 Z"/>
  </g>
  <g id="bullet-char-template-8211" transform="scale(0.00048828125,-0.00048828125)">
   <path d="M -4,459 L 1135,459 1135,606 -4,606 -4,459 Z"/>
  </g>
  <g id="bullet-char-template-61548" transform="scale(0.00048828125,-0.00048828125)">
   <path d="M 173,740 C 173,903 231,1043 346,1159 462,1274 601,1332 765,1332 928,1332 1067,1274 1183,1159 1299,1043 1357,903 1357,740 1357,577 1299,437 1183,322 1067,206 928,148 765,148 601,148 462,206 346,322 231,437 173,577 173,740 Z"/>
  </g>
 </defs>
 <defs class="TextEmbeddedBitmaps"/>
 <g class="SlideGroup">
  <g>
   <g id="container-id1">
    <g id="id1" class="Slide" clip-path="url(#presentation_clip_path)">
     <g class="Page">
      <g class="Graphic">
       <g id="id3">
        <rect class="BoundingBox" stroke="none" fill="none" x="4500" y="10500" width="12700" height="8600"/>
        <defs>
         <clipPath id="clip_path_1" clipPathUnits="userSpaceOnUse">
          <path d="M 4500,10500 L 17199,10500 17199,19099 4500,19099 4500,10500 Z"/>
         </clipPath>
        </defs>
        <g clip-path="url(#clip_path_1)"/>
        <defs>
         <clipPath id="clip_path_2" clipPathUnits="userSpaceOnUse">
          <path d="M 4500,10500 L 17199,10500 17199,19099 4500,19099 4500,10500 Z"/>
         </clipPath>
        </defs>
        <g clip-path="url(#clip_path_2)">
         <path fill="rgb(255,255,255)" stroke="none" d="M 2206,9424 L 19394,9424 19394,20681 2206,20681 2206,9424 Z"/>
        </g>
        <g clip-path="url(#clip_path_1)">
         <path fill="rgb(0,0,0)" stroke="none" d="M 6675,12432 L 15785,12432 16043,12518 16214,12604 16300,12775 16386,13033 16386,16986 16300,17244 16214,17416 16043,17501 15785,17587 6675,17587 6417,17501 6246,17416 6160,17244 6074,16986 6074,13033 6160,12775 6246,12604 6417,12518 6675,12432 Z"/>
        </g>
        <defs>
         <clipPath id="clip_path_3" clipPathUnits="userSpaceOnUse">
          <path d="M 6246,12002 L 15355,12002 15613,12088 15785,12174 15871,12346 15957,12604 15957,16556 15871,16814 15785,16986 15613,17072 15355,17158 6246,17158 5988,17072 5816,16986 5730,16814 5644,16556 5644,12604 5730,12346 5816,12174 5988,12088 6246,12002 Z"/>
         </clipPath>
        </defs>
        <g clip-path="url(#clip_path_3)"/>
        <defs>
         <clipPath id="clip_path_4" clipPathUnits="userSpaceOnUse">
          <path d="M 6246,12002 L 15355,12002 15613,12088 15785,12174 15871,12346 15957,12604 15957,16556 15871,16814 15785,16986 15613,17072 15355,17158 6246,17158 5988,17072 5816,16986 5730,16814 5644,16556 5644,12604 5730,12346 5816,12174 5988,12088 6246,12002 Z"/>
         </clipPath>
        </defs>
        <g clip-path="url(#clip_path_4)">
         <path fill="rgb(189,212,236)" stroke="none" d="M 3413,15883 L 3433,15894 8193,7566 8172,7554 3413,15883 Z"/>
         <path fill="rgb(189,212,236)" stroke="none" d="M 3413,15883 L 3589,15984 8349,7655 8172,7554 3413,15883 Z"/>
         <path fill="rgb(190,212,236)" stroke="none" d="M 3569,15972 L 3745,16073 8505,7745 8328,7644 3569,15972 Z"/>
         <path fill="rgb(190,213,236)" stroke="none" d="M 3725,16061 L 3902,16162 8661,7834 8485,7733 3725,16061 Z"/>
         <path fill="rgb(191,213,237)" stroke="none" d="M 3881,16150 L 4058,16251 8817,7923 8641,7822 3881,16150 Z"/>
         <path fill="rgb(192,214,237)" stroke="none" d="M 4037,16240 L 4214,16341 8974,8012 8797,7911 4037,16240 Z"/>
         <path fill="rgb(193,214,237)" stroke="none" d="M 4193,16329 L 4370,16430 9130,8102 8953,8001 4193,16329 Z"/>
         <path fill="rgb(193,215,237)" stroke="none" d="M 4350,16418 L 4526,16519 9286,8191 9109,8090 4350,16418 Z"/>
         <path fill="rgb(194,215,237)" stroke="none" d="M 4506,16507 L 4682,16608 9442,8280 9265,8179 4506,16507 Z"/>
         <path fill="rgb(195,216,237)" stroke="none" d="M 4662,16597 L 4839,16698 9598,8369 9422,8268 4662,16597 Z"/>
         <path fill="rgb(196,216,237)" stroke="none" d="M 4818,16686 L 4995,16787 9754,8458 9578,8358 4818,16686 Z"/>
         <path fill="rgb(197,217,238)" stroke="none" d="M 4974,16775 L 5151,16876 9911,8548 9734,8447 4974,16775 Z"/>
         <path fill="rgb(197,217,238)" stroke="none" d="M 5130,16864 L 5307,16965 10067,8637 9890,8536 5130,16864 Z"/>
         <path fill="rgb(198,218,238)" stroke="none" d="M 5287,16954 L 5463,17055 10223,8726 10046,8625 5287,16954 Z"/>
         <path fill="rgb(199,218,238)" stroke="none" d="M 5443,17043 L 5620,17144 10379,8815 10203,8714 5443,17043 Z"/>
         <path fill="rgb(200,218,238)" stroke="none" d="M 5599,17132 L 5654,17164 10414,8835 10359,8804 5599,17132 Z"/>
         <path fill="rgb(200,219,238)" stroke="none" d="M 5634,17152 L 5776,17233 10535,8905 10393,8824 5634,17152 Z"/>
         <path fill="rgb(201,219,238)" stroke="none" d="M 5755,17221 L 5932,17322 10692,8994 10515,8893 5755,17221 Z"/>
         <path fill="rgb(201,219,239)" stroke="none" d="M 5911,17310 L 6088,17411 10848,9083 10671,8982 5911,17310 Z"/>
         <path fill="rgb(202,220,239)" stroke="none" d="M 6068,17400 L 6244,17501 11004,9172 10827,9071 6068,17400 Z"/>
         <path fill="rgb(203,220,239)" stroke="none" d="M 6224,17489 L 6400,17590 11160,9262 10983,9161 6224,17489 Z"/>
         <path fill="rgb(204,221,239)" stroke="none" d="M 6380,17578 L 6557,17679 11316,9351 11140,9250 6380,17578 Z"/>
         <path fill="rgb(204,221,239)" stroke="none" d="M 6536,17667 L 6713,17768 11472,9440 11296,9339 6536,17667 Z"/>
         <path fill="rgb(205,222,239)" stroke="none" d="M 6692,17757 L 6869,17858 11629,9529 11452,9428 6692,17757 Z"/>
         <path fill="rgb(206,222,239)" stroke="none" d="M 6848,17846 L 7025,17947 11785,9618 11608,9518 6848,17846 Z"/>
         <path fill="rgb(207,223,240)" stroke="none" d="M 7005,17935 L 7181,18036 11941,9708 11764,9607 7005,17935 Z"/>
         <path fill="rgb(207,223,240)" stroke="none" d="M 7161,18024 L 7337,18125 12097,9797 11920,9696 7161,18024 Z"/>
         <path fill="rgb(208,224,240)" stroke="none" d="M 7317,18114 L 7494,18215 12253,9886 12077,9785 7317,18114 Z"/>
         <path fill="rgb(209,224,240)" stroke="none" d="M 7473,18203 L 7650,18304 12409,9975 12233,9874 7473,18203 Z"/>
         <path fill="rgb(210,225,240)" stroke="none" d="M 7629,18292 L 7806,18393 12566,10065 12389,9964 7629,18292 Z"/>
         <path fill="rgb(211,225,240)" stroke="none" d="M 7785,18381 L 7962,18482 12722,10154 12545,10053 7785,18381 Z"/>
         <path fill="rgb(211,225,241)" stroke="none" d="M 7942,18470 L 8118,18571 12878,10243 12701,10142 7942,18470 Z"/>
         <path fill="rgb(212,226,241)" stroke="none" d="M 8098,18560 L 8275,18661 13034,10332 12857,10231 8098,18560 Z"/>
         <path fill="rgb(213,226,241)" stroke="none" d="M 8254,18649 L 8431,18750 13190,10422 13014,10321 8254,18649 Z"/>
         <path fill="rgb(214,227,241)" stroke="none" d="M 8410,18738 L 8587,18839 13347,10511 13170,10410 8410,18738 Z"/>
         <path fill="rgb(214,227,241)" stroke="none" d="M 8566,18827 L 8743,18928 13503,10600 13326,10499 8566,18827 Z"/>
         <path fill="rgb(215,228,241)" stroke="none" d="M 8723,18917 L 8899,19018 13659,10689 13482,10588 8723,18917 Z"/>
         <path fill="rgb(216,228,241)" stroke="none" d="M 8879,19006 L 9055,19107 13815,10779 13638,10678 8879,19006 Z"/>
         <path fill="rgb(217,229,242)" stroke="none" d="M 9035,19095 L 9212,19196 13971,10868 13795,10767 9035,19095 Z"/>
         <path fill="rgb(218,229,242)" stroke="none" d="M 9191,19184 L 9368,19285 14127,10957 13951,10856 9191,19184 Z"/>
         <path fill="rgb(218,230,242)" stroke="none" d="M 9347,19274 L 9524,19375 14284,11046 14107,10945 9347,19274 Z"/>
         <path fill="rgb(219,230,242)" stroke="none" d="M 9503,19363 L 9680,19464 14440,11135 14263,11034 9503,19363 Z"/>
         <path fill="rgb(220,231,242)" stroke="none" d="M 9660,19452 L 9836,19553 14596,11225 14419,11124 9660,19452 Z"/>
         <path fill="rgb(221,231,242)" stroke="none" d="M 9816,19541 L 9992,19642 14752,11314 14575,11213 9816,19541 Z"/>
         <path fill="rgb(221,232,243)" stroke="none" d="M 9972,19631 L 10149,19731 14908,11403 14732,11302 9972,19631 Z"/>
         <path fill="rgb(222,232,243)" stroke="none" d="M 10128,19720 L 10305,19821 15064,11492 14888,11391 10128,19720 Z"/>
         <path fill="rgb(223,232,243)" stroke="none" d="M 10284,19809 L 10461,19910 15221,11582 15044,11481 10284,19809 Z"/>
         <path fill="rgb(224,233,243)" stroke="none" d="M 10440,19898 L 10617,19999 15377,11671 15200,11570 10440,19898 Z"/>
         <path fill="rgb(225,233,243)" stroke="none" d="M 10597,19987 L 10773,20088 15533,11760 15356,11659 10597,19987 Z"/>
         <path fill="rgb(225,234,243)" stroke="none" d="M 10753,20077 L 10930,20178 15689,11849 15512,11748 10753,20077 Z"/>
         <path fill="rgb(226,234,244)" stroke="none" d="M 10909,20166 L 11086,20267 15845,11939 15669,11838 10909,20166 Z"/>
         <path fill="rgb(227,235,244)" stroke="none" d="M 11065,20255 L 11207,20336 15967,12008 15825,11927 11065,20255 Z"/>
         <path fill="rgb(228,235,244)" stroke="none" d="M 11187,20325 L 11242,20356 16002,12028 15946,11996 11187,20325 Z"/>
         <path fill="rgb(228,235,244)" stroke="none" d="M 11221,20344 L 11398,20445 16158,12117 15981,12016 11221,20344 Z"/>
         <path fill="rgb(228,236,244)" stroke="none" d="M 11378,20434 L 11554,20535 16314,12206 16137,12105 11378,20434 Z"/>
         <path fill="rgb(229,236,244)" stroke="none" d="M 11534,20523 L 11710,20624 16470,12295 16293,12194 11534,20523 Z"/>
         <path fill="rgb(230,237,244)" stroke="none" d="M 11690,20612 L 11867,20713 16626,12385 16450,12284 11690,20612 Z"/>
         <path fill="rgb(231,237,244)" stroke="none" d="M 11846,20701 L 12023,20802 16782,12474 16606,12373 11846,20701 Z"/>
         <path fill="rgb(232,238,245)" stroke="none" d="M 12002,20791 L 12179,20891 16939,12563 16762,12462 12002,20791 Z"/>
         <path fill="rgb(232,238,245)" stroke="none" d="M 12158,20880 L 12335,20981 17095,12652 16918,12551 12158,20880 Z"/>
         <path fill="rgb(233,239,245)" stroke="none" d="M 12315,20969 L 12491,21070 17251,12742 17074,12641 12315,20969 Z"/>
         <path fill="rgb(234,239,245)" stroke="none" d="M 12471,21058 L 12647,21159 17407,12831 17230,12730 12471,21058 Z"/>
         <path fill="rgb(235,239,245)" stroke="none" d="M 12627,21147 L 12804,21248 17563,12920 17387,12819 12627,21147 Z"/>
         <path fill="rgb(235,240,245)" stroke="none" d="M 12783,21237 L 12960,21338 17719,13009 17543,12908 12783,21237 Z"/>
         <path fill="rgb(236,240,246)" stroke="none" d="M 12939,21326 L 13116,21427 17876,13099 17699,12998 12939,21326 Z"/>
         <path fill="rgb(237,241,246)" stroke="none" d="M 13095,21415 L 13272,21516 18032,13188 17855,13087 13095,21415 Z"/>
         <path fill="rgb(238,241,246)" stroke="none" d="M 13252,21504 L 13428,21605 18188,13277 18011,13176 13252,21504 Z"/>
         <path fill="rgb(239,242,246)" stroke="none" d="M 13408,21594 L 13428,21605 18188,13277 18167,13265 13408,21594 Z"/>
        </g>
        <g clip-path="url(#clip_path_3)"/>
        <g clip-path="url(#clip_path_1)">
         <path fill="rgb(0,0,0)" stroke="none" d="M 8302,10865 L 8216,10865 8216,11145 C 8180,11090 8122,11061 8050,11061 7910,11061 7818,11174 7818,11346 7818,11528 7908,11640 8053,11640 8127,11640 8179,11612 8225,11546 L 8225,11617 8302,11617 8302,10865 Z M 8064,11142 C 8157,11142 8216,11224 8216,11353 8216,11478 8156,11560 8065,11560 7970,11560 7908,11476 7908,11351 7908,11225 7970,11142 8064,11142 L 8064,11142 Z"/>
         <path fill="rgb(0,0,0)" stroke="none" d="M 8893,11376 C 8893,11293 8887,11243 8872,11203 8837,11114 8754,11061 8653,11061 8503,11061 8406,11176 8406,11354 8406,11531 8500,11640 8651,11640 8775,11640 8860,11570 8882,11453 L 8796,11453 C 8772,11524 8723,11561 8654,11561 8599,11561 8553,11536 8524,11491 8503,11460 8497,11429 8495,11376 L 8893,11376 Z M 8498,11305 C 8505,11206 8565,11140 8652,11140 8737,11140 8802,11210 8802,11299 8802,11301 8802,11303 8801,11305 L 8498,11305 Z"/>
         <path fill="rgb(0,0,0)" stroke="none" d="M 9424,11258 C 9419,11206 9408,11171 9387,11142 9351,11091 9285,11061 9210,11061 9065,11061 8970,11176 8970,11356 8970,11530 9063,11640 9209,11640 9338,11640 9419,11563 9430,11431 L 9343,11431 C 9329,11518 9284,11561 9211,11561 9116,11561 9059,11484 9059,11356 9059,11221 9115,11140 9209,11140 9281,11140 9327,11183 9337,11258 L 9424,11258 Z"/>
         <path fill="rgb(0,0,0)" stroke="none" d="M 9525,11076 L 9525,11617 9611,11617 9611,11336 C 9611,11259 9631,11208 9672,11178 9699,11159 9725,11153 9784,11152 L 9784,11064 C 9770,11062 9763,11061 9751,11061 9696,11061 9654,11094 9604,11175 L 9604,11076 9525,11076 Z"/>
         <path fill="rgb(0,0,0)" stroke="none" d="M 10326,11376 C 10326,11293 10320,11243 10304,11203 10269,11114 10187,11061 10086,11061 9935,11061 9838,11176 9838,11354 9838,11531 9932,11640 10084,11640 10207,11640 10293,11570 10315,11453 L 10228,11453 C 10204,11524 10156,11561 10087,11561 10032,11561 9986,11536 9957,11491 9936,11460 9929,11429 9928,11376 L 10326,11376 Z M 9930,11305 C 9937,11206 9998,11140 10085,11140 10169,11140 10234,11210 10234,11299 10234,11301 10234,11303 10233,11305 L 9930,11305 Z"/>
         <path fill="rgb(0,0,0)" stroke="none" d="M 10442,11076 L 10442,11617 10529,11617 10529,11278 C 10529,11199 10586,11136 10656,11136 10720,11136 10756,11176 10756,11244 L 10756,11617 10843,11617 10843,11278 C 10843,11199 10899,11136 10969,11136 11032,11136 11069,11176 11069,11244 L 11069,11617 11156,11617 11156,11211 C 11156,11114 11100,11061 10999,11061 10927,11061 10884,11083 10833,11144 10801,11086 10758,11061 10688,11061 10616,11061 10568,11088 10522,11153 L 10522,11076 10442,11076 Z"/>
         <path fill="rgb(0,0,0)" stroke="none" d="M 11758,11376 C 11758,11293 11752,11243 11736,11203 11702,11114 11619,11061 11518,11061 11367,11061 11270,11176 11270,11354 11270,11531 11364,11640 11516,11640 11640,11640 11725,11570 11747,11453 L 11660,11453 C 11637,11524 11588,11561 11519,11561 11464,11561 11418,11536 11389,11491 11368,11460 11362,11429 11360,11376 L 11758,11376 Z M 11363,11305 C 11370,11206 11430,11140 11517,11140 11602,11140 11667,11210 11667,11299 11667,11301 11667,11303 11666,11305 L 11363,11305 Z"/>
         <path fill="rgb(0,0,0)" stroke="none" d="M 11875,11076 L 11875,11617 11962,11617 11962,11319 C 11962,11208 12019,11136 12108,11136 12176,11136 12219,11177 12219,11242 L 12219,11617 12305,11617 12305,11208 C 12305,11119 12238,11061 12134,11061 12053,11061 12002,11092 11954,11167 L 11954,11076 11875,11076 Z"/>
         <path fill="rgb(0,0,0)" stroke="none" d="M 12638,11076 L 12549,11076 12549,10928 12464,10928 12464,11076 12391,11076 12391,11146 12464,11146 12464,11555 C 12464,11610 12501,11640 12568,11640 12589,11640 12609,11639 12638,11633 L 12638,11561 C 12626,11564 12613,11565 12597,11565 12560,11565 12549,11555 12549,11517 L 12549,11146 12638,11146 12638,11076 Z"/>
         <path fill="rgb(0,0,0)" stroke="none" d="M 13259,11747 L 12640,11747 12640,11798 13259,11798 13259,11747 Z"/>
         <path fill="rgb(0,0,0)" stroke="none" d="M 13520,10886 C 13452,10886 13390,10915 13351,10966 13304,11030 13281,11128 13281,11263 13281,11510 13363,11640 13520,11640 13675,11640 13759,11510 13759,11269 13759,11127 13737,11032 13688,10966 13650,10914 13589,10886 13520,10886 L 13520,10886 Z M 13520,10966 C 13618,10966 13666,11065 13666,11261 13666,11468 13619,11565 13518,11565 13422,11565 13373,11464 13373,11264 13373,11064 13422,10966 13520,10966 L 13520,10966 Z"/>
         <path fill="rgb(63,110,158)" stroke="none" d="M 7470,17662 L 7385,17662 7385,17941 C 7349,17887 7291,17858 7219,17858 7079,17858 6987,17970 6987,18142 6987,18325 7077,18437 7222,18437 7296,18437 7348,18409 7394,18342 L 7394,18414 7470,18414 7470,17662 Z M 7233,17938 C 7326,17938 7385,18021 7385,18150 7385,18275 7325,18357 7234,18357 7139,18357 7077,18273 7077,18148 7077,18022 7139,17938 7233,17938 L 7233,17938 Z"/>
         <path fill="rgb(63,110,158)" stroke="none" d="M 8062,18172 C 8062,18090 8056,18040 8040,18000 8006,17911 7923,17858 7822,17858 7671,17858 7574,17973 7574,18151 7574,18328 7668,18437 7820,18437 7944,18437 8029,18367 8051,18249 L 7964,18249 C 7941,18321 7892,18358 7823,18358 7768,18358 7722,18333 7693,18288 7672,18257 7665,18226 7664,18172 L 8062,18172 Z M 7666,18102 C 7674,18002 7734,17937 7821,17937 7906,17937 7971,18007 7971,18096 7971,18098 7971,18100 7970,18102 L 7666,18102 Z"/>
         <path fill="rgb(63,110,158)" stroke="none" d="M 8592,18055 C 8588,18002 8577,17968 8556,17938 8519,17888 8454,17858 8379,17858 8234,17858 8139,17973 8139,18153 8139,18327 8232,18437 8378,18437 8507,18437 8588,18360 8599,18228 L 8512,18228 C 8498,18315 8453,18358 8380,18358 8285,18358 8228,18280 8228,18153 8228,18017 8284,17937 8378,17937 8450,17937 8496,17980 8506,18055 L 8592,18055 Z"/>
         <path fill="rgb(63,110,158)" stroke="none" d="M 8693,17873 L 8693,18414 8780,18414 8780,18133 C 8780,18056 8800,18005 8841,17975 8868,17956 8894,17950 8953,17949 L 8953,17861 C 8939,17859 8932,17858 8920,17858 8864,17858 8822,17891 8773,17971 L 8773,17873 8693,17873 Z"/>
         <path fill="rgb(63,110,158)" stroke="none" d="M 9495,18172 C 9495,18090 9488,18040 9473,18000 9438,17911 9356,17858 9254,17858 9104,17858 9007,17973 9007,18151 9007,18328 9101,18437 9252,18437 9376,18437 9462,18367 9484,18249 L 9397,18249 C 9373,18321 9325,18358 9255,18358 9201,18358 9155,18333 9126,18288 9105,18257 9098,18226 9096,18172 L 9495,18172 Z M 9099,18102 C 9106,18002 9167,17937 9253,17937 9338,17937 9403,18007 9403,18096 9403,18098 9403,18100 9402,18102 L 9099,18102 Z"/>
         <path fill="rgb(63,110,158)" stroke="none" d="M 9611,17873 L 9611,18414 9698,18414 9698,18075 C 9698,17996 9755,17933 9825,17933 9889,17933 9925,17972 9925,18041 L 9925,18414 10011,18414 10011,18075 C 10011,17996 10068,17933 10138,17933 10201,17933 10238,17973 10238,18041 L 10238,18414 10325,18414 10325,18008 C 10325,17911 10269,17858 10168,17858 10096,17858 10053,17879 10002,17940 9970,17883 9927,17858 9857,17858 9785,17858 9737,17885 9691,17950 L 9691,17873 9611,17873 Z"/>
         <path fill="rgb(63,110,158)" stroke="none" d="M 10927,18172 C 10927,18090 10921,18040 10905,18000 10870,17911 10788,17858 10687,17858 10536,17858 10439,17973 10439,18151 10439,18328 10533,18437 10685,18437 10808,18437 10894,18367 10916,18249 L 10829,18249 C 10805,18321 10757,18358 10688,18358 10633,18358 10587,18333 10558,18288 10537,18257 10530,18226 10529,18172 L 10927,18172 Z M 10531,18102 C 10539,18002 10599,17937 10686,17937 10771,17937 10836,18007 10836,18096 10836,18098 10836,18100 10835,18102 L 10531,18102 Z"/>
         <path fill="rgb(63,110,158)" stroke="none" d="M 11044,17873 L 11044,18414 11130,18414 11130,18116 C 11130,18005 11188,17933 11277,17933 11345,17933 11388,17974 11388,18039 L 11388,18414 11474,18414 11474,18005 C 11474,17916 11406,17858 11302,17858 11222,17858 11171,17889 11123,17964 L 11123,17873 11044,17873 Z"/>
         <path fill="rgb(63,110,158)" stroke="none" d="M 11807,17873 L 11718,17873 11718,17725 11633,17725 11633,17873 11559,17873 11559,17943 11633,17943 11633,18352 C 11633,18406 11670,18437 11737,18437 11758,18437 11778,18435 11807,18430 L 11807,18358 C 11795,18361 11782,18362 11766,18362 11728,18362 11718,18352 11718,18313 L 11718,17943 11807,17943 11807,17873 Z"/>
         <path fill="rgb(63,110,158)" stroke="none" d="M 12428,18543 L 11809,18543 11809,18595 12428,18595 12428,18543 Z"/>
         <path fill="rgb(63,110,158)" stroke="none" d="M 12699,18414 L 12906,17873 12809,17873 12656,18311 12512,17873 12415,17873 12605,18414 12699,18414 Z"/>
         <path fill="rgb(63,110,158)" stroke="none" d="M 13187,17893 L 13187,18414 13279,18414 13279,17683 13218,17683 C 13186,17795 13166,17811 13026,17828 L 13026,17893 13187,17893 Z"/>
         <path fill="rgb(63,110,158)" stroke="none" d="M 14090,18543 L 13471,18543 13471,18595 14090,18595 14090,18543 Z"/>
         <path fill="rgb(63,110,158)" stroke="none" d="M 14351,17683 C 14283,17683 14221,17712 14183,17763 14136,17827 14112,17925 14112,18060 14112,18307 14194,18437 14351,18437 14506,18437 14590,18307 14590,18066 14590,17924 14568,17829 14519,17763 14481,17711 14420,17683 14351,17683 L 14351,17683 Z M 14351,17763 C 14449,17763 14497,17862 14497,18058 14497,18265 14450,18362 14349,18362 14253,18362 14204,18261 14204,18061 14204,17861 14253,17763 14351,17763 L 14351,17763 Z"/>
         <path fill="none" stroke="rgb(0,0,0)" stroke-width="430" stroke-linejoin="miter" d="M 4785,13721 L 5644,13721"/>
         <path fill="rgb(0,0,0)" stroke="none" d="M 6223,13841 L 6288,14029 6377,14029 6157,13403 6054,13403 5830,14029 5916,14029 5982,13841 6223,13841 Z M 6201,13774 L 6001,13774 6105,13489 6201,13774 Z"/>
         <path fill="rgb(0,0,0)" stroke="none" d="M 6886,14138 L 6370,14138 6370,14180 6886,14180 6886,14138 Z"/>
         <path fill="rgb(0,0,0)" stroke="none" d="M 6996,13579 L 6925,13579 6925,14029 6996,14029 6996,13579 Z M 6996,13403 L 6924,13403 6924,13493 6996,13493 6996,13403 Z"/>
         <path fill="rgb(0,0,0)" stroke="none" d="M 7273,13403 L 7113,13403 7113,14211 7273,14211 7273,14149 7184,14149 7184,13464 7273,13464 7273,13403 Z"/>
         <path fill="rgb(0,0,0)" stroke="none" d="M 7486,13750 L 7496,13750 7528,13749 C 7611,13749 7654,13787 7654,13860 7654,13936 7607,13982 7528,13982 7445,13982 7405,13940 7400,13852 L 7324,13852 C 7328,13901 7336,13933 7351,13960 7382,14019 7442,14049 7525,14049 7651,14049 7732,13974 7732,13859 7732,13782 7702,13738 7628,13714 7685,13691 7713,13648 7713,13587 7713,13483 7644,13420 7528,13420 7405,13420 7340,13487 7337,13616 L 7412,13616 C 7413,13580 7417,13559 7426,13540 7443,13506 7481,13486 7529,13486 7595,13486 7636,13525 7636,13590 7636,13633 7621,13659 7587,13673 7566,13681 7540,13685 7486,13685 L 7486,13750 Z"/>
         <path fill="rgb(0,0,0)" stroke="none" d="M 7958,13940 L 7869,13940 7869,14029 7958,14029 7958,13940 Z M 7958,13579 L 7869,13579 7869,13668 7958,13668 7958,13579 Z"/>
         <path fill="rgb(0,0,0)" stroke="none" d="M 8250,13420 C 8193,13420 8141,13445 8110,13487 8070,13540 8050,13622 8050,13735 8050,13940 8119,14049 8250,14049 8379,14049 8449,13940 8449,13739 8449,13621 8430,13542 8390,13487 8358,13444 8307,13420 8250,13420 L 8250,13420 Z M 8250,13487 C 8331,13487 8372,13569 8372,13733 8372,13906 8332,13986 8248,13986 8168,13986 8128,13902 8128,13735 8128,13568 8168,13487 8250,13487 L 8250,13487 Z"/>
         <path fill="rgb(0,0,0)" stroke="none" d="M 8511,14211 L 8671,14211 8671,13403 8511,13403 8511,13464 8600,13464 8600,14149 8511,14149 8511,14211 Z"/>
         <path fill="none" stroke="rgb(0,0,0)" stroke-width="258" stroke-linejoin="miter" d="M 4785,15439 L 5644,15439"/>
         <path fill="rgb(0,0,0)" stroke="none" d="M 6385,15316 C 6360,15178 6281,15111 6143,15111 6059,15111 5991,15137 5945,15189 5888,15251 5857,15340 5857,15442 5857,15545 5889,15633 5948,15694 5997,15744 6058,15767 6140,15767 6293,15767 6379,15685 6398,15519 L 6315,15519 C 6309,15562 6300,15591 6287,15616 6261,15668 6208,15697 6141,15697 6016,15697 5937,15597 5937,15441 5937,15280 6013,15181 6134,15181 6184,15181 6232,15197 6258,15221 6281,15242 6293,15269 6303,15316 L 6385,15316 Z"/>
         <path fill="rgb(0,0,0)" stroke="none" d="M 6933,15856 L 6417,15856 6417,15899 6933,15899 6933,15856 Z"/>
         <path fill="rgb(0,0,0)" stroke="none" d="M 7043,15297 L 6972,15297 6972,15748 7043,15748 7043,15297 Z M 7043,15121 L 6971,15121 6971,15211 7043,15211 7043,15121 Z"/>
         <path fill="none" stroke="rgb(0,0,0)" stroke-width="430" stroke-linejoin="miter" d="M 16816,13721 L 15957,13721"/>
         <path fill="rgb(0,0,0)" stroke="none" d="M 12916,13784 L 13152,13403 13056,13403 12878,13708 12693,13403 12595,13403 12836,13784 12836,14029 12916,14029 12916,13784 Z"/>
         <path fill="rgb(0,0,0)" stroke="none" d="M 13653,14138 L 13138,14138 13138,14180 13653,14180 13653,14138 Z"/>
         <path fill="rgb(0,0,0)" stroke="none" d="M 13869,13566 C 13742,13566 13666,13656 13666,13807 13666,13959 13741,14049 13869,14049 13995,14049 14073,13959 14073,13811 14073,13655 13998,13566 13869,13566 L 13869,13566 Z M 13869,13632 C 13950,13632 13998,13698 13998,13810 13998,13916 13948,13983 13869,13983 13789,13983 13740,13917 13740,13807 13740,13699 13789,13632 13869,13632 L 13869,13632 Z"/>
         <path fill="rgb(0,0,0)" stroke="none" d="M 14327,13403 L 14168,13403 14168,14211 14327,14211 14327,14149 14239,14149 14239,13464 14327,13464 14327,13403 Z"/>
         <path fill="rgb(0,0,0)" stroke="none" d="M 14541,13750 L 14551,13750 14582,13749 C 14666,13749 14709,13787 14709,13860 14709,13936 14661,13982 14582,13982 14500,13982 14460,13940 14454,13852 L 14379,13852 C 14382,13901 14391,13933 14406,13960 14437,14019 14497,14049 14580,14049 14705,14049 14786,13974 14786,13859 14786,13782 14756,13738 14683,13714 14740,13691 14768,13648 14768,13587 14768,13483 14699,13420 14582,13420 14460,13420 14394,13487 14391,13616 L 14467,13616 C 14468,13580 14471,13559 14481,13540 14498,13506 14536,13486 14583,13486 14650,13486 14691,13525 14691,13590 14691,13633 14675,13659 14642,13673 14621,13681 14594,13685 14541,13685 L 14541,13750 Z"/>
         <path fill="rgb(0,0,0)" stroke="none" d="M 15013,13940 L 14924,13940 14924,14029 15013,14029 15013,13940 Z M 15013,13579 L 14924,13579 14924,13668 15013,13668 15013,13579 Z"/>
         <path fill="rgb(0,0,0)" stroke="none" d="M 15304,13420 C 15248,13420 15196,13445 15164,13487 15125,13540 15105,13622 15105,13735 15105,13940 15174,14049 15304,14049 15433,14049 15503,13940 15503,13739 15503,13621 15485,13542 15444,13487 15412,13444 15362,13420 15304,13420 L 15304,13420 Z M 15304,13487 C 15386,13487 15426,13569 15426,13733 15426,13906 15387,13986 15302,13986 15223,13986 15182,13902 15182,13735 15182,13568 15223,13487 15304,13487 L 15304,13487 Z"/>
         <path fill="rgb(0,0,0)" stroke="none" d="M 15566,14211 L 15726,14211 15726,13403 15566,13403 15566,13464 15654,13464 15654,14149 15566,14149 15566,14211 Z"/>
         <path fill="none" stroke="rgb(0,0,0)" stroke-width="258" stroke-linejoin="miter" d="M 16816,15439 L 15957,15439"/>
         <path fill="rgb(0,0,0)" stroke="none" d="M 14777,15316 C 14753,15178 14674,15111 14536,15111 14452,15111 14384,15137 14337,15189 14281,15251 14250,15340 14250,15442 14250,15545 14282,15633 14341,15694 14389,15744 14451,15767 14533,15767 14686,15767 14771,15685 14790,15519 L 14708,15519 C 14701,15562 14693,15591 14679,15616 14654,15668 14600,15697 14534,15697 14409,15697 14330,15597 14330,15441 14330,15280 14405,15181 14526,15181 14577,15181 14625,15197 14650,15221 14674,15242 14686,15269 14696,15316 L 14777,15316 Z"/>
         <path fill="rgb(0,0,0)" stroke="none" d="M 15326,15856 L 14810,15856 14810,15899 15326,15899 15326,15856 Z"/>
         <path fill="rgb(0,0,0)" stroke="none" d="M 15541,15285 C 15414,15285 15338,15375 15338,15526 15338,15677 15413,15767 15541,15767 15668,15767 15745,15677 15745,15529 15745,15374 15670,15285 15541,15285 L 15541,15285 Z M 15541,15350 C 15622,15350 15670,15417 15670,15529 15670,15634 15621,15701 15541,15701 15461,15701 15412,15635 15412,15526 15412,15418 15461,15350 15541,15350 L 15541,15350 Z"/>
         <path fill="none" stroke="rgb(63,110,158)" stroke-width="86" stroke-linejoin="miter" d="M 6246,12002 L 15355,12002"/>
         <path fill="none" stroke="rgb(63,110,158)" stroke-width="86" stroke-linejoin="miter" d="M 15957,12604 C 15957,12594 15957,12585 15957,12575 15949,12251 15679,11994 15355,12002"/>
         <path fill="none" stroke="rgb(63,110,158)" stroke-width="86" stroke-linejoin="miter" d="M 15957,12604 L 15957,16556"/>
         <path fill="none" stroke="rgb(63,110,158)" stroke-width="86" stroke-linejoin="miter" d="M 15355,17158 C 15365,17158 15374,17158 15384,17158 15708,17150 15964,16880 15957,16556"/>
         <path fill="none" stroke="rgb(63,110,158)" stroke-width="86" stroke-linejoin="miter" d="M 15355,17158 L 6246,17158"/>
         <path fill="none" stroke="rgb(63,110,158)" stroke-width="86" stroke-linejoin="miter" d="M 5644,16556 C 5644,16566 5644,16575 5644,16585 5652,16909 5921,17166 6246,17158"/>
         <path fill="none" stroke="rgb(63,110,158)" stroke-width="86" stroke-linejoin="miter" d="M 5644,16556 L 5644,12604"/>
         <path fill="none" stroke="rgb(63,110,158)" stroke-width="86" stroke-linejoin="miter" d="M 6246,12002 C 6236,12002 6226,12002 6217,12002 5893,12010 5636,12279 5644,12604"/>
        </g>
       </g>
      </g>
     </g>
    </g>
   </g>
  </g>
 </g>
</svg>