<?xml version="1.0" encoding="UTF-8"?>
<!DOCTYPE svg PUBLIC "-//W3C//DTD SVG 1.1//EN" "http://www.w3.org/Graphics/SVG/1.1/DTD/svg11.dtd">
<svg version="1.2" width="138.99mm" height="113.99mm" viewBox="3800 8300 13899 11399" preserveAspectRatio="xMidYMid" fill-rule="evenodd" stroke-width="28.222" stroke-linejoin="round" xmlns="http://www.w3.org/2000/svg" xmlns:ooo="http://xml.openoffice.org/svg/export" xmlns:xlink="http://www.w3.org/1999/xlink" xmlns:presentation="http://sun.com/xmlns/staroffice/presentation" xmlns:smil="http://www.w3.org/2001/SMIL20/" xmlns:anim="urn:oasis:names:tc:opendocument:xmlns:animation:1.0" xml:space="preserve">
 <defs class="ClipPathGroup">
  <clipPath id="presentation_clip_path" clipPathUnits="userSpaceOnUse">
   <rect x="3800" y="8300" width="13899" height="11399"/>
  </clipPath>
  <clipPath id="presentation_clip_path_shrink" clipPathUnits="userSpaceOnUse">
   <rect x="3813" y="8311" width="13872" height="11377"/>
  </clipPath>
 </defs>
 <defs class="TextShapeIndex">
  <g ooo:slide="id1" ooo:id-list="id3"/>
 </defs>
 <defs class="EmbeddedBulletChars">
  <g id="bullet-char-template-57356" transform="scale(0.00048828125,-0.00048828125)">
   <path d="M 580,1141 L 1163,571 580,0 -4,571 580,1141 Z"/>
  </g>
  <g id="bullet-char-template-57354" transform="scale(0.00048828125,-0.00048828125)">
   <path d="M 8,1128 L 1137,1128 1137,0 8,0 8,1128 Z"/>
  </g>
  <g id="bullet-char-template-10146" transform="scale(0.00048828125,-0.00048828125)">
   <path d="M 174,0 L 602,739 174,1481 1456,739 174,0 Z M 1358,739 L 309,1346 659,739 1358,739 Z"/>
  </g>
  <g id="bullet-char-template-10132" transform="scale(0.00048828125,-0.00048828125)">
   <path d="M 2015,739 L 1276,0 717,0 1260,543 174,543 174,936 1260,936 717,1481 1274,1481 2015,739 Z"/>
  </g>
  <g id="bullet-char-template-10007" transform="scale(0.00048828125,-0.00048828125)">
   <path d="M 0,-2 C -7,14 -16,27 -25,37 L 356,567 C 262,823 215,952 215,954 215,979 228,992 255,992 264,992 276,990 289,987 310,991 331,999 354,1012 L 381,999 492,748 772,1049 836,1024 860,1049 C 881,1039 901,1025 922,1006 886,937 835,863 770,784 769,783 710,716 594,584 L 774,223 C 774,196 753,168 711,139 L 727,119 C 717,90 699,76 672,76 641,76 570,178 457,381 L 164,-76 C 142,-110 111,-127 72,-127 30,-127 9,-110 8,-76 1,-67 -2,-52 -2,-32 -2,-23 -1,-13 0,-2 Z"/>
  </g>
  <g id="bullet-char-template-10004" transform="scale(0.00048828125,-0.00048828125)">
   <path d="M 285,-33 C 182,-33 111,30 74,156 52,228 41,333 41,471 41,549 55,616 82,672 116,743 169,778 240,778 293,778 328,747 346,684 L 369,508 C 377,444 397,411 428,410 L 1163,1116 C 1174,1127 1196,1133 1229,1133 1271,1133 1292,1118 1292,1087 L 1292,965 C 1292,929 1282,901 1262,881 L 442,47 C 390,-6 338,-33 285,-33 Z"/>
  </g>
  <g id="bullet-char-template-9679" transform="scale(0.00048828125,-0.00048828125)">
   <path d="M 813,0 C 632,0 489,54 383,161 276,268 223,411 223,592 223,773 276,916 383,1023 489,1130 632,1184 813,1184 992,1184 1136,1130 1245,1023 1353,916 1407,772 1407,592 1407,412 1353,268 1245,161 1136,54 992,0 813,0 Z"/>
  </g>
  <g id="bullet-char-template-8226" transform="scale(0.00048828125,-0.00048828125)">
   <path d="M 346,457 C 273,457 209,483 155,535 101,586 74,649 74,723 74,796 101,859 155,911 209,963 273,989 346,989 419,989 480,963 531,910 582,859 608,796 608,723 608,648 583,586 532,535 482,483 420,457 346,457 Z"/>
  </g>
  <g id="bullet-char-template-8211" transform="scale(0.00048828125,-0.00048828125)">
   <path d="M -4,459 L 1135,459 1135,606 -4,606 -4,459 Z"/>
  </g>
  <g id="bullet-char-template-61548" transform="scale(0.00048828125,-0.00048828125)">
   <path d="M 173,740 C 173,903 231,1043 346,1159 462,1274 601,1332 765,1332 928,1332 1067,1274 1183,1159 1299,1043 1357,903 1357,740 1357,577 1299,437 1183,322 1067,206 928,148 765,148 601,148 462,206 346,322 231,437 173,577 173,740 Z"/>
  </g>
 </defs>
 <defs class="TextEmbeddedBitmaps"/>
 <g class="SlideGroup">
  <g>
   <g id="container-id1">
    <g id="id1" class="Slide" clip-path="url(#presentation_clip_path)">
     <g class="Page">
      <g class="Graphic">
       <g id="id3">
        <rect class="BoundingBox" stroke="none" fill="none" x="3800" y="8300" width="13900" height="11400"/>
        <defs>
         <clipPath id="clip_path_1" clipPathUnits="userSpaceOnUse">
          <path d="M 3800,8300 L 17699,8300 17699,19699 3800,19699 3800,8300 Z"/>
         </clipPath>
        </defs>
        <g clip-path="url(#clip_path_1)"/>
        <defs>
         <clipPath id="clip_path_2" clipPathUnits="userSpaceOnUse">
          <path d="M 3800,8300 L 17699,8300 17699,19699 3800,19699 3800,8300 Z"/>
         </clipPath>
        </defs>
        <g clip-path="url(#clip_path_2)">
         <path fill="rgb(255,255,255)" stroke="none" d="M 2107,7407 L 19295,7407 19295,21085 2107,21085 2107,7407 Z"/>
        </g>
        <g clip-path="url(#clip_path_1)">
         <path fill="rgb(0,0,0)" stroke="none" d="M 5831,9913 L 16287,9913 16502,9985 16645,10056 16717,10200 16788,10414 16788,18006 16717,18220 16645,18364 16502,18435 16287,18507 5831,18507 5616,18435 5473,18364 5401,18220 5329,18006 5329,10414 5401,10200 5473,10056 5616,9985 5831,9913 Z"/>
        </g>
        <defs>
         <clipPath id="clip_path_3" clipPathUnits="userSpaceOnUse">
          <path d="M 5473,9555 L 15929,9555 16144,9627 16287,9698 16358,9842 16430,10056 16430,17647 16358,17862 16287,18006 16144,18077 15929,18149 5473,18149 5258,18077 5115,18006 5043,17862 4971,17647 4971,10056 5043,9842 5115,9698 5258,9627 5473,9555 Z"/>
         </clipPath>
        </defs>
        <g clip-path="url(#clip_path_3)"/>
        <defs>
         <clipPath id="clip_path_4" clipPathUnits="userSpaceOnUse">
          <path d="M 5473,9555 L 15929,9555 16144,9627 16287,9698 16358,9842 16430,10056 16430,17647 16358,17862 16287,18006 16144,18077 15929,18149 5473,18149 5258,18077 5115,18006 5043,17862 4971,17647 4971,10056 5043,9842 5115,9698 5258,9627 5473,9555 Z"/>
         </clipPath>
        </defs>
        <g clip-path="url(#clip_path_4)">
         <path fill="rgb(188,211,236)" stroke="none" d="M 803,14907 L 987,15050 9471,4143 9287,3999 803,14907 Z"/>
         <path fill="rgb(188,212,236)" stroke="none" d="M 979,15044 L 1164,15187 9647,4280 9463,4137 979,15044 Z"/>
         <path fill="rgb(189,212,236)" stroke="none" d="M 1156,15181 L 1340,15325 9824,4417 9640,4274 1156,15181 Z"/>
         <path fill="rgb(190,213,236)" stroke="none" d="M 1333,15319 L 1517,15462 10001,4555 9817,4411 1333,15319 Z"/>
         <path fill="rgb(191,213,236)" stroke="none" d="M 1509,15456 L 1693,15599 10177,4692 9993,4549 1509,15456 Z"/>
         <path fill="rgb(191,214,237)" stroke="none" d="M 1686,15594 L 1870,15737 10354,4829 10170,4686 1686,15594 Z"/>
         <path fill="rgb(192,214,237)" stroke="none" d="M 1862,15731 L 2047,15874 10531,4967 10346,4824 1862,15731 Z"/>
         <path fill="rgb(193,215,237)" stroke="none" d="M 2039,15868 L 2223,16012 10707,5104 10523,4961 2039,15868 Z"/>
         <path fill="rgb(194,215,237)" stroke="none" d="M 2216,16006 L 2400,16149 10884,5242 10700,5098 2216,16006 Z"/>
         <path fill="rgb(195,215,237)" stroke="none" d="M 2392,16143 L 2577,16286 11061,5379 10876,5236 2392,16143 Z"/>
         <path fill="rgb(196,216,237)" stroke="none" d="M 2569,16280 L 2753,16424 11237,5516 11053,5373 2569,16280 Z"/>
         <path fill="rgb(196,216,238)" stroke="none" d="M 2746,16418 L 2930,16561 11414,5654 11230,5510 2746,16418 Z"/>
         <path fill="rgb(197,217,238)" stroke="none" d="M 2922,16555 L 3107,16698 11590,5791 11406,5648 2922,16555 Z"/>
         <path fill="rgb(198,217,238)" stroke="none" d="M 3099,16693 L 3283,16836 11767,5928 11583,5785 3099,16693 Z"/>
         <path fill="rgb(199,218,238)" stroke="none" d="M 3276,16830 L 3460,16973 11944,6066 11759,5923 3276,16830 Z"/>
         <path fill="rgb(200,218,238)" stroke="none" d="M 3452,16967 L 3636,17111 12120,6203 11936,6060 3452,16967 Z"/>
         <path fill="rgb(201,219,238)" stroke="none" d="M 3629,17105 L 3813,17248 12297,6341 12113,6197 3629,17105 Z"/>
         <path fill="rgb(201,219,239)" stroke="none" d="M 3805,17242 L 3990,17385 12474,6478 12289,6335 3805,17242 Z"/>
         <path fill="rgb(202,220,239)" stroke="none" d="M 3982,17379 L 4166,17523 12650,6615 12466,6472 3982,17379 Z"/>
         <path fill="rgb(203,220,239)" stroke="none" d="M 4159,17517 L 4343,17660 12827,6753 12643,6609 4159,17517 Z"/>
         <path fill="rgb(204,221,239)" stroke="none" d="M 4335,17654 L 4520,17797 13003,6890 12819,6747 4335,17654 Z"/>
         <path fill="rgb(205,221,239)" stroke="none" d="M 4512,17792 L 4696,17935 13180,7027 12996,6884 4512,17792 Z"/>
         <path fill="rgb(205,222,239)" stroke="none" d="M 4689,17929 L 4873,18072 13357,7165 13173,7022 4689,17929 Z"/>
         <path fill="rgb(206,222,240)" stroke="none" d="M 4865,18066 L 4975,18152 13459,7244 13349,7159 4865,18066 Z"/>
         <path fill="rgb(207,223,240)" stroke="none" d="M 4968,18146 L 5049,18210 13533,7302 13451,7238 4968,18146 Z"/>
         <path fill="rgb(208,223,240)" stroke="none" d="M 5042,18204 L 5226,18347 13710,7440 13526,7296 5042,18204 Z"/>
         <path fill="rgb(208,223,240)" stroke="none" d="M 5219,18341 L 5403,18484 13887,7577 13702,7434 5219,18341 Z"/>
         <path fill="rgb(209,224,240)" stroke="none" d="M 5395,18478 L 5579,18622 14063,7714 13879,7571 5395,18478 Z"/>
         <path fill="rgb(210,224,240)" stroke="none" d="M 5572,18616 L 5756,18759 14240,7852 14056,7708 5572,18616 Z"/>
         <path fill="rgb(210,225,240)" stroke="none" d="M 5748,18753 L 5933,18896 14417,7989 14232,7846 5748,18753 Z"/>
         <path fill="rgb(211,225,241)" stroke="none" d="M 5925,18891 L 6109,19034 14593,8126 14409,7983 5925,18891 Z"/>
         <path fill="rgb(212,226,241)" stroke="none" d="M 6102,19028 L 6286,19171 14770,8264 14586,8121 6102,19028 Z"/>
         <path fill="rgb(213,226,241)" stroke="none" d="M 6278,19165 L 6463,19309 14946,8401 14762,8258 6278,19165 Z"/>
         <path fill="rgb(214,227,241)" stroke="none" d="M 6455,19303 L 6639,19446 15123,8539 14939,8395 6455,19303 Z"/>
         <path fill="rgb(214,227,241)" stroke="none" d="M 6632,19440 L 6816,19583 15300,8676 15115,8533 6632,19440 Z"/>
         <path fill="rgb(215,228,241)" stroke="none" d="M 6808,19577 L 6992,19721 15476,8813 15292,8670 6808,19577 Z"/>
         <path fill="rgb(216,228,242)" stroke="none" d="M 6985,19715 L 7169,19858 15653,8951 15469,8807 6985,19715 Z"/>
         <path fill="rgb(217,229,242)" stroke="none" d="M 7161,19852 L 7346,19995 15830,9088 15645,8945 7161,19852 Z"/>
         <path fill="rgb(218,229,242)" stroke="none" d="M 7338,19990 L 7522,20133 16006,9225 15822,9082 7338,19990 Z"/>
         <path fill="rgb(219,230,242)" stroke="none" d="M 7515,20127 L 7699,20270 16183,9363 15999,9220 7515,20127 Z"/>
         <path fill="rgb(219,230,242)" stroke="none" d="M 7691,20264 L 7876,20408 16360,9500 16175,9357 7691,20264 Z"/>
         <path fill="rgb(220,231,242)" stroke="none" d="M 7868,20402 L 7950,20465 16434,9558 16352,9494 7868,20402 Z"/>
         <path fill="rgb(221,231,242)" stroke="none" d="M 7942,20460 L 8052,20545 16536,9638 16426,9552 7942,20460 Z"/>
         <path fill="rgb(221,232,243)" stroke="none" d="M 8045,20539 L 8229,20682 16713,9775 16529,9632 8045,20539 Z"/>
         <path fill="rgb(222,232,243)" stroke="none" d="M 8221,20676 L 8406,20820 16889,9912 16705,9769 8221,20676 Z"/>
         <path fill="rgb(223,232,243)" stroke="none" d="M 8398,20814 L 8582,20957 17066,10050 16882,9906 8398,20814 Z"/>
         <path fill="rgb(224,233,243)" stroke="none" d="M 8575,20951 L 8759,21094 17243,10187 17058,10044 8575,20951 Z"/>
         <path fill="rgb(224,233,243)" stroke="none" d="M 8751,21089 L 8935,21232 17419,10324 17235,10181 8751,21089 Z"/>
         <path fill="rgb(225,234,243)" stroke="none" d="M 8928,21226 L 9112,21369 17596,10462 17412,10319 8928,21226 Z"/>
         <path fill="rgb(226,234,243)" stroke="none" d="M 9104,21363 L 9289,21507 17773,10599 17588,10456 9104,21363 Z"/>
         <path fill="rgb(227,235,244)" stroke="none" d="M 9281,21501 L 9465,21644 17949,10737 17765,10593 9281,21501 Z"/>
         <path fill="rgb(228,235,244)" stroke="none" d="M 9458,21638 L 9642,21781 18126,10874 17942,10731 9458,21638 Z"/>
         <path fill="rgb(228,236,244)" stroke="none" d="M 9634,21775 L 9819,21919 18302,11011 18118,10868 9634,21775 Z"/>
         <path fill="rgb(229,236,244)" stroke="none" d="M 9811,21913 L 9995,22056 18479,11149 18295,11005 9811,21913 Z"/>
         <path fill="rgb(230,237,244)" stroke="none" d="M 9988,22050 L 10172,22193 18656,11286 18472,11143 9988,22050 Z"/>
         <path fill="rgb(231,237,244)" stroke="none" d="M 10164,22188 L 10348,22331 18832,11423 18648,11280 10164,22188 Z"/>
         <path fill="rgb(232,238,245)" stroke="none" d="M 10341,22325 L 10525,22468 19009,11561 18825,11418 10341,22325 Z"/>
         <path fill="rgb(233,238,245)" stroke="none" d="M 10518,22462 L 10702,22606 19186,11698 19001,11555 10518,22462 Z"/>
         <path fill="rgb(233,239,245)" stroke="none" d="M 10694,22600 L 10878,22743 19362,11836 19178,11692 10694,22600 Z"/>
         <path fill="rgb(234,239,245)" stroke="none" d="M 10871,22737 L 11055,22880 19539,11973 19355,11830 10871,22737 Z"/>
         <path fill="rgb(235,240,245)" stroke="none" d="M 11047,22874 L 11232,23018 19716,12110 19531,11967 11047,22874 Z"/>
         <path fill="rgb(236,240,245)" stroke="none" d="M 11224,23012 L 11408,23155 19892,12248 19708,12104 11224,23012 Z"/>
         <path fill="rgb(237,241,246)" stroke="none" d="M 11401,23149 L 11585,23292 20069,12385 19885,12242 11401,23149 Z"/>
         <path fill="rgb(237,241,246)" stroke="none" d="M 11577,23287 L 11762,23430 20245,12522 20061,12379 11577,23287 Z"/>
         <path fill="rgb(238,242,246)" stroke="none" d="M 11754,23424 L 11938,23567 20422,12660 20238,12517 11754,23424 Z"/>
         <path fill="rgb(239,242,246)" stroke="none" d="M 11931,23561 L 12115,23705 20599,12797 20414,12654 11931,23561 Z"/>
         <path fill="rgb(240,243,246)" stroke="none" d="M 12107,23699 L 12115,23705 20599,12797 20591,12791 12107,23699 Z"/>
        </g>
        <g clip-path="url(#clip_path_3)"/>
        <g clip-path="url(#clip_path_1)">
         <path fill="rgb(0,0,0)" stroke="none" d="M 8810,8608 L 8738,8608 8738,8841 C 8708,8795 8660,8771 8600,8771 8483,8771 8406,8864 8406,9008 8406,9160 8481,9254 8603,9254 8664,9254 8707,9231 8746,9175 L 8746,9234 8810,9234 8810,8608 Z M 8612,8838 C 8689,8838 8738,8906 8738,9014 8738,9118 8688,9186 8613,9186 8534,9186 8481,9117 8481,9012 8481,8907 8534,8838 8612,8838 L 8612,8838 Z"/>
         <path fill="rgb(0,0,0)" stroke="none" d="M 8991,8783 L 8920,8783 8920,9234 8991,9234 8991,8783 Z M 8991,8608 L 8919,8608 8919,8698 8991,8698 8991,8608 Z"/>
         <path fill="rgb(0,0,0)" stroke="none" d="M 9429,8909 C 9428,8821 9370,8771 9266,8771 9161,8771 9093,8825 9093,8908 9093,8979 9129,9012 9236,9038 L 9303,9054 C 9353,9066 9373,9084 9373,9117 9373,9159 9330,9187 9268,9187 9229,9187 9196,9176 9178,9157 9167,9145 9162,9132 9157,9100 L 9082,9100 C 9085,9204 9144,9254 9262,9254 9375,9254 9447,9198 9447,9111 9447,9044 9409,9007 9320,8985 L 9251,8969 C 9193,8955 9168,8937 9168,8905 9168,8863 9205,8837 9264,8837 9321,8837 9352,8862 9354,8909 L 9429,8909 Z"/>
         <path fill="rgb(0,0,0)" stroke="none" d="M 9529,9421 L 9601,9421 9601,9186 C 9639,9233 9681,9254 9739,9254 9856,9254 9932,9160 9932,9016 9932,8865 9858,8771 9739,8771 9678,8771 9629,8798 9595,8852 L 9595,8783 9529,8783 9529,9421 Z M 9727,8838 C 9806,8838 9857,8907 9857,9015 9857,9117 9805,9186 9727,9186 9651,9186 9601,9118 9601,9012 9601,8906 9651,8838 9727,8838 L 9727,8838 Z"/>
         <path fill="rgb(0,0,0)" stroke="none" d="M 10457,9342 L 9941,9342 9941,9385 10457,9385 10457,9342 Z"/>
         <path fill="rgb(0,0,0)" stroke="none" d="M 10498,8783 L 10498,9234 10570,9234 10570,8951 C 10570,8886 10618,8833 10676,8833 10729,8833 10759,8866 10759,8924 L 10759,9234 10832,9234 10832,8951 C 10832,8886 10879,8833 10938,8833 10990,8833 11021,8867 11021,8924 L 11021,9234 11093,9234 11093,8896 C 11093,8815 11047,8771 10962,8771 10902,8771 10866,8789 10824,8840 10798,8791 10761,8771 10703,8771 10643,8771 10603,8793 10565,8847 L 10565,8783 10498,8783 Z"/>
         <path fill="rgb(0,0,0)" stroke="none" d="M 11568,9234 L 11568,8783 11497,8783 11497,9039 C 11497,9131 11449,9191 11374,9191 11317,9191 11281,9156 11281,9103 L 11281,8783 11210,8783 11210,9131 C 11210,9205 11266,9254 11354,9254 11420,9254 11462,9231 11504,9171 L 11504,9234 11568,9234 Z"/>
         <path fill="rgb(0,0,0)" stroke="none" d="M 11883,9001 L 12034,8783 11953,8783 11845,8947 11737,8783 11655,8783 11805,9004 11646,9234 11728,9234 11843,9061 11955,9234 12038,9234 11883,9001 Z"/>
         <path fill="rgb(0,0,0)" stroke="none" d="M 12558,9342 L 12043,9342 12043,9385 12558,9385 12558,9342 Z"/>
         <path fill="rgb(0,0,0)" stroke="none" d="M 12776,8625 C 12719,8625 12667,8650 12636,8692 12596,8745 12576,8827 12576,8939 12576,9145 12645,9254 12776,9254 12905,9254 12975,9145 12975,8944 12975,8826 12956,8747 12916,8692 12884,8649 12833,8625 12776,8625 L 12776,8625 Z M 12776,8692 C 12857,8692 12898,8774 12898,8937 12898,9110 12858,9191 12774,9191 12694,9191 12654,9107 12654,8940 12654,8773 12694,8692 12776,8692 L 12776,8692 Z"/>
         <path fill="rgb(63,110,158)" stroke="none" d="M 8117,18569 L 8046,18569 8046,18802 C 8016,18756 7967,18732 7907,18732 7790,18732 7714,18826 7714,18969 7714,19121 7788,19215 7910,19215 7972,19215 8015,19192 8053,19136 L 8053,19195 8117,19195 8117,18569 Z M 7919,18799 C 7997,18799 8046,18868 8046,18976 8046,19080 7996,19148 7920,19148 7841,19148 7788,19079 7788,18974 7788,18869 7841,18799 7919,18799 L 7919,18799 Z"/>
         <path fill="rgb(63,110,158)" stroke="none" d="M 8298,18745 L 8227,18745 8227,19195 8298,19195 8298,18745 Z M 8298,18569 L 8226,18569 8226,18659 8298,18659 8298,18569 Z"/>
         <path fill="rgb(63,110,158)" stroke="none" d="M 8737,18870 C 8736,18782 8677,18732 8573,18732 8469,18732 8400,18787 8400,18870 8400,18940 8437,18974 8543,19000 L 8610,19016 C 8660,19028 8680,19046 8680,19079 8680,19121 8638,19149 8575,19149 8536,19149 8504,19138 8486,19119 8474,19106 8469,19093 8465,19061 L 8389,19061 C 8393,19165 8451,19215 8569,19215 8682,19215 8754,19159 8754,19072 8754,19006 8717,18969 8628,18947 L 8559,18931 C 8500,18917 8475,18898 8475,18867 8475,18825 8512,18798 8571,18798 8628,18798 8659,18823 8661,18870 L 8737,18870 Z"/>
         <path fill="rgb(63,110,158)" stroke="none" d="M 8836,19383 L 8909,19383 8909,19148 C 8946,19195 8988,19215 9047,19215 9163,19215 9239,19121 9239,18978 9239,18827 9165,18732 9046,18732 8985,18732 8936,18760 8902,18813 L 8902,18745 8836,18745 8836,19383 Z M 9034,18799 C 9113,18799 9164,18869 9164,18977 9164,19079 9112,19148 9034,19148 8958,19148 8909,19080 8909,18974 8909,18868 8958,18799 9034,18799 L 9034,18799 Z"/>
         <path fill="rgb(63,110,158)" stroke="none" d="M 9764,19304 L 9249,19304 9249,19347 9764,19347 9764,19304 Z"/>
         <path fill="rgb(63,110,158)" stroke="none" d="M 9806,18745 L 9806,19195 9878,19195 9878,18913 C 9878,18848 9925,18795 9983,18795 10037,18795 10067,18828 10067,18885 L 10067,19195 10139,19195 10139,18913 C 10139,18848 10186,18795 10245,18795 10297,18795 10328,18829 10328,18885 L 10328,19195 10400,19195 10400,18858 C 10400,18777 10354,18732 10270,18732 10210,18732 10173,18750 10132,18801 10105,18753 10069,18732 10010,18732 9950,18732 9911,18755 9872,18809 L 9872,18745 9806,18745 Z"/>
         <path fill="rgb(63,110,158)" stroke="none" d="M 10876,19195 L 10876,18745 10804,18745 10804,19000 C 10804,19092 10756,19152 10681,19152 10625,19152 10589,19118 10589,19064 L 10589,18745 10517,18745 10517,19092 C 10517,19167 10573,19215 10661,19215 10727,19215 10769,19192 10811,19132 L 10811,19195 10876,19195 Z"/>
         <path fill="rgb(63,110,158)" stroke="none" d="M 11190,18962 L 11341,18745 11260,18745 11152,18908 11044,18745 10962,18745 11113,18966 10954,19195 11036,19195 11150,19023 11262,19195 11346,19195 11190,18962 Z"/>
         <path fill="rgb(63,110,158)" stroke="none" d="M 11865,19304 L 11350,19304 11350,19347 11865,19347 11865,19304 Z"/>
         <path fill="rgb(63,110,158)" stroke="none" d="M 12092,19195 L 12264,18745 12183,18745 12057,19110 11936,18745 11855,18745 12013,19195 12092,19195 Z"/>
         <path fill="rgb(63,110,158)" stroke="none" d="M 12499,18761 L 12499,19195 12575,19195 12575,18586 12525,18586 C 12498,18680 12481,18693 12364,18707 L 12364,18761 12499,18761 Z"/>
         <path fill="rgb(63,110,158)" stroke="none" d="M 13251,19304 L 12735,19304 12735,19347 13251,19347 13251,19304 Z"/>
         <path fill="rgb(63,110,158)" stroke="none" d="M 13667,19121 L 13346,19121 C 13354,19071 13382,19039 13456,18995 L 13542,18949 C 13627,18902 13671,18840 13671,18765 13671,18714 13651,18667 13614,18635 13578,18602 13534,18586 13476,18586 13399,18586 13341,18614 13308,18665 13286,18698 13277,18736 13275,18798 L 13351,18798 C 13353,18756 13359,18731 13369,18712 13389,18675 13428,18652 13473,18652 13542,18652 13594,18701 13594,18767 13594,18815 13565,18856 13512,18887 L 13432,18931 C 13305,19004 13268,19061 13261,19195 L 13667,19195 13667,19121 Z"/>
         <path fill="none" stroke="rgb(0,0,0)" stroke-width="358" stroke-linejoin="miter" d="M 4255,10987 L 4971,10987"/>
         <path fill="rgb(0,0,0)" stroke="none" d="M 5469,10723 L 5410,10723 5410,10916 C 5384,10879 5344,10858 5294,10858 5197,10858 5133,10936 5133,11056 5133,11183 5195,11261 5296,11261 5348,11261 5384,11242 5416,11195 L 5416,11244 5469,11244 5469,10723 Z M 5304,10915 C 5369,10915 5410,10972 5410,11061 5410,11148 5368,11205 5305,11205 5239,11205 5195,11147 5195,11060 5195,10972 5239,10915 5304,10915 L 5304,10915 Z"/>
         <path fill="rgb(0,0,0)" stroke="none" d="M 5896,11210 C 5889,11211 5887,11211 5883,11211 5862,11211 5851,11200 5851,11181 L 5851,10961 C 5851,10894 5802,10858 5709,10858 5655,10858 5610,10874 5585,10902 5568,10921 5561,10943 5559,10980 L 5619,10980 C 5625,10934 5652,10914 5708,10914 5761,10914 5791,10934 5791,10969 L 5791,10985 C 5791,11010 5776,11021 5729,11027 5645,11038 5631,11040 5609,11050 5565,11068 5543,11101 5543,11150 5543,11218 5590,11261 5666,11261 5713,11261 5751,11244 5793,11206 5798,11244 5816,11261 5855,11261 5867,11261 5877,11259 5896,11255 L 5896,11210 Z M 5791,11126 C 5791,11147 5785,11159 5768,11175 5743,11197 5714,11209 5679,11209 5632,11209 5605,11186 5605,11149 5605,11109 5631,11089 5695,11080 5758,11071 5771,11068 5791,11059 L 5791,11126 Z"/>
         <path fill="rgb(0,0,0)" stroke="none" d="M 6093,10870 L 6031,10870 6031,10766 5972,10766 5972,10870 5921,10870 5921,10918 5972,10918 5972,11201 C 5972,11240 5998,11261 6044,11261 6058,11261 6073,11259 6093,11256 L 6093,11206 C 6085,11208 6076,11209 6064,11209 6038,11209 6031,11201 6031,11175 L 6031,10918 6093,10918 6093,10870 Z"/>
         <path fill="rgb(0,0,0)" stroke="none" d="M 6493,11210 C 6486,11211 6484,11211 6480,11211 6459,11211 6448,11200 6448,11181 L 6448,10961 C 6448,10894 6399,10858 6307,10858 6252,10858 6207,10874 6182,10902 6165,10921 6158,10943 6157,10980 L 6217,10980 C 6222,10934 6249,10914 6305,10914 6359,10914 6389,10934 6389,10969 L 6389,10985 C 6389,11010 6374,11021 6326,11027 6242,11038 6229,11040 6206,11050 6162,11068 6140,11101 6140,11150 6140,11218 6188,11261 6263,11261 6311,11261 6348,11244 6391,11206 6395,11244 6414,11261 6452,11261 6465,11261 6474,11259 6493,11255 L 6493,11210 Z M 6389,11126 C 6389,11147 6383,11159 6365,11175 6341,11197 6311,11209 6276,11209 6230,11209 6203,11186 6203,11149 6203,11109 6229,11089 6293,11080 6356,11071 6369,11068 6389,11059 L 6389,11126 Z"/>
         <path fill="rgb(0,0,0)" stroke="none" d="M 6667,11012 L 6674,11012 6701,11011 C 6770,11011 6806,11042 6806,11103 6806,11167 6767,11205 6701,11205 6632,11205 6598,11171 6594,11097 L 6531,11097 C 6534,11138 6541,11164 6553,11187 6579,11236 6629,11261 6699,11261 6803,11261 6871,11198 6871,11102 6871,11038 6845,11002 6785,10982 6832,10963 6856,10927 6856,10876 6856,10789 6797,10737 6701,10737 6598,10737 6544,10792 6542,10901 L 6605,10901 C 6606,10870 6609,10853 6616,10837 6631,10809 6662,10792 6702,10792 6757,10792 6791,10825 6791,10879 6791,10915 6778,10936 6750,10947 6733,10954 6711,10957 6667,10958 L 6667,11012 Z"/>
         <path fill="rgb(0,0,0)" stroke="none" d="M 7320,11335 L 6890,11335 6890,11370 7320,11370 7320,11335 Z"/>
         <path fill="rgb(0,0,0)" stroke="none" d="M 7412,10870 L 7353,10870 7353,11244 7412,11244 7412,10870 Z M 7412,10723 L 7352,10723 7352,10798 7412,10798 7412,10723 Z"/>
         <path fill="rgb(0,0,0)" stroke="none" d="M 7642,10723 L 7510,10723 7510,11396 7642,11396 7642,11345 7569,11345 7569,10774 7642,10774 7642,10723 Z"/>
         <path fill="rgb(0,0,0)" stroke="none" d="M 7821,11012 L 7829,11012 7856,11011 C 7925,11011 7961,11042 7961,11103 7961,11167 7921,11205 7856,11205 7787,11205 7753,11171 7748,11097 L 7685,11097 C 7688,11138 7696,11164 7708,11187 7733,11236 7784,11261 7853,11261 7958,11261 8025,11198 8025,11102 8025,11038 8000,11002 7939,10982 7986,10963 8010,10927 8010,10876 8010,10789 7952,10737 7856,10737 7753,10737 7699,10792 7696,10901 L 7760,10901 C 7760,10870 7763,10853 7771,10837 7785,10809 7817,10792 7856,10792 7912,10792 7946,10825 7946,10879 7946,10915 7933,10936 7905,10947 7887,10954 7865,10957 7821,10958 L 7821,11012 Z"/>
         <path fill="rgb(0,0,0)" stroke="none" d="M 8214,11170 L 8140,11170 8140,11244 8214,11244 8214,11170 Z M 8214,10870 L 8140,10870 8140,10944 8214,10944 8214,10870 Z"/>
         <path fill="rgb(0,0,0)" stroke="none" d="M 8457,10737 C 8410,10737 8367,10758 8340,10792 8307,10837 8291,10905 8291,10999 8291,11170 8348,11261 8457,11261 8564,11261 8623,11170 8623,11003 8623,10904 8607,10838 8573,10792 8547,10757 8505,10737 8457,10737 L 8457,10737 Z M 8457,10792 C 8525,10792 8558,10861 8558,10997 8558,11141 8525,11209 8455,11209 8389,11209 8355,11138 8355,11000 8355,10861 8389,10792 8457,10792 L 8457,10792 Z"/>
         <path fill="rgb(0,0,0)" stroke="none" d="M 8675,11396 L 8808,11396 8808,10723 8675,10723 8675,10774 8748,10774 8748,11345 8675,11345 8675,11396 Z"/>
         <path fill="none" stroke="rgb(0,0,0)" stroke-width="358" stroke-linejoin="miter" d="M 4255,12420 L 4971,12420"/>
         <path fill="rgb(0,0,0)" stroke="none" d="M 5469,12155 L 5410,12155 5410,12349 C 5384,12311 5344,12291 5294,12291 5197,12291 5133,12369 5133,12488 5133,12615 5195,12693 5296,12693 5348,12693 5384,12674 5416,12627 L 5416,12677 5469,12677 5469,12155 Z M 5304,12347 C 5369,12347 5410,12404 5410,12494 5410,12580 5368,12637 5305,12637 5239,12637 5195,12579 5195,12492 5195,12404 5239,12347 5304,12347 L 5304,12347 Z"/>
         <path fill="rgb(0,0,0)" stroke="none" d="M 5896,12642 C 5889,12643 5887,12643 5883,12643 5862,12643 5851,12632 5851,12614 L 5851,12393 C 5851,12326 5802,12291 5709,12291 5655,12291 5610,12307 5585,12335 5568,12354 5561,12375 5559,12413 L 5619,12413 C 5625,12367 5652,12346 5708,12346 5761,12346 5791,12366 5791,12402 L 5791,12418 C 5791,12443 5776,12453 5729,12459 5645,12470 5631,12473 5609,12482 5565,12500 5543,12533 5543,12582 5543,12650 5590,12693 5666,12693 5713,12693 5751,12677 5793,12638 5798,12676 5816,12693 5855,12693 5867,12693 5877,12692 5896,12687 L 5896,12642 Z M 5791,12559 C 5791,12579 5785,12591 5768,12607 5743,12629 5714,12641 5679,12641 5632,12641 5605,12619 5605,12581 5605,12542 5631,12521 5695,12512 5758,12503 5771,12500 5791,12491 L 5791,12559 Z"/>
         <path fill="rgb(0,0,0)" stroke="none" d="M 6093,12302 L 6031,12302 6031,12199 5972,12199 5972,12302 5921,12302 5921,12350 5972,12350 5972,12634 C 5972,12672 5998,12693 6044,12693 6058,12693 6073,12692 6093,12688 L 6093,12638 C 6085,12640 6076,12641 6064,12641 6038,12641 6031,12634 6031,12607 L 6031,12350 6093,12350 6093,12302 Z"/>
         <path fill="rgb(0,0,0)" stroke="none" d="M 6493,12642 C 6486,12643 6484,12643 6480,12643 6459,12643 6448,12632 6448,12614 L 6448,12393 C 6448,12326 6399,12291 6307,12291 6252,12291 6207,12307 6182,12335 6165,12354 6158,12375 6157,12413 L 6217,12413 C 6222,12367 6249,12346 6305,12346 6359,12346 6389,12366 6389,12402 L 6389,12418 C 6389,12443 6374,12453 6326,12459 6242,12470 6229,12473 6206,12482 6162,12500 6140,12533 6140,12582 6140,12650 6188,12693 6263,12693 6311,12693 6348,12677 6391,12638 6395,12676 6414,12693 6452,12693 6465,12693 6474,12692 6493,12687 L 6493,12642 Z M 6389,12559 C 6389,12579 6383,12591 6365,12607 6341,12629 6311,12641 6276,12641 6230,12641 6203,12619 6203,12581 6203,12542 6229,12521 6293,12512 6356,12503 6369,12500 6389,12491 L 6389,12559 Z"/>
         <path fill="rgb(0,0,0)" stroke="none" d="M 6871,12614 L 6604,12614 C 6610,12573 6633,12546 6695,12510 L 6767,12471 C 6838,12433 6874,12380 6874,12318 6874,12276 6857,12236 6827,12209 6797,12182 6760,12169 6712,12169 6647,12169 6599,12192 6571,12235 6553,12262 6546,12294 6544,12345 L 6607,12345 C 6609,12311 6613,12290 6622,12274 6639,12243 6671,12224 6709,12224 6767,12224 6810,12265 6810,12319 6810,12359 6786,12394 6741,12419 L 6675,12457 C 6569,12517 6538,12565 6532,12677 L 6871,12677 6871,12614 Z"/>
         <path fill="rgb(0,0,0)" stroke="none" d="M 7320,12767 L 6890,12767 6890,12803 7320,12803 7320,12767 Z"/>
         <path fill="rgb(0,0,0)" stroke="none" d="M 7412,12302 L 7353,12302 7353,12677 7412,12677 7412,12302 Z M 7412,12155 L 7352,12155 7352,12230 7412,12230 7412,12155 Z"/>
         <path fill="rgb(0,0,0)" stroke="none" d="M 7642,12155 L 7510,12155 7510,12828 7642,12828 7642,12777 7569,12777 7569,12206 7642,12206 7642,12155 Z"/>
         <path fill="rgb(0,0,0)" stroke="none" d="M 7821,12444 L 7829,12444 7856,12443 C 7925,12443 7961,12475 7961,12536 7961,12599 7921,12637 7856,12637 7787,12637 7753,12603 7748,12529 L 7685,12529 C 7688,12570 7696,12596 7708,12620 7733,12668 7784,12693 7853,12693 7958,12693 8025,12631 8025,12535 8025,12470 8000,12435 7939,12414 7986,12395 8010,12359 8010,12309 8010,12221 7952,12169 7856,12169 7753,12169 7699,12225 7696,12333 L 7760,12333 C 7760,12302 7763,12285 7771,12269 7785,12241 7817,12224 7856,12224 7912,12224 7946,12257 7946,12311 7946,12347 7933,12368 7905,12380 7887,12387 7865,12389 7821,12390 L 7821,12444 Z"/>
         <path fill="rgb(0,0,0)" stroke="none" d="M 8214,12602 L 8140,12602 8140,12677 8214,12677 8214,12602 Z M 8214,12302 L 8140,12302 8140,12376 8214,12376 8214,12302 Z"/>
         <path fill="rgb(0,0,0)" stroke="none" d="M 8457,12169 C 8410,12169 8367,12190 8340,12225 8307,12269 8291,12337 8291,12431 8291,12602 8348,12693 8457,12693 8564,12693 8623,12602 8623,12435 8623,12337 8607,12271 8573,12225 8547,12189 8505,12169 8457,12169 L 8457,12169 Z M 8457,12225 C 8525,12225 8558,12294 8558,12430 8558,12574 8525,12641 8455,12641 8389,12641 8355,12571 8355,12432 8355,12293 8389,12225 8457,12225 L 8457,12225 Z"/>
         <path fill="rgb(0,0,0)" stroke="none" d="M 8675,12828 L 8808,12828 8808,12155 8675,12155 8675,12206 8748,12206 8748,12777 8675,12777 8675,12828 Z"/>
         <path fill="none" stroke="rgb(0,0,0)" stroke-width="358" stroke-linejoin="miter" d="M 4255,13852 L 4971,13852"/>
         <path fill="rgb(0,0,0)" stroke="none" d="M 5469,13587 L 5410,13587 5410,13781 C 5384,13743 5344,13723 5294,13723 5197,13723 5133,13801 5133,13921 5133,14047 5195,14125 5296,14125 5348,14125 5384,14106 5416,14060 L 5416,14109 5469,14109 5469,13587 Z M 5304,13779 C 5369,13779 5410,13836 5410,13926 5410,14012 5368,14070 5305,14070 5239,14070 5195,14012 5195,13924 5195,13837 5239,13779 5304,13779 L 5304,13779 Z"/>
         <path fill="rgb(0,0,0)" stroke="none" d="M 5896,14074 C 5889,14076 5887,14076 5883,14076 5862,14076 5851,14064 5851,14046 L 5851,13826 C 5851,13759 5802,13723 5709,13723 5655,13723 5610,13739 5585,13767 5568,13786 5561,13808 5559,13845 L 5619,13845 C 5625,13799 5652,13778 5708,13778 5761,13778 5791,13798 5791,13834 L 5791,13850 C 5791,13875 5776,13886 5729,13892 5645,13902 5631,13905 5609,13914 5565,13932 5543,13966 5543,14015 5543,14082 5590,14125 5666,14125 5713,14125 5751,14109 5793,14070 5798,14109 5816,14125 5855,14125 5867,14125 5877,14124 5896,14119 L 5896,14074 Z M 5791,13991 C 5791,14011 5785,14023 5768,14040 5743,14062 5714,14073 5679,14073 5632,14073 5605,14051 5605,14013 5605,13974 5631,13954 5695,13944 5758,13936 5771,13933 5791,13923 L 5791,13991 Z"/>
         <path fill="rgb(0,0,0)" stroke="none" d="M 6093,13734 L 6031,13734 6031,13631 5972,13631 5972,13734 5921,13734 5921,13783 5972,13783 5972,14066 C 5972,14104 5998,14125 6044,14125 6058,14125 6073,14124 6093,14121 L 6093,14070 C 6085,14073 6076,14073 6064,14073 6038,14073 6031,14066 6031,14040 L 6031,13783 6093,13783 6093,13734 Z"/>
         <path fill="rgb(0,0,0)" stroke="none" d="M 6493,14074 C 6486,14076 6484,14076 6480,14076 6459,14076 6448,14064 6448,14046 L 6448,13826 C 6448,13759 6399,13723 6307,13723 6252,13723 6207,13739 6182,13767 6165,13786 6158,13808 6157,13845 L 6217,13845 C 6222,13799 6249,13778 6305,13778 6359,13778 6389,13798 6389,13834 L 6389,13850 C 6389,13875 6374,13886 6326,13892 6242,13902 6229,13905 6206,13914 6162,13932 6140,13966 6140,14015 6140,14082 6188,14125 6263,14125 6311,14125 6348,14109 6391,14070 6395,14109 6414,14125 6452,14125 6465,14125 6474,14124 6493,14119 L 6493,14074 Z M 6389,13991 C 6389,14011 6383,14023 6365,14040 6341,14062 6311,14073 6276,14073 6230,14073 6203,14051 6203,14013 6203,13974 6229,13954 6293,13944 6356,13936 6369,13933 6389,13923 L 6389,13991 Z"/>
         <path fill="rgb(0,0,0)" stroke="none" d="M 6694,13748 L 6694,14109 6757,14109 6757,13601 6715,13601 C 6693,13679 6679,13690 6581,13702 L 6581,13748 6694,13748 Z"/>
         <path fill="rgb(0,0,0)" stroke="none" d="M 7320,14199 L 6890,14199 6890,14235 7320,14235 7320,14199 Z"/>
         <path fill="rgb(0,0,0)" stroke="none" d="M 7412,13734 L 7353,13734 7353,14109 7412,14109 7412,13734 Z M 7412,13587 L 7352,13587 7352,13662 7412,13662 7412,13587 Z"/>
         <path fill="rgb(0,0,0)" stroke="none" d="M 7642,13587 L 7510,13587 7510,14261 7642,14261 7642,14209 7569,14209 7569,13639 7642,13639 7642,13587 Z"/>
         <path fill="rgb(0,0,0)" stroke="none" d="M 7821,13876 L 7829,13876 7856,13876 C 7925,13876 7961,13907 7961,13968 7961,14031 7921,14070 7856,14070 7787,14070 7753,14035 7748,13962 L 7685,13962 C 7688,14002 7696,14029 7708,14052 7733,14100 7784,14125 7853,14125 7958,14125 8025,14063 8025,13967 8025,13903 8000,13867 7939,13846 7986,13828 8010,13792 8010,13741 8010,13654 7952,13601 7856,13601 7753,13601 7699,13657 7696,13766 L 7760,13766 C 7760,13735 7763,13718 7771,13702 7785,13674 7817,13657 7856,13657 7912,13657 7946,13690 7946,13743 7946,13779 7933,13800 7905,13812 7887,13819 7865,13822 7821,13823 L 7821,13876 Z"/>
         <path fill="rgb(0,0,0)" stroke="none" d="M 8214,14034 L 8140,14034 8140,14109 8214,14109 8214,14034 Z M 8214,13734 L 8140,13734 8140,13808 8214,13808 8214,13734 Z"/>
         <path fill="rgb(0,0,0)" stroke="none" d="M 8457,13601 C 8410,13601 8367,13622 8340,13657 8307,13702 8291,13769 8291,13863 8291,14034 8348,14125 8457,14125 8564,14125 8623,14034 8623,13868 8623,13769 8607,13703 8573,13657 8547,13621 8505,13601 8457,13601 L 8457,13601 Z M 8457,13657 C 8525,13657 8558,13726 8558,13862 8558,14006 8525,14073 8455,14073 8389,14073 8355,14003 8355,13864 8355,13725 8389,13657 8457,13657 L 8457,13657 Z"/>
         <path fill="rgb(0,0,0)" stroke="none" d="M 8675,14261 L 8808,14261 8808,13587 8675,13587 8675,13639 8748,13639 8748,14209 8675,14209 8675,14261 Z"/>
         <path fill="none" stroke="rgb(0,0,0)" stroke-width="358" stroke-linejoin="miter" d="M 4255,15284 L 4971,15284"/>
         <path fill="rgb(0,0,0)" stroke="none" d="M 5469,15020 L 5410,15020 5410,15213 C 5384,15176 5344,15155 5294,15155 5197,15155 5133,15233 5133,15353 5133,15480 5195,15558 5296,15558 5348,15558 5384,15538 5416,15492 L 5416,15541 5469,15541 5469,15020 Z M 5304,15211 C 5369,15211 5410,15269 5410,15358 5410,15444 5368,15502 5305,15502 5239,15502 5195,15444 5195,15357 5195,15269 5239,15211 5304,15211 L 5304,15211 Z"/>
         <path fill="rgb(0,0,0)" stroke="none" d="M 5896,15506 C 5889,15508 5887,15508 5883,15508 5862,15508 5851,15497 5851,15478 L 5851,15258 C 5851,15191 5802,15155 5709,15155 5655,15155 5610,15171 5585,15199 5568,15218 5561,15240 5559,15277 L 5619,15277 C 5625,15231 5652,15210 5708,15210 5761,15210 5791,15231 5791,15266 L 5791,15282 C 5791,15307 5776,15318 5729,15324 5645,15334 5631,15337 5609,15347 5565,15364 5543,15398 5543,15447 5543,15515 5590,15558 5666,15558 5713,15558 5751,15541 5793,15503 5798,15541 5816,15558 5855,15558 5867,15558 5877,15556 5896,15551 L 5896,15506 Z M 5791,15423 C 5791,15443 5785,15456 5768,15472 5743,15494 5714,15505 5679,15505 5632,15505 5605,15483 5605,15445 5605,15406 5631,15386 5695,15377 5758,15368 5771,15365 5791,15356 L 5791,15423 Z"/>
         <path fill="rgb(0,0,0)" stroke="none" d="M 6093,15166 L 6031,15166 6031,15063 5972,15063 5972,15166 5921,15166 5921,15215 5972,15215 5972,15498 C 5972,15536 5998,15558 6044,15558 6058,15558 6073,15556 6093,15553 L 6093,15503 C 6085,15505 6076,15505 6064,15505 6038,15505 6031,15498 6031,15472 L 6031,15215 6093,15215 6093,15166 Z"/>
         <path fill="rgb(0,0,0)" stroke="none" d="M 6493,15506 C 6486,15508 6484,15508 6480,15508 6459,15508 6448,15497 6448,15478 L 6448,15258 C 6448,15191 6399,15155 6307,15155 6252,15155 6207,15171 6182,15199 6165,15218 6158,15240 6157,15277 L 6217,15277 C 6222,15231 6249,15210 6305,15210 6359,15210 6389,15231 6389,15266 L 6389,15282 C 6389,15307 6374,15318 6326,15324 6242,15334 6229,15337 6206,15347 6162,15364 6140,15398 6140,15447 6140,15515 6188,15558 6263,15558 6311,15558 6348,15541 6391,15503 6395,15541 6414,15558 6452,15558 6465,15558 6474,15556 6493,15551 L 6493,15506 Z M 6389,15423 C 6389,15443 6383,15456 6365,15472 6341,15494 6311,15505 6276,15505 6230,15505 6203,15483 6203,15445 6203,15406 6229,15386 6293,15377 6356,15368 6369,15365 6389,15356 L 6389,15423 Z"/>
         <path fill="rgb(0,0,0)" stroke="none" d="M 6705,15034 C 6658,15034 6615,15054 6589,15089 6556,15134 6539,15202 6539,15296 6539,15467 6596,15558 6705,15558 6812,15558 6871,15467 6871,15300 6871,15201 6856,15135 6822,15089 6796,15053 6753,15034 6705,15034 L 6705,15034 Z M 6705,15089 C 6773,15089 6807,15158 6807,15294 6807,15438 6774,15505 6703,15505 6637,15505 6604,15435 6604,15297 6604,15158 6637,15089 6705,15089 L 6705,15089 Z"/>
         <path fill="rgb(0,0,0)" stroke="none" d="M 7320,15631 L 6890,15631 6890,15667 7320,15667 7320,15631 Z"/>
         <path fill="rgb(0,0,0)" stroke="none" d="M 7412,15166 L 7353,15166 7353,15541 7412,15541 7412,15166 Z M 7412,15020 L 7352,15020 7352,15095 7412,15095 7412,15020 Z"/>
         <path fill="rgb(0,0,0)" stroke="none" d="M 7642,15020 L 7510,15020 7510,15693 7642,15693 7642,15642 7569,15642 7569,15071 7642,15071 7642,15020 Z"/>
         <path fill="rgb(0,0,0)" stroke="none" d="M 7821,15309 L 7829,15309 7856,15308 C 7925,15308 7961,15339 7961,15400 7961,15464 7921,15502 7856,15502 7787,15502 7753,15468 7748,15394 L 7685,15394 C 7688,15435 7696,15461 7708,15484 7733,15533 7784,15558 7853,15558 7958,15558 8025,15495 8025,15399 8025,15335 8000,15299 7939,15279 7986,15260 8010,15224 8010,15173 8010,15086 7952,15034 7856,15034 7753,15034 7699,15089 7696,15198 L 7760,15198 C 7760,15167 7763,15150 7771,15134 7785,15106 7817,15089 7856,15089 7912,15089 7946,15122 7946,15176 7946,15211 7933,15233 7905,15244 7887,15251 7865,15254 7821,15255 L 7821,15309 Z"/>
         <path fill="rgb(0,0,0)" stroke="none" d="M 8214,15467 L 8140,15467 8140,15541 8214,15541 8214,15467 Z M 8214,15166 L 8140,15166 8140,15240 8214,15240 8214,15166 Z"/>
         <path fill="rgb(0,0,0)" stroke="none" d="M 8457,15034 C 8410,15034 8367,15054 8340,15089 8307,15134 8291,15202 8291,15296 8291,15467 8348,15558 8457,15558 8564,15558 8623,15467 8623,15300 8623,15201 8607,15135 8573,15089 8547,15053 8505,15034 8457,15034 L 8457,15034 Z M 8457,15089 C 8525,15089 8558,15158 8558,15294 8558,15438 8525,15505 8455,15505 8389,15505 8355,15435 8355,15297 8355,15158 8389,15089 8457,15089 L 8457,15089 Z"/>
         <path fill="rgb(0,0,0)" stroke="none" d="M 8675,15693 L 8808,15693 8808,15020 8675,15020 8675,15071 8748,15071 8748,15642 8675,15642 8675,15693 Z"/>
         <path fill="none" stroke="rgb(0,0,0)" stroke-width="215" stroke-linejoin="miter" d="M 4255,16717 L 4971,16717"/>
         <path fill="rgb(0,0,0)" stroke="none" d="M 5452,16725 C 5449,16688 5441,16665 5427,16644 5401,16608 5356,16587 5303,16587 5203,16587 5137,16668 5137,16792 5137,16914 5201,16990 5303,16990 5392,16990 5449,16936 5456,16845 L 5396,16845 C 5386,16905 5355,16935 5304,16935 5239,16935 5199,16881 5199,16792 5199,16698 5238,16643 5303,16643 5353,16643 5384,16672 5392,16725 L 5452,16725 Z"/>
         <path fill="rgb(0,0,0)" stroke="none" d="M 5582,16452 L 5522,16452 5522,16974 5582,16974 5582,16452 Z"/>
         <path fill="rgb(0,0,0)" stroke="none" d="M 5732,16452 L 5673,16452 5673,16974 5732,16974 5732,16827 5791,16770 5917,16974 5991,16974 5838,16728 5968,16599 5892,16599 5732,16758 5732,16452 Z"/>
         <path fill="rgb(0,0,0)" stroke="none" d="M 6403,17064 L 5974,17064 5974,17100 6403,17100 6403,17064 Z"/>
         <path fill="rgb(0,0,0)" stroke="none" d="M 6495,16599 L 6436,16599 6436,16974 6495,16974 6495,16599 Z M 6495,16452 L 6435,16452 6435,16527 6495,16527 6495,16452 Z"/>
         <path fill="none" stroke="rgb(0,0,0)" stroke-width="358" stroke-linejoin="miter" d="M 17146,13136 L 16430,13136"/>
         <path fill="rgb(0,0,0)" stroke="none" d="M 13684,13358 C 13677,13359 13674,13359 13671,13359 13650,13359 13639,13348 13639,13330 L 13639,13109 C 13639,13043 13590,13007 13497,13007 13443,13007 13398,13023 13373,13051 13356,13070 13348,13092 13347,13129 L 13407,13129 C 13412,13083 13439,13062 13495,13062 13549,13062 13579,13082 13579,13118 L 13579,13134 C 13579,13159 13564,13170 13516,13175 13432,13186 13419,13189 13396,13198 13353,13216 13330,13249 13330,13298 13330,13366 13378,13409 13454,13409 13501,13409 13539,13393 13581,13354 13585,13392 13604,13409 13642,13409 13655,13409 13664,13408 13684,13403 L 13684,13358 Z M 13579,13275 C 13579,13295 13573,13307 13555,13324 13531,13345 13501,13357 13467,13357 13420,13357 13393,13335 13393,13297 13393,13258 13419,13237 13483,13228 13546,13219 13559,13217 13579,13207 L 13579,13275 Z"/>
         <path fill="rgb(0,0,0)" stroke="none" d="M 13749,13018 L 13749,13393 13809,13393 13809,13186 C 13809,13109 13849,13059 13910,13059 13958,13059 13988,13088 13988,13133 L 13988,13393 14047,13393 14047,13109 C 14047,13047 14001,13007 13928,13007 13873,13007 13837,13029 13804,13081 L 13804,13018 13749,13018 Z"/>
         <path fill="rgb(0,0,0)" stroke="none" d="M 14511,13483 L 14081,13483 14081,13519 14511,13519 14511,13483 Z"/>
         <path fill="rgb(0,0,0)" stroke="none" d="M 14690,13007 C 14585,13007 14521,13082 14521,13208 14521,13334 14584,13409 14690,13409 14796,13409 14860,13334 14860,13211 14860,13081 14798,13007 14690,13007 L 14690,13007 Z M 14690,13062 C 14758,13062 14798,13117 14798,13210 14798,13298 14756,13354 14690,13354 14624,13354 14583,13299 14583,13208 14583,13118 14624,13062 14690,13062 L 14690,13062 Z"/>
         <path fill="rgb(0,0,0)" stroke="none" d="M 15072,12871 L 14939,12871 14939,13544 15072,13544 15072,13493 14998,13493 14998,12922 15072,12922 15072,12871 Z"/>
         <path fill="rgb(0,0,0)" stroke="none" d="M 15251,13160 L 15258,13160 15285,13159 C 15354,13159 15390,13191 15390,13252 15390,13315 15351,13354 15285,13354 15216,13354 15182,13319 15178,13246 L 15115,13246 C 15118,13286 15125,13312 15137,13336 15163,13384 15213,13409 15283,13409 15387,13409 15455,13347 15455,13251 15455,13186 15429,13151 15369,13130 15416,13111 15440,13076 15440,13025 15440,12938 15382,12885 15285,12885 15182,12885 15128,12941 15126,13049 L 15189,13049 C 15190,13018 15193,13001 15200,12985 15215,12957 15246,12940 15286,12940 15341,12940 15375,12973 15375,13027 15375,13063 15362,13084 15335,13096 15317,13103 15295,13106 15251,13107 L 15251,13160 Z"/>
         <path fill="rgb(0,0,0)" stroke="none" d="M 15644,13318 L 15569,13318 15569,13393 15644,13393 15644,13318 Z M 15644,13018 L 15569,13018 15569,13092 15644,13092 15644,13018 Z"/>
         <path fill="rgb(0,0,0)" stroke="none" d="M 15886,12885 C 15839,12885 15796,12906 15770,12941 15737,12985 15721,13053 15721,13147 15721,13318 15778,13409 15886,13409 15994,13409 16052,13318 16052,13152 16052,13053 16037,12987 16003,12941 15977,12905 15934,12885 15886,12885 L 15886,12885 Z M 15886,12941 C 15955,12941 15988,13010 15988,13146 15988,13290 15955,13357 15885,13357 15818,13357 15785,13287 15785,13148 15785,13009 15818,12941 15886,12941 L 15886,12941 Z"/>
         <path fill="rgb(0,0,0)" stroke="none" d="M 16104,13544 L 16237,13544 16237,12871 16104,12871 16104,12922 16178,12922 16178,13493 16104,13493 16104,13544 Z"/>
         <path fill="none" stroke="rgb(0,0,0)" stroke-width="358" stroke-linejoin="miter" d="M 17146,14568 L 16430,14568"/>
         <path fill="rgb(0,0,0)" stroke="none" d="M 12898,14554 C 12897,14481 12848,14439 12762,14439 12674,14439 12618,14484 12618,14554 12618,14612 12648,14641 12737,14662 L 12793,14675 C 12834,14686 12851,14701 12851,14728 12851,14763 12815,14786 12763,14786 12731,14786 12704,14777 12689,14761 12680,14751 12675,14740 12671,14713 L 12608,14713 C 12611,14800 12660,14842 12758,14842 12853,14842 12913,14795 12913,14723 12913,14667 12881,14636 12807,14618 L 12749,14605 C 12701,14593 12680,14578 12680,14551 12680,14517 12711,14494 12760,14494 12808,14494 12833,14515 12835,14554 L 12898,14554 Z"/>
         <path fill="rgb(0,0,0)" stroke="none" d="M 13256,14554 C 13255,14481 13206,14439 13120,14439 13032,14439 12976,14484 12976,14554 12976,14612 13006,14641 13095,14662 L 13151,14675 C 13192,14686 13209,14701 13209,14728 13209,14763 13173,14786 13121,14786 13089,14786 13062,14777 13047,14761 13038,14751 13033,14740 13030,14713 L 12967,14713 C 12969,14800 13018,14842 13116,14842 13211,14842 13271,14795 13271,14723 13271,14667 13239,14636 13165,14618 L 13108,14605 C 13059,14593 13038,14578 13038,14551 13038,14517 13069,14494 13118,14494 13166,14494 13191,14515 13193,14554 L 13256,14554 Z"/>
         <path fill="rgb(0,0,0)" stroke="none" d="M 13668,14658 C 13668,14600 13663,14566 13653,14538 13628,14476 13571,14439 13501,14439 13396,14439 13329,14519 13329,14643 13329,14766 13394,14842 13500,14842 13585,14842 13645,14793 13660,14711 L 13600,14711 C 13583,14761 13549,14786 13501,14786 13464,14786 13431,14769 13411,14738 13397,14716 13392,14695 13392,14658 L 13668,14658 Z M 13393,14609 C 13398,14539 13440,14494 13500,14494 13559,14494 13604,14543 13604,14605 13604,14606 13604,14608 13603,14609 L 13393,14609 Z"/>
         <path fill="rgb(0,0,0)" stroke="none" d="M 13994,14450 L 13994,14504 C 13964,14460 13927,14439 13879,14439 13784,14439 13719,14522 13719,14644 13719,14705 13736,14756 13766,14792 13795,14823 13835,14842 13874,14842 13921,14842 13954,14822 13988,14774 L 13988,14794 C 13988,14845 13982,14875 13967,14896 13951,14918 13920,14931 13883,14931 13856,14931 13832,14924 13815,14911 13802,14900 13796,14890 13793,14868 L 13732,14868 C 13738,14939 13793,14981 13881,14981 13937,14981 13985,14963 14009,14933 14038,14899 14049,14852 14049,14764 L 14049,14450 13994,14450 Z M 13886,14494 C 13950,14494 13988,14549 13988,14643 13988,14732 13949,14786 13886,14786 13821,14786 13781,14731 13781,14641 13781,14550 13822,14494 13886,14494 L 13886,14494 Z"/>
         <path fill="rgb(0,0,0)" stroke="none" d="M 14511,14915 L 14081,14915 14081,14951 14511,14951 14511,14915 Z"/>
         <path fill="rgb(0,0,0)" stroke="none" d="M 14690,14439 C 14585,14439 14521,14515 14521,14641 14521,14767 14584,14842 14690,14842 14796,14842 14860,14767 14860,14643 14860,14514 14798,14439 14690,14439 L 14690,14439 Z M 14690,14494 C 14758,14494 14798,14550 14798,14643 14798,14731 14756,14786 14690,14786 14624,14786 14583,14731 14583,14641 14583,14550 14624,14494 14690,14494 L 14690,14494 Z"/>
         <path fill="rgb(0,0,0)" stroke="none" d="M 15072,14303 L 14939,14303 14939,14977 15072,14977 15072,14925 14998,14925 14998,14355 15072,14355 15072,14303 Z"/>
         <path fill="rgb(0,0,0)" stroke="none" d="M 15449,14450 C 15437,14367 15382,14317 15305,14317 15249,14317 15199,14345 15169,14390 15137,14439 15123,14502 15123,14594 15123,14679 15136,14734 15166,14779 15193,14819 15238,14842 15293,14842 15390,14842 15459,14770 15459,14671 15459,14576 15395,14509 15304,14509 15254,14509 15215,14529 15188,14566 15188,14442 15228,14373 15301,14373 15345,14373 15376,14401 15386,14450 L 15449,14450 Z M 15296,14565 C 15357,14565 15395,14608 15395,14675 15395,14739 15352,14786 15294,14786 15236,14786 15191,14737 15191,14672 15191,14609 15234,14565 15296,14565 L 15296,14565 Z"/>
         <path fill="rgb(0,0,0)" stroke="none" d="M 15644,14751 L 15569,14751 15569,14825 15644,14825 15644,14751 Z M 15644,14450 L 15569,14450 15569,14524 15644,14524 15644,14450 Z"/>
         <path fill="rgb(0,0,0)" stroke="none" d="M 15886,14317 C 15839,14317 15796,14338 15770,14373 15737,14418 15721,14486 15721,14580 15721,14751 15778,14842 15886,14842 15994,14842 16052,14751 16052,14584 16052,14485 16037,14419 16003,14373 15977,14337 15934,14317 15886,14317 L 15886,14317 Z M 15886,14373 C 15955,14373 15988,14442 15988,14578 15988,14722 15955,14789 15885,14789 15818,14789 15785,14719 15785,14581 15785,14441 15818,14373 15886,14373 L 15886,14373 Z"/>
         <path fill="rgb(0,0,0)" stroke="none" d="M 16104,14977 L 16237,14977 16237,14303 16104,14303 16104,14355 16178,14355 16178,14925 16104,14925 16104,14977 Z"/>
         <path fill="none" stroke="rgb(63,110,158)" stroke-width="72" stroke-linejoin="miter" d="M 5473,9555 L 15929,9555"/>
         <path fill="none" stroke="rgb(63,110,158)" stroke-width="72" stroke-linejoin="miter" d="M 16430,10056 C 16430,10048 16430,10040 16430,10032 16423,9762 16199,9548 15929,9555"/>
         <path fill="none" stroke="rgb(63,110,158)" stroke-width="72" stroke-linejoin="miter" d="M 16430,10056 L 16430,17647"/>
         <path fill="none" stroke="rgb(63,110,158)" stroke-width="72" stroke-linejoin="miter" d="M 15929,18149 C 15937,18149 15945,18149 15953,18149 16223,18142 16437,17918 16430,17647"/>
         <path fill="none" stroke="rgb(63,110,158)" stroke-width="72" stroke-linejoin="miter" d="M 15929,18149 L 5473,18149"/>
         <path fill="none" stroke="rgb(63,110,158)" stroke-width="72" stroke-linejoin="miter" d="M 4971,17647 C 4971,17655 4971,17663 4971,17671 4978,17942 5202,18155 5473,18149"/>
         <path fill="none" stroke="rgb(63,110,158)" stroke-width="72" stroke-linejoin="miter" d="M 4971,17647 L 4971,10056"/>
         <path fill="none" stroke="rgb(63,110,158)" stroke-width="72" stroke-linejoin="miter" d="M 5473,9555 C 5465,9555 5457,9555 5449,9555 5179,9562 4965,9786 4971,10056"/>
        </g>
       </g>
      </g>
     </g>
    </g>
   </g>
  </g>
 </g>
</svg>