<?xml version="1.0" encoding="UTF-8"?>
<!DOCTYPE svg PUBLIC "-//W3C//DTD SVG 1.1//EN" "http://www.w3.org/Graphics/SVG/1.1/DTD/svg11.dtd">
<svg version="1.2" width="130.99mm" height="82.99mm" viewBox="3600 10400 13099 8299" preserveAspectRatio="xMidYMid" fill-rule="evenodd" stroke-width="28.222" stroke-linejoin="round" xmlns="http://www.w3.org/2000/svg" xmlns:ooo="http://xml.openoffice.org/svg/export" xmlns:xlink="http://www.w3.org/1999/xlink" xmlns:presentation="http://sun.com/xmlns/staroffice/presentation" xmlns:smil="http://www.w3.org/2001/SMIL20/" xmlns:anim="urn:oasis:names:tc:opendocument:xmlns:animation:1.0" xml:space="preserve">
 <defs class="ClipPathGroup">
  <clipPath id="presentation_clip_path" clipPathUnits="userSpaceOnUse">
   <rect x="3600" y="10400" width="13099" height="8299"/>
  </clipPath>
  <clipPath id="presentation_clip_path_shrink" clipPathUnits="userSpaceOnUse">
   <rect x="3613" y="10408" width="13073" height="8283"/>
  </clipPath>
 </defs>
 <defs class="TextShapeIndex">
  <g ooo:slide="id1" ooo:id-list="id3"/>
 </defs>
 <defs class="EmbeddedBulletChars">
  <g id="bullet-char-template-57356" transform="scale(0.00048828125,-0.00048828125)">
   <path d="M 580,1141 L 1163,571 580,0 -4,571 580,1141 Z"/>
  </g>
  <g id="bullet-char-template-57354" transform="scale(0.00048828125,-0.00048828125)">
   <path d="M 8,1128 L 1137,1128 1137,0 8,0 8,1128 Z"/>
  </g>
  <g id="bullet-char-template-10146" transform="scale(0.00048828125,-0.00048828125)">
   <path d="M 174,0 L 602,739 174,1481 1456,739 174,0 Z M 1358,739 L 309,1346 659,739 1358,739 Z"/>
  </g>
  <g id="bullet-char-template-10132" transform="scale(0.00048828125,-0.00048828125)">
   <path d="M 2015,739 L 1276,0 717,0 1260,543 174,543 174,936 1260,936 717,1481 1274,1481 2015,739 Z"/>
  </g>
  <g id="bullet-char-template-10007" transform="scale(0.00048828125,-0.00048828125)">
   <path d="M 0,-2 C -7,14 -16,27 -25,37 L 356,567 C 262,823 215,952 215,954 215,979 228,992 255,992 264,992 276,990 289,987 310,991 331,999 354,1012 L 381,999 492,748 772,1049 836,1024 860,1049 C 881,1039 901,1025 922,1006 886,937 835,863 770,784 769,783 710,716 594,584 L 774,223 C 774,196 753,168 711,139 L 727,119 C 717,90 699,76 672,76 641,76 570,178 457,381 L 164,-76 C 142,-110 111,-127 72,-127 30,-127 9,-110 8,-76 1,-67 -2,-52 -2,-32 -2,-23 -1,-13 0,-2 Z"/>
  </g>
  <g id="bullet-char-template-10004" transform="scale(0.00048828125,-0.00048828125)">
   <path d="M 285,-33 C 182,-33 111,30 74,156 52,228 41,333 41,471 41,549 55,616 82,672 116,743 169,778 240,778 293,778 328,747 346,684 L 369,508 C 377,444 397,411 428,410 L 1163,1116 C 1174,1127 1196,1133 1229,1133 1271,1133 1292,1118 1292,1087 L 1292,965 C 1292,929 1282,901 1262,881 L 442,47 C 390,-6 338,-33 285,-33 Z"/>
  </g>
  <g id="bullet-char-template-9679" transform="scale(0.00048828125,-0.00048828125)">
   <path d="M 813,0 C 632,0 489,54 383,161 276,268 223,411 223,592 223,773 276,916 383,1023 489,1130 632,1184 813,1184 992,1184 1136,1130 1245,1023 1353,916 1407,772 1407,592 1407,412 1353,268 1245,161 1136,54 992,0 813,0 Z"/>
  </g>
  <g id="bullet-char-template-8226" transform="scale(0.00048828125,-0.00048828125)">
   <path d="M 346,457 C 273,457 209,483 155,535 101,586 74,649 74,723 74,796 101,859 155,911 209,963 273,989 346,989 419,989 480,963 531,910 582,859 608,796 608,723 608,648 583,586 532,535 482,483 420,457 346,457 Z"/>
  </g>
  <g id="bullet-char-template-8211" transform="scale(0.00048828125,-0.00048828125)">
   <path d="M -4,459 L 1135,459 1135,606 -4,606 -4,459 Z"/>
  </g>
  <g id="bullet-char-template-61548" transform="scale(0.00048828125,-0.00048828125)">
   <path d="M 173,740 C 173,903 231,1043 346,1159 462,1274 601,1332 765,1332 928,1332 1067,1274 1183,1159 1299,1043 1357,903 1357,740 1357,577 1299,437 1183,322 1067,206 928,148 765,148 601,148 462,206 346,322 231,437 173,577 173,740 Z"/>
  </g>
 </defs>
 <defs class="TextEmbeddedBitmaps"/>
 <g class="SlideGroup">
  <g>
   <g id="container-id1">
    <g id="id1" class="Slide" clip-path="url(#presentation_clip_path)">
     <g class="Page">
      <g class="Graphic">
       <g id="id3">
        <rect class="BoundingBox" stroke="none" fill="none" x="3600" y="10400" width="13100" height="8300"/>
        <defs>
         <clipPath id="clip_path_1" clipPathUnits="userSpaceOnUse">
          <path d="M 3600,10400 L 16699,10400 16699,18699 3600,18699 3600,10400 Z"/>
         </clipPath>
        </defs>
        <g clip-path="url(#clip_path_1)"/>
        <defs>
         <clipPath id="clip_path_2" clipPathUnits="userSpaceOnUse">
          <path d="M 3600,10400 L 16699,10400 16699,18699 3600,18699 3600,10400 Z"/>
         </clipPath>
        </defs>
        <g clip-path="url(#clip_path_2)">
         <path fill="rgb(255,255,255)" stroke="none" d="M 1705,9205 L 18893,9205 18893,20462 1705,20462 1705,9205 Z"/>
        </g>
        <g clip-path="url(#clip_path_1)">
         <path fill="rgb(0,0,0)" stroke="none" d="M 6174,12212 L 15284,12212 15542,12298 15714,12384 15799,12556 15885,12814 15885,16767 15799,17024 15714,17196 15542,17282 15284,17368 6174,17368 5916,17282 5745,17196 5659,17024 5573,16767 5573,12814 5659,12556 5745,12384 5916,12298 6174,12212 Z"/>
        </g>
        <defs>
         <clipPath id="clip_path_3" clipPathUnits="userSpaceOnUse">
          <path d="M 5745,11783 L 14854,11783 15112,11869 15284,11954 15370,12126 15456,12384 15456,16337 15370,16595 15284,16767 15112,16853 14854,16939 5745,16939 5487,16853 5315,16767 5229,16595 5143,16337 5143,12384 5229,12126 5315,11954 5487,11869 5745,11783 Z"/>
         </clipPath>
        </defs>
        <g clip-path="url(#clip_path_3)"/>
        <defs>
         <clipPath id="clip_path_4" clipPathUnits="userSpaceOnUse">
          <path d="M 5745,11783 L 14854,11783 15112,11869 15284,11954 15370,12126 15456,12384 15456,16337 15370,16595 15284,16767 15112,16853 14854,16939 5745,16939 5487,16853 5315,16767 5229,16595 5143,16337 5143,12384 5229,12126 5315,11954 5487,11869 5745,11783 Z"/>
         </clipPath>
        </defs>
        <g clip-path="url(#clip_path_4)">
         <path fill="rgb(189,212,236)" stroke="none" d="M 2912,15664 L 2932,15675 7692,7346 7671,7335 2912,15664 Z"/>
         <path fill="rgb(189,212,236)" stroke="none" d="M 2912,15664 L 3088,15765 7848,7436 7671,7335 2912,15664 Z"/>
         <path fill="rgb(190,212,236)" stroke="none" d="M 3068,15753 L 3244,15854 8004,7525 7827,7424 3068,15753 Z"/>
         <path fill="rgb(190,213,236)" stroke="none" d="M 3224,15842 L 3401,15943 8160,7614 7984,7513 3224,15842 Z"/>
         <path fill="rgb(191,213,237)" stroke="none" d="M 3380,15931 L 3557,16032 8316,7703 8140,7602 3380,15931 Z"/>
         <path fill="rgb(192,214,237)" stroke="none" d="M 3536,16021 L 3713,16122 8473,7793 8296,7692 3536,16021 Z"/>
         <path fill="rgb(193,214,237)" stroke="none" d="M 3692,16110 L 3869,16211 8629,7882 8452,7781 3692,16110 Z"/>
         <path fill="rgb(193,215,237)" stroke="none" d="M 3849,16199 L 4025,16300 8785,7971 8608,7870 3849,16199 Z"/>
         <path fill="rgb(194,215,237)" stroke="none" d="M 4005,16288 L 4181,16389 8941,8060 8764,7959 4005,16288 Z"/>
         <path fill="rgb(195,216,237)" stroke="none" d="M 4161,16377 L 4338,16478 9097,8150 8921,8049 4161,16377 Z"/>
         <path fill="rgb(196,216,237)" stroke="none" d="M 4317,16467 L 4494,16568 9254,8239 9077,8138 4317,16467 Z"/>
         <path fill="rgb(197,217,238)" stroke="none" d="M 4473,16556 L 4650,16657 9410,8328 9233,8227 4473,16556 Z"/>
         <path fill="rgb(197,217,238)" stroke="none" d="M 4629,16645 L 4806,16746 9566,8417 9389,8316 4629,16645 Z"/>
         <path fill="rgb(198,218,238)" stroke="none" d="M 4786,16734 L 4962,16835 9722,8507 9545,8406 4786,16734 Z"/>
         <path fill="rgb(199,218,238)" stroke="none" d="M 4942,16824 L 5119,16925 9878,8596 9702,8495 4942,16824 Z"/>
         <path fill="rgb(200,218,238)" stroke="none" d="M 5098,16913 L 5153,16944 9913,8616 9858,8584 5098,16913 Z"/>
         <path fill="rgb(200,219,238)" stroke="none" d="M 5133,16933 L 5275,17014 10034,8685 9892,8604 5133,16933 Z"/>
         <path fill="rgb(201,219,238)" stroke="none" d="M 5254,17002 L 5431,17103 10191,8774 10014,8673 5254,17002 Z"/>
         <path fill="rgb(201,219,239)" stroke="none" d="M 5410,17091 L 5587,17192 10347,8864 10170,8763 5410,17091 Z"/>
         <path fill="rgb(202,220,239)" stroke="none" d="M 5567,17181 L 5743,17282 10503,8953 10326,8852 5567,17181 Z"/>
         <path fill="rgb(203,220,239)" stroke="none" d="M 5723,17270 L 5899,17371 10659,9042 10482,8941 5723,17270 Z"/>
         <path fill="rgb(204,221,239)" stroke="none" d="M 5879,17359 L 6056,17460 10815,9131 10639,9030 5879,17359 Z"/>
         <path fill="rgb(204,221,239)" stroke="none" d="M 6035,17448 L 6212,17549 10971,9220 10795,9119 6035,17448 Z"/>
         <path fill="rgb(205,222,239)" stroke="none" d="M 6191,17538 L 6368,17639 11128,9310 10951,9209 6191,17538 Z"/>
         <path fill="rgb(206,222,239)" stroke="none" d="M 6347,17627 L 6524,17728 11284,9399 11107,9298 6347,17627 Z"/>
         <path fill="rgb(207,223,240)" stroke="none" d="M 6504,17716 L 6680,17817 11440,9488 11263,9387 6504,17716 Z"/>
         <path fill="rgb(207,223,240)" stroke="none" d="M 6660,17805 L 6836,17906 11596,9577 11420,9476 6660,17805 Z"/>
         <path fill="rgb(208,224,240)" stroke="none" d="M 6816,17895 L 6993,17995 11752,9667 11576,9566 6816,17895 Z"/>
         <path fill="rgb(209,224,240)" stroke="none" d="M 6972,17984 L 7149,18085 11909,9756 11732,9655 6972,17984 Z"/>
         <path fill="rgb(210,225,240)" stroke="none" d="M 7128,18073 L 7305,18174 12065,9845 11888,9744 7128,18073 Z"/>
         <path fill="rgb(211,225,240)" stroke="none" d="M 7285,18162 L 7461,18263 12221,9934 12044,9833 7285,18162 Z"/>
         <path fill="rgb(211,225,241)" stroke="none" d="M 7441,18251 L 7617,18352 12377,10024 12200,9923 7441,18251 Z"/>
         <path fill="rgb(212,226,241)" stroke="none" d="M 7597,18341 L 7774,18442 12533,10113 12357,10012 7597,18341 Z"/>
         <path fill="rgb(213,226,241)" stroke="none" d="M 7753,18430 L 7930,18531 12689,10202 12513,10101 7753,18430 Z"/>
         <path fill="rgb(214,227,241)" stroke="none" d="M 7909,18519 L 8086,18620 12846,10291 12669,10190 7909,18519 Z"/>
         <path fill="rgb(214,227,241)" stroke="none" d="M 8065,18608 L 8242,18709 13002,10381 12825,10280 8065,18608 Z"/>
         <path fill="rgb(215,228,241)" stroke="none" d="M 8222,18698 L 8398,18799 13158,10470 12981,10369 8222,18698 Z"/>
         <path fill="rgb(216,228,241)" stroke="none" d="M 8378,18787 L 8554,18888 13314,10559 13137,10458 8378,18787 Z"/>
         <path fill="rgb(217,229,242)" stroke="none" d="M 8534,18876 L 8711,18977 13470,10648 13294,10547 8534,18876 Z"/>
         <path fill="rgb(218,229,242)" stroke="none" d="M 8690,18965 L 8867,19066 13627,10737 13450,10637 8690,18965 Z"/>
         <path fill="rgb(218,230,242)" stroke="none" d="M 8846,19055 L 9023,19156 13783,10827 13606,10726 8846,19055 Z"/>
         <path fill="rgb(219,230,242)" stroke="none" d="M 9002,19144 L 9179,19245 13939,10916 13762,10815 9002,19144 Z"/>
         <path fill="rgb(220,231,242)" stroke="none" d="M 9159,19233 L 9335,19334 14095,11005 13918,10904 9159,19233 Z"/>
         <path fill="rgb(221,231,242)" stroke="none" d="M 9315,19322 L 9492,19423 14251,11094 14075,10993 9315,19322 Z"/>
         <path fill="rgb(221,232,243)" stroke="none" d="M 9471,19412 L 9648,19513 14407,11184 14231,11083 9471,19412 Z"/>
         <path fill="rgb(222,232,243)" stroke="none" d="M 9627,19501 L 9804,19602 14564,11273 14387,11172 9627,19501 Z"/>
         <path fill="rgb(223,232,243)" stroke="none" d="M 9783,19590 L 9960,19691 14720,11362 14543,11261 9783,19590 Z"/>
         <path fill="rgb(224,233,243)" stroke="none" d="M 9940,19679 L 10116,19780 14876,11451 14699,11350 9940,19679 Z"/>
         <path fill="rgb(225,233,243)" stroke="none" d="M 10096,19769 L 10272,19869 15032,11541 14855,11440 10096,19769 Z"/>
         <path fill="rgb(225,234,243)" stroke="none" d="M 10252,19858 L 10429,19959 15188,11630 15012,11529 10252,19858 Z"/>
         <path fill="rgb(226,234,244)" stroke="none" d="M 10408,19947 L 10585,20048 15344,11719 15168,11618 10408,19947 Z"/>
         <path fill="rgb(227,235,244)" stroke="none" d="M 10564,20036 L 10706,20117 15466,11789 15324,11707 10564,20036 Z"/>
         <path fill="rgb(228,235,244)" stroke="none" d="M 10686,20106 L 10741,20137 15501,11808 15445,11777 10686,20106 Z"/>
         <path fill="rgb(228,235,244)" stroke="none" d="M 10720,20125 L 10897,20226 15657,11898 15480,11797 10720,20125 Z"/>
         <path fill="rgb(228,236,244)" stroke="none" d="M 10877,20215 L 11053,20316 15813,11987 15636,11886 10877,20215 Z"/>
         <path fill="rgb(229,236,244)" stroke="none" d="M 11033,20304 L 11209,20405 15969,12076 15792,11975 11033,20304 Z"/>
         <path fill="rgb(230,237,244)" stroke="none" d="M 11189,20393 L 11366,20494 16125,12165 15949,12064 11189,20393 Z"/>
         <path fill="rgb(231,237,244)" stroke="none" d="M 11345,20482 L 11522,20583 16282,12255 16105,12154 11345,20482 Z"/>
         <path fill="rgb(232,238,245)" stroke="none" d="M 11501,20572 L 11678,20673 16438,12344 16261,12243 11501,20572 Z"/>
         <path fill="rgb(232,238,245)" stroke="none" d="M 11657,20661 L 11834,20762 16594,12433 16417,12332 11657,20661 Z"/>
         <path fill="rgb(233,239,245)" stroke="none" d="M 11814,20750 L 11990,20851 16750,12522 16573,12421 11814,20750 Z"/>
         <path fill="rgb(234,239,245)" stroke="none" d="M 11970,20839 L 12147,20940 16906,12611 16730,12511 11970,20839 Z"/>
         <path fill="rgb(235,239,245)" stroke="none" d="M 12126,20929 L 12303,21030 17062,12701 16886,12600 12126,20929 Z"/>
         <path fill="rgb(235,240,245)" stroke="none" d="M 12282,21018 L 12459,21119 17219,12790 17042,12689 12282,21018 Z"/>
         <path fill="rgb(236,240,246)" stroke="none" d="M 12438,21107 L 12615,21208 17375,12879 17198,12778 12438,21107 Z"/>
         <path fill="rgb(237,241,246)" stroke="none" d="M 12595,21196 L 12771,21297 17531,12968 17354,12867 12595,21196 Z"/>
         <path fill="rgb(238,241,246)" stroke="none" d="M 12751,21286 L 12927,21387 17687,13058 17510,12957 12751,21286 Z"/>
         <path fill="rgb(239,242,246)" stroke="none" d="M 12907,21375 L 12927,21387 17687,13058 17667,13046 12907,21375 Z"/>
        </g>
        <g clip-path="url(#clip_path_3)"/>
        <g clip-path="url(#clip_path_1)">
         <path fill="rgb(0,0,0)" stroke="none" d="M 7275,11156 C 7275,11073 7268,11024 7253,10984 7218,10895 7136,10841 7034,10841 6884,10841 6787,10957 6787,11134 6787,11312 6881,11421 7032,11421 7156,11421 7242,11351 7263,11233 L 7177,11233 C 7153,11304 7105,11342 7035,11342 6981,11342 6935,11317 6905,11271 6885,11240 6878,11210 6876,11156 L 7275,11156 Z M 6879,11086 C 6886,10986 6947,10921 7033,10921 7118,10921 7183,10991 7183,11080 7183,11082 7183,11084 7182,11086 L 6879,11086 Z"/>
         <path fill="rgb(0,0,0)" stroke="none" d="M 7620,11118 L 7801,10857 7705,10857 7575,11053 7445,10857 7347,10857 7527,11122 7336,11397 7434,11397 7572,11190 7707,11397 7807,11397 7620,11118 Z"/>
         <path fill="rgb(0,0,0)" stroke="none" d="M 8345,10646 L 8259,10646 8259,10925 C 8224,10870 8165,10841 8093,10841 7953,10841 7861,10954 7861,11126 7861,11309 7951,11421 8097,11421 8171,11421 8223,11393 8269,11326 L 8269,11397 8345,11397 8345,10646 Z M 8108,10922 C 8201,10922 8259,11004 8259,11133 8259,11258 8200,11341 8109,11341 8014,11341 7951,11257 7951,11131 7951,11005 8014,10922 8108,10922 L 8108,10922 Z"/>
         <path fill="rgb(0,0,0)" stroke="none" d="M 8563,10857 L 8477,10857 8477,11397 8563,11397 8563,10857 Z M 8563,10646 L 8476,10646 8476,10754 8563,10754 8563,10646 Z"/>
         <path fill="rgb(0,0,0)" stroke="none" d="M 9089,11007 C 9087,10901 9018,10841 8893,10841 8767,10841 8685,10907 8685,11006 8685,11091 8728,11131 8856,11162 L 8937,11182 C 8997,11196 9021,11218 9021,11257 9021,11308 8970,11342 8895,11342 8848,11342 8809,11328 8788,11306 8774,11290 8768,11275 8763,11237 L 8672,11237 C 8676,11361 8746,11421 8887,11421 9023,11421 9110,11354 9110,11250 9110,11169 9065,11125 8958,11099 L 8875,11080 C 8805,11063 8775,11040 8775,11003 8775,10953 8820,10921 8890,10921 8959,10921 8996,10951 8998,11007 L 9089,11007 Z"/>
         <path fill="rgb(0,0,0)" stroke="none" d="M 9225,10857 L 9225,11476 C 9225,11530 9207,11547 9155,11547 9152,11547 9152,11547 9134,11546 L 9134,11619 C 9144,11621 9150,11622 9163,11622 9260,11622 9310,11583 9310,11510 L 9310,10857 9225,10857 Z M 9310,10646 L 9225,10646 9225,10754 9310,10754 9310,10646 Z"/>
         <path fill="rgb(0,0,0)" stroke="none" d="M 9879,11397 L 9879,10857 9793,10857 9793,11163 C 9793,11274 9735,11346 9646,11346 9578,11346 9534,11304 9534,11239 L 9534,10857 9448,10857 9448,11274 C 9448,11363 9516,11421 9621,11421 9700,11421 9751,11393 9801,11322 L 9801,11397 9879,11397 Z"/>
         <path fill="rgb(0,0,0)" stroke="none" d="M 10027,10857 L 10027,11397 10114,11397 10114,11099 C 10114,10989 10171,10917 10260,10917 10328,10917 10371,10958 10371,11023 L 10371,11397 10457,11397 10457,10989 C 10457,10899 10390,10841 10286,10841 10205,10841 10154,10872 10107,10948 L 10107,10857 10027,10857 Z"/>
         <path fill="rgb(0,0,0)" stroke="none" d="M 11014,11038 C 11010,10986 10999,10952 10978,10922 10941,10871 10876,10841 10801,10841 10655,10841 10560,10957 10560,11136 10560,11311 10653,11421 10800,11421 10928,11421 11010,11344 11020,11212 L 10934,11212 C 10919,11299 10875,11342 10801,11342 10707,11342 10650,11264 10650,11136 10650,11001 10706,10921 10800,10921 10872,10921 10917,10963 10927,11038 L 11014,11038 Z"/>
         <path fill="rgb(0,0,0)" stroke="none" d="M 11306,10857 L 11217,10857 11217,10709 11132,10709 11132,10857 11058,10857 11058,10927 11132,10927 11132,11335 C 11132,11390 11169,11421 11236,11421 11257,11421 11277,11419 11306,11414 L 11306,11342 C 11294,11345 11281,11346 11265,11346 11228,11346 11217,11335 11217,11297 L 11217,10927 11306,10927 11306,10857 Z"/>
         <path fill="rgb(0,0,0)" stroke="none" d="M 11485,10857 L 11400,10857 11400,11397 11485,11397 11485,10857 Z M 11485,10646 L 11399,10646 11399,10754 11485,10754 11485,10646 Z"/>
         <path fill="rgb(0,0,0)" stroke="none" d="M 11840,10841 C 11688,10841 11597,10950 11597,11131 11597,11313 11687,11421 11841,11421 11993,11421 12086,11313 12086,11135 12086,10949 11996,10841 11840,10841 L 11840,10841 Z M 11841,10921 C 11938,10921 11996,11000 11996,11134 11996,11261 11936,11342 11841,11342 11745,11342 11686,11262 11686,11131 11686,11001 11745,10921 11841,10921 L 11841,10921 Z"/>
         <path fill="rgb(0,0,0)" stroke="none" d="M 12205,10857 L 12205,11397 12292,11397 12292,11099 C 12292,10989 12349,10917 12438,10917 12506,10917 12550,10958 12550,11023 L 12550,11397 12635,11397 12635,10989 C 12635,10899 12568,10841 12464,10841 12383,10841 12332,10872 12285,10948 L 12285,10857 12205,10857 Z"/>
         <path fill="rgb(0,0,0)" stroke="none" d="M 13303,11527 L 12684,11527 12684,11579 13303,11579 13303,11527 Z"/>
         <path fill="rgb(0,0,0)" stroke="none" d="M 13563,10666 C 13495,10666 13433,10696 13395,10747 13348,10811 13324,10909 13324,11044 13324,11290 13407,11421 13563,11421 13718,11421 13802,11290 13802,11050 13802,10908 13780,10813 13732,10747 13693,10695 13632,10666 13563,10666 L 13563,10666 Z M 13563,10747 C 13661,10747 13710,10846 13710,11041 13710,11249 13662,11346 13561,11346 13465,11346 13417,11245 13417,11045 13417,10845 13465,10747 13563,10747 L 13563,10747 Z"/>
         <path fill="rgb(63,110,158)" stroke="none" d="M 6443,17953 C 6443,17871 6437,17821 6422,17781 6387,17692 6304,17639 6203,17639 6052,17639 5956,17754 5956,17932 5956,18109 6050,18218 6201,18218 6325,18218 6410,18148 6432,18030 L 6346,18030 C 6322,18102 6273,18139 6204,18139 6149,18139 6103,18114 6074,18069 6053,18038 6047,18007 6045,17953 L 6443,17953 Z M 6048,17883 C 6055,17783 6115,17718 6202,17718 6287,17718 6352,17788 6352,17877 6352,17879 6352,17881 6351,17883 L 6048,17883 Z"/>
         <path fill="rgb(63,110,158)" stroke="none" d="M 6789,17915 L 6970,17654 6873,17654 6744,17850 6614,17654 6515,17654 6696,17919 6505,18195 6603,18195 6741,17987 6876,18195 6976,18195 6789,17915 Z"/>
         <path fill="rgb(63,110,158)" stroke="none" d="M 7514,17443 L 7428,17443 7428,17722 C 7392,17668 7334,17639 7262,17639 7122,17639 7030,17751 7030,17923 7030,18106 7120,18218 7265,18218 7340,18218 7391,18190 7437,18123 L 7437,18195 7514,18195 7514,17443 Z M 7277,17719 C 7370,17719 7428,17802 7428,17931 7428,18056 7369,18138 7278,18138 7183,18138 7120,18054 7120,17929 7120,17803 7183,17719 7277,17719 L 7277,17719 Z"/>
         <path fill="rgb(63,110,158)" stroke="none" d="M 7731,17654 L 7646,17654 7646,18195 7731,18195 7731,17654 Z M 7731,17443 L 7645,17443 7645,17551 7731,17551 7731,17443 Z"/>
         <path fill="rgb(63,110,158)" stroke="none" d="M 8258,17805 C 8256,17699 8186,17639 8062,17639 7936,17639 7854,17704 7854,17804 7854,17888 7897,17929 8025,17960 L 8106,17979 C 8166,17994 8189,18015 8189,18054 8189,18105 8139,18139 8063,18139 8017,18139 7978,18125 7956,18103 7943,18088 7937,18072 7932,18034 L 7841,18034 C 7845,18158 7915,18218 8056,18218 8192,18218 8279,18151 8279,18047 8279,17966 8234,17922 8126,17897 L 8044,17877 C 7974,17860 7944,17838 7944,17800 7944,17750 7988,17718 8059,17718 8127,17718 8165,17748 8167,17805 L 8258,17805 Z"/>
         <path fill="rgb(63,110,158)" stroke="none" d="M 8394,17654 L 8394,18273 C 8394,18327 8376,18344 8323,18344 8320,18344 8320,18344 8303,18343 L 8303,18416 C 8313,18418 8318,18419 8332,18419 8428,18419 8479,18380 8479,18307 L 8479,17654 8394,17654 Z M 8479,17443 L 8394,17443 8394,17551 8479,17551 8479,17443 Z"/>
         <path fill="rgb(63,110,158)" stroke="none" d="M 9047,18195 L 9047,17654 8962,17654 8962,17961 C 8962,18071 8904,18143 8814,18143 8746,18143 8703,18102 8703,18037 L 8703,17654 8617,17654 8617,18071 C 8617,18161 8684,18218 8790,18218 8869,18218 8919,18190 8970,18120 L 8970,18195 9047,18195 Z"/>
         <path fill="rgb(63,110,158)" stroke="none" d="M 9196,17654 L 9196,18195 9283,18195 9283,17897 C 9283,17786 9340,17714 9429,17714 9497,17714 9540,17755 9540,17820 L 9540,18195 9626,18195 9626,17786 C 9626,17697 9559,17639 9455,17639 9374,17639 9323,17670 9275,17745 L 9275,17654 9196,17654 Z"/>
         <path fill="rgb(63,110,158)" stroke="none" d="M 10183,17836 C 10179,17783 10167,17749 10147,17719 10110,17669 10044,17639 9969,17639 9824,17639 9729,17754 9729,17933 9729,18108 9822,18218 9968,18218 10097,18218 10179,18141 10189,18009 L 10103,18009 C 10088,18096 10043,18139 9970,18139 9875,18139 9819,18061 9819,17933 9819,17798 9874,17718 9968,17718 10041,17718 10086,17761 10096,17836 L 10183,17836 Z"/>
         <path fill="rgb(63,110,158)" stroke="none" d="M 10475,17654 L 10386,17654 10386,17506 10300,17506 10300,17654 10227,17654 10227,17724 10300,17724 10300,18133 C 10300,18187 10338,18218 10405,18218 10425,18218 10446,18216 10475,18211 L 10475,18139 C 10463,18142 10450,18143 10434,18143 10396,18143 10386,18133 10386,18094 L 10386,17724 10475,17724 10475,17654 Z"/>
         <path fill="rgb(63,110,158)" stroke="none" d="M 10654,17654 L 10569,17654 10569,18195 10654,18195 10654,17654 Z M 10654,17443 L 10568,17443 10568,17551 10654,17551 10654,17443 Z"/>
         <path fill="rgb(63,110,158)" stroke="none" d="M 11009,17639 C 10857,17639 10766,17747 10766,17929 10766,18110 10856,18218 11010,18218 11161,18218 11254,18110 11254,17933 11254,17746 11165,17639 11009,17639 L 11009,17639 Z M 11010,17718 C 11107,17718 11165,17797 11165,17932 11165,18058 11105,18139 11010,18139 10914,18139 10855,18059 10855,17929 10855,17798 10914,17718 11010,17718 L 11010,17718 Z"/>
         <path fill="rgb(63,110,158)" stroke="none" d="M 11374,17654 L 11374,18195 11461,18195 11461,17897 C 11461,17786 11518,17714 11607,17714 11675,17714 11718,17755 11718,17820 L 11718,18195 11804,18195 11804,17786 C 11804,17697 11737,17639 11633,17639 11552,17639 11501,17670 11453,17745 L 11453,17654 11374,17654 Z"/>
         <path fill="rgb(63,110,158)" stroke="none" d="M 12471,18324 L 11852,18324 11852,18376 12471,18376 12471,18324 Z"/>
         <path fill="rgb(63,110,158)" stroke="none" d="M 12743,18195 L 12950,17654 12853,17654 12700,18092 12556,17654 12459,17654 12649,18195 12743,18195 Z"/>
         <path fill="rgb(63,110,158)" stroke="none" d="M 13231,17674 L 13231,18195 13322,18195 13322,17464 13262,17464 C 13230,17576 13210,17592 13069,17609 L 13069,17674 13231,17674 Z"/>
         <path fill="rgb(63,110,158)" stroke="none" d="M 14134,18324 L 13515,18324 13515,18376 14134,18376 14134,18324 Z"/>
         <path fill="rgb(63,110,158)" stroke="none" d="M 14394,17464 C 14326,17464 14264,17493 14226,17544 14179,17608 14155,17706 14155,17841 14155,18088 14238,18218 14394,18218 14549,18218 14634,18088 14634,17847 14634,17705 14611,17610 14563,17544 14525,17492 14464,17464 14394,17464 L 14394,17464 Z M 14394,17544 C 14493,17544 14541,17643 14541,17839 14541,18046 14494,18143 14392,18143 14296,18143 14248,18042 14248,17842 14248,17642 14296,17544 14394,17544 L 14394,17544 Z"/>
         <path fill="none" stroke="rgb(0,0,0)" stroke-width="430" stroke-linejoin="miter" d="M 4284,13501 L 5143,13501"/>
         <path fill="rgb(0,0,0)" stroke="none" d="M 5722,13621 L 5787,13810 5876,13810 5656,13183 5553,13183 5329,13810 5415,13810 5481,13621 5722,13621 Z M 5700,13555 L 5500,13555 5604,13269 5700,13555 Z"/>
         <path fill="rgb(0,0,0)" stroke="none" d="M 6385,13918 L 5869,13918 5869,13961 6385,13961 6385,13918 Z"/>
         <path fill="rgb(0,0,0)" stroke="none" d="M 6495,13359 L 6424,13359 6424,13810 6495,13810 6495,13359 Z M 6495,13183 L 6423,13183 6423,13274 6495,13274 6495,13183 Z"/>
         <path fill="rgb(0,0,0)" stroke="none" d="M 6772,13183 L 6612,13183 6612,13992 6772,13992 6772,13930 6683,13930 6683,13245 6772,13245 6772,13183 Z"/>
         <path fill="rgb(0,0,0)" stroke="none" d="M 6985,13530 L 6995,13530 7027,13530 C 7110,13530 7153,13568 7153,13641 7153,13717 7106,13762 7027,13762 6944,13762 6904,13721 6899,13633 L 6823,13633 C 6827,13682 6835,13713 6850,13741 6881,13800 6941,13830 7024,13830 7150,13830 7231,13755 7231,13640 7231,13562 7201,13519 7127,13494 7184,13472 7212,13429 7212,13368 7212,13263 7143,13200 7027,13200 6904,13200 6839,13268 6836,13397 L 6911,13397 C 6912,13360 6916,13340 6925,13321 6942,13287 6980,13267 7028,13267 7094,13267 7135,13306 7135,13370 7135,13414 7120,13439 7086,13453 7065,13462 7039,13465 6985,13466 L 6985,13530 Z"/>
         <path fill="rgb(0,0,0)" stroke="none" d="M 7457,13721 L 7368,13721 7368,13810 7457,13810 7457,13721 Z M 7457,13359 L 7368,13359 7368,13449 7457,13449 7457,13359 Z"/>
         <path fill="rgb(0,0,0)" stroke="none" d="M 7749,13200 C 7692,13200 7640,13226 7609,13268 7569,13321 7549,13402 7549,13515 7549,13721 7618,13830 7749,13830 7878,13830 7948,13721 7948,13520 7948,13401 7929,13323 7889,13268 7857,13225 7806,13200 7749,13200 L 7749,13200 Z M 7749,13268 C 7830,13268 7871,13350 7871,13513 7871,13686 7831,13767 7747,13767 7667,13767 7627,13682 7627,13516 7627,13349 7667,13268 7749,13268 L 7749,13268 Z"/>
         <path fill="rgb(0,0,0)" stroke="none" d="M 8010,13992 L 8170,13992 8170,13183 8010,13183 8010,13245 8099,13245 8099,13930 8010,13930 8010,13992 Z"/>
         <path fill="none" stroke="rgb(0,0,0)" stroke-width="430" stroke-linejoin="miter" d="M 4284,15220 L 5143,15220"/>
         <path fill="rgb(0,0,0)" stroke="none" d="M 5383,15528 L 5666,15528 C 5725,15528 5769,15512 5802,15476 5833,15443 5850,15399 5850,15350 5850,15274 5816,15229 5736,15198 5793,15171 5823,15124 5823,15061 5823,15015 5806,14975 5773,14946 5740,14916 5697,14902 5637,14902 L 5383,14902 5383,15528 Z M 5463,15172 L 5463,14972 5617,14972 C 5662,14972 5687,14979 5708,14995 5731,15012 5743,15038 5743,15072 5743,15106 5731,15132 5708,15150 5687,15166 5662,15172 5617,15172 L 5463,15172 Z M 5463,15458 L 5463,15242 5658,15242 C 5697,15242 5722,15252 5741,15272 5760,15292 5770,15320 5770,15351 5770,15381 5760,15408 5741,15428 5722,15449 5697,15458 5658,15458 L 5463,15458 Z"/>
         <path fill="rgb(0,0,0)" stroke="none" d="M 6385,15637 L 5869,15637 5869,15680 6385,15680 6385,15637 Z"/>
         <path fill="rgb(0,0,0)" stroke="none" d="M 6495,15078 L 6424,15078 6424,15528 6495,15528 6495,15078 Z M 6495,14902 L 6423,14902 6423,14992 6495,14992 6495,14902 Z"/>
         <path fill="rgb(0,0,0)" stroke="none" d="M 6772,14902 L 6612,14902 6612,15711 6772,15711 6772,15649 6683,15649 6683,14964 6772,14964 6772,14902 Z"/>
         <path fill="rgb(0,0,0)" stroke="none" d="M 6985,15249 L 6995,15249 7027,15248 C 7110,15248 7153,15286 7153,15359 7153,15435 7106,15481 7027,15481 6944,15481 6904,15440 6899,15352 L 6823,15352 C 6827,15401 6835,15432 6850,15460 6881,15518 6941,15548 7024,15548 7150,15548 7231,15473 7231,15358 7231,15281 7201,15238 7127,15213 7184,15191 7212,15148 7212,15087 7212,14982 7143,14919 7027,14919 6904,14919 6839,14986 6836,15116 L 6911,15116 C 6912,15079 6916,15059 6925,15040 6942,15006 6980,14985 7028,14985 7094,14985 7135,15025 7135,15089 7135,15132 7120,15158 7086,15172 7065,15181 7039,15184 6985,15185 L 6985,15249 Z"/>
         <path fill="rgb(0,0,0)" stroke="none" d="M 7457,15439 L 7368,15439 7368,15528 7457,15528 7457,15439 Z M 7457,15078 L 7368,15078 7368,15168 7457,15168 7457,15078 Z"/>
         <path fill="rgb(0,0,0)" stroke="none" d="M 7749,14919 C 7692,14919 7640,14944 7609,14986 7569,15040 7549,15121 7549,15234 7549,15439 7618,15548 7749,15548 7878,15548 7948,15439 7948,15239 7948,15120 7929,15041 7889,14986 7857,14943 7806,14919 7749,14919 L 7749,14919 Z M 7749,14986 C 7830,14986 7871,15069 7871,15232 7871,15405 7831,15485 7747,15485 7667,15485 7627,15401 7627,15234 7627,15068 7667,14986 7749,14986 L 7749,14986 Z"/>
         <path fill="rgb(0,0,0)" stroke="none" d="M 8010,15711 L 8170,15711 8170,14902 8010,14902 8010,14964 8099,14964 8099,15649 8010,15649 8010,15711 Z"/>
         <path fill="none" stroke="rgb(0,0,0)" stroke-width="430" stroke-linejoin="miter" d="M 16315,14361 L 15456,14361"/>
         <path fill="rgb(0,0,0)" stroke="none" d="M 12415,14424 L 12651,14043 12555,14043 12377,14348 12193,14043 12094,14043 12335,14424 12335,14669 12415,14669 12415,14424 Z"/>
         <path fill="rgb(0,0,0)" stroke="none" d="M 13152,14778 L 12637,14778 12637,14820 13152,14820 13152,14778 Z"/>
         <path fill="rgb(0,0,0)" stroke="none" d="M 13368,14206 C 13241,14206 13165,14296 13165,14447 13165,14599 13240,14689 13368,14689 13495,14689 13572,14599 13572,14451 13572,14295 13497,14206 13368,14206 L 13368,14206 Z M 13368,14272 C 13449,14272 13497,14338 13497,14450 13497,14556 13448,14623 13368,14623 13288,14623 13239,14557 13239,14447 13239,14339 13288,14272 13368,14272 L 13368,14272 Z"/>
         <path fill="rgb(0,0,0)" stroke="none" d="M 13827,14043 L 13667,14043 13667,14851 13827,14851 13827,14789 13738,14789 13738,14104 13827,14104 13827,14043 Z"/>
         <path fill="rgb(0,0,0)" stroke="none" d="M 14040,14390 L 14050,14390 14081,14389 C 14165,14389 14208,14427 14208,14500 14208,14576 14160,14622 14081,14622 13999,14622 13959,14580 13954,14492 L 13878,14492 C 13881,14541 13890,14573 13905,14600 13936,14659 13996,14689 14079,14689 14204,14689 14285,14614 14285,14499 14285,14422 14255,14378 14182,14354 14239,14332 14267,14288 14267,14227 14267,14123 14198,14060 14081,14060 13959,14060 13893,14127 13891,14256 L 13966,14256 C 13967,14220 13970,14199 13980,14180 13997,14146 14035,14126 14082,14126 14149,14126 14190,14165 14190,14230 14190,14273 14174,14299 14141,14313 14120,14321 14094,14325 14040,14325 L 14040,14390 Z"/>
         <path fill="rgb(0,0,0)" stroke="none" d="M 14512,14580 L 14423,14580 14423,14669 14512,14669 14512,14580 Z M 14512,14219 L 14423,14219 14423,14308 14512,14308 14512,14219 Z"/>
         <path fill="rgb(0,0,0)" stroke="none" d="M 14803,14060 C 14747,14060 14695,14085 14663,14127 14624,14180 14604,14262 14604,14375 14604,14580 14673,14689 14803,14689 14932,14689 15003,14580 15003,14379 15003,14261 14984,14182 14943,14127 14912,14084 14861,14060 14803,14060 L 14803,14060 Z M 14803,14127 C 14885,14127 14926,14209 14926,14373 14926,14546 14886,14626 14802,14626 14722,14626 14681,14542 14681,14375 14681,14208 14722,14127 14803,14127 L 14803,14127 Z"/>
         <path fill="rgb(0,0,0)" stroke="none" d="M 15065,14851 L 15225,14851 15225,14043 15065,14043 15065,14104 15153,14104 15153,14789 15065,14789 15065,14851 Z"/>
         <path fill="none" stroke="rgb(63,110,158)" stroke-width="86" stroke-linejoin="miter" d="M 5745,11783 L 14854,11783"/>
         <path fill="none" stroke="rgb(63,110,158)" stroke-width="86" stroke-linejoin="miter" d="M 15456,12384 C 15456,12375 15456,12365 15456,12356 15448,12031 15178,11775 14854,11783"/>
         <path fill="none" stroke="rgb(63,110,158)" stroke-width="86" stroke-linejoin="miter" d="M 15456,12384 L 15456,16337"/>
         <path fill="none" stroke="rgb(63,110,158)" stroke-width="86" stroke-linejoin="miter" d="M 14854,16939 C 14864,16939 14873,16939 14883,16939 15207,16931 15464,16661 15456,16337"/>
         <path fill="none" stroke="rgb(63,110,158)" stroke-width="86" stroke-linejoin="miter" d="M 14854,16939 L 5745,16939"/>
         <path fill="none" stroke="rgb(63,110,158)" stroke-width="86" stroke-linejoin="miter" d="M 5143,16337 C 5143,16347 5143,16356 5143,16366 5151,16690 5420,16946 5745,16939"/>
         <path fill="none" stroke="rgb(63,110,158)" stroke-width="86" stroke-linejoin="miter" d="M 5143,16337 L 5143,12384"/>
         <path fill="none" stroke="rgb(63,110,158)" stroke-width="86" stroke-linejoin="miter" d="M 5745,11783 C 5735,11782 5725,11782 5716,11783 5392,11791 5135,12060 5143,12384"/>
        </g>
       </g>
      </g>
     </g>
    </g>
   </g>
  </g>
 </g>
</svg>