<?xml version="1.0" encoding="UTF-8"?>
<!DOCTYPE svg PUBLIC "-//W3C//DTD SVG 1.1//EN" "http://www.w3.org/Graphics/SVG/1.1/DTD/svg11.dtd">
<svg version="1.2" width="132.99mm" height="103.99mm" viewBox="4300 10100 13299 10399" preserveAspectRatio="xMidYMid" fill-rule="evenodd" stroke-width="28.222" stroke-linejoin="round" xmlns="http://www.w3.org/2000/svg" xmlns:ooo="http://xml.openoffice.org/svg/export" xmlns:xlink="http://www.w3.org/1999/xlink" xmlns:presentation="http://sun.com/xmlns/staroffice/presentation" xmlns:smil="http://www.w3.org/2001/SMIL20/" xmlns:anim="urn:oasis:names:tc:opendocument:xmlns:animation:1.0" xml:space="preserve">
 <defs class="ClipPathGroup">
  <clipPath id="presentation_clip_path" clipPathUnits="userSpaceOnUse">
   <rect x="4300" y="10100" width="13299" height="10399"/>
  </clipPath>
  <clipPath id="presentation_clip_path_shrink" clipPathUnits="userSpaceOnUse">
   <rect x="4313" y="10110" width="13273" height="10379"/>
  </clipPath>
 </defs>
 <defs class="TextShapeIndex">
  <g ooo:slide="id1" ooo:id-list="id3"/>
 </defs>
 <defs class="EmbeddedBulletChars">
  <g id="bullet-char-template-57356" transform="scale(0.00048828125,-0.00048828125)">
   <path d="M 580,1141 L 1163,571 580,0 -4,571 580,1141 Z"/>
  </g>
  <g id="bullet-char-template-57354" transform="scale(0.00048828125,-0.00048828125)">
   <path d="M 8,1128 L 1137,1128 1137,0 8,0 8,1128 Z"/>
  </g>
  <g id="bullet-char-template-10146" transform="scale(0.00048828125,-0.00048828125)">
   <path d="M 174,0 L 602,739 174,1481 1456,739 174,0 Z M 1358,739 L 309,1346 659,739 1358,739 Z"/>
  </g>
  <g id="bullet-char-template-10132" transform="scale(0.00048828125,-0.00048828125)">
   <path d="M 2015,739 L 1276,0 717,0 1260,543 174,543 174,936 1260,936 717,1481 1274,1481 2015,739 Z"/>
  </g>
  <g id="bullet-char-template-10007" transform="scale(0.00048828125,-0.00048828125)">
   <path d="M 0,-2 C -7,14 -16,27 -25,37 L 356,567 C 262,823 215,952 215,954 215,979 228,992 255,992 264,992 276,990 289,987 310,991 331,999 354,1012 L 381,999 492,748 772,1049 836,1024 860,1049 C 881,1039 901,1025 922,1006 886,937 835,863 770,784 769,783 710,716 594,584 L 774,223 C 774,196 753,168 711,139 L 727,119 C 717,90 699,76 672,76 641,76 570,178 457,381 L 164,-76 C 142,-110 111,-127 72,-127 30,-127 9,-110 8,-76 1,-67 -2,-52 -2,-32 -2,-23 -1,-13 0,-2 Z"/>
  </g>
  <g id="bullet-char-template-10004" transform="scale(0.00048828125,-0.00048828125)">
   <path d="M 285,-33 C 182,-33 111,30 74,156 52,228 41,333 41,471 41,549 55,616 82,672 116,743 169,778 240,778 293,778 328,747 346,684 L 369,508 C 377,444 397,411 428,410 L 1163,1116 C 1174,1127 1196,1133 1229,1133 1271,1133 1292,1118 1292,1087 L 1292,965 C 1292,929 1282,901 1262,881 L 442,47 C 390,-6 338,-33 285,-33 Z"/>
  </g>
  <g id="bullet-char-template-9679" transform="scale(0.00048828125,-0.00048828125)">
   <path d="M 813,0 C 632,0 489,54 383,161 276,268 223,411 223,592 223,773 276,916 383,1023 489,1130 632,1184 813,1184 992,1184 1136,1130 1245,1023 1353,916 1407,772 1407,592 1407,412 1353,268 1245,161 1136,54 992,0 813,0 Z"/>
  </g>
  <g id="bullet-char-template-8226" transform="scale(0.00048828125,-0.00048828125)">
   <path d="M 346,457 C 273,457 209,483 155,535 101,586 74,649 74,723 74,796 101,859 155,911 209,963 273,989 346,989 419,989 480,963 531,910 582,859 608,796 608,723 608,648 583,586 532,535 482,483 420,457 346,457 Z"/>
  </g>
  <g id="bullet-char-template-8211" transform="scale(0.00048828125,-0.00048828125)">
   <path d="M -4,459 L 1135,459 1135,606 -4,606 -4,459 Z"/>
  </g>
  <g id="bullet-char-template-61548" transform="scale(0.00048828125,-0.00048828125)">
   <path d="M 173,740 C 173,903 231,1043 346,1159 462,1274 601,1332 765,1332 928,1332 1067,1274 1183,1159 1299,1043 1357,903 1357,740 1357,577 1299,437 1183,322 1067,206 928,148 765,148 601,148 462,206 346,322 231,437 173,577 173,740 Z"/>
  </g>
 </defs>
 <defs class="TextEmbeddedBitmaps"/>
 <g class="SlideGroup">
  <g>
   <g id="container-id1">
    <g id="id1" class="Slide" clip-path="url(#presentation_clip_path)">
     <g class="Page">
      <g class="Graphic">
       <g id="id3">
        <rect class="BoundingBox" stroke="none" fill="none" x="4300" y="10100" width="13300" height="10400"/>
        <defs>
         <clipPath id="clip_path_1" clipPathUnits="userSpaceOnUse">
          <path d="M 4300,10100 L 17599,10100 17599,20499 4300,20499 4300,10100 Z"/>
         </clipPath>
        </defs>
        <g clip-path="url(#clip_path_1)"/>
        <defs>
         <clipPath id="clip_path_2" clipPathUnits="userSpaceOnUse">
          <path d="M 4300,10100 L 17599,10100 17599,20499 4300,20499 4300,10100 Z"/>
         </clipPath>
        </defs>
        <g clip-path="url(#clip_path_2)">
         <path fill="rgb(255,255,255)" stroke="none" d="M 2206,9065 L 19393,9065 19393,22040 2206,22040 2206,9065 Z"/>
        </g>
        <g clip-path="url(#clip_path_1)">
         <path fill="rgb(0,0,0)" stroke="none" d="M 6675,12072 L 15784,12072 16042,12158 16214,12244 16300,12416 16386,12674 16386,18345 16300,18603 16214,18775 16042,18861 15784,18947 6675,18947 6417,18861 6245,18775 6159,18603 6073,18345 6073,12674 6159,12416 6245,12244 6417,12158 6675,12072 Z"/>
        </g>
        <defs>
         <clipPath id="clip_path_3" clipPathUnits="userSpaceOnUse">
          <path d="M 6245,11643 L 15354,11643 15612,11729 15784,11815 15870,11986 15956,12244 15956,17916 15870,18173 15784,18345 15612,18431 15354,18517 6245,18517 5987,18431 5815,18345 5729,18173 5643,17916 5643,12244 5729,11986 5815,11815 5987,11729 6245,11643 Z"/>
         </clipPath>
        </defs>
        <g clip-path="url(#clip_path_3)"/>
        <defs>
         <clipPath id="clip_path_4" clipPathUnits="userSpaceOnUse">
          <path d="M 6245,11643 L 15354,11643 15612,11729 15784,11815 15870,11986 15956,12244 15956,17916 15870,18173 15784,18345 15612,18431 15354,18517 6245,18517 5987,18431 5815,18345 5729,18173 5643,17916 5643,12244 5729,11986 5815,11815 5987,11729 6245,11643 Z"/>
         </clipPath>
        </defs>
        <g clip-path="url(#clip_path_4)">
         <path fill="rgb(189,212,236)" stroke="none" d="M 2386,16191 L 2555,16311 9290,6882 9122,6762 2386,16191 Z"/>
         <path fill="rgb(189,212,236)" stroke="none" d="M 2544,16303 L 2712,16423 9448,6994 9280,6874 2544,16303 Z"/>
         <path fill="rgb(190,213,236)" stroke="none" d="M 2701,16416 L 2870,16536 9605,7107 9437,6987 2701,16416 Z"/>
         <path fill="rgb(191,213,236)" stroke="none" d="M 2859,16528 L 3027,16648 9763,7219 9595,7099 2859,16528 Z"/>
         <path fill="rgb(192,214,237)" stroke="none" d="M 3016,16641 L 3185,16761 9920,7332 9752,7212 3016,16641 Z"/>
         <path fill="rgb(192,214,237)" stroke="none" d="M 3174,16753 L 3342,16873 10078,7444 9910,7324 3174,16753 Z"/>
         <path fill="rgb(193,215,237)" stroke="none" d="M 3331,16866 L 3500,16986 10235,7557 10067,7437 3331,16866 Z"/>
         <path fill="rgb(194,215,237)" stroke="none" d="M 3489,16978 L 3657,17098 10393,7669 10225,7549 3489,16978 Z"/>
         <path fill="rgb(195,216,237)" stroke="none" d="M 3646,17091 L 3815,17211 10550,7782 10382,7662 3646,17091 Z"/>
         <path fill="rgb(196,216,237)" stroke="none" d="M 3804,17203 L 3972,17323 10708,7894 10540,7774 3804,17203 Z"/>
         <path fill="rgb(196,216,238)" stroke="none" d="M 3961,17316 L 4130,17436 10865,8007 10697,7887 3961,17316 Z"/>
         <path fill="rgb(197,217,238)" stroke="none" d="M 4119,17428 L 4287,17548 11023,8119 10855,7999 4119,17428 Z"/>
         <path fill="rgb(198,217,238)" stroke="none" d="M 4276,17541 L 4445,17661 11180,8232 11012,8112 4276,17541 Z"/>
         <path fill="rgb(199,218,238)" stroke="none" d="M 4434,17653 L 4602,17773 11338,8344 11170,8224 4434,17653 Z"/>
         <path fill="rgb(200,218,238)" stroke="none" d="M 4591,17766 L 4760,17886 11495,8457 11327,8337 4591,17766 Z"/>
         <path fill="rgb(200,219,238)" stroke="none" d="M 4749,17878 L 4917,17998 11653,8569 11485,8449 4749,17878 Z"/>
         <path fill="rgb(201,219,239)" stroke="none" d="M 4906,17991 L 5075,18111 11810,8682 11642,8562 4906,17991 Z"/>
         <path fill="rgb(202,220,239)" stroke="none" d="M 5064,18103 L 5232,18223 11968,8794 11800,8674 5064,18103 Z"/>
         <path fill="rgb(203,220,239)" stroke="none" d="M 5221,18216 L 5390,18336 12125,8907 11957,8787 5221,18216 Z"/>
         <path fill="rgb(203,221,239)" stroke="none" d="M 5379,18328 L 5547,18448 12283,9019 12115,8899 5379,18328 Z"/>
         <path fill="rgb(204,221,239)" stroke="none" d="M 5536,18441 L 5649,18521 12384,9092 12272,9012 5536,18441 Z"/>
         <path fill="rgb(205,222,239)" stroke="none" d="M 5638,18513 L 5705,18561 12440,9132 12374,9084 5638,18513 Z"/>
         <path fill="rgb(205,222,239)" stroke="none" d="M 5694,18553 L 5862,18673 12598,9244 12430,9124 5694,18553 Z"/>
         <path fill="rgb(206,222,239)" stroke="none" d="M 5851,18666 L 6020,18786 12755,9357 12587,9237 5851,18666 Z"/>
         <path fill="rgb(207,223,240)" stroke="none" d="M 6009,18778 L 6177,18898 12913,9469 12745,9349 6009,18778 Z"/>
         <path fill="rgb(207,223,240)" stroke="none" d="M 6167,18891 L 6335,19011 13070,9582 12902,9462 6167,18891 Z"/>
         <path fill="rgb(208,224,240)" stroke="none" d="M 6324,19003 L 6492,19123 13228,9694 13060,9574 6324,19003 Z"/>
         <path fill="rgb(209,224,240)" stroke="none" d="M 6482,19116 L 6650,19236 13385,9807 13217,9687 6482,19116 Z"/>
         <path fill="rgb(210,224,240)" stroke="none" d="M 6639,19228 L 6807,19348 13543,9919 13375,9799 6639,19228 Z"/>
         <path fill="rgb(211,225,240)" stroke="none" d="M 6797,19341 L 6965,19461 13700,10032 13532,9912 6797,19341 Z"/>
         <path fill="rgb(211,225,241)" stroke="none" d="M 6954,19453 L 7122,19573 13858,10144 13690,10024 6954,19453 Z"/>
         <path fill="rgb(212,226,241)" stroke="none" d="M 7112,19566 L 7280,19686 14015,10257 13847,10137 7112,19566 Z"/>
         <path fill="rgb(213,226,241)" stroke="none" d="M 7269,19678 L 7437,19798 14173,10369 14005,10249 7269,19678 Z"/>
         <path fill="rgb(214,227,241)" stroke="none" d="M 7427,19791 L 7595,19911 14330,10482 14162,10362 7427,19791 Z"/>
         <path fill="rgb(214,227,241)" stroke="none" d="M 7584,19903 L 7752,20023 14488,10594 14320,10474 7584,19903 Z"/>
         <path fill="rgb(215,228,241)" stroke="none" d="M 7742,20016 L 7910,20136 14645,10707 14477,10586 7742,20016 Z"/>
         <path fill="rgb(216,228,241)" stroke="none" d="M 7899,20128 L 8067,20248 14803,10819 14635,10699 7899,20128 Z"/>
         <path fill="rgb(217,229,242)" stroke="none" d="M 8057,20241 L 8225,20361 14960,10932 14792,10811 8057,20241 Z"/>
         <path fill="rgb(218,229,242)" stroke="none" d="M 8214,20353 L 8382,20473 15118,11044 14950,10924 8214,20353 Z"/>
         <path fill="rgb(218,230,242)" stroke="none" d="M 8372,20466 L 8540,20586 15275,11157 15107,11036 8372,20466 Z"/>
         <path fill="rgb(219,230,242)" stroke="none" d="M 8529,20578 L 8697,20698 15433,11269 15265,11149 8529,20578 Z"/>
         <path fill="rgb(220,231,242)" stroke="none" d="M 8687,20691 L 8855,20811 15590,11382 15422,11261 8687,20691 Z"/>
         <path fill="rgb(221,231,242)" stroke="none" d="M 8844,20803 L 9012,20923 15748,11494 15580,11374 8844,20803 Z"/>
         <path fill="rgb(222,232,243)" stroke="none" d="M 9002,20916 L 9170,21036 15905,11607 15737,11486 9002,20916 Z"/>
         <path fill="rgb(222,232,243)" stroke="none" d="M 9159,21028 L 9226,21076 15961,11646 15895,11599 9159,21028 Z"/>
         <path fill="rgb(223,232,243)" stroke="none" d="M 9215,21068 L 9327,21148 16063,11719 15950,11639 9215,21068 Z"/>
         <path fill="rgb(223,233,243)" stroke="none" d="M 9317,21141 L 9485,21261 16220,11832 16052,11711 9317,21141 Z"/>
         <path fill="rgb(224,233,243)" stroke="none" d="M 9474,21253 L 9642,21373 16378,11944 16210,11824 9474,21253 Z"/>
         <path fill="rgb(225,233,243)" stroke="none" d="M 9632,21366 L 9800,21486 16535,12057 16367,11936 9632,21366 Z"/>
         <path fill="rgb(225,234,243)" stroke="none" d="M 9789,21478 L 9957,21598 16693,12169 16525,12049 9789,21478 Z"/>
         <path fill="rgb(226,234,244)" stroke="none" d="M 9947,21590 L 10115,21711 16850,12282 16682,12161 9947,21590 Z"/>
         <path fill="rgb(227,235,244)" stroke="none" d="M 10104,21703 L 10272,21823 17008,12394 16840,12274 10104,21703 Z"/>
         <path fill="rgb(228,235,244)" stroke="none" d="M 10262,21815 L 10430,21936 17165,12507 16997,12386 10262,21815 Z"/>
         <path fill="rgb(229,236,244)" stroke="none" d="M 10419,21928 L 10587,22048 17323,12619 17155,12499 10419,21928 Z"/>
         <path fill="rgb(229,236,244)" stroke="none" d="M 10577,22040 L 10745,22161 17480,12732 17312,12611 10577,22040 Z"/>
         <path fill="rgb(230,237,244)" stroke="none" d="M 10734,22153 L 10902,22273 17638,12844 17470,12724 10734,22153 Z"/>
         <path fill="rgb(231,237,244)" stroke="none" d="M 10892,22265 L 11060,22386 17795,12957 17627,12836 10892,22265 Z"/>
         <path fill="rgb(232,238,245)" stroke="none" d="M 11049,22378 L 11217,22498 17953,13069 17785,12949 11049,22378 Z"/>
         <path fill="rgb(233,238,245)" stroke="none" d="M 11207,22490 L 11375,22611 18110,13181 17942,13061 11207,22490 Z"/>
         <path fill="rgb(233,239,245)" stroke="none" d="M 11364,22603 L 11532,22723 18268,13294 18100,13174 11364,22603 Z"/>
         <path fill="rgb(234,239,245)" stroke="none" d="M 11522,22715 L 11690,22836 18425,13406 18257,13286 11522,22715 Z"/>
         <path fill="rgb(235,240,245)" stroke="none" d="M 11679,22828 L 11847,22948 18583,13519 18415,13399 11679,22828 Z"/>
         <path fill="rgb(236,240,245)" stroke="none" d="M 11837,22940 L 12005,23061 18740,13631 18572,13511 11837,22940 Z"/>
         <path fill="rgb(236,240,246)" stroke="none" d="M 11994,23053 L 12162,23173 18898,13744 18730,13624 11994,23053 Z"/>
         <path fill="rgb(237,241,246)" stroke="none" d="M 12152,23165 L 12320,23286 19055,13856 18887,13736 12152,23165 Z"/>
         <path fill="rgb(238,241,246)" stroke="none" d="M 12309,23278 L 12477,23398 19213,13969 19045,13849 12309,23278 Z"/>
        </g>
        <g clip-path="url(#clip_path_3)"/>
        <g clip-path="url(#clip_path_1)">
         <path fill="rgb(0,0,0)" stroke="none" d="M 7999,10717 L 7909,10717 7909,10633 C 7909,10596 7930,10578 7969,10578 7976,10578 7979,10578 7999,10579 L 7999,10508 C 7979,10504 7968,10503 7950,10503 7871,10503 7823,10548 7823,10625 L 7823,10717 7751,10717 7751,10787 7823,10787 7823,11257 7909,11257 7909,10787 7999,10787 7999,10717 Z"/>
         <path fill="rgb(0,0,0)" stroke="none" d="M 8300,10701 C 8148,10701 8057,10810 8057,10991 8057,11173 8147,11281 8301,11281 8452,11281 8545,11173 8545,10995 8545,10809 8456,10701 8300,10701 L 8300,10701 Z M 8301,10781 C 8398,10781 8456,10860 8456,10994 8456,11121 8396,11202 8301,11202 8205,11202 8146,11122 8146,10991 8146,10861 8205,10781 8301,10781 L 8301,10781 Z"/>
         <path fill="rgb(0,0,0)" stroke="none" d="M 9090,11257 L 9090,10717 9004,10717 9004,11023 C 9004,11134 8946,11206 8857,11206 8789,11206 8745,11164 8745,11099 L 8745,10717 8660,10717 8660,11134 C 8660,11223 8727,11281 8832,11281 8912,11281 8962,11253 9013,11182 L 9013,11257 9090,11257 Z"/>
         <path fill="rgb(0,0,0)" stroke="none" d="M 9237,10717 L 9237,11257 9324,11257 9324,10977 C 9324,10899 9343,10849 9385,10819 9412,10800 9437,10793 9497,10792 L 9497,10705 C 9483,10703 9476,10701 9464,10701 9408,10701 9366,10735 9317,10815 L 9317,10717 9237,10717 Z"/>
         <path fill="rgb(0,0,0)" stroke="none" d="M 10106,11387 L 9487,11387 9487,11439 10106,11439 10106,11387 Z"/>
         <path fill="rgb(0,0,0)" stroke="none" d="M 10635,11207 C 10625,11209 10621,11209 10616,11209 10586,11209 10570,11193 10570,11167 L 10570,10849 C 10570,10753 10500,10701 10366,10701 10288,10701 10223,10724 10187,10764 10162,10792 10152,10823 10150,10877 L 10237,10877 C 10244,10811 10283,10781 10363,10781 10441,10781 10484,10810 10484,10861 L 10484,10884 C 10484,10920 10462,10936 10394,10944 10273,10959 10254,10963 10221,10977 10158,11003 10126,11051 10126,11121 10126,11219 10194,11281 10304,11281 10372,11281 10426,11257 10487,11202 10493,11256 10520,11281 10576,11281 10594,11281 10607,11279 10635,11272 L 10635,11207 Z M 10484,11087 C 10484,11116 10476,11134 10450,11157 10415,11189 10373,11206 10322,11206 10255,11206 10216,11174 10216,11119 10216,11063 10254,11034 10346,11020 10437,11008 10455,11004 10484,10990 L 10484,11087 Z"/>
         <path fill="rgb(0,0,0)" stroke="none" d="M 11167,10506 L 11081,10506 11081,10785 C 11045,10730 10987,10701 10915,10701 10775,10701 10683,10814 10683,10986 10683,11169 10773,11281 10918,11281 10992,11281 11044,11253 11090,11186 L 11090,11257 11167,11257 11167,10506 Z M 10930,10782 C 11023,10782 11081,10865 11081,10993 11081,11118 11022,11201 10930,11201 10836,11201 10773,11117 10773,10991 10773,10865 10836,10782 10930,10782 L 10930,10782 Z"/>
         <path fill="rgb(0,0,0)" stroke="none" d="M 11740,10506 L 11655,10506 11655,10785 C 11619,10730 11561,10701 11488,10701 11348,10701 11256,10814 11256,10986 11256,11169 11346,11281 11492,11281 11566,11281 11618,11253 11664,11186 L 11664,11257 11740,11257 11740,10506 Z M 11503,10782 C 11596,10782 11655,10865 11655,10993 11655,11118 11595,11201 11504,11201 11409,11201 11346,11117 11346,10991 11346,10865 11409,10782 11503,10782 L 11503,10782 Z"/>
         <path fill="rgb(0,0,0)" stroke="none" d="M 12332,11016 C 12332,10933 12326,10884 12310,10844 12275,10755 12193,10701 12092,10701 11941,10701 11844,10817 11844,10994 11844,11172 11938,11281 12090,11281 12213,11281 12299,11211 12321,11093 L 12234,11093 C 12210,11164 12162,11202 12093,11202 12038,11202 11992,11177 11963,11131 11942,11100 11935,11070 11934,11016 L 12332,11016 Z M 11936,10946 C 11944,10846 12004,10781 12091,10781 12176,10781 12240,10851 12240,10940 12240,10942 12240,10944 12240,10946 L 11936,10946 Z"/>
         <path fill="rgb(0,0,0)" stroke="none" d="M 12448,10717 L 12448,11257 12534,11257 12534,10977 C 12534,10899 12554,10849 12595,10819 12622,10800 12648,10793 12707,10792 L 12707,10705 C 12693,10703 12686,10701 12674,10701 12619,10701 12576,10735 12527,10815 L 12527,10717 12448,10717 Z"/>
         <path fill="rgb(0,0,0)" stroke="none" d="M 13316,11387 L 12697,11387 12697,11439 13316,11439 13316,11387 Z"/>
         <path fill="rgb(0,0,0)" stroke="none" d="M 13577,10526 C 13509,10526 13447,10556 13408,10607 13362,10671 13338,10769 13338,10904 13338,11150 13420,11281 13577,11281 13732,11281 13816,11150 13816,10910 13816,10768 13794,10673 13745,10607 13707,10555 13646,10526 13577,10526 L 13577,10526 Z M 13577,10607 C 13675,10607 13723,10706 13723,10901 13723,11109 13676,11206 13575,11206 13479,11206 13430,11105 13430,10905 13430,10705 13479,10607 13577,10607 L 13577,10607 Z"/>
         <path fill="rgb(63,110,158)" stroke="none" d="M 7168,19232 L 7078,19232 7078,19148 C 7078,19112 7099,19093 7138,19093 7145,19093 7148,19093 7168,19094 L 7168,19023 C 7148,19019 7137,19018 7119,19018 7040,19018 6992,19063 6992,19141 L 6992,19232 6920,19232 6920,19303 6992,19303 6992,19773 7078,19773 7078,19303 7168,19303 7168,19232 Z"/>
         <path fill="rgb(63,110,158)" stroke="none" d="M 7469,19217 C 7317,19217 7226,19325 7226,19507 7226,19688 7316,19797 7470,19797 7621,19797 7714,19688 7714,19511 7714,19325 7625,19217 7469,19217 L 7469,19217 Z M 7470,19296 C 7567,19296 7625,19376 7625,19510 7625,19637 7565,19717 7470,19717 7374,19717 7315,19638 7315,19507 7315,19377 7374,19296 7470,19296 L 7470,19296 Z"/>
         <path fill="rgb(63,110,158)" stroke="none" d="M 8259,19773 L 8259,19232 8173,19232 8173,19539 C 8173,19650 8115,19722 8026,19722 7958,19722 7914,19680 7914,19615 L 7914,19232 7828,19232 7828,19650 C 7828,19739 7896,19797 8001,19797 8080,19797 8131,19769 8182,19698 L 8182,19773 8259,19773 Z"/>
         <path fill="rgb(63,110,158)" stroke="none" d="M 8406,19232 L 8406,19773 8493,19773 8493,19493 C 8493,19415 8512,19365 8553,19335 8581,19315 8606,19309 8666,19308 L 8666,19220 C 8652,19218 8645,19217 8633,19217 8577,19217 8535,19250 8486,19331 L 8486,19232 8406,19232 Z"/>
         <path fill="rgb(63,110,158)" stroke="none" d="M 9275,19903 L 8656,19903 8656,19955 9275,19955 9275,19903 Z"/>
         <path fill="rgb(63,110,158)" stroke="none" d="M 9804,19723 C 9794,19725 9790,19725 9785,19725 9755,19725 9739,19709 9739,19682 L 9739,19365 C 9739,19269 9668,19217 9535,19217 9457,19217 9392,19240 9356,19280 9331,19308 9321,19339 9319,19392 L 9405,19392 C 9413,19326 9452,19296 9532,19296 9610,19296 9653,19325 9653,19377 L 9653,19400 C 9653,19436 9631,19451 9563,19460 9442,19475 9423,19479 9390,19493 9327,19518 9295,19567 9295,19637 9295,19735 9363,19797 9473,19797 9540,19797 9595,19773 9656,19717 9662,19772 9689,19797 9745,19797 9762,19797 9776,19795 9804,19788 L 9804,19723 Z M 9653,19603 C 9653,19632 9645,19650 9619,19673 9584,19705 9541,19722 9491,19722 9424,19722 9385,19690 9385,19635 9385,19578 9423,19549 9515,19536 9605,19524 9624,19519 9653,19506 L 9653,19603 Z"/>
         <path fill="rgb(63,110,158)" stroke="none" d="M 10336,19021 L 10250,19021 10250,19301 C 10214,19246 10156,19217 10084,19217 9944,19217 9852,19330 9852,19502 9852,19684 9942,19797 10087,19797 10161,19797 10213,19769 10259,19702 L 10259,19773 10336,19773 10336,19021 Z M 10098,19298 C 10191,19298 10250,19380 10250,19509 10250,19634 10190,19716 10099,19716 10004,19716 9942,19633 9942,19507 9942,19381 10004,19298 10098,19298 L 10098,19298 Z"/>
         <path fill="rgb(63,110,158)" stroke="none" d="M 10909,19021 L 10823,19021 10823,19301 C 10787,19246 10729,19217 10657,19217 10517,19217 10425,19330 10425,19502 10425,19684 10515,19797 10661,19797 10735,19797 10787,19769 10833,19702 L 10833,19773 10909,19773 10909,19021 Z M 10672,19298 C 10765,19298 10823,19380 10823,19509 10823,19634 10764,19716 10673,19716 10578,19716 10515,19633 10515,19507 10515,19381 10578,19298 10672,19298 L 10672,19298 Z"/>
         <path fill="rgb(63,110,158)" stroke="none" d="M 11501,19532 C 11501,19449 11495,19400 11479,19359 11444,19271 11362,19217 11261,19217 11110,19217 11013,19333 11013,19510 11013,19687 11107,19797 11259,19797 11382,19797 11468,19727 11490,19609 L 11403,19609 C 11379,19680 11331,19717 11262,19717 11207,19717 11161,19693 11132,19647 11111,19616 11104,19586 11103,19532 L 11501,19532 Z M 11105,19462 C 11112,19362 11173,19296 11260,19296 11344,19296 11409,19367 11409,19455 11409,19458 11409,19460 11408,19462 L 11105,19462 Z"/>
         <path fill="rgb(63,110,158)" stroke="none" d="M 11616,19232 L 11616,19773 11703,19773 11703,19493 C 11703,19415 11723,19365 11764,19335 11791,19315 11817,19309 11876,19308 L 11876,19220 C 11862,19218 11855,19217 11843,19217 11787,19217 11745,19250 11696,19331 L 11696,19232 11616,19232 Z"/>
         <path fill="rgb(63,110,158)" stroke="none" d="M 12485,19903 L 11866,19903 11866,19955 12485,19955 12485,19903 Z"/>
         <path fill="rgb(63,110,158)" stroke="none" d="M 12756,19773 L 12963,19232 12867,19232 12713,19671 12569,19232 12472,19232 12662,19773 12756,19773 Z"/>
         <path fill="rgb(63,110,158)" stroke="none" d="M 13245,19252 L 13245,19773 13336,19773 13336,19042 13276,19042 C 13244,19155 13223,19170 13083,19187 L 13083,19252 13245,19252 Z"/>
         <path fill="rgb(63,110,158)" stroke="none" d="M 14147,19903 L 13528,19903 13528,19955 14147,19955 14147,19903 Z"/>
         <path fill="rgb(63,110,158)" stroke="none" d="M 14408,19042 C 14340,19042 14278,19072 14240,19123 14193,19186 14169,19284 14169,19419 14169,19666 14251,19797 14408,19797 14563,19797 14647,19666 14647,19426 14647,19283 14625,19188 14576,19123 14538,19071 14477,19042 14408,19042 L 14408,19042 Z M 14408,19123 C 14506,19123 14555,19221 14555,19417 14555,19624 14507,19722 14406,19722 14310,19722 14261,19620 14261,19420 14261,19220 14310,19123 14408,19123 L 14408,19123 Z"/>
         <path fill="none" stroke="rgb(0,0,0)" stroke-width="430" stroke-linejoin="miter" d="M 4784,13361 L 5643,13361"/>
         <path fill="rgb(0,0,0)" stroke="none" d="M 6223,13481 L 6287,13670 6376,13670 6156,13043 6053,13043 5830,13670 5915,13670 5981,13481 6223,13481 Z M 6200,13414 L 6001,13414 6104,13129 6200,13414 Z"/>
         <path fill="rgb(0,0,0)" stroke="none" d="M 6885,13778 L 6370,13778 6370,13821 6885,13821 6885,13778 Z"/>
         <path fill="rgb(0,0,0)" stroke="none" d="M 6995,13219 L 6924,13219 6924,13670 6995,13670 6995,13219 Z M 6995,13043 L 6923,13043 6923,13134 6995,13134 6995,13043 Z"/>
         <path fill="rgb(0,0,0)" stroke="none" d="M 7272,13043 L 7112,13043 7112,13852 7272,13852 7272,13790 7184,13790 7184,13105 7272,13105 7272,13043 Z"/>
         <path fill="rgb(0,0,0)" stroke="none" d="M 7486,13390 L 7496,13390 7527,13390 C 7610,13390 7654,13428 7654,13501 7654,13577 7606,13622 7527,13622 7445,13622 7405,13581 7399,13493 L 7324,13493 C 7327,13542 7336,13573 7350,13601 7381,13660 7441,13690 7525,13690 7650,13690 7731,13615 7731,13500 7731,13422 7701,13379 7628,13354 7685,13332 7713,13289 7713,13228 7713,13123 7643,13060 7527,13060 7405,13060 7339,13128 7336,13257 L 7412,13257 C 7413,13220 7416,13200 7426,13181 7443,13147 7481,13127 7528,13127 7595,13127 7636,13166 7636,13230 7636,13274 7620,13299 7587,13313 7566,13322 7539,13325 7486,13326 L 7486,13390 Z"/>
         <path fill="rgb(0,0,0)" stroke="none" d="M 7958,13581 L 7868,13581 7868,13670 7958,13670 7958,13581 Z M 7958,13219 L 7868,13219 7868,13309 7958,13309 7958,13219 Z"/>
         <path fill="rgb(0,0,0)" stroke="none" d="M 8249,13060 C 8192,13060 8141,13086 8109,13128 8069,13181 8050,13262 8050,13375 8050,13581 8118,13690 8249,13690 8378,13690 8448,13581 8448,13380 8448,13261 8429,13182 8389,13128 8357,13085 8307,13060 8249,13060 L 8249,13060 Z M 8249,13128 C 8331,13128 8371,13210 8371,13373 8371,13546 8331,13627 8247,13627 8167,13627 8127,13542 8127,13376 8127,13209 8167,13128 8249,13128 L 8249,13128 Z"/>
         <path fill="rgb(0,0,0)" stroke="none" d="M 8510,13852 L 8670,13852 8670,13043 8510,13043 8510,13105 8599,13105 8599,13790 8510,13790 8510,13852 Z"/>
         <path fill="none" stroke="rgb(0,0,0)" stroke-width="430" stroke-linejoin="miter" d="M 4784,15080 L 5643,15080"/>
         <path fill="rgb(0,0,0)" stroke="none" d="M 5883,15388 L 6166,15388 C 6225,15388 6269,15372 6303,15336 6334,15303 6351,15259 6351,15210 6351,15134 6316,15089 6236,15058 6293,15031 6323,14984 6323,14921 6323,14875 6306,14835 6274,14806 6241,14776 6198,14762 6137,14762 L 5883,14762 5883,15388 Z M 5963,15032 L 5963,14832 6118,14832 C 6163,14832 6187,14839 6209,14855 6231,14872 6243,14898 6243,14932 6243,14966 6231,14992 6209,15010 6187,15026 6163,15032 6118,15032 L 5963,15032 Z M 5963,15318 L 5963,15102 6158,15102 C 6197,15102 6223,15112 6242,15132 6260,15152 6271,15180 6271,15211 6271,15241 6260,15268 6242,15288 6223,15308 6197,15318 6158,15318 L 5963,15318 Z"/>
         <path fill="rgb(0,0,0)" stroke="none" d="M 6885,15497 L 6370,15497 6370,15539 6885,15539 6885,15497 Z"/>
         <path fill="rgb(0,0,0)" stroke="none" d="M 6995,14938 L 6924,14938 6924,15388 6995,15388 6995,14938 Z M 6995,14762 L 6923,14762 6923,14852 6995,14852 6995,14762 Z"/>
         <path fill="rgb(0,0,0)" stroke="none" d="M 7272,14762 L 7112,14762 7112,15570 7272,15570 7272,15508 7184,15508 7184,14824 7272,14824 7272,14762 Z"/>
         <path fill="rgb(0,0,0)" stroke="none" d="M 7486,15109 L 7496,15109 7527,15108 C 7610,15108 7654,15146 7654,15219 7654,15295 7606,15341 7527,15341 7445,15341 7405,15300 7399,15212 L 7324,15212 C 7327,15260 7336,15292 7350,15320 7381,15378 7441,15408 7525,15408 7650,15408 7731,15333 7731,15218 7731,15141 7701,15098 7628,15073 7685,15051 7713,15008 7713,14947 7713,14842 7643,14779 7527,14779 7405,14779 7339,14846 7336,14976 L 7412,14976 C 7413,14939 7416,14919 7426,14900 7443,14866 7481,14845 7528,14845 7595,14845 7636,14885 7636,14949 7636,14992 7620,15018 7587,15032 7566,15041 7539,15044 7486,15044 L 7486,15109 Z"/>
         <path fill="rgb(0,0,0)" stroke="none" d="M 7958,15299 L 7868,15299 7868,15388 7958,15388 7958,15299 Z M 7958,14938 L 7868,14938 7868,15028 7958,15028 7958,14938 Z"/>
         <path fill="rgb(0,0,0)" stroke="none" d="M 8249,14779 C 8192,14779 8141,14804 8109,14846 8069,14900 8050,14981 8050,15094 8050,15299 8118,15408 8249,15408 8378,15408 8448,15299 8448,15099 8448,14980 8429,14901 8389,14846 8357,14803 8307,14779 8249,14779 L 8249,14779 Z M 8249,14846 C 8331,14846 8371,14929 8371,15092 8371,15265 8331,15345 8247,15345 8167,15345 8127,15261 8127,15094 8127,14928 8167,14846 8249,14846 L 8249,14846 Z"/>
         <path fill="rgb(0,0,0)" stroke="none" d="M 8510,15570 L 8670,15570 8670,14762 8510,14762 8510,14824 8599,14824 8599,15508 8510,15508 8510,15570 Z"/>
         <path fill="none" stroke="rgb(0,0,0)" stroke-width="258" stroke-linejoin="miter" d="M 4784,16798 L 5643,16798"/>
         <path fill="rgb(0,0,0)" stroke="none" d="M 6384,16675 C 6359,16537 6280,16470 6143,16470 6058,16470 5991,16497 5944,16548 5888,16610 5857,16700 5857,16801 5857,16904 5888,16993 5948,17054 5996,17104 6058,17127 6139,17127 6292,17127 6378,17044 6397,16878 L 6315,16878 C 6308,16921 6299,16951 6286,16976 6260,17027 6207,17056 6140,17056 6015,17056 5936,16957 5936,16800 5936,16640 6012,16541 6133,16541 6184,16541 6231,16556 6257,16580 6280,16602 6293,16628 6303,16675 L 6384,16675 Z"/>
         <path fill="rgb(0,0,0)" stroke="none" d="M 6932,17215 L 6417,17215 6417,17258 6932,17258 6932,17215 Z"/>
         <path fill="rgb(0,0,0)" stroke="none" d="M 7042,16657 L 6971,16657 6971,17107 7042,17107 7042,16657 Z M 7042,16481 L 6970,16481 6970,16571 7042,16571 7042,16481 Z"/>
         <path fill="none" stroke="rgb(0,0,0)" stroke-width="430" stroke-linejoin="miter" d="M 16815,14221 L 15956,14221"/>
         <path fill="rgb(0,0,0)" stroke="none" d="M 12916,14283 L 13151,13903 13056,13903 12877,14208 12693,13903 12594,13903 12836,14283 12836,14529 12916,14529 12916,14283 Z"/>
         <path fill="rgb(0,0,0)" stroke="none" d="M 13653,14638 L 13137,14638 13137,14680 13653,14680 13653,14638 Z"/>
         <path fill="rgb(0,0,0)" stroke="none" d="M 13868,14066 C 13741,14066 13665,14156 13665,14307 13665,14459 13740,14549 13868,14549 13995,14549 14072,14459 14072,14311 14072,14155 13997,14066 13868,14066 L 13868,14066 Z M 13868,14132 C 13949,14132 13997,14198 13997,14310 13997,14416 13948,14483 13868,14483 13788,14483 13739,14417 13739,14307 13739,14199 13788,14132 13868,14132 L 13868,14132 Z"/>
         <path fill="rgb(0,0,0)" stroke="none" d="M 14327,13903 L 14167,13903 14167,14711 14327,14711 14327,14649 14238,14649 14238,13964 14327,13964 14327,13903 Z"/>
         <path fill="rgb(0,0,0)" stroke="none" d="M 14540,14250 L 14550,14250 14582,14249 C 14665,14249 14708,14287 14708,14360 14708,14436 14661,14482 14582,14482 14499,14482 14459,14440 14454,14352 L 14378,14352 C 14382,14401 14390,14433 14405,14460 14436,14519 14496,14549 14579,14549 14705,14549 14786,14474 14786,14359 14786,14282 14756,14238 14682,14214 14739,14191 14767,14148 14767,14087 14767,13983 14698,13920 14582,13920 14459,13920 14394,13987 14391,14116 L 14466,14116 C 14467,14080 14471,14059 14480,14040 14497,14006 14535,13986 14583,13986 14649,13986 14690,14025 14690,14090 14690,14133 14675,14159 14641,14173 14620,14181 14594,14185 14540,14185 L 14540,14250 Z"/>
         <path fill="rgb(0,0,0)" stroke="none" d="M 15012,14440 L 14923,14440 14923,14529 15012,14529 15012,14440 Z M 15012,14079 L 14923,14079 14923,14168 15012,14168 15012,14079 Z"/>
         <path fill="rgb(0,0,0)" stroke="none" d="M 15304,13920 C 15247,13920 15195,13945 15164,13987 15124,14040 15104,14122 15104,14235 15104,14440 15173,14549 15304,14549 15433,14549 15503,14440 15503,14239 15503,14121 15484,14042 15444,13987 15412,13944 15361,13920 15304,13920 L 15304,13920 Z M 15304,13987 C 15385,13987 15426,14069 15426,14233 15426,14406 15386,14486 15302,14486 15222,14486 15182,14402 15182,14235 15182,14068 15222,13987 15304,13987 L 15304,13987 Z"/>
         <path fill="rgb(0,0,0)" stroke="none" d="M 15565,14711 L 15725,14711 15725,13903 15565,13903 15565,13964 15654,13964 15654,14649 15565,14649 15565,14711 Z"/>
         <path fill="none" stroke="rgb(0,0,0)" stroke-width="258" stroke-linejoin="miter" d="M 16815,15939 L 15956,15939"/>
         <path fill="rgb(0,0,0)" stroke="none" d="M 14777,15816 C 14752,15678 14673,15611 14535,15611 14451,15611 14383,15637 14337,15689 14280,15751 14249,15840 14249,15942 14249,16045 14281,16133 14340,16194 14389,16244 14450,16268 14532,16268 14685,16268 14771,16185 14790,16019 L 14707,16019 C 14701,16062 14692,16091 14679,16116 14653,16168 14600,16197 14533,16197 14408,16197 14329,16098 14329,15941 14329,15780 14405,15681 14526,15681 14577,15681 14624,15697 14650,15721 14673,15742 14686,15769 14695,15816 L 14777,15816 Z"/>
         <path fill="rgb(0,0,0)" stroke="none" d="M 15325,16356 L 14809,16356 14809,16399 15325,16399 15325,16356 Z"/>
         <path fill="rgb(0,0,0)" stroke="none" d="M 15540,15785 C 15414,15785 15337,15875 15337,16026 15337,16177 15413,16268 15541,16268 15667,16268 15745,16177 15745,16029 15745,15874 15669,15785 15540,15785 L 15540,15785 Z M 15541,15850 C 15622,15850 15669,15917 15669,16029 15669,16134 15620,16201 15541,16201 15461,16201 15412,16135 15412,16026 15412,15918 15461,15850 15541,15850 L 15541,15850 Z"/>
         <path fill="none" stroke="rgb(63,110,158)" stroke-width="86" stroke-linejoin="miter" d="M 6245,11643 L 15354,11643"/>
         <path fill="none" stroke="rgb(63,110,158)" stroke-width="86" stroke-linejoin="miter" d="M 15956,12244 C 15956,12235 15956,12225 15956,12215 15948,11891 15679,11635 15354,11643"/>
         <path fill="none" stroke="rgb(63,110,158)" stroke-width="86" stroke-linejoin="miter" d="M 15956,12244 L 15956,17916"/>
         <path fill="none" stroke="rgb(63,110,158)" stroke-width="86" stroke-linejoin="miter" d="M 15354,18517 C 15364,18517 15373,18517 15383,18517 15707,18509 15964,18240 15956,17916"/>
         <path fill="none" stroke="rgb(63,110,158)" stroke-width="86" stroke-linejoin="miter" d="M 15354,18517 L 6245,18517"/>
         <path fill="none" stroke="rgb(63,110,158)" stroke-width="86" stroke-linejoin="miter" d="M 5643,17916 C 5643,17925 5643,17935 5643,17944 5651,18268 5921,18525 6245,18517"/>
         <path fill="none" stroke="rgb(63,110,158)" stroke-width="86" stroke-linejoin="miter" d="M 5643,17916 L 5643,12244"/>
         <path fill="none" stroke="rgb(63,110,158)" stroke-width="86" stroke-linejoin="miter" d="M 6245,11643 C 6236,11642 6226,11642 6216,11643 5892,11651 5636,11920 5643,12244"/>
        </g>
       </g>
      </g>
     </g>
    </g>
   </g>
  </g>
 </g>
</svg>