<?xml version="1.0" encoding="UTF-8"?>
<!DOCTYPE svg PUBLIC "-//W3C//DTD SVG 1.1//EN" "http://www.w3.org/Graphics/SVG/1.1/DTD/svg11.dtd">
<svg version="1.2" width="127.99mm" height="84.99mm" viewBox="4100 9800 12799 8499" preserveAspectRatio="xMidYMid" fill-rule="evenodd" stroke-width="28.222" stroke-linejoin="round" xmlns="http://www.w3.org/2000/svg" xmlns:ooo="http://xml.openoffice.org/svg/export" xmlns:xlink="http://www.w3.org/1999/xlink" xmlns:presentation="http://sun.com/xmlns/staroffice/presentation" xmlns:smil="http://www.w3.org/2001/SMIL20/" xmlns:anim="urn:oasis:names:tc:opendocument:xmlns:animation:1.0" xml:space="preserve">
 <defs class="ClipPathGroup">
  <clipPath id="presentation_clip_path" clipPathUnits="userSpaceOnUse">
   <rect x="4100" y="9800" width="12799" height="8499"/>
  </clipPath>
  <clipPath id="presentation_clip_path_shrink" clipPathUnits="userSpaceOnUse">
   <rect x="4112" y="9808" width="12774" height="8483"/>
  </clipPath>
 </defs>
 <defs class="TextShapeIndex">
  <g ooo:slide="id1" ooo:id-list="id3"/>
 </defs>
 <defs class="EmbeddedBulletChars">
  <g id="bullet-char-template-57356" transform="scale(0.00048828125,-0.00048828125)">
   <path d="M 580,1141 L 1163,571 580,0 -4,571 580,1141 Z"/>
  </g>
  <g id="bullet-char-template-57354" transform="scale(0.00048828125,-0.00048828125)">
   <path d="M 8,1128 L 1137,1128 1137,0 8,0 8,1128 Z"/>
  </g>
  <g id="bullet-char-template-10146" transform="scale(0.00048828125,-0.00048828125)">
   <path d="M 174,0 L 602,739 174,1481 1456,739 174,0 Z M 1358,739 L 309,1346 659,739 1358,739 Z"/>
  </g>
  <g id="bullet-char-template-10132" transform="scale(0.00048828125,-0.00048828125)">
   <path d="M 2015,739 L 1276,0 717,0 1260,543 174,543 174,936 1260,936 717,1481 1274,1481 2015,739 Z"/>
  </g>
  <g id="bullet-char-template-10007" transform="scale(0.00048828125,-0.00048828125)">
   <path d="M 0,-2 C -7,14 -16,27 -25,37 L 356,567 C 262,823 215,952 215,954 215,979 228,992 255,992 264,992 276,990 289,987 310,991 331,999 354,1012 L 381,999 492,748 772,1049 836,1024 860,1049 C 881,1039 901,1025 922,1006 886,937 835,863 770,784 769,783 710,716 594,584 L 774,223 C 774,196 753,168 711,139 L 727,119 C 717,90 699,76 672,76 641,76 570,178 457,381 L 164,-76 C 142,-110 111,-127 72,-127 30,-127 9,-110 8,-76 1,-67 -2,-52 -2,-32 -2,-23 -1,-13 0,-2 Z"/>
  </g>
  <g id="bullet-char-template-10004" transform="scale(0.00048828125,-0.00048828125)">
   <path d="M 285,-33 C 182,-33 111,30 74,156 52,228 41,333 41,471 41,549 55,616 82,672 116,743 169,778 240,778 293,778 328,747 346,684 L 369,508 C 377,444 397,411 428,410 L 1163,1116 C 1174,1127 1196,1133 1229,1133 1271,1133 1292,1118 1292,1087 L 1292,965 C 1292,929 1282,901 1262,881 L 442,47 C 390,-6 338,-33 285,-33 Z"/>
  </g>
  <g id="bullet-char-template-9679" transform="scale(0.00048828125,-0.00048828125)">
   <path d="M 813,0 C 632,0 489,54 383,161 276,268 223,411 223,592 223,773 276,916 383,1023 489,1130 632,1184 813,1184 992,1184 1136,1130 1245,1023 1353,916 1407,772 1407,592 1407,412 1353,268 1245,161 1136,54 992,0 813,0 Z"/>
  </g>
  <g id="bullet-char-template-8226" transform="scale(0.00048828125,-0.00048828125)">
   <path d="M 346,457 C 273,457 209,483 155,535 101,586 74,649 74,723 74,796 101,859 155,911 209,963 273,989 346,989 419,989 480,963 531,910 582,859 608,796 608,723 608,648 583,586 532,535 482,483 420,457 346,457 Z"/>
  </g>
  <g id="bullet-char-template-8211" transform="scale(0.00048828125,-0.00048828125)">
   <path d="M -4,459 L 1135,459 1135,606 -4,606 -4,459 Z"/>
  </g>
  <g id="bullet-char-template-61548" transform="scale(0.00048828125,-0.00048828125)">
   <path d="M 173,740 C 173,903 231,1043 346,1159 462,1274 601,1332 765,1332 928,1332 1067,1274 1183,1159 1299,1043 1357,903 1357,740 1357,577 1299,437 1183,322 1067,206 928,148 765,148 601,148 462,206 346,322 231,437 173,577 173,740 Z"/>
  </g>
 </defs>
 <defs class="TextEmbeddedBitmaps"/>
 <g class="SlideGroup">
  <g>
   <g id="container-id1">
    <g id="id1" class="Slide" clip-path="url(#presentation_clip_path)">
     <g class="Page">
      <g class="Graphic">
       <g id="id3">
        <rect class="BoundingBox" stroke="none" fill="none" x="4100" y="9800" width="12800" height="8500"/>
        <defs>
         <clipPath id="clip_path_1" clipPathUnits="userSpaceOnUse">
          <path d="M 4100,9800 L 16899,9800 16899,18299 4100,18299 4100,9800 Z"/>
         </clipPath>
        </defs>
        <g clip-path="url(#clip_path_1)"/>
        <defs>
         <clipPath id="clip_path_2" clipPathUnits="userSpaceOnUse">
          <path d="M 4100,9800 L 16899,9800 16899,18299 4100,18299 4100,9800 Z"/>
         </clipPath>
        </defs>
        <g clip-path="url(#clip_path_2)">
         <path fill="rgb(255,255,255)" stroke="none" d="M 1906,8724 L 19093,8724 19093,19981 1906,19981 1906,8724 Z"/>
        </g>
        <g clip-path="url(#clip_path_1)">
         <path fill="rgb(0,0,0)" stroke="none" d="M 6375,11732 L 15484,11732 15742,11818 15914,11904 15999,12076 16085,12333 16085,16286 15999,16544 15914,16716 15742,16801 15484,16887 6375,16887 6117,16801 5945,16716 5859,16544 5773,16286 5773,12333 5859,12076 5945,11904 6117,11818 6375,11732 Z"/>
        </g>
        <defs>
         <clipPath id="clip_path_3" clipPathUnits="userSpaceOnUse">
          <path d="M 5945,11302 L 15054,11302 15312,11388 15484,11474 15570,11646 15656,11904 15656,15856 15570,16114 15484,16286 15312,16372 15054,16458 5945,16458 5687,16372 5515,16286 5429,16114 5343,15856 5343,11904 5429,11646 5515,11474 5687,11388 5945,11302 Z"/>
         </clipPath>
        </defs>
        <g clip-path="url(#clip_path_3)"/>
        <defs>
         <clipPath id="clip_path_4" clipPathUnits="userSpaceOnUse">
          <path d="M 5945,11302 L 15054,11302 15312,11388 15484,11474 15570,11646 15656,11904 15656,15856 15570,16114 15484,16286 15312,16372 15054,16458 5945,16458 5687,16372 5515,16286 5429,16114 5343,15856 5343,11904 5429,11646 5515,11474 5687,11388 5945,11302 Z"/>
         </clipPath>
        </defs>
        <g clip-path="url(#clip_path_4)">
         <path fill="rgb(189,212,236)" stroke="none" d="M 3112,15183 L 3132,15195 7892,6866 7871,6854 3112,15183 Z"/>
         <path fill="rgb(189,212,236)" stroke="none" d="M 3112,15183 L 3289,15284 8048,6955 7871,6854 3112,15183 Z"/>
         <path fill="rgb(190,212,236)" stroke="none" d="M 3268,15272 L 3445,15373 8204,7045 8028,6944 3268,15272 Z"/>
         <path fill="rgb(190,213,236)" stroke="none" d="M 3424,15361 L 3601,15462 8361,7134 8184,7033 3424,15361 Z"/>
         <path fill="rgb(191,213,237)" stroke="none" d="M 3580,15451 L 3757,15552 8517,7223 8340,7122 3580,15451 Z"/>
         <path fill="rgb(192,214,237)" stroke="none" d="M 3737,15540 L 3913,15641 8673,7312 8496,7211 3737,15540 Z"/>
         <path fill="rgb(193,214,237)" stroke="none" d="M 3893,15629 L 4069,15730 8829,7402 8652,7301 3893,15629 Z"/>
         <path fill="rgb(193,215,237)" stroke="none" d="M 4049,15718 L 4226,15819 8985,7491 8809,7390 4049,15718 Z"/>
         <path fill="rgb(194,215,237)" stroke="none" d="M 4205,15808 L 4382,15908 9141,7580 8965,7479 4205,15808 Z"/>
         <path fill="rgb(195,216,237)" stroke="none" d="M 4361,15897 L 4538,15998 9298,7669 9121,7568 4361,15897 Z"/>
         <path fill="rgb(196,216,237)" stroke="none" d="M 4517,15986 L 4694,16087 9454,7758 9277,7657 4517,15986 Z"/>
         <path fill="rgb(197,217,238)" stroke="none" d="M 4674,16075 L 4850,16176 9610,7848 9433,7747 4674,16075 Z"/>
         <path fill="rgb(197,217,238)" stroke="none" d="M 4830,16164 L 5006,16265 9766,7937 9589,7836 4830,16164 Z"/>
         <path fill="rgb(198,218,238)" stroke="none" d="M 4986,16254 L 5163,16355 9922,8026 9746,7925 4986,16254 Z"/>
         <path fill="rgb(199,218,238)" stroke="none" d="M 5142,16343 L 5319,16444 10078,8115 9902,8014 5142,16343 Z"/>
         <path fill="rgb(200,218,238)" stroke="none" d="M 5298,16432 L 5354,16464 10113,8135 10058,8104 5298,16432 Z"/>
         <path fill="rgb(200,219,238)" stroke="none" d="M 5333,16452 L 5475,16533 10235,8205 10093,8123 5333,16452 Z"/>
         <path fill="rgb(201,219,238)" stroke="none" d="M 5454,16521 L 5631,16622 10391,8294 10214,8193 5454,16521 Z"/>
         <path fill="rgb(201,219,239)" stroke="none" d="M 5611,16611 L 5787,16712 10547,8383 10370,8282 5611,16611 Z"/>
         <path fill="rgb(202,220,239)" stroke="none" d="M 5767,16700 L 5944,16801 10703,8472 10526,8371 5767,16700 Z"/>
         <path fill="rgb(203,220,239)" stroke="none" d="M 5923,16789 L 6100,16890 10859,8562 10683,8461 5923,16789 Z"/>
         <path fill="rgb(204,221,239)" stroke="none" d="M 6079,16878 L 6256,16979 11015,8651 10839,8550 6079,16878 Z"/>
         <path fill="rgb(204,221,239)" stroke="none" d="M 6235,16968 L 6412,17069 11172,8740 10995,8639 6235,16968 Z"/>
         <path fill="rgb(205,222,239)" stroke="none" d="M 6392,17057 L 6568,17158 11328,8829 11151,8728 6392,17057 Z"/>
         <path fill="rgb(206,222,239)" stroke="none" d="M 6548,17146 L 6724,17247 11484,8918 11307,8818 6548,17146 Z"/>
         <path fill="rgb(207,223,240)" stroke="none" d="M 6704,17235 L 6881,17336 11640,9008 11463,8907 6704,17235 Z"/>
         <path fill="rgb(207,223,240)" stroke="none" d="M 6860,17324 L 7037,17425 11796,9097 11620,8996 6860,17324 Z"/>
         <path fill="rgb(208,224,240)" stroke="none" d="M 7016,17414 L 7193,17515 11953,9186 11776,9085 7016,17414 Z"/>
         <path fill="rgb(209,224,240)" stroke="none" d="M 7172,17503 L 7349,17604 12109,9275 11932,9174 7172,17503 Z"/>
         <path fill="rgb(210,225,240)" stroke="none" d="M 7329,17592 L 7505,17693 12265,9365 12088,9264 7329,17592 Z"/>
         <path fill="rgb(211,225,240)" stroke="none" d="M 7485,17681 L 7661,17782 12421,9454 12244,9353 7485,17681 Z"/>
         <path fill="rgb(211,225,241)" stroke="none" d="M 7641,17771 L 7818,17872 12577,9543 12401,9442 7641,17771 Z"/>
         <path fill="rgb(212,226,241)" stroke="none" d="M 7797,17860 L 7974,17961 12733,9632 12557,9531 7797,17860 Z"/>
         <path fill="rgb(213,226,241)" stroke="none" d="M 7953,17949 L 8130,18050 12890,9722 12713,9621 7953,17949 Z"/>
         <path fill="rgb(214,227,241)" stroke="none" d="M 8109,18038 L 8286,18139 13046,9811 12869,9710 8109,18038 Z"/>
         <path fill="rgb(214,227,241)" stroke="none" d="M 8266,18128 L 8442,18229 13202,9900 13025,9799 8266,18128 Z"/>
         <path fill="rgb(215,228,241)" stroke="none" d="M 8422,18217 L 8598,18318 13358,9989 13181,9888 8422,18217 Z"/>
         <path fill="rgb(216,228,241)" stroke="none" d="M 8578,18306 L 8755,18407 13514,10079 13338,9978 8578,18306 Z"/>
         <path fill="rgb(217,229,242)" stroke="none" d="M 8734,18395 L 8911,18496 13670,10168 13494,10067 8734,18395 Z"/>
         <path fill="rgb(218,229,242)" stroke="none" d="M 8890,18485 L 9067,18585 13827,10257 13650,10156 8890,18485 Z"/>
         <path fill="rgb(218,230,242)" stroke="none" d="M 9046,18574 L 9223,18675 13983,10346 13806,10245 9046,18574 Z"/>
         <path fill="rgb(219,230,242)" stroke="none" d="M 9203,18663 L 9379,18764 14139,10435 13962,10334 9203,18663 Z"/>
         <path fill="rgb(220,231,242)" stroke="none" d="M 9359,18752 L 9536,18853 14295,10525 14118,10424 9359,18752 Z"/>
         <path fill="rgb(221,231,242)" stroke="none" d="M 9515,18841 L 9692,18942 14451,10614 14275,10513 9515,18841 Z"/>
         <path fill="rgb(221,232,243)" stroke="none" d="M 9671,18931 L 9848,19032 14607,10703 14431,10602 9671,18931 Z"/>
         <path fill="rgb(222,232,243)" stroke="none" d="M 9827,19020 L 10004,19121 14764,10792 14587,10691 9827,19020 Z"/>
         <path fill="rgb(223,232,243)" stroke="none" d="M 9984,19109 L 10160,19210 14920,10882 14743,10781 9984,19109 Z"/>
         <path fill="rgb(224,233,243)" stroke="none" d="M 10140,19198 L 10316,19299 15076,10971 14899,10870 10140,19198 Z"/>
         <path fill="rgb(225,233,243)" stroke="none" d="M 10296,19288 L 10473,19389 15232,11060 15055,10959 10296,19288 Z"/>
         <path fill="rgb(225,234,243)" stroke="none" d="M 10452,19377 L 10629,19478 15388,11149 15212,11048 10452,19377 Z"/>
         <path fill="rgb(226,234,244)" stroke="none" d="M 10608,19466 L 10785,19567 15545,11239 15368,11138 10608,19466 Z"/>
         <path fill="rgb(227,235,244)" stroke="none" d="M 10764,19555 L 10906,19636 15666,11308 15524,11227 10764,19555 Z"/>
         <path fill="rgb(228,235,244)" stroke="none" d="M 10886,19625 L 10941,19656 15701,11328 15645,11296 10886,19625 Z"/>
         <path fill="rgb(228,235,244)" stroke="none" d="M 10921,19645 L 11097,19746 15857,11417 15680,11316 10921,19645 Z"/>
         <path fill="rgb(228,236,244)" stroke="none" d="M 11077,19734 L 11253,19835 16013,11506 15836,11405 11077,19734 Z"/>
         <path fill="rgb(229,236,244)" stroke="none" d="M 11233,19823 L 11410,19924 16169,11595 15993,11495 11233,19823 Z"/>
         <path fill="rgb(230,237,244)" stroke="none" d="M 11389,19912 L 11566,20013 16325,11685 16149,11584 11389,19912 Z"/>
         <path fill="rgb(231,237,244)" stroke="none" d="M 11545,20002 L 11722,20102 16482,11774 16305,11673 11545,20002 Z"/>
         <path fill="rgb(232,238,245)" stroke="none" d="M 11701,20091 L 11878,20192 16638,11863 16461,11762 11701,20091 Z"/>
         <path fill="rgb(232,238,245)" stroke="none" d="M 11858,20180 L 12034,20281 16794,11952 16617,11851 11858,20180 Z"/>
         <path fill="rgb(233,239,245)" stroke="none" d="M 12014,20269 L 12190,20370 16950,12042 16773,11941 12014,20269 Z"/>
         <path fill="rgb(234,239,245)" stroke="none" d="M 12170,20358 L 12347,20459 17106,12131 16930,12030 12170,20358 Z"/>
         <path fill="rgb(235,239,245)" stroke="none" d="M 12326,20448 L 12503,20549 17262,12220 17086,12119 12326,20448 Z"/>
         <path fill="rgb(235,240,245)" stroke="none" d="M 12482,20537 L 12659,20638 17419,12309 17242,12208 12482,20537 Z"/>
         <path fill="rgb(236,240,246)" stroke="none" d="M 12638,20626 L 12815,20727 17575,12399 17398,12298 12638,20626 Z"/>
         <path fill="rgb(237,241,246)" stroke="none" d="M 12795,20715 L 12971,20816 17731,12488 17554,12387 12795,20715 Z"/>
         <path fill="rgb(238,241,246)" stroke="none" d="M 12951,20805 L 13128,20906 17887,12577 17710,12476 12951,20805 Z"/>
         <path fill="rgb(239,242,246)" stroke="none" d="M 13107,20894 L 13128,20906 17887,12577 17867,12565 13107,20894 Z"/>
        </g>
        <g clip-path="url(#clip_path_3)"/>
        <g clip-path="url(#clip_path_1)">
         <path fill="rgb(0,0,0)" stroke="none" d="M 7817,10376 L 7732,10376 7732,10917 7817,10917 7817,10376 Z M 7817,10165 L 7731,10165 7731,10274 7817,10274 7817,10165 Z"/>
         <path fill="rgb(0,0,0)" stroke="none" d="M 7964,10376 L 7964,10917 8050,10917 8050,10619 C 8050,10508 8108,10436 8197,10436 8265,10436 8308,10477 8308,10542 L 8308,10917 8394,10917 8394,10508 C 8394,10419 8326,10361 8222,10361 8142,10361 8091,10392 8043,10467 L 8043,10376 7964,10376 Z"/>
         <path fill="rgb(0,0,0)" stroke="none" d="M 8951,10558 C 8946,10506 8935,10471 8914,10442 8878,10391 8812,10361 8737,10361 8592,10361 8497,10477 8497,10656 8497,10830 8590,10941 8736,10941 8865,10941 8946,10863 8957,10731 L 8870,10731 C 8856,10818 8811,10861 8738,10861 8643,10861 8586,10784 8586,10656 8586,10521 8642,10440 8736,10440 8808,10440 8854,10483 8864,10558 L 8951,10558 Z"/>
         <path fill="rgb(0,0,0)" stroke="none" d="M 9052,10376 L 9052,10917 9138,10917 9138,10636 C 9138,10559 9158,10508 9199,10478 9226,10459 9252,10453 9311,10452 L 9311,10364 C 9297,10362 9290,10361 9278,10361 9223,10361 9181,10394 9131,10475 L 9131,10376 9052,10376 Z"/>
         <path fill="rgb(0,0,0)" stroke="none" d="M 9853,10676 C 9853,10593 9847,10543 9831,10503 9796,10415 9714,10361 9613,10361 9462,10361 9365,10477 9365,10654 9365,10831 9459,10941 9611,10941 9734,10941 9820,10870 9842,10753 L 9755,10753 C 9731,10824 9683,10861 9614,10861 9559,10861 9513,10836 9484,10791 9463,10760 9456,10729 9455,10676 L 9853,10676 Z M 9457,10605 C 9464,10506 9525,10440 9612,10440 9696,10440 9761,10510 9761,10599 9761,10601 9761,10603 9760,10605 L 9457,10605 Z"/>
         <path fill="rgb(0,0,0)" stroke="none" d="M 9969,10376 L 9969,10917 10056,10917 10056,10578 C 10056,10499 10113,10436 10183,10436 10247,10436 10283,10476 10283,10544 L 10283,10917 10370,10917 10370,10578 C 10370,10499 10426,10436 10496,10436 10559,10436 10596,10477 10596,10544 L 10596,10917 10683,10917 10683,10511 C 10683,10415 10627,10361 10526,10361 10454,10361 10411,10383 10360,10444 10328,10386 10285,10361 10215,10361 10143,10361 10095,10388 10049,10453 L 10049,10376 9969,10376 Z"/>
         <path fill="rgb(0,0,0)" stroke="none" d="M 11285,10676 C 11285,10593 11279,10543 11263,10503 11229,10415 11146,10361 11045,10361 10894,10361 10797,10477 10797,10654 10797,10831 10891,10941 11043,10941 11167,10941 11252,10870 11274,10753 L 11187,10753 C 11164,10824 11115,10861 11046,10861 10991,10861 10945,10836 10916,10791 10895,10760 10889,10729 10887,10676 L 11285,10676 Z M 10889,10605 C 10897,10506 10957,10440 11044,10440 11129,10440 11194,10510 11194,10599 11194,10601 11194,10603 11193,10605 L 10889,10605 Z"/>
         <path fill="rgb(0,0,0)" stroke="none" d="M 11402,10376 L 11402,10917 11489,10917 11489,10619 C 11489,10508 11546,10436 11635,10436 11703,10436 11746,10477 11746,10542 L 11746,10917 11832,10917 11832,10508 C 11832,10419 11765,10361 11660,10361 11580,10361 11529,10392 11481,10467 L 11481,10376 11402,10376 Z"/>
         <path fill="rgb(0,0,0)" stroke="none" d="M 12165,10376 L 12076,10376 12076,10228 11991,10228 11991,10376 11918,10376 11918,10446 11991,10446 11991,10855 C 11991,10910 12028,10941 12095,10941 12116,10941 12136,10939 12165,10933 L 12165,10861 C 12153,10864 12140,10865 12124,10865 12087,10865 12076,10855 12076,10817 L 12076,10446 12165,10446 12165,10376 Z"/>
         <path fill="rgb(0,0,0)" stroke="none" d="M 12786,11047 L 12167,11047 12167,11098 12786,11098 12786,11047 Z"/>
         <path fill="rgb(0,0,0)" stroke="none" d="M 13046,10186 C 12979,10186 12917,10215 12878,10266 12831,10330 12808,10428 12808,10563 12808,10810 12890,10941 13046,10941 13201,10941 13286,10810 13286,10570 13286,10427 13263,10332 13215,10266 13177,10214 13116,10186 13046,10186 L 13046,10186 Z M 13046,10266 C 13145,10266 13193,10365 13193,10561 13193,10768 13146,10865 13045,10865 12949,10865 12900,10764 12900,10564 12900,10364 12949,10266 13046,10266 L 13046,10266 Z"/>
         <path fill="rgb(63,110,158)" stroke="none" d="M 6986,17173 L 6901,17173 6901,17714 6986,17714 6986,17173 Z M 6986,16962 L 6900,16962 6900,17071 6986,17071 6986,16962 Z"/>
         <path fill="rgb(63,110,158)" stroke="none" d="M 7132,17173 L 7132,17714 7219,17714 7219,17416 C 7219,17305 7277,17233 7365,17233 7434,17233 7477,17274 7477,17339 L 7477,17714 7563,17714 7563,17305 C 7563,17216 7495,17158 7391,17158 7311,17158 7259,17189 7212,17264 L 7212,17173 7132,17173 Z"/>
         <path fill="rgb(63,110,158)" stroke="none" d="M 8120,17355 C 8115,17303 8104,17268 8083,17239 8046,17188 7981,17158 7906,17158 7761,17158 7666,17273 7666,17453 7666,17627 7759,17737 7905,17737 8034,17737 8115,17660 8126,17528 L 8039,17528 C 8025,17615 7980,17658 7907,17658 7812,17658 7755,17581 7755,17453 7755,17318 7811,17237 7905,17237 7977,17237 8023,17280 8033,17355 L 8120,17355 Z"/>
         <path fill="rgb(63,110,158)" stroke="none" d="M 8220,17173 L 8220,17714 8307,17714 8307,17433 C 8307,17356 8327,17305 8368,17275 8395,17256 8421,17250 8480,17249 L 8480,17161 C 8466,17159 8459,17158 8447,17158 8391,17158 8349,17191 8300,17272 L 8300,17173 8220,17173 Z"/>
         <path fill="rgb(63,110,158)" stroke="none" d="M 9022,17473 C 9022,17390 9015,17340 9000,17300 8965,17211 8883,17158 8781,17158 8631,17158 8534,17273 8534,17451 8534,17628 8628,17737 8779,17737 8903,17737 8989,17667 9011,17550 L 8924,17550 C 8900,17621 8852,17658 8782,17658 8728,17658 8682,17633 8653,17588 8632,17557 8625,17526 8623,17473 L 9022,17473 Z M 8626,17402 C 8633,17303 8694,17237 8780,17237 8865,17237 8930,17307 8930,17396 8930,17398 8930,17400 8929,17402 L 8626,17402 Z"/>
         <path fill="rgb(63,110,158)" stroke="none" d="M 9138,17173 L 9138,17714 9225,17714 9225,17375 C 9225,17296 9282,17233 9352,17233 9416,17233 9452,17273 9452,17341 L 9452,17714 9538,17714 9538,17375 C 9538,17296 9595,17233 9665,17233 9728,17233 9765,17273 9765,17341 L 9765,17714 9852,17714 9852,17308 C 9852,17211 9796,17158 9695,17158 9623,17158 9580,17180 9529,17241 9497,17183 9454,17158 9384,17158 9312,17158 9264,17185 9218,17250 L 9218,17173 9138,17173 Z"/>
         <path fill="rgb(63,110,158)" stroke="none" d="M 10454,17473 C 10454,17390 10448,17340 10432,17300 10397,17211 10315,17158 10214,17158 10063,17158 9966,17273 9966,17451 9966,17628 10060,17737 10212,17737 10335,17737 10421,17667 10443,17550 L 10356,17550 C 10332,17621 10284,17658 10215,17658 10160,17658 10114,17633 10085,17588 10064,17557 10057,17526 10056,17473 L 10454,17473 Z M 10058,17402 C 10066,17303 10126,17237 10213,17237 10298,17237 10363,17307 10363,17396 10363,17398 10363,17400 10362,17402 L 10058,17402 Z"/>
         <path fill="rgb(63,110,158)" stroke="none" d="M 10571,17173 L 10571,17714 10657,17714 10657,17416 C 10657,17305 10715,17233 10804,17233 10872,17233 10915,17274 10915,17339 L 10915,17714 11001,17714 11001,17305 C 11001,17216 10933,17158 10829,17158 10749,17158 10698,17189 10650,17264 L 10650,17173 10571,17173 Z"/>
         <path fill="rgb(63,110,158)" stroke="none" d="M 11334,17173 L 11245,17173 11245,17025 11160,17025 11160,17173 11086,17173 11086,17243 11160,17243 11160,17652 C 11160,17706 11197,17737 11264,17737 11284,17737 11305,17736 11334,17730 L 11334,17658 C 11322,17661 11309,17662 11293,17662 11255,17662 11245,17652 11245,17613 L 11245,17243 11334,17243 11334,17173 Z"/>
         <path fill="rgb(63,110,158)" stroke="none" d="M 11955,17844 L 11336,17844 11336,17895 11955,17895 11955,17844 Z"/>
         <path fill="rgb(63,110,158)" stroke="none" d="M 12226,17714 L 12433,17173 12336,17173 12183,17612 12039,17173 11942,17173 12132,17714 12226,17714 Z"/>
         <path fill="rgb(63,110,158)" stroke="none" d="M 12714,17193 L 12714,17714 12805,17714 12805,16983 12745,16983 C 12713,17095 12693,17111 12553,17128 L 12553,17193 12714,17193 Z"/>
         <path fill="rgb(63,110,158)" stroke="none" d="M 13617,17844 L 12998,17844 12998,17895 13617,17895 13617,17844 Z"/>
         <path fill="rgb(63,110,158)" stroke="none" d="M 13878,16983 C 13810,16983 13748,17012 13710,17063 13663,17127 13639,17225 13639,17360 13639,17607 13721,17737 13878,17737 14033,17737 14117,17607 14117,17366 14117,17224 14095,17129 14046,17063 14008,17011 13947,16983 13878,16983 L 13878,16983 Z M 13878,17063 C 13976,17063 14024,17162 14024,17358 14024,17565 13977,17662 13876,17662 13780,17662 13731,17561 13731,17361 13731,17161 13780,17063 13878,17063 L 13878,17063 Z"/>
         <path fill="none" stroke="rgb(0,0,0)" stroke-width="430" stroke-linejoin="miter" d="M 4484,13021 L 5343,13021"/>
         <path fill="rgb(0,0,0)" stroke="none" d="M 5923,13141 L 5987,13329 6076,13329 5856,12703 5753,12703 5530,13329 5615,13329 5681,13141 5923,13141 Z M 5900,13074 L 5701,13074 5804,12789 5900,13074 Z"/>
         <path fill="rgb(0,0,0)" stroke="none" d="M 6585,13438 L 6069,13438 6069,13480 6585,13480 6585,13438 Z"/>
         <path fill="rgb(0,0,0)" stroke="none" d="M 6695,12879 L 6624,12879 6624,13329 6695,13329 6695,12879 Z M 6695,12703 L 6623,12703 6623,12793 6695,12793 6695,12703 Z"/>
         <path fill="rgb(0,0,0)" stroke="none" d="M 6972,12703 L 6812,12703 6812,13511 6972,13511 6972,13449 6883,13449 6883,12764 6972,12764 6972,12703 Z"/>
         <path fill="rgb(0,0,0)" stroke="none" d="M 7186,13050 L 7195,13050 7227,13049 C 7310,13049 7353,13087 7353,13160 7353,13236 7306,13282 7227,13282 7145,13282 7104,13241 7099,13152 L 7023,13152 C 7027,13201 7036,13233 7050,13260 7081,13319 7141,13349 7224,13349 7350,13349 7431,13274 7431,13159 7431,13082 7401,13039 7328,13014 7384,12992 7412,12948 7412,12887 7412,12783 7343,12720 7227,12720 7104,12720 7039,12787 7036,12916 L 7112,12916 C 7113,12880 7116,12859 7126,12840 7143,12807 7180,12786 7228,12786 7295,12786 7335,12825 7335,12890 7335,12933 7320,12959 7286,12973 7266,12981 7239,12985 7186,12985 L 7186,13050 Z"/>
         <path fill="rgb(0,0,0)" stroke="none" d="M 7658,13240 L 7568,13240 7568,13329 7658,13329 7658,13240 Z M 7658,12879 L 7568,12879 7568,12968 7658,12968 7658,12879 Z"/>
         <path fill="rgb(0,0,0)" stroke="none" d="M 7949,12720 C 7892,12720 7840,12745 7809,12787 7769,12840 7749,12922 7749,13035 7749,13240 7818,13349 7949,13349 8078,13349 8148,13240 8148,13040 8148,12921 8129,12842 8089,12787 8057,12744 8007,12720 7949,12720 L 7949,12720 Z M 7949,12787 C 8030,12787 8071,12869 8071,13033 8071,13206 8031,13286 7947,13286 7867,13286 7827,13202 7827,13035 7827,12869 7867,12787 7949,12787 L 7949,12787 Z"/>
         <path fill="rgb(0,0,0)" stroke="none" d="M 8210,13511 L 8370,13511 8370,12703 8210,12703 8210,12764 8299,12764 8299,13449 8210,13449 8210,13511 Z"/>
         <path fill="none" stroke="rgb(0,0,0)" stroke-width="258" stroke-linejoin="miter" d="M 4484,14739 L 5343,14739"/>
         <path fill="rgb(0,0,0)" stroke="none" d="M 6084,14616 C 6059,14478 5980,14411 5843,14411 5758,14411 5691,14437 5644,14489 5587,14551 5556,14640 5556,14742 5556,14845 5588,14933 5647,14994 5696,15044 5757,15068 5839,15068 5992,15068 6078,14985 6097,14819 L 6015,14819 C 6008,14862 5999,14891 5986,14916 5960,14968 5907,14997 5840,14997 5715,14997 5636,14898 5636,14741 5636,14580 5712,14482 5833,14482 5884,14482 5931,14497 5957,14521 5980,14543 5993,14569 6002,14616 L 6084,14616 Z"/>
         <path fill="rgb(0,0,0)" stroke="none" d="M 6632,15156 L 6117,15156 6117,15199 6632,15199 6632,15156 Z"/>
         <path fill="rgb(0,0,0)" stroke="none" d="M 6742,14597 L 6671,14597 6671,15048 6742,15048 6742,14597 Z M 6742,14421 L 6670,14421 6670,14512 6742,14512 6742,14421 Z"/>
         <path fill="none" stroke="rgb(0,0,0)" stroke-width="430" stroke-linejoin="miter" d="M 16515,13021 L 15656,13021"/>
         <path fill="rgb(0,0,0)" stroke="none" d="M 12615,13084 L 12851,12703 12755,12703 12577,13008 12393,12703 12294,12703 12536,13084 12536,13329 12615,13329 12615,13084 Z"/>
         <path fill="rgb(0,0,0)" stroke="none" d="M 13352,13438 L 12837,13438 12837,13480 13352,13480 13352,13438 Z"/>
         <path fill="rgb(0,0,0)" stroke="none" d="M 13568,12866 C 13441,12866 13365,12956 13365,13107 13365,13259 13440,13349 13568,13349 13695,13349 13772,13259 13772,13111 13772,12955 13697,12866 13568,12866 L 13568,12866 Z M 13568,12932 C 13649,12932 13697,12998 13697,13110 13697,13216 13648,13283 13568,13283 13488,13283 13439,13217 13439,13107 13439,12999 13488,12932 13568,12932 L 13568,12932 Z"/>
         <path fill="rgb(0,0,0)" stroke="none" d="M 14027,12703 L 13867,12703 13867,13511 14027,13511 14027,13449 13938,13449 13938,12764 14027,12764 14027,12703 Z"/>
         <path fill="rgb(0,0,0)" stroke="none" d="M 14240,13050 L 14250,13050 14281,13049 C 14365,13049 14408,13087 14408,13160 14408,13236 14360,13282 14281,13282 14199,13282 14159,13241 14154,13152 L 14078,13152 C 14081,13201 14090,13233 14105,13260 14136,13319 14196,13349 14279,13349 14405,13349 14485,13274 14485,13159 14485,13082 14455,13039 14382,13014 14439,12992 14467,12948 14467,12887 14467,12783 14398,12720 14281,12720 14159,12720 14094,12787 14091,12916 L 14166,12916 C 14167,12880 14171,12859 14180,12840 14197,12807 14235,12786 14282,12786 14349,12786 14390,12825 14390,12890 14390,12933 14374,12959 14341,12973 14320,12981 14294,12985 14240,12985 L 14240,13050 Z"/>
         <path fill="rgb(0,0,0)" stroke="none" d="M 14712,13240 L 14623,13240 14623,13329 14712,13329 14712,13240 Z M 14712,12879 L 14623,12879 14623,12968 14712,12968 14712,12879 Z"/>
         <path fill="rgb(0,0,0)" stroke="none" d="M 15004,12720 C 14947,12720 14895,12745 14864,12787 14824,12840 14804,12922 14804,13035 14804,13240 14873,13349 15004,13349 15132,13349 15203,13240 15203,13040 15203,12921 15184,12842 15144,12787 15112,12744 15061,12720 15004,12720 L 15004,12720 Z M 15004,12787 C 15085,12787 15126,12869 15126,13033 15126,13206 15086,13286 15002,13286 14922,13286 14881,13202 14881,13035 14881,12869 14922,12787 15004,12787 L 15004,12787 Z"/>
         <path fill="rgb(0,0,0)" stroke="none" d="M 15265,13511 L 15425,13511 15425,12703 15265,12703 15265,12764 15353,12764 15353,13449 15265,13449 15265,13511 Z"/>
         <path fill="none" stroke="rgb(0,0,0)" stroke-width="258" stroke-linejoin="miter" d="M 16515,14739 L 15656,14739"/>
         <path fill="rgb(0,0,0)" stroke="none" d="M 14476,14616 C 14452,14478 14373,14411 14235,14411 14151,14411 14083,14437 14037,14489 13980,14551 13949,14640 13949,14742 13949,14845 13981,14933 14040,14994 14088,15044 14150,15068 14232,15068 14385,15068 14471,14985 14490,14819 L 14407,14819 C 14400,14862 14392,14891 14379,14916 14353,14968 14300,14997 14233,14997 14108,14997 14029,14898 14029,14741 14029,14580 14104,14482 14226,14482 14276,14482 14324,14497 14350,14521 14373,14543 14385,14569 14395,14616 L 14476,14616 Z"/>
         <path fill="rgb(0,0,0)" stroke="none" d="M 15025,15156 L 14509,15156 14509,15199 15025,15199 15025,15156 Z"/>
         <path fill="rgb(0,0,0)" stroke="none" d="M 15240,14585 C 15114,14585 15037,14675 15037,14826 15037,14977 15113,15068 15240,15068 15367,15068 15444,14977 15444,14829 15444,14674 15369,14585 15240,14585 L 15240,14585 Z M 15240,14651 C 15321,14651 15369,14717 15369,14829 15369,14934 15320,15001 15240,15001 15161,15001 15112,14935 15112,14826 15112,14718 15161,14651 15240,14651 L 15240,14651 Z"/>
         <path fill="none" stroke="rgb(63,110,158)" stroke-width="86" stroke-linejoin="miter" d="M 5945,11302 L 15054,11302"/>
         <path fill="none" stroke="rgb(63,110,158)" stroke-width="86" stroke-linejoin="miter" d="M 15656,11904 C 15656,11894 15656,11885 15656,11875 15648,11551 15379,11294 15054,11302"/>
         <path fill="none" stroke="rgb(63,110,158)" stroke-width="86" stroke-linejoin="miter" d="M 15656,11904 L 15656,15856"/>
         <path fill="none" stroke="rgb(63,110,158)" stroke-width="86" stroke-linejoin="miter" d="M 15054,16458 C 15064,16458 15073,16458 15083,16458 15407,16450 15664,16181 15656,15856"/>
         <path fill="none" stroke="rgb(63,110,158)" stroke-width="86" stroke-linejoin="miter" d="M 15054,16458 L 5945,16458"/>
         <path fill="none" stroke="rgb(63,110,158)" stroke-width="86" stroke-linejoin="miter" d="M 5343,15856 C 5343,15866 5343,15875 5343,15885 5351,16209 5620,16466 5945,16458"/>
         <path fill="none" stroke="rgb(63,110,158)" stroke-width="86" stroke-linejoin="miter" d="M 5343,15856 L 5343,11904"/>
         <path fill="none" stroke="rgb(63,110,158)" stroke-width="86" stroke-linejoin="miter" d="M 5945,11302 C 5935,11302 5926,11302 5916,11302 5592,11310 5335,11579 5343,11904"/>
        </g>
       </g>
      </g>
     </g>
    </g>
   </g>
  </g>
 </g>
</svg>