<?xml version="1.0" encoding="UTF-8"?>
<!DOCTYPE svg PUBLIC "-//W3C//DTD SVG 1.1//EN" "http://www.w3.org/Graphics/SVG/1.1/DTD/svg11.dtd">
<svg version="1.2" width="127.99mm" height="84.99mm" viewBox="4900 9600 12799 8499" preserveAspectRatio="xMidYMid" fill-rule="evenodd" stroke-width="28.222" stroke-linejoin="round" xmlns="http://www.w3.org/2000/svg" xmlns:ooo="http://xml.openoffice.org/svg/export" xmlns:xlink="http://www.w3.org/1999/xlink" xmlns:presentation="http://sun.com/xmlns/staroffice/presentation" xmlns:smil="http://www.w3.org/2001/SMIL20/" xmlns:anim="urn:oasis:names:tc:opendocument:xmlns:animation:1.0" xml:space="preserve">
 <defs class="ClipPathGroup">
  <clipPath id="presentation_clip_path" clipPathUnits="userSpaceOnUse">
   <rect x="4900" y="9600" width="12799" height="8499"/>
  </clipPath>
  <clipPath id="presentation_clip_path_shrink" clipPathUnits="userSpaceOnUse">
   <rect x="4912" y="9608" width="12774" height="8483"/>
  </clipPath>
 </defs>
 <defs class="TextShapeIndex">
  <g ooo:slide="id1" ooo:id-list="id3"/>
 </defs>
 <defs class="EmbeddedBulletChars">
  <g id="bullet-char-template-57356" transform="scale(0.00048828125,-0.00048828125)">
   <path d="M 580,1141 L 1163,571 580,0 -4,571 580,1141 Z"/>
  </g>
  <g id="bullet-char-template-57354" transform="scale(0.00048828125,-0.00048828125)">
   <path d="M 8,1128 L 1137,1128 1137,0 8,0 8,1128 Z"/>
  </g>
  <g id="bullet-char-template-10146" transform="scale(0.00048828125,-0.00048828125)">
   <path d="M 174,0 L 602,739 174,1481 1456,739 174,0 Z M 1358,739 L 309,1346 659,739 1358,739 Z"/>
  </g>
  <g id="bullet-char-template-10132" transform="scale(0.00048828125,-0.00048828125)">
   <path d="M 2015,739 L 1276,0 717,0 1260,543 174,543 174,936 1260,936 717,1481 1274,1481 2015,739 Z"/>
  </g>
  <g id="bullet-char-template-10007" transform="scale(0.00048828125,-0.00048828125)">
   <path d="M 0,-2 C -7,14 -16,27 -25,37 L 356,567 C 262,823 215,952 215,954 215,979 228,992 255,992 264,992 276,990 289,987 310,991 331,999 354,1012 L 381,999 492,748 772,1049 836,1024 860,1049 C 881,1039 901,1025 922,1006 886,937 835,863 770,784 769,783 710,716 594,584 L 774,223 C 774,196 753,168 711,139 L 727,119 C 717,90 699,76 672,76 641,76 570,178 457,381 L 164,-76 C 142,-110 111,-127 72,-127 30,-127 9,-110 8,-76 1,-67 -2,-52 -2,-32 -2,-23 -1,-13 0,-2 Z"/>
  </g>
  <g id="bullet-char-template-10004" transform="scale(0.00048828125,-0.00048828125)">
   <path d="M 285,-33 C 182,-33 111,30 74,156 52,228 41,333 41,471 41,549 55,616 82,672 116,743 169,778 240,778 293,778 328,747 346,684 L 369,508 C 377,444 397,411 428,410 L 1163,1116 C 1174,1127 1196,1133 1229,1133 1271,1133 1292,1118 1292,1087 L 1292,965 C 1292,929 1282,901 1262,881 L 442,47 C 390,-6 338,-33 285,-33 Z"/>
  </g>
  <g id="bullet-char-template-9679" transform="scale(0.00048828125,-0.00048828125)">
   <path d="M 813,0 C 632,0 489,54 383,161 276,268 223,411 223,592 223,773 276,916 383,1023 489,1130 632,1184 813,1184 992,1184 1136,1130 1245,1023 1353,916 1407,772 1407,592 1407,412 1353,268 1245,161 1136,54 992,0 813,0 Z"/>
  </g>
  <g id="bullet-char-template-8226" transform="scale(0.00048828125,-0.00048828125)">
   <path d="M 346,457 C 273,457 209,483 155,535 101,586 74,649 74,723 74,796 101,859 155,911 209,963 273,989 346,989 419,989 480,963 531,910 582,859 608,796 608,723 608,648 583,586 532,535 482,483 420,457 346,457 Z"/>
  </g>
  <g id="bullet-char-template-8211" transform="scale(0.00048828125,-0.00048828125)">
   <path d="M -4,459 L 1135,459 1135,606 -4,606 -4,459 Z"/>
  </g>
  <g id="bullet-char-template-61548" transform="scale(0.00048828125,-0.00048828125)">
   <path d="M 173,740 C 173,903 231,1043 346,1159 462,1274 601,1332 765,1332 928,1332 1067,1274 1183,1159 1299,1043 1357,903 1357,740 1357,577 1299,437 1183,322 1067,206 928,148 765,148 601,148 462,206 346,322 231,437 173,577 173,740 Z"/>
  </g>
 </defs>
 <defs class="TextEmbeddedBitmaps"/>
 <g class="SlideGroup">
  <g>
   <g id="container-id1">
    <g id="id1" class="Slide" clip-path="url(#presentation_clip_path)">
     <g class="Page">
      <g class="Graphic">
       <g id="id3">
        <rect class="BoundingBox" stroke="none" fill="none" x="4900" y="9600" width="12800" height="8500"/>
        <defs>
         <clipPath id="clip_path_1" clipPathUnits="userSpaceOnUse">
          <path d="M 4900,9600 L 17699,9600 17699,18099 4900,18099 4900,9600 Z"/>
         </clipPath>
        </defs>
        <g clip-path="url(#clip_path_1)"/>
        <defs>
         <clipPath id="clip_path_2" clipPathUnits="userSpaceOnUse">
          <path d="M 4900,9600 L 17699,9600 17699,18099 4900,18099 4900,9600 Z"/>
         </clipPath>
        </defs>
        <g clip-path="url(#clip_path_2)">
         <path fill="rgb(255,255,255)" stroke="none" d="M 2606,8605 L 19795,8605 19795,19862 2606,19862 2606,8605 Z"/>
        </g>
        <g clip-path="url(#clip_path_1)">
         <path fill="rgb(0,0,0)" stroke="none" d="M 7075,11613 L 16185,11613 16443,11699 16615,11784 16701,11956 16787,12214 16787,16167 16701,16425 16615,16596 16443,16682 16185,16768 7075,16768 6818,16682 6646,16596 6560,16425 6474,16167 6474,12214 6560,11956 6646,11784 6818,11699 7075,11613 Z"/>
        </g>
        <defs>
         <clipPath id="clip_path_3" clipPathUnits="userSpaceOnUse">
          <path d="M 6646,11183 L 15756,11183 16013,11269 16185,11355 16271,11527 16357,11784 16357,15737 16271,15995 16185,16167 16013,16253 15756,16339 6646,16339 6388,16253 6216,16167 6130,15995 6044,15737 6044,11784 6130,11527 6216,11355 6388,11269 6646,11183 Z"/>
         </clipPath>
        </defs>
        <g clip-path="url(#clip_path_3)"/>
        <defs>
         <clipPath id="clip_path_4" clipPathUnits="userSpaceOnUse">
          <path d="M 6646,11183 L 15756,11183 16013,11269 16185,11355 16271,11527 16357,11784 16357,15737 16271,15995 16185,16167 16013,16253 15756,16339 6646,16339 6388,16253 6216,16167 6130,15995 6044,15737 6044,11784 6130,11527 6216,11355 6388,11269 6646,11183 Z"/>
         </clipPath>
        </defs>
        <g clip-path="url(#clip_path_4)">
         <path fill="rgb(189,212,236)" stroke="none" d="M 3812,15064 L 3833,15075 8593,6747 8572,6735 3812,15064 Z"/>
         <path fill="rgb(189,212,236)" stroke="none" d="M 3812,15064 L 3989,15165 8749,6836 8572,6735 3812,15064 Z"/>
         <path fill="rgb(190,212,236)" stroke="none" d="M 3969,15153 L 4145,15254 8905,6925 8729,6824 3969,15153 Z"/>
         <path fill="rgb(190,213,236)" stroke="none" d="M 4125,15242 L 4302,15343 9061,7015 8885,6914 4125,15242 Z"/>
         <path fill="rgb(191,213,237)" stroke="none" d="M 4281,15331 L 4458,15432 9218,7104 9041,7003 4281,15331 Z"/>
         <path fill="rgb(192,214,237)" stroke="none" d="M 4437,15421 L 4614,15522 9374,7193 9197,7092 4437,15421 Z"/>
         <path fill="rgb(193,214,237)" stroke="none" d="M 4593,15510 L 4770,15611 9530,7282 9353,7181 4593,15510 Z"/>
         <path fill="rgb(193,215,237)" stroke="none" d="M 4750,15599 L 4926,15700 9686,7372 9510,7271 4750,15599 Z"/>
         <path fill="rgb(194,215,237)" stroke="none" d="M 4906,15688 L 5082,15789 9842,7461 9666,7360 4906,15688 Z"/>
         <path fill="rgb(195,216,237)" stroke="none" d="M 5062,15778 L 5239,15879 9999,7550 9822,7449 5062,15778 Z"/>
         <path fill="rgb(196,216,237)" stroke="none" d="M 5218,15867 L 5395,15968 10155,7639 9978,7538 5218,15867 Z"/>
         <path fill="rgb(197,217,238)" stroke="none" d="M 5374,15956 L 5551,16057 10311,7729 10134,7628 5374,15956 Z"/>
         <path fill="rgb(197,217,238)" stroke="none" d="M 5531,16045 L 5707,16146 10467,7818 10290,7717 5531,16045 Z"/>
         <path fill="rgb(198,218,238)" stroke="none" d="M 5687,16135 L 5863,16235 10623,7907 10447,7806 5687,16135 Z"/>
         <path fill="rgb(199,218,238)" stroke="none" d="M 5843,16224 L 6020,16325 10780,7996 10603,7895 5843,16224 Z"/>
         <path fill="rgb(200,218,238)" stroke="none" d="M 5999,16313 L 6054,16345 10814,8016 10759,7984 5999,16313 Z"/>
         <path fill="rgb(200,219,238)" stroke="none" d="M 6034,16333 L 6176,16414 10936,8085 10794,8004 6034,16333 Z"/>
         <path fill="rgb(201,219,238)" stroke="none" d="M 6155,16402 L 6332,16503 11092,8175 10915,8074 6155,16402 Z"/>
         <path fill="rgb(201,219,239)" stroke="none" d="M 6311,16491 L 6488,16592 11248,8264 11071,8163 6311,16491 Z"/>
         <path fill="rgb(202,220,239)" stroke="none" d="M 6468,16581 L 6644,16682 11404,8353 11228,8252 6468,16581 Z"/>
         <path fill="rgb(203,220,239)" stroke="none" d="M 6624,16670 L 6801,16771 11560,8442 11384,8341 6624,16670 Z"/>
         <path fill="rgb(204,221,239)" stroke="none" d="M 6780,16759 L 6957,16860 11717,8532 11540,8431 6780,16759 Z"/>
         <path fill="rgb(204,221,239)" stroke="none" d="M 6936,16848 L 7113,16949 11873,8621 11696,8520 6936,16848 Z"/>
         <path fill="rgb(205,222,239)" stroke="none" d="M 7092,16938 L 7269,17039 12029,8710 11852,8609 7092,16938 Z"/>
         <path fill="rgb(206,222,239)" stroke="none" d="M 7249,17027 L 7425,17128 12185,8799 12008,8698 7249,17027 Z"/>
         <path fill="rgb(207,223,240)" stroke="none" d="M 7405,17116 L 7581,17217 12341,8889 12165,8788 7405,17116 Z"/>
         <path fill="rgb(207,223,240)" stroke="none" d="M 7561,17205 L 7738,17306 12498,8978 12321,8877 7561,17205 Z"/>
         <path fill="rgb(208,224,240)" stroke="none" d="M 7717,17295 L 7894,17396 12654,9067 12477,8966 7717,17295 Z"/>
         <path fill="rgb(209,224,240)" stroke="none" d="M 7873,17384 L 8050,17485 12810,9156 12633,9055 7873,17384 Z"/>
         <path fill="rgb(210,225,240)" stroke="none" d="M 8029,17473 L 8206,17574 12966,9245 12789,9145 8029,17473 Z"/>
         <path fill="rgb(211,225,240)" stroke="none" d="M 8186,17562 L 8362,17663 13122,9335 12946,9234 8186,17562 Z"/>
         <path fill="rgb(211,225,241)" stroke="none" d="M 8342,17652 L 8519,17752 13278,9424 13102,9323 8342,17652 Z"/>
         <path fill="rgb(212,226,241)" stroke="none" d="M 8498,17741 L 8675,17842 13435,9513 13258,9412 8498,17741 Z"/>
         <path fill="rgb(213,226,241)" stroke="none" d="M 8654,17830 L 8831,17931 13591,9602 13414,9501 8654,17830 Z"/>
         <path fill="rgb(214,227,241)" stroke="none" d="M 8810,17919 L 8987,18020 13747,9692 13570,9591 8810,17919 Z"/>
         <path fill="rgb(214,227,241)" stroke="none" d="M 8967,18008 L 9143,18109 13903,9781 13727,9680 8967,18008 Z"/>
         <path fill="rgb(215,228,241)" stroke="none" d="M 9123,18098 L 9299,18199 14059,9870 13883,9769 9123,18098 Z"/>
         <path fill="rgb(216,228,241)" stroke="none" d="M 9279,18187 L 9456,18288 14216,9959 14039,9858 9279,18187 Z"/>
         <path fill="rgb(217,229,242)" stroke="none" d="M 9435,18276 L 9612,18377 14372,10049 14195,9948 9435,18276 Z"/>
         <path fill="rgb(218,229,242)" stroke="none" d="M 9591,18365 L 9768,18466 14528,10138 14351,10037 9591,18365 Z"/>
         <path fill="rgb(218,230,242)" stroke="none" d="M 9748,18455 L 9924,18556 14684,10227 14507,10126 9748,18455 Z"/>
         <path fill="rgb(219,230,242)" stroke="none" d="M 9904,18544 L 10080,18645 14840,10316 14664,10215 9904,18544 Z"/>
         <path fill="rgb(220,231,242)" stroke="none" d="M 10060,18633 L 10237,18734 14997,10406 14820,10305 10060,18633 Z"/>
         <path fill="rgb(221,231,242)" stroke="none" d="M 10216,18722 L 10393,18823 15153,10495 14976,10394 10216,18722 Z"/>
         <path fill="rgb(221,232,243)" stroke="none" d="M 10372,18812 L 10549,18912 15309,10584 15132,10483 10372,18812 Z"/>
         <path fill="rgb(222,232,243)" stroke="none" d="M 10528,18901 L 10705,19002 15465,10673 15288,10572 10528,18901 Z"/>
         <path fill="rgb(223,232,243)" stroke="none" d="M 10685,18990 L 10861,19091 15621,10762 15445,10662 10685,18990 Z"/>
         <path fill="rgb(224,233,243)" stroke="none" d="M 10841,19079 L 11018,19180 15777,10852 15601,10751 10841,19079 Z"/>
         <path fill="rgb(225,233,243)" stroke="none" d="M 10997,19168 L 11174,19269 15934,10941 15757,10840 10997,19168 Z"/>
         <path fill="rgb(225,234,243)" stroke="none" d="M 11153,19258 L 11330,19359 16090,11030 15913,10929 11153,19258 Z"/>
         <path fill="rgb(226,234,244)" stroke="none" d="M 11309,19347 L 11486,19448 16246,11119 16069,11018 11309,19347 Z"/>
         <path fill="rgb(227,235,244)" stroke="none" d="M 11466,19436 L 11608,19517 16367,11189 16225,11108 11466,19436 Z"/>
         <path fill="rgb(228,235,244)" stroke="none" d="M 11587,19506 L 11642,19537 16402,11209 16347,11177 11587,19506 Z"/>
         <path fill="rgb(228,235,244)" stroke="none" d="M 11622,19525 L 11798,19626 16558,11298 16382,11197 11622,19525 Z"/>
         <path fill="rgb(228,236,244)" stroke="none" d="M 11778,19615 L 11955,19716 16715,11387 16538,11286 11778,19615 Z"/>
         <path fill="rgb(229,236,244)" stroke="none" d="M 11934,19704 L 12111,19805 16871,11476 16694,11375 11934,19704 Z"/>
         <path fill="rgb(230,237,244)" stroke="none" d="M 12090,19793 L 12267,19894 17027,11566 16850,11465 12090,19793 Z"/>
         <path fill="rgb(231,237,244)" stroke="none" d="M 12246,19882 L 12423,19983 17183,11655 17006,11554 12246,19882 Z"/>
         <path fill="rgb(232,238,245)" stroke="none" d="M 12403,19972 L 12579,20073 17339,11744 17163,11643 12403,19972 Z"/>
         <path fill="rgb(232,238,245)" stroke="none" d="M 12559,20061 L 12736,20162 17495,11833 17319,11732 12559,20061 Z"/>
         <path fill="rgb(233,239,245)" stroke="none" d="M 12715,20150 L 12892,20251 17652,11923 17475,11822 12715,20150 Z"/>
         <path fill="rgb(234,239,245)" stroke="none" d="M 12871,20239 L 13048,20340 17808,12012 17631,11911 12871,20239 Z"/>
         <path fill="rgb(235,239,245)" stroke="none" d="M 13027,20329 L 13204,20429 17964,12101 17787,12000 13027,20329 Z"/>
         <path fill="rgb(235,240,245)" stroke="none" d="M 13184,20418 L 13360,20519 18120,12190 17943,12089 13184,20418 Z"/>
         <path fill="rgb(236,240,246)" stroke="none" d="M 13340,20507 L 13516,20608 18276,12279 18100,12178 13340,20507 Z"/>
         <path fill="rgb(237,241,246)" stroke="none" d="M 13496,20596 L 13673,20697 18433,12369 18256,12268 13496,20596 Z"/>
         <path fill="rgb(238,241,246)" stroke="none" d="M 13652,20685 L 13829,20786 18589,12458 18412,12357 13652,20685 Z"/>
         <path fill="rgb(239,242,246)" stroke="none" d="M 13808,20775 L 13829,20786 18589,12458 18568,12446 13808,20775 Z"/>
        </g>
        <g clip-path="url(#clip_path_3)"/>
        <g clip-path="url(#clip_path_1)">
         <path fill="rgb(0,0,0)" stroke="none" d="M 8952,10257 L 8952,10798 9039,10798 9039,10459 C 9039,10380 9095,10317 9165,10317 9229,10317 9265,10356 9265,10425 L 9265,10798 9352,10798 9352,10459 C 9352,10380 9409,10317 9479,10317 9542,10317 9579,10357 9579,10425 L 9579,10798 9665,10798 9665,10392 C 9665,10295 9610,10242 9509,10242 9437,10242 9393,10263 9343,10324 9311,10267 9268,10242 9197,10242 9125,10242 9078,10269 9031,10334 L 9031,10257 8952,10257 Z"/>
         <path fill="rgb(0,0,0)" stroke="none" d="M 10236,10798 L 10236,10257 10150,10257 10150,10564 C 10150,10674 10092,10746 10003,10746 9935,10746 9891,10705 9891,10640 L 9891,10257 9806,10257 9806,10674 C 9806,10764 9873,10821 9978,10821 10057,10821 10108,10793 10159,10723 L 10159,10798 10236,10798 Z"/>
         <path fill="rgb(0,0,0)" stroke="none" d="M 10469,10046 L 10382,10046 10382,10798 10469,10798 10469,10046 Z"/>
         <path fill="rgb(0,0,0)" stroke="none" d="M 10803,10257 L 10715,10257 10715,10109 10629,10109 10629,10257 10556,10257 10556,10327 10629,10327 10629,10736 C 10629,10790 10666,10821 10733,10821 10754,10821 10774,10819 10803,10814 L 10803,10742 C 10792,10745 10778,10746 10762,10746 10725,10746 10715,10736 10715,10697 L 10715,10327 10803,10327 10803,10257 Z"/>
         <path fill="rgb(0,0,0)" stroke="none" d="M 10982,10257 L 10897,10257 10897,10798 10982,10798 10982,10257 Z M 10982,10046 L 10896,10046 10896,10154 10982,10154 10982,10046 Z"/>
         <path fill="rgb(0,0,0)" stroke="none" d="M 11112,11022 L 11199,11022 11199,10741 C 11244,10797 11295,10821 11365,10821 11504,10821 11596,10709 11596,10537 11596,10355 11507,10242 11364,10242 11291,10242 11232,10275 11192,10339 L 11192,10257 11112,10257 11112,11022 Z M 11350,10322 C 11445,10322 11506,10406 11506,10535 11506,10657 11443,10741 11350,10741 11259,10741 11199,10659 11199,10532 11199,10405 11259,10322 11350,10322 L 11350,10322 Z"/>
         <path fill="rgb(0,0,0)" stroke="none" d="M 11787,10046 L 11700,10046 11700,10798 11787,10798 11787,10046 Z"/>
         <path fill="rgb(0,0,0)" stroke="none" d="M 12259,10257 L 12110,10678 11972,10257 11880,10257 12062,10800 12029,10885 C 12016,10924 11996,10938 11960,10938 11948,10938 11933,10936 11915,10932 L 11915,11009 C 11932,11018 11950,11022 11972,11022 12001,11022 12030,11013 12053,10997 12080,10977 12096,10955 12112,10911 L 12352,10257 12259,10257 Z"/>
         <path fill="rgb(0,0,0)" stroke="none" d="M 12971,10927 L 12352,10927 12352,10979 12971,10979 12971,10927 Z"/>
         <path fill="rgb(0,0,0)" stroke="none" d="M 13232,10067 C 13164,10067 13102,10096 13063,10147 13016,10211 12993,10309 12993,10444 12993,10691 13075,10821 13232,10821 13387,10821 13471,10691 13471,10450 13471,10308 13449,10213 13400,10147 13362,10095 13301,10067 13232,10067 L 13232,10067 Z M 13232,10147 C 13330,10147 13378,10246 13378,10442 13378,10649 13331,10746 13230,10746 13134,10746 13085,10645 13085,10445 13085,10245 13134,10147 13232,10147 L 13232,10147 Z"/>
         <path fill="rgb(63,110,158)" stroke="none" d="M 8121,17054 L 8121,17595 8207,17595 8207,17256 C 8207,17177 8264,17114 8334,17114 8398,17114 8434,17153 8434,17222 L 8434,17595 8521,17595 8521,17256 C 8521,17177 8577,17114 8648,17114 8711,17114 8747,17154 8747,17222 L 8747,17595 8834,17595 8834,17189 C 8834,17092 8778,17039 8678,17039 8606,17039 8562,17060 8512,17121 8480,17064 8436,17039 8366,17039 8294,17039 8247,17066 8200,17131 L 8200,17054 8121,17054 Z"/>
         <path fill="rgb(63,110,158)" stroke="none" d="M 9405,17595 L 9405,17054 9319,17054 9319,17361 C 9319,17471 9261,17543 9172,17543 9104,17543 9060,17502 9060,17437 L 9060,17054 8974,17054 8974,17471 C 8974,17561 9042,17618 9147,17618 9226,17618 9277,17590 9328,17520 L 9328,17595 9405,17595 Z"/>
         <path fill="rgb(63,110,158)" stroke="none" d="M 9638,16843 L 9551,16843 9551,17595 9638,17595 9638,16843 Z"/>
         <path fill="rgb(63,110,158)" stroke="none" d="M 9972,17054 L 9883,17054 9883,16906 9798,16906 9798,17054 9724,17054 9724,17124 9798,17124 9798,17533 C 9798,17587 9835,17618 9902,17618 9923,17618 9943,17616 9972,17611 L 9972,17539 C 9960,17542 9947,17543 9931,17543 9893,17543 9883,17533 9883,17494 L 9883,17124 9972,17124 9972,17054 Z"/>
         <path fill="rgb(63,110,158)" stroke="none" d="M 10151,17054 L 10066,17054 10066,17595 10151,17595 10151,17054 Z M 10151,16843 L 10065,16843 10065,16951 10151,16951 10151,16843 Z"/>
         <path fill="rgb(63,110,158)" stroke="none" d="M 10281,17819 L 10368,17819 10368,17538 C 10413,17594 10464,17618 10534,17618 10673,17618 10765,17506 10765,17334 10765,17152 10676,17039 10533,17039 10460,17039 10401,17072 10361,17136 L 10361,17054 10281,17054 10281,17819 Z M 10519,17119 C 10614,17119 10675,17203 10675,17332 10675,17454 10612,17538 10519,17538 10428,17538 10368,17456 10368,17329 10368,17202 10428,17119 10519,17119 L 10519,17119 Z"/>
         <path fill="rgb(63,110,158)" stroke="none" d="M 10956,16843 L 10869,16843 10869,17595 10956,17595 10956,16843 Z"/>
         <path fill="rgb(63,110,158)" stroke="none" d="M 11428,17054 L 11278,17475 11140,17054 11049,17054 11231,17597 11198,17682 C 11185,17721 11165,17735 11129,17735 11117,17735 11102,17733 11084,17729 L 11084,17806 C 11101,17815 11118,17819 11141,17819 11169,17819 11199,17810 11222,17794 11249,17774 11264,17752 11281,17708 L 11521,17054 11428,17054 Z"/>
         <path fill="rgb(63,110,158)" stroke="none" d="M 12140,17724 L 11521,17724 11521,17776 12140,17776 12140,17724 Z"/>
         <path fill="rgb(63,110,158)" stroke="none" d="M 12411,17595 L 12618,17054 12521,17054 12368,17492 12224,17054 12127,17054 12317,17595 12411,17595 Z"/>
         <path fill="rgb(63,110,158)" stroke="none" d="M 12900,17074 L 12900,17595 12991,17595 12991,16864 12931,16864 C 12899,16976 12878,16992 12738,17009 L 12738,17074 12900,17074 Z"/>
         <path fill="rgb(63,110,158)" stroke="none" d="M 13802,17724 L 13183,17724 13183,17776 13802,17776 13802,17724 Z"/>
         <path fill="rgb(63,110,158)" stroke="none" d="M 14063,16864 C 13995,16864 13933,16893 13895,16944 13848,17008 13824,17106 13824,17241 13824,17488 13906,17618 14063,17618 14218,17618 14302,17488 14302,17247 14302,17105 14280,17010 14231,16944 14193,16892 14132,16864 14063,16864 L 14063,16864 Z M 14063,16944 C 14161,16944 14210,17043 14210,17239 14210,17446 14162,17543 14061,17543 13965,17543 13917,17442 13917,17242 13917,17042 13965,16944 14063,16944 L 14063,16944 Z"/>
         <path fill="none" stroke="rgb(0,0,0)" stroke-width="430" stroke-linejoin="miter" d="M 5185,12902 L 6044,12902"/>
         <path fill="rgb(0,0,0)" stroke="none" d="M 6623,13022 L 6688,13210 6777,13210 6557,12584 6454,12584 6230,13210 6316,13210 6382,13022 6623,13022 Z M 6601,12955 L 6401,12955 6505,12669 6601,12955 Z"/>
         <path fill="rgb(0,0,0)" stroke="none" d="M 7286,13318 L 6770,13318 6770,13361 7286,13361 7286,13318 Z"/>
         <path fill="rgb(0,0,0)" stroke="none" d="M 7396,12760 L 7325,12760 7325,13210 7396,13210 7396,12760 Z M 7396,12584 L 7324,12584 7324,12674 7396,12674 7396,12584 Z"/>
         <path fill="rgb(0,0,0)" stroke="none" d="M 7673,12584 L 7513,12584 7513,13392 7673,13392 7673,13330 7584,13330 7584,12645 7673,12645 7673,12584 Z"/>
         <path fill="rgb(0,0,0)" stroke="none" d="M 7887,12931 L 7896,12931 7928,12930 C 8011,12930 8054,12968 8054,13041 8054,13117 8007,13163 7928,13163 7845,13163 7805,13121 7800,13033 L 7724,13033 C 7728,13082 7736,13114 7751,13141 7782,13200 7842,13230 7925,13230 8051,13230 8132,13155 8132,13040 8132,12962 8102,12919 8029,12895 8085,12872 8113,12829 8113,12768 8113,12664 8044,12601 7928,12601 7805,12601 7740,12668 7737,12797 L 7813,12797 C 7813,12761 7817,12740 7827,12721 7844,12687 7881,12667 7929,12667 7996,12667 8036,12706 8036,12771 8036,12814 8021,12839 7987,12854 7967,12862 7940,12866 7887,12866 L 7887,12931 Z"/>
         <path fill="rgb(0,0,0)" stroke="none" d="M 8359,13121 L 8269,13121 8269,13210 8359,13210 8359,13121 Z M 8359,12760 L 8269,12760 8269,12849 8359,12849 8359,12760 Z"/>
         <path fill="rgb(0,0,0)" stroke="none" d="M 8650,12601 C 8593,12601 8541,12626 8510,12668 8470,12721 8450,12803 8450,12916 8450,13121 8519,13230 8650,13230 8779,13230 8849,13121 8849,12920 8849,12802 8830,12723 8790,12668 8758,12625 8708,12601 8650,12601 L 8650,12601 Z M 8650,12668 C 8731,12668 8772,12750 8772,12914 8772,13086 8732,13167 8648,13167 8568,13167 8528,13083 8528,12916 8528,12749 8568,12668 8650,12668 L 8650,12668 Z"/>
         <path fill="rgb(0,0,0)" stroke="none" d="M 8911,13392 L 9071,13392 9071,12584 8911,12584 8911,12645 9000,12645 9000,13330 8911,13330 8911,13392 Z"/>
         <path fill="none" stroke="rgb(0,0,0)" stroke-width="430" stroke-linejoin="miter" d="M 5185,14620 L 6044,14620"/>
         <path fill="rgb(0,0,0)" stroke="none" d="M 6284,14929 L 6567,14929 C 6626,14929 6670,14912 6703,14876 6734,14843 6751,14799 6751,14750 6751,14674 6717,14629 6637,14598 6694,14571 6724,14525 6724,14461 6724,14416 6707,14375 6674,14346 6641,14316 6598,14302 6538,14302 L 6284,14302 6284,14929 Z M 6364,14572 L 6364,14373 6518,14373 C 6563,14373 6588,14379 6609,14395 6632,14412 6644,14438 6644,14472 6644,14506 6632,14532 6609,14550 6588,14566 6563,14572 6518,14572 L 6364,14572 Z M 6364,14858 L 6364,14642 6559,14642 C 6598,14642 6623,14652 6642,14672 6661,14692 6671,14720 6671,14751 6671,14781 6661,14808 6642,14828 6623,14849 6598,14858 6559,14858 L 6364,14858 Z"/>
         <path fill="rgb(0,0,0)" stroke="none" d="M 7286,15037 L 6770,15037 6770,15080 7286,15080 7286,15037 Z"/>
         <path fill="rgb(0,0,0)" stroke="none" d="M 7396,14478 L 7325,14478 7325,14929 7396,14929 7396,14478 Z M 7396,14302 L 7324,14302 7324,14392 7396,14392 7396,14302 Z"/>
         <path fill="rgb(0,0,0)" stroke="none" d="M 7673,14302 L 7513,14302 7513,15111 7673,15111 7673,15049 7584,15049 7584,14364 7673,14364 7673,14302 Z"/>
         <path fill="rgb(0,0,0)" stroke="none" d="M 7887,14649 L 7896,14649 7928,14649 C 8011,14649 8054,14686 8054,14760 8054,14836 8007,14881 7928,14881 7845,14881 7805,14840 7800,14752 L 7724,14752 C 7728,14801 7736,14832 7751,14860 7782,14918 7842,14948 7925,14948 8051,14948 8132,14873 8132,14759 8132,14681 8102,14638 8029,14613 8085,14591 8113,14548 8113,14487 8113,14382 8044,14319 7928,14319 7805,14319 7740,14387 7737,14516 L 7813,14516 C 7813,14479 7817,14459 7827,14440 7844,14406 7881,14386 7929,14386 7996,14386 8036,14425 8036,14489 8036,14532 8021,14558 7987,14572 7967,14581 7940,14584 7887,14585 L 7887,14649 Z"/>
         <path fill="rgb(0,0,0)" stroke="none" d="M 8359,14839 L 8269,14839 8269,14929 8359,14929 8359,14839 Z M 8359,14478 L 8269,14478 8269,14568 8359,14568 8359,14478 Z"/>
         <path fill="rgb(0,0,0)" stroke="none" d="M 8650,14319 C 8593,14319 8541,14344 8510,14387 8470,14440 8450,14521 8450,14634 8450,14839 8519,14948 8650,14948 8779,14948 8849,14839 8849,14639 8849,14520 8830,14441 8790,14387 8758,14343 8708,14319 8650,14319 L 8650,14319 Z M 8650,14387 C 8731,14387 8772,14469 8772,14632 8772,14805 8732,14885 8648,14885 8568,14885 8528,14801 8528,14635 8528,14468 8568,14387 8650,14387 L 8650,14387 Z"/>
         <path fill="rgb(0,0,0)" stroke="none" d="M 8911,15111 L 9071,15111 9071,14302 8911,14302 8911,14364 9000,14364 9000,15049 8911,15049 8911,15111 Z"/>
         <path fill="none" stroke="rgb(0,0,0)" stroke-width="430" stroke-linejoin="miter" d="M 17217,12902 L 16357,12902"/>
         <path fill="rgb(0,0,0)" stroke="none" d="M 13317,12964 L 13552,12584 13457,12584 13278,12889 13094,12584 12995,12584 13237,12964 13237,13210 13317,13210 13317,12964 Z"/>
         <path fill="rgb(0,0,0)" stroke="none" d="M 14054,13318 L 13538,13318 13538,13361 14054,13361 14054,13318 Z"/>
         <path fill="rgb(0,0,0)" stroke="none" d="M 14269,12747 C 14143,12747 14066,12837 14066,12988 14066,13140 14142,13230 14269,13230 14396,13230 14473,13140 14473,12992 14473,12836 14398,12747 14269,12747 L 14269,12747 Z M 14269,12813 C 14350,12813 14398,12879 14398,12991 14398,13097 14349,13163 14269,13163 14190,13163 14141,13098 14141,12988 14141,12880 14190,12813 14269,12813 L 14269,12813 Z"/>
         <path fill="rgb(0,0,0)" stroke="none" d="M 14728,12584 L 14568,12584 14568,13392 14728,13392 14728,13330 14639,13330 14639,12645 14728,12645 14728,12584 Z"/>
         <path fill="rgb(0,0,0)" stroke="none" d="M 14942,12931 L 14951,12931 14983,12930 C 15066,12930 15109,12968 15109,13041 15109,13117 15062,13163 14983,13163 14901,13163 14860,13121 14855,13033 L 14779,13033 C 14783,13082 14792,13114 14806,13141 14837,13200 14897,13230 14980,13230 15106,13230 15187,13155 15187,13040 15187,12962 15157,12919 15084,12895 15140,12872 15168,12829 15168,12768 15168,12664 15099,12601 14983,12601 14860,12601 14795,12668 14792,12797 L 14868,12797 C 14869,12761 14872,12740 14882,12721 14899,12687 14936,12667 14984,12667 15051,12667 15091,12706 15091,12771 15091,12814 15076,12839 15042,12854 15022,12862 14995,12866 14942,12866 L 14942,12931 Z"/>
         <path fill="rgb(0,0,0)" stroke="none" d="M 15414,13121 L 15324,13121 15324,13210 15414,13210 15414,13121 Z M 15414,12760 L 15324,12760 15324,12849 15414,12849 15414,12760 Z"/>
         <path fill="rgb(0,0,0)" stroke="none" d="M 15705,12601 C 15648,12601 15596,12626 15565,12668 15525,12721 15505,12803 15505,12916 15505,13121 15574,13230 15705,13230 15834,13230 15904,13121 15904,12920 15904,12802 15885,12723 15845,12668 15813,12625 15763,12601 15705,12601 L 15705,12601 Z M 15705,12668 C 15786,12668 15827,12750 15827,12914 15827,13086 15787,13167 15703,13167 15623,13167 15583,13083 15583,12916 15583,12749 15623,12668 15705,12668 L 15705,12668 Z"/>
         <path fill="rgb(0,0,0)" stroke="none" d="M 15966,13392 L 16126,13392 16126,12584 15966,12584 15966,12645 16055,12645 16055,13330 15966,13330 15966,13392 Z"/>
         <path fill="none" stroke="rgb(0,0,0)" stroke-width="258" stroke-linejoin="miter" d="M 17217,14620 L 16357,14620"/>
         <path fill="rgb(0,0,0)" stroke="none" d="M 15178,14497 C 15153,14359 15074,14292 14937,14292 14852,14292 14784,14318 14738,14370 14681,14432 14650,14521 14650,14622 14650,14726 14682,14814 14741,14875 14790,14925 14851,14948 14933,14948 15086,14948 15172,14866 15191,14700 L 15109,14700 C 15102,14743 15093,14772 15080,14797 15054,14849 15001,14878 14934,14878 14809,14878 14730,14778 14730,14622 14730,14461 14806,14362 14927,14362 14978,14362 15025,14378 15051,14402 15074,14423 15087,14450 15096,14497 L 15178,14497 Z"/>
         <path fill="rgb(0,0,0)" stroke="none" d="M 15726,15037 L 15211,15037 15211,15080 15726,15080 15726,15037 Z"/>
         <path fill="rgb(0,0,0)" stroke="none" d="M 15941,14466 C 15815,14466 15738,14556 15738,14707 15738,14858 15814,14948 15942,14948 16068,14948 16146,14858 16146,14710 16146,14555 16071,14466 15941,14466 L 15941,14466 Z M 15942,14531 C 16023,14531 16071,14598 16071,14710 16071,14815 16021,14882 15942,14882 15862,14882 15813,14816 15813,14707 15813,14599 15862,14531 15942,14531 L 15942,14531 Z"/>
         <path fill="none" stroke="rgb(63,110,158)" stroke-width="86" stroke-linejoin="miter" d="M 6646,11183 L 15756,11183"/>
         <path fill="none" stroke="rgb(63,110,158)" stroke-width="86" stroke-linejoin="miter" d="M 16357,11784 C 16357,11775 16357,11765 16357,11756 16349,11432 16080,11175 15756,11183"/>
         <path fill="none" stroke="rgb(63,110,158)" stroke-width="86" stroke-linejoin="miter" d="M 16357,11784 L 16357,15737"/>
         <path fill="none" stroke="rgb(63,110,158)" stroke-width="86" stroke-linejoin="miter" d="M 15756,16339 C 15765,16339 15775,16339 15784,16339 16109,16331 16365,16061 16357,15737"/>
         <path fill="none" stroke="rgb(63,110,158)" stroke-width="86" stroke-linejoin="miter" d="M 15756,16339 L 6646,16339"/>
         <path fill="none" stroke="rgb(63,110,158)" stroke-width="86" stroke-linejoin="miter" d="M 6044,15737 C 6044,15747 6044,15756 6044,15766 6052,16090 6321,16347 6646,16339"/>
         <path fill="none" stroke="rgb(63,110,158)" stroke-width="86" stroke-linejoin="miter" d="M 6044,15737 L 6044,11784"/>
         <path fill="none" stroke="rgb(63,110,158)" stroke-width="86" stroke-linejoin="miter" d="M 6646,11183 C 6636,11183 6627,11183 6617,11183 6293,11191 6036,11460 6044,11784"/>
        </g>
       </g>
      </g>
     </g>
    </g>
   </g>
  </g>
 </g>
</svg>