<?xml version="1.0" encoding="UTF-8"?>
<!DOCTYPE svg PUBLIC "-//W3C//DTD SVG 1.1//EN" "http://www.w3.org/Graphics/SVG/1.1/DTD/svg11.dtd">
<svg version="1.2" width="130.99mm" height="66.99mm" viewBox="4000 10400 13099 6699" preserveAspectRatio="xMidYMid" fill-rule="evenodd" stroke-width="28.222" stroke-linejoin="round" xmlns="http://www.w3.org/2000/svg" xmlns:ooo="http://xml.openoffice.org/svg/export" xmlns:xlink="http://www.w3.org/1999/xlink" xmlns:presentation="http://sun.com/xmlns/staroffice/presentation" xmlns:smil="http://www.w3.org/2001/SMIL20/" xmlns:anim="urn:oasis:names:tc:opendocument:xmlns:animation:1.0" xml:space="preserve">
 <defs class="ClipPathGroup">
  <clipPath id="presentation_clip_path" clipPathUnits="userSpaceOnUse">
   <rect x="4000" y="10400" width="13099" height="6699"/>
  </clipPath>
  <clipPath id="presentation_clip_path_shrink" clipPathUnits="userSpaceOnUse">
   <rect x="4013" y="10406" width="13073" height="6686"/>
  </clipPath>
 </defs>
 <defs class="TextShapeIndex">
  <g ooo:slide="id1" ooo:id-list="id3"/>
 </defs>
 <defs class="EmbeddedBulletChars">
  <g id="bullet-char-template-57356" transform="scale(0.00048828125,-0.00048828125)">
   <path d="M 580,1141 L 1163,571 580,0 -4,571 580,1141 Z"/>
  </g>
  <g id="bullet-char-template-57354" transform="scale(0.00048828125,-0.00048828125)">
   <path d="M 8,1128 L 1137,1128 1137,0 8,0 8,1128 Z"/>
  </g>
  <g id="bullet-char-template-10146" transform="scale(0.00048828125,-0.00048828125)">
   <path d="M 174,0 L 602,739 174,1481 1456,739 174,0 Z M 1358,739 L 309,1346 659,739 1358,739 Z"/>
  </g>
  <g id="bullet-char-template-10132" transform="scale(0.00048828125,-0.00048828125)">
   <path d="M 2015,739 L 1276,0 717,0 1260,543 174,543 174,936 1260,936 717,1481 1274,1481 2015,739 Z"/>
  </g>
  <g id="bullet-char-template-10007" transform="scale(0.00048828125,-0.00048828125)">
   <path d="M 0,-2 C -7,14 -16,27 -25,37 L 356,567 C 262,823 215,952 215,954 215,979 228,992 255,992 264,992 276,990 289,987 310,991 331,999 354,1012 L 381,999 492,748 772,1049 836,1024 860,1049 C 881,1039 901,1025 922,1006 886,937 835,863 770,784 769,783 710,716 594,584 L 774,223 C 774,196 753,168 711,139 L 727,119 C 717,90 699,76 672,76 641,76 570,178 457,381 L 164,-76 C 142,-110 111,-127 72,-127 30,-127 9,-110 8,-76 1,-67 -2,-52 -2,-32 -2,-23 -1,-13 0,-2 Z"/>
  </g>
  <g id="bullet-char-template-10004" transform="scale(0.00048828125,-0.00048828125)">
   <path d="M 285,-33 C 182,-33 111,30 74,156 52,228 41,333 41,471 41,549 55,616 82,672 116,743 169,778 240,778 293,778 328,747 346,684 L 369,508 C 377,444 397,411 428,410 L 1163,1116 C 1174,1127 1196,1133 1229,1133 1271,1133 1292,1118 1292,1087 L 1292,965 C 1292,929 1282,901 1262,881 L 442,47 C 390,-6 338,-33 285,-33 Z"/>
  </g>
  <g id="bullet-char-template-9679" transform="scale(0.00048828125,-0.00048828125)">
   <path d="M 813,0 C 632,0 489,54 383,161 276,268 223,411 223,592 223,773 276,916 383,1023 489,1130 632,1184 813,1184 992,1184 1136,1130 1245,1023 1353,916 1407,772 1407,592 1407,412 1353,268 1245,161 1136,54 992,0 813,0 Z"/>
  </g>
  <g id="bullet-char-template-8226" transform="scale(0.00048828125,-0.00048828125)">
   <path d="M 346,457 C 273,457 209,483 155,535 101,586 74,649 74,723 74,796 101,859 155,911 209,963 273,989 346,989 419,989 480,963 531,910 582,859 608,796 608,723 608,648 583,586 532,535 482,483 420,457 346,457 Z"/>
  </g>
  <g id="bullet-char-template-8211" transform="scale(0.00048828125,-0.00048828125)">
   <path d="M -4,459 L 1135,459 1135,606 -4,606 -4,459 Z"/>
  </g>
  <g id="bullet-char-template-61548" transform="scale(0.00048828125,-0.00048828125)">
   <path d="M 173,740 C 173,903 231,1043 346,1159 462,1274 601,1332 765,1332 928,1332 1067,1274 1183,1159 1299,1043 1357,903 1357,740 1357,577 1299,437 1183,322 1067,206 928,148 765,148 601,148 462,206 346,322 231,437 173,577 173,740 Z"/>
  </g>
 </defs>
 <defs class="TextEmbeddedBitmaps"/>
 <g class="SlideGroup">
  <g>
   <g id="container-id1">
    <g id="id1" class="Slide" clip-path="url(#presentation_clip_path)">
     <g class="Page">
      <g class="Graphic">
       <g id="id3">
        <rect class="BoundingBox" stroke="none" fill="none" x="4000" y="10400" width="13100" height="6700"/>
        <defs>
         <clipPath id="clip_path_1" clipPathUnits="userSpaceOnUse">
          <path d="M 4000,10400 L 17099,10400 17099,17099 4000,17099 4000,10400 Z"/>
         </clipPath>
        </defs>
        <g clip-path="url(#clip_path_1)"/>
        <defs>
         <clipPath id="clip_path_2" clipPathUnits="userSpaceOnUse">
          <path d="M 4000,10400 L 17099,10400 17099,17099 4000,17099 4000,10400 Z"/>
         </clipPath>
        </defs>
        <g clip-path="url(#clip_path_2)">
         <path fill="rgb(255,255,255)" stroke="none" d="M 2105,9184 L 19293,9184 19293,18722 2105,18722 2105,9184 Z"/>
        </g>
        <g clip-path="url(#clip_path_1)">
         <path fill="rgb(0,0,0)" stroke="none" d="M 6574,12192 L 15684,12192 15942,12278 16114,12364 16199,12536 16285,12793 16285,15027 16199,15285 16114,15457 15942,15543 15684,15629 6574,15629 6316,15543 6145,15457 6059,15285 5973,15027 5973,12793 6059,12536 6145,12364 6316,12278 6574,12192 Z"/>
        </g>
        <defs>
         <clipPath id="clip_path_3" clipPathUnits="userSpaceOnUse">
          <path d="M 6145,11762 L 15254,11762 15512,11848 15684,11934 15770,12106 15856,12364 15856,14598 15770,14855 15684,15027 15512,15113 15254,15199 6145,15199 5887,15113 5715,15027 5629,14855 5543,14598 5543,12364 5629,12106 5715,11934 5887,11848 6145,11762 Z"/>
         </clipPath>
        </defs>
        <g clip-path="url(#clip_path_3)"/>
        <defs>
         <clipPath id="clip_path_4" clipPathUnits="userSpaceOnUse">
          <path d="M 6145,11762 L 15254,11762 15512,11848 15684,11934 15770,12106 15856,12364 15856,14598 15770,14855 15684,15027 15512,15113 15254,15199 6145,15199 5887,15113 5715,15027 5629,14855 5543,14598 5543,12364 5629,12106 5715,11934 5887,11848 6145,11762 Z"/>
         </clipPath>
        </defs>
        <g clip-path="url(#clip_path_4)">
         <path fill="rgb(189,212,236)" stroke="none" d="M 4279,14658 L 4318,14674 7162,8037 7124,8021 4279,14658 Z"/>
         <path fill="rgb(189,212,236)" stroke="none" d="M 4279,14658 L 4473,14741 7318,8104 7124,8021 4279,14658 Z"/>
         <path fill="rgb(190,212,236)" stroke="none" d="M 4435,14724 L 4629,14807 7474,8170 7280,8087 4435,14724 Z"/>
         <path fill="rgb(190,213,236)" stroke="none" d="M 4590,14791 L 4784,14874 7629,8237 7435,8154 4590,14791 Z"/>
         <path fill="rgb(191,213,237)" stroke="none" d="M 4746,14858 L 4940,14941 7785,8304 7591,8221 4746,14858 Z"/>
         <path fill="rgb(192,214,237)" stroke="none" d="M 4902,14924 L 5095,15007 7940,8370 7746,8287 4902,14924 Z"/>
         <path fill="rgb(193,214,237)" stroke="none" d="M 5057,14991 L 5251,15074 8096,8437 7902,8354 5057,14991 Z"/>
         <path fill="rgb(194,215,237)" stroke="none" d="M 5213,15058 L 5407,15141 8251,8504 8058,8421 5213,15058 Z"/>
         <path fill="rgb(194,215,237)" stroke="none" d="M 5368,15124 L 5562,15207 8407,8570 8213,8487 5368,15124 Z"/>
         <path fill="rgb(195,216,237)" stroke="none" d="M 5524,15191 L 5718,15274 8563,8637 8369,8554 5524,15191 Z"/>
         <path fill="rgb(196,216,237)" stroke="none" d="M 5679,15258 L 5873,15341 8718,8704 8524,8621 5679,15258 Z"/>
         <path fill="rgb(197,217,238)" stroke="none" d="M 5835,15324 L 6029,15407 8874,8770 8680,8687 5835,15324 Z"/>
         <path fill="rgb(197,217,238)" stroke="none" d="M 5991,15391 L 6184,15474 9029,8837 8835,8754 5991,15391 Z"/>
         <path fill="rgb(198,218,238)" stroke="none" d="M 6146,15458 L 6340,15541 9185,8904 8991,8821 6146,15458 Z"/>
         <path fill="rgb(199,218,238)" stroke="none" d="M 6302,15524 L 6496,15607 9341,8970 9147,8887 6302,15524 Z"/>
         <path fill="rgb(200,218,238)" stroke="none" d="M 6457,15591 L 6651,15674 9496,9037 9302,8954 6457,15591 Z"/>
         <path fill="rgb(201,219,238)" stroke="none" d="M 6613,15658 L 6807,15741 9652,9104 9458,9021 6613,15658 Z"/>
         <path fill="rgb(201,219,239)" stroke="none" d="M 6768,15724 L 6962,15807 9807,9170 9613,9087 6768,15724 Z"/>
         <path fill="rgb(202,220,239)" stroke="none" d="M 6924,15791 L 7118,15874 9963,9237 9769,9154 6924,15791 Z"/>
         <path fill="rgb(203,220,239)" stroke="none" d="M 7080,15858 L 7274,15941 10118,9304 9925,9221 7080,15858 Z"/>
         <path fill="rgb(204,221,239)" stroke="none" d="M 7235,15924 L 7429,16007 10274,9370 10080,9287 7235,15924 Z"/>
         <path fill="rgb(204,221,239)" stroke="none" d="M 7391,15991 L 7585,16074 10430,9437 10236,9354 7391,15991 Z"/>
         <path fill="rgb(205,222,239)" stroke="none" d="M 7546,16058 L 7740,16141 10585,9504 10391,9421 7546,16058 Z"/>
         <path fill="rgb(206,222,239)" stroke="none" d="M 7702,16124 L 7896,16207 10741,9570 10547,9487 7702,16124 Z"/>
         <path fill="rgb(207,223,240)" stroke="none" d="M 7858,16191 L 8051,16274 10896,9637 10702,9554 7858,16191 Z"/>
         <path fill="rgb(207,223,240)" stroke="none" d="M 8013,16258 L 8207,16341 11052,9704 10858,9621 8013,16258 Z"/>
         <path fill="rgb(208,224,240)" stroke="none" d="M 8169,16324 L 8363,16407 11207,9770 11014,9687 8169,16324 Z"/>
         <path fill="rgb(209,224,240)" stroke="none" d="M 8324,16391 L 8518,16474 11363,9837 11169,9754 8324,16391 Z"/>
         <path fill="rgb(210,225,240)" stroke="none" d="M 8480,16458 L 8674,16541 11519,9904 11325,9821 8480,16458 Z"/>
         <path fill="rgb(211,225,240)" stroke="none" d="M 8635,16524 L 8829,16607 11674,9970 11480,9887 8635,16524 Z"/>
         <path fill="rgb(211,225,241)" stroke="none" d="M 8791,16591 L 8985,16674 11830,10037 11636,9954 8791,16591 Z"/>
         <path fill="rgb(212,226,241)" stroke="none" d="M 8947,16658 L 9141,16741 11985,10104 11791,10021 8947,16658 Z"/>
         <path fill="rgb(213,226,241)" stroke="none" d="M 9102,16724 L 9296,16807 12141,10170 11947,10087 9102,16724 Z"/>
         <path fill="rgb(214,227,241)" stroke="none" d="M 9258,16791 L 9452,16874 12297,10237 12103,10154 9258,16791 Z"/>
         <path fill="rgb(214,227,241)" stroke="none" d="M 9413,16858 L 9607,16941 12452,10304 12258,10221 9413,16858 Z"/>
         <path fill="rgb(215,228,241)" stroke="none" d="M 9569,16924 L 9763,17007 12608,10370 12414,10287 9569,16924 Z"/>
         <path fill="rgb(216,228,241)" stroke="none" d="M 9724,16991 L 9918,17074 12763,10437 12569,10354 9724,16991 Z"/>
         <path fill="rgb(217,229,242)" stroke="none" d="M 9880,17058 L 10074,17141 12919,10504 12725,10421 9880,17058 Z"/>
         <path fill="rgb(218,229,242)" stroke="none" d="M 10036,17124 L 10230,17207 13074,10570 12881,10487 10036,17124 Z"/>
         <path fill="rgb(218,230,242)" stroke="none" d="M 10191,17191 L 10385,17274 13230,10637 13036,10554 10191,17191 Z"/>
         <path fill="rgb(219,230,242)" stroke="none" d="M 10347,17258 L 10541,17341 13386,10704 13192,10621 10347,17258 Z"/>
         <path fill="rgb(220,231,242)" stroke="none" d="M 10502,17324 L 10696,17407 13541,10770 13347,10687 10502,17324 Z"/>
         <path fill="rgb(221,231,242)" stroke="none" d="M 10658,17391 L 10852,17474 13697,10837 13503,10754 10658,17391 Z"/>
         <path fill="rgb(221,231,243)" stroke="none" d="M 10814,17458 L 11007,17541 13852,10904 13658,10821 10814,17458 Z"/>
         <path fill="rgb(222,232,243)" stroke="none" d="M 10969,17524 L 11163,17607 14008,10970 13814,10887 10969,17524 Z"/>
         <path fill="rgb(223,232,243)" stroke="none" d="M 11125,17591 L 11319,17674 14163,11037 13970,10954 11125,17591 Z"/>
         <path fill="rgb(224,233,243)" stroke="none" d="M 11280,17658 L 11474,17741 14319,11104 14125,11021 11280,17658 Z"/>
         <path fill="rgb(225,233,243)" stroke="none" d="M 11436,17724 L 11630,17807 14475,11170 14281,11087 11436,17724 Z"/>
         <path fill="rgb(225,234,243)" stroke="none" d="M 11591,17791 L 11785,17874 14630,11237 14436,11154 11591,17791 Z"/>
         <path fill="rgb(226,234,244)" stroke="none" d="M 11747,17858 L 11941,17941 14786,11304 14592,11221 11747,17858 Z"/>
         <path fill="rgb(227,235,244)" stroke="none" d="M 11903,17924 L 12097,18007 14941,11370 14747,11287 11903,17924 Z"/>
         <path fill="rgb(228,235,244)" stroke="none" d="M 12058,17991 L 12252,18074 15097,11437 14903,11354 12058,17991 Z"/>
         <path fill="rgb(228,236,244)" stroke="none" d="M 12214,18058 L 12408,18141 15253,11504 15059,11421 12214,18058 Z"/>
         <path fill="rgb(229,236,244)" stroke="none" d="M 12369,18124 L 12563,18207 15408,11570 15214,11487 12369,18124 Z"/>
         <path fill="rgb(230,237,244)" stroke="none" d="M 12525,18191 L 12719,18274 15564,11637 15370,11554 12525,18191 Z"/>
         <path fill="rgb(231,237,244)" stroke="none" d="M 12681,18257 L 12874,18341 15719,11704 15525,11621 12681,18257 Z"/>
         <path fill="rgb(232,238,245)" stroke="none" d="M 12836,18324 L 13030,18407 15875,11770 15681,11687 12836,18324 Z"/>
         <path fill="rgb(232,238,245)" stroke="none" d="M 12992,18391 L 13186,18474 16030,11837 15837,11754 12992,18391 Z"/>
         <path fill="rgb(233,238,245)" stroke="none" d="M 13147,18457 L 13341,18541 16186,11904 15992,11821 13147,18457 Z"/>
         <path fill="rgb(234,239,245)" stroke="none" d="M 13303,18524 L 13497,18607 16342,11970 16148,11887 13303,18524 Z"/>
         <path fill="rgb(235,239,245)" stroke="none" d="M 13458,18591 L 13652,18674 16497,12037 16303,11954 13458,18591 Z"/>
         <path fill="rgb(235,240,245)" stroke="none" d="M 13614,18657 L 13808,18741 16653,12104 16459,12021 13614,18657 Z"/>
         <path fill="rgb(236,240,246)" stroke="none" d="M 13770,18724 L 13963,18807 16808,12170 16614,12087 13770,18724 Z"/>
         <path fill="rgb(237,241,246)" stroke="none" d="M 13925,18791 L 14119,18874 16964,12237 16770,12154 13925,18791 Z"/>
         <path fill="rgb(238,241,246)" stroke="none" d="M 14081,18857 L 14275,18941 17120,12304 16926,12221 14081,18857 Z"/>
        </g>
        <g clip-path="url(#clip_path_3)"/>
        <g clip-path="url(#clip_path_1)">
         <path fill="rgb(0,0,0)" stroke="none" d="M 8220,10836 L 8220,11377 8307,11377 8307,11079 C 8307,10969 8365,10896 8453,10896 8521,10896 8565,10938 8565,11003 L 8565,11377 8650,11377 8650,10969 C 8650,10879 8583,10821 8479,10821 8398,10821 8347,10852 8300,10927 L 8300,10836 8220,10836 Z"/>
         <path fill="rgb(0,0,0)" stroke="none" d="M 9250,11136 C 9250,11053 9244,11003 9229,10963 9194,10875 9111,10821 9010,10821 8859,10821 8763,10937 8763,11114 8763,11291 8857,11401 9008,11401 9132,11401 9217,11330 9239,11213 L 9152,11213 C 9129,11284 9080,11321 9011,11321 8956,11321 8910,11297 8881,11251 8860,11220 8854,11189 8852,11136 L 9250,11136 Z M 8855,11065 C 8862,10966 8922,10900 9009,10900 9094,10900 9159,10971 9159,11059 9159,11062 9159,11064 9158,11065 L 8855,11065 Z"/>
         <path fill="rgb(0,0,0)" stroke="none" d="M 9720,10836 L 9720,10915 C 9676,10851 9624,10821 9555,10821 9417,10821 9325,10941 9325,11116 9325,11204 9349,11277 9393,11328 9433,11374 9491,11401 9548,11401 9615,11401 9663,11372 9711,11304 L 9711,11331 C 9711,11405 9702,11449 9680,11479 9658,11511 9613,11529 9561,11529 9521,11529 9487,11519 9463,11500 9443,11485 9435,11471 9430,11439 L 9342,11439 C 9351,11541 9431,11602 9558,11602 9638,11602 9707,11576 9742,11532 9784,11483 9799,11415 9799,11288 L 9799,10836 9720,10836 Z M 9564,10900 C 9657,10900 9711,10979 9711,11114 9711,11243 9656,11321 9565,11321 9471,11321 9414,11242 9414,11111 9414,10981 9472,10900 9564,10900 L 9564,10900 Z"/>
         <path fill="rgb(0,0,0)" stroke="none" d="M 10420,11327 C 10411,11328 10406,11328 10401,11328 10371,11328 10355,11313 10355,11286 L 10355,10969 C 10355,10873 10285,10821 10152,10821 10074,10821 10009,10844 9972,10884 9948,10912 9937,10943 9935,10996 L 10022,10996 C 10029,10930 10068,10900 10149,10900 10226,10900 10269,10929 10269,10981 L 10269,11003 C 10269,11040 10247,11055 10180,11064 10058,11079 10039,11083 10006,11096 9943,11122 9911,11171 9911,11241 9911,11339 9980,11401 10089,11401 10157,11401 10212,11377 10273,11321 10278,11376 10306,11401 10361,11401 10379,11401 10392,11399 10420,11391 L 10420,11327 Z M 10269,11207 C 10269,11235 10261,11253 10235,11277 10200,11309 10158,11326 10107,11326 10041,11326 10001,11294 10001,11239 10001,11182 10039,11153 10131,11140 10222,11127 10241,11123 10269,11110 L 10269,11207 Z"/>
         <path fill="rgb(0,0,0)" stroke="none" d="M 10704,10836 L 10615,10836 10615,10688 10529,10688 10529,10836 10456,10836 10456,10907 10529,10907 10529,11315 C 10529,11370 10567,11401 10633,11401 10654,11401 10675,11399 10704,11393 L 10704,11321 C 10692,11324 10679,11326 10662,11326 10625,11326 10615,11315 10615,11277 L 10615,10907 10704,10907 10704,10836 Z"/>
         <path fill="rgb(0,0,0)" stroke="none" d="M 10883,10836 L 10797,10836 10797,11377 10883,11377 10883,10836 Z M 10883,10625 L 10797,10625 10797,10734 10883,10734 10883,10625 Z"/>
         <path fill="rgb(0,0,0)" stroke="none" d="M 11238,10821 C 11086,10821 10994,10929 10994,11111 10994,11292 11085,11401 11239,11401 11390,11401 11483,11292 11483,11115 11483,10928 11394,10821 11238,10821 L 11238,10821 Z M 11239,10900 C 11335,10900 11394,10980 11394,11114 11394,11241 11334,11321 11239,11321 11143,11321 11084,11242 11084,11111 11084,10981 11143,10900 11239,10900 L 11239,10900 Z"/>
         <path fill="rgb(0,0,0)" stroke="none" d="M 11603,10836 L 11603,11377 11689,11377 11689,11079 C 11689,10969 11747,10896 11836,10896 11904,10896 11947,10938 11947,11003 L 11947,11377 12033,11377 12033,10969 C 12033,10879 11966,10821 11861,10821 11781,10821 11730,10852 11682,10927 L 11682,10836 11603,10836 Z"/>
         <path fill="rgb(0,0,0)" stroke="none" d="M 12700,11507 L 12081,11507 12081,11559 12700,11559 12700,11507 Z"/>
         <path fill="rgb(0,0,0)" stroke="none" d="M 12961,10646 C 12893,10646 12831,10676 12793,10726 12746,10790 12722,10888 12722,11023 12722,11270 12804,11401 12961,11401 13116,11401 13200,11270 13200,11030 13200,10887 13178,10792 13129,10726 13091,10675 13030,10646 12961,10646 L 12961,10646 Z M 12961,10726 C 13059,10726 13107,10825 13107,11021 13107,11228 13060,11326 12959,11326 12863,11326 12814,11224 12814,11024 12814,10824 12863,10726 12961,10726 L 12961,10726 Z"/>
         <path fill="rgb(63,110,158)" stroke="none" d="M 7389,15915 L 7389,16455 7476,16455 7476,16157 C 7476,16047 7533,15975 7622,15975 7690,15975 7733,16016 7733,16081 L 7733,16455 7819,16455 7819,16047 C 7819,15957 7752,15899 7648,15899 7567,15899 7516,15930 7468,16006 L 7468,15915 7389,15915 Z"/>
         <path fill="rgb(63,110,158)" stroke="none" d="M 8419,16214 C 8419,16131 8413,16082 8397,16041 8362,15953 8280,15899 8179,15899 8028,15899 7931,16015 7931,16192 7931,16369 8025,16479 8177,16479 8300,16479 8386,16409 8408,16291 L 8321,16291 C 8298,16362 8249,16399 8180,16399 8125,16399 8079,16375 8050,16329 8029,16298 8022,16268 8021,16214 L 8419,16214 Z M 8023,16144 C 8031,16044 8091,15978 8178,15978 8263,15978 8328,16049 8328,16137 8328,16140 8328,16142 8327,16144 L 8023,16144 Z"/>
         <path fill="rgb(63,110,158)" stroke="none" d="M 8888,15915 L 8888,15993 C 8845,15929 8792,15899 8724,15899 8586,15899 8494,16019 8494,16194 8494,16283 8517,16355 8561,16407 8602,16452 8660,16479 8716,16479 8784,16479 8832,16450 8880,16382 L 8880,16409 C 8880,16483 8871,16527 8849,16557 8826,16589 8782,16608 8729,16608 8690,16608 8655,16597 8632,16579 8612,16564 8604,16549 8599,16517 L 8511,16517 C 8520,16619 8600,16680 8727,16680 8807,16680 8876,16654 8911,16610 8952,16561 8968,16493 8968,16366 L 8968,15915 8888,15915 Z M 8733,15978 C 8825,15978 8880,16057 8880,16192 8880,16321 8824,16399 8734,16399 8640,16399 8583,16320 8583,16189 8583,16059 8641,15978 8733,15978 L 8733,15978 Z"/>
         <path fill="rgb(63,110,158)" stroke="none" d="M 9589,16405 C 9579,16407 9575,16407 9570,16407 9540,16407 9524,16391 9524,16364 L 9524,16047 C 9524,15951 9454,15899 9320,15899 9242,15899 9177,15922 9141,15962 9116,15990 9106,16021 9104,16074 L 9190,16074 C 9198,16008 9237,15978 9317,15978 9395,15978 9438,16008 9438,16059 L 9438,16082 C 9438,16118 9416,16133 9348,16142 9227,16157 9208,16161 9175,16175 9112,16200 9080,16249 9080,16319 9080,16417 9148,16479 9258,16479 9326,16479 9380,16455 9441,16399 9447,16454 9474,16479 9530,16479 9548,16479 9561,16477 9589,16470 L 9589,16405 Z M 9438,16285 C 9438,16314 9430,16332 9404,16355 9369,16387 9327,16404 9276,16404 9209,16404 9170,16372 9170,16317 9170,16260 9208,16231 9300,16218 9391,16206 9409,16201 9438,16188 L 9438,16285 Z"/>
         <path fill="rgb(63,110,158)" stroke="none" d="M 9872,15915 L 9784,15915 9784,15766 9698,15766 9698,15915 9625,15915 9625,15985 9698,15985 9698,16393 C 9698,16448 9735,16479 9802,16479 9823,16479 9843,16477 9872,16471 L 9872,16399 C 9861,16402 9848,16404 9831,16404 9794,16404 9784,16393 9784,16355 L 9784,15985 9872,15985 9872,15915 Z"/>
         <path fill="rgb(63,110,158)" stroke="none" d="M 10052,15915 L 9966,15915 9966,16455 10052,16455 10052,15915 Z M 10052,15703 L 9965,15703 9965,15812 10052,15812 10052,15703 Z"/>
         <path fill="rgb(63,110,158)" stroke="none" d="M 10406,15899 C 10255,15899 10163,16008 10163,16189 10163,16370 10254,16479 10407,16479 10559,16479 10652,16370 10652,16193 10652,16007 10562,15899 10406,15899 L 10406,15899 Z M 10407,15978 C 10504,15978 10562,16058 10562,16192 10562,16319 10502,16399 10407,16399 10311,16399 10253,16320 10253,16189 10253,16059 10311,15978 10407,15978 L 10407,15978 Z"/>
         <path fill="rgb(63,110,158)" stroke="none" d="M 10772,15915 L 10772,16455 10858,16455 10858,16157 C 10858,16047 10916,15975 11005,15975 11073,15975 11116,16016 11116,16081 L 11116,16455 11202,16455 11202,16047 C 11202,15957 11134,15899 11030,15899 10950,15899 10898,15930 10851,16006 L 10851,15915 10772,15915 Z"/>
         <path fill="rgb(63,110,158)" stroke="none" d="M 11869,16585 L 11250,16585 11250,16637 11869,16637 11869,16585 Z"/>
         <path fill="rgb(63,110,158)" stroke="none" d="M 12140,16455 L 12347,15915 12251,15915 12098,16353 11953,15915 11856,15915 12046,16455 12140,16455 Z"/>
         <path fill="rgb(63,110,158)" stroke="none" d="M 12629,15934 L 12629,16455 12720,16455 12720,15724 12660,15724 C 12628,15837 12607,15852 12467,15869 L 12467,15934 12629,15934 Z"/>
         <path fill="rgb(63,110,158)" stroke="none" d="M 13531,16585 L 12912,16585 12912,16637 13531,16637 13531,16585 Z"/>
         <path fill="rgb(63,110,158)" stroke="none" d="M 13792,15724 C 13724,15724 13662,15754 13624,15805 13577,15868 13553,15966 13553,16101 13553,16348 13635,16479 13792,16479 13947,16479 14031,16348 14031,16108 14031,15965 14009,15870 13960,15805 13922,15753 13861,15724 13792,15724 L 13792,15724 Z M 13792,15805 C 13890,15805 13939,15903 13939,16099 13939,16306 13891,16404 13790,16404 13694,16404 13646,16302 13646,16102 13646,15902 13694,15805 13792,15805 L 13792,15805 Z"/>
         <path fill="none" stroke="rgb(0,0,0)" stroke-width="430" stroke-linejoin="miter" d="M 4684,13481 L 5543,13481"/>
         <path fill="rgb(0,0,0)" stroke="none" d="M 6122,13601 L 6187,13789 6276,13789 6056,13163 5953,13163 5729,13789 5815,13789 5881,13601 6122,13601 Z M 6100,13534 L 5900,13534 6004,13249 6100,13534 Z"/>
         <path fill="rgb(0,0,0)" stroke="none" d="M 6785,13898 L 6269,13898 6269,13940 6785,13940 6785,13898 Z"/>
         <path fill="rgb(0,0,0)" stroke="none" d="M 6895,13339 L 6824,13339 6824,13789 6895,13789 6895,13339 Z M 6895,13163 L 6823,13163 6823,13253 6895,13253 6895,13163 Z"/>
         <path fill="rgb(0,0,0)" stroke="none" d="M 7172,13163 L 7012,13163 7012,13971 7172,13971 7172,13909 7083,13909 7083,13224 7172,13224 7172,13163 Z"/>
         <path fill="rgb(0,0,0)" stroke="none" d="M 7385,13510 L 7395,13510 7427,13509 C 7510,13509 7553,13547 7553,13620 7553,13696 7506,13742 7427,13742 7344,13742 7304,13701 7299,13612 L 7223,13612 C 7227,13661 7235,13693 7250,13720 7281,13779 7341,13809 7424,13809 7550,13809 7631,13734 7631,13619 7631,13542 7601,13499 7527,13474 7584,13452 7612,13408 7612,13347 7612,13243 7543,13180 7427,13180 7304,13180 7239,13247 7236,13376 L 7311,13376 C 7312,13340 7316,13319 7325,13300 7342,13267 7380,13246 7428,13246 7494,13246 7535,13285 7535,13350 7535,13393 7520,13419 7486,13433 7465,13441 7439,13445 7385,13445 L 7385,13510 Z"/>
         <path fill="rgb(0,0,0)" stroke="none" d="M 7857,13700 L 7768,13700 7768,13789 7857,13789 7857,13700 Z M 7857,13339 L 7768,13339 7768,13428 7857,13428 7857,13339 Z"/>
         <path fill="rgb(0,0,0)" stroke="none" d="M 8149,13180 C 8092,13180 8040,13205 8009,13247 7969,13300 7949,13382 7949,13495 7949,13700 8018,13809 8149,13809 8278,13809 8348,13700 8348,13500 8348,13381 8329,13302 8289,13247 8257,13204 8206,13180 8149,13180 L 8149,13180 Z M 8149,13247 C 8230,13247 8271,13330 8271,13493 8271,13666 8231,13746 8147,13746 8067,13746 8027,13662 8027,13495 8027,13329 8067,13247 8149,13247 L 8149,13247 Z"/>
         <path fill="rgb(0,0,0)" stroke="none" d="M 8410,13971 L 8570,13971 8570,13163 8410,13163 8410,13224 8499,13224 8499,13909 8410,13909 8410,13971 Z"/>
         <path fill="none" stroke="rgb(0,0,0)" stroke-width="430" stroke-linejoin="miter" d="M 16715,13481 L 15856,13481"/>
         <path fill="rgb(0,0,0)" stroke="none" d="M 12815,13544 L 13051,13163 12955,13163 12777,13468 12593,13163 12494,13163 12735,13544 12735,13789 12815,13789 12815,13544 Z"/>
         <path fill="rgb(0,0,0)" stroke="none" d="M 13552,13898 L 13037,13898 13037,13940 13552,13940 13552,13898 Z"/>
         <path fill="rgb(0,0,0)" stroke="none" d="M 13768,13326 C 13641,13326 13565,13416 13565,13567 13565,13719 13640,13809 13768,13809 13895,13809 13972,13719 13972,13571 13972,13415 13897,13326 13768,13326 L 13768,13326 Z M 13768,13392 C 13849,13392 13897,13458 13897,13570 13897,13676 13848,13743 13768,13743 13688,13743 13639,13677 13639,13567 13639,13459 13688,13392 13768,13392 L 13768,13392 Z"/>
         <path fill="rgb(0,0,0)" stroke="none" d="M 14227,13163 L 14067,13163 14067,13971 14227,13971 14227,13909 14138,13909 14138,13224 14227,13224 14227,13163 Z"/>
         <path fill="rgb(0,0,0)" stroke="none" d="M 14440,13510 L 14450,13510 14481,13509 C 14565,13509 14608,13547 14608,13620 14608,13696 14560,13742 14481,13742 14399,13742 14359,13701 14354,13612 L 14278,13612 C 14281,13661 14290,13693 14305,13720 14336,13779 14396,13809 14479,13809 14604,13809 14685,13734 14685,13619 14685,13542 14655,13499 14582,13474 14639,13452 14667,13408 14667,13347 14667,13243 14598,13180 14481,13180 14359,13180 14293,13247 14291,13376 L 14366,13376 C 14367,13340 14370,13319 14380,13300 14397,13267 14435,13246 14482,13246 14549,13246 14590,13285 14590,13350 14590,13393 14574,13419 14541,13433 14520,13441 14494,13445 14440,13445 L 14440,13510 Z"/>
         <path fill="rgb(0,0,0)" stroke="none" d="M 14912,13700 L 14823,13700 14823,13789 14912,13789 14912,13700 Z M 14912,13339 L 14823,13339 14823,13428 14912,13428 14912,13339 Z"/>
         <path fill="rgb(0,0,0)" stroke="none" d="M 15203,13180 C 15147,13180 15095,13205 15063,13247 15024,13300 15004,13382 15004,13495 15004,13700 15073,13809 15203,13809 15332,13809 15403,13700 15403,13500 15403,13381 15384,13302 15343,13247 15312,13204 15261,13180 15203,13180 L 15203,13180 Z M 15203,13247 C 15285,13247 15326,13330 15326,13493 15326,13666 15286,13746 15202,13746 15122,13746 15081,13662 15081,13495 15081,13329 15122,13247 15203,13247 L 15203,13247 Z"/>
         <path fill="rgb(0,0,0)" stroke="none" d="M 15465,13971 L 15625,13971 15625,13163 15465,13163 15465,13224 15553,13224 15553,13909 15465,13909 15465,13971 Z"/>
         <path fill="none" stroke="rgb(63,110,158)" stroke-width="86" stroke-linejoin="miter" d="M 6145,11762 L 15254,11762"/>
         <path fill="none" stroke="rgb(63,110,158)" stroke-width="86" stroke-linejoin="miter" d="M 15856,12364 C 15856,12354 15856,12345 15856,12335 15848,12011 15578,11754 15254,11762"/>
         <path fill="none" stroke="rgb(63,110,158)" stroke-width="86" stroke-linejoin="miter" d="M 15856,12364 L 15856,14598"/>
         <path fill="none" stroke="rgb(63,110,158)" stroke-width="86" stroke-linejoin="miter" d="M 15254,15199 C 15264,15199 15273,15199 15283,15199 15607,15191 15864,14922 15856,14598"/>
         <path fill="none" stroke="rgb(63,110,158)" stroke-width="86" stroke-linejoin="miter" d="M 15254,15199 L 6145,15199"/>
         <path fill="none" stroke="rgb(63,110,158)" stroke-width="86" stroke-linejoin="miter" d="M 5543,14598 C 5543,14607 5543,14617 5543,14626 5551,14951 5820,15207 6145,15199"/>
         <path fill="none" stroke="rgb(63,110,158)" stroke-width="86" stroke-linejoin="miter" d="M 5543,14598 L 5543,12364"/>
         <path fill="none" stroke="rgb(63,110,158)" stroke-width="86" stroke-linejoin="miter" d="M 6145,11762 C 6135,11762 6125,11762 6116,11762 5792,11770 5535,12039 5543,12364"/>
        </g>
       </g>
      </g>
     </g>
    </g>
   </g>
  </g>
 </g>
</svg>