<?xml version="1.0" encoding="UTF-8"?>
<!DOCTYPE svg PUBLIC "-//W3C//DTD SVG 1.1//EN" "http://www.w3.org/Graphics/SVG/1.1/DTD/svg11.dtd">
<svg version="1.2" width="133.99mm" height="59.99mm" viewBox="4200 12000 13399 5999" preserveAspectRatio="xMidYMid" fill-rule="evenodd" stroke-width="28.222" stroke-linejoin="round" xmlns="http://www.w3.org/2000/svg" xmlns:ooo="http://xml.openoffice.org/svg/export" xmlns:xlink="http://www.w3.org/1999/xlink" xmlns:presentation="http://sun.com/xmlns/staroffice/presentation" xmlns:smil="http://www.w3.org/2001/SMIL20/" xmlns:anim="urn:oasis:names:tc:opendocument:xmlns:animation:1.0" xml:space="preserve">
 <defs class="ClipPathGroup">
  <clipPath id="presentation_clip_path" clipPathUnits="userSpaceOnUse">
   <rect x="4200" y="12000" width="13399" height="5999"/>
  </clipPath>
  <clipPath id="presentation_clip_path_shrink" clipPathUnits="userSpaceOnUse">
   <rect x="4213" y="12005" width="13373" height="5988"/>
  </clipPath>
 </defs>
 <defs class="TextShapeIndex">
  <g ooo:slide="id1" ooo:id-list="id3"/>
 </defs>
 <defs class="EmbeddedBulletChars">
  <g id="bullet-char-template-57356" transform="scale(0.00048828125,-0.00048828125)">
   <path d="M 580,1141 L 1163,571 580,0 -4,571 580,1141 Z"/>
  </g>
  <g id="bullet-char-template-57354" transform="scale(0.00048828125,-0.00048828125)">
   <path d="M 8,1128 L 1137,1128 1137,0 8,0 8,1128 Z"/>
  </g>
  <g id="bullet-char-template-10146" transform="scale(0.00048828125,-0.00048828125)">
   <path d="M 174,0 L 602,739 174,1481 1456,739 174,0 Z M 1358,739 L 309,1346 659,739 1358,739 Z"/>
  </g>
  <g id="bullet-char-template-10132" transform="scale(0.00048828125,-0.00048828125)">
   <path d="M 2015,739 L 1276,0 717,0 1260,543 174,543 174,936 1260,936 717,1481 1274,1481 2015,739 Z"/>
  </g>
  <g id="bullet-char-template-10007" transform="scale(0.00048828125,-0.00048828125)">
   <path d="M 0,-2 C -7,14 -16,27 -25,37 L 356,567 C 262,823 215,952 215,954 215,979 228,992 255,992 264,992 276,990 289,987 310,991 331,999 354,1012 L 381,999 492,748 772,1049 836,1024 860,1049 C 881,1039 901,1025 922,1006 886,937 835,863 770,784 769,783 710,716 594,584 L 774,223 C 774,196 753,168 711,139 L 727,119 C 717,90 699,76 672,76 641,76 570,178 457,381 L 164,-76 C 142,-110 111,-127 72,-127 30,-127 9,-110 8,-76 1,-67 -2,-52 -2,-32 -2,-23 -1,-13 0,-2 Z"/>
  </g>
  <g id="bullet-char-template-10004" transform="scale(0.00048828125,-0.00048828125)">
   <path d="M 285,-33 C 182,-33 111,30 74,156 52,228 41,333 41,471 41,549 55,616 82,672 116,743 169,778 240,778 293,778 328,747 346,684 L 369,508 C 377,444 397,411 428,410 L 1163,1116 C 1174,1127 1196,1133 1229,1133 1271,1133 1292,1118 1292,1087 L 1292,965 C 1292,929 1282,901 1262,881 L 442,47 C 390,-6 338,-33 285,-33 Z"/>
  </g>
  <g id="bullet-char-template-9679" transform="scale(0.00048828125,-0.00048828125)">
   <path d="M 813,0 C 632,0 489,54 383,161 276,268 223,411 223,592 223,773 276,916 383,1023 489,1130 632,1184 813,1184 992,1184 1136,1130 1245,1023 1353,916 1407,772 1407,592 1407,412 1353,268 1245,161 1136,54 992,0 813,0 Z"/>
  </g>
  <g id="bullet-char-template-8226" transform="scale(0.00048828125,-0.00048828125)">
   <path d="M 346,457 C 273,457 209,483 155,535 101,586 74,649 74,723 74,796 101,859 155,911 209,963 273,989 346,989 419,989 480,963 531,910 582,859 608,796 608,723 608,648 583,586 532,535 482,483 420,457 346,457 Z"/>
  </g>
  <g id="bullet-char-template-8211" transform="scale(0.00048828125,-0.00048828125)">
   <path d="M -4,459 L 1135,459 1135,606 -4,606 -4,459 Z"/>
  </g>
  <g id="bullet-char-template-61548" transform="scale(0.00048828125,-0.00048828125)">
   <path d="M 173,740 C 173,903 231,1043 346,1159 462,1274 601,1332 765,1332 928,1332 1067,1274 1183,1159 1299,1043 1357,903 1357,740 1357,577 1299,437 1183,322 1067,206 928,148 765,148 601,148 462,206 346,322 231,437 173,577 173,740 Z"/>
  </g>
 </defs>
 <defs class="TextEmbeddedBitmaps"/>
 <g class="SlideGroup">
  <g>
   <g id="container-id1">
    <g id="id1" class="Slide" clip-path="url(#presentation_clip_path)">
     <g class="Page">
      <g class="Graphic">
       <g id="id3">
        <rect class="BoundingBox" stroke="none" fill="none" x="4200" y="12000" width="13400" height="6000"/>
        <defs>
         <clipPath id="clip_path_1" clipPathUnits="userSpaceOnUse">
          <path d="M 4200,12000 L 17599,12000 17599,17999 4200,17999 4200,12000 Z"/>
         </clipPath>
        </defs>
        <g clip-path="url(#clip_path_1)"/>
        <defs>
         <clipPath id="clip_path_2" clipPathUnits="userSpaceOnUse">
          <path d="M 4200,12000 L 17599,12000 17599,17999 4200,17999 4200,12000 Z"/>
         </clipPath>
        </defs>
        <g clip-path="url(#clip_path_2)">
         <path fill="rgb(255,255,255)" stroke="none" d="M 2206,10915 L 19394,10915 19394,19584 2206,19584 2206,10915 Z"/>
        </g>
        <g clip-path="url(#clip_path_1)">
         <path fill="rgb(0,0,0)" stroke="none" d="M 6269,13648 L 16113,13648 16347,13726 16504,13804 16582,13961 16660,14195 16660,16226 16582,16460 16504,16616 16347,16694 16113,16772 6269,16772 6034,16694 5878,16616 5800,16460 5722,16226 5722,14195 5800,13961 5878,13804 6034,13726 6269,13648 Z"/>
        </g>
        <defs>
         <clipPath id="clip_path_3" clipPathUnits="userSpaceOnUse">
          <path d="M 5878,13258 L 15722,13258 15957,13336 16113,13414 16191,13570 16269,13804 16269,15835 16191,16069 16113,16226 15957,16304 15722,16382 5878,16382 5644,16304 5487,16226 5409,16069 5331,15835 5331,13804 5409,13570 5487,13414 5644,13336 5878,13258 Z"/>
         </clipPath>
        </defs>
        <g clip-path="url(#clip_path_3)"/>
        <defs>
         <clipPath id="clip_path_4" clipPathUnits="userSpaceOnUse">
          <path d="M 5878,13258 L 15722,13258 15957,13336 16113,13414 16191,13570 16269,13804 16269,15835 16191,16069 16113,16226 15957,16304 15722,16382 5878,16382 5644,16304 5487,16226 5409,16069 5331,15835 5331,13804 5409,13570 5487,13414 5644,13336 5878,13258 Z"/>
         </clipPath>
        </defs>
        <g clip-path="url(#clip_path_4)">
         <path fill="rgb(189,212,236)" stroke="none" d="M 4279,15988 L 4494,16068 6870,9734 6655,9654 4279,15988 Z"/>
         <path fill="rgb(189,212,236)" stroke="none" d="M 4445,16050 L 4660,16130 7036,9796 6821,9716 4445,16050 Z"/>
         <path fill="rgb(190,213,236)" stroke="none" d="M 4611,16112 L 4826,16192 7202,9858 6987,9778 4611,16112 Z"/>
         <path fill="rgb(191,213,236)" stroke="none" d="M 4777,16174 L 4992,16255 7368,9921 7153,9840 4777,16174 Z"/>
         <path fill="rgb(191,213,237)" stroke="none" d="M 4943,16236 L 5158,16317 7533,9983 7319,9902 4943,16236 Z"/>
         <path fill="rgb(192,214,237)" stroke="none" d="M 5109,16299 L 5323,16379 7699,10045 7485,9965 5109,16299 Z"/>
         <path fill="rgb(193,214,237)" stroke="none" d="M 5275,16361 L 5356,16391 7731,10057 7651,10027 5275,16361 Z"/>
         <path fill="rgb(194,215,237)" stroke="none" d="M 5307,16373 L 5489,16441 7865,10107 7683,10039 5307,16373 Z"/>
         <path fill="rgb(194,215,237)" stroke="none" d="M 5441,16423 L 5655,16503 8031,10169 7817,10089 5441,16423 Z"/>
         <path fill="rgb(195,215,237)" stroke="none" d="M 5607,16485 L 5821,16566 8197,10232 7983,10151 5607,16485 Z"/>
         <path fill="rgb(195,216,237)" stroke="none" d="M 5772,16547 L 5987,16628 8363,10294 8148,10213 5772,16547 Z"/>
         <path fill="rgb(196,216,238)" stroke="none" d="M 5938,16610 L 6153,16690 8529,10356 8314,10276 5938,16610 Z"/>
         <path fill="rgb(197,217,238)" stroke="none" d="M 6104,16672 L 6319,16752 8695,10418 8480,10338 6104,16672 Z"/>
         <path fill="rgb(198,217,238)" stroke="none" d="M 6270,16734 L 6485,16814 8861,10480 8646,10400 6270,16734 Z"/>
         <path fill="rgb(199,218,238)" stroke="none" d="M 6436,16796 L 6651,16877 9026,10543 8812,10462 6436,16796 Z"/>
         <path fill="rgb(199,218,238)" stroke="none" d="M 6602,16858 L 6816,16939 9192,10605 8978,10524 6602,16858 Z"/>
         <path fill="rgb(200,219,238)" stroke="none" d="M 6768,16921 L 6982,17001 9358,10667 9144,10587 6768,16921 Z"/>
         <path fill="rgb(201,219,238)" stroke="none" d="M 6934,16983 L 7148,17063 9524,10729 9310,10649 6934,16983 Z"/>
         <path fill="rgb(202,220,239)" stroke="none" d="M 7100,17045 L 7314,17125 9690,10791 9476,10711 7100,17045 Z"/>
         <path fill="rgb(203,220,239)" stroke="none" d="M 7265,17107 L 7480,17187 9856,10853 9641,10773 7265,17107 Z"/>
         <path fill="rgb(203,221,239)" stroke="none" d="M 7431,17169 L 7646,17250 10022,10916 9807,10835 7431,17169 Z"/>
         <path fill="rgb(204,221,239)" stroke="none" d="M 7597,17231 L 7812,17312 10188,10978 9973,10897 7597,17231 Z"/>
         <path fill="rgb(205,222,239)" stroke="none" d="M 7763,17294 L 7978,17374 10354,11040 10139,10960 7763,17294 Z"/>
         <path fill="rgb(206,222,239)" stroke="none" d="M 7929,17356 L 8144,17436 10519,11102 10305,11022 7929,17356 Z"/>
         <path fill="rgb(207,223,240)" stroke="none" d="M 8095,17418 L 8309,17498 10685,11164 10471,11084 8095,17418 Z"/>
         <path fill="rgb(207,223,240)" stroke="none" d="M 8261,17480 L 8475,17561 10851,11227 10637,11146 8261,17480 Z"/>
         <path fill="rgb(208,223,240)" stroke="none" d="M 8427,17542 L 8641,17623 11017,11289 10803,11208 8427,17542 Z"/>
         <path fill="rgb(209,224,240)" stroke="none" d="M 8593,17605 L 8807,17685 11183,11351 10969,11271 8593,17605 Z"/>
         <path fill="rgb(210,224,240)" stroke="none" d="M 8758,17667 L 8973,17747 11349,11413 11134,11333 8758,17667 Z"/>
         <path fill="rgb(210,225,240)" stroke="none" d="M 8924,17729 L 9139,17809 11515,11475 11300,11395 8924,17729 Z"/>
         <path fill="rgb(211,225,241)" stroke="none" d="M 9090,17791 L 9305,17872 11681,11538 11466,11457 9090,17791 Z"/>
         <path fill="rgb(212,226,241)" stroke="none" d="M 9256,17853 L 9471,17934 11847,11600 11632,11519 9256,17853 Z"/>
         <path fill="rgb(213,226,241)" stroke="none" d="M 9422,17916 L 9637,17996 12012,11662 11798,11582 9422,17916 Z"/>
         <path fill="rgb(214,227,241)" stroke="none" d="M 9588,17978 L 9802,18058 12178,11724 11964,11644 9588,17978 Z"/>
         <path fill="rgb(214,227,241)" stroke="none" d="M 9754,18040 L 9968,18120 12344,11786 12130,11706 9754,18040 Z"/>
         <path fill="rgb(215,228,241)" stroke="none" d="M 9920,18102 L 10134,18183 12510,11849 12296,11768 9920,18102 Z"/>
         <path fill="rgb(216,228,241)" stroke="none" d="M 10086,18164 L 10300,18245 12676,11911 12462,11830 10086,18164 Z"/>
         <path fill="rgb(217,229,242)" stroke="none" d="M 10251,18226 L 10466,18307 12842,11973 12627,11892 10251,18226 Z"/>
         <path fill="rgb(218,229,242)" stroke="none" d="M 10417,18289 L 10632,18369 13008,12035 12793,11955 10417,18289 Z"/>
         <path fill="rgb(218,230,242)" stroke="none" d="M 10583,18351 L 10798,18431 13174,12097 12959,12017 10583,18351 Z"/>
         <path fill="rgb(219,230,242)" stroke="none" d="M 10749,18413 L 10964,18493 13340,12159 13125,12079 10749,18413 Z"/>
         <path fill="rgb(220,231,242)" stroke="none" d="M 10915,18475 L 11130,18556 13505,12222 13291,12141 10915,18475 Z"/>
         <path fill="rgb(221,231,242)" stroke="none" d="M 11081,18537 L 11295,18618 13671,12284 13457,12203 11081,18537 Z"/>
         <path fill="rgb(222,232,243)" stroke="none" d="M 11247,18600 L 11461,18680 13837,12346 13623,12266 11247,18600 Z"/>
         <path fill="rgb(222,232,243)" stroke="none" d="M 11413,18662 L 11627,18742 14003,12408 13789,12328 11413,18662 Z"/>
         <path fill="rgb(223,233,243)" stroke="none" d="M 11579,18724 L 11793,18804 14169,12470 13955,12390 11579,18724 Z"/>
         <path fill="rgb(224,233,243)" stroke="none" d="M 11744,18786 L 11959,18867 14335,12533 14120,12452 11744,18786 Z"/>
         <path fill="rgb(225,234,243)" stroke="none" d="M 11910,18848 L 12125,18929 14501,12595 14286,12514 11910,18848 Z"/>
         <path fill="rgb(226,234,243)" stroke="none" d="M 12076,18911 L 12291,18991 14667,12657 14452,12577 12076,18911 Z"/>
         <path fill="rgb(226,234,244)" stroke="none" d="M 12242,18973 L 12457,19053 14833,12719 14618,12639 12242,18973 Z"/>
         <path fill="rgb(227,235,244)" stroke="none" d="M 12408,19035 L 12623,19115 14998,12781 14784,12701 12408,19035 Z"/>
         <path fill="rgb(228,235,244)" stroke="none" d="M 12574,19097 L 12788,19178 15164,12844 14950,12763 12574,19097 Z"/>
         <path fill="rgb(229,236,244)" stroke="none" d="M 12740,19159 L 12954,19240 15330,12906 15116,12825 12740,19159 Z"/>
         <path fill="rgb(230,236,244)" stroke="none" d="M 12906,19222 L 13120,19302 15496,12968 15282,12888 12906,19222 Z"/>
         <path fill="rgb(230,237,244)" stroke="none" d="M 13072,19284 L 13286,19364 15662,13030 15448,12950 13072,19284 Z"/>
         <path fill="rgb(231,237,245)" stroke="none" d="M 13237,19346 L 13452,19426 15828,13092 15613,13012 13237,19346 Z"/>
         <path fill="rgb(232,238,245)" stroke="none" d="M 13403,19408 L 13618,19489 15994,13155 15779,13074 13403,19408 Z"/>
         <path fill="rgb(233,238,245)" stroke="none" d="M 13569,19470 L 13784,19551 16160,13217 15945,13136 13569,19470 Z"/>
         <path fill="rgb(234,239,245)" stroke="none" d="M 13735,19532 L 13918,19601 16293,13267 16111,13198 13735,19532 Z"/>
         <path fill="rgb(234,239,245)" stroke="none" d="M 13869,19583 L 13950,19613 16326,13279 16245,13249 13869,19583 Z"/>
         <path fill="rgb(235,239,245)" stroke="none" d="M 13901,19595 L 14116,19675 16491,13341 16277,13261 13901,19595 Z"/>
         <path fill="rgb(235,240,245)" stroke="none" d="M 14067,19657 L 14281,19737 16657,13403 16443,13323 14067,19657 Z"/>
         <path fill="rgb(236,240,245)" stroke="none" d="M 14233,19719 L 14447,19799 16823,13465 16609,13385 14233,19719 Z"/>
         <path fill="rgb(237,241,246)" stroke="none" d="M 14399,19781 L 14613,19862 16989,13528 16775,13447 14399,19781 Z"/>
         <path fill="rgb(238,241,246)" stroke="none" d="M 14565,19843 L 14779,19924 17155,13590 16941,13509 14565,19843 Z"/>
         <path fill="rgb(238,242,246)" stroke="none" d="M 14730,19906 L 14945,19986 17321,13652 17106,13572 14730,19906 Z"/>
        </g>
        <g clip-path="url(#clip_path_3)"/>
        <g clip-path="url(#clip_path_1)">
         <path fill="rgb(0,0,0)" stroke="none" d="M 9183,13112 L 9262,13112 9262,12856 C 9303,12907 9349,12929 9413,12929 9540,12929 9623,12827 9623,12670 9623,12506 9543,12402 9412,12402 9345,12402 9292,12432 9255,12491 L 9255,12416 9183,12416 9183,13112 Z M 9399,12476 C 9485,12476 9542,12552 9542,12669 9542,12780 9484,12856 9399,12856 9316,12856 9262,12781 9262,12666 9262,12551 9316,12476 9399,12476 L 9399,12476 Z"/>
         <path fill="rgb(0,0,0)" stroke="none" d="M 10155,12862 C 10147,12863 10143,12863 10138,12863 10111,12863 10096,12849 10096,12825 L 10096,12537 C 10096,12449 10033,12402 9912,12402 9841,12402 9781,12423 9749,12460 9726,12485 9717,12513 9715,12562 L 9794,12562 C 9800,12502 9836,12475 9909,12475 9979,12475 10019,12501 10019,12548 L 10019,12569 C 10019,12601 9999,12615 9937,12623 9827,12637 9810,12641 9780,12653 9722,12676 9693,12720 9693,12784 9693,12873 9755,12929 9855,12929 9917,12929 9966,12908 10022,12857 10027,12907 10051,12929 10102,12929 10118,12929 10130,12927 10155,12921 L 10155,12862 Z M 10019,12753 C 10019,12779 10011,12795 9988,12816 9956,12846 9918,12861 9872,12861 9811,12861 9775,12831 9775,12782 9775,12730 9810,12704 9893,12692 9976,12681 9993,12677 10019,12665 L 10019,12753 Z"/>
         <path fill="rgb(0,0,0)" stroke="none" d="M 10240,12416 L 10240,12908 10319,12908 10319,12653 C 10319,12583 10337,12537 10374,12509 10399,12492 10422,12486 10476,12485 L 10476,12405 C 10463,12403 10456,12402 10446,12402 10396,12402 10357,12432 10312,12506 L 10312,12416 10240,12416 Z"/>
         <path fill="rgb(0,0,0)" stroke="none" d="M 10628,12416 L 10550,12416 10550,12908 10628,12908 10628,12416 Z M 10628,12224 L 10550,12224 10550,12323 10628,12323 10628,12224 Z"/>
         <path fill="rgb(0,0,0)" stroke="none" d="M 10934,12416 L 10853,12416 10853,12281 10775,12281 10775,12416 10709,12416 10709,12480 10775,12480 10775,12851 C 10775,12901 10809,12929 10870,12929 10889,12929 10907,12927 10934,12923 L 10934,12857 C 10923,12860 10911,12861 10896,12861 10862,12861 10853,12851 10853,12816 L 10853,12480 10934,12480 10934,12416 Z"/>
         <path fill="rgb(0,0,0)" stroke="none" d="M 11320,12416 L 11184,12799 11059,12416 10975,12416 11141,12909 11111,12987 C 11099,13022 11081,13035 11048,13035 11037,13035 11024,13033 11007,13030 L 11007,13100 C 11023,13108 11039,13112 11059,13112 11085,13112 11112,13103 11133,13088 11157,13071 11171,13050 11186,13011 L 11404,12416 11320,12416 Z"/>
         <path fill="rgb(0,0,0)" stroke="none" d="M 11967,13026 L 11404,13026 11404,13073 11967,13073 11967,13026 Z"/>
         <path fill="rgb(0,0,0)" stroke="none" d="M 12204,12243 C 12142,12243 12086,12270 12051,12316 12008,12374 11987,12463 11987,12586 11987,12810 12062,12929 12204,12929 12345,12929 12422,12810 12422,12592 12422,12462 12401,12376 12357,12316 12322,12269 12267,12243 12204,12243 L 12204,12243 Z M 12204,12316 C 12293,12316 12337,12406 12337,12584 12337,12772 12294,12861 12202,12861 12115,12861 12071,12769 12071,12587 12071,12405 12115,12316 12204,12316 L 12204,12316 Z"/>
         <path fill="rgb(63,110,158)" stroke="none" d="M 8427,17728 L 8506,17728 8506,17472 C 8548,17523 8594,17545 8658,17545 8784,17545 8867,17443 8867,17286 8867,17122 8787,17018 8657,17018 8590,17018 8536,17048 8500,17107 L 8500,17032 8427,17032 8427,17728 Z M 8644,17092 C 8730,17092 8786,17168 8786,17285 8786,17396 8729,17472 8644,17472 8561,17472 8506,17397 8506,17282 8506,17167 8561,17092 8644,17092 L 8644,17092 Z"/>
         <path fill="rgb(63,110,158)" stroke="none" d="M 9400,17478 C 9392,17479 9388,17479 9383,17479 9356,17479 9341,17465 9341,17441 L 9341,17153 C 9341,17065 9277,17018 9156,17018 9085,17018 9026,17039 8993,17076 8971,17101 8961,17129 8959,17178 L 9038,17178 C 9045,17118 9080,17091 9153,17091 9223,17091 9263,17117 9263,17164 L 9263,17185 C 9263,17217 9243,17231 9181,17239 9071,17253 9054,17257 9024,17269 8967,17292 8938,17336 8938,17400 8938,17489 9000,17545 9099,17545 9161,17545 9210,17524 9266,17473 9271,17523 9296,17545 9346,17545 9362,17545 9375,17543 9400,17537 L 9400,17478 Z M 9263,17369 C 9263,17395 9255,17411 9232,17432 9200,17462 9162,17477 9116,17477 9055,17477 9019,17447 9019,17398 9019,17346 9054,17320 9137,17308 9220,17297 9237,17293 9263,17281 L 9263,17369 Z"/>
         <path fill="rgb(63,110,158)" stroke="none" d="M 9485,17032 L 9485,17524 9563,17524 9563,17269 C 9563,17199 9581,17153 9618,17125 9643,17108 9666,17102 9720,17101 L 9720,17021 C 9707,17019 9701,17018 9690,17018 9640,17018 9601,17048 9557,17122 L 9557,17032 9485,17032 Z"/>
         <path fill="rgb(63,110,158)" stroke="none" d="M 9872,17032 L 9795,17032 9795,17524 9872,17524 9872,17032 Z M 9872,16840 L 9794,16840 9794,16939 9872,16939 9872,16840 Z"/>
         <path fill="rgb(63,110,158)" stroke="none" d="M 10178,17032 L 10097,17032 10097,16897 10019,16897 10019,17032 9953,17032 9953,17096 10019,17096 10019,17467 C 10019,17517 10053,17545 10114,17545 10133,17545 10152,17543 10178,17539 L 10178,17473 C 10168,17476 10156,17477 10141,17477 10107,17477 10097,17467 10097,17432 L 10097,17096 10178,17096 10178,17032 Z"/>
         <path fill="rgb(63,110,158)" stroke="none" d="M 10564,17032 L 10428,17415 10303,17032 10220,17032 10385,17525 10355,17603 C 10343,17638 10325,17651 10293,17651 10281,17651 10268,17649 10251,17646 L 10251,17716 C 10267,17724 10283,17728 10304,17728 10329,17728 10356,17719 10377,17704 10401,17687 10415,17666 10430,17627 L 10649,17032 10564,17032 Z"/>
         <path fill="rgb(63,110,158)" stroke="none" d="M 11211,17642 L 10649,17642 10649,17689 11211,17689 11211,17642 Z"/>
         <path fill="rgb(63,110,158)" stroke="none" d="M 11458,17524 L 11646,17032 11558,17032 11419,17431 11288,17032 11200,17032 11372,17524 11458,17524 Z"/>
         <path fill="rgb(63,110,158)" stroke="none" d="M 11902,17050 L 11902,17524 11984,17524 11984,16859 11930,16859 C 11901,16961 11883,16975 11755,16991 L 11755,17050 11902,17050 Z"/>
         <path fill="rgb(63,110,158)" stroke="none" d="M 12722,17642 L 12160,17642 12160,17689 12722,17689 12722,17642 Z"/>
         <path fill="rgb(63,110,158)" stroke="none" d="M 12960,16859 C 12898,16859 12842,16886 12807,16932 12764,16990 12742,17079 12742,17202 12742,17426 12817,17545 12960,17545 13100,17545 13177,17426 13177,17208 13177,17078 13156,16992 13113,16932 13078,16885 13023,16859 12960,16859 L 12960,16859 Z M 12960,16932 C 13049,16932 13093,17022 13093,17200 13093,17388 13050,17477 12958,17477 12871,17477 12826,17385 12826,17203 12826,17021 12871,16932 12960,16932 L 12960,16932 Z"/>
         <path fill="none" stroke="rgb(0,0,0)" stroke-width="391" stroke-linejoin="miter" d="M 4550,14820 L 5331,14820"/>
         <path fill="rgb(0,0,0)" stroke="none" d="M 5874,14531 L 5810,14531 5810,14742 C 5782,14701 5738,14679 5684,14679 5577,14679 5508,14764 5508,14895 5508,15033 5576,15118 5686,15118 5742,15118 5781,15097 5816,15046 L 5816,15100 5874,15100 5874,14531 Z M 5694,14740 C 5765,14740 5810,14802 5810,14900 5810,14995 5764,15057 5695,15057 5624,15057 5576,14994 5576,14899 5576,14803 5624,14740 5694,14740 L 5694,14740 Z"/>
         <path fill="rgb(0,0,0)" stroke="none" d="M 6340,15062 C 6333,15063 6330,15063 6326,15063 6303,15063 6291,15052 6291,15031 L 6291,14791 C 6291,14718 6238,14679 6137,14679 6077,14679 6028,14696 6001,14727 5982,14748 5974,14771 5973,14812 L 6038,14812 C 6044,14762 6073,14739 6135,14739 6193,14739 6226,14761 6226,14800 L 6226,14817 C 6226,14845 6210,14857 6158,14863 6066,14875 6052,14877 6026,14888 5979,14907 5955,14944 5955,14997 5955,15071 6006,15118 6089,15118 6141,15118 6182,15100 6228,15058 6233,15099 6253,15118 6295,15118 6308,15118 6319,15117 6340,15111 L 6340,15062 Z M 6226,14971 C 6226,14993 6220,15006 6200,15025 6173,15049 6141,15061 6103,15061 6052,15061 6023,15037 6023,14996 6023,14953 6052,14931 6121,14921 6190,14911 6204,14908 6226,14898 L 6226,14971 Z"/>
         <path fill="rgb(0,0,0)" stroke="none" d="M 6555,14691 L 6488,14691 6488,14579 6423,14579 6423,14691 6367,14691 6367,14744 6423,14744 6423,15053 C 6423,15095 6451,15118 6502,15118 6517,15118 6533,15117 6555,15113 L 6555,15058 C 6546,15061 6536,15061 6523,15061 6495,15061 6488,15053 6488,15025 L 6488,14744 6555,14744 6555,14691 Z"/>
         <path fill="rgb(0,0,0)" stroke="none" d="M 6992,15062 C 6984,15063 6981,15063 6977,15063 6955,15063 6942,15052 6942,15031 L 6942,14791 C 6942,14718 6889,14679 6789,14679 6729,14679 6680,14696 6652,14727 6634,14748 6626,14771 6624,14812 L 6690,14812 C 6696,14762 6725,14739 6786,14739 6845,14739 6877,14761 6877,14800 L 6877,14817 C 6877,14845 6861,14857 6809,14863 6717,14875 6703,14877 6678,14888 6631,14907 6606,14944 6606,14997 6606,15071 6658,15118 6741,15118 6792,15118 6834,15100 6880,15058 6884,15099 6905,15118 6947,15118 6960,15118 6970,15117 6992,15111 L 6992,15062 Z M 6877,14971 C 6877,14993 6871,15006 6852,15025 6825,15049 6793,15061 6755,15061 6704,15061 6674,15037 6674,14996 6674,14953 6703,14931 6773,14921 6841,14911 6855,14908 6877,14898 L 6877,14971 Z"/>
         <path fill="rgb(0,0,0)" stroke="none" d="M 7459,15199 L 6991,15199 6991,15238 7459,15238 7459,15199 Z"/>
         <path fill="rgb(0,0,0)" stroke="none" d="M 7559,14691 L 7495,14691 7495,15100 7559,15100 7559,14691 Z M 7559,14531 L 7494,14531 7494,14613 7559,14613 7559,14531 Z"/>
         <path fill="rgb(0,0,0)" stroke="none" d="M 7811,14531 L 7666,14531 7666,15266 7811,15266 7811,15210 7730,15210 7730,14587 7811,14587 7811,14531 Z"/>
         <path fill="rgb(0,0,0)" stroke="none" d="M 8005,14846 L 8014,14846 8043,14845 C 8119,14845 8158,14880 8158,14946 8158,15016 8115,15057 8043,15057 7968,15057 7931,15020 7927,14939 L 7858,14939 C 7861,14984 7869,15013 7882,15038 7910,15091 7965,15118 8041,15118 8155,15118 8228,15050 8228,14946 8228,14875 8201,14836 8135,14814 8186,14793 8212,14754 8212,14699 8212,14603 8149,14546 8043,14546 7931,14546 7872,14607 7870,14725 L 7938,14725 C 7939,14691 7942,14673 7951,14656 7967,14625 8001,14607 8044,14607 8105,14607 8141,14643 8141,14701 8141,14740 8127,14764 8097,14776 8078,14784 8054,14787 8005,14788 L 8005,14846 Z"/>
         <path fill="rgb(0,0,0)" stroke="none" d="M 8434,15019 L 8353,15019 8353,15100 8434,15100 8434,15019 Z M 8434,14691 L 8353,14691 8353,14772 8434,14772 8434,14691 Z"/>
         <path fill="rgb(0,0,0)" stroke="none" d="M 8700,14546 C 8648,14546 8601,14569 8572,14607 8536,14656 8518,14730 8518,14832 8518,15019 8580,15118 8700,15118 8817,15118 8881,15019 8881,14837 8881,14729 8863,14657 8826,14607 8798,14568 8752,14546 8700,14546 L 8700,14546 Z M 8700,14607 C 8774,14607 8810,14682 8810,14831 8810,14988 8774,15061 8698,15061 8625,15061 8589,14984 8589,14833 8589,14681 8625,14607 8700,14607 L 8700,14607 Z"/>
         <path fill="rgb(0,0,0)" stroke="none" d="M 8937,15266 L 9082,15266 9082,14531 8937,14531 8937,14587 9017,14587 9017,15210 8937,15210 8937,15266 Z"/>
         <path fill="none" stroke="rgb(0,0,0)" stroke-width="234" stroke-linejoin="miter" d="M 17051,14820 L 16269,14820"/>
         <path fill="rgb(0,0,0)" stroke="none" d="M 13376,15271 L 13442,15271 13442,15057 C 13476,15099 13515,15118 13567,15118 13673,15118 13743,15033 13743,14903 13743,14765 13675,14679 13567,14679 13511,14679 13467,14704 13436,14753 L 13436,14691 13376,14691 13376,15271 Z M 13556,14740 C 13627,14740 13674,14803 13674,14901 13674,14994 13627,15057 13556,15057 13487,15057 13442,14995 13442,14899 13442,14802 13487,14740 13556,14740 L 13556,14740 Z"/>
         <path fill="rgb(0,0,0)" stroke="none" d="M 14186,15062 C 14179,15063 14176,15063 14172,15063 14150,15063 14137,15052 14137,15031 L 14137,14791 C 14137,14718 14084,14679 13983,14679 13924,14679 13874,14696 13847,14727 13828,14748 13821,14771 13819,14812 L 13885,14812 C 13890,14762 13920,14739 13981,14739 14040,14739 14072,14761 14072,14800 L 14072,14817 C 14072,14845 14056,14857 14004,14863 13912,14875 13898,14877 13873,14888 13825,14907 13801,14944 13801,14997 13801,15071 13853,15118 13935,15118 13987,15118 14028,15100 14074,15058 14079,15099 14100,15118 14142,15118 14155,15118 14165,15117 14186,15111 L 14186,15062 Z M 14072,14971 C 14072,14993 14066,15006 14046,15025 14020,15049 13988,15061 13949,15061 13899,15061 13869,15037 13869,14996 13869,14953 13898,14931 13967,14921 14036,14911 14050,14908 14072,14898 L 14072,14971 Z"/>
         <path fill="rgb(0,0,0)" stroke="none" d="M 14256,14691 L 14256,15100 14322,15100 14322,14888 C 14322,14829 14337,14791 14368,14768 14389,14753 14408,14749 14454,14748 L 14454,14681 C 14442,14680 14437,14679 14428,14679 14386,14679 14354,14704 14317,14765 L 14317,14691 14256,14691 Z"/>
         <path fill="rgb(0,0,0)" stroke="none" d="M 14580,14691 L 14515,14691 14515,15100 14580,15100 14580,14691 Z M 14580,14531 L 14514,14531 14514,14613 14580,14613 14580,14531 Z"/>
         <path fill="rgb(0,0,0)" stroke="none" d="M 14835,14691 L 14768,14691 14768,14579 14703,14579 14703,14691 14647,14691 14647,14744 14703,14744 14703,15053 C 14703,15095 14731,15118 14782,15118 14797,15118 14813,15117 14835,15113 L 14835,15058 C 14826,15061 14816,15061 14803,15061 14775,15061 14768,15053 14768,15025 L 14768,14744 14835,14744 14835,14691 Z"/>
         <path fill="rgb(0,0,0)" stroke="none" d="M 15157,14691 L 15043,15010 14939,14691 14869,14691 15008,15102 14982,15167 C 14972,15196 14958,15206 14930,15206 14921,15206 14910,15205 14896,15202 L 14896,15261 C 14909,15267 14922,15271 14939,15271 14961,15271 14983,15263 15000,15251 15021,15236 15032,15219 15045,15186 L 15227,14691 15157,14691 Z"/>
         <path fill="rgb(0,0,0)" stroke="none" d="M 15696,15199 L 15227,15199 15227,15238 15696,15238 15696,15199 Z"/>
         <path fill="rgb(0,0,0)" stroke="none" d="M 15891,14679 C 15776,14679 15707,14761 15707,14899 15707,15036 15775,15118 15892,15118 16006,15118 16077,15036 16077,14902 16077,14760 16009,14679 15891,14679 L 15891,14679 Z M 15892,14739 C 15965,14739 16009,14799 16009,14901 16009,14997 15964,15058 15892,15058 15819,15058 15774,14998 15774,14899 15774,14800 15819,14739 15892,14739 L 15892,14739 Z"/>
         <path fill="none" stroke="rgb(63,110,158)" stroke-width="78" stroke-linejoin="miter" d="M 5878,13258 L 15722,13258"/>
         <path fill="none" stroke="rgb(63,110,158)" stroke-width="78" stroke-linejoin="miter" d="M 16269,13804 C 16269,13796 16269,13787 16269,13778 16262,13484 16017,13251 15722,13258"/>
         <path fill="none" stroke="rgb(63,110,158)" stroke-width="78" stroke-linejoin="miter" d="M 16269,13804 L 16269,15835"/>
         <path fill="none" stroke="rgb(63,110,158)" stroke-width="78" stroke-linejoin="miter" d="M 15722,16382 C 15731,16382 15740,16382 15748,16382 16043,16375 16276,16130 16269,15835"/>
         <path fill="none" stroke="rgb(63,110,158)" stroke-width="78" stroke-linejoin="miter" d="M 15722,16382 L 5878,16382"/>
         <path fill="none" stroke="rgb(63,110,158)" stroke-width="78" stroke-linejoin="miter" d="M 5331,15835 C 5331,15844 5331,15853 5331,15861 5338,16156 5583,16389 5878,16382"/>
         <path fill="none" stroke="rgb(63,110,158)" stroke-width="78" stroke-linejoin="miter" d="M 5331,15835 L 5331,13804"/>
         <path fill="none" stroke="rgb(63,110,158)" stroke-width="78" stroke-linejoin="miter" d="M 5878,13258 C 5869,13257 5861,13257 5852,13258 5557,13265 5324,13510 5331,13804"/>
        </g>
       </g>
      </g>
     </g>
    </g>
   </g>
  </g>
 </g>
</svg>