<?xml version="1.0" encoding="UTF-8"?>
<!DOCTYPE svg PUBLIC "-//W3C//DTD SVG 1.1//EN" "http://www.w3.org/Graphics/SVG/1.1/DTD/svg11.dtd">
<svg version="1.2" width="130.99mm" height="82.99mm" viewBox="4800 8400 13099 8299" preserveAspectRatio="xMidYMid" fill-rule="evenodd" stroke-width="28.222" stroke-linejoin="round" xmlns="http://www.w3.org/2000/svg" xmlns:ooo="http://xml.openoffice.org/svg/export" xmlns:xlink="http://www.w3.org/1999/xlink" xmlns:presentation="http://sun.com/xmlns/staroffice/presentation" xmlns:smil="http://www.w3.org/2001/SMIL20/" xmlns:anim="urn:oasis:names:tc:opendocument:xmlns:animation:1.0" xml:space="preserve">
 <defs class="ClipPathGroup">
  <clipPath id="presentation_clip_path" clipPathUnits="userSpaceOnUse">
   <rect x="4800" y="8400" width="13099" height="8299"/>
  </clipPath>
  <clipPath id="presentation_clip_path_shrink" clipPathUnits="userSpaceOnUse">
   <rect x="4813" y="8408" width="13073" height="8283"/>
  </clipPath>
 </defs>
 <defs class="TextShapeIndex">
  <g ooo:slide="id1" ooo:id-list="id3"/>
 </defs>
 <defs class="EmbeddedBulletChars">
  <g id="bullet-char-template-57356" transform="scale(0.00048828125,-0.00048828125)">
   <path d="M 580,1141 L 1163,571 580,0 -4,571 580,1141 Z"/>
  </g>
  <g id="bullet-char-template-57354" transform="scale(0.00048828125,-0.00048828125)">
   <path d="M 8,1128 L 1137,1128 1137,0 8,0 8,1128 Z"/>
  </g>
  <g id="bullet-char-template-10146" transform="scale(0.00048828125,-0.00048828125)">
   <path d="M 174,0 L 602,739 174,1481 1456,739 174,0 Z M 1358,739 L 309,1346 659,739 1358,739 Z"/>
  </g>
  <g id="bullet-char-template-10132" transform="scale(0.00048828125,-0.00048828125)">
   <path d="M 2015,739 L 1276,0 717,0 1260,543 174,543 174,936 1260,936 717,1481 1274,1481 2015,739 Z"/>
  </g>
  <g id="bullet-char-template-10007" transform="scale(0.00048828125,-0.00048828125)">
   <path d="M 0,-2 C -7,14 -16,27 -25,37 L 356,567 C 262,823 215,952 215,954 215,979 228,992 255,992 264,992 276,990 289,987 310,991 331,999 354,1012 L 381,999 492,748 772,1049 836,1024 860,1049 C 881,1039 901,1025 922,1006 886,937 835,863 770,784 769,783 710,716 594,584 L 774,223 C 774,196 753,168 711,139 L 727,119 C 717,90 699,76 672,76 641,76 570,178 457,381 L 164,-76 C 142,-110 111,-127 72,-127 30,-127 9,-110 8,-76 1,-67 -2,-52 -2,-32 -2,-23 -1,-13 0,-2 Z"/>
  </g>
  <g id="bullet-char-template-10004" transform="scale(0.00048828125,-0.00048828125)">
   <path d="M 285,-33 C 182,-33 111,30 74,156 52,228 41,333 41,471 41,549 55,616 82,672 116,743 169,778 240,778 293,778 328,747 346,684 L 369,508 C 377,444 397,411 428,410 L 1163,1116 C 1174,1127 1196,1133 1229,1133 1271,1133 1292,1118 1292,1087 L 1292,965 C 1292,929 1282,901 1262,881 L 442,47 C 390,-6 338,-33 285,-33 Z"/>
  </g>
  <g id="bullet-char-template-9679" transform="scale(0.00048828125,-0.00048828125)">
   <path d="M 813,0 C 632,0 489,54 383,161 276,268 223,411 223,592 223,773 276,916 383,1023 489,1130 632,1184 813,1184 992,1184 1136,1130 1245,1023 1353,916 1407,772 1407,592 1407,412 1353,268 1245,161 1136,54 992,0 813,0 Z"/>
  </g>
  <g id="bullet-char-template-8226" transform="scale(0.00048828125,-0.00048828125)">
   <path d="M 346,457 C 273,457 209,483 155,535 101,586 74,649 74,723 74,796 101,859 155,911 209,963 273,989 346,989 419,989 480,963 531,910 582,859 608,796 608,723 608,648 583,586 532,535 482,483 420,457 346,457 Z"/>
  </g>
  <g id="bullet-char-template-8211" transform="scale(0.00048828125,-0.00048828125)">
   <path d="M -4,459 L 1135,459 1135,606 -4,606 -4,459 Z"/>
  </g>
  <g id="bullet-char-template-61548" transform="scale(0.00048828125,-0.00048828125)">
   <path d="M 173,740 C 173,903 231,1043 346,1159 462,1274 601,1332 765,1332 928,1332 1067,1274 1183,1159 1299,1043 1357,903 1357,740 1357,577 1299,437 1183,322 1067,206 928,148 765,148 601,148 462,206 346,322 231,437 173,577 173,740 Z"/>
  </g>
 </defs>
 <defs class="TextEmbeddedBitmaps"/>
 <g class="SlideGroup">
  <g>
   <g id="container-id1">
    <g id="id1" class="Slide" clip-path="url(#presentation_clip_path)">
     <g class="Page">
      <g class="Graphic">
       <g id="id3">
        <rect class="BoundingBox" stroke="none" fill="none" x="4800" y="8400" width="13100" height="8300"/>
        <defs>
         <clipPath id="clip_path_1" clipPathUnits="userSpaceOnUse">
          <path d="M 4800,8400 L 17899,8400 17899,16699 4800,16699 4800,8400 Z"/>
         </clipPath>
        </defs>
        <g clip-path="url(#clip_path_1)"/>
        <defs>
         <clipPath id="clip_path_2" clipPathUnits="userSpaceOnUse">
          <path d="M 4800,8400 L 17899,8400 17899,16699 4800,16699 4800,8400 Z"/>
         </clipPath>
        </defs>
        <g clip-path="url(#clip_path_2)">
         <path fill="rgb(255,255,255)" stroke="none" d="M 2905,7205 L 20093,7205 20093,18462 2905,18462 2905,7205 Z"/>
        </g>
        <g clip-path="url(#clip_path_1)">
         <path fill="rgb(0,0,0)" stroke="none" d="M 7374,10212 L 16484,10212 16742,10298 16914,10384 16999,10556 17085,10814 17085,14767 16999,15024 16914,15196 16742,15282 16484,15368 7374,15368 7116,15282 6945,15196 6859,15024 6773,14767 6773,10814 6859,10556 6945,10384 7116,10298 7374,10212 Z"/>
        </g>
        <defs>
         <clipPath id="clip_path_3" clipPathUnits="userSpaceOnUse">
          <path d="M 6945,9783 L 16054,9783 16312,9869 16484,9954 16570,10126 16656,10384 16656,14337 16570,14595 16484,14767 16312,14853 16054,14939 6945,14939 6687,14853 6515,14767 6429,14595 6343,14337 6343,10384 6429,10126 6515,9954 6687,9869 6945,9783 Z"/>
         </clipPath>
        </defs>
        <g clip-path="url(#clip_path_3)"/>
        <defs>
         <clipPath id="clip_path_4" clipPathUnits="userSpaceOnUse">
          <path d="M 6945,9783 L 16054,9783 16312,9869 16484,9954 16570,10126 16656,10384 16656,14337 16570,14595 16484,14767 16312,14853 16054,14939 6945,14939 6687,14853 6515,14767 6429,14595 6343,14337 6343,10384 6429,10126 6515,9954 6687,9869 6945,9783 Z"/>
         </clipPath>
        </defs>
        <g clip-path="url(#clip_path_4)">
         <path fill="rgb(189,212,236)" stroke="none" d="M 4112,13664 L 4132,13675 8892,5346 8871,5335 4112,13664 Z"/>
         <path fill="rgb(189,212,236)" stroke="none" d="M 4112,13664 L 4288,13765 9048,5436 8871,5335 4112,13664 Z"/>
         <path fill="rgb(190,212,236)" stroke="none" d="M 4268,13753 L 4444,13854 9204,5525 9027,5424 4268,13753 Z"/>
         <path fill="rgb(190,213,236)" stroke="none" d="M 4424,13842 L 4601,13943 9360,5614 9184,5513 4424,13842 Z"/>
         <path fill="rgb(191,213,237)" stroke="none" d="M 4580,13931 L 4757,14032 9516,5703 9340,5602 4580,13931 Z"/>
         <path fill="rgb(192,214,237)" stroke="none" d="M 4736,14021 L 4913,14122 9673,5793 9496,5692 4736,14021 Z"/>
         <path fill="rgb(193,214,237)" stroke="none" d="M 4892,14110 L 5069,14211 9829,5882 9652,5781 4892,14110 Z"/>
         <path fill="rgb(193,215,237)" stroke="none" d="M 5049,14199 L 5225,14300 9985,5971 9808,5870 5049,14199 Z"/>
         <path fill="rgb(194,215,237)" stroke="none" d="M 5205,14288 L 5381,14389 10141,6060 9964,5959 5205,14288 Z"/>
         <path fill="rgb(195,216,237)" stroke="none" d="M 5361,14377 L 5538,14478 10297,6150 10121,6049 5361,14377 Z"/>
         <path fill="rgb(196,216,237)" stroke="none" d="M 5517,14467 L 5694,14568 10454,6239 10277,6138 5517,14467 Z"/>
         <path fill="rgb(197,217,238)" stroke="none" d="M 5673,14556 L 5850,14657 10610,6328 10433,6227 5673,14556 Z"/>
         <path fill="rgb(197,217,238)" stroke="none" d="M 5829,14645 L 6006,14746 10766,6417 10589,6316 5829,14645 Z"/>
         <path fill="rgb(198,218,238)" stroke="none" d="M 5986,14734 L 6162,14835 10922,6507 10745,6406 5986,14734 Z"/>
         <path fill="rgb(199,218,238)" stroke="none" d="M 6142,14824 L 6319,14925 11078,6596 10902,6495 6142,14824 Z"/>
         <path fill="rgb(200,218,238)" stroke="none" d="M 6298,14913 L 6353,14944 11113,6616 11058,6584 6298,14913 Z"/>
         <path fill="rgb(200,219,238)" stroke="none" d="M 6333,14933 L 6475,15014 11234,6685 11092,6604 6333,14933 Z"/>
         <path fill="rgb(201,219,238)" stroke="none" d="M 6454,15002 L 6631,15103 11391,6774 11214,6673 6454,15002 Z"/>
         <path fill="rgb(201,219,239)" stroke="none" d="M 6610,15091 L 6787,15192 11547,6864 11370,6763 6610,15091 Z"/>
         <path fill="rgb(202,220,239)" stroke="none" d="M 6767,15181 L 6943,15282 11703,6953 11526,6852 6767,15181 Z"/>
         <path fill="rgb(203,220,239)" stroke="none" d="M 6923,15270 L 7099,15371 11859,7042 11682,6941 6923,15270 Z"/>
         <path fill="rgb(204,221,239)" stroke="none" d="M 7079,15359 L 7256,15460 12015,7131 11839,7030 7079,15359 Z"/>
         <path fill="rgb(204,221,239)" stroke="none" d="M 7235,15448 L 7412,15549 12171,7220 11995,7119 7235,15448 Z"/>
         <path fill="rgb(205,222,239)" stroke="none" d="M 7391,15538 L 7568,15639 12328,7310 12151,7209 7391,15538 Z"/>
         <path fill="rgb(206,222,239)" stroke="none" d="M 7547,15627 L 7724,15728 12484,7399 12307,7298 7547,15627 Z"/>
         <path fill="rgb(207,223,240)" stroke="none" d="M 7704,15716 L 7880,15817 12640,7488 12463,7387 7704,15716 Z"/>
         <path fill="rgb(207,223,240)" stroke="none" d="M 7860,15805 L 8036,15906 12796,7577 12620,7476 7860,15805 Z"/>
         <path fill="rgb(208,224,240)" stroke="none" d="M 8016,15895 L 8193,15995 12952,7667 12776,7566 8016,15895 Z"/>
         <path fill="rgb(209,224,240)" stroke="none" d="M 8172,15984 L 8349,16085 13109,7756 12932,7655 8172,15984 Z"/>
         <path fill="rgb(210,225,240)" stroke="none" d="M 8328,16073 L 8505,16174 13265,7845 13088,7744 8328,16073 Z"/>
         <path fill="rgb(211,225,240)" stroke="none" d="M 8485,16162 L 8661,16263 13421,7934 13244,7833 8485,16162 Z"/>
         <path fill="rgb(211,225,241)" stroke="none" d="M 8641,16251 L 8817,16352 13577,8024 13400,7923 8641,16251 Z"/>
         <path fill="rgb(212,226,241)" stroke="none" d="M 8797,16341 L 8974,16442 13733,8113 13557,8012 8797,16341 Z"/>
         <path fill="rgb(213,226,241)" stroke="none" d="M 8953,16430 L 9130,16531 13889,8202 13713,8101 8953,16430 Z"/>
         <path fill="rgb(214,227,241)" stroke="none" d="M 9109,16519 L 9286,16620 14046,8291 13869,8190 9109,16519 Z"/>
         <path fill="rgb(214,227,241)" stroke="none" d="M 9265,16608 L 9442,16709 14202,8381 14025,8280 9265,16608 Z"/>
         <path fill="rgb(215,228,241)" stroke="none" d="M 9422,16698 L 9598,16799 14358,8470 14181,8369 9422,16698 Z"/>
         <path fill="rgb(216,228,241)" stroke="none" d="M 9578,16787 L 9754,16888 14514,8559 14337,8458 9578,16787 Z"/>
         <path fill="rgb(217,229,242)" stroke="none" d="M 9734,16876 L 9911,16977 14670,8648 14494,8547 9734,16876 Z"/>
         <path fill="rgb(218,229,242)" stroke="none" d="M 9890,16965 L 10067,17066 14827,8737 14650,8637 9890,16965 Z"/>
         <path fill="rgb(218,230,242)" stroke="none" d="M 10046,17055 L 10223,17156 14983,8827 14806,8726 10046,17055 Z"/>
         <path fill="rgb(219,230,242)" stroke="none" d="M 10202,17144 L 10379,17245 15139,8916 14962,8815 10202,17144 Z"/>
         <path fill="rgb(220,231,242)" stroke="none" d="M 10359,17233 L 10535,17334 15295,9005 15118,8904 10359,17233 Z"/>
         <path fill="rgb(221,231,242)" stroke="none" d="M 10515,17322 L 10692,17423 15451,9094 15275,8993 10515,17322 Z"/>
         <path fill="rgb(221,232,243)" stroke="none" d="M 10671,17412 L 10848,17513 15607,9184 15431,9083 10671,17412 Z"/>
         <path fill="rgb(222,232,243)" stroke="none" d="M 10827,17501 L 11004,17602 15764,9273 15587,9172 10827,17501 Z"/>
         <path fill="rgb(223,232,243)" stroke="none" d="M 10983,17590 L 11160,17691 15920,9362 15743,9261 10983,17590 Z"/>
         <path fill="rgb(224,233,243)" stroke="none" d="M 11140,17679 L 11316,17780 16076,9451 15899,9350 11140,17679 Z"/>
         <path fill="rgb(225,233,243)" stroke="none" d="M 11296,17769 L 11472,17869 16232,9541 16055,9440 11296,17769 Z"/>
         <path fill="rgb(225,234,243)" stroke="none" d="M 11452,17858 L 11629,17959 16388,9630 16212,9529 11452,17858 Z"/>
         <path fill="rgb(226,234,244)" stroke="none" d="M 11608,17947 L 11785,18048 16544,9719 16368,9618 11608,17947 Z"/>
         <path fill="rgb(227,235,244)" stroke="none" d="M 11764,18036 L 11906,18117 16666,9789 16524,9707 11764,18036 Z"/>
         <path fill="rgb(228,235,244)" stroke="none" d="M 11886,18106 L 11941,18137 16701,9808 16645,9777 11886,18106 Z"/>
         <path fill="rgb(228,235,244)" stroke="none" d="M 11920,18125 L 12097,18226 16857,9898 16680,9797 11920,18125 Z"/>
         <path fill="rgb(228,236,244)" stroke="none" d="M 12077,18215 L 12253,18316 17013,9987 16836,9886 12077,18215 Z"/>
         <path fill="rgb(229,236,244)" stroke="none" d="M 12233,18304 L 12409,18405 17169,10076 16992,9975 12233,18304 Z"/>
         <path fill="rgb(230,237,244)" stroke="none" d="M 12389,18393 L 12566,18494 17325,10165 17149,10064 12389,18393 Z"/>
         <path fill="rgb(231,237,244)" stroke="none" d="M 12545,18482 L 12722,18583 17482,10255 17305,10154 12545,18482 Z"/>
         <path fill="rgb(232,238,245)" stroke="none" d="M 12701,18572 L 12878,18673 17638,10344 17461,10243 12701,18572 Z"/>
         <path fill="rgb(232,238,245)" stroke="none" d="M 12857,18661 L 13034,18762 17794,10433 17617,10332 12857,18661 Z"/>
         <path fill="rgb(233,239,245)" stroke="none" d="M 13014,18750 L 13190,18851 17950,10522 17773,10421 13014,18750 Z"/>
         <path fill="rgb(234,239,245)" stroke="none" d="M 13170,18839 L 13347,18940 18106,10611 17930,10511 13170,18839 Z"/>
         <path fill="rgb(235,239,245)" stroke="none" d="M 13326,18929 L 13503,19030 18262,10701 18086,10600 13326,18929 Z"/>
         <path fill="rgb(235,240,245)" stroke="none" d="M 13482,19018 L 13659,19119 18419,10790 18242,10689 13482,19018 Z"/>
         <path fill="rgb(236,240,246)" stroke="none" d="M 13638,19107 L 13815,19208 18575,10879 18398,10778 13638,19107 Z"/>
         <path fill="rgb(237,241,246)" stroke="none" d="M 13795,19196 L 13971,19297 18731,10968 18554,10867 13795,19196 Z"/>
         <path fill="rgb(238,241,246)" stroke="none" d="M 13951,19286 L 14127,19387 18887,11058 18710,10957 13951,19286 Z"/>
         <path fill="rgb(239,242,246)" stroke="none" d="M 14107,19375 L 14127,19387 18887,11058 18867,11046 14107,19375 Z"/>
        </g>
        <g clip-path="url(#clip_path_3)"/>
        <g clip-path="url(#clip_path_1)">
         <path fill="rgb(0,0,0)" stroke="none" d="M 8389,8857 L 8389,9397 8476,9397 8476,9117 C 8476,9039 8495,8989 8536,8959 8563,8940 8589,8933 8649,8932 L 8649,8845 C 8635,8843 8627,8841 8616,8841 8560,8841 8518,8875 8469,8955 L 8469,8857 8389,8857 Z"/>
         <path fill="rgb(0,0,0)" stroke="none" d="M 8942,8841 C 8790,8841 8699,8950 8699,9131 8699,9313 8789,9421 8943,9421 9094,9421 9187,9313 9187,9135 9187,8949 9098,8841 8942,8841 L 8942,8841 Z M 8943,8921 C 9040,8921 9098,9000 9098,9134 9098,9261 9038,9342 8943,9342 8847,9342 8788,9262 8788,9131 8788,9001 8847,8921 8943,8921 L 8943,8921 Z"/>
         <path fill="rgb(0,0,0)" stroke="none" d="M 9497,8857 L 9408,8857 9408,8709 9322,8709 9322,8857 9249,8857 9249,8927 9322,8927 9322,9335 C 9322,9390 9360,9421 9426,9421 9447,9421 9468,9419 9497,9414 L 9497,9342 C 9485,9345 9472,9346 9456,9346 9418,9346 9408,9335 9408,9297 L 9408,8927 9497,8927 9497,8857 Z"/>
         <path fill="rgb(0,0,0)" stroke="none" d="M 10073,9347 C 10064,9349 10060,9349 10055,9349 10025,9349 10008,9333 10008,9307 L 10008,8989 C 10008,8893 9938,8841 9805,8841 9727,8841 9662,8864 9626,8904 9601,8932 9591,8963 9588,9017 L 9675,9017 C 9682,8951 9721,8921 9802,8921 9879,8921 9922,8950 9922,9001 L 9922,9024 C 9922,9060 9901,9076 9833,9084 9711,9099 9692,9103 9659,9117 9596,9143 9564,9191 9564,9261 9564,9359 9633,9421 9742,9421 9810,9421 9865,9397 9926,9342 9932,9396 9959,9421 10014,9421 10032,9421 10046,9419 10073,9412 L 10073,9347 Z M 9922,9227 C 9922,9256 9914,9274 9889,9297 9854,9329 9811,9346 9761,9346 9694,9346 9655,9314 9655,9259 9655,9203 9692,9174 9784,9160 9875,9148 9894,9144 9922,9130 L 9922,9227 Z"/>
         <path fill="rgb(0,0,0)" stroke="none" d="M 10357,8857 L 10268,8857 10268,8709 10182,8709 10182,8857 10109,8857 10109,8927 10182,8927 10182,9335 C 10182,9390 10220,9421 10287,9421 10307,9421 10328,9419 10357,9414 L 10357,9342 C 10345,9345 10332,9346 10316,9346 10278,9346 10268,9335 10268,9297 L 10268,8927 10357,8927 10357,8857 Z"/>
         <path fill="rgb(0,0,0)" stroke="none" d="M 10910,9156 C 10910,9073 10904,9024 10889,8984 10854,8895 10771,8841 10670,8841 10520,8841 10423,8957 10423,9134 10423,9312 10517,9421 10668,9421 10792,9421 10877,9351 10899,9233 L 10813,9233 C 10789,9304 10740,9342 10671,9342 10616,9342 10570,9317 10541,9271 10520,9240 10514,9210 10512,9156 L 10910,9156 Z M 10515,9086 C 10522,8986 10582,8921 10669,8921 10754,8921 10819,8991 10819,9080 10819,9082 10819,9084 10818,9086 L 10515,9086 Z"/>
         <path fill="rgb(0,0,0)" stroke="none" d="M 11551,9527 L 10932,9527 10932,9579 11551,9579 11551,9527 Z"/>
         <path fill="rgb(0,0,0)" stroke="none" d="M 11599,8857 L 11599,9397 11686,9397 11686,9117 C 11686,9039 11706,8989 11747,8959 11774,8940 11799,8933 11859,8932 L 11859,8845 C 11845,8843 11838,8841 11826,8841 11770,8841 11728,8875 11679,8955 L 11679,8857 11599,8857 Z"/>
         <path fill="rgb(0,0,0)" stroke="none" d="M 12026,8857 L 11941,8857 11941,9397 12026,9397 12026,8857 Z M 12026,8646 L 11940,8646 11940,8754 12026,8754 12026,8646 Z"/>
         <path fill="rgb(0,0,0)" stroke="none" d="M 12525,8857 L 12525,8935 C 12482,8871 12429,8841 12361,8841 12223,8841 12131,8961 12131,9136 12131,9225 12154,9297 12198,9349 12239,9394 12297,9421 12353,9421 12421,9421 12469,9392 12517,9324 L 12517,9352 C 12517,9425 12508,9469 12486,9500 12463,9531 12419,9550 12367,9550 12327,9550 12292,9540 12269,9521 12249,9506 12241,9491 12236,9459 L 12148,9459 C 12157,9562 12237,9622 12364,9622 12444,9622 12513,9596 12548,9553 12589,9503 12605,9436 12605,9309 L 12605,8857 12525,8857 Z M 12370,8921 C 12462,8921 12517,8999 12517,9134 12517,9263 12461,9342 12371,9342 12277,9342 12220,9262 12220,9131 12220,9001 12278,8921 12370,8921 L 12370,8921 Z"/>
         <path fill="rgb(0,0,0)" stroke="none" d="M 12746,8646 L 12746,9397 12832,9397 12832,9099 C 12832,8989 12890,8917 12978,8917 13006,8917 13034,8926 13055,8942 13079,8959 13090,8985 13090,9023 L 13090,9397 13175,9397 13175,8989 C 13175,8898 13110,8841 13005,8841 12929,8841 12882,8865 12832,8931 L 12832,8646 12746,8646 Z"/>
         <path fill="rgb(0,0,0)" stroke="none" d="M 13509,8857 L 13421,8857 13421,8709 13335,8709 13335,8857 13262,8857 13262,8927 13335,8927 13335,9335 C 13335,9390 13372,9421 13439,9421 13460,9421 13480,9419 13509,9414 L 13509,9342 C 13498,9345 13485,9346 13468,9346 13431,9346 13421,9335 13421,9297 L 13421,8927 13509,8927 13509,8857 Z"/>
         <path fill="rgb(0,0,0)" stroke="none" d="M 14130,9527 L 13511,9527 13511,9579 14130,9579 14130,9527 Z"/>
         <path fill="rgb(0,0,0)" stroke="none" d="M 14391,8666 C 14323,8666 14261,8696 14223,8747 14176,8811 14152,8909 14152,9044 14152,9290 14234,9421 14391,9421 14546,9421 14630,9290 14630,9050 14630,8908 14608,8813 14559,8747 14521,8695 14460,8666 14391,8666 L 14391,8666 Z M 14391,8747 C 14489,8747 14538,8846 14538,9041 14538,9249 14490,9346 14389,9346 14293,9346 14245,9245 14245,9045 14245,8845 14293,8747 14391,8747 L 14391,8747 Z"/>
         <path fill="rgb(63,110,158)" stroke="none" d="M 7558,15654 L 7558,16195 7645,16195 7645,15914 C 7645,15837 7664,15786 7705,15756 7732,15737 7758,15731 7818,15730 L 7818,15642 C 7803,15640 7796,15639 7785,15639 7729,15639 7687,15672 7637,15752 L 7637,15654 7558,15654 Z"/>
         <path fill="rgb(63,110,158)" stroke="none" d="M 8111,15639 C 7959,15639 7867,15747 7867,15929 7867,16110 7958,16218 8112,16218 8263,16218 8356,16110 8356,15933 8356,15746 8267,15639 8111,15639 L 8111,15639 Z M 8112,15718 C 8208,15718 8267,15797 8267,15932 8267,16058 8206,16139 8112,16139 8016,16139 7957,16059 7957,15929 7957,15798 8016,15718 8112,15718 L 8112,15718 Z"/>
         <path fill="rgb(63,110,158)" stroke="none" d="M 8666,15654 L 8577,15654 8577,15506 8491,15506 8491,15654 8418,15654 8418,15724 8491,15724 8491,16133 C 8491,16187 8528,16218 8595,16218 8616,16218 8636,16216 8666,16211 L 8666,16139 C 8654,16142 8641,16143 8624,16143 8587,16143 8577,16133 8577,16094 L 8577,15724 8666,15724 8666,15654 Z"/>
         <path fill="rgb(63,110,158)" stroke="none" d="M 9242,16144 C 9233,16146 9228,16146 9224,16146 9193,16146 9177,16131 9177,16104 L 9177,15786 C 9177,15690 9107,15639 8974,15639 8896,15639 8831,15661 8794,15701 8770,15730 8759,15761 8757,15814 L 8844,15814 C 8851,15748 8890,15718 8971,15718 9048,15718 9091,15747 9091,15798 L 9091,15821 C 9091,15857 9069,15873 9002,15881 8880,15897 8861,15901 8828,15914 8765,15940 8733,15988 8733,16058 8733,16156 8802,16218 8911,16218 8979,16218 9034,16195 9095,16139 9100,16194 9128,16218 9183,16218 9201,16218 9214,16216 9242,16209 L 9242,16144 Z M 9091,16025 C 9091,16053 9083,16071 9057,16094 9022,16126 8980,16143 8929,16143 8863,16143 8823,16111 8823,16057 8823,16000 8861,15971 8953,15957 9044,15945 9063,15941 9091,15928 L 9091,16025 Z"/>
         <path fill="rgb(63,110,158)" stroke="none" d="M 9526,15654 L 9437,15654 9437,15506 9351,15506 9351,15654 9278,15654 9278,15724 9351,15724 9351,16133 C 9351,16187 9389,16218 9455,16218 9476,16218 9497,16216 9526,16211 L 9526,16139 C 9514,16142 9501,16143 9484,16143 9447,16143 9437,16133 9437,16094 L 9437,15724 9526,15724 9526,15654 Z"/>
         <path fill="rgb(63,110,158)" stroke="none" d="M 10079,15953 C 10079,15871 10073,15821 10057,15781 10023,15692 9940,15639 9839,15639 9688,15639 9591,15754 9591,15932 9591,16109 9685,16218 9837,16218 9961,16218 10046,16148 10068,16030 L 9981,16030 C 9958,16102 9909,16139 9840,16139 9785,16139 9739,16114 9710,16069 9689,16038 9682,16007 9681,15953 L 10079,15953 Z M 9683,15883 C 9691,15783 9751,15718 9838,15718 9923,15718 9988,15788 9988,15877 9988,15879 9988,15881 9987,15883 L 9683,15883 Z"/>
         <path fill="rgb(63,110,158)" stroke="none" d="M 10720,16324 L 10101,16324 10101,16376 10720,16376 10720,16324 Z"/>
         <path fill="rgb(63,110,158)" stroke="none" d="M 10768,15654 L 10768,16195 10855,16195 10855,15914 C 10855,15837 10874,15786 10915,15756 10943,15737 10968,15731 11028,15730 L 11028,15642 C 11014,15640 11007,15639 10995,15639 10939,15639 10897,15672 10848,15752 L 10848,15654 10768,15654 Z"/>
         <path fill="rgb(63,110,158)" stroke="none" d="M 11195,15654 L 11110,15654 11110,16195 11195,16195 11195,15654 Z M 11195,15443 L 11109,15443 11109,15551 11195,15551 11195,15443 Z"/>
         <path fill="rgb(63,110,158)" stroke="none" d="M 11694,15654 L 11694,15732 C 11651,15669 11598,15639 11529,15639 11392,15639 11299,15758 11299,15933 11299,16022 11323,16094 11367,16146 11407,16192 11466,16218 11522,16218 11590,16218 11638,16189 11686,16121 L 11686,16149 C 11686,16222 11677,16267 11655,16297 11632,16329 11588,16347 11535,16347 11496,16347 11461,16337 11437,16318 11418,16303 11410,16289 11405,16257 L 11317,16257 C 11326,16359 11405,16419 11532,16419 11613,16419 11682,16394 11717,16350 11758,16301 11774,16233 11774,16106 L 11774,15654 11694,15654 Z M 11539,15718 C 11631,15718 11686,15796 11686,15932 11686,16060 11630,16139 11540,16139 11446,16139 11389,16059 11389,15929 11389,15798 11447,15718 11539,15718 L 11539,15718 Z"/>
         <path fill="rgb(63,110,158)" stroke="none" d="M 11915,15443 L 11915,16195 12001,16195 12001,15897 C 12001,15786 12058,15714 12147,15714 12175,15714 12203,15723 12224,15739 12248,15756 12258,15782 12258,15820 L 12258,16195 12344,16195 12344,15786 C 12344,15696 12279,15639 12174,15639 12098,15639 12051,15662 12001,15729 L 12001,15443 11915,15443 Z"/>
         <path fill="rgb(63,110,158)" stroke="none" d="M 12678,15654 L 12590,15654 12590,15506 12504,15506 12504,15654 12431,15654 12431,15724 12504,15724 12504,16133 C 12504,16187 12541,16218 12608,16218 12629,16218 12649,16216 12678,16211 L 12678,16139 C 12667,16142 12654,16143 12637,16143 12600,16143 12590,16133 12590,16094 L 12590,15724 12678,15724 12678,15654 Z"/>
         <path fill="rgb(63,110,158)" stroke="none" d="M 13299,16324 L 12680,16324 12680,16376 13299,16376 13299,16324 Z"/>
         <path fill="rgb(63,110,158)" stroke="none" d="M 13570,16195 L 13778,15654 13681,15654 13528,16092 13383,15654 13286,15654 13476,16195 13570,16195 Z"/>
         <path fill="rgb(63,110,158)" stroke="none" d="M 14059,15674 L 14059,16195 14150,16195 14150,15464 14090,15464 C 14058,15576 14037,15592 13897,15609 L 13897,15674 14059,15674 Z"/>
         <path fill="rgb(63,110,158)" stroke="none" d="M 14962,16324 L 14342,16324 14342,16376 14962,16376 14962,16324 Z"/>
         <path fill="rgb(63,110,158)" stroke="none" d="M 15222,15464 C 15154,15464 15092,15493 15054,15544 15007,15608 14983,15706 14983,15841 14983,16088 15066,16218 15222,16218 15377,16218 15461,16088 15461,15847 15461,15705 15439,15610 15391,15544 15352,15492 15291,15464 15222,15464 L 15222,15464 Z M 15222,15544 C 15320,15544 15369,15643 15369,15839 15369,16046 15321,16143 15220,16143 15124,16143 15076,16042 15076,15842 15076,15642 15124,15544 15222,15544 L 15222,15544 Z"/>
         <path fill="none" stroke="rgb(0,0,0)" stroke-width="430" stroke-linejoin="miter" d="M 5484,11501 L 6343,11501"/>
         <path fill="rgb(0,0,0)" stroke="none" d="M 6922,11621 L 6987,11810 7076,11810 6856,11183 6753,11183 6529,11810 6615,11810 6681,11621 6922,11621 Z M 6900,11555 L 6700,11555 6804,11269 6900,11555 Z"/>
         <path fill="rgb(0,0,0)" stroke="none" d="M 7585,11918 L 7069,11918 7069,11961 7585,11961 7585,11918 Z"/>
         <path fill="rgb(0,0,0)" stroke="none" d="M 7695,11359 L 7624,11359 7624,11810 7695,11810 7695,11359 Z M 7695,11183 L 7623,11183 7623,11274 7695,11274 7695,11183 Z"/>
         <path fill="rgb(0,0,0)" stroke="none" d="M 7972,11183 L 7812,11183 7812,11992 7972,11992 7972,11930 7883,11930 7883,11245 7972,11245 7972,11183 Z"/>
         <path fill="rgb(0,0,0)" stroke="none" d="M 8185,11530 L 8195,11530 8227,11530 C 8310,11530 8353,11568 8353,11641 8353,11717 8306,11762 8227,11762 8144,11762 8104,11721 8099,11633 L 8023,11633 C 8027,11682 8035,11713 8050,11741 8081,11800 8141,11830 8224,11830 8350,11830 8431,11755 8431,11640 8431,11562 8401,11519 8327,11494 8384,11472 8412,11429 8412,11368 8412,11263 8343,11200 8227,11200 8104,11200 8039,11268 8036,11397 L 8111,11397 C 8112,11360 8116,11340 8125,11321 8142,11287 8180,11267 8228,11267 8294,11267 8335,11306 8335,11370 8335,11414 8320,11439 8286,11453 8265,11462 8239,11465 8185,11466 L 8185,11530 Z"/>
         <path fill="rgb(0,0,0)" stroke="none" d="M 8657,11721 L 8568,11721 8568,11810 8657,11810 8657,11721 Z M 8657,11359 L 8568,11359 8568,11449 8657,11449 8657,11359 Z"/>
         <path fill="rgb(0,0,0)" stroke="none" d="M 8949,11200 C 8892,11200 8840,11226 8809,11268 8769,11321 8749,11402 8749,11515 8749,11721 8818,11830 8949,11830 9078,11830 9148,11721 9148,11520 9148,11401 9129,11323 9089,11268 9057,11225 9006,11200 8949,11200 L 8949,11200 Z M 8949,11268 C 9030,11268 9071,11350 9071,11513 9071,11686 9031,11767 8947,11767 8867,11767 8827,11682 8827,11516 8827,11349 8867,11268 8949,11268 L 8949,11268 Z"/>
         <path fill="rgb(0,0,0)" stroke="none" d="M 9210,11992 L 9370,11992 9370,11183 9210,11183 9210,11245 9299,11245 9299,11930 9210,11930 9210,11992 Z"/>
         <path fill="none" stroke="rgb(0,0,0)" stroke-width="258" stroke-linejoin="miter" d="M 5484,13220 L 6343,13220"/>
         <path fill="rgb(0,0,0)" stroke="none" d="M 7084,13096 C 7059,12959 6980,12891 6842,12891 6758,12891 6690,12918 6644,12970 6587,13032 6556,13121 6556,13222 6556,13325 6588,13414 6647,13475 6696,13525 6757,13548 6839,13548 6992,13548 7078,13465 7097,13300 L 7014,13300 C 7008,13343 6999,13372 6986,13397 6960,13449 6907,13478 6840,13478 6715,13478 6636,13378 6636,13222 6636,13061 6712,12962 6833,12962 6884,12962 6931,12978 6957,13002 6980,13023 6993,13050 7002,13096 L 7084,13096 Z"/>
         <path fill="rgb(0,0,0)" stroke="none" d="M 7632,13637 L 7116,13637 7116,13680 7632,13680 7632,13637 Z"/>
         <path fill="rgb(0,0,0)" stroke="none" d="M 7742,13078 L 7671,13078 7671,13528 7742,13528 7742,13078 Z M 7742,12902 L 7670,12902 7670,12992 7742,12992 7742,12902 Z"/>
         <path fill="none" stroke="rgb(0,0,0)" stroke-width="430" stroke-linejoin="miter" d="M 17515,11501 L 16656,11501"/>
         <path fill="rgb(0,0,0)" stroke="none" d="M 13615,11564 L 13851,11183 13755,11183 13577,11489 13393,11183 13294,11183 13535,11564 13535,11810 13615,11810 13615,11564 Z"/>
         <path fill="rgb(0,0,0)" stroke="none" d="M 14352,11918 L 13837,11918 13837,11961 14352,11961 14352,11918 Z"/>
         <path fill="rgb(0,0,0)" stroke="none" d="M 14568,11347 C 14441,11347 14365,11437 14365,11588 14365,11740 14440,11830 14568,11830 14695,11830 14772,11740 14772,11591 14772,11436 14697,11347 14568,11347 L 14568,11347 Z M 14568,11413 C 14649,11413 14697,11479 14697,11591 14697,11696 14648,11763 14568,11763 14488,11763 14439,11697 14439,11588 14439,11480 14488,11413 14568,11413 L 14568,11413 Z"/>
         <path fill="rgb(0,0,0)" stroke="none" d="M 15027,11183 L 14867,11183 14867,11992 15027,11992 15027,11930 14938,11930 14938,11245 15027,11245 15027,11183 Z"/>
         <path fill="rgb(0,0,0)" stroke="none" d="M 15240,11530 L 15250,11530 15281,11530 C 15365,11530 15408,11568 15408,11641 15408,11717 15360,11762 15281,11762 15199,11762 15159,11721 15154,11633 L 15078,11633 C 15081,11682 15090,11713 15105,11741 15136,11800 15196,11830 15279,11830 15404,11830 15485,11755 15485,11640 15485,11562 15455,11519 15382,11494 15439,11472 15467,11429 15467,11368 15467,11263 15398,11200 15281,11200 15159,11200 15093,11268 15091,11397 L 15166,11397 C 15167,11360 15170,11340 15180,11321 15197,11287 15235,11267 15282,11267 15349,11267 15390,11306 15390,11370 15390,11414 15374,11439 15341,11453 15320,11462 15294,11465 15240,11466 L 15240,11530 Z"/>
         <path fill="rgb(0,0,0)" stroke="none" d="M 15712,11721 L 15623,11721 15623,11810 15712,11810 15712,11721 Z M 15712,11359 L 15623,11359 15623,11449 15712,11449 15712,11359 Z"/>
         <path fill="rgb(0,0,0)" stroke="none" d="M 16003,11200 C 15947,11200 15895,11226 15863,11268 15824,11321 15804,11402 15804,11515 15804,11721 15873,11830 16003,11830 16132,11830 16203,11721 16203,11520 16203,11401 16184,11323 16143,11268 16112,11225 16061,11200 16003,11200 L 16003,11200 Z M 16003,11268 C 16085,11268 16126,11350 16126,11513 16126,11686 16086,11767 16002,11767 15922,11767 15881,11682 15881,11516 15881,11349 15922,11268 16003,11268 L 16003,11268 Z"/>
         <path fill="rgb(0,0,0)" stroke="none" d="M 16265,11992 L 16425,11992 16425,11183 16265,11183 16265,11245 16353,11245 16353,11930 16265,11930 16265,11992 Z"/>
         <path fill="none" stroke="rgb(0,0,0)" stroke-width="258" stroke-linejoin="miter" d="M 17515,13220 L 16656,13220"/>
         <path fill="rgb(0,0,0)" stroke="none" d="M 15476,13096 C 15452,12959 15373,12891 15235,12891 15151,12891 15083,12918 15037,12970 14980,13032 14949,13121 14949,13222 14949,13325 14981,13414 15040,13475 15088,13525 15150,13548 15232,13548 15385,13548 15471,13465 15489,13300 L 15407,13300 C 15400,13343 15392,13372 15379,13397 15353,13449 15300,13478 15233,13478 15108,13478 15029,13378 15029,13222 15029,13061 15104,12962 15225,12962 15276,12962 15324,12978 15349,13002 15373,13023 15385,13050 15395,13096 L 15476,13096 Z"/>
         <path fill="rgb(0,0,0)" stroke="none" d="M 16025,13637 L 15509,13637 15509,13680 16025,13680 16025,13637 Z"/>
         <path fill="rgb(0,0,0)" stroke="none" d="M 16240,13065 C 16114,13065 16037,13155 16037,13307 16037,13458 16113,13548 16240,13548 16367,13548 16444,13458 16444,13310 16444,13155 16369,13065 16240,13065 L 16240,13065 Z M 16240,13131 C 16321,13131 16369,13198 16369,13310 16369,13415 16320,13482 16240,13482 16161,13482 16112,13416 16112,13307 16112,13199 16161,13131 16240,13131 L 16240,13131 Z"/>
         <path fill="none" stroke="rgb(63,110,158)" stroke-width="86" stroke-linejoin="miter" d="M 6945,9783 L 16054,9783"/>
         <path fill="none" stroke="rgb(63,110,158)" stroke-width="86" stroke-linejoin="miter" d="M 16656,10384 C 16656,10375 16656,10365 16656,10356 16648,10031 16378,9775 16054,9783"/>
         <path fill="none" stroke="rgb(63,110,158)" stroke-width="86" stroke-linejoin="miter" d="M 16656,10384 L 16656,14337"/>
         <path fill="none" stroke="rgb(63,110,158)" stroke-width="86" stroke-linejoin="miter" d="M 16054,14939 C 16064,14939 16073,14939 16083,14939 16407,14931 16664,14661 16656,14337"/>
         <path fill="none" stroke="rgb(63,110,158)" stroke-width="86" stroke-linejoin="miter" d="M 16054,14939 L 6945,14939"/>
         <path fill="none" stroke="rgb(63,110,158)" stroke-width="86" stroke-linejoin="miter" d="M 6343,14337 C 6343,14347 6343,14356 6343,14366 6351,14690 6620,14946 6945,14939"/>
         <path fill="none" stroke="rgb(63,110,158)" stroke-width="86" stroke-linejoin="miter" d="M 6343,14337 L 6343,10384"/>
         <path fill="none" stroke="rgb(63,110,158)" stroke-width="86" stroke-linejoin="miter" d="M 6945,9783 C 6935,9782 6925,9782 6916,9783 6592,9791 6335,10060 6343,10384"/>
        </g>
       </g>
      </g>
     </g>
    </g>
   </g>
  </g>
 </g>
</svg>