<?xml version="1.0" encoding="UTF-8"?>
<!DOCTYPE svg PUBLIC "-//W3C//DTD SVG 1.1//EN" "http://www.w3.org/Graphics/SVG/1.1/DTD/svg11.dtd">
<svg version="1.2" width="115.99mm" height="70.99mm" viewBox="5000 13300 11599 7099" preserveAspectRatio="xMidYMid" fill-rule="evenodd" stroke-width="28.222" stroke-linejoin="round" xmlns="http://www.w3.org/2000/svg" xmlns:ooo="http://xml.openoffice.org/svg/export" xmlns:xlink="http://www.w3.org/1999/xlink" xmlns:presentation="http://sun.com/xmlns/staroffice/presentation" xmlns:smil="http://www.w3.org/2001/SMIL20/" xmlns:anim="urn:oasis:names:tc:opendocument:xmlns:animation:1.0" xml:space="preserve">
 <defs class="ClipPathGroup">
  <clipPath id="presentation_clip_path" clipPathUnits="userSpaceOnUse">
   <rect x="5000" y="13300" width="11599" height="7099"/>
  </clipPath>
  <clipPath id="presentation_clip_path_shrink" clipPathUnits="userSpaceOnUse">
   <rect x="5011" y="13307" width="11576" height="7085"/>
  </clipPath>
 </defs>
 <defs class="TextShapeIndex">
  <g ooo:slide="id1" ooo:id-list="id3"/>
 </defs>
 <defs class="EmbeddedBulletChars">
  <g id="bullet-char-template-57356" transform="scale(0.00048828125,-0.00048828125)">
   <path d="M 580,1141 L 1163,571 580,0 -4,571 580,1141 Z"/>
  </g>
  <g id="bullet-char-template-57354" transform="scale(0.00048828125,-0.00048828125)">
   <path d="M 8,1128 L 1137,1128 1137,0 8,0 8,1128 Z"/>
  </g>
  <g id="bullet-char-template-10146" transform="scale(0.00048828125,-0.00048828125)">
   <path d="M 174,0 L 602,739 174,1481 1456,739 174,0 Z M 1358,739 L 309,1346 659,739 1358,739 Z"/>
  </g>
  <g id="bullet-char-template-10132" transform="scale(0.00048828125,-0.00048828125)">
   <path d="M 2015,739 L 1276,0 717,0 1260,543 174,543 174,936 1260,936 717,1481 1274,1481 2015,739 Z"/>
  </g>
  <g id="bullet-char-template-10007" transform="scale(0.00048828125,-0.00048828125)">
   <path d="M 0,-2 C -7,14 -16,27 -25,37 L 356,567 C 262,823 215,952 215,954 215,979 228,992 255,992 264,992 276,990 289,987 310,991 331,999 354,1012 L 381,999 492,748 772,1049 836,1024 860,1049 C 881,1039 901,1025 922,1006 886,937 835,863 770,784 769,783 710,716 594,584 L 774,223 C 774,196 753,168 711,139 L 727,119 C 717,90 699,76 672,76 641,76 570,178 457,381 L 164,-76 C 142,-110 111,-127 72,-127 30,-127 9,-110 8,-76 1,-67 -2,-52 -2,-32 -2,-23 -1,-13 0,-2 Z"/>
  </g>
  <g id="bullet-char-template-10004" transform="scale(0.00048828125,-0.00048828125)">
   <path d="M 285,-33 C 182,-33 111,30 74,156 52,228 41,333 41,471 41,549 55,616 82,672 116,743 169,778 240,778 293,778 328,747 346,684 L 369,508 C 377,444 397,411 428,410 L 1163,1116 C 1174,1127 1196,1133 1229,1133 1271,1133 1292,1118 1292,1087 L 1292,965 C 1292,929 1282,901 1262,881 L 442,47 C 390,-6 338,-33 285,-33 Z"/>
  </g>
  <g id="bullet-char-template-9679" transform="scale(0.00048828125,-0.00048828125)">
   <path d="M 813,0 C 632,0 489,54 383,161 276,268 223,411 223,592 223,773 276,916 383,1023 489,1130 632,1184 813,1184 992,1184 1136,1130 1245,1023 1353,916 1407,772 1407,592 1407,412 1353,268 1245,161 1136,54 992,0 813,0 Z"/>
  </g>
  <g id="bullet-char-template-8226" transform="scale(0.00048828125,-0.00048828125)">
   <path d="M 346,457 C 273,457 209,483 155,535 101,586 74,649 74,723 74,796 101,859 155,911 209,963 273,989 346,989 419,989 480,963 531,910 582,859 608,796 608,723 608,648 583,586 532,535 482,483 420,457 346,457 Z"/>
  </g>
  <g id="bullet-char-template-8211" transform="scale(0.00048828125,-0.00048828125)">
   <path d="M -4,459 L 1135,459 1135,606 -4,606 -4,459 Z"/>
  </g>
  <g id="bullet-char-template-61548" transform="scale(0.00048828125,-0.00048828125)">
   <path d="M 173,740 C 173,903 231,1043 346,1159 462,1274 601,1332 765,1332 928,1332 1067,1274 1183,1159 1299,1043 1357,903 1357,740 1357,577 1299,437 1183,322 1067,206 928,148 765,148 601,148 462,206 346,322 231,437 173,577 173,740 Z"/>
  </g>
 </defs>
 <defs class="TextEmbeddedBitmaps"/>
 <g class="SlideGroup">
  <g>
   <g id="container-id1">
    <g id="id1" class="Slide" clip-path="url(#presentation_clip_path)">
     <g class="Page">
      <g class="Graphic">
       <g id="id3">
        <rect class="BoundingBox" stroke="none" fill="none" x="5000" y="13300" width="11600" height="7100"/>
        <defs>
         <clipPath id="clip_path_1" clipPathUnits="userSpaceOnUse">
          <path d="M 5000,13300 L 16599,13300 16599,20399 5000,20399 5000,13300 Z"/>
         </clipPath>
        </defs>
        <g clip-path="url(#clip_path_1)"/>
        <defs>
         <clipPath id="clip_path_2" clipPathUnits="userSpaceOnUse">
          <path d="M 5000,13300 L 16599,13300 16599,20399 5000,20399 5000,13300 Z"/>
         </clipPath>
        </defs>
        <g clip-path="url(#clip_path_2)">
         <path fill="rgb(255,255,255)" stroke="none" d="M 2205,12456 L 19394,12456 19394,21836 2205,21836 2205,12456 Z"/>
        </g>
        <g clip-path="url(#clip_path_1)">
         <path fill="rgb(0,0,0)" stroke="none" d="M 7362,14962 L 14953,14962 15168,15034 15311,15105 15383,15248 15455,15463 15455,18757 15383,18972 15311,19115 15168,19187 14953,19258 7362,19258 7147,19187 7004,19115 6932,18972 6861,18757 6861,15463 6932,15248 7004,15105 7147,15034 7362,14962 Z"/>
        </g>
        <defs>
         <clipPath id="clip_path_3" clipPathUnits="userSpaceOnUse">
          <path d="M 7004,14604 L 14595,14604 14810,14675 14953,14747 15025,14890 15097,15105 15097,18399 15025,18614 14953,18757 14810,18829 14595,18900 7004,18900 6789,18829 6646,18757 6574,18614 6502,18399 6502,15105 6574,14890 6646,14747 6789,14675 7004,14604 Z"/>
         </clipPath>
        </defs>
        <g clip-path="url(#clip_path_3)"/>
        <defs>
         <clipPath id="clip_path_4" clipPathUnits="userSpaceOnUse">
          <path d="M 7004,14604 L 14595,14604 14810,14675 14953,14747 15025,14890 15097,15105 15097,18399 15025,18614 14953,18757 14810,18829 14595,18900 7004,18900 6789,18829 6646,18757 6574,18614 6502,18399 6502,15105 6574,14890 6646,14747 6789,14675 7004,14604 Z"/>
         </clipPath>
        </defs>
        <g clip-path="url(#clip_path_4)">
         <path fill="rgb(189,212,236)" stroke="none" d="M 4641,17837 L 4662,17848 8628,10908 8608,10896 4641,17837 Z"/>
         <path fill="rgb(189,212,236)" stroke="none" d="M 4641,17837 L 4792,17923 8758,10983 8608,10896 4641,17837 Z"/>
         <path fill="rgb(190,212,236)" stroke="none" d="M 4771,17911 L 4922,17997 8889,11057 8738,10971 4771,17911 Z"/>
         <path fill="rgb(190,213,236)" stroke="none" d="M 4901,17985 L 5052,18072 9019,11131 8868,11045 4901,17985 Z"/>
         <path fill="rgb(191,213,237)" stroke="none" d="M 5032,18060 L 5182,18146 9149,11206 8998,11120 5032,18060 Z"/>
         <path fill="rgb(192,214,237)" stroke="none" d="M 5162,18134 L 5312,18220 9279,11280 9128,11194 5162,18134 Z"/>
         <path fill="rgb(193,214,237)" stroke="none" d="M 5292,18209 L 5443,18295 9409,11354 9258,11268 5292,18209 Z"/>
         <path fill="rgb(193,215,237)" stroke="none" d="M 5422,18283 L 5573,18369 9539,11429 9389,11343 5422,18283 Z"/>
         <path fill="rgb(194,215,237)" stroke="none" d="M 5552,18357 L 5703,18443 9669,11503 9519,11417 5552,18357 Z"/>
         <path fill="rgb(195,216,237)" stroke="none" d="M 5682,18432 L 5833,18518 9800,11577 9649,11491 5682,18432 Z"/>
         <path fill="rgb(196,216,237)" stroke="none" d="M 5813,18506 L 5963,18592 9930,11652 9779,11566 5813,18506 Z"/>
         <path fill="rgb(197,217,238)" stroke="none" d="M 5943,18580 L 6093,18666 10060,11726 9909,11640 5943,18580 Z"/>
         <path fill="rgb(197,217,238)" stroke="none" d="M 6073,18655 L 6224,18741 10190,11801 10039,11714 6073,18655 Z"/>
         <path fill="rgb(198,218,238)" stroke="none" d="M 6203,18729 L 6354,18815 10320,11875 10170,11789 6203,18729 Z"/>
         <path fill="rgb(199,218,238)" stroke="none" d="M 6333,18803 L 6484,18890 10450,11949 10300,11863 6333,18803 Z"/>
         <path fill="rgb(200,218,238)" stroke="none" d="M 6463,18878 L 6513,18906 10479,11966 10430,11938 6463,18878 Z"/>
         <path fill="rgb(200,219,238)" stroke="none" d="M 6492,18894 L 6614,18964 10580,12024 10459,11954 6492,18894 Z"/>
         <path fill="rgb(201,219,238)" stroke="none" d="M 6593,18952 L 6744,19038 10711,12098 10560,12012 6593,18952 Z"/>
         <path fill="rgb(201,219,239)" stroke="none" d="M 6724,19027 L 6874,19113 10841,12172 10690,12086 6724,19027 Z"/>
         <path fill="rgb(202,220,239)" stroke="none" d="M 6854,19101 L 7004,19187 10971,12247 10820,12161 6854,19101 Z"/>
         <path fill="rgb(203,220,239)" stroke="none" d="M 6984,19175 L 7135,19261 11101,12321 10950,12235 6984,19175 Z"/>
         <path fill="rgb(204,221,239)" stroke="none" d="M 7114,19250 L 7265,19336 11231,12395 11081,12309 7114,19250 Z"/>
         <path fill="rgb(204,221,239)" stroke="none" d="M 7244,19324 L 7395,19410 11361,12470 11211,12384 7244,19324 Z"/>
         <path fill="rgb(205,222,239)" stroke="none" d="M 7374,19398 L 7525,19484 11492,12544 11341,12458 7374,19398 Z"/>
         <path fill="rgb(206,222,239)" stroke="none" d="M 7504,19473 L 7655,19559 11622,12618 11471,12532 7504,19473 Z"/>
         <path fill="rgb(207,223,240)" stroke="none" d="M 7635,19547 L 7785,19633 11752,12693 11601,12607 7635,19547 Z"/>
         <path fill="rgb(207,223,240)" stroke="none" d="M 7765,19621 L 7915,19707 11882,12767 11731,12681 7765,19621 Z"/>
         <path fill="rgb(208,224,240)" stroke="none" d="M 7895,19696 L 8046,19782 12012,12842 11861,12755 7895,19696 Z"/>
         <path fill="rgb(209,224,240)" stroke="none" d="M 8025,19770 L 8176,19856 12142,12916 11992,12830 8025,19770 Z"/>
         <path fill="rgb(210,225,240)" stroke="none" d="M 8155,19844 L 8306,19931 12272,12990 12122,12904 8155,19844 Z"/>
         <path fill="rgb(211,225,240)" stroke="none" d="M 8285,19919 L 8436,20005 12403,13065 12252,12979 8285,19919 Z"/>
         <path fill="rgb(211,225,241)" stroke="none" d="M 8416,19993 L 8566,20079 12533,13139 12382,13053 8416,19993 Z"/>
         <path fill="rgb(212,226,241)" stroke="none" d="M 8546,20068 L 8696,20154 12663,13213 12512,13127 8546,20068 Z"/>
         <path fill="rgb(213,226,241)" stroke="none" d="M 8676,20142 L 8827,20228 12793,13288 12642,13202 8676,20142 Z"/>
         <path fill="rgb(214,227,241)" stroke="none" d="M 8806,20216 L 8957,20302 12923,13362 12773,13276 8806,20216 Z"/>
         <path fill="rgb(214,227,241)" stroke="none" d="M 8936,20291 L 9087,20377 13053,13436 12903,13350 8936,20291 Z"/>
         <path fill="rgb(215,228,241)" stroke="none" d="M 9066,20365 L 9217,20451 13183,13511 13033,13425 9066,20365 Z"/>
         <path fill="rgb(216,228,241)" stroke="none" d="M 9196,20439 L 9347,20525 13314,13585 13163,13499 9196,20439 Z"/>
         <path fill="rgb(217,229,242)" stroke="none" d="M 9327,20514 L 9477,20600 13444,13660 13293,13573 9327,20514 Z"/>
         <path fill="rgb(218,229,242)" stroke="none" d="M 9457,20588 L 9607,20674 13574,13734 13423,13648 9457,20588 Z"/>
         <path fill="rgb(218,230,242)" stroke="none" d="M 9587,20662 L 9738,20749 13704,13808 13553,13722 9587,20662 Z"/>
         <path fill="rgb(219,230,242)" stroke="none" d="M 9717,20737 L 9868,20823 13834,13883 13684,13796 9717,20737 Z"/>
         <path fill="rgb(220,231,242)" stroke="none" d="M 9847,20811 L 9998,20897 13964,13957 13814,13871 9847,20811 Z"/>
         <path fill="rgb(221,231,242)" stroke="none" d="M 9977,20886 L 10128,20972 14095,14031 13944,13945 9977,20886 Z"/>
         <path fill="rgb(221,232,243)" stroke="none" d="M 10107,20960 L 10258,21046 14225,14106 14074,14020 10107,20960 Z"/>
         <path fill="rgb(222,232,243)" stroke="none" d="M 10238,21034 L 10388,21120 14355,14180 14204,14094 10238,21034 Z"/>
         <path fill="rgb(223,232,243)" stroke="none" d="M 10368,21109 L 10518,21195 14485,14254 14334,14168 10368,21109 Z"/>
         <path fill="rgb(224,233,243)" stroke="none" d="M 10498,21183 L 10649,21269 14615,14329 14464,14243 10498,21183 Z"/>
         <path fill="rgb(225,233,243)" stroke="none" d="M 10628,21257 L 10779,21343 14745,14403 14595,14317 10628,21257 Z"/>
         <path fill="rgb(225,234,243)" stroke="none" d="M 10758,21332 L 10909,21418 14875,14477 14725,14391 10758,21332 Z"/>
         <path fill="rgb(226,234,244)" stroke="none" d="M 10888,21406 L 11039,21492 15006,14552 14855,14466 10888,21406 Z"/>
         <path fill="rgb(227,235,244)" stroke="none" d="M 11019,21480 L 11140,21550 15107,14610 14985,14540 11019,21480 Z"/>
         <path fill="rgb(228,235,244)" stroke="none" d="M 11120,21538 L 11169,21566 15136,14626 15086,14598 11120,21538 Z"/>
         <path fill="rgb(228,235,244)" stroke="none" d="M 11149,21555 L 11299,21641 15266,14701 15115,14614 11149,21555 Z"/>
         <path fill="rgb(228,236,244)" stroke="none" d="M 11279,21629 L 11430,21715 15396,14775 15245,14689 11279,21629 Z"/>
         <path fill="rgb(229,236,244)" stroke="none" d="M 11409,21703 L 11560,21790 15526,14849 15376,14763 11409,21703 Z"/>
         <path fill="rgb(230,237,244)" stroke="none" d="M 11539,21778 L 11690,21864 15656,14924 15506,14838 11539,21778 Z"/>
         <path fill="rgb(231,237,244)" stroke="none" d="M 11669,21852 L 11820,21938 15786,14998 15636,14912 11669,21852 Z"/>
         <path fill="rgb(232,238,245)" stroke="none" d="M 11799,21927 L 11950,22013 15917,15072 15766,14986 11799,21927 Z"/>
         <path fill="rgb(232,238,245)" stroke="none" d="M 11930,22001 L 12080,22087 16047,15147 15896,15061 11930,22001 Z"/>
         <path fill="rgb(233,239,245)" stroke="none" d="M 12060,22075 L 12210,22161 16177,15221 16026,15135 12060,22075 Z"/>
         <path fill="rgb(234,239,245)" stroke="none" d="M 12190,22150 L 12341,22236 16307,15295 16156,15209 12190,22150 Z"/>
         <path fill="rgb(235,239,245)" stroke="none" d="M 12320,22224 L 12471,22310 16437,15370 16287,15284 12320,22224 Z"/>
         <path fill="rgb(235,240,245)" stroke="none" d="M 12450,22298 L 12601,22384 16567,15444 16417,15358 12450,22298 Z"/>
         <path fill="rgb(236,240,246)" stroke="none" d="M 12580,22373 L 12731,22459 16698,15518 16547,15432 12580,22373 Z"/>
         <path fill="rgb(237,241,246)" stroke="none" d="M 12710,22447 L 12861,22533 16828,15593 16677,15507 12710,22447 Z"/>
         <path fill="rgb(238,241,246)" stroke="none" d="M 12841,22521 L 12991,22607 16958,15667 16807,15581 12841,22521 Z"/>
         <path fill="rgb(239,242,246)" stroke="none" d="M 12971,22596 L 12991,22608 16958,15667 16937,15655 12971,22596 Z"/>
        </g>
        <g clip-path="url(#clip_path_3)"/>
        <g clip-path="url(#clip_path_1)">
         <path fill="rgb(0,0,0)" stroke="none" d="M 6011,13832 L 6011,14283 6083,14283 6083,14049 C 6083,13984 6099,13942 6134,13918 6156,13901 6178,13896 6227,13895 L 6227,13822 C 6216,13821 6209,13820 6200,13820 6154,13820 6118,13847 6077,13914 L 6077,13832 6011,13832 Z"/>
         <path fill="rgb(0,0,0)" stroke="none" d="M 6472,13820 C 6345,13820 6269,13910 6269,14061 6269,14213 6344,14303 6472,14303 6599,14303 6676,14213 6676,14064 6676,13909 6601,13820 6472,13820 L 6472,13820 Z M 6472,13886 C 6553,13886 6601,13952 6601,14064 6601,14169 6552,14236 6472,14236 6392,14236 6343,14170 6343,14061 6343,13953 6392,13886 6472,13886 L 6472,13886 Z"/>
         <path fill="rgb(0,0,0)" stroke="none" d="M 6934,13832 L 6860,13832 6860,13709 6789,13709 6789,13832 6728,13832 6728,13891 6789,13891 6789,14231 C 6789,14277 6820,14303 6875,14303 6892,14303 6910,14301 6934,14296 L 6934,14236 C 6924,14239 6913,14240 6900,14240 6869,14240 6860,14231 6860,14199 L 6860,13891 6934,13891 6934,13832 Z"/>
         <path fill="rgb(0,0,0)" stroke="none" d="M 7414,14241 C 7406,14243 7403,14243 7399,14243 7374,14243 7360,14229 7360,14207 L 7360,13942 C 7360,13863 7302,13820 7191,13820 7126,13820 7071,13839 7041,13872 7021,13895 7012,13921 7010,13966 L 7082,13966 C 7089,13911 7121,13886 7189,13886 7253,13886 7289,13910 7289,13953 L 7289,13972 C 7289,14002 7271,14015 7214,14022 7112,14034 7097,14038 7070,14049 7017,14071 6991,14111 6991,14169 6991,14251 7048,14303 7139,14303 7195,14303 7241,14283 7291,14236 7297,14282 7319,14303 7365,14303 7380,14303 7391,14301 7414,14295 L 7414,14241 Z M 7289,14141 C 7289,14165 7282,14180 7261,14199 7231,14226 7196,14240 7154,14240 7098,14240 7065,14213 7065,14167 7065,14121 7097,14096 7173,14085 7249,14075 7265,14072 7289,14060 L 7289,14141 Z"/>
         <path fill="rgb(0,0,0)" stroke="none" d="M 7651,13832 L 7577,13832 7577,13709 7506,13709 7506,13832 7444,13832 7444,13891 7506,13891 7506,14231 C 7506,14277 7537,14303 7592,14303 7609,14303 7627,14301 7651,14296 L 7651,14236 C 7641,14239 7630,14240 7616,14240 7585,14240 7577,14231 7577,14199 L 7577,13891 7651,13891 7651,13832 Z"/>
         <path fill="rgb(0,0,0)" stroke="none" d="M 8112,14082 C 8112,14013 8107,13972 8094,13938 8065,13864 7996,13820 7912,13820 7787,13820 7706,13916 7706,14064 7706,14212 7784,14303 7910,14303 8013,14303 8084,14244 8103,14146 L 8031,14146 C 8011,14205 7970,14236 7913,14236 7867,14236 7829,14216 7804,14178 7787,14152 7781,14126 7780,14082 L 8112,14082 Z M 7782,14023 C 7788,13940 7839,13886 7911,13886 7981,13886 8036,13944 8036,14018 8036,14020 8036,14022 8035,14023 L 7782,14023 Z"/>
         <path fill="rgb(0,0,0)" stroke="none" d="M 8646,14391 L 8130,14391 8130,14434 8646,14434 8646,14391 Z"/>
         <path fill="rgb(0,0,0)" stroke="none" d="M 8686,13832 L 8686,14283 8758,14283 8758,14049 C 8758,13984 8775,13942 8809,13918 8831,13901 8853,13896 8903,13895 L 8903,13822 C 8891,13821 8885,13820 8875,13820 8829,13820 8794,13847 8752,13914 L 8752,13832 8686,13832 Z"/>
         <path fill="rgb(0,0,0)" stroke="none" d="M 9042,13832 L 8971,13832 8971,14283 9042,14283 9042,13832 Z M 9042,13657 L 8970,13657 8970,13747 9042,13747 9042,13657 Z"/>
         <path fill="rgb(0,0,0)" stroke="none" d="M 9458,13832 L 9458,13898 C 9422,13844 9378,13820 9320,13820 9206,13820 9129,13920 9129,14065 9129,14139 9148,14199 9186,14243 9219,14280 9267,14303 9315,14303 9371,14303 9411,14278 9451,14222 L 9451,14245 C 9451,14306 9443,14343 9425,14368 9406,14395 9369,14410 9326,14410 9293,14410 9264,14401 9244,14386 9227,14373 9221,14361 9216,14334 L 9144,14334 C 9151,14419 9217,14470 9323,14470 9390,14470 9448,14448 9477,14413 9511,14371 9524,14315 9524,14209 L 9524,13832 9458,13832 Z M 9328,13886 C 9406,13886 9451,13951 9451,14064 9451,14171 9405,14236 9329,14236 9251,14236 9204,14170 9204,14061 9204,13953 9252,13886 9328,13886 L 9328,13886 Z"/>
         <path fill="rgb(0,0,0)" stroke="none" d="M 9642,13657 L 9642,14283 9713,14283 9713,14034 C 9713,13942 9761,13882 9835,13882 9858,13882 9882,13890 9899,13903 9919,13918 9928,13939 9928,13971 L 9928,14283 9999,14283 9999,13942 C 9999,13867 9945,13820 9857,13820 9794,13820 9755,13840 9713,13894 L 9713,13657 9642,13657 Z"/>
         <path fill="rgb(0,0,0)" stroke="none" d="M 10278,13832 L 10204,13832 10204,13709 10133,13709 10133,13832 10072,13832 10072,13891 10133,13891 10133,14231 C 10133,14277 10164,14303 10219,14303 10236,14303 10254,14301 10278,14296 L 10278,14236 C 10268,14239 10257,14240 10244,14240 10213,14240 10204,14231 10204,14199 L 10204,13891 10278,13891 10278,13832 Z"/>
         <path fill="rgb(0,0,0)" stroke="none" d="M 10795,14391 L 10280,14391 10280,14434 10795,14434 10795,14391 Z"/>
         <path fill="rgb(0,0,0)" stroke="none" d="M 11252,14283 L 11385,13832 11304,13832 11215,14183 11126,13832 11038,13832 10953,14183 10861,13832 10782,13832 10912,14283 10993,14283 11080,13930 11171,14283 11252,14283 Z"/>
         <path fill="rgb(0,0,0)" stroke="none" d="M 11526,13832 L 11454,13832 11454,14283 11526,14283 11526,13832 Z M 11526,13657 L 11453,13657 11453,13747 11526,13747 11526,13657 Z"/>
         <path fill="rgb(0,0,0)" stroke="none" d="M 11806,13832 L 11732,13832 11732,13709 11661,13709 11661,13832 11600,13832 11600,13891 11661,13891 11661,14231 C 11661,14277 11692,14303 11747,14303 11764,14303 11782,14301 11806,14296 L 11806,14236 C 11796,14239 11785,14240 11772,14240 11741,14240 11732,14231 11732,14199 L 11732,13891 11806,13891 11806,13832 Z"/>
         <path fill="rgb(0,0,0)" stroke="none" d="M 11887,13657 L 11887,14283 11958,14283 11958,14034 C 11958,13942 12006,13882 12080,13882 12103,13882 12126,13890 12144,13903 12164,13918 12173,13939 12173,13971 L 12173,14283 12244,14283 12244,13942 C 12244,13867 12190,13820 12102,13820 12039,13820 12000,13840 11958,13894 L 11958,13657 11887,13657 Z"/>
         <path fill="rgb(0,0,0)" stroke="none" d="M 12801,14391 L 12285,14391 12285,14434 12801,14434 12801,14391 Z"/>
         <path fill="rgb(0,0,0)" stroke="none" d="M 13187,13984 C 13183,13940 13174,13912 13157,13887 13126,13844 13072,13820 13009,13820 12888,13820 12809,13916 12809,14065 12809,14211 12886,14303 13008,14303 13115,14303 13183,14238 13192,14128 L 13120,14128 C 13108,14200 13071,14236 13010,14236 12931,14236 12883,14172 12883,14065 12883,13953 12930,13886 13008,13886 13068,13886 13106,13921 13115,13984 L 13187,13984 Z"/>
         <path fill="rgb(0,0,0)" stroke="none" d="M 13672,14241 C 13664,14243 13660,14243 13656,14243 13631,14243 13617,14229 13617,14207 L 13617,13942 C 13617,13863 13559,13820 13448,13820 13383,13820 13329,13839 13299,13872 13278,13895 13269,13921 13268,13966 L 13340,13966 C 13346,13911 13378,13886 13446,13886 13510,13886 13546,13910 13546,13953 L 13546,13972 C 13546,14002 13528,14015 13471,14022 13370,14034 13354,14038 13327,14049 13275,14071 13248,14111 13248,14169 13248,14251 13305,14303 13396,14303 13453,14303 13498,14283 13549,14236 13554,14282 13576,14303 13623,14303 13637,14303 13648,14301 13672,14295 L 13672,14241 Z M 13546,14141 C 13546,14165 13539,14180 13518,14199 13488,14226 13453,14240 13411,14240 13355,14240 13323,14213 13323,14167 13323,14121 13354,14096 13431,14085 13506,14075 13522,14072 13546,14060 L 13546,14141 Z"/>
         <path fill="rgb(0,0,0)" stroke="none" d="M 13749,13832 L 13749,14283 13821,14283 13821,14049 C 13821,13984 13837,13942 13872,13918 13894,13901 13916,13896 13965,13895 L 13965,13822 C 13954,13821 13947,13820 13938,13820 13892,13820 13856,13847 13815,13914 L 13815,13832 13749,13832 Z"/>
         <path fill="rgb(0,0,0)" stroke="none" d="M 14035,13832 L 14035,14283 14107,14283 14107,14049 C 14107,13984 14124,13942 14158,13918 14180,13901 14202,13896 14251,13895 L 14251,13822 C 14240,13821 14234,13820 14224,13820 14178,13820 14143,13847 14101,13914 L 14101,13832 14035,13832 Z"/>
         <path fill="rgb(0,0,0)" stroke="none" d="M 14595,13832 L 14471,14183 14356,13832 14279,13832 14431,14285 14404,14356 C 14393,14387 14376,14399 14346,14399 14336,14399 14324,14398 14309,14395 L 14309,14459 C 14323,14467 14338,14470 14357,14470 14380,14470 14404,14462 14424,14448 14446,14432 14459,14414 14473,14377 L 14673,13832 14595,13832 Z"/>
         <path fill="rgb(0,0,0)" stroke="none" d="M 15188,14391 L 14673,14391 14673,14434 15188,14434 15188,14391 Z"/>
         <path fill="rgb(0,0,0)" stroke="none" d="M 15406,13673 C 15349,13673 15297,13699 15266,13741 15226,13794 15206,13875 15206,13988 15206,14194 15275,14303 15406,14303 15535,14303 15605,14194 15605,13993 15605,13874 15586,13796 15546,13741 15514,13698 15464,13673 15406,13673 L 15406,13673 Z M 15406,13741 C 15487,13741 15528,13823 15528,13986 15528,14159 15488,14240 15404,14240 15324,14240 15284,14155 15284,13989 15284,13822 15324,13741 15406,13741 L 15406,13741 Z"/>
         <path fill="rgb(63,110,158)" stroke="none" d="M 5318,19496 L 5318,19947 5390,19947 5390,19713 C 5390,19648 5407,19606 5441,19582 5463,19565 5485,19560 5535,19559 L 5535,19486 C 5523,19485 5517,19484 5507,19484 5461,19484 5426,19511 5384,19578 L 5384,19496 5318,19496 Z"/>
         <path fill="rgb(63,110,158)" stroke="none" d="M 5779,19484 C 5653,19484 5576,19574 5576,19725 5576,19877 5652,19967 5780,19967 5906,19967 5984,19877 5984,19728 5984,19573 5908,19484 5779,19484 L 5779,19484 Z M 5780,19550 C 5860,19550 5908,19616 5908,19728 5908,19833 5859,19900 5780,19900 5700,19900 5651,19834 5651,19725 5651,19617 5700,19550 5780,19550 L 5780,19550 Z"/>
         <path fill="rgb(63,110,158)" stroke="none" d="M 6241,19496 L 6167,19496 6167,19373 6096,19373 6096,19496 6035,19496 6035,19555 6096,19555 6096,19895 C 6096,19941 6127,19967 6183,19967 6200,19967 6217,19965 6241,19960 L 6241,19900 C 6232,19903 6221,19904 6207,19904 6176,19904 6167,19895 6167,19863 L 6167,19555 6241,19555 6241,19496 Z"/>
         <path fill="rgb(63,110,158)" stroke="none" d="M 6722,19905 C 6714,19907 6710,19907 6706,19907 6681,19907 6667,19893 6667,19871 L 6667,19606 C 6667,19527 6609,19484 6498,19484 6433,19484 6379,19503 6349,19536 6328,19559 6319,19585 6318,19630 L 6390,19630 C 6396,19575 6428,19550 6496,19550 6560,19550 6596,19574 6596,19617 L 6596,19636 C 6596,19666 6578,19679 6521,19686 6420,19698 6404,19702 6377,19713 6325,19735 6298,19775 6298,19833 6298,19915 6355,19967 6446,19967 6503,19967 6548,19947 6599,19900 6604,19946 6626,19967 6673,19967 6687,19967 6698,19965 6722,19959 L 6722,19905 Z M 6596,19805 C 6596,19829 6589,19844 6568,19863 6538,19890 6503,19904 6461,19904 6405,19904 6373,19877 6373,19831 6373,19784 6404,19760 6481,19749 6556,19739 6572,19736 6596,19724 L 6596,19805 Z"/>
         <path fill="rgb(63,110,158)" stroke="none" d="M 6958,19496 L 6884,19496 6884,19373 6813,19373 6813,19496 6752,19496 6752,19555 6813,19555 6813,19895 C 6813,19941 6844,19967 6900,19967 6916,19967 6934,19965 6958,19960 L 6958,19900 C 6948,19903 6937,19904 6924,19904 6893,19904 6884,19895 6884,19863 L 6884,19555 6958,19555 6958,19496 Z"/>
         <path fill="rgb(63,110,158)" stroke="none" d="M 7419,19746 C 7419,19677 7414,19636 7401,19602 7372,19528 7304,19484 7219,19484 7094,19484 7013,19580 7013,19728 7013,19876 7091,19967 7217,19967 7321,19967 7392,19908 7410,19810 L 7338,19810 C 7318,19869 7277,19900 7220,19900 7174,19900 7136,19880 7112,19842 7094,19816 7089,19790 7088,19746 L 7419,19746 Z M 7090,19687 C 7095,19604 7146,19550 7218,19550 7289,19550 7343,19608 7343,19682 7343,19684 7343,19686 7342,19687 L 7090,19687 Z"/>
         <path fill="rgb(63,110,158)" stroke="none" d="M 7953,20055 L 7438,20055 7438,20098 7953,20098 7953,20055 Z"/>
         <path fill="rgb(63,110,158)" stroke="none" d="M 7993,19496 L 7993,19947 8066,19947 8066,19713 C 8066,19648 8082,19606 8116,19582 8139,19565 8160,19560 8210,19559 L 8210,19486 C 8198,19485 8192,19484 8183,19484 8136,19484 8101,19511 8060,19578 L 8060,19496 7993,19496 Z"/>
         <path fill="rgb(63,110,158)" stroke="none" d="M 8349,19496 L 8278,19496 8278,19947 8349,19947 8349,19496 Z M 8349,19320 L 8277,19320 8277,19411 8349,19411 8349,19320 Z"/>
         <path fill="rgb(63,110,158)" stroke="none" d="M 8765,19496 L 8765,19562 C 8729,19508 8685,19484 8628,19484 8513,19484 8436,19583 8436,19729 8436,19803 8456,19863 8493,19907 8527,19944 8574,19967 8622,19967 8679,19967 8718,19942 8759,19886 L 8759,19909 C 8759,19970 8751,20007 8732,20032 8713,20059 8677,20074 8633,20074 8600,20074 8571,20065 8551,20050 8535,20037 8528,20025 8524,19998 L 8451,19998 C 8459,20083 8525,20134 8630,20134 8698,20134 8755,20112 8784,20077 8819,20035 8831,19979 8831,19873 L 8831,19496 8765,19496 Z M 8636,19550 C 8713,19550 8759,19615 8759,19728 8759,19835 8712,19900 8636,19900 8558,19900 8511,19834 8511,19725 8511,19617 8559,19550 8636,19550 L 8636,19550 Z"/>
         <path fill="rgb(63,110,158)" stroke="none" d="M 8949,19320 L 8949,19947 9020,19947 9020,19698 C 9020,19606 9069,19546 9142,19546 9166,19546 9189,19554 9206,19567 9227,19582 9235,19603 9235,19635 L 9235,19947 9307,19947 9307,19606 C 9307,19531 9252,19484 9165,19484 9101,19484 9062,19504 9020,19558 L 9020,19320 8949,19320 Z"/>
         <path fill="rgb(63,110,158)" stroke="none" d="M 9585,19496 L 9511,19496 9511,19373 9440,19373 9440,19496 9379,19496 9379,19555 9440,19555 9440,19895 C 9440,19941 9471,19967 9527,19967 9544,19967 9561,19965 9585,19960 L 9585,19900 C 9576,19903 9565,19904 9551,19904 9520,19904 9511,19895 9511,19863 L 9511,19555 9585,19555 9585,19496 Z"/>
         <path fill="rgb(63,110,158)" stroke="none" d="M 10102,20055 L 9587,20055 9587,20098 10102,20098 10102,20055 Z"/>
         <path fill="rgb(63,110,158)" stroke="none" d="M 10560,19947 L 10692,19496 10611,19496 10522,19847 10433,19496 10346,19496 10260,19847 10168,19496 10089,19496 10219,19947 10300,19947 10387,19594 10478,19947 10560,19947 Z"/>
         <path fill="rgb(63,110,158)" stroke="none" d="M 10833,19496 L 10762,19496 10762,19947 10833,19947 10833,19496 Z M 10833,19320 L 10761,19320 10761,19411 10833,19411 10833,19320 Z"/>
         <path fill="rgb(63,110,158)" stroke="none" d="M 11113,19496 L 11039,19496 11039,19373 10968,19373 10968,19496 10907,19496 10907,19555 10968,19555 10968,19895 C 10968,19941 10999,19967 11055,19967 11072,19967 11089,19965 11113,19960 L 11113,19900 C 11104,19903 11093,19904 11079,19904 11048,19904 11039,19895 11039,19863 L 11039,19555 11113,19555 11113,19496 Z"/>
         <path fill="rgb(63,110,158)" stroke="none" d="M 11194,19320 L 11194,19947 11265,19947 11265,19698 C 11265,19606 11314,19546 11387,19546 11410,19546 11434,19554 11451,19567 11471,19582 11480,19603 11480,19635 L 11480,19947 11551,19947 11551,19606 C 11551,19531 11497,19484 11409,19484 11346,19484 11307,19504 11265,19558 L 11265,19320 11194,19320 Z"/>
         <path fill="rgb(63,110,158)" stroke="none" d="M 12108,20055 L 11593,20055 11593,20098 12108,20098 12108,20055 Z"/>
         <path fill="rgb(63,110,158)" stroke="none" d="M 12494,19648 C 12491,19604 12481,19576 12464,19551 12433,19508 12379,19484 12316,19484 12195,19484 12116,19580 12116,19729 12116,19875 12194,19967 12316,19967 12423,19967 12491,19902 12499,19792 L 12427,19792 C 12415,19864 12378,19900 12317,19900 12238,19900 12191,19836 12191,19729 12191,19617 12237,19550 12316,19550 12376,19550 12414,19585 12422,19648 L 12494,19648 Z"/>
         <path fill="rgb(63,110,158)" stroke="none" d="M 12979,19905 C 12971,19907 12968,19907 12963,19907 12939,19907 12925,19893 12925,19871 L 12925,19606 C 12925,19527 12866,19484 12756,19484 12690,19484 12636,19503 12606,19536 12586,19559 12577,19585 12575,19630 L 12647,19630 C 12653,19575 12686,19550 12753,19550 12818,19550 12853,19574 12853,19617 L 12853,19636 C 12853,19666 12835,19679 12779,19686 12677,19698 12662,19702 12634,19713 12582,19735 12556,19775 12556,19833 12556,19915 12612,19967 12703,19967 12760,19967 12805,19947 12856,19900 12861,19946 12883,19967 12930,19967 12944,19967 12956,19965 12979,19959 L 12979,19905 Z M 12853,19805 C 12853,19829 12847,19844 12825,19863 12796,19890 12760,19904 12719,19904 12663,19904 12630,19877 12630,19831 12630,19784 12662,19760 12738,19749 12814,19739 12829,19736 12853,19724 L 12853,19805 Z"/>
         <path fill="rgb(63,110,158)" stroke="none" d="M 13056,19496 L 13056,19947 13128,19947 13128,19713 C 13128,19648 13145,19606 13179,19582 13201,19565 13223,19560 13273,19559 L 13273,19486 C 13261,19485 13255,19484 13246,19484 13199,19484 13164,19511 13122,19578 L 13122,19496 13056,19496 Z"/>
         <path fill="rgb(63,110,158)" stroke="none" d="M 13342,19496 L 13342,19947 13414,19947 13414,19713 C 13414,19648 13431,19606 13465,19582 13488,19565 13509,19560 13559,19559 L 13559,19486 C 13547,19485 13541,19484 13532,19484 13485,19484 13450,19511 13409,19578 L 13409,19496 13342,19496 Z"/>
         <path fill="rgb(63,110,158)" stroke="none" d="M 13903,19496 L 13778,19847 13663,19496 13586,19496 13738,19949 13711,20020 C 13700,20051 13684,20063 13654,20063 13643,20063 13631,20062 13616,20059 L 13616,20123 C 13630,20131 13645,20134 13664,20134 13687,20134 13712,20126 13731,20112 13753,20096 13766,20078 13780,20041 L 13980,19496 13903,19496 Z"/>
         <path fill="rgb(63,110,158)" stroke="none" d="M 14496,20055 L 13980,20055 13980,20098 14496,20098 14496,20055 Z"/>
         <path fill="rgb(63,110,158)" stroke="none" d="M 14722,19947 L 14894,19496 14814,19496 14687,19862 14566,19496 14486,19496 14644,19947 14722,19947 Z"/>
         <path fill="rgb(63,110,158)" stroke="none" d="M 15129,19513 L 15129,19947 15205,19947 15205,19337 15155,19337 C 15128,19431 15111,19444 14994,19459 L 14994,19513 15129,19513 Z"/>
         <path fill="rgb(63,110,158)" stroke="none" d="M 15881,20055 L 15366,20055 15366,20098 15881,20098 15881,20055 Z"/>
         <path fill="rgb(63,110,158)" stroke="none" d="M 16099,19337 C 16042,19337 15990,19363 15959,19405 15919,19458 15899,19539 15899,19652 15899,19858 15968,19967 16099,19967 16228,19967 16298,19858 16298,19657 16298,19538 16279,19460 16239,19405 16207,19362 16156,19337 16099,19337 L 16099,19337 Z M 16099,19405 C 16180,19405 16221,19487 16221,19650 16221,19823 16181,19904 16097,19904 16017,19904 15977,19819 15977,19653 15977,19486 16017,19405 16099,19405 L 16099,19405 Z"/>
         <path fill="none" stroke="rgb(0,0,0)" stroke-width="358" stroke-linejoin="miter" d="M 5786,16036 L 6502,16036"/>
         <path fill="rgb(0,0,0)" stroke="none" d="M 6985,16136 L 7039,16293 7113,16293 6930,15771 6844,15771 6658,16293 6729,16293 6784,16136 6985,16136 Z M 6966,16080 L 6800,16080 6886,15843 6966,16080 Z"/>
         <path fill="rgb(0,0,0)" stroke="none" d="M 7537,16383 L 7107,16383 7107,16419 7537,16419 7537,16383 Z"/>
         <path fill="rgb(0,0,0)" stroke="none" d="M 7629,15918 L 7570,15918 7570,16293 7629,16293 7629,15918 Z M 7629,15771 L 7569,15771 7569,15846 7629,15846 7629,15771 Z"/>
         <path fill="rgb(0,0,0)" stroke="none" d="M 7859,15771 L 7727,15771 7727,16445 7859,16445 7859,16393 7786,16393 7786,15823 7859,15823 7859,15771 Z"/>
         <path fill="rgb(0,0,0)" stroke="none" d="M 8038,16061 L 8046,16061 8072,16060 C 8142,16060 8178,16091 8178,16152 8178,16216 8138,16254 8072,16254 8004,16254 7970,16219 7965,16146 L 7902,16146 C 7905,16186 7913,16213 7925,16236 7950,16284 8001,16309 8070,16309 8175,16309 8242,16247 8242,16151 8242,16087 8217,16051 8156,16031 8203,16012 8227,15976 8227,15925 8227,15838 8169,15785 8072,15785 7970,15785 7916,15841 7913,15950 L 7977,15950 C 7977,15919 7980,15902 7988,15886 8002,15858 8034,15841 8073,15841 8129,15841 8163,15874 8163,15927 8163,15963 8149,15984 8122,15996 8104,16003 8082,16006 8038,16007 L 8038,16061 Z"/>
         <path fill="rgb(0,0,0)" stroke="none" d="M 8431,16218 L 8357,16218 8357,16293 8431,16293 8431,16218 Z M 8431,15918 L 8357,15918 8357,15992 8431,15992 8431,15918 Z"/>
         <path fill="rgb(0,0,0)" stroke="none" d="M 8674,15785 C 8627,15785 8584,15806 8557,15841 8524,15886 8508,15953 8508,16047 8508,16218 8565,16309 8674,16309 8781,16309 8840,16218 8840,16052 8840,15953 8824,15887 8790,15841 8764,15805 8722,15785 8674,15785 L 8674,15785 Z M 8674,15841 C 8742,15841 8775,15910 8775,16046 8775,16190 8742,16257 8672,16257 8606,16257 8572,16187 8572,16048 8572,15909 8606,15841 8674,15841 L 8674,15841 Z"/>
         <path fill="rgb(0,0,0)" stroke="none" d="M 8892,16445 L 9025,16445 9025,15771 8892,15771 8892,15823 8965,15823 8965,16393 8892,16393 8892,16445 Z"/>
         <path fill="none" stroke="rgb(0,0,0)" stroke-width="215" stroke-linejoin="miter" d="M 5786,17468 L 6502,17468"/>
         <path fill="rgb(0,0,0)" stroke="none" d="M 7119,17365 C 7099,17250 7033,17195 6918,17195 6848,17195 6792,17217 6753,17260 6706,17311 6680,17386 6680,17470 6680,17556 6707,17630 6756,17681 6796,17722 6848,17742 6916,17742 7043,17742 7115,17673 7131,17535 L 7062,17535 C 7056,17571 7049,17595 7038,17616 7017,17659 6972,17683 6917,17683 6812,17683 6746,17600 6746,17469 6746,17336 6809,17253 6911,17253 6953,17253 6992,17266 7014,17286 7033,17304 7044,17327 7052,17365 L 7119,17365 Z"/>
         <path fill="rgb(0,0,0)" stroke="none" d="M 7576,17815 L 7147,17815 7147,17851 7576,17851 7576,17815 Z"/>
         <path fill="rgb(0,0,0)" stroke="none" d="M 7669,17350 L 7609,17350 7609,17725 7669,17725 7669,17350 Z M 7669,17203 L 7608,17203 7608,17279 7669,17279 7669,17203 Z"/>
         <path fill="none" stroke="rgb(0,0,0)" stroke-width="358" stroke-linejoin="miter" d="M 15813,16036 L 15097,16036"/>
         <path fill="rgb(0,0,0)" stroke="none" d="M 12563,16088 L 12759,15771 12679,15771 12530,16025 12377,15771 12295,15771 12496,16088 12496,16293 12563,16293 12563,16088 Z"/>
         <path fill="rgb(0,0,0)" stroke="none" d="M 13177,16383 L 12747,16383 12747,16419 13177,16419 13177,16383 Z"/>
         <path fill="rgb(0,0,0)" stroke="none" d="M 13356,15907 C 13251,15907 13187,15983 13187,16108 13187,16234 13250,16309 13357,16309 13462,16309 13527,16234 13527,16111 13527,15982 13464,15907 13356,15907 L 13356,15907 Z M 13357,15962 C 13424,15962 13464,16017 13464,16110 13464,16199 13423,16254 13357,16254 13290,16254 13250,16199 13250,16108 13250,16018 13290,15962 13357,15962 L 13357,15962 Z"/>
         <path fill="rgb(0,0,0)" stroke="none" d="M 13738,15771 L 13606,15771 13606,16445 13738,16445 13738,16393 13665,16393 13665,15823 13738,15823 13738,15771 Z"/>
         <path fill="rgb(0,0,0)" stroke="none" d="M 13917,16061 L 13925,16061 13952,16060 C 14021,16060 14057,16091 14057,16152 14057,16216 14017,16254 13952,16254 13883,16254 13849,16219 13844,16146 L 13781,16146 C 13784,16186 13792,16213 13804,16236 13829,16284 13880,16309 13949,16309 14054,16309 14121,16247 14121,16151 14121,16087 14096,16051 14035,16031 14082,16012 14106,15976 14106,15925 14106,15838 14048,15785 13952,15785 13849,15785 13795,15841 13792,15950 L 13856,15950 C 13856,15919 13859,15902 13867,15886 13881,15858 13913,15841 13952,15841 14008,15841 14042,15874 14042,15927 14042,15963 14029,15984 14001,15996 13983,16003 13961,16006 13917,16007 L 13917,16061 Z"/>
         <path fill="rgb(0,0,0)" stroke="none" d="M 14310,16218 L 14236,16218 14236,16293 14310,16293 14310,16218 Z M 14310,15918 L 14236,15918 14236,15992 14310,15992 14310,15918 Z"/>
         <path fill="rgb(0,0,0)" stroke="none" d="M 14553,15785 C 14506,15785 14463,15806 14436,15841 14403,15886 14387,15953 14387,16047 14387,16218 14444,16309 14553,16309 14660,16309 14719,16218 14719,16052 14719,15953 14703,15887 14669,15841 14643,15805 14601,15785 14553,15785 L 14553,15785 Z M 14553,15841 C 14621,15841 14654,15910 14654,16046 14654,16190 14621,16257 14551,16257 14485,16257 14451,16187 14451,16048 14451,15909 14485,15841 14553,15841 L 14553,15841 Z"/>
         <path fill="rgb(0,0,0)" stroke="none" d="M 14771,16445 L 14904,16445 14904,15771 14771,15771 14771,15823 14844,15823 14844,16393 14771,16393 14771,16445 Z"/>
         <path fill="none" stroke="rgb(0,0,0)" stroke-width="215" stroke-linejoin="miter" d="M 15813,17468 L 15097,17468"/>
         <path fill="rgb(0,0,0)" stroke="none" d="M 14114,17365 C 14093,17250 14027,17195 13913,17195 13842,17195 13786,17217 13747,17260 13700,17311 13674,17386 13674,17470 13674,17556 13701,17630 13750,17681 13790,17722 13842,17742 13910,17742 14037,17742 14109,17673 14125,17535 L 14056,17535 C 14050,17571 14043,17595 14032,17616 14011,17659 13966,17683 13911,17683 13806,17683 13741,17600 13741,17469 13741,17336 13804,17253 13905,17253 13947,17253 13986,17266 14008,17286 14027,17304 14038,17327 14046,17365 L 14114,17365 Z"/>
         <path fill="rgb(0,0,0)" stroke="none" d="M 14571,17815 L 14141,17815 14141,17851 14571,17851 14571,17815 Z"/>
         <path fill="rgb(0,0,0)" stroke="none" d="M 14750,17339 C 14645,17339 14581,17415 14581,17541 14581,17667 14644,17742 14750,17742 14856,17742 14920,17667 14920,17543 14920,17414 14858,17339 14750,17339 L 14750,17339 Z M 14750,17394 C 14818,17394 14858,17450 14858,17543 14858,17631 14816,17686 14750,17686 14684,17686 14643,17631 14643,17541 14643,17450 14684,17394 14750,17394 L 14750,17394 Z"/>
         <path fill="none" stroke="rgb(63,110,158)" stroke-width="72" stroke-linejoin="miter" d="M 7004,14604 L 14595,14604"/>
         <path fill="none" stroke="rgb(63,110,158)" stroke-width="72" stroke-linejoin="miter" d="M 15097,15105 C 15097,15097 15097,15089 15097,15081 15090,14811 14866,14597 14595,14604"/>
         <path fill="none" stroke="rgb(63,110,158)" stroke-width="72" stroke-linejoin="miter" d="M 15097,15105 L 15097,18399"/>
         <path fill="none" stroke="rgb(63,110,158)" stroke-width="72" stroke-linejoin="miter" d="M 14595,18900 C 14603,18900 14611,18900 14619,18900 14889,18894 15103,18669 15097,18399"/>
         <path fill="none" stroke="rgb(63,110,158)" stroke-width="72" stroke-linejoin="miter" d="M 14595,18900 L 7004,18900"/>
         <path fill="none" stroke="rgb(63,110,158)" stroke-width="72" stroke-linejoin="miter" d="M 6502,18399 C 6502,18407 6502,18415 6502,18423 6509,18693 6733,18907 7004,18900"/>
         <path fill="none" stroke="rgb(63,110,158)" stroke-width="72" stroke-linejoin="miter" d="M 6502,18399 L 6502,15105"/>
         <path fill="none" stroke="rgb(63,110,158)" stroke-width="72" stroke-linejoin="miter" d="M 7004,14604 C 6996,14604 6988,14604 6980,14604 6710,14610 6496,14835 6502,15105"/>
        </g>
       </g>
      </g>
     </g>
    </g>
   </g>
  </g>
 </g>
</svg>