<?xml version="1.0" encoding="UTF-8"?>
<!DOCTYPE svg PUBLIC "-//W3C//DTD SVG 1.1//EN" "http://www.w3.org/Graphics/SVG/1.1/DTD/svg11.dtd">
<svg version="1.2" width="130.99mm" height="84.86mm" viewBox="4500 14000 13099 8486" preserveAspectRatio="xMidYMid" fill-rule="evenodd" stroke-width="28.222" stroke-linejoin="round" xmlns="http://www.w3.org/2000/svg" xmlns:ooo="http://xml.openoffice.org/svg/export" xmlns:xlink="http://www.w3.org/1999/xlink" xmlns:presentation="http://sun.com/xmlns/staroffice/presentation" xmlns:smil="http://www.w3.org/2001/SMIL20/" xmlns:anim="urn:oasis:names:tc:opendocument:xmlns:animation:1.0" xml:space="preserve">
 <defs class="ClipPathGroup">
  <clipPath id="presentation_clip_path" clipPathUnits="userSpaceOnUse">
   <rect x="4500" y="14000" width="13099" height="8486"/>
  </clipPath>
  <clipPath id="presentation_clip_path_shrink" clipPathUnits="userSpaceOnUse">
   <rect x="4513" y="14008" width="13073" height="8470"/>
  </clipPath>
 </defs>
 <defs class="TextShapeIndex">
  <g ooo:slide="id1" ooo:id-list="id3"/>
 </defs>
 <defs class="EmbeddedBulletChars">
  <g id="bullet-char-template-57356" transform="scale(0.00048828125,-0.00048828125)">
   <path d="M 580,1141 L 1163,571 580,0 -4,571 580,1141 Z"/>
  </g>
  <g id="bullet-char-template-57354" transform="scale(0.00048828125,-0.00048828125)">
   <path d="M 8,1128 L 1137,1128 1137,0 8,0 8,1128 Z"/>
  </g>
  <g id="bullet-char-template-10146" transform="scale(0.00048828125,-0.00048828125)">
   <path d="M 174,0 L 602,739 174,1481 1456,739 174,0 Z M 1358,739 L 309,1346 659,739 1358,739 Z"/>
  </g>
  <g id="bullet-char-template-10132" transform="scale(0.00048828125,-0.00048828125)">
   <path d="M 2015,739 L 1276,0 717,0 1260,543 174,543 174,936 1260,936 717,1481 1274,1481 2015,739 Z"/>
  </g>
  <g id="bullet-char-template-10007" transform="scale(0.00048828125,-0.00048828125)">
   <path d="M 0,-2 C -7,14 -16,27 -25,37 L 356,567 C 262,823 215,952 215,954 215,979 228,992 255,992 264,992 276,990 289,987 310,991 331,999 354,1012 L 381,999 492,748 772,1049 836,1024 860,1049 C 881,1039 901,1025 922,1006 886,937 835,863 770,784 769,783 710,716 594,584 L 774,223 C 774,196 753,168 711,139 L 727,119 C 717,90 699,76 672,76 641,76 570,178 457,381 L 164,-76 C 142,-110 111,-127 72,-127 30,-127 9,-110 8,-76 1,-67 -2,-52 -2,-32 -2,-23 -1,-13 0,-2 Z"/>
  </g>
  <g id="bullet-char-template-10004" transform="scale(0.00048828125,-0.00048828125)">
   <path d="M 285,-33 C 182,-33 111,30 74,156 52,228 41,333 41,471 41,549 55,616 82,672 116,743 169,778 240,778 293,778 328,747 346,684 L 369,508 C 377,444 397,411 428,410 L 1163,1116 C 1174,1127 1196,1133 1229,1133 1271,1133 1292,1118 1292,1087 L 1292,965 C 1292,929 1282,901 1262,881 L 442,47 C 390,-6 338,-33 285,-33 Z"/>
  </g>
  <g id="bullet-char-template-9679" transform="scale(0.00048828125,-0.00048828125)">
   <path d="M 813,0 C 632,0 489,54 383,161 276,268 223,411 223,592 223,773 276,916 383,1023 489,1130 632,1184 813,1184 992,1184 1136,1130 1245,1023 1353,916 1407,772 1407,592 1407,412 1353,268 1245,161 1136,54 992,0 813,0 Z"/>
  </g>
  <g id="bullet-char-template-8226" transform="scale(0.00048828125,-0.00048828125)">
   <path d="M 346,457 C 273,457 209,483 155,535 101,586 74,649 74,723 74,796 101,859 155,911 209,963 273,989 346,989 419,989 480,963 531,910 582,859 608,796 608,723 608,648 583,586 532,535 482,483 420,457 346,457 Z"/>
  </g>
  <g id="bullet-char-template-8211" transform="scale(0.00048828125,-0.00048828125)">
   <path d="M -4,459 L 1135,459 1135,606 -4,606 -4,459 Z"/>
  </g>
  <g id="bullet-char-template-61548" transform="scale(0.00048828125,-0.00048828125)">
   <path d="M 173,740 C 173,903 231,1043 346,1159 462,1274 601,1332 765,1332 928,1332 1067,1274 1183,1159 1299,1043 1357,903 1357,740 1357,577 1299,437 1183,322 1067,206 928,148 765,148 601,148 462,206 346,322 231,437 173,577 173,740 Z"/>
  </g>
 </defs>
 <defs class="TextEmbeddedBitmaps"/>
 <g class="SlideGroup">
  <g>
   <g id="container-id1">
    <g id="id1" class="Slide" clip-path="url(#presentation_clip_path)">
     <g class="Page">
      <g class="Graphic">
       <g id="id3">
        <rect class="BoundingBox" stroke="none" fill="none" x="4500" y="14000" width="13100" height="8487"/>
        <defs>
         <clipPath id="clip_path_1" clipPathUnits="userSpaceOnUse">
          <path d="M 4500,14000 L 17599,14000 17599,22486 4500,22486 4500,14000 Z"/>
         </clipPath>
        </defs>
        <g clip-path="url(#clip_path_1)"/>
        <defs>
         <clipPath id="clip_path_2" clipPathUnits="userSpaceOnUse">
          <path d="M 4500,14000 L 17599,14000 17599,22486 4500,22486 4500,14000 Z"/>
         </clipPath>
        </defs>
        <g clip-path="url(#clip_path_2)">
         <path fill="rgb(255,255,255)" stroke="none" d="M 2387,12862 L 19574,12862 19574,24119 2387,24119 2387,12862 Z"/>
        </g>
        <g clip-path="url(#clip_path_1)">
         <path fill="rgb(0,0,0)" stroke="none" d="M 6855,15869 L 15965,15869 16223,15955 16395,16041 16481,16213 16567,16471 16567,20424 16481,20681 16395,20853 16223,20939 15965,21025 6855,21025 6598,20939 6426,20853 6340,20681 6254,20424 6254,16471 6340,16213 6426,16041 6598,15955 6855,15869 Z"/>
        </g>
        <defs>
         <clipPath id="clip_path_3" clipPathUnits="userSpaceOnUse">
          <path d="M 6426,15440 L 15535,15440 15793,15526 15965,15612 16051,15783 16137,16041 16137,19994 16051,20252 15965,20424 15793,20510 15535,20596 6426,20596 6168,20510 5996,20424 5910,20252 5824,19994 5824,16041 5910,15783 5996,15612 6168,15526 6426,15440 Z"/>
         </clipPath>
        </defs>
        <g clip-path="url(#clip_path_3)"/>
        <defs>
         <clipPath id="clip_path_4" clipPathUnits="userSpaceOnUse">
          <path d="M 6426,15440 L 15535,15440 15793,15526 15965,15612 16051,15783 16137,16041 16137,19994 16051,20252 15965,20424 15793,20510 15535,20596 6426,20596 6168,20510 5996,20424 5910,20252 5824,19994 5824,16041 5910,15783 5996,15612 6168,15526 6426,15440 Z"/>
         </clipPath>
        </defs>
        <g clip-path="url(#clip_path_4)">
         <path fill="rgb(189,212,236)" stroke="none" d="M 3593,19321 L 3613,19332 8373,11004 8352,10992 3593,19321 Z"/>
         <path fill="rgb(189,212,236)" stroke="none" d="M 3593,19321 L 3769,19422 8529,11093 8352,10992 3593,19321 Z"/>
         <path fill="rgb(190,212,236)" stroke="none" d="M 3749,19410 L 3926,19511 8685,11182 8509,11081 3749,19410 Z"/>
         <path fill="rgb(190,213,236)" stroke="none" d="M 3905,19499 L 4082,19600 8841,11271 8665,11170 3905,19499 Z"/>
         <path fill="rgb(191,213,237)" stroke="none" d="M 4061,19588 L 4238,19689 8998,11361 8821,11260 4061,19588 Z"/>
         <path fill="rgb(192,214,237)" stroke="none" d="M 4217,19678 L 4394,19779 9154,11450 8977,11349 4217,19678 Z"/>
         <path fill="rgb(193,214,237)" stroke="none" d="M 4374,19767 L 4550,19868 9310,11539 9133,11438 4374,19767 Z"/>
         <path fill="rgb(193,215,237)" stroke="none" d="M 4530,19856 L 4706,19957 9466,11628 9289,11527 4530,19856 Z"/>
         <path fill="rgb(194,215,237)" stroke="none" d="M 4686,19945 L 4863,20046 9622,11718 9446,11617 4686,19945 Z"/>
         <path fill="rgb(195,216,237)" stroke="none" d="M 4842,20034 L 5019,20135 9779,11807 9602,11706 4842,20034 Z"/>
         <path fill="rgb(196,216,237)" stroke="none" d="M 4998,20124 L 5175,20225 9935,11896 9758,11795 4998,20124 Z"/>
         <path fill="rgb(197,217,238)" stroke="none" d="M 5154,20213 L 5331,20314 10091,11985 9914,11884 5154,20213 Z"/>
         <path fill="rgb(197,217,238)" stroke="none" d="M 5311,20302 L 5487,20403 10247,12074 10070,11974 5311,20302 Z"/>
         <path fill="rgb(198,218,238)" stroke="none" d="M 5467,20391 L 5644,20492 10403,12164 10227,12063 5467,20391 Z"/>
         <path fill="rgb(199,218,238)" stroke="none" d="M 5623,20481 L 5800,20582 10559,12253 10383,12152 5623,20481 Z"/>
         <path fill="rgb(200,218,238)" stroke="none" d="M 5779,20570 L 5834,20601 10594,12273 10539,12241 5779,20570 Z"/>
         <path fill="rgb(200,219,238)" stroke="none" d="M 5814,20590 L 5956,20671 10716,12342 10574,12261 5814,20590 Z"/>
         <path fill="rgb(201,219,238)" stroke="none" d="M 5935,20659 L 6112,20760 10872,12431 10695,12330 5935,20659 Z"/>
         <path fill="rgb(201,219,239)" stroke="none" d="M 6092,20748 L 6268,20849 11028,12521 10851,12420 6092,20748 Z"/>
         <path fill="rgb(202,220,239)" stroke="none" d="M 6248,20838 L 6424,20939 11184,12610 11007,12509 6248,20838 Z"/>
         <path fill="rgb(203,220,239)" stroke="none" d="M 6404,20927 L 6581,21028 11340,12699 11164,12598 6404,20927 Z"/>
         <path fill="rgb(204,221,239)" stroke="none" d="M 6560,21016 L 6737,21117 11496,12788 11320,12687 6560,21016 Z"/>
         <path fill="rgb(204,221,239)" stroke="none" d="M 6716,21105 L 6893,21206 11653,12878 11476,12777 6716,21105 Z"/>
         <path fill="rgb(205,222,239)" stroke="none" d="M 6872,21195 L 7049,21296 11809,12967 11632,12866 6872,21195 Z"/>
         <path fill="rgb(206,222,239)" stroke="none" d="M 7029,21284 L 7205,21385 11965,13056 11788,12955 7029,21284 Z"/>
         <path fill="rgb(207,223,240)" stroke="none" d="M 7185,21373 L 7361,21474 12121,13145 11945,13044 7185,21373 Z"/>
         <path fill="rgb(207,223,240)" stroke="none" d="M 7341,21462 L 7518,21563 12277,13235 12101,13134 7341,21462 Z"/>
         <path fill="rgb(208,224,240)" stroke="none" d="M 7497,21551 L 7674,21652 12434,13324 12257,13223 7497,21551 Z"/>
         <path fill="rgb(209,224,240)" stroke="none" d="M 7653,21641 L 7830,21742 12590,13413 12413,13312 7653,21641 Z"/>
         <path fill="rgb(210,225,240)" stroke="none" d="M 7809,21730 L 7986,21831 12746,13502 12569,13401 7809,21730 Z"/>
         <path fill="rgb(211,225,240)" stroke="none" d="M 7966,21819 L 8142,21920 12902,13591 12725,13491 7966,21819 Z"/>
         <path fill="rgb(211,225,241)" stroke="none" d="M 8122,21908 L 8299,22009 13058,13681 12882,13580 8122,21908 Z"/>
         <path fill="rgb(212,226,241)" stroke="none" d="M 8278,21998 L 8455,22099 13214,13770 13038,13669 8278,21998 Z"/>
         <path fill="rgb(213,226,241)" stroke="none" d="M 8434,22087 L 8611,22188 13371,13859 13194,13758 8434,22087 Z"/>
         <path fill="rgb(214,227,241)" stroke="none" d="M 8590,22176 L 8767,22277 13527,13948 13350,13847 8590,22176 Z"/>
         <path fill="rgb(214,227,241)" stroke="none" d="M 8747,22265 L 8923,22366 13683,14038 13506,13937 8747,22265 Z"/>
         <path fill="rgb(215,228,241)" stroke="none" d="M 8903,22355 L 9079,22456 13839,14127 13662,14026 8903,22355 Z"/>
         <path fill="rgb(216,228,241)" stroke="none" d="M 9059,22444 L 9236,22545 13995,14216 13819,14115 9059,22444 Z"/>
         <path fill="rgb(217,229,242)" stroke="none" d="M 9215,22533 L 9392,22634 14152,14305 13975,14204 9215,22533 Z"/>
         <path fill="rgb(218,229,242)" stroke="none" d="M 9371,22622 L 9548,22723 14308,14395 14131,14294 9371,22622 Z"/>
         <path fill="rgb(218,230,242)" stroke="none" d="M 9527,22712 L 9704,22813 14464,14484 14287,14383 9527,22712 Z"/>
         <path fill="rgb(219,230,242)" stroke="none" d="M 9684,22801 L 9860,22902 14620,14573 14443,14472 9684,22801 Z"/>
         <path fill="rgb(220,231,242)" stroke="none" d="M 9840,22890 L 10017,22991 14776,14662 14600,14561 9840,22890 Z"/>
         <path fill="rgb(221,231,242)" stroke="none" d="M 9996,22979 L 10173,23080 14932,14752 14756,14651 9996,22979 Z"/>
         <path fill="rgb(221,232,243)" stroke="none" d="M 10152,23069 L 10329,23169 15089,14841 14912,14740 10152,23069 Z"/>
         <path fill="rgb(222,232,243)" stroke="none" d="M 10308,23158 L 10485,23259 15245,14930 15068,14829 10308,23158 Z"/>
         <path fill="rgb(223,232,243)" stroke="none" d="M 10465,23247 L 10641,23348 15401,15019 15224,14918 10465,23247 Z"/>
         <path fill="rgb(224,233,243)" stroke="none" d="M 10621,23336 L 10797,23437 15557,15108 15380,15008 10621,23336 Z"/>
         <path fill="rgb(225,233,243)" stroke="none" d="M 10777,23425 L 10954,23526 15713,15198 15537,15097 10777,23425 Z"/>
         <path fill="rgb(225,234,243)" stroke="none" d="M 10933,23515 L 11110,23616 15869,15287 15693,15186 10933,23515 Z"/>
         <path fill="rgb(226,234,244)" stroke="none" d="M 11089,23604 L 11266,23705 16026,15376 15849,15275 11089,23604 Z"/>
         <path fill="rgb(227,235,244)" stroke="none" d="M 11245,23693 L 11387,23774 16147,15446 16005,15364 11245,23693 Z"/>
         <path fill="rgb(228,235,244)" stroke="none" d="M 11367,23763 L 11422,23794 16182,15465 16127,15434 11367,23763 Z"/>
         <path fill="rgb(228,235,244)" stroke="none" d="M 11402,23782 L 11578,23883 16338,15555 16161,15454 11402,23782 Z"/>
         <path fill="rgb(228,236,244)" stroke="none" d="M 11558,23872 L 11734,23973 16494,15644 16317,15543 11558,23872 Z"/>
         <path fill="rgb(229,236,244)" stroke="none" d="M 11714,23961 L 11891,24062 16650,15733 16474,15632 11714,23961 Z"/>
         <path fill="rgb(230,237,244)" stroke="none" d="M 11870,24050 L 12047,24151 16807,15822 16630,15721 11870,24050 Z"/>
         <path fill="rgb(231,237,244)" stroke="none" d="M 12026,24139 L 12203,24240 16963,15912 16786,15811 12026,24139 Z"/>
         <path fill="rgb(232,238,245)" stroke="none" d="M 12182,24229 L 12359,24330 17119,16001 16942,15900 12182,24229 Z"/>
         <path fill="rgb(232,238,245)" stroke="none" d="M 12339,24318 L 12515,24419 17275,16090 17098,15989 12339,24318 Z"/>
         <path fill="rgb(233,239,245)" stroke="none" d="M 12495,24407 L 12672,24508 17431,16179 17255,16078 12495,24407 Z"/>
         <path fill="rgb(234,239,245)" stroke="none" d="M 12651,24496 L 12828,24597 17587,16269 17411,16168 12651,24496 Z"/>
         <path fill="rgb(235,239,245)" stroke="none" d="M 12807,24586 L 12984,24686 17744,16358 17567,16257 12807,24586 Z"/>
         <path fill="rgb(235,240,245)" stroke="none" d="M 12963,24675 L 13140,24776 17900,16447 17723,16346 12963,24675 Z"/>
         <path fill="rgb(236,240,246)" stroke="none" d="M 13120,24764 L 13296,24865 18056,16536 17879,16435 13120,24764 Z"/>
         <path fill="rgb(237,241,246)" stroke="none" d="M 13276,24853 L 13452,24954 18212,16625 18035,16525 13276,24853 Z"/>
         <path fill="rgb(238,241,246)" stroke="none" d="M 13432,24942 L 13609,25043 18368,16715 18192,16614 13432,24942 Z"/>
         <path fill="rgb(239,242,246)" stroke="none" d="M 13588,25032 L 13609,25043 18368,16715 18348,16703 13588,25032 Z"/>
        </g>
        <g clip-path="url(#clip_path_3)"/>
        <g clip-path="url(#clip_path_1)">
         <path fill="rgb(0,0,0)" stroke="none" d="M 8185,14514 L 8185,15054 8272,15054 8272,14774 C 8272,14696 8291,14646 8333,14616 8360,14597 8385,14590 8445,14589 L 8445,14502 C 8431,14500 8424,14498 8412,14498 8356,14498 8314,14532 8265,14612 L 8265,14514 8185,14514 Z"/>
         <path fill="rgb(0,0,0)" stroke="none" d="M 8738,14498 C 8586,14498 8495,14607 8495,14789 8495,14970 8585,15078 8739,15078 8891,15078 8984,14970 8984,14792 8984,14606 8894,14498 8738,14498 L 8738,14498 Z M 8739,14578 C 8836,14578 8894,14657 8894,14791 8894,14918 8834,14999 8739,14999 8643,14999 8584,14919 8584,14789 8584,14658 8643,14578 8739,14578 L 8739,14578 Z"/>
         <path fill="rgb(0,0,0)" stroke="none" d="M 9293,14514 L 9204,14514 9204,14366 9119,14366 9119,14514 9045,14514 9045,14584 9119,14584 9119,14992 C 9119,15047 9156,15078 9223,15078 9244,15078 9264,15076 9293,15071 L 9293,14999 C 9281,15002 9268,15003 9252,15003 9214,15003 9204,14992 9204,14954 L 9204,14584 9293,14584 9293,14514 Z"/>
         <path fill="rgb(0,0,0)" stroke="none" d="M 9869,15004 C 9860,15006 9856,15006 9851,15006 9821,15006 9804,14990 9804,14964 L 9804,14646 C 9804,14550 9734,14498 9601,14498 9523,14498 9458,14521 9422,14561 9397,14589 9387,14620 9384,14674 L 9471,14674 C 9478,14608 9518,14578 9598,14578 9676,14578 9719,14607 9719,14658 L 9719,14681 C 9719,14717 9697,14733 9629,14741 9507,14757 9489,14760 9456,14774 9393,14800 9361,14848 9361,14918 9361,15016 9429,15078 9538,15078 9606,15078 9661,15054 9722,14999 9728,15053 9755,15078 9811,15078 9828,15078 9842,15076 9869,15069 L 9869,15004 Z M 9719,14884 C 9719,14913 9710,14931 9685,14954 9650,14986 9607,15003 9557,15003 9490,15003 9451,14971 9451,14916 9451,14860 9489,14831 9581,14817 9671,14805 9690,14801 9719,14788 L 9719,14884 Z"/>
         <path fill="rgb(0,0,0)" stroke="none" d="M 10153,14514 L 10064,14514 10064,14366 9979,14366 9979,14514 9906,14514 9906,14584 9979,14584 9979,14992 C 9979,15047 10016,15078 10083,15078 10104,15078 10124,15076 10153,15071 L 10153,14999 C 10141,15002 10128,15003 10112,15003 10075,15003 10064,14992 10064,14954 L 10064,14584 10153,14584 10153,14514 Z"/>
         <path fill="rgb(0,0,0)" stroke="none" d="M 10707,14813 C 10707,14730 10700,14681 10685,14641 10650,14552 10568,14498 10466,14498 10316,14498 10219,14614 10219,14791 10219,14969 10313,15078 10464,15078 10588,15078 10674,15008 10696,14890 L 10609,14890 C 10585,14961 10537,14999 10467,14999 10413,14999 10367,14974 10338,14928 10317,14897 10310,14867 10308,14813 L 10707,14813 Z M 10311,14743 C 10318,14643 10379,14578 10465,14578 10550,14578 10615,14648 10615,14737 10615,14739 10615,14741 10614,14743 L 10311,14743 Z"/>
         <path fill="rgb(0,0,0)" stroke="none" d="M 11347,15184 L 10728,15184 10728,15236 11347,15236 11347,15184 Z"/>
         <path fill="rgb(0,0,0)" stroke="none" d="M 11481,14303 L 11395,14303 11395,15054 11481,15054 11481,14303 Z"/>
         <path fill="rgb(0,0,0)" stroke="none" d="M 12082,14813 C 12082,14730 12076,14681 12061,14641 12026,14552 11943,14498 11842,14498 11691,14498 11595,14614 11595,14791 11595,14969 11689,15078 11840,15078 11964,15078 12049,15008 12071,14890 L 11985,14890 C 11961,14961 11912,14999 11843,14999 11788,14999 11742,14974 11713,14928 11692,14897 11686,14867 11684,14813 L 12082,14813 Z M 11687,14743 C 11694,14643 11754,14578 11841,14578 11926,14578 11991,14648 11991,14737 11991,14739 11991,14741 11990,14743 L 11687,14743 Z"/>
         <path fill="rgb(0,0,0)" stroke="none" d="M 12393,14514 L 12303,14514 12303,14430 C 12303,14393 12324,14375 12363,14375 12370,14375 12373,14375 12393,14376 L 12393,14305 C 12373,14301 12362,14300 12344,14300 12265,14300 12217,14345 12217,14422 L 12217,14514 12145,14514 12145,14584 12217,14584 12217,15054 12303,15054 12303,14584 12393,14584 12393,14514 Z"/>
         <path fill="rgb(0,0,0)" stroke="none" d="M 12676,14514 L 12587,14514 12587,14366 12501,14366 12501,14514 12428,14514 12428,14584 12501,14584 12501,14992 C 12501,15047 12538,15078 12605,15078 12626,15078 12646,15076 12676,15071 L 12676,14999 C 12664,15002 12651,15003 12634,15003 12597,15003 12587,14992 12587,14954 L 12587,14584 12676,14584 12676,14514 Z"/>
         <path fill="rgb(0,0,0)" stroke="none" d="M 13296,15184 L 12677,15184 12677,15236 13296,15236 13296,15184 Z"/>
         <path fill="rgb(0,0,0)" stroke="none" d="M 13557,14324 C 13489,14324 13427,14353 13389,14404 13342,14468 13318,14566 13318,14701 13318,14947 13400,15078 13557,15078 13712,15078 13796,14947 13796,14707 13796,14565 13774,14470 13726,14404 13687,14352 13626,14324 13557,14324 L 13557,14324 Z M 13557,14404 C 13655,14404 13704,14503 13704,14698 13704,14906 13656,15003 13555,15003 13459,15003 13411,14902 13411,14702 13411,14502 13459,14404 13557,14404 L 13557,14404 Z"/>
         <path fill="rgb(63,110,158)" stroke="none" d="M 7354,21311 L 7354,21852 7441,21852 7441,21571 C 7441,21494 7460,21443 7501,21413 7528,21394 7554,21388 7614,21387 L 7614,21299 C 7600,21297 7592,21295 7581,21295 7525,21295 7483,21329 7434,21409 L 7434,21311 7354,21311 Z"/>
         <path fill="rgb(63,110,158)" stroke="none" d="M 7907,21295 C 7755,21295 7664,21404 7664,21586 7664,21767 7754,21875 7908,21875 8059,21875 8152,21767 8152,21589 8152,21403 8063,21295 7907,21295 L 7907,21295 Z M 7908,21375 C 8005,21375 8063,21454 8063,21589 8063,21715 8003,21796 7908,21796 7812,21796 7753,21716 7753,21586 7753,21455 7812,21375 7908,21375 L 7908,21375 Z"/>
         <path fill="rgb(63,110,158)" stroke="none" d="M 8462,21311 L 8373,21311 8373,21163 8287,21163 8287,21311 8214,21311 8214,21381 8287,21381 8287,21790 C 8287,21844 8325,21875 8392,21875 8412,21875 8433,21873 8462,21868 L 8462,21796 C 8450,21799 8437,21800 8421,21800 8383,21800 8373,21790 8373,21751 L 8373,21381 8462,21381 8462,21311 Z"/>
         <path fill="rgb(63,110,158)" stroke="none" d="M 9038,21801 C 9029,21803 9025,21803 9020,21803 8990,21803 8973,21788 8973,21761 L 8973,21443 C 8973,21347 8903,21295 8770,21295 8692,21295 8627,21318 8591,21358 8566,21387 8556,21418 8553,21471 L 8640,21471 C 8647,21405 8686,21375 8767,21375 8844,21375 8887,21404 8887,21455 L 8887,21478 C 8887,21514 8866,21530 8798,21538 8676,21554 8657,21558 8624,21571 8561,21597 8529,21645 8529,21715 8529,21813 8598,21875 8707,21875 8775,21875 8830,21852 8891,21796 8897,21851 8924,21875 8980,21875 8997,21875 9011,21873 9038,21866 L 9038,21801 Z M 8887,21682 C 8887,21710 8879,21728 8854,21751 8819,21783 8776,21800 8726,21800 8659,21800 8620,21768 8620,21713 8620,21657 8657,21628 8749,21614 8840,21602 8859,21598 8887,21585 L 8887,21682 Z"/>
         <path fill="rgb(63,110,158)" stroke="none" d="M 9322,21311 L 9233,21311 9233,21163 9147,21163 9147,21311 9074,21311 9074,21381 9147,21381 9147,21790 C 9147,21844 9185,21875 9252,21875 9272,21875 9293,21873 9322,21868 L 9322,21796 C 9310,21799 9297,21800 9281,21800 9243,21800 9233,21790 9233,21751 L 9233,21381 9322,21381 9322,21311 Z"/>
         <path fill="rgb(63,110,158)" stroke="none" d="M 9875,21610 C 9875,21527 9869,21478 9854,21438 9819,21349 9736,21295 9635,21295 9485,21295 9388,21411 9388,21589 9388,21766 9482,21875 9633,21875 9757,21875 9843,21805 9864,21687 L 9778,21687 C 9754,21759 9705,21796 9636,21796 9581,21796 9535,21771 9506,21726 9485,21695 9479,21664 9477,21610 L 9875,21610 Z M 9480,21540 C 9487,21440 9547,21375 9634,21375 9719,21375 9784,21445 9784,21534 9784,21536 9784,21538 9783,21540 L 9480,21540 Z"/>
         <path fill="rgb(63,110,158)" stroke="none" d="M 10516,21981 L 9897,21981 9897,22033 10516,22033 10516,21981 Z"/>
         <path fill="rgb(63,110,158)" stroke="none" d="M 10650,21100 L 10563,21100 10563,21852 10650,21852 10650,21100 Z"/>
         <path fill="rgb(63,110,158)" stroke="none" d="M 11251,21610 C 11251,21527 11245,21478 11229,21438 11194,21349 11112,21295 11011,21295 10860,21295 10763,21411 10763,21589 10763,21766 10857,21875 11009,21875 11132,21875 11218,21805 11240,21687 L 11153,21687 C 11130,21759 11081,21796 11012,21796 10957,21796 10911,21771 10882,21726 10861,21695 10854,21664 10853,21610 L 11251,21610 Z M 10855,21540 C 10863,21440 10923,21375 11010,21375 11095,21375 11160,21445 11160,21534 11160,21536 11160,21538 11159,21540 L 10855,21540 Z"/>
         <path fill="rgb(63,110,158)" stroke="none" d="M 11562,21311 L 11472,21311 11472,21227 C 11472,21190 11493,21172 11532,21172 11539,21172 11542,21172 11562,21173 L 11562,21102 C 11542,21098 11531,21097 11513,21097 11434,21097 11386,21142 11386,21219 L 11386,21311 11314,21311 11314,21381 11386,21381 11386,21852 11472,21852 11472,21381 11562,21381 11562,21311 Z"/>
         <path fill="rgb(63,110,158)" stroke="none" d="M 11844,21311 L 11756,21311 11756,21163 11670,21163 11670,21311 11597,21311 11597,21381 11670,21381 11670,21790 C 11670,21844 11707,21875 11774,21875 11795,21875 11815,21873 11844,21868 L 11844,21796 C 11833,21799 11820,21800 11803,21800 11766,21800 11756,21790 11756,21751 L 11756,21381 11844,21381 11844,21311 Z"/>
         <path fill="rgb(63,110,158)" stroke="none" d="M 12465,21981 L 11846,21981 11846,22033 12465,22033 12465,21981 Z"/>
         <path fill="rgb(63,110,158)" stroke="none" d="M 12736,21852 L 12944,21311 12847,21311 12694,21749 12549,21311 12453,21311 12642,21852 12736,21852 Z"/>
         <path fill="rgb(63,110,158)" stroke="none" d="M 13225,21331 L 13225,21852 13316,21852 13316,21121 13256,21121 C 13224,21233 13204,21248 13063,21266 L 13063,21331 13225,21331 Z"/>
         <path fill="rgb(63,110,158)" stroke="none" d="M 14128,21981 L 13509,21981 13509,22033 14128,22033 14128,21981 Z"/>
         <path fill="rgb(63,110,158)" stroke="none" d="M 14388,21121 C 14320,21121 14258,21150 14220,21201 14173,21265 14149,21363 14149,21498 14149,21744 14232,21875 14388,21875 14543,21875 14627,21744 14627,21504 14627,21362 14605,21267 14557,21201 14518,21149 14457,21121 14388,21121 L 14388,21121 Z M 14388,21201 C 14486,21201 14535,21300 14535,21496 14535,21703 14487,21800 14386,21800 14290,21800 14242,21699 14242,21499 14242,21299 14290,21201 14388,21201 L 14388,21201 Z"/>
         <path fill="none" stroke="rgb(0,0,0)" stroke-width="430" stroke-linejoin="miter" d="M 4965,17158 L 5824,17158"/>
         <path fill="rgb(0,0,0)" stroke="none" d="M 6403,17278 L 6468,17467 6557,17467 6337,16841 6234,16841 6011,17467 6096,17467 6162,17278 6403,17278 Z M 6381,17212 L 6182,17212 6285,16926 6381,17212 Z"/>
         <path fill="rgb(0,0,0)" stroke="none" d="M 7066,17575 L 6550,17575 6550,17618 7066,17618 7066,17575 Z"/>
         <path fill="rgb(0,0,0)" stroke="none" d="M 7176,17016 L 7105,17016 7105,17467 7176,17467 7176,17016 Z M 7176,16841 L 7104,16841 7104,16931 7176,16931 7176,16841 Z"/>
         <path fill="rgb(0,0,0)" stroke="none" d="M 7453,16841 L 7293,16841 7293,17649 7453,17649 7453,17587 7364,17587 7364,16902 7453,16902 7453,16841 Z"/>
         <path fill="rgb(0,0,0)" stroke="none" d="M 7667,17187 L 7676,17187 7708,17187 C 7791,17187 7834,17225 7834,17298 7834,17374 7787,17419 7708,17419 7625,17419 7585,17378 7580,17290 L 7504,17290 C 7508,17339 7516,17370 7531,17398 7562,17457 7622,17487 7705,17487 7831,17487 7912,17412 7912,17297 7912,17219 7882,17176 7809,17152 7865,17129 7893,17086 7893,17025 7893,16920 7824,16858 7708,16858 7585,16858 7520,16925 7517,17054 L 7593,17054 C 7594,17017 7597,16997 7607,16978 7624,16944 7661,16924 7709,16924 7776,16924 7816,16963 7816,17028 7816,17071 7801,17096 7767,17110 7747,17119 7720,17122 7667,17123 L 7667,17187 Z"/>
         <path fill="rgb(0,0,0)" stroke="none" d="M 8139,17378 L 8049,17378 8049,17467 8139,17467 8139,17378 Z M 8139,17016 L 8049,17016 8049,17106 8139,17106 8139,17016 Z"/>
         <path fill="rgb(0,0,0)" stroke="none" d="M 8430,16858 C 8373,16858 8321,16883 8290,16925 8250,16978 8230,17059 8230,17172 8230,17378 8299,17487 8430,17487 8559,17487 8629,17378 8629,17177 8629,17059 8610,16980 8570,16925 8538,16882 8488,16858 8430,16858 L 8430,16858 Z M 8430,16925 C 8511,16925 8552,17007 8552,17170 8552,17343 8512,17424 8428,17424 8348,17424 8308,17339 8308,17173 8308,17006 8348,16925 8430,16925 L 8430,16925 Z"/>
         <path fill="rgb(0,0,0)" stroke="none" d="M 8691,17649 L 8851,17649 8851,16841 8691,16841 8691,16902 8780,16902 8780,17587 8691,17587 8691,17649 Z"/>
         <path fill="none" stroke="rgb(0,0,0)" stroke-width="258" stroke-linejoin="miter" d="M 4965,18877 L 5824,18877"/>
         <path fill="rgb(0,0,0)" stroke="none" d="M 6565,18753 C 6540,18616 6461,18549 6324,18549 6239,18549 6171,18575 6125,18627 6068,18689 6037,18778 6037,18879 6037,18983 6069,19071 6128,19132 6177,19182 6238,19205 6320,19205 6473,19205 6559,19122 6578,18957 L 6495,18957 C 6489,19000 6480,19029 6467,19054 6441,19106 6388,19135 6321,19135 6196,19135 6117,19035 6117,18879 6117,18718 6193,18619 6314,18619 6365,18619 6412,18635 6438,18659 6461,18680 6474,18707 6483,18753 L 6565,18753 Z"/>
         <path fill="rgb(0,0,0)" stroke="none" d="M 7113,19294 L 6598,19294 6598,19337 7113,19337 7113,19294 Z"/>
         <path fill="rgb(0,0,0)" stroke="none" d="M 7223,18735 L 7152,18735 7152,19185 7223,19185 7223,18735 Z M 7223,18559 L 7151,18559 7151,18649 7223,18649 7223,18559 Z"/>
         <path fill="none" stroke="rgb(0,0,0)" stroke-width="430" stroke-linejoin="miter" d="M 16996,17158 L 16137,17158"/>
         <path fill="rgb(0,0,0)" stroke="none" d="M 13097,17221 L 13332,16841 13237,16841 13058,17146 12874,16841 12775,16841 13017,17221 13017,17467 13097,17467 13097,17221 Z"/>
         <path fill="rgb(0,0,0)" stroke="none" d="M 13833,17575 L 13318,17575 13318,17618 13833,17618 13833,17575 Z"/>
         <path fill="rgb(0,0,0)" stroke="none" d="M 14049,17004 C 13922,17004 13846,17094 13846,17245 13846,17397 13921,17487 14049,17487 14176,17487 14253,17397 14253,17248 14253,17093 14178,17004 14049,17004 L 14049,17004 Z M 14049,17070 C 14130,17070 14178,17136 14178,17248 14178,17353 14129,17420 14049,17420 13969,17420 13920,17354 13920,17245 13920,17137 13969,17070 14049,17070 L 14049,17070 Z"/>
         <path fill="rgb(0,0,0)" stroke="none" d="M 14508,16841 L 14348,16841 14348,17649 14508,17649 14508,17587 14419,17587 14419,16902 14508,16902 14508,16841 Z"/>
         <path fill="rgb(0,0,0)" stroke="none" d="M 14721,17187 L 14731,17187 14763,17187 C 14846,17187 14889,17225 14889,17298 14889,17374 14842,17419 14763,17419 14680,17419 14640,17378 14635,17290 L 14559,17290 C 14563,17339 14571,17370 14586,17398 14617,17457 14677,17487 14760,17487 14886,17487 14967,17412 14967,17297 14967,17219 14936,17176 14863,17152 14920,17129 14948,17086 14948,17025 14948,16920 14879,16858 14763,16858 14640,16858 14575,16925 14572,17054 L 14647,17054 C 14648,17017 14652,16997 14661,16978 14678,16944 14716,16924 14764,16924 14830,16924 14871,16963 14871,17028 14871,17071 14856,17096 14822,17110 14801,17119 14775,17122 14721,17123 L 14721,17187 Z"/>
         <path fill="rgb(0,0,0)" stroke="none" d="M 15193,17378 L 15104,17378 15104,17467 15193,17467 15193,17378 Z M 15193,17016 L 15104,17016 15104,17106 15193,17106 15193,17016 Z"/>
         <path fill="rgb(0,0,0)" stroke="none" d="M 15485,16858 C 15428,16858 15376,16883 15345,16925 15305,16978 15285,17059 15285,17172 15285,17378 15354,17487 15485,17487 15614,17487 15684,17378 15684,17177 15684,17059 15665,16980 15625,16925 15593,16882 15542,16858 15485,16858 L 15485,16858 Z M 15485,16925 C 15566,16925 15607,17007 15607,17170 15607,17343 15567,17424 15483,17424 15403,17424 15363,17339 15363,17173 15363,17006 15403,16925 15485,16925 L 15485,16925 Z"/>
         <path fill="rgb(0,0,0)" stroke="none" d="M 15746,17649 L 15906,17649 15906,16841 15746,16841 15746,16902 15835,16902 15835,17587 15746,17587 15746,17649 Z"/>
         <path fill="none" stroke="rgb(0,0,0)" stroke-width="258" stroke-linejoin="miter" d="M 16996,18877 L 16137,18877"/>
         <path fill="rgb(0,0,0)" stroke="none" d="M 14958,18753 C 14933,18616 14854,18549 14716,18549 14632,18549 14564,18575 14518,18627 14461,18689 14430,18778 14430,18879 14430,18983 14462,19071 14521,19132 14570,19182 14631,19205 14713,19205 14866,19205 14952,19122 14971,18957 L 14888,18957 C 14882,19000 14873,19029 14860,19054 14834,19106 14781,19135 14714,19135 14589,19135 14510,19035 14510,18879 14510,18718 14586,18619 14707,18619 14758,18619 14805,18635 14831,18659 14854,18680 14866,18707 14876,18753 L 14958,18753 Z"/>
         <path fill="rgb(0,0,0)" stroke="none" d="M 15506,19294 L 14990,19294 14990,19337 15506,19337 15506,19294 Z"/>
         <path fill="rgb(0,0,0)" stroke="none" d="M 15721,18722 C 15595,18722 15518,18812 15518,18964 15518,19115 15594,19205 15722,19205 15848,19205 15926,19115 15926,18967 15926,18812 15850,18722 15721,18722 L 15721,18722 Z M 15722,18788 C 15803,18788 15850,18855 15850,18967 15850,19072 15801,19139 15722,19139 15642,19139 15593,19073 15593,18964 15593,18856 15642,18788 15722,18788 L 15722,18788 Z"/>
         <path fill="none" stroke="rgb(63,110,158)" stroke-width="86" stroke-linejoin="miter" d="M 6426,15440 L 15535,15440"/>
         <path fill="none" stroke="rgb(63,110,158)" stroke-width="86" stroke-linejoin="miter" d="M 16137,16041 C 16137,16032 16137,16022 16137,16013 16129,15688 15860,15432 15535,15440"/>
         <path fill="none" stroke="rgb(63,110,158)" stroke-width="86" stroke-linejoin="miter" d="M 16137,16041 L 16137,19994"/>
         <path fill="none" stroke="rgb(63,110,158)" stroke-width="86" stroke-linejoin="miter" d="M 15535,20596 C 15545,20596 15554,20596 15564,20596 15888,20588 16145,20318 16137,19994"/>
         <path fill="none" stroke="rgb(63,110,158)" stroke-width="86" stroke-linejoin="miter" d="M 15535,20596 L 6426,20596"/>
         <path fill="none" stroke="rgb(63,110,158)" stroke-width="86" stroke-linejoin="miter" d="M 5824,19994 C 5824,20004 5824,20013 5824,20023 5832,20347 6101,20603 6426,20596"/>
         <path fill="none" stroke="rgb(63,110,158)" stroke-width="86" stroke-linejoin="miter" d="M 5824,19994 L 5824,16041"/>
         <path fill="none" stroke="rgb(63,110,158)" stroke-width="86" stroke-linejoin="miter" d="M 6426,15440 C 6416,15440 6407,15440 6397,15440 6073,15448 5816,15717 5824,16041"/>
        </g>
       </g>
      </g>
     </g>
    </g>
   </g>
  </g>
 </g>
</svg>