<?xml version="1.0" encoding="UTF-8"?>
<!DOCTYPE svg PUBLIC "-//W3C//DTD SVG 1.1//EN" "http://www.w3.org/Graphics/SVG/1.1/DTD/svg11.dtd">
<svg version="1.2" width="119.99mm" height="76.99mm" viewBox="4800 10000 11999 7699" preserveAspectRatio="xMidYMid" fill-rule="evenodd" stroke-width="28.222" stroke-linejoin="round" xmlns="http://www.w3.org/2000/svg" xmlns:ooo="http://xml.openoffice.org/svg/export" xmlns:xlink="http://www.w3.org/1999/xlink" xmlns:presentation="http://sun.com/xmlns/staroffice/presentation" xmlns:smil="http://www.w3.org/2001/SMIL20/" xmlns:anim="urn:oasis:names:tc:opendocument:xmlns:animation:1.0" xml:space="preserve">
 <defs class="ClipPathGroup">
  <clipPath id="presentation_clip_path" clipPathUnits="userSpaceOnUse">
   <rect x="4800" y="10000" width="11999" height="7699"/>
  </clipPath>
  <clipPath id="presentation_clip_path_shrink" clipPathUnits="userSpaceOnUse">
   <rect x="4811" y="10007" width="11976" height="7684"/>
  </clipPath>
 </defs>
 <defs class="TextShapeIndex">
  <g ooo:slide="id1" ooo:id-list="id3"/>
 </defs>
 <defs class="EmbeddedBulletChars">
  <g id="bullet-char-template-57356" transform="scale(0.00048828125,-0.00048828125)">
   <path d="M 580,1141 L 1163,571 580,0 -4,571 580,1141 Z"/>
  </g>
  <g id="bullet-char-template-57354" transform="scale(0.00048828125,-0.00048828125)">
   <path d="M 8,1128 L 1137,1128 1137,0 8,0 8,1128 Z"/>
  </g>
  <g id="bullet-char-template-10146" transform="scale(0.00048828125,-0.00048828125)">
   <path d="M 174,0 L 602,739 174,1481 1456,739 174,0 Z M 1358,739 L 309,1346 659,739 1358,739 Z"/>
  </g>
  <g id="bullet-char-template-10132" transform="scale(0.00048828125,-0.00048828125)">
   <path d="M 2015,739 L 1276,0 717,0 1260,543 174,543 174,936 1260,936 717,1481 1274,1481 2015,739 Z"/>
  </g>
  <g id="bullet-char-template-10007" transform="scale(0.00048828125,-0.00048828125)">
   <path d="M 0,-2 C -7,14 -16,27 -25,37 L 356,567 C 262,823 215,952 215,954 215,979 228,992 255,992 264,992 276,990 289,987 310,991 331,999 354,1012 L 381,999 492,748 772,1049 836,1024 860,1049 C 881,1039 901,1025 922,1006 886,937 835,863 770,784 769,783 710,716 594,584 L 774,223 C 774,196 753,168 711,139 L 727,119 C 717,90 699,76 672,76 641,76 570,178 457,381 L 164,-76 C 142,-110 111,-127 72,-127 30,-127 9,-110 8,-76 1,-67 -2,-52 -2,-32 -2,-23 -1,-13 0,-2 Z"/>
  </g>
  <g id="bullet-char-template-10004" transform="scale(0.00048828125,-0.00048828125)">
   <path d="M 285,-33 C 182,-33 111,30 74,156 52,228 41,333 41,471 41,549 55,616 82,672 116,743 169,778 240,778 293,778 328,747 346,684 L 369,508 C 377,444 397,411 428,410 L 1163,1116 C 1174,1127 1196,1133 1229,1133 1271,1133 1292,1118 1292,1087 L 1292,965 C 1292,929 1282,901 1262,881 L 442,47 C 390,-6 338,-33 285,-33 Z"/>
  </g>
  <g id="bullet-char-template-9679" transform="scale(0.00048828125,-0.00048828125)">
   <path d="M 813,0 C 632,0 489,54 383,161 276,268 223,411 223,592 223,773 276,916 383,1023 489,1130 632,1184 813,1184 992,1184 1136,1130 1245,1023 1353,916 1407,772 1407,592 1407,412 1353,268 1245,161 1136,54 992,0 813,0 Z"/>
  </g>
  <g id="bullet-char-template-8226" transform="scale(0.00048828125,-0.00048828125)">
   <path d="M 346,457 C 273,457 209,483 155,535 101,586 74,649 74,723 74,796 101,859 155,911 209,963 273,989 346,989 419,989 480,963 531,910 582,859 608,796 608,723 608,648 583,586 532,535 482,483 420,457 346,457 Z"/>
  </g>
  <g id="bullet-char-template-8211" transform="scale(0.00048828125,-0.00048828125)">
   <path d="M -4,459 L 1135,459 1135,606 -4,606 -4,459 Z"/>
  </g>
  <g id="bullet-char-template-61548" transform="scale(0.00048828125,-0.00048828125)">
   <path d="M 173,740 C 173,903 231,1043 346,1159 462,1274 601,1332 765,1332 928,1332 1067,1274 1183,1159 1299,1043 1357,903 1357,740 1357,577 1299,437 1183,322 1067,206 928,148 765,148 601,148 462,206 346,322 231,437 173,577 173,740 Z"/>
  </g>
 </defs>
 <defs class="TextEmbeddedBitmaps"/>
 <g class="SlideGroup">
  <g>
   <g id="container-id1">
    <g id="id1" class="Slide" clip-path="url(#presentation_clip_path)">
     <g class="Page">
      <g class="Graphic">
       <g id="id3">
        <rect class="BoundingBox" stroke="none" fill="none" x="4800" y="10000" width="12000" height="7700"/>
        <defs>
         <clipPath id="clip_path_1" clipPathUnits="userSpaceOnUse">
          <path d="M 4800,10000 L 16799,10000 16799,17699 4800,17699 4800,10000 Z"/>
         </clipPath>
        </defs>
        <g clip-path="url(#clip_path_1)"/>
        <defs>
         <clipPath id="clip_path_2" clipPathUnits="userSpaceOnUse">
          <path d="M 4800,10000 L 16799,10000 16799,17699 4800,17699 4800,10000 Z"/>
         </clipPath>
        </defs>
        <g clip-path="url(#clip_path_2)">
         <path fill="rgb(255,255,255)" stroke="none" d="M 2107,9132 L 19295,9132 19295,19364 2107,19364 2107,9132 Z"/>
        </g>
        <g clip-path="url(#clip_path_1)">
         <path fill="rgb(0,0,0)" stroke="none" d="M 6950,11866 L 15232,11866 15466,11944 15623,12022 15701,12179 15779,12413 15779,16006 15701,16240 15623,16396 15466,16474 15232,16552 6950,16552 6716,16474 6560,16396 6482,16240 6404,16006 6404,12413 6482,12179 6560,12022 6716,11944 6950,11866 Z"/>
        </g>
        <defs>
         <clipPath id="clip_path_3" clipPathUnits="userSpaceOnUse">
          <path d="M 6560,11476 L 14841,11476 15076,11554 15232,11632 15310,11788 15388,12022 15388,15615 15310,15850 15232,16006 15076,16084 14841,16162 6560,16162 6325,16084 6169,16006 6091,15850 6013,15615 6013,12022 6091,11788 6169,11632 6325,11554 6560,11476 Z"/>
         </clipPath>
        </defs>
        <g clip-path="url(#clip_path_3)"/>
        <defs>
         <clipPath id="clip_path_4" clipPathUnits="userSpaceOnUse">
          <path d="M 6560,11476 L 14841,11476 15076,11554 15232,11632 15310,11788 15388,12022 15388,15615 15310,15850 15232,16006 15076,16084 14841,16162 6560,16162 6325,16084 6169,16006 6091,15850 6013,15615 6013,12022 6091,11788 6169,11632 6325,11554 6560,11476 Z"/>
         </clipPath>
        </defs>
        <g clip-path="url(#clip_path_4)">
         <path fill="rgb(189,212,236)" stroke="none" d="M 3983,15002 L 4146,15095 8473,7525 8310,7432 3983,15002 Z"/>
         <path fill="rgb(190,212,236)" stroke="none" d="M 4125,15084 L 4288,15176 8615,7606 8452,7513 4125,15084 Z"/>
         <path fill="rgb(190,213,236)" stroke="none" d="M 4267,15165 L 4430,15258 8757,7687 8594,7595 4267,15165 Z"/>
         <path fill="rgb(191,213,237)" stroke="none" d="M 4409,15246 L 4572,15339 8899,7769 8736,7676 4409,15246 Z"/>
         <path fill="rgb(192,214,237)" stroke="none" d="M 4551,15327 L 4714,15420 9041,7850 8878,7757 4551,15327 Z"/>
         <path fill="rgb(193,214,237)" stroke="none" d="M 4693,15408 L 4856,15501 9183,7931 9020,7838 4693,15408 Z"/>
         <path fill="rgb(193,215,237)" stroke="none" d="M 4835,15489 L 4998,15582 9325,8012 9162,7919 4835,15489 Z"/>
         <path fill="rgb(194,215,237)" stroke="none" d="M 4977,15570 L 5140,15663 9467,8093 9304,8000 4977,15570 Z"/>
         <path fill="rgb(195,216,237)" stroke="none" d="M 5119,15651 L 5282,15744 9609,8174 9446,8081 5119,15651 Z"/>
         <path fill="rgb(196,216,237)" stroke="none" d="M 5261,15732 L 5424,15825 9751,8255 9588,8162 5261,15732 Z"/>
         <path fill="rgb(197,217,238)" stroke="none" d="M 5403,15814 L 5566,15906 9893,8336 9730,8243 5403,15814 Z"/>
         <path fill="rgb(197,217,238)" stroke="none" d="M 5545,15895 L 5708,15988 10035,8417 9872,8325 5545,15895 Z"/>
         <path fill="rgb(198,218,238)" stroke="none" d="M 5687,15976 L 5850,16069 10177,8499 10014,8406 5687,15976 Z"/>
         <path fill="rgb(199,218,238)" stroke="none" d="M 5829,16057 L 5992,16150 10319,8580 10156,8487 5829,16057 Z"/>
         <path fill="rgb(200,218,238)" stroke="none" d="M 5971,16138 L 6023,16168 10350,8598 10298,8568 5971,16138 Z"/>
         <path fill="rgb(200,219,238)" stroke="none" d="M 6003,16156 L 6134,16231 10461,8661 10330,8586 6003,16156 Z"/>
         <path fill="rgb(201,219,238)" stroke="none" d="M 6113,16219 L 6276,16312 10603,8742 10440,8649 6113,16219 Z"/>
         <path fill="rgb(201,219,239)" stroke="none" d="M 6255,16300 L 6418,16393 10745,8823 10582,8730 6255,16300 Z"/>
         <path fill="rgb(202,220,239)" stroke="none" d="M 6397,16381 L 6560,16474 10887,8904 10724,8811 6397,16381 Z"/>
         <path fill="rgb(203,220,239)" stroke="none" d="M 6539,16462 L 6702,16555 11029,8985 10866,8892 6539,16462 Z"/>
         <path fill="rgb(204,221,239)" stroke="none" d="M 6681,16544 L 6844,16636 11171,9066 11008,8973 6681,16544 Z"/>
         <path fill="rgb(204,221,239)" stroke="none" d="M 6823,16625 L 6986,16717 11313,9147 11150,9055 6823,16625 Z"/>
         <path fill="rgb(205,222,239)" stroke="none" d="M 6965,16706 L 7128,16799 11455,9228 11292,9136 6965,16706 Z"/>
         <path fill="rgb(206,222,239)" stroke="none" d="M 7107,16787 L 7269,16880 11597,9310 11434,9217 7107,16787 Z"/>
         <path fill="rgb(207,223,240)" stroke="none" d="M 7249,16868 L 7411,16961 11739,9391 11576,9298 7249,16868 Z"/>
         <path fill="rgb(207,223,240)" stroke="none" d="M 7391,16949 L 7553,17042 11881,9472 11718,9379 7391,16949 Z"/>
         <path fill="rgb(208,224,240)" stroke="none" d="M 7533,17030 L 7695,17123 12023,9553 11860,9460 7533,17030 Z"/>
         <path fill="rgb(209,224,240)" stroke="none" d="M 7675,17111 L 7837,17204 12165,9634 12002,9541 7675,17111 Z"/>
         <path fill="rgb(210,225,240)" stroke="none" d="M 7817,17192 L 7979,17285 12307,9715 12144,9622 7817,17192 Z"/>
         <path fill="rgb(211,225,240)" stroke="none" d="M 7959,17274 L 8121,17366 12448,9796 12286,9703 7959,17274 Z"/>
         <path fill="rgb(211,225,241)" stroke="none" d="M 8101,17355 L 8263,17447 12590,9877 12428,9785 8101,17355 Z"/>
         <path fill="rgb(212,226,241)" stroke="none" d="M 8243,17436 L 8405,17529 12732,9958 12570,9866 8243,17436 Z"/>
         <path fill="rgb(213,226,241)" stroke="none" d="M 8385,17517 L 8547,17610 12874,10040 12712,9947 8385,17517 Z"/>
         <path fill="rgb(214,227,241)" stroke="none" d="M 8527,17598 L 8689,17691 13016,10121 12854,10028 8527,17598 Z"/>
         <path fill="rgb(214,227,241)" stroke="none" d="M 8669,17679 L 8831,17772 13158,10202 12996,10109 8669,17679 Z"/>
         <path fill="rgb(215,228,241)" stroke="none" d="M 8811,17760 L 8973,17853 13300,10283 13138,10190 8811,17760 Z"/>
         <path fill="rgb(216,228,241)" stroke="none" d="M 8953,17841 L 9115,17934 13442,10364 13280,10271 8953,17841 Z"/>
         <path fill="rgb(217,229,242)" stroke="none" d="M 9095,17922 L 9257,18015 13584,10445 13422,10352 9095,17922 Z"/>
         <path fill="rgb(218,229,242)" stroke="none" d="M 9237,18003 L 9399,18096 13726,10526 13564,10433 9237,18003 Z"/>
         <path fill="rgb(218,230,242)" stroke="none" d="M 9379,18085 L 9541,18177 13868,10607 13706,10515 9379,18085 Z"/>
         <path fill="rgb(219,230,242)" stroke="none" d="M 9521,18166 L 9683,18259 14010,10688 13848,10596 9521,18166 Z"/>
         <path fill="rgb(220,231,242)" stroke="none" d="M 9663,18247 L 9825,18340 14152,10770 13990,10677 9663,18247 Z"/>
         <path fill="rgb(221,231,242)" stroke="none" d="M 9805,18328 L 9967,18421 14294,10851 14132,10758 9805,18328 Z"/>
         <path fill="rgb(221,232,243)" stroke="none" d="M 9947,18409 L 10109,18502 14436,10932 14274,10839 9947,18409 Z"/>
         <path fill="rgb(222,232,243)" stroke="none" d="M 10089,18490 L 10251,18583 14578,11013 14416,10920 10089,18490 Z"/>
         <path fill="rgb(223,232,243)" stroke="none" d="M 10231,18571 L 10393,18664 14720,11094 14558,11001 10231,18571 Z"/>
         <path fill="rgb(224,233,243)" stroke="none" d="M 10373,18652 L 10535,18745 14862,11175 14700,11082 10373,18652 Z"/>
         <path fill="rgb(225,233,243)" stroke="none" d="M 10515,18733 L 10677,18826 15004,11256 14842,11163 10515,18733 Z"/>
         <path fill="rgb(225,234,243)" stroke="none" d="M 10657,18815 L 10819,18907 15146,11337 14984,11244 10657,18815 Z"/>
         <path fill="rgb(226,234,244)" stroke="none" d="M 10799,18896 L 10961,18989 15288,11418 15126,11326 10799,18896 Z"/>
         <path fill="rgb(227,235,244)" stroke="none" d="M 10941,18977 L 11071,19052 15399,11482 15268,11407 10941,18977 Z"/>
         <path fill="rgb(228,235,244)" stroke="none" d="M 11051,19040 L 11103,19070 15430,11500 15378,11470 11051,19040 Z"/>
         <path fill="rgb(228,235,244)" stroke="none" d="M 11083,19058 L 11245,19151 15572,11581 15410,11488 11083,19058 Z"/>
         <path fill="rgb(228,236,244)" stroke="none" d="M 11224,19139 L 11387,19232 15714,11662 15552,11569 11224,19139 Z"/>
         <path fill="rgb(229,236,244)" stroke="none" d="M 11366,19220 L 11529,19313 15856,11743 15694,11650 11366,19220 Z"/>
         <path fill="rgb(230,237,244)" stroke="none" d="M 11508,19301 L 11671,19394 15998,11824 15836,11731 11508,19301 Z"/>
         <path fill="rgb(231,237,244)" stroke="none" d="M 11650,19382 L 11813,19475 16140,11905 15978,11812 11650,19382 Z"/>
         <path fill="rgb(232,238,245)" stroke="none" d="M 11792,19463 L 11955,19556 16282,11986 16120,11893 11792,19463 Z"/>
         <path fill="rgb(232,238,245)" stroke="none" d="M 11934,19545 L 12097,19637 16424,12067 16262,11974 11934,19545 Z"/>
         <path fill="rgb(233,239,245)" stroke="none" d="M 12076,19626 L 12239,19718 16566,12148 16403,12056 12076,19626 Z"/>
         <path fill="rgb(234,239,245)" stroke="none" d="M 12218,19707 L 12381,19800 16708,12230 16545,12137 12218,19707 Z"/>
         <path fill="rgb(235,239,245)" stroke="none" d="M 12360,19788 L 12523,19881 16850,12311 16687,12218 12360,19788 Z"/>
         <path fill="rgb(235,240,245)" stroke="none" d="M 12502,19869 L 12665,19962 16992,12392 16829,12299 12502,19869 Z"/>
         <path fill="rgb(236,240,246)" stroke="none" d="M 12644,19950 L 12807,20043 17134,12473 16971,12380 12644,19950 Z"/>
         <path fill="rgb(237,241,246)" stroke="none" d="M 12786,20031 L 12949,20124 17276,12554 17113,12461 12786,20031 Z"/>
         <path fill="rgb(238,241,246)" stroke="none" d="M 12928,20112 L 13091,20205 17418,12635 17255,12542 12928,20112 Z"/>
        </g>
        <g clip-path="url(#clip_path_3)"/>
        <g clip-path="url(#clip_path_1)">
         <path fill="rgb(0,0,0)" stroke="none" d="M 5763,10634 L 5763,11125 5842,11125 5842,10871 C 5842,10800 5860,10754 5897,10727 5922,10709 5945,10704 5999,10703 L 5999,10623 C 5986,10621 5979,10620 5969,10620 5919,10620 5880,10650 5835,10723 L 5835,10634 5763,10634 Z"/>
         <path fill="rgb(0,0,0)" stroke="none" d="M 6265,10620 C 6128,10620 6044,10719 6044,10884 6044,11048 6127,11147 6266,11147 6404,11147 6489,11048 6489,10888 6489,10718 6407,10620 6265,10620 L 6265,10620 Z M 6266,10692 C 6355,10692 6407,10765 6407,10887 6407,11002 6353,11075 6266,11075 6179,11075 6126,11003 6126,10884 6126,10766 6179,10692 6266,10692 L 6266,10692 Z"/>
         <path fill="rgb(0,0,0)" stroke="none" d="M 6770,10634 L 6689,10634 6689,10499 6611,10499 6611,10634 6545,10634 6545,10698 6611,10698 6611,11069 C 6611,11119 6645,11147 6706,11147 6725,11147 6744,11145 6770,11140 L 6770,11075 C 6760,11077 6747,11078 6732,11078 6698,11078 6689,11069 6689,11034 L 6689,10698 6770,10698 6770,10634 Z"/>
         <path fill="rgb(0,0,0)" stroke="none" d="M 7294,11079 C 7286,11081 7282,11081 7277,11081 7250,11081 7235,11067 7235,11043 L 7235,10754 C 7235,10667 7171,10620 7050,10620 6979,10620 6920,10641 6887,10677 6865,10703 6855,10731 6854,10780 L 6932,10780 C 6939,10720 6974,10692 7047,10692 7118,10692 7157,10719 7157,10766 L 7157,10786 C 7157,10819 7137,10833 7075,10841 6965,10855 6948,10859 6918,10871 6861,10894 6832,10938 6832,11002 6832,11091 6894,11147 6993,11147 7055,11147 7104,11125 7160,11075 7165,11124 7190,11147 7241,11147 7257,11147 7269,11145 7294,11138 L 7294,11079 Z M 7157,10971 C 7157,10997 7150,11013 7126,11034 7094,11063 7056,11078 7010,11078 6949,11078 6914,11049 6914,11000 6914,10948 6948,10922 7031,10910 7114,10899 7131,10895 7157,10883 L 7157,10971 Z"/>
         <path fill="rgb(0,0,0)" stroke="none" d="M 7552,10634 L 7471,10634 7471,10499 7393,10499 7393,10634 7327,10634 7327,10698 7393,10698 7393,11069 C 7393,11119 7427,11147 7488,11147 7507,11147 7525,11145 7552,11140 L 7552,11075 C 7541,11077 7529,11078 7514,11078 7480,11078 7471,11069 7471,11034 L 7471,10698 7552,10698 7552,10634 Z"/>
         <path fill="rgb(0,0,0)" stroke="none" d="M 8055,10906 C 8055,10831 8050,10786 8036,10750 8004,10669 7929,10620 7837,10620 7700,10620 7612,10725 7612,10887 7612,11047 7697,11147 7835,11147 7947,11147 8025,11083 8045,10976 L 7966,10976 C 7944,11041 7900,11075 7838,11075 7788,11075 7746,11052 7720,11011 7701,10983 7695,10955 7694,10906 L 8055,10906 Z M 7696,10843 C 7702,10752 7757,10692 7836,10692 7913,10692 7972,10756 7972,10837 7972,10839 7972,10841 7971,10843 L 7696,10843 Z"/>
         <path fill="rgb(0,0,0)" stroke="none" d="M 8637,11244 L 8075,11244 8075,11291 8637,11291 8637,11244 Z"/>
         <path fill="rgb(0,0,0)" stroke="none" d="M 8759,10442 L 8681,10442 8681,11125 8759,11125 8759,10442 Z"/>
         <path fill="rgb(0,0,0)" stroke="none" d="M 9306,10906 C 9306,10831 9300,10786 9286,10750 9254,10669 9179,10620 9088,10620 8951,10620 8862,10725 8862,10887 8862,11047 8948,11147 9086,11147 9198,11147 9276,11083 9295,10976 L 9217,10976 C 9195,11041 9151,11075 9089,11075 9039,11075 8997,11052 8970,11011 8952,10983 8945,10955 8944,10906 L 9306,10906 Z M 8946,10843 C 8952,10752 9008,10692 9087,10692 9164,10692 9222,10756 9222,10837 9222,10839 9222,10841 9222,10843 L 8946,10843 Z"/>
         <path fill="rgb(0,0,0)" stroke="none" d="M 9588,10634 L 9507,10634 9507,10557 C 9507,10525 9526,10508 9561,10508 9568,10508 9570,10508 9588,10509 L 9588,10444 C 9570,10441 9560,10440 9544,10440 9472,10440 9429,10481 9429,10551 L 9429,10634 9363,10634 9363,10698 9429,10698 9429,11125 9507,11125 9507,10698 9588,10698 9588,10634 Z"/>
         <path fill="rgb(0,0,0)" stroke="none" d="M 9845,10634 L 9764,10634 9764,10499 9686,10499 9686,10634 9620,10634 9620,10698 9686,10698 9686,11069 C 9686,11119 9720,11147 9781,11147 9800,11147 9819,11145 9845,11140 L 9845,11075 C 9835,11077 9823,11078 9808,11078 9774,11078 9764,11069 9764,11034 L 9764,10698 9845,10698 9845,10634 Z"/>
         <path fill="rgb(0,0,0)" stroke="none" d="M 10409,11244 L 9847,11244 9847,11291 10409,11291 10409,11244 Z"/>
         <path fill="rgb(0,0,0)" stroke="none" d="M 10908,11125 L 11053,10634 10964,10634 10867,11017 10771,10634 10675,10634 10581,11017 10481,10634 10395,10634 10537,11125 10625,11125 10720,10740 10819,11125 10908,11125 Z"/>
         <path fill="rgb(0,0,0)" stroke="none" d="M 11206,10634 L 11129,10634 11129,11125 11206,11125 11206,10634 Z M 11206,10442 L 11128,10442 11128,10541 11206,10541 11206,10442 Z"/>
         <path fill="rgb(0,0,0)" stroke="none" d="M 11512,10634 L 11431,10634 11431,10499 11353,10499 11353,10634 11287,10634 11287,10698 11353,10698 11353,11069 C 11353,11119 11387,11147 11448,11147 11467,11147 11486,11145 11512,11140 L 11512,11075 C 11502,11077 11490,11078 11474,11078 11441,11078 11431,11069 11431,11034 L 11431,10698 11512,10698 11512,10634 Z"/>
         <path fill="rgb(0,0,0)" stroke="none" d="M 11600,10442 L 11600,11125 11678,11125 11678,10855 C 11678,10754 11730,10689 11811,10689 11836,10689 11862,10697 11880,10711 11903,10727 11912,10751 11912,10785 L 11912,11125 11990,11125 11990,10754 C 11990,10672 11931,10620 11835,10620 11766,10620 11724,10642 11678,10702 L 11678,10442 11600,10442 Z"/>
         <path fill="rgb(0,0,0)" stroke="none" d="M 12597,11244 L 12035,11244 12035,11291 12597,11291 12597,11244 Z"/>
         <path fill="rgb(0,0,0)" stroke="none" d="M 13018,10799 C 13015,10752 13004,10721 12986,10693 12952,10647 12893,10620 12825,10620 12692,10620 12606,10725 12606,10888 12606,11046 12690,11147 12824,11147 12941,11147 13015,11076 13024,10957 L 12945,10957 C 12932,11035 12892,11075 12826,11075 12739,11075 12688,11004 12688,10888 12688,10766 12738,10692 12824,10692 12889,10692 12930,10731 12940,10799 L 13018,10799 Z"/>
         <path fill="rgb(0,0,0)" stroke="none" d="M 13547,11079 C 13539,11081 13535,11081 13530,11081 13503,11081 13488,11067 13488,11043 L 13488,10754 C 13488,10667 13425,10620 13304,10620 13232,10620 13173,10641 13140,10677 13118,10703 13109,10731 13107,10780 L 13185,10780 C 13192,10720 13228,10692 13301,10692 13371,10692 13411,10719 13411,10766 L 13411,10786 C 13411,10819 13391,10833 13329,10841 13218,10855 13201,10859 13171,10871 13114,10894 13085,10938 13085,11002 13085,11091 13147,11147 13246,11147 13308,11147 13358,11125 13414,11075 13419,11124 13443,11147 13494,11147 13510,11147 13522,11145 13547,11138 L 13547,11079 Z M 13411,10971 C 13411,10997 13403,11013 13380,11034 13348,11063 13309,11078 13263,11078 13202,11078 13167,11049 13167,11000 13167,10948 13201,10922 13285,10910 13368,10899 13385,10895 13411,10883 L 13411,10971 Z"/>
         <path fill="rgb(0,0,0)" stroke="none" d="M 13632,10634 L 13632,11125 13711,11125 13711,10871 C 13711,10800 13728,10754 13766,10727 13790,10709 13814,10704 13868,10703 L 13868,10623 C 13855,10621 13848,10620 13838,10620 13788,10620 13749,10650 13704,10723 L 13704,10634 13632,10634 Z"/>
         <path fill="rgb(0,0,0)" stroke="none" d="M 13944,10634 L 13944,11125 14023,11125 14023,10871 C 14023,10800 14041,10754 14078,10727 14103,10709 14126,10704 14180,10703 L 14180,10623 C 14167,10621 14160,10620 14150,10620 14100,10620 14061,10650 14016,10723 L 14016,10634 13944,10634 Z"/>
         <path fill="rgb(0,0,0)" stroke="none" d="M 14555,10634 L 14419,11017 14294,10634 14210,10634 14376,11127 14346,11205 C 14334,11240 14316,11253 14284,11253 14272,11253 14259,11251 14242,11247 L 14242,11318 C 14258,11326 14274,11330 14295,11330 14320,11330 14347,11321 14368,11306 14392,11289 14406,11268 14421,11229 L 14640,10634 14555,10634 Z"/>
         <path fill="rgb(0,0,0)" stroke="none" d="M 15202,11244 L 14640,11244 14640,11291 15202,11291 15202,11244 Z"/>
         <path fill="rgb(0,0,0)" stroke="none" d="M 15439,10461 C 15377,10461 15321,10488 15287,10534 15244,10592 15222,10681 15222,10804 15222,11028 15297,11147 15439,11147 15580,11147 15657,11028 15657,10810 15657,10680 15636,10594 15592,10534 15558,10487 15502,10461 15439,10461 L 15439,10461 Z M 15439,10534 C 15528,10534 15573,10624 15573,10802 15573,10990 15529,11078 15437,11078 15350,11078 15306,10987 15306,10805 15306,10623 15350,10534 15439,10534 L 15439,10534 Z"/>
         <path fill="rgb(63,110,158)" stroke="none" d="M 5008,16812 L 5008,17303 5086,17303 5086,17049 C 5086,16979 5104,16933 5141,16905 5166,16887 5189,16882 5244,16881 L 5244,16801 C 5230,16799 5224,16798 5214,16798 5163,16798 5124,16828 5080,16902 L 5080,16812 5008,16812 Z"/>
         <path fill="rgb(63,110,158)" stroke="none" d="M 5510,16798 C 5372,16798 5289,16897 5289,17062 5289,17226 5371,17325 5511,17325 5649,17325 5733,17226 5733,17066 5733,16896 5652,16798 5510,16798 L 5510,16798 Z M 5511,16871 C 5599,16871 5652,16943 5652,17065 5652,17180 5597,17253 5511,17253 5423,17253 5370,17181 5370,17062 5370,16944 5423,16871 5511,16871 L 5511,16871 Z"/>
         <path fill="rgb(63,110,158)" stroke="none" d="M 6014,16812 L 5934,16812 5934,16677 5856,16677 5856,16812 5789,16812 5789,16876 5856,16876 5856,17247 C 5856,17297 5890,17325 5951,17325 5969,17325 5988,17323 6014,17318 L 6014,17253 C 6004,17256 5992,17256 5977,17256 5943,17256 5934,17247 5934,17212 L 5934,16876 6014,16876 6014,16812 Z"/>
         <path fill="rgb(63,110,158)" stroke="none" d="M 6538,17257 C 6530,17259 6526,17259 6521,17259 6494,17259 6479,17245 6479,17221 L 6479,16933 C 6479,16845 6416,16798 6295,16798 6223,16798 6164,16819 6131,16856 6109,16881 6100,16909 6098,16958 L 6176,16958 C 6183,16898 6218,16871 6292,16871 6362,16871 6402,16897 6402,16944 L 6402,16964 C 6402,16997 6382,17011 6320,17019 6209,17033 6192,17037 6162,17049 6105,17072 6076,17116 6076,17180 6076,17269 6138,17325 6237,17325 6299,17325 6349,17303 6405,17253 6410,17302 6434,17325 6485,17325 6501,17325 6513,17323 6538,17317 L 6538,17257 Z M 6402,17149 C 6402,17175 6394,17191 6371,17212 6339,17241 6300,17256 6254,17256 6193,17256 6158,17227 6158,17178 6158,17126 6192,17100 6276,17088 6358,17077 6375,17073 6402,17061 L 6402,17149 Z"/>
         <path fill="rgb(63,110,158)" stroke="none" d="M 6796,16812 L 6716,16812 6716,16677 6638,16677 6638,16812 6571,16812 6571,16876 6638,16876 6638,17247 C 6638,17297 6671,17325 6732,17325 6751,17325 6770,17323 6796,17318 L 6796,17253 C 6786,17256 6774,17256 6759,17256 6725,17256 6716,17247 6716,17212 L 6716,16876 6796,16876 6796,16812 Z"/>
         <path fill="rgb(63,110,158)" stroke="none" d="M 7300,17084 C 7300,17009 7294,16964 7280,16928 7248,16847 7173,16798 7081,16798 6944,16798 6856,16903 6856,17065 6856,17225 6941,17325 7079,17325 7192,17325 7270,17261 7289,17154 L 7211,17154 C 7189,17219 7145,17253 7082,17253 7032,17253 6990,17230 6964,17189 6945,17161 6939,17133 6938,17084 L 7300,17084 Z M 6940,17021 C 6946,16930 7001,16871 7080,16871 7157,16871 7216,16934 7216,17015 7216,17017 7216,17019 7215,17021 L 6940,17021 Z"/>
         <path fill="rgb(63,110,158)" stroke="none" d="M 7882,17422 L 7319,17422 7319,17469 7882,17469 7882,17422 Z"/>
         <path fill="rgb(63,110,158)" stroke="none" d="M 8004,16620 L 7925,16620 7925,17303 8004,17303 8004,16620 Z"/>
         <path fill="rgb(63,110,158)" stroke="none" d="M 8550,17084 C 8550,17009 8545,16964 8531,16928 8499,16847 8424,16798 8332,16798 8195,16798 8107,16903 8107,17065 8107,17225 8192,17325 8330,17325 8442,17325 8520,17261 8540,17154 L 8461,17154 C 8440,17219 8395,17253 8333,17253 8283,17253 8241,17230 8215,17189 8196,17161 8190,17133 8189,17084 L 8550,17084 Z M 8191,17021 C 8197,16930 8252,16871 8331,16871 8408,16871 8467,16934 8467,17015 8467,17017 8467,17019 8466,17021 L 8191,17021 Z"/>
         <path fill="rgb(63,110,158)" stroke="none" d="M 8832,16812 L 8751,16812 8751,16735 C 8751,16703 8770,16686 8805,16686 8812,16686 8814,16686 8832,16687 L 8832,16622 C 8814,16619 8804,16618 8788,16618 8716,16618 8673,16659 8673,16729 L 8673,16812 8608,16812 8608,16876 8673,16876 8673,17303 8751,17303 8751,16876 8832,16876 8832,16812 Z"/>
         <path fill="rgb(63,110,158)" stroke="none" d="M 9089,16812 L 9009,16812 9009,16677 8931,16677 8931,16812 8864,16812 8864,16876 8931,16876 8931,17247 C 8931,17297 8965,17325 9026,17325 9045,17325 9063,17323 9089,17318 L 9089,17253 C 9079,17256 9067,17256 9052,17256 9018,17256 9009,17247 9009,17212 L 9009,16876 9089,16876 9089,16812 Z"/>
         <path fill="rgb(63,110,158)" stroke="none" d="M 9654,17422 L 9091,17422 9091,17469 9654,17469 9654,17422 Z"/>
         <path fill="rgb(63,110,158)" stroke="none" d="M 10153,17303 L 10297,16812 10209,16812 10111,17195 10015,16812 9919,16812 9826,17195 9725,16812 9639,16812 9781,17303 9870,17303 9964,16918 10063,17303 10153,17303 Z"/>
         <path fill="rgb(63,110,158)" stroke="none" d="M 10451,16812 L 10373,16812 10373,17303 10451,17303 10451,16812 Z M 10451,16620 L 10372,16620 10372,16719 10451,16719 10451,16620 Z"/>
         <path fill="rgb(63,110,158)" stroke="none" d="M 10756,16812 L 10676,16812 10676,16677 10598,16677 10598,16812 10531,16812 10531,16876 10598,16876 10598,17247 C 10598,17297 10632,17325 10693,17325 10712,17325 10730,17323 10756,17318 L 10756,17253 C 10746,17256 10734,17256 10719,17256 10685,17256 10676,17247 10676,17212 L 10676,16876 10756,16876 10756,16812 Z"/>
         <path fill="rgb(63,110,158)" stroke="none" d="M 10844,16620 L 10844,17303 10922,17303 10922,17033 C 10922,16933 10975,16867 11056,16867 11081,16867 11106,16875 11125,16889 11147,16905 11157,16929 11157,16964 L 11157,17303 11234,17303 11234,16933 C 11234,16850 11176,16798 11080,16798 11010,16798 10968,16820 10922,16880 L 10922,16620 10844,16620 Z"/>
         <path fill="rgb(63,110,158)" stroke="none" d="M 11842,17422 L 11279,17422 11279,17469 11842,17469 11842,17422 Z"/>
         <path fill="rgb(63,110,158)" stroke="none" d="M 12263,16978 C 12259,16930 12249,16899 12230,16871 12196,16825 12137,16798 12069,16798 11937,16798 11851,16903 11851,17066 11851,17225 11935,17325 12068,17325 12185,17325 12259,17255 12269,17135 L 12190,17135 C 12177,17213 12136,17253 12070,17253 11984,17253 11932,17182 11932,17066 11932,16944 11983,16871 12068,16871 12133,16871 12175,16909 12184,16978 L 12263,16978 Z"/>
         <path fill="rgb(63,110,158)" stroke="none" d="M 12792,17257 C 12783,17259 12780,17259 12775,17259 12748,17259 12733,17245 12733,17221 L 12733,16933 C 12733,16845 12669,16798 12548,16798 12477,16798 12418,16819 12385,16856 12362,16881 12353,16909 12351,16958 L 12430,16958 C 12437,16898 12472,16871 12545,16871 12615,16871 12655,16897 12655,16944 L 12655,16964 C 12655,16997 12635,17011 12573,17019 12463,17033 12446,17037 12416,17049 12359,17072 12329,17116 12329,17180 12329,17269 12391,17325 12491,17325 12553,17325 12602,17303 12658,17253 12663,17302 12687,17325 12738,17325 12754,17325 12766,17323 12792,17317 L 12792,17257 Z M 12655,17149 C 12655,17175 12647,17191 12624,17212 12592,17241 12554,17256 12508,17256 12447,17256 12411,17227 12411,17178 12411,17126 12446,17100 12529,17088 12612,17077 12629,17073 12655,17061 L 12655,17149 Z"/>
         <path fill="rgb(63,110,158)" stroke="none" d="M 12876,16812 L 12876,17303 12955,17303 12955,17049 C 12955,16979 12973,16933 13010,16905 13035,16887 13058,16882 13112,16881 L 13112,16801 C 13099,16799 13092,16798 13082,16798 13032,16798 12993,16828 12949,16902 L 12949,16812 12876,16812 Z"/>
         <path fill="rgb(63,110,158)" stroke="none" d="M 13189,16812 L 13189,17303 13267,17303 13267,17049 C 13267,16979 13285,16933 13322,16905 13347,16887 13370,16882 13425,16881 L 13425,16801 C 13411,16799 13405,16798 13395,16798 13344,16798 13305,16828 13261,16902 L 13261,16812 13189,16812 Z"/>
         <path fill="rgb(63,110,158)" stroke="none" d="M 13800,16812 L 13664,17195 13538,16812 13455,16812 13620,17305 13590,17383 C 13578,17418 13560,17431 13528,17431 13516,17431 13503,17429 13486,17426 L 13486,17496 C 13502,17504 13518,17508 13539,17508 13564,17508 13591,17499 13612,17484 13636,17467 13651,17446 13666,17407 L 13884,16812 13800,16812 Z"/>
         <path fill="rgb(63,110,158)" stroke="none" d="M 14446,17422 L 13884,17422 13884,17469 14446,17469 14446,17422 Z"/>
         <path fill="rgb(63,110,158)" stroke="none" d="M 14693,17303 L 14881,16812 14794,16812 14655,17210 14523,16812 14435,16812 14608,17303 14693,17303 Z"/>
         <path fill="rgb(63,110,158)" stroke="none" d="M 15137,16830 L 15137,17303 15220,17303 15220,16639 15166,16639 C 15136,16741 15118,16755 14990,16771 L 14990,16830 15137,16830 Z"/>
         <path fill="rgb(63,110,158)" stroke="none" d="M 15958,17422 L 15395,17422 15395,17469 15958,17469 15958,17422 Z"/>
         <path fill="rgb(63,110,158)" stroke="none" d="M 16195,16639 C 16133,16639 16077,16666 16042,16712 15999,16770 15977,16859 15977,16982 15977,17206 16053,17325 16195,17325 16335,17325 16412,17206 16412,16988 16412,16858 16392,16772 16348,16712 16313,16665 16258,16639 16195,16639 L 16195,16639 Z M 16195,16712 C 16284,16712 16328,16802 16328,16980 16328,17168 16285,17256 16193,17256 16106,17256 16062,17165 16062,16983 16062,16801 16106,16712 16195,16712 L 16195,16712 Z"/>
         <path fill="none" stroke="rgb(0,0,0)" stroke-width="391" stroke-linejoin="miter" d="M 5232,13038 L 6013,13038"/>
         <path fill="rgb(0,0,0)" stroke="none" d="M 6540,13147 L 6598,13318 6679,13318 6479,12749 6386,12749 6182,13318 6260,13318 6320,13147 6540,13147 Z M 6519,13086 L 6338,13086 6432,12827 6519,13086 Z"/>
         <path fill="rgb(0,0,0)" stroke="none" d="M 7142,13416 L 6673,13416 6673,13456 7142,13456 7142,13416 Z"/>
         <path fill="rgb(0,0,0)" stroke="none" d="M 7242,12909 L 7177,12909 7177,13318 7242,13318 7242,12909 Z M 7242,12749 L 7176,12749 7176,12830 7242,12830 7242,12749 Z"/>
         <path fill="rgb(0,0,0)" stroke="none" d="M 7493,12749 L 7348,12749 7348,13484 7493,13484 7493,13428 7413,13428 7413,12805 7493,12805 7493,12749 Z"/>
         <path fill="rgb(0,0,0)" stroke="none" d="M 7688,13064 L 7697,13064 7726,13063 C 7801,13063 7840,13098 7840,13164 7840,13234 7797,13275 7726,13275 7650,13275 7614,13238 7609,13157 L 7541,13157 C 7543,13202 7551,13230 7565,13256 7593,13309 7648,13336 7723,13336 7837,13336 7911,13268 7911,13164 7911,13093 7883,13054 7817,13031 7868,13011 7894,12972 7894,12917 7894,12821 7831,12764 7726,12764 7614,12764 7555,12825 7552,12943 L 7621,12943 C 7621,12909 7625,12891 7634,12874 7649,12843 7683,12825 7727,12825 7787,12825 7824,12860 7824,12919 7824,12958 7810,12982 7779,12994 7760,13002 7736,13005 7688,13006 L 7688,13064 Z"/>
         <path fill="rgb(0,0,0)" stroke="none" d="M 8117,13237 L 8035,13237 8035,13318 8117,13318 8117,13237 Z M 8117,12909 L 8035,12909 8035,12990 8117,12990 8117,12909 Z"/>
         <path fill="rgb(0,0,0)" stroke="none" d="M 8382,12764 C 8330,12764 8283,12787 8255,12825 8218,12874 8200,12948 8200,13050 8200,13237 8263,13336 8382,13336 8499,13336 8563,13237 8563,13055 8563,12947 8546,12875 8509,12825 8480,12786 8434,12764 8382,12764 L 8382,12764 Z M 8382,12825 C 8456,12825 8493,12900 8493,13049 8493,13206 8457,13279 8380,13279 8307,13279 8271,13202 8271,13051 8271,12899 8307,12825 8382,12825 L 8382,12825 Z"/>
         <path fill="rgb(0,0,0)" stroke="none" d="M 8619,13484 L 8765,13484 8765,12749 8619,12749 8619,12805 8700,12805 8700,13428 8619,13428 8619,13484 Z"/>
         <path fill="none" stroke="rgb(0,0,0)" stroke-width="234" stroke-linejoin="miter" d="M 5232,14600 L 6013,14600"/>
         <path fill="rgb(0,0,0)" stroke="none" d="M 6687,14487 C 6664,14363 6592,14301 6467,14301 6390,14301 6329,14326 6286,14373 6235,14429 6206,14510 6206,14602 6206,14696 6236,14776 6289,14832 6333,14877 6390,14898 6464,14898 6603,14898 6681,14823 6698,14672 L 6623,14672 C 6617,14712 6609,14738 6597,14761 6574,14808 6526,14834 6465,14834 6351,14834 6279,14744 6279,14601 6279,14455 6348,14365 6458,14365 6504,14365 6548,14379 6571,14401 6592,14421 6604,14445 6612,14487 L 6687,14487 Z"/>
         <path fill="rgb(0,0,0)" stroke="none" d="M 7185,14979 L 6716,14979 6716,15018 7185,15018 7185,14979 Z"/>
         <path fill="rgb(0,0,0)" stroke="none" d="M 7285,14471 L 7220,14471 7220,14880 7285,14880 7285,14471 Z M 7285,14311 L 7219,14311 7219,14393 7285,14393 7285,14311 Z"/>
         <path fill="none" stroke="rgb(0,0,0)" stroke-width="391" stroke-linejoin="miter" d="M 16170,13038 L 15388,13038"/>
         <path fill="rgb(0,0,0)" stroke="none" d="M 12624,13095 L 12838,12749 12751,12749 12589,13026 12422,12749 12332,12749 12551,13095 12551,13318 12624,13318 12624,13095 Z"/>
         <path fill="rgb(0,0,0)" stroke="none" d="M 13294,13416 L 12826,13416 12826,13456 13294,13456 13294,13416 Z"/>
         <path fill="rgb(0,0,0)" stroke="none" d="M 13490,12897 C 13375,12897 13305,12979 13305,13117 13305,13254 13374,13336 13490,13336 13605,13336 13676,13254 13676,13120 13676,12978 13608,12897 13490,12897 L 13490,12897 Z M 13490,12957 C 13564,12957 13608,13017 13608,13119 13608,13215 13563,13276 13490,13276 13418,13276 13373,13216 13373,13117 13373,13018 13418,12957 13490,12957 L 13490,12957 Z"/>
         <path fill="rgb(0,0,0)" stroke="none" d="M 13907,12749 L 13762,12749 13762,13484 13907,13484 13907,13428 13827,13428 13827,12805 13907,12805 13907,12749 Z"/>
         <path fill="rgb(0,0,0)" stroke="none" d="M 14101,13064 L 14110,13064 14139,13063 C 14215,13063 14254,13098 14254,13164 14254,13234 14211,13275 14139,13275 14064,13275 14027,13238 14023,13157 L 13954,13157 C 13957,13202 13965,13230 13978,13256 14006,13309 14061,13336 14137,13336 14251,13336 14324,13268 14324,13164 14324,13093 14297,13054 14231,13031 14282,13011 14308,12972 14308,12917 14308,12821 14245,12764 14139,12764 14027,12764 13968,12825 13966,12943 L 14035,12943 C 14035,12909 14038,12891 14047,12874 14063,12843 14097,12825 14140,12825 14201,12825 14237,12860 14237,12919 14237,12958 14223,12982 14193,12994 14174,13002 14150,13005 14101,13006 L 14101,13064 Z"/>
         <path fill="rgb(0,0,0)" stroke="none" d="M 14530,13237 L 14449,13237 14449,13318 14530,13318 14530,13237 Z M 14530,12909 L 14449,12909 14449,12990 14530,12990 14530,12909 Z"/>
         <path fill="rgb(0,0,0)" stroke="none" d="M 14796,12764 C 14744,12764 14697,12787 14668,12825 14632,12874 14614,12948 14614,13050 14614,13237 14676,13336 14796,13336 14913,13336 14977,13237 14977,13055 14977,12947 14959,12875 14922,12825 14894,12786 14848,12764 14796,12764 L 14796,12764 Z M 14796,12825 C 14870,12825 14907,12900 14907,13049 14907,13206 14870,13279 14794,13279 14721,13279 14685,13202 14685,13051 14685,12899 14721,12825 14796,12825 L 14796,12825 Z"/>
         <path fill="rgb(0,0,0)" stroke="none" d="M 15033,13484 L 15178,13484 15178,12749 15033,12749 15033,12805 15113,12805 15113,13428 15033,13428 15033,13484 Z"/>
         <path fill="none" stroke="rgb(0,0,0)" stroke-width="234" stroke-linejoin="miter" d="M 16170,14600 L 15388,14600"/>
         <path fill="rgb(0,0,0)" stroke="none" d="M 14317,14487 C 14294,14363 14222,14301 14097,14301 14020,14301 13959,14326 13916,14373 13865,14429 13837,14510 13837,14602 13837,14696 13866,14776 13919,14832 13963,14877 14020,14898 14094,14898 14233,14898 14311,14823 14328,14672 L 14253,14672 C 14247,14712 14239,14738 14227,14761 14204,14808 14156,14834 14095,14834 13981,14834 13909,14744 13909,14601 13909,14455 13978,14365 14088,14365 14134,14365 14178,14379 14201,14401 14222,14421 14234,14445 14242,14487 L 14317,14487 Z"/>
         <path fill="rgb(0,0,0)" stroke="none" d="M 14815,14979 L 14346,14979 14346,15018 14815,15018 14815,14979 Z"/>
         <path fill="rgb(0,0,0)" stroke="none" d="M 15010,14459 C 14896,14459 14826,14541 14826,14679 14826,14816 14895,14898 15011,14898 15126,14898 15196,14816 15196,14682 15196,14540 15128,14459 15010,14459 L 15010,14459 Z M 15011,14519 C 15084,14519 15128,14579 15128,14681 15128,14777 15083,14838 15011,14838 14938,14838 14894,14778 14894,14679 14894,14580 14938,14519 15011,14519 L 15011,14519 Z"/>
         <path fill="none" stroke="rgb(63,110,158)" stroke-width="78" stroke-linejoin="miter" d="M 6560,11476 L 14841,11476"/>
         <path fill="none" stroke="rgb(63,110,158)" stroke-width="78" stroke-linejoin="miter" d="M 15388,12022 C 15389,12014 15389,12005 15388,11996 15381,11702 15136,11468 14841,11476"/>
         <path fill="none" stroke="rgb(63,110,158)" stroke-width="78" stroke-linejoin="miter" d="M 15388,12022 L 15388,15615"/>
         <path fill="none" stroke="rgb(63,110,158)" stroke-width="78" stroke-linejoin="miter" d="M 14841,16162 C 14850,16162 14859,16162 14867,16162 15162,16155 15396,15910 15388,15615"/>
         <path fill="none" stroke="rgb(63,110,158)" stroke-width="78" stroke-linejoin="miter" d="M 14841,16162 L 6560,16162"/>
         <path fill="none" stroke="rgb(63,110,158)" stroke-width="78" stroke-linejoin="miter" d="M 6013,15615 C 6013,15624 6013,15633 6013,15641 6020,15936 6265,16169 6560,16162"/>
         <path fill="none" stroke="rgb(63,110,158)" stroke-width="78" stroke-linejoin="miter" d="M 6013,15615 L 6013,12022"/>
         <path fill="none" stroke="rgb(63,110,158)" stroke-width="78" stroke-linejoin="miter" d="M 6560,11476 C 6551,11475 6542,11475 6534,11476 6239,11483 6006,11728 6013,12022"/>
        </g>
       </g>
      </g>
     </g>
    </g>
   </g>
  </g>
 </g>
</svg>