<?xml version="1.0" encoding="UTF-8"?>
<!DOCTYPE svg PUBLIC "-//W3C//DTD SVG 1.1//EN" "http://www.w3.org/Graphics/SVG/1.1/DTD/svg11.dtd">
<svg version="1.2" width="131.99mm" height="100.99mm" viewBox="3700 10200 13199 10099" preserveAspectRatio="xMidYMid" fill-rule="evenodd" stroke-width="28.222" stroke-linejoin="round" xmlns="http://www.w3.org/2000/svg" xmlns:ooo="http://xml.openoffice.org/svg/export" xmlns:xlink="http://www.w3.org/1999/xlink" xmlns:presentation="http://sun.com/xmlns/staroffice/presentation" xmlns:smil="http://www.w3.org/2001/SMIL20/" xmlns:anim="urn:oasis:names:tc:opendocument:xmlns:animation:1.0" xml:space="preserve">
 <defs class="ClipPathGroup">
  <clipPath id="presentation_clip_path" clipPathUnits="userSpaceOnUse">
   <rect x="3700" y="10200" width="13199" height="10099"/>
  </clipPath>
  <clipPath id="presentation_clip_path_shrink" clipPathUnits="userSpaceOnUse">
   <rect x="3713" y="10210" width="13173" height="10079"/>
  </clipPath>
 </defs>
 <defs class="TextShapeIndex">
  <g ooo:slide="id1" ooo:id-list="id3"/>
 </defs>
 <defs class="EmbeddedBulletChars">
  <g id="bullet-char-template-57356" transform="scale(0.00048828125,-0.00048828125)">
   <path d="M 580,1141 L 1163,571 580,0 -4,571 580,1141 Z"/>
  </g>
  <g id="bullet-char-template-57354" transform="scale(0.00048828125,-0.00048828125)">
   <path d="M 8,1128 L 1137,1128 1137,0 8,0 8,1128 Z"/>
  </g>
  <g id="bullet-char-template-10146" transform="scale(0.00048828125,-0.00048828125)">
   <path d="M 174,0 L 602,739 174,1481 1456,739 174,0 Z M 1358,739 L 309,1346 659,739 1358,739 Z"/>
  </g>
  <g id="bullet-char-template-10132" transform="scale(0.00048828125,-0.00048828125)">
   <path d="M 2015,739 L 1276,0 717,0 1260,543 174,543 174,936 1260,936 717,1481 1274,1481 2015,739 Z"/>
  </g>
  <g id="bullet-char-template-10007" transform="scale(0.00048828125,-0.00048828125)">
   <path d="M 0,-2 C -7,14 -16,27 -25,37 L 356,567 C 262,823 215,952 215,954 215,979 228,992 255,992 264,992 276,990 289,987 310,991 331,999 354,1012 L 381,999 492,748 772,1049 836,1024 860,1049 C 881,1039 901,1025 922,1006 886,937 835,863 770,784 769,783 710,716 594,584 L 774,223 C 774,196 753,168 711,139 L 727,119 C 717,90 699,76 672,76 641,76 570,178 457,381 L 164,-76 C 142,-110 111,-127 72,-127 30,-127 9,-110 8,-76 1,-67 -2,-52 -2,-32 -2,-23 -1,-13 0,-2 Z"/>
  </g>
  <g id="bullet-char-template-10004" transform="scale(0.00048828125,-0.00048828125)">
   <path d="M 285,-33 C 182,-33 111,30 74,156 52,228 41,333 41,471 41,549 55,616 82,672 116,743 169,778 240,778 293,778 328,747 346,684 L 369,508 C 377,444 397,411 428,410 L 1163,1116 C 1174,1127 1196,1133 1229,1133 1271,1133 1292,1118 1292,1087 L 1292,965 C 1292,929 1282,901 1262,881 L 442,47 C 390,-6 338,-33 285,-33 Z"/>
  </g>
  <g id="bullet-char-template-9679" transform="scale(0.00048828125,-0.00048828125)">
   <path d="M 813,0 C 632,0 489,54 383,161 276,268 223,411 223,592 223,773 276,916 383,1023 489,1130 632,1184 813,1184 992,1184 1136,1130 1245,1023 1353,916 1407,772 1407,592 1407,412 1353,268 1245,161 1136,54 992,0 813,0 Z"/>
  </g>
  <g id="bullet-char-template-8226" transform="scale(0.00048828125,-0.00048828125)">
   <path d="M 346,457 C 273,457 209,483 155,535 101,586 74,649 74,723 74,796 101,859 155,911 209,963 273,989 346,989 419,989 480,963 531,910 582,859 608,796 608,723 608,648 583,586 532,535 482,483 420,457 346,457 Z"/>
  </g>
  <g id="bullet-char-template-8211" transform="scale(0.00048828125,-0.00048828125)">
   <path d="M -4,459 L 1135,459 1135,606 -4,606 -4,459 Z"/>
  </g>
  <g id="bullet-char-template-61548" transform="scale(0.00048828125,-0.00048828125)">
   <path d="M 173,740 C 173,903 231,1043 346,1159 462,1274 601,1332 765,1332 928,1332 1067,1274 1183,1159 1299,1043 1357,903 1357,740 1357,577 1299,437 1183,322 1067,206 928,148 765,148 601,148 462,206 346,322 231,437 173,577 173,740 Z"/>
  </g>
 </defs>
 <defs class="TextEmbeddedBitmaps"/>
 <g class="SlideGroup">
  <g>
   <g id="container-id1">
    <g id="id1" class="Slide" clip-path="url(#presentation_clip_path)">
     <g class="Page">
      <g class="Graphic">
       <g id="id3">
        <rect class="BoundingBox" stroke="none" fill="none" x="3700" y="10200" width="13200" height="10100"/>
        <defs>
         <clipPath id="clip_path_1" clipPathUnits="userSpaceOnUse">
          <path d="M 3700,10200 L 16899,10200 16899,20299 3700,20299 3700,10200 Z"/>
         </clipPath>
        </defs>
        <g clip-path="url(#clip_path_1)"/>
        <defs>
         <clipPath id="clip_path_2" clipPathUnits="userSpaceOnUse">
          <path d="M 3700,10200 L 16899,10200 16899,20299 3700,20299 3700,10200 Z"/>
         </clipPath>
        </defs>
        <g clip-path="url(#clip_path_2)">
         <path fill="rgb(255,255,255)" stroke="none" d="M 1607,9045 L 18794,9045 18794,22021 1607,22021 1607,9045 Z"/>
        </g>
        <g clip-path="url(#clip_path_1)">
         <path fill="rgb(0,0,0)" stroke="none" d="M 6076,12053 L 15185,12053 15443,12139 15615,12225 15701,12397 15787,12654 15787,18326 15701,18584 15615,18756 15443,18842 15185,18928 6076,18928 5818,18842 5646,18756 5560,18584 5474,18326 5474,12654 5560,12397 5646,12225 5818,12139 6076,12053 Z"/>
        </g>
        <defs>
         <clipPath id="clip_path_3" clipPathUnits="userSpaceOnUse">
          <path d="M 5646,11623 L 14755,11623 15013,11709 15185,11795 15271,11967 15357,12225 15357,17897 15271,18154 15185,18326 15013,18412 14755,18498 5646,18498 5388,18412 5216,18326 5130,18154 5044,17897 5044,12225 5130,11967 5216,11795 5388,11709 5646,11623 Z"/>
         </clipPath>
        </defs>
        <g clip-path="url(#clip_path_3)"/>
        <defs>
         <clipPath id="clip_path_4" clipPathUnits="userSpaceOnUse">
          <path d="M 5646,11623 L 14755,11623 15013,11709 15185,11795 15271,11967 15357,12225 15357,17897 15271,18154 15185,18326 15013,18412 14755,18498 5646,18498 5388,18412 5216,18326 5130,18154 5044,17897 5044,12225 5130,11967 5216,11795 5388,11709 5646,11623 Z"/>
         </clipPath>
        </defs>
        <g clip-path="url(#clip_path_4)">
         <path fill="rgb(189,212,236)" stroke="none" d="M 1787,16172 L 1956,16292 8691,6862 8523,6742 1787,16172 Z"/>
         <path fill="rgb(189,212,236)" stroke="none" d="M 1945,16284 L 2113,16404 8849,6975 8680,6855 1945,16284 Z"/>
         <path fill="rgb(190,213,236)" stroke="none" d="M 2102,16397 L 2271,16517 9006,7087 8838,6967 2102,16397 Z"/>
         <path fill="rgb(191,213,236)" stroke="none" d="M 2260,16509 L 2428,16629 9164,7200 8995,7080 2260,16509 Z"/>
         <path fill="rgb(192,214,237)" stroke="none" d="M 2417,16622 L 2586,16742 9321,7312 9153,7192 2417,16622 Z"/>
         <path fill="rgb(192,214,237)" stroke="none" d="M 2575,16734 L 2743,16854 9479,7425 9310,7305 2575,16734 Z"/>
         <path fill="rgb(193,215,237)" stroke="none" d="M 2732,16847 L 2901,16967 9636,7537 9468,7417 2732,16847 Z"/>
         <path fill="rgb(194,215,237)" stroke="none" d="M 2890,16959 L 3058,17079 9794,7650 9625,7530 2890,16959 Z"/>
         <path fill="rgb(195,216,237)" stroke="none" d="M 3047,17072 L 3216,17192 9951,7762 9783,7642 3047,17072 Z"/>
         <path fill="rgb(196,216,237)" stroke="none" d="M 3205,17184 L 3373,17304 10109,7875 9940,7755 3205,17184 Z"/>
         <path fill="rgb(196,216,238)" stroke="none" d="M 3362,17297 L 3531,17417 10266,7987 10098,7867 3362,17297 Z"/>
         <path fill="rgb(197,217,238)" stroke="none" d="M 3520,17409 L 3688,17529 10424,8100 10256,7980 3520,17409 Z"/>
         <path fill="rgb(198,217,238)" stroke="none" d="M 3677,17522 L 3846,17642 10581,8212 10413,8092 3677,17522 Z"/>
         <path fill="rgb(199,218,238)" stroke="none" d="M 3835,17634 L 4003,17754 10739,8325 10571,8205 3835,17634 Z"/>
         <path fill="rgb(200,218,238)" stroke="none" d="M 3992,17747 L 4161,17867 10896,8437 10728,8317 3992,17747 Z"/>
         <path fill="rgb(200,219,238)" stroke="none" d="M 4150,17859 L 4318,17979 11054,8550 10886,8430 4150,17859 Z"/>
         <path fill="rgb(201,219,239)" stroke="none" d="M 4307,17972 L 4476,18092 11211,8662 11043,8542 4307,17972 Z"/>
         <path fill="rgb(202,220,239)" stroke="none" d="M 4465,18084 L 4633,18204 11369,8775 11201,8655 4465,18084 Z"/>
         <path fill="rgb(203,220,239)" stroke="none" d="M 4622,18197 L 4791,18317 11526,8887 11358,8767 4622,18197 Z"/>
         <path fill="rgb(203,221,239)" stroke="none" d="M 4780,18309 L 4948,18429 11684,9000 11516,8880 4780,18309 Z"/>
         <path fill="rgb(204,221,239)" stroke="none" d="M 4937,18422 L 5050,18502 11785,9072 11673,8992 4937,18422 Z"/>
         <path fill="rgb(205,222,239)" stroke="none" d="M 5039,18494 L 5106,18542 11841,9112 11775,9065 5039,18494 Z"/>
         <path fill="rgb(205,222,239)" stroke="none" d="M 5095,18534 L 5263,18654 11999,9225 11831,9105 5095,18534 Z"/>
         <path fill="rgb(206,222,239)" stroke="none" d="M 5252,18647 L 5421,18767 12156,9337 11988,9217 5252,18647 Z"/>
         <path fill="rgb(207,223,240)" stroke="none" d="M 5410,18759 L 5578,18879 12314,9450 12146,9330 5410,18759 Z"/>
         <path fill="rgb(207,223,240)" stroke="none" d="M 5567,18872 L 5736,18992 12471,9562 12303,9442 5567,18872 Z"/>
         <path fill="rgb(208,224,240)" stroke="none" d="M 5725,18984 L 5893,19104 12629,9675 12461,9555 5725,18984 Z"/>
         <path fill="rgb(209,224,240)" stroke="none" d="M 5882,19097 L 6051,19217 12786,9787 12618,9667 5882,19097 Z"/>
         <path fill="rgb(210,224,240)" stroke="none" d="M 6040,19209 L 6208,19329 12944,9900 12776,9780 6040,19209 Z"/>
         <path fill="rgb(211,225,240)" stroke="none" d="M 6197,19322 L 6366,19442 13101,10012 12933,9892 6197,19322 Z"/>
         <path fill="rgb(211,225,241)" stroke="none" d="M 6355,19434 L 6523,19554 13259,10125 13091,10005 6355,19434 Z"/>
         <path fill="rgb(212,226,241)" stroke="none" d="M 6512,19547 L 6681,19667 13416,10237 13248,10117 6512,19547 Z"/>
         <path fill="rgb(213,226,241)" stroke="none" d="M 6670,19659 L 6838,19779 13574,10350 13406,10230 6670,19659 Z"/>
         <path fill="rgb(214,227,241)" stroke="none" d="M 6827,19772 L 6996,19892 13731,10462 13563,10342 6827,19772 Z"/>
         <path fill="rgb(214,227,241)" stroke="none" d="M 6985,19884 L 7153,20004 13889,10575 13721,10455 6985,19884 Z"/>
         <path fill="rgb(215,228,241)" stroke="none" d="M 7142,19997 L 7311,20117 14046,10687 13878,10567 7142,19997 Z"/>
         <path fill="rgb(216,228,241)" stroke="none" d="M 7300,20109 L 7468,20229 14204,10800 14036,10680 7300,20109 Z"/>
         <path fill="rgb(217,229,242)" stroke="none" d="M 7457,20222 L 7626,20342 14361,10912 14193,10792 7457,20222 Z"/>
         <path fill="rgb(218,229,242)" stroke="none" d="M 7615,20334 L 7783,20454 14519,11025 14351,10905 7615,20334 Z"/>
         <path fill="rgb(218,230,242)" stroke="none" d="M 7772,20447 L 7941,20567 14676,11137 14508,11017 7772,20447 Z"/>
         <path fill="rgb(219,230,242)" stroke="none" d="M 7930,20559 L 8098,20679 14834,11250 14666,11130 7930,20559 Z"/>
         <path fill="rgb(220,231,242)" stroke="none" d="M 8087,20672 L 8256,20792 14991,11362 14823,11242 8087,20672 Z"/>
         <path fill="rgb(221,231,242)" stroke="none" d="M 8245,20784 L 8413,20904 15149,11475 14981,11355 8245,20784 Z"/>
         <path fill="rgb(222,232,243)" stroke="none" d="M 8402,20897 L 8571,21017 15306,11587 15138,11467 8402,20897 Z"/>
         <path fill="rgb(222,232,243)" stroke="none" d="M 8560,21009 L 8627,21057 15362,11627 15296,11580 8560,21009 Z"/>
         <path fill="rgb(223,232,243)" stroke="none" d="M 8616,21049 L 8728,21129 15464,11700 15352,11619 8616,21049 Z"/>
         <path fill="rgb(223,233,243)" stroke="none" d="M 8717,21122 L 8886,21242 15621,11812 15453,11692 8717,21122 Z"/>
         <path fill="rgb(224,233,243)" stroke="none" d="M 8875,21234 L 9043,21354 15779,11925 15611,11805 8875,21234 Z"/>
         <path fill="rgb(225,233,243)" stroke="none" d="M 9033,21347 L 9201,21467 15936,12037 15768,11917 9033,21347 Z"/>
         <path fill="rgb(225,234,243)" stroke="none" d="M 9190,21459 L 9358,21579 16094,12150 15926,12029 9190,21459 Z"/>
         <path fill="rgb(226,234,244)" stroke="none" d="M 9348,21572 L 9516,21692 16251,12262 16083,12142 9348,21572 Z"/>
         <path fill="rgb(227,235,244)" stroke="none" d="M 9505,21684 L 9673,21804 16409,12375 16241,12254 9505,21684 Z"/>
         <path fill="rgb(228,235,244)" stroke="none" d="M 9663,21797 L 9831,21917 16566,12487 16398,12367 9663,21797 Z"/>
         <path fill="rgb(229,236,244)" stroke="none" d="M 9820,21909 L 9988,22029 16724,12600 16556,12479 9820,21909 Z"/>
         <path fill="rgb(229,236,244)" stroke="none" d="M 9978,22022 L 10146,22142 16881,12712 16713,12592 9978,22022 Z"/>
         <path fill="rgb(230,237,244)" stroke="none" d="M 10135,22134 L 10303,22254 17039,12825 16871,12704 10135,22134 Z"/>
         <path fill="rgb(231,237,244)" stroke="none" d="M 10293,22247 L 10461,22367 17196,12937 17028,12817 10293,22247 Z"/>
         <path fill="rgb(232,238,245)" stroke="none" d="M 10450,22359 L 10618,22479 17354,13050 17186,12929 10450,22359 Z"/>
         <path fill="rgb(233,238,245)" stroke="none" d="M 10608,22472 L 10776,22592 17511,13162 17343,13042 10608,22472 Z"/>
         <path fill="rgb(233,239,245)" stroke="none" d="M 10765,22584 L 10933,22704 17669,13275 17501,13154 10765,22584 Z"/>
         <path fill="rgb(234,239,245)" stroke="none" d="M 10923,22697 L 11091,22817 17826,13387 17658,13267 10923,22697 Z"/>
         <path fill="rgb(235,240,245)" stroke="none" d="M 11080,22809 L 11248,22929 17984,13500 17816,13379 11080,22809 Z"/>
         <path fill="rgb(236,240,245)" stroke="none" d="M 11238,22922 L 11406,23042 18141,13612 17973,13492 11238,22922 Z"/>
         <path fill="rgb(236,240,246)" stroke="none" d="M 11395,23034 L 11563,23154 18299,13725 18131,13604 11395,23034 Z"/>
         <path fill="rgb(237,241,246)" stroke="none" d="M 11553,23147 L 11721,23267 18456,13837 18288,13717 11553,23147 Z"/>
         <path fill="rgb(238,241,246)" stroke="none" d="M 11710,23259 L 11878,23379 18614,13950 18446,13829 11710,23259 Z"/>
        </g>
        <g clip-path="url(#clip_path_3)"/>
        <g clip-path="url(#clip_path_1)">
         <path fill="rgb(0,0,0)" stroke="none" d="M 7299,10848 C 7298,10742 7228,10682 7103,10682 6977,10682 6896,10747 6896,10847 6896,10932 6939,10972 7067,11003 L 7148,11022 C 7207,11037 7231,11059 7231,11097 7231,11148 7181,11182 7105,11182 7059,11182 7020,11169 6998,11146 6985,11131 6978,11115 6973,11077 L 6882,11077 C 6887,11202 6957,11262 7098,11262 7234,11262 7321,11195 7321,11091 7321,11010 7276,10966 7168,10940 L 7086,10920 C 7016,10904 6986,10881 6986,10843 6986,10793 7030,10761 7100,10761 7169,10761 7206,10791 7208,10848 L 7299,10848 Z"/>
         <path fill="rgb(0,0,0)" stroke="none" d="M 7860,11238 L 7860,10697 7774,10697 7774,11004 C 7774,11114 7717,11187 7627,11187 7559,11187 7516,11145 7516,11080 L 7516,10697 7430,10697 7430,11114 C 7430,11204 7497,11262 7602,11262 7682,11262 7732,11234 7783,11163 L 7783,11238 7860,11238 Z"/>
         <path fill="rgb(0,0,0)" stroke="none" d="M 7992,10486 L 7992,11238 8070,11238 8070,11169 C 8111,11232 8166,11262 8241,11262 8383,11262 8476,11145 8476,10966 8476,10790 8387,10682 8245,10682 8170,10682 8118,10710 8078,10771 L 8078,10486 7992,10486 Z M 8229,10763 C 8325,10763 8386,10846 8386,10975 8386,11097 8322,11181 8229,11181 8138,11181 8078,11099 8078,10972 8078,10845 8138,10763 8229,10763 L 8229,10763 Z"/>
         <path fill="rgb(0,0,0)" stroke="none" d="M 8962,10848 C 8960,10742 8891,10682 8766,10682 8640,10682 8558,10747 8558,10847 8558,10932 8601,10972 8729,11003 L 8810,11022 C 8870,11037 8894,11059 8894,11097 8894,11148 8843,11182 8768,11182 8721,11182 8682,11169 8661,11146 8647,11131 8641,11115 8636,11077 L 8545,11077 C 8549,11202 8619,11262 8760,11262 8896,11262 8983,11195 8983,11091 8983,11010 8938,10966 8831,10940 L 8748,10920 C 8678,10904 8648,10881 8648,10843 8648,10793 8693,10761 8763,10761 8832,10761 8869,10791 8871,10848 L 8962,10848 Z"/>
         <path fill="rgb(0,0,0)" stroke="none" d="M 9288,10697 L 9199,10697 9199,10549 9113,10549 9113,10697 9040,10697 9040,10768 9113,10768 9113,11176 C 9113,11231 9150,11262 9217,11262 9238,11262 9259,11260 9288,11254 L 9288,11182 C 9276,11185 9263,11187 9246,11187 9209,11187 9199,11176 9199,11138 L 9199,10768 9288,10768 9288,10697 Z"/>
         <path fill="rgb(0,0,0)" stroke="none" d="M 9383,10697 L 9383,11238 9470,11238 9470,10957 C 9470,10880 9489,10830 9531,10800 9558,10780 9583,10774 9643,10773 L 9643,10685 C 9629,10683 9622,10682 9610,10682 9554,10682 9512,10715 9463,10796 L 9463,10697 9383,10697 Z"/>
         <path fill="rgb(0,0,0)" stroke="none" d="M 10207,11188 C 10198,11189 10194,11189 10189,11189 10159,11189 10142,11174 10142,11147 L 10142,10830 C 10142,10734 10072,10682 9939,10682 9861,10682 9796,10705 9760,10745 9735,10773 9725,10804 9722,10857 L 9809,10857 C 9816,10791 9856,10761 9936,10761 10014,10761 10057,10790 10057,10842 L 10057,10864 C 10057,10901 10035,10916 9967,10924 9846,10940 9827,10944 9794,10957 9731,10983 9699,11032 9699,11102 9699,11200 9767,11262 9877,11262 9944,11262 9999,11238 10060,11182 10066,11237 10093,11262 10149,11262 10166,11262 10180,11260 10207,11252 L 10207,11188 Z M 10057,11068 C 10057,11096 10048,11114 10023,11138 9988,11170 9945,11187 9895,11187 9828,11187 9789,11155 9789,11100 9789,11043 9827,11014 9919,11001 10009,10988 10028,10984 10057,10971 L 10057,11068 Z"/>
         <path fill="rgb(0,0,0)" stroke="none" d="M 10715,10879 C 10710,10827 10699,10792 10679,10763 10642,10712 10576,10682 10501,10682 10356,10682 10261,10798 10261,10977 10261,11151 10354,11262 10500,11262 10629,11262 10710,11184 10721,11052 L 10634,11052 C 10620,11139 10575,11182 10502,11182 10407,11182 10351,11105 10351,10977 10351,10842 10406,10761 10500,10761 10572,10761 10618,10804 10628,10879 L 10715,10879 Z"/>
         <path fill="rgb(0,0,0)" stroke="none" d="M 11007,10697 L 10918,10697 10918,10549 10832,10549 10832,10697 10759,10697 10759,10768 10832,10768 10832,11176 C 10832,11231 10870,11262 10936,11262 10957,11262 10978,11260 11007,11254 L 11007,11182 C 10995,11185 10982,11187 10966,11187 10928,11187 10918,11176 10918,11138 L 10918,10768 11007,10768 11007,10697 Z"/>
         <path fill="rgb(0,0,0)" stroke="none" d="M 11186,10697 L 11101,10697 11101,11238 11186,11238 11186,10697 Z M 11186,10486 L 11100,10486 11100,10595 11186,10595 11186,10486 Z"/>
         <path fill="rgb(0,0,0)" stroke="none" d="M 11541,10682 C 11389,10682 11298,10790 11298,10972 11298,11153 11388,11262 11542,11262 11693,11262 11786,11153 11786,10976 11786,10789 11697,10682 11541,10682 L 11541,10682 Z M 11542,10761 C 11639,10761 11697,10841 11697,10975 11697,11102 11637,11182 11542,11182 11446,11182 11387,11103 11387,10972 11387,10842 11446,10761 11542,10761 L 11542,10761 Z"/>
         <path fill="rgb(0,0,0)" stroke="none" d="M 11906,10697 L 11906,11238 11993,11238 11993,10940 C 11993,10830 12050,10757 12139,10757 12207,10757 12250,10799 12250,10863 L 12250,11238 12336,11238 12336,10830 C 12336,10740 12269,10682 12164,10682 12084,10682 12033,10713 11985,10788 L 11985,10697 11906,10697 Z"/>
         <path fill="rgb(0,0,0)" stroke="none" d="M 13003,11368 L 12384,11368 12384,11420 13003,11420 13003,11368 Z"/>
         <path fill="rgb(0,0,0)" stroke="none" d="M 13264,10507 C 13196,10507 13134,10536 13096,10587 13049,10651 13025,10749 13025,10884 13025,11131 13107,11262 13264,11262 13419,11262 13503,11131 13503,10891 13503,10748 13481,10653 13432,10587 13394,10536 13333,10507 13264,10507 L 13264,10507 Z M 13264,10587 C 13362,10587 13411,10686 13411,10882 13411,11089 13363,11187 13262,11187 13166,11187 13117,11085 13117,10885 13117,10685 13166,10587 13264,10587 L 13264,10587 Z"/>
         <path fill="rgb(63,110,158)" stroke="none" d="M 6468,19364 C 6467,19258 6397,19198 6272,19198 6146,19198 6065,19263 6065,19363 6065,19448 6108,19488 6236,19519 L 6317,19538 C 6376,19553 6400,19575 6400,19614 6400,19664 6350,19698 6274,19698 6228,19698 6189,19685 6167,19662 6153,19647 6147,19631 6142,19593 L 6051,19593 C 6056,19718 6126,19778 6267,19778 6403,19778 6490,19711 6490,19607 6490,19526 6445,19482 6337,19456 L 6255,19436 C 6184,19420 6154,19397 6154,19359 6154,19309 6199,19277 6269,19277 6338,19277 6375,19307 6377,19364 L 6468,19364 Z"/>
         <path fill="rgb(63,110,158)" stroke="none" d="M 7029,19754 L 7029,19213 6943,19213 6943,19520 C 6943,19631 6886,19703 6796,19703 6728,19703 6685,19661 6685,19596 L 6685,19213 6599,19213 6599,19631 C 6599,19720 6666,19778 6771,19778 6851,19778 6901,19750 6952,19679 L 6952,19754 7029,19754 Z"/>
         <path fill="rgb(63,110,158)" stroke="none" d="M 7161,19002 L 7161,19754 7239,19754 7239,19685 C 7280,19748 7334,19778 7410,19778 7552,19778 7644,19661 7644,19482 7644,19306 7556,19198 7414,19198 7339,19198 7287,19226 7247,19287 L 7247,19002 7161,19002 Z M 7397,19279 C 7493,19279 7555,19362 7555,19491 7555,19614 7491,19697 7397,19697 7306,19697 7247,19615 7247,19488 7247,19361 7306,19279 7397,19279 L 7397,19279 Z"/>
         <path fill="rgb(63,110,158)" stroke="none" d="M 8131,19364 C 8129,19258 8059,19198 7934,19198 7809,19198 7727,19263 7727,19363 7727,19448 7770,19488 7898,19519 L 7979,19538 C 8039,19553 8062,19575 8062,19614 8062,19664 8012,19698 7936,19698 7890,19698 7851,19685 7829,19662 7816,19647 7809,19631 7805,19593 L 7714,19593 C 7718,19718 7788,19778 7929,19778 8065,19778 8152,19711 8152,19607 8152,19526 8107,19482 7999,19456 L 7917,19436 C 7847,19420 7817,19397 7817,19359 7817,19309 7861,19277 7932,19277 8000,19277 8038,19307 8040,19364 L 8131,19364 Z"/>
         <path fill="rgb(63,110,158)" stroke="none" d="M 8456,19213 L 8368,19213 8368,19065 8282,19065 8282,19213 8209,19213 8209,19284 8282,19284 8282,19692 C 8282,19747 8319,19778 8386,19778 8407,19778 8427,19776 8456,19771 L 8456,19698 C 8445,19701 8432,19703 8415,19703 8378,19703 8368,19692 8368,19654 L 8368,19284 8456,19284 8456,19213 Z"/>
         <path fill="rgb(63,110,158)" stroke="none" d="M 8552,19213 L 8552,19754 8639,19754 8639,19474 C 8639,19396 8658,19346 8699,19316 8727,19296 8752,19290 8812,19289 L 8812,19201 C 8798,19199 8791,19198 8779,19198 8723,19198 8681,19231 8632,19312 L 8632,19213 8552,19213 Z"/>
         <path fill="rgb(63,110,158)" stroke="none" d="M 9376,19704 C 9367,19706 9363,19706 9358,19706 9328,19706 9311,19690 9311,19663 L 9311,19346 C 9311,19250 9241,19198 9108,19198 9030,19198 8965,19221 8929,19261 8904,19289 8894,19320 8891,19373 L 8978,19373 C 8985,19307 9024,19277 9105,19277 9182,19277 9226,19306 9226,19358 L 9226,19381 C 9226,19417 9204,19432 9136,19441 9014,19456 8995,19460 8962,19474 8900,19499 8868,19548 8868,19618 8868,19716 8936,19778 9045,19778 9113,19778 9168,19754 9229,19698 9235,19753 9262,19778 9318,19778 9335,19778 9349,19776 9376,19769 L 9376,19704 Z M 9226,19584 C 9226,19613 9217,19631 9192,19654 9157,19686 9114,19703 9064,19703 8997,19703 8958,19671 8958,19616 8958,19559 8995,19530 9087,19517 9178,19505 9197,19500 9226,19487 L 9226,19584 Z"/>
         <path fill="rgb(63,110,158)" stroke="none" d="M 9884,19395 C 9879,19343 9868,19308 9847,19279 9811,19228 9745,19198 9670,19198 9525,19198 9430,19314 9430,19493 9430,19667 9523,19778 9669,19778 9798,19778 9879,19700 9890,19569 L 9803,19569 C 9789,19655 9744,19698 9671,19698 9576,19698 9519,19621 9519,19493 9519,19358 9575,19277 9669,19277 9741,19277 9787,19320 9797,19395 L 9884,19395 Z"/>
         <path fill="rgb(63,110,158)" stroke="none" d="M 10175,19213 L 10087,19213 10087,19065 10001,19065 10001,19213 9928,19213 9928,19284 10001,19284 10001,19692 C 10001,19747 10038,19778 10105,19778 10126,19778 10146,19776 10175,19771 L 10175,19698 C 10164,19701 10151,19703 10134,19703 10097,19703 10087,19692 10087,19654 L 10087,19284 10175,19284 10175,19213 Z"/>
         <path fill="rgb(63,110,158)" stroke="none" d="M 10355,19213 L 10269,19213 10269,19754 10355,19754 10355,19213 Z M 10355,19002 L 10268,19002 10268,19111 10355,19111 10355,19002 Z"/>
         <path fill="rgb(63,110,158)" stroke="none" d="M 10710,19198 C 10558,19198 10466,19306 10466,19488 10466,19669 10557,19778 10710,19778 10862,19778 10955,19669 10955,19492 10955,19305 10866,19198 10710,19198 L 10710,19198 Z M 10710,19277 C 10807,19277 10866,19357 10866,19491 10866,19618 10805,19698 10710,19698 10615,19698 10556,19619 10556,19488 10556,19358 10615,19277 10710,19277 L 10710,19277 Z"/>
         <path fill="rgb(63,110,158)" stroke="none" d="M 11075,19213 L 11075,19754 11161,19754 11161,19456 C 11161,19346 11219,19274 11308,19274 11376,19274 11419,19315 11419,19380 L 11419,19754 11505,19754 11505,19346 C 11505,19256 11437,19198 11333,19198 11253,19198 11202,19229 11154,19305 L 11154,19213 11075,19213 Z"/>
         <path fill="rgb(63,110,158)" stroke="none" d="M 12172,19884 L 11553,19884 11553,19936 12172,19936 12172,19884 Z"/>
         <path fill="rgb(63,110,158)" stroke="none" d="M 12443,19754 L 12651,19213 12554,19213 12401,19652 12256,19213 12159,19213 12349,19754 12443,19754 Z"/>
         <path fill="rgb(63,110,158)" stroke="none" d="M 12932,19233 L 12932,19754 13023,19754 13023,19023 12963,19023 C 12931,19135 12910,19151 12770,19168 L 12770,19233 12932,19233 Z"/>
         <path fill="rgb(63,110,158)" stroke="none" d="M 13835,19884 L 13215,19884 13215,19936 13835,19936 13835,19884 Z"/>
         <path fill="rgb(63,110,158)" stroke="none" d="M 14095,19023 C 14027,19023 13965,19053 13927,19103 13880,19167 13856,19265 13856,19400 13856,19647 13938,19778 14095,19778 14250,19778 14334,19647 14334,19407 14334,19264 14312,19169 14264,19103 14225,19052 14164,19023 14095,19023 L 14095,19023 Z M 14095,19103 C 14193,19103 14242,19202 14242,19398 14242,19605 14194,19703 14093,19703 13997,19703 13949,19601 13949,19401 13949,19201 13997,19103 14095,19103 L 14095,19103 Z"/>
         <path fill="none" stroke="rgb(0,0,0)" stroke-width="430" stroke-linejoin="miter" d="M 4185,13342 L 5044,13342"/>
         <path fill="rgb(0,0,0)" stroke="none" d="M 5624,13462 L 5688,13650 5777,13650 5557,13024 5454,13024 5231,13650 5316,13650 5382,13462 5624,13462 Z M 5601,13395 L 5402,13395 5505,13110 5601,13395 Z"/>
         <path fill="rgb(0,0,0)" stroke="none" d="M 6286,13759 L 5771,13759 5771,13802 6286,13802 6286,13759 Z"/>
         <path fill="rgb(0,0,0)" stroke="none" d="M 6396,13200 L 6325,13200 6325,13650 6396,13650 6396,13200 Z M 6396,13024 L 6324,13024 6324,13114 6396,13114 6396,13024 Z"/>
         <path fill="rgb(0,0,0)" stroke="none" d="M 6673,13024 L 6513,13024 6513,13833 6673,13833 6673,13771 6584,13771 6584,13086 6673,13086 6673,13024 Z"/>
         <path fill="rgb(0,0,0)" stroke="none" d="M 6887,13371 L 6897,13371 6928,13370 C 7011,13370 7054,13408 7054,13481 7054,13557 7007,13603 6928,13603 6846,13603 6805,13562 6800,13474 L 6725,13474 C 6728,13523 6737,13554 6751,13582 6782,13640 6842,13670 6926,13670 7051,13670 7132,13595 7132,13480 7132,13403 7102,13360 7029,13335 7085,13313 7114,13270 7114,13209 7114,13104 7044,13041 6928,13041 6805,13041 6740,13108 6737,13238 L 6813,13238 C 6814,13201 6817,13181 6827,13162 6844,13128 6882,13107 6929,13107 6996,13107 7037,13147 7037,13211 7037,13254 7021,13280 6988,13294 6967,13303 6940,13306 6887,13307 L 6887,13371 Z"/>
         <path fill="rgb(0,0,0)" stroke="none" d="M 7359,13561 L 7269,13561 7269,13650 7359,13650 7359,13561 Z M 7359,13200 L 7269,13200 7269,13290 7359,13290 7359,13200 Z"/>
         <path fill="rgb(0,0,0)" stroke="none" d="M 7650,13041 C 7593,13041 7542,13066 7510,13108 7470,13162 7450,13243 7450,13356 7450,13561 7519,13670 7650,13670 7779,13670 7849,13561 7849,13361 7849,13242 7830,13163 7790,13108 7758,13065 7708,13041 7650,13041 L 7650,13041 Z M 7650,13108 C 7731,13108 7772,13191 7772,13354 7772,13527 7732,13607 7648,13607 7568,13607 7528,13523 7528,13356 7528,13190 7568,13108 7650,13108 L 7650,13108 Z"/>
         <path fill="rgb(0,0,0)" stroke="none" d="M 7911,13833 L 8071,13833 8071,13024 7911,13024 7911,13086 8000,13086 8000,13771 7911,13771 7911,13833 Z"/>
         <path fill="none" stroke="rgb(0,0,0)" stroke-width="430" stroke-linejoin="miter" d="M 4185,15061 L 5044,15061"/>
         <path fill="rgb(0,0,0)" stroke="none" d="M 5284,15369 L 5567,15369 C 5626,15369 5670,15353 5704,15317 5735,15284 5752,15239 5752,15190 5752,15115 5717,15069 5637,15038 5694,15012 5724,14965 5724,14902 5724,14856 5707,14816 5674,14786 5642,14756 5598,14743 5538,14743 L 5284,14743 5284,15369 Z M 5364,15013 L 5364,14813 5518,14813 C 5564,14813 5588,14819 5610,14835 5632,14853 5644,14878 5644,14913 5644,14946 5632,14973 5610,14990 5588,15006 5564,15013 5518,15013 L 5364,15013 Z M 5364,15299 L 5364,15083 5559,15083 C 5598,15083 5624,15093 5643,15113 5661,15133 5672,15160 5672,15191 5672,15221 5661,15249 5643,15268 5624,15289 5598,15299 5559,15299 L 5364,15299 Z"/>
         <path fill="rgb(0,0,0)" stroke="none" d="M 6286,15478 L 5771,15478 5771,15520 6286,15520 6286,15478 Z"/>
         <path fill="rgb(0,0,0)" stroke="none" d="M 6396,14919 L 6325,14919 6325,15369 6396,15369 6396,14919 Z M 6396,14743 L 6324,14743 6324,14833 6396,14833 6396,14743 Z"/>
         <path fill="rgb(0,0,0)" stroke="none" d="M 6673,14743 L 6513,14743 6513,15551 6673,15551 6673,15489 6584,15489 6584,14804 6673,14804 6673,14743 Z"/>
         <path fill="rgb(0,0,0)" stroke="none" d="M 6887,15090 L 6897,15090 6928,15089 C 7011,15089 7054,15127 7054,15200 7054,15276 7007,15322 6928,15322 6846,15322 6805,15280 6800,15192 L 6725,15192 C 6728,15241 6737,15273 6751,15300 6782,15359 6842,15389 6926,15389 7051,15389 7132,15314 7132,15199 7132,15122 7102,15078 7029,15054 7085,15031 7114,14988 7114,14927 7114,14823 7044,14760 6928,14760 6805,14760 6740,14827 6737,14956 L 6813,14956 C 6814,14920 6817,14899 6827,14880 6844,14846 6882,14826 6929,14826 6996,14826 7037,14865 7037,14930 7037,14973 7021,14999 6988,15013 6967,15021 6940,15025 6887,15025 L 6887,15090 Z"/>
         <path fill="rgb(0,0,0)" stroke="none" d="M 7359,15280 L 7269,15280 7269,15369 7359,15369 7359,15280 Z M 7359,14919 L 7269,14919 7269,15008 7359,15008 7359,14919 Z"/>
         <path fill="rgb(0,0,0)" stroke="none" d="M 7650,14760 C 7593,14760 7542,14785 7510,14827 7470,14880 7450,14962 7450,15075 7450,15280 7519,15389 7650,15389 7779,15389 7849,15280 7849,15079 7849,14961 7830,14882 7790,14827 7758,14784 7708,14760 7650,14760 L 7650,14760 Z M 7650,14827 C 7731,14827 7772,14909 7772,15073 7772,15246 7732,15326 7648,15326 7568,15326 7528,15242 7528,15075 7528,14908 7568,14827 7650,14827 L 7650,14827 Z"/>
         <path fill="rgb(0,0,0)" stroke="none" d="M 7911,15551 L 8071,15551 8071,14743 7911,14743 7911,14804 8000,14804 8000,15489 7911,15489 7911,15551 Z"/>
         <path fill="none" stroke="rgb(0,0,0)" stroke-width="258" stroke-linejoin="miter" d="M 4185,16779 L 5044,16779"/>
         <path fill="rgb(0,0,0)" stroke="none" d="M 5621,16789 C 5617,16745 5608,16717 5591,16692 5560,16649 5506,16625 5443,16625 5322,16625 5243,16721 5243,16870 5243,17016 5320,17108 5442,17108 5550,17108 5617,17043 5626,16933 L 5554,16933 C 5542,17005 5505,17041 5444,17041 5365,17041 5317,16977 5317,16870 5317,16758 5364,16691 5442,16691 5503,16691 5540,16726 5549,16789 L 5621,16789 Z"/>
         <path fill="rgb(0,0,0)" stroke="none" d="M 6142,17196 L 5627,17196 5627,17239 6142,17239 6142,17196 Z"/>
         <path fill="rgb(0,0,0)" stroke="none" d="M 6253,16637 L 6181,16637 6181,17088 6253,17088 6253,16637 Z M 6253,16462 L 6180,16462 6180,16552 6253,16552 6253,16462 Z"/>
         <path fill="none" stroke="rgb(0,0,0)" stroke-width="430" stroke-linejoin="miter" d="M 16216,14201 L 15357,14201"/>
         <path fill="rgb(0,0,0)" stroke="none" d="M 12317,14264 L 12552,13883 12457,13883 12278,14189 12094,13883 11995,13883 12237,14264 12237,14510 12317,14510 12317,14264 Z"/>
         <path fill="rgb(0,0,0)" stroke="none" d="M 13054,14618 L 12538,14618 12538,14661 13054,14661 13054,14618 Z"/>
         <path fill="rgb(0,0,0)" stroke="none" d="M 13269,14047 C 13142,14047 13066,14137 13066,14288 13066,14440 13141,14530 13269,14530 13396,14530 13473,14440 13473,14291 13473,14136 13398,14047 13269,14047 L 13269,14047 Z M 13269,14113 C 13350,14113 13398,14179 13398,14291 13398,14396 13349,14463 13269,14463 13189,14463 13140,14397 13140,14288 13140,14180 13189,14113 13269,14113 L 13269,14113 Z"/>
         <path fill="rgb(0,0,0)" stroke="none" d="M 13728,13883 L 13568,13883 13568,14692 13728,14692 13728,14630 13639,14630 13639,13945 13728,13945 13728,13883 Z"/>
         <path fill="rgb(0,0,0)" stroke="none" d="M 13941,14230 L 13951,14230 13983,14230 C 14066,14230 14109,14268 14109,14341 14109,14417 14062,14462 13983,14462 13900,14462 13860,14421 13855,14333 L 13779,14333 C 13783,14382 13791,14413 13806,14441 13837,14500 13897,14530 13980,14530 14106,14530 14187,14455 14187,14340 14187,14262 14157,14219 14083,14194 14140,14172 14168,14129 14168,14068 14168,13963 14099,13900 13983,13900 13860,13900 13795,13968 13792,14097 L 13867,14097 C 13868,14060 13872,14040 13881,14021 13898,13987 13936,13967 13984,13967 14050,13967 14091,14006 14091,14070 14091,14114 14076,14139 14042,14153 14021,14162 13995,14165 13941,14166 L 13941,14230 Z"/>
         <path fill="rgb(0,0,0)" stroke="none" d="M 14413,14421 L 14324,14421 14324,14510 14413,14510 14413,14421 Z M 14413,14059 L 14324,14059 14324,14149 14413,14149 14413,14059 Z"/>
         <path fill="rgb(0,0,0)" stroke="none" d="M 14705,13900 C 14648,13900 14596,13926 14565,13968 14525,14021 14505,14102 14505,14215 14505,14421 14574,14530 14705,14530 14834,14530 14904,14421 14904,14220 14904,14101 14885,14022 14845,13968 14813,13925 14762,13900 14705,13900 L 14705,13900 Z M 14705,13968 C 14786,13968 14827,14050 14827,14213 14827,14386 14787,14467 14703,14467 14623,14467 14583,14382 14583,14216 14583,14049 14623,13968 14705,13968 L 14705,13968 Z"/>
         <path fill="rgb(0,0,0)" stroke="none" d="M 14966,14692 L 15126,14692 15126,13883 14966,13883 14966,13945 15055,13945 15055,14630 14966,14630 14966,14692 Z"/>
         <path fill="none" stroke="rgb(0,0,0)" stroke-width="258" stroke-linejoin="miter" d="M 16216,15920 L 15357,15920"/>
         <path fill="rgb(0,0,0)" stroke="none" d="M 14205,15930 C 14201,15886 14192,15857 14174,15832 14144,15790 14089,15765 14026,15765 13905,15765 13826,15862 13826,16011 13826,16156 13904,16248 14026,16248 14133,16248 14201,16184 14210,16074 L 14137,16074 C 14125,16146 14088,16182 14027,16182 13948,16182 13901,16118 13901,16011 13901,15899 13947,15831 14026,15831 14086,15831 14124,15867 14133,15930 L 14205,15930 Z"/>
         <path fill="rgb(0,0,0)" stroke="none" d="M 14726,16337 L 14211,16337 14211,16380 14726,16380 14726,16337 Z"/>
         <path fill="rgb(0,0,0)" stroke="none" d="M 14941,15765 C 14815,15765 14738,15855 14738,16007 14738,16158 14814,16248 14942,16248 15068,16248 15146,16158 15146,16010 15146,15855 15071,15765 14941,15765 L 14941,15765 Z M 14942,15831 C 15023,15831 15071,15898 15071,16010 15071,16115 15021,16182 14942,16182 14862,16182 14813,16116 14813,16007 14813,15899 14862,15831 14942,15831 L 14942,15831 Z"/>
         <path fill="none" stroke="rgb(63,110,158)" stroke-width="86" stroke-linejoin="miter" d="M 5646,11623 L 14755,11623"/>
         <path fill="none" stroke="rgb(63,110,158)" stroke-width="86" stroke-linejoin="miter" d="M 15357,12225 C 15357,12215 15357,12206 15357,12196 15349,11872 15080,11615 14755,11623"/>
         <path fill="none" stroke="rgb(63,110,158)" stroke-width="86" stroke-linejoin="miter" d="M 15357,12225 L 15357,17897"/>
         <path fill="none" stroke="rgb(63,110,158)" stroke-width="86" stroke-linejoin="miter" d="M 14755,18498 C 14765,18498 14774,18498 14784,18498 15108,18490 15365,18221 15357,17897"/>
         <path fill="none" stroke="rgb(63,110,158)" stroke-width="86" stroke-linejoin="miter" d="M 14755,18498 L 5646,18498"/>
         <path fill="none" stroke="rgb(63,110,158)" stroke-width="86" stroke-linejoin="miter" d="M 5044,17897 C 5044,17906 5044,17916 5044,17925 5052,18249 5322,18506 5646,18498"/>
         <path fill="none" stroke="rgb(63,110,158)" stroke-width="86" stroke-linejoin="miter" d="M 5044,17897 L 5044,12225"/>
         <path fill="none" stroke="rgb(63,110,158)" stroke-width="86" stroke-linejoin="miter" d="M 5646,11623 C 5636,11623 5627,11623 5617,11623 5293,11631 5036,11900 5044,12225"/>
        </g>
       </g>
      </g>
     </g>
    </g>
   </g>
  </g>
 </g>
</svg>