<?xml version="1.0" encoding="UTF-8"?>
<!DOCTYPE svg PUBLIC "-//W3C//DTD SVG 1.1//EN" "http://www.w3.org/Graphics/SVG/1.1/DTD/svg11.dtd">
<svg version="1.2" width="119.99mm" height="85.99mm" viewBox="5200 11100 11999 8599" preserveAspectRatio="xMidYMid" fill-rule="evenodd" stroke-width="28.222" stroke-linejoin="round" xmlns="http://www.w3.org/2000/svg" xmlns:ooo="http://xml.openoffice.org/svg/export" xmlns:xlink="http://www.w3.org/1999/xlink" xmlns:presentation="http://sun.com/xmlns/staroffice/presentation" xmlns:smil="http://www.w3.org/2001/SMIL20/" xmlns:anim="urn:oasis:names:tc:opendocument:xmlns:animation:1.0" xml:space="preserve">
 <defs class="ClipPathGroup">
  <clipPath id="presentation_clip_path" clipPathUnits="userSpaceOnUse">
   <rect x="5200" y="11100" width="11999" height="8599"/>
  </clipPath>
  <clipPath id="presentation_clip_path_shrink" clipPathUnits="userSpaceOnUse">
   <rect x="5211" y="11108" width="11976" height="8582"/>
  </clipPath>
 </defs>
 <defs class="TextShapeIndex">
  <g ooo:slide="id1" ooo:id-list="id3"/>
 </defs>
 <defs class="EmbeddedBulletChars">
  <g id="bullet-char-template-57356" transform="scale(0.00048828125,-0.00048828125)">
   <path d="M 580,1141 L 1163,571 580,0 -4,571 580,1141 Z"/>
  </g>
  <g id="bullet-char-template-57354" transform="scale(0.00048828125,-0.00048828125)">
   <path d="M 8,1128 L 1137,1128 1137,0 8,0 8,1128 Z"/>
  </g>
  <g id="bullet-char-template-10146" transform="scale(0.00048828125,-0.00048828125)">
   <path d="M 174,0 L 602,739 174,1481 1456,739 174,0 Z M 1358,739 L 309,1346 659,739 1358,739 Z"/>
  </g>
  <g id="bullet-char-template-10132" transform="scale(0.00048828125,-0.00048828125)">
   <path d="M 2015,739 L 1276,0 717,0 1260,543 174,543 174,936 1260,936 717,1481 1274,1481 2015,739 Z"/>
  </g>
  <g id="bullet-char-template-10007" transform="scale(0.00048828125,-0.00048828125)">
   <path d="M 0,-2 C -7,14 -16,27 -25,37 L 356,567 C 262,823 215,952 215,954 215,979 228,992 255,992 264,992 276,990 289,987 310,991 331,999 354,1012 L 381,999 492,748 772,1049 836,1024 860,1049 C 881,1039 901,1025 922,1006 886,937 835,863 770,784 769,783 710,716 594,584 L 774,223 C 774,196 753,168 711,139 L 727,119 C 717,90 699,76 672,76 641,76 570,178 457,381 L 164,-76 C 142,-110 111,-127 72,-127 30,-127 9,-110 8,-76 1,-67 -2,-52 -2,-32 -2,-23 -1,-13 0,-2 Z"/>
  </g>
  <g id="bullet-char-template-10004" transform="scale(0.00048828125,-0.00048828125)">
   <path d="M 285,-33 C 182,-33 111,30 74,156 52,228 41,333 41,471 41,549 55,616 82,672 116,743 169,778 240,778 293,778 328,747 346,684 L 369,508 C 377,444 397,411 428,410 L 1163,1116 C 1174,1127 1196,1133 1229,1133 1271,1133 1292,1118 1292,1087 L 1292,965 C 1292,929 1282,901 1262,881 L 442,47 C 390,-6 338,-33 285,-33 Z"/>
  </g>
  <g id="bullet-char-template-9679" transform="scale(0.00048828125,-0.00048828125)">
   <path d="M 813,0 C 632,0 489,54 383,161 276,268 223,411 223,592 223,773 276,916 383,1023 489,1130 632,1184 813,1184 992,1184 1136,1130 1245,1023 1353,916 1407,772 1407,592 1407,412 1353,268 1245,161 1136,54 992,0 813,0 Z"/>
  </g>
  <g id="bullet-char-template-8226" transform="scale(0.00048828125,-0.00048828125)">
   <path d="M 346,457 C 273,457 209,483 155,535 101,586 74,649 74,723 74,796 101,859 155,911 209,963 273,989 346,989 419,989 480,963 531,910 582,859 608,796 608,723 608,648 583,586 532,535 482,483 420,457 346,457 Z"/>
  </g>
  <g id="bullet-char-template-8211" transform="scale(0.00048828125,-0.00048828125)">
   <path d="M -4,459 L 1135,459 1135,606 -4,606 -4,459 Z"/>
  </g>
  <g id="bullet-char-template-61548" transform="scale(0.00048828125,-0.00048828125)">
   <path d="M 173,740 C 173,903 231,1043 346,1159 462,1274 601,1332 765,1332 928,1332 1067,1274 1183,1159 1299,1043 1357,903 1357,740 1357,577 1299,437 1183,322 1067,206 928,148 765,148 601,148 462,206 346,322 231,437 173,577 173,740 Z"/>
  </g>
 </defs>
 <defs class="TextEmbeddedBitmaps"/>
 <g class="SlideGroup">
  <g>
   <g id="container-id1">
    <g id="id1" class="Slide" clip-path="url(#presentation_clip_path)">
     <g class="Page">
      <g class="Graphic">
       <g id="id3">
        <rect class="BoundingBox" stroke="none" fill="none" x="5200" y="11100" width="12000" height="8600"/>
        <defs>
         <clipPath id="clip_path_1" clipPathUnits="userSpaceOnUse">
          <path d="M 5200,11100 L 17199,11100 17199,19699 5200,19699 5200,11100 Z"/>
         </clipPath>
        </defs>
        <g clip-path="url(#clip_path_1)"/>
        <defs>
         <clipPath id="clip_path_2" clipPathUnits="userSpaceOnUse">
          <path d="M 5200,11100 L 17199,11100 17199,19699 5200,19699 5200,11100 Z"/>
         </clipPath>
        </defs>
        <g clip-path="url(#clip_path_2)">
         <path fill="rgb(255,255,255)" stroke="none" d="M 2606,10140 L 19793,10140 19793,20952 2606,20952 2606,10140 Z"/>
        </g>
        <g clip-path="url(#clip_path_1)">
         <path fill="rgb(0,0,0)" stroke="none" d="M 7762,12646 L 15353,12646 15568,12718 15711,12789 15783,12932 15854,13147 15854,17873 15783,18088 15711,18231 15568,18303 15353,18374 7762,18374 7547,18303 7404,18231 7332,18088 7261,17873 7261,13147 7332,12932 7404,12789 7547,12718 7762,12646 Z"/>
        </g>
        <defs>
         <clipPath id="clip_path_3" clipPathUnits="userSpaceOnUse">
          <path d="M 7404,12288 L 14995,12288 15210,12360 15353,12431 15425,12574 15496,12789 15496,17515 15425,17730 15353,17873 15210,17945 14995,18016 7404,18016 7189,17945 7046,17873 6974,17730 6903,17515 6903,12789 6974,12574 7046,12431 7189,12360 7404,12288 Z"/>
         </clipPath>
        </defs>
        <g clip-path="url(#clip_path_3)"/>
        <defs>
         <clipPath id="clip_path_4" clipPathUnits="userSpaceOnUse">
          <path d="M 7404,12288 L 14995,12288 15210,12360 15353,12431 15425,12574 15496,12789 15496,17515 15425,17730 15353,17873 15210,17945 14995,18016 7404,18016 7189,17945 7046,17873 6974,17730 6903,17515 6903,12789 6974,12574 7046,12431 7189,12360 7404,12288 Z"/>
         </clipPath>
        </defs>
        <g clip-path="url(#clip_path_4)">
         <path fill="rgb(189,212,236)" stroke="none" d="M 4188,16077 L 4198,16085 9811,8228 9801,8220 4188,16077 Z"/>
         <path fill="rgb(189,212,236)" stroke="none" d="M 4188,16077 L 4330,16179 9943,8321 9801,8220 4188,16077 Z"/>
         <path fill="rgb(189,212,236)" stroke="none" d="M 4319,16171 L 4461,16272 10074,8415 9932,8314 4319,16171 Z"/>
         <path fill="rgb(190,213,236)" stroke="none" d="M 4450,16265 L 4592,16366 10205,8509 10063,8407 4450,16265 Z"/>
         <path fill="rgb(191,213,236)" stroke="none" d="M 4581,16359 L 4723,16460 10336,8603 10194,8501 4581,16359 Z"/>
         <path fill="rgb(192,214,237)" stroke="none" d="M 4713,16452 L 4855,16554 10468,8696 10326,8595 4713,16452 Z"/>
         <path fill="rgb(192,214,237)" stroke="none" d="M 4844,16546 L 4986,16647 10599,8790 10457,8689 4844,16546 Z"/>
         <path fill="rgb(193,215,237)" stroke="none" d="M 4975,16640 L 5117,16741 10730,8884 10588,8782 4975,16640 Z"/>
         <path fill="rgb(194,215,237)" stroke="none" d="M 5106,16734 L 5248,16835 10861,8978 10719,8876 5106,16734 Z"/>
         <path fill="rgb(195,216,237)" stroke="none" d="M 5238,16827 L 5380,16929 10993,9071 10851,8970 5238,16827 Z"/>
         <path fill="rgb(196,216,237)" stroke="none" d="M 5369,16921 L 5511,17022 11124,9165 10982,9064 5369,16921 Z"/>
         <path fill="rgb(196,216,238)" stroke="none" d="M 5500,17015 L 5642,17116 11255,9259 11113,9157 5500,17015 Z"/>
         <path fill="rgb(197,217,238)" stroke="none" d="M 5631,17109 L 5773,17210 11386,9353 11244,9251 5631,17109 Z"/>
         <path fill="rgb(198,217,238)" stroke="none" d="M 5763,17202 L 5905,17304 11518,9446 11376,9345 5763,17202 Z"/>
         <path fill="rgb(199,218,238)" stroke="none" d="M 5894,17296 L 6036,17397 11649,9540 11507,9439 5894,17296 Z"/>
         <path fill="rgb(200,218,238)" stroke="none" d="M 6025,17390 L 6167,17491 11780,9634 11638,9532 6025,17390 Z"/>
         <path fill="rgb(200,219,238)" stroke="none" d="M 6156,17483 L 6298,17585 11911,9728 11769,9626 6156,17483 Z"/>
         <path fill="rgb(201,219,239)" stroke="none" d="M 6288,17577 L 6430,17679 12043,9821 11901,9720 6288,17577 Z"/>
         <path fill="rgb(202,220,239)" stroke="none" d="M 6419,17671 L 6561,17772 12174,9915 12032,9814 6419,17671 Z"/>
         <path fill="rgb(203,220,239)" stroke="none" d="M 6550,17765 L 6692,17866 12305,10009 12163,9907 6550,17765 Z"/>
         <path fill="rgb(203,221,239)" stroke="none" d="M 6681,17858 L 6823,17960 12436,10102 12294,10001 6681,17858 Z"/>
         <path fill="rgb(204,221,239)" stroke="none" d="M 6813,17952 L 6908,18020 12521,10163 12426,10095 6813,17952 Z"/>
         <path fill="rgb(205,222,239)" stroke="none" d="M 6897,18013 L 6955,18054 12568,10196 12510,10155 6897,18013 Z"/>
         <path fill="rgb(205,222,239)" stroke="none" d="M 6944,18046 L 7086,18147 12699,10290 12557,10189 6944,18046 Z"/>
         <path fill="rgb(206,222,239)" stroke="none" d="M 7075,18140 L 7217,18241 12830,10384 12688,10282 7075,18140 Z"/>
         <path fill="rgb(207,223,240)" stroke="none" d="M 7206,18233 L 7348,18335 12961,10477 12819,10376 7206,18233 Z"/>
         <path fill="rgb(207,223,240)" stroke="none" d="M 7338,18327 L 7480,18429 13093,10571 12951,10470 7338,18327 Z"/>
         <path fill="rgb(208,224,240)" stroke="none" d="M 7469,18421 L 7611,18522 13224,10665 13082,10564 7469,18421 Z"/>
         <path fill="rgb(209,224,240)" stroke="none" d="M 7600,18515 L 7742,18616 13355,10759 13213,10657 7600,18515 Z"/>
         <path fill="rgb(210,224,240)" stroke="none" d="M 7731,18608 L 7873,18710 13486,10852 13344,10751 7731,18608 Z"/>
         <path fill="rgb(211,225,240)" stroke="none" d="M 7863,18702 L 8005,18803 13618,10946 13476,10845 7863,18702 Z"/>
         <path fill="rgb(211,225,241)" stroke="none" d="M 7994,18796 L 8136,18897 13749,11040 13607,10938 7994,18796 Z"/>
         <path fill="rgb(212,226,241)" stroke="none" d="M 8125,18890 L 8267,18991 13880,11134 13738,11032 8125,18890 Z"/>
         <path fill="rgb(213,226,241)" stroke="none" d="M 8256,18983 L 8398,19085 14011,11227 13869,11126 8256,18983 Z"/>
         <path fill="rgb(214,227,241)" stroke="none" d="M 8388,19077 L 8530,19178 14143,11321 14001,11220 8388,19077 Z"/>
         <path fill="rgb(214,227,241)" stroke="none" d="M 8519,19171 L 8661,19272 14274,11415 14132,11313 8519,19171 Z"/>
         <path fill="rgb(215,228,241)" stroke="none" d="M 8650,19265 L 8792,19366 14405,11509 14263,11407 8650,19265 Z"/>
         <path fill="rgb(216,228,241)" stroke="none" d="M 8781,19358 L 8923,19460 14536,11602 14394,11501 8781,19358 Z"/>
         <path fill="rgb(217,229,242)" stroke="none" d="M 8913,19452 L 9055,19553 14668,11696 14526,11595 8913,19452 Z"/>
         <path fill="rgb(218,229,242)" stroke="none" d="M 9044,19546 L 9186,19647 14799,11790 14657,11688 9044,19546 Z"/>
         <path fill="rgb(218,230,242)" stroke="none" d="M 9175,19640 L 9317,19741 14930,11884 14788,11782 9175,19640 Z"/>
         <path fill="rgb(219,230,242)" stroke="none" d="M 9306,19733 L 9448,19835 15061,11977 14919,11876 9306,19733 Z"/>
         <path fill="rgb(220,231,242)" stroke="none" d="M 9438,19827 L 9580,19928 15193,12071 15051,11970 9438,19827 Z"/>
         <path fill="rgb(221,231,242)" stroke="none" d="M 9569,19921 L 9711,20022 15324,12165 15182,12063 9569,19921 Z"/>
         <path fill="rgb(222,232,243)" stroke="none" d="M 9700,20014 L 9842,20116 15455,12259 15313,12157 9700,20014 Z"/>
         <path fill="rgb(222,232,243)" stroke="none" d="M 9831,20108 L 9889,20149 15502,12292 15444,12251 9831,20108 Z"/>
         <path fill="rgb(223,232,243)" stroke="none" d="M 9878,20141 L 9973,20210 15586,12352 15491,12284 9878,20141 Z"/>
         <path fill="rgb(223,233,243)" stroke="none" d="M 9963,20202 L 10105,20303 15718,12446 15576,12345 9963,20202 Z"/>
         <path fill="rgb(224,233,243)" stroke="none" d="M 10094,20296 L 10236,20397 15849,12540 15707,12438 10094,20296 Z"/>
         <path fill="rgb(225,233,243)" stroke="none" d="M 10225,20389 L 10367,20491 15980,12633 15838,12532 10225,20389 Z"/>
         <path fill="rgb(225,234,243)" stroke="none" d="M 10356,20483 L 10498,20585 16111,12727 15969,12626 10356,20483 Z"/>
         <path fill="rgb(226,234,244)" stroke="none" d="M 10488,20577 L 10630,20678 16243,12821 16101,12720 10488,20577 Z"/>
         <path fill="rgb(227,235,244)" stroke="none" d="M 10619,20671 L 10761,20772 16374,12915 16232,12813 10619,20671 Z"/>
         <path fill="rgb(228,235,244)" stroke="none" d="M 10750,20764 L 10892,20866 16505,13008 16363,12907 10750,20764 Z"/>
         <path fill="rgb(229,236,244)" stroke="none" d="M 10881,20858 L 11023,20960 16636,13102 16494,13001 10881,20858 Z"/>
         <path fill="rgb(229,236,244)" stroke="none" d="M 11013,20952 L 11155,21053 16768,13196 16626,13095 11013,20952 Z"/>
         <path fill="rgb(230,237,244)" stroke="none" d="M 11144,21046 L 11286,21147 16899,13290 16757,13188 11144,21046 Z"/>
         <path fill="rgb(231,237,244)" stroke="none" d="M 11275,21139 L 11417,21241 17030,13383 16888,13282 11275,21139 Z"/>
         <path fill="rgb(232,238,245)" stroke="none" d="M 11406,21233 L 11548,21334 17161,13477 17019,13376 11406,21233 Z"/>
         <path fill="rgb(233,238,245)" stroke="none" d="M 11538,21327 L 11680,21428 17293,13571 17151,13469 11538,21327 Z"/>
         <path fill="rgb(233,239,245)" stroke="none" d="M 11669,21421 L 11811,21522 17424,13665 17282,13563 11669,21421 Z"/>
         <path fill="rgb(234,239,245)" stroke="none" d="M 11800,21514 L 11942,21616 17555,13758 17413,13657 11800,21514 Z"/>
         <path fill="rgb(235,240,245)" stroke="none" d="M 11931,21608 L 12073,21709 17686,13852 17544,13751 11931,21608 Z"/>
         <path fill="rgb(236,240,245)" stroke="none" d="M 12063,21702 L 12205,21803 17818,13946 17676,13844 12063,21702 Z"/>
         <path fill="rgb(236,240,246)" stroke="none" d="M 12194,21796 L 12336,21897 17949,14040 17807,13938 12194,21796 Z"/>
         <path fill="rgb(237,241,246)" stroke="none" d="M 12325,21889 L 12467,21991 18080,14133 17938,14032 12325,21889 Z"/>
         <path fill="rgb(238,241,246)" stroke="none" d="M 12456,21983 L 12598,22084 18211,14227 18069,14126 12456,21983 Z"/>
         <path fill="rgb(239,242,246)" stroke="none" d="M 12588,22077 L 12598,22084 18211,14227 18201,14219 12588,22077 Z"/>
        </g>
        <g clip-path="url(#clip_path_3)"/>
        <g clip-path="url(#clip_path_1)">
         <path fill="rgb(0,0,0)" stroke="none" d="M 6585,11642 C 6584,11554 6526,11504 6422,11504 6317,11504 6249,11558 6249,11641 6249,11712 6285,11745 6392,11771 L 6459,11787 C 6509,11799 6529,11817 6529,11850 6529,11892 6486,11920 6424,11920 6385,11920 6352,11909 6334,11890 6323,11878 6318,11865 6313,11833 L 6238,11833 C 6241,11937 6300,11987 6418,11987 6531,11987 6603,11931 6603,11844 6603,11777 6565,11740 6476,11718 L 6407,11702 C 6349,11688 6324,11669 6324,11638 6324,11596 6361,11570 6420,11570 6477,11570 6508,11595 6510,11642 L 6585,11642 Z"/>
         <path fill="rgb(0,0,0)" stroke="none" d="M 7053,11967 L 7053,11516 6981,11516 6981,11772 C 6981,11864 6933,11924 6858,11924 6802,11924 6766,11889 6766,11836 L 6766,11516 6694,11516 6694,11864 C 6694,11938 6750,11987 6838,11987 6904,11987 6946,11963 6988,11904 L 6988,11967 7053,11967 Z"/>
         <path fill="rgb(0,0,0)" stroke="none" d="M 7163,11341 L 7163,11967 7227,11967 7227,11909 C 7262,11962 7307,11987 7370,11987 7488,11987 7566,11889 7566,11740 7566,11594 7492,11504 7373,11504 7312,11504 7267,11527 7234,11577 L 7234,11341 7163,11341 Z M 7359,11571 C 7439,11571 7491,11640 7491,11748 7491,11850 7437,11919 7359,11919 7284,11919 7234,11851 7234,11745 7234,11639 7284,11571 7359,11571 L 7359,11571 Z"/>
         <path fill="rgb(0,0,0)" stroke="none" d="M 7970,11642 C 7969,11554 7911,11504 7807,11504 7703,11504 7634,11558 7634,11641 7634,11712 7671,11745 7777,11771 L 7844,11787 C 7894,11799 7914,11817 7914,11850 7914,11892 7872,11920 7809,11920 7770,11920 7737,11909 7720,11890 7708,11878 7703,11865 7699,11833 L 7623,11833 C 7627,11937 7685,11987 7803,11987 7916,11987 7988,11931 7988,11844 7988,11777 7951,11740 7861,11718 L 7793,11702 C 7734,11688 7709,11669 7709,11638 7709,11596 7746,11570 7805,11570 7862,11570 7893,11595 7895,11642 L 7970,11642 Z"/>
         <path fill="rgb(0,0,0)" stroke="none" d="M 8242,11516 L 8168,11516 8168,11393 8097,11393 8097,11516 8036,11516 8036,11575 8097,11575 8097,11916 C 8097,11961 8128,11987 8184,11987 8201,11987 8218,11985 8242,11980 L 8242,11920 C 8233,11923 8221,11924 8208,11924 8177,11924 8168,11916 8168,11884 L 8168,11575 8242,11575 8242,11516 Z"/>
         <path fill="rgb(0,0,0)" stroke="none" d="M 8322,11516 L 8322,11967 8394,11967 8394,11733 C 8394,11669 8410,11626 8445,11602 8467,11585 8489,11580 8538,11579 L 8538,11506 C 8527,11505 8520,11504 8511,11504 8465,11504 8429,11531 8388,11598 L 8388,11516 8322,11516 Z"/>
         <path fill="rgb(0,0,0)" stroke="none" d="M 9009,11925 C 9001,11927 8997,11927 8993,11927 8968,11927 8954,11914 8954,11891 L 8954,11626 C 8954,11547 8896,11504 8785,11504 8720,11504 8666,11523 8636,11556 8615,11579 8606,11605 8605,11650 L 8677,11650 C 8683,11595 8715,11570 8783,11570 8847,11570 8883,11594 8883,11637 L 8883,11656 C 8883,11686 8865,11699 8808,11706 8707,11718 8691,11722 8664,11733 8612,11755 8585,11795 8585,11854 8585,11935 8642,11987 8733,11987 8790,11987 8835,11967 8885,11920 8891,11966 8913,11987 8960,11987 8974,11987 8985,11985 9009,11979 L 9009,11925 Z M 8883,11825 C 8883,11849 8876,11864 8855,11884 8825,11910 8790,11924 8748,11924 8692,11924 8660,11897 8660,11852 8660,11805 8691,11780 8768,11769 8843,11759 8859,11756 8883,11745 L 8883,11825 Z"/>
         <path fill="rgb(0,0,0)" stroke="none" d="M 9432,11668 C 9428,11624 9419,11596 9401,11571 9371,11529 9316,11504 9253,11504 9132,11504 9053,11600 9053,11749 9053,11895 9131,11987 9253,11987 9360,11987 9428,11922 9436,11812 L 9364,11812 C 9352,11885 9315,11920 9254,11920 9175,11920 9128,11856 9128,11749 9128,11637 9174,11570 9253,11570 9313,11570 9351,11605 9359,11668 L 9432,11668 Z"/>
         <path fill="rgb(0,0,0)" stroke="none" d="M 9675,11516 L 9601,11516 9601,11393 9529,11393 9529,11516 9468,11516 9468,11575 9529,11575 9529,11916 C 9529,11961 9560,11987 9616,11987 9633,11987 9651,11985 9675,11980 L 9675,11920 C 9665,11923 9654,11924 9640,11924 9609,11924 9601,11916 9601,11884 L 9601,11575 9675,11575 9675,11516 Z"/>
         <path fill="rgb(0,0,0)" stroke="none" d="M 9824,11516 L 9753,11516 9753,11967 9824,11967 9824,11516 Z M 9824,11341 L 9752,11341 9752,11431 9824,11431 9824,11341 Z"/>
         <path fill="rgb(0,0,0)" stroke="none" d="M 10120,11504 C 9994,11504 9917,11594 9917,11745 9917,11897 9993,11987 10120,11987 10247,11987 10324,11897 10324,11748 10324,11593 10249,11504 10120,11504 L 10120,11504 Z M 10120,11570 C 10201,11570 10249,11636 10249,11748 10249,11854 10200,11920 10120,11920 10041,11920 9992,11855 9992,11745 9992,11637 10041,11570 10120,11570 L 10120,11570 Z"/>
         <path fill="rgb(0,0,0)" stroke="none" d="M 10424,11516 L 10424,11967 10496,11967 10496,11718 C 10496,11626 10544,11566 10618,11566 10675,11566 10711,11601 10711,11655 L 10711,11967 10782,11967 10782,11626 C 10782,11552 10727,11504 10639,11504 10573,11504 10529,11530 10490,11592 L 10490,11516 10424,11516 Z"/>
         <path fill="rgb(0,0,0)" stroke="none" d="M 11338,12075 L 10823,12075 10823,12118 11338,12118 11338,12075 Z"/>
         <path fill="rgb(0,0,0)" stroke="none" d="M 11796,11967 L 11928,11516 11847,11516 11758,11867 11669,11516 11581,11516 11496,11867 11404,11516 11325,11516 11455,11967 11536,11967 11623,11614 11714,11967 11796,11967 Z"/>
         <path fill="rgb(0,0,0)" stroke="none" d="M 12069,11516 L 11997,11516 11997,11967 12069,11967 12069,11516 Z M 12069,11341 L 11997,11341 11997,11431 12069,11431 12069,11341 Z"/>
         <path fill="rgb(0,0,0)" stroke="none" d="M 12349,11516 L 12275,11516 12275,11393 12204,11393 12204,11516 12143,11516 12143,11575 12204,11575 12204,11916 C 12204,11961 12235,11987 12290,11987 12307,11987 12325,11985 12349,11980 L 12349,11920 C 12339,11923 12328,11924 12315,11924 12284,11924 12275,11916 12275,11884 L 12275,11575 12349,11575 12349,11516 Z"/>
         <path fill="rgb(0,0,0)" stroke="none" d="M 12430,11341 L 12430,11967 12501,11967 12501,11718 C 12501,11626 12549,11566 12623,11566 12646,11566 12669,11574 12687,11587 12707,11602 12716,11623 12716,11655 L 12716,11967 12787,11967 12787,11626 C 12787,11551 12733,11504 12645,11504 12582,11504 12543,11524 12501,11578 L 12501,11341 12430,11341 Z"/>
         <path fill="rgb(0,0,0)" stroke="none" d="M 13344,12075 L 12828,12075 12828,12118 13344,12118 13344,12075 Z"/>
         <path fill="rgb(0,0,0)" stroke="none" d="M 13730,11668 C 13726,11624 13717,11596 13700,11571 13669,11529 13615,11504 13552,11504 13431,11504 13352,11600 13352,11749 13352,11895 13429,11987 13551,11987 13658,11987 13726,11922 13735,11812 L 13663,11812 C 13651,11885 13614,11920 13553,11920 13474,11920 13426,11856 13426,11749 13426,11637 13473,11570 13551,11570 13611,11570 13649,11605 13658,11668 L 13730,11668 Z"/>
         <path fill="rgb(0,0,0)" stroke="none" d="M 14214,11925 C 14207,11927 14203,11927 14199,11927 14174,11927 14160,11914 14160,11891 L 14160,11626 C 14160,11547 14102,11504 13991,11504 13926,11504 13872,11523 13841,11556 13821,11579 13812,11605 13810,11650 L 13883,11650 C 13889,11595 13921,11570 13989,11570 14053,11570 14089,11594 14089,11637 L 14089,11656 C 14089,11686 14071,11699 14014,11706 13913,11718 13897,11722 13870,11733 13818,11755 13791,11795 13791,11854 13791,11935 13848,11987 13939,11987 13996,11987 14041,11967 14091,11920 14097,11966 14119,11987 14166,11987 14180,11987 14191,11985 14214,11979 L 14214,11925 Z M 14089,11825 C 14089,11849 14082,11864 14061,11884 14031,11910 13996,11924 13954,11924 13898,11924 13866,11897 13866,11852 13866,11805 13897,11780 13974,11769 14049,11759 14065,11756 14089,11745 L 14089,11825 Z"/>
         <path fill="rgb(0,0,0)" stroke="none" d="M 14292,11516 L 14292,11967 14364,11967 14364,11733 C 14364,11669 14380,11626 14415,11602 14437,11585 14459,11580 14508,11579 L 14508,11506 C 14497,11505 14490,11504 14481,11504 14435,11504 14399,11531 14358,11598 L 14358,11516 14292,11516 Z"/>
         <path fill="rgb(0,0,0)" stroke="none" d="M 14578,11516 L 14578,11967 14650,11967 14650,11733 C 14650,11669 14666,11626 14701,11602 14723,11585 14745,11580 14794,11579 L 14794,11506 C 14783,11505 14776,11504 14767,11504 14721,11504 14685,11531 14644,11598 L 14644,11516 14578,11516 Z"/>
         <path fill="rgb(0,0,0)" stroke="none" d="M 15138,11516 L 15014,11867 14898,11516 14822,11516 14974,11969 14947,12040 C 14936,12071 14919,12084 14889,12084 14879,12084 14867,12082 14851,12079 L 14851,12143 C 14866,12151 14880,12154 14899,12154 14923,12154 14947,12147 14967,12133 14989,12117 15002,12098 15016,12061 L 15216,11516 15138,11516 Z"/>
         <path fill="rgb(0,0,0)" stroke="none" d="M 15731,12075 L 15216,12075 15216,12118 15731,12118 15731,12075 Z"/>
         <path fill="rgb(0,0,0)" stroke="none" d="M 15949,11358 C 15892,11358 15840,11383 15809,11425 15769,11478 15749,11560 15749,11672 15749,11878 15818,11987 15949,11987 16078,11987 16148,11878 16148,11677 16148,11559 16129,11480 16089,11425 16057,11382 16006,11358 15949,11358 L 15949,11358 Z M 15949,11425 C 16030,11425 16071,11507 16071,11670 16071,11843 16031,11924 15947,11924 15867,11924 15827,11839 15827,11673 15827,11506 15867,11425 15949,11425 L 15949,11425 Z"/>
         <path fill="rgb(63,110,158)" stroke="none" d="M 5893,18738 C 5892,18650 5833,18600 5729,18600 5625,18600 5556,18654 5556,18738 5556,18808 5593,18841 5699,18867 L 5766,18883 C 5816,18895 5836,18913 5836,18946 5836,18988 5794,19017 5731,19017 5693,19017 5660,19005 5642,18986 5631,18974 5625,18961 5621,18929 L 5545,18929 C 5549,19033 5607,19083 5725,19083 5838,19083 5910,19027 5910,18940 5910,18873 5873,18836 5784,18815 L 5715,18799 C 5656,18785 5631,18766 5631,18734 5631,18692 5668,18666 5727,18666 5784,18666 5815,18691 5817,18738 L 5893,18738 Z"/>
         <path fill="rgb(63,110,158)" stroke="none" d="M 6360,19063 L 6360,18613 6289,18613 6289,18868 C 6289,18960 6240,19020 6166,19020 6109,19020 6073,18986 6073,18932 L 6073,18613 6002,18613 6002,18960 C 6002,19034 6058,19083 6145,19083 6211,19083 6253,19060 6296,19000 L 6296,19063 6360,19063 Z"/>
         <path fill="rgb(63,110,158)" stroke="none" d="M 6470,18437 L 6470,19063 6535,19063 6535,19005 C 6569,19058 6615,19083 6677,19083 6796,19083 6873,18986 6873,18836 6873,18690 6799,18600 6680,18600 6619,18600 6575,18623 6541,18674 L 6541,18437 6470,18437 Z M 6667,18667 C 6747,18667 6798,18737 6798,18844 6798,18946 6745,19016 6667,19016 6591,19016 6541,18947 6541,18841 6541,18736 6591,18667 6667,18667 L 6667,18667 Z"/>
         <path fill="rgb(63,110,158)" stroke="none" d="M 7278,18738 C 7277,18650 7219,18600 7115,18600 7010,18600 6942,18654 6942,18738 6942,18808 6978,18841 7085,18867 L 7151,18883 C 7201,18895 7221,18913 7221,18946 7221,18988 7179,19017 7117,19017 7078,19017 7045,19005 7027,18986 7016,18974 7010,18961 7006,18929 L 6931,18929 C 6934,19033 6993,19083 7110,19083 7224,19083 7296,19027 7296,18940 7296,18873 7258,18836 7169,18815 L 7100,18799 C 7041,18785 7017,18766 7017,18734 7017,18692 7054,18666 7112,18666 7169,18666 7200,18691 7202,18738 L 7278,18738 Z"/>
         <path fill="rgb(63,110,158)" stroke="none" d="M 7550,18613 L 7475,18613 7475,18489 7404,18489 7404,18613 7343,18613 7343,18671 7404,18671 7404,19012 C 7404,19057 7435,19083 7491,19083 7508,19083 7525,19081 7550,19077 L 7550,19017 C 7540,19019 7529,19020 7515,19020 7484,19020 7475,19012 7475,18980 L 7475,18671 7550,18671 7550,18613 Z"/>
         <path fill="rgb(63,110,158)" stroke="none" d="M 7629,18613 L 7629,19063 7701,19063 7701,18829 C 7701,18765 7718,18723 7752,18698 7774,18681 7796,18677 7846,18676 L 7846,18602 C 7834,18601 7828,18600 7819,18600 7772,18600 7737,18628 7695,18694 L 7695,18613 7629,18613 Z"/>
         <path fill="rgb(63,110,158)" stroke="none" d="M 8316,19021 C 8308,19023 8305,19023 8300,19023 8276,19023 8262,19010 8262,18987 L 8262,18723 C 8262,18643 8204,18600 8093,18600 8027,18600 7973,18619 7943,18652 7923,18676 7914,18701 7912,18746 L 7984,18746 C 7990,18691 8023,18666 8090,18666 8155,18666 8190,18690 8190,18733 L 8190,18752 C 8190,18782 8173,18795 8116,18802 8014,18815 7999,18818 7971,18829 7919,18851 7893,18891 7893,18950 7893,19031 7949,19083 8040,19083 8097,19083 8142,19063 8193,19017 8198,19062 8220,19083 8267,19083 8281,19083 8293,19081 8316,19075 L 8316,19021 Z M 8190,18921 C 8190,18945 8184,18960 8162,18980 8133,19006 8097,19020 8056,19020 8000,19020 7967,18993 7967,18948 7967,18901 7999,18877 8075,18865 8151,18855 8166,18852 8190,18841 L 8190,18921 Z"/>
         <path fill="rgb(63,110,158)" stroke="none" d="M 8739,18764 C 8735,18720 8726,18692 8708,18667 8678,18625 8624,18600 8561,18600 8440,18600 8361,18696 8361,18846 8361,18991 8438,19083 8560,19083 8667,19083 8735,19018 8744,18909 L 8672,18909 C 8660,18981 8623,19017 8562,19017 8483,19017 8435,18952 8435,18846 8435,18733 8482,18666 8560,18666 8620,18666 8658,18701 8667,18764 L 8739,18764 Z"/>
         <path fill="rgb(63,110,158)" stroke="none" d="M 8982,18613 L 8908,18613 8908,18489 8837,18489 8837,18613 8776,18613 8776,18671 8837,18671 8837,19012 C 8837,19057 8868,19083 8924,19083 8940,19083 8958,19081 8982,19077 L 8982,19017 C 8972,19019 8961,19020 8948,19020 8917,19020 8908,19012 8908,18980 L 8908,18671 8982,18671 8982,18613 Z"/>
         <path fill="rgb(63,110,158)" stroke="none" d="M 9131,18613 L 9060,18613 9060,19063 9131,19063 9131,18613 Z M 9131,18437 L 9059,18437 9059,18527 9131,18527 9131,18437 Z"/>
         <path fill="rgb(63,110,158)" stroke="none" d="M 9427,18600 C 9301,18600 9224,18690 9224,18841 9224,18993 9300,19083 9428,19083 9554,19083 9632,18993 9632,18845 9632,18689 9557,18600 9427,18600 L 9427,18600 Z M 9428,18666 C 9509,18666 9557,18732 9557,18844 9557,18950 9507,19017 9428,19017 9348,19017 9299,18951 9299,18841 9299,18733 9348,18666 9428,18666 L 9428,18666 Z"/>
         <path fill="rgb(63,110,158)" stroke="none" d="M 9731,18613 L 9731,19063 9803,19063 9803,18815 C 9803,18723 9852,18662 9925,18662 9982,18662 10018,18697 10018,18751 L 10018,19063 10090,19063 10090,18723 C 10090,18648 10034,18600 9947,18600 9880,18600 9837,18626 9798,18689 L 9798,18613 9731,18613 Z"/>
         <path fill="rgb(63,110,158)" stroke="none" d="M 10645,19172 L 10130,19172 10130,19214 10645,19214 10645,19172 Z"/>
         <path fill="rgb(63,110,158)" stroke="none" d="M 11103,19063 L 11235,18613 11154,18613 11065,18963 10976,18613 10889,18613 10803,18963 10711,18613 10632,18613 10762,19063 10843,19063 10930,18710 11021,19063 11103,19063 Z"/>
         <path fill="rgb(63,110,158)" stroke="none" d="M 11376,18613 L 11305,18613 11305,19063 11376,19063 11376,18613 Z M 11376,18437 L 11304,18437 11304,18527 11376,18527 11376,18437 Z"/>
         <path fill="rgb(63,110,158)" stroke="none" d="M 11656,18613 L 11582,18613 11582,18489 11511,18489 11511,18613 11450,18613 11450,18671 11511,18671 11511,19012 C 11511,19057 11542,19083 11598,19083 11615,19083 11632,19081 11656,19077 L 11656,19017 C 11647,19019 11636,19020 11622,19020 11591,19020 11582,19012 11582,18980 L 11582,18671 11656,18671 11656,18613 Z"/>
         <path fill="rgb(63,110,158)" stroke="none" d="M 11737,18437 L 11737,19063 11808,19063 11808,18815 C 11808,18723 11857,18662 11930,18662 11953,18662 11977,18670 11994,18683 12014,18698 12023,18719 12023,18751 L 12023,19063 12094,19063 12094,18723 C 12094,18647 12040,18600 11952,18600 11889,18600 11850,18620 11808,18675 L 11808,18437 11737,18437 Z"/>
         <path fill="rgb(63,110,158)" stroke="none" d="M 12651,19172 L 12136,19172 12136,19214 12651,19214 12651,19172 Z"/>
         <path fill="rgb(63,110,158)" stroke="none" d="M 13037,18764 C 13034,18720 13024,18692 13007,18667 12976,18625 12922,18600 12859,18600 12738,18600 12659,18696 12659,18846 12659,18991 12737,19083 12859,19083 12966,19083 13034,19018 13042,18909 L 12970,18909 C 12958,18981 12921,19017 12860,19017 12781,19017 12734,18952 12734,18846 12734,18733 12780,18666 12859,18666 12919,18666 12957,18701 12965,18764 L 13037,18764 Z"/>
         <path fill="rgb(63,110,158)" stroke="none" d="M 13522,19021 C 13514,19023 13511,19023 13506,19023 13482,19023 13468,19010 13468,18987 L 13468,18723 C 13468,18643 13409,18600 13299,18600 13233,18600 13179,18619 13149,18652 13129,18676 13120,18701 13118,18746 L 13190,18746 C 13196,18691 13229,18666 13296,18666 13361,18666 13396,18690 13396,18733 L 13396,18752 C 13396,18782 13378,18795 13322,18802 13220,18815 13205,18818 13177,18829 13125,18851 13098,18891 13098,18950 13098,19031 13155,19083 13246,19083 13303,19083 13348,19063 13399,19017 13404,19062 13426,19083 13473,19083 13487,19083 13499,19081 13522,19075 L 13522,19021 Z M 13396,18921 C 13396,18945 13390,18960 13368,18980 13339,19006 13303,19020 13262,19020 13206,19020 13173,18993 13173,18948 13173,18901 13205,18877 13281,18865 13357,18855 13372,18852 13396,18841 L 13396,18921 Z"/>
         <path fill="rgb(63,110,158)" stroke="none" d="M 13599,18613 L 13599,19063 13671,19063 13671,18829 C 13671,18765 13688,18723 13722,18698 13744,18681 13766,18677 13816,18676 L 13816,18602 C 13804,18601 13798,18600 13788,18600 13742,18600 13707,18628 13665,18694 L 13665,18613 13599,18613 Z"/>
         <path fill="rgb(63,110,158)" stroke="none" d="M 13885,18613 L 13885,19063 13957,19063 13957,18829 C 13957,18765 13974,18723 14008,18698 14031,18681 14052,18677 14102,18676 L 14102,18602 C 14090,18601 14084,18600 14075,18600 14028,18600 13993,18628 13952,18694 L 13952,18613 13885,18613 Z"/>
         <path fill="rgb(63,110,158)" stroke="none" d="M 14446,18613 L 14321,18963 14206,18613 14129,18613 14281,19065 14254,19136 C 14243,19168 14227,19180 14197,19180 14186,19180 14174,19178 14159,19175 L 14159,19239 C 14173,19247 14188,19250 14207,19250 14230,19250 14255,19243 14274,19229 14296,19213 14309,19194 14323,19157 L 14523,18613 14446,18613 Z"/>
         <path fill="rgb(63,110,158)" stroke="none" d="M 15038,19172 L 14523,19172 14523,19214 15038,19214 15038,19172 Z"/>
         <path fill="rgb(63,110,158)" stroke="none" d="M 15265,19063 L 15437,18613 15356,18613 15229,18978 15109,18613 15028,18613 15186,19063 15265,19063 Z"/>
         <path fill="rgb(63,110,158)" stroke="none" d="M 15672,18629 L 15672,19063 15748,19063 15748,18454 15698,18454 C 15671,18548 15654,18560 15537,18575 L 15537,18629 15672,18629 Z"/>
         <path fill="rgb(63,110,158)" stroke="none" d="M 16424,19172 L 15908,19172 15908,19214 16424,19214 16424,19172 Z"/>
         <path fill="rgb(63,110,158)" stroke="none" d="M 16641,18454 C 16585,18454 16533,18479 16501,18521 16462,18574 16442,18656 16442,18769 16442,18974 16511,19083 16641,19083 16770,19083 16840,18974 16840,18773 16840,18655 16822,18576 16781,18521 16749,18478 16699,18454 16641,18454 L 16641,18454 Z M 16641,18521 C 16723,18521 16763,18603 16763,18767 16763,18940 16724,19020 16639,19020 16560,19020 16519,18936 16519,18769 16519,18602 16560,18521 16641,18521 L 16641,18521 Z"/>
         <path fill="none" stroke="rgb(0,0,0)" stroke-width="358" stroke-linejoin="miter" d="M 6187,13720 L 6903,13720"/>
         <path fill="rgb(0,0,0)" stroke="none" d="M 7386,13820 L 7439,13977 7513,13977 7330,13455 7244,13455 7058,13977 7129,13977 7184,13820 7386,13820 Z M 7367,13765 L 7200,13765 7287,13527 7367,13765 Z"/>
         <path fill="rgb(0,0,0)" stroke="none" d="M 7937,14067 L 7508,14067 7508,14103 7937,14103 7937,14067 Z"/>
         <path fill="rgb(0,0,0)" stroke="none" d="M 8029,13602 L 7970,13602 7970,13977 8029,13977 8029,13602 Z M 8029,13455 L 7969,13455 7969,13531 8029,13531 8029,13455 Z"/>
         <path fill="rgb(0,0,0)" stroke="none" d="M 8260,13455 L 8127,13455 8127,14129 8260,14129 8260,14077 8186,14077 8186,13507 8260,13507 8260,13455 Z"/>
         <path fill="rgb(0,0,0)" stroke="none" d="M 8438,13745 L 8446,13745 8473,13744 C 8542,13744 8578,13775 8578,13836 8578,13900 8539,13938 8473,13938 8404,13938 8370,13904 8366,13830 L 8303,13830 C 8306,13871 8313,13897 8325,13920 8351,13968 8401,13994 8470,13994 8575,13994 8642,13931 8642,13835 8642,13771 8617,13735 8556,13715 8603,13696 8627,13660 8627,13609 8627,13522 8569,13470 8473,13470 8370,13470 8316,13525 8313,13634 L 8377,13634 C 8377,13603 8380,13586 8388,13570 8402,13542 8434,13525 8473,13525 8529,13525 8563,13558 8563,13611 8563,13647 8550,13669 8522,13680 8505,13687 8482,13690 8438,13691 L 8438,13745 Z"/>
         <path fill="rgb(0,0,0)" stroke="none" d="M 8831,13903 L 8757,13903 8757,13977 8831,13977 8831,13903 Z M 8831,13602 L 8757,13602 8757,13676 8831,13676 8831,13602 Z"/>
         <path fill="rgb(0,0,0)" stroke="none" d="M 9074,13470 C 9027,13470 8984,13490 8958,13525 8925,13570 8908,13638 8908,13732 8908,13903 8965,13994 9074,13994 9181,13994 9240,13903 9240,13736 9240,13637 9224,13571 9191,13525 9164,13489 9122,13470 9074,13470 L 9074,13470 Z M 9074,13525 C 9142,13525 9175,13594 9175,13730 9175,13874 9143,13941 9072,13941 9006,13941 8973,13871 8973,13733 8973,13594 9006,13525 9074,13525 L 9074,13525 Z"/>
         <path fill="rgb(0,0,0)" stroke="none" d="M 9292,14129 L 9425,14129 9425,13455 9292,13455 9292,13507 9365,13507 9365,14077 9292,14077 9292,14129 Z"/>
         <path fill="none" stroke="rgb(0,0,0)" stroke-width="358" stroke-linejoin="miter" d="M 6187,15152 L 6903,15152"/>
         <path fill="rgb(0,0,0)" stroke="none" d="M 7103,15409 L 7338,15409 C 7387,15409 7424,15396 7452,15366 7478,15339 7492,15301 7492,15261 7492,15198 7464,15159 7397,15134 7444,15111 7469,15073 7469,15020 7469,14982 7455,14948 7428,14924 7401,14899 7365,14888 7314,14888 L 7103,14888 7103,15409 Z M 7169,15112 L 7169,14946 7298,14946 C 7335,14946 7356,14951 7374,14965 7392,14979 7402,15000 7402,15029 7402,15057 7392,15079 7374,15093 7356,15107 7335,15112 7298,15112 L 7169,15112 Z M 7169,15351 L 7169,15171 7332,15171 C 7364,15171 7386,15179 7401,15196 7417,15213 7425,15235 7425,15261 7425,15286 7417,15309 7401,15325 7386,15343 7364,15351 7332,15351 L 7169,15351 Z"/>
         <path fill="rgb(0,0,0)" stroke="none" d="M 7937,15499 L 7508,15499 7508,15535 7937,15535 7937,15499 Z"/>
         <path fill="rgb(0,0,0)" stroke="none" d="M 8029,15034 L 7970,15034 7970,15409 8029,15409 8029,15034 Z M 8029,14888 L 7969,14888 7969,14963 8029,14963 8029,14888 Z"/>
         <path fill="rgb(0,0,0)" stroke="none" d="M 8260,14888 L 8127,14888 8127,15561 8260,15561 8260,15510 8186,15510 8186,14939 8260,14939 8260,14888 Z"/>
         <path fill="rgb(0,0,0)" stroke="none" d="M 8438,15177 L 8446,15177 8473,15176 C 8542,15176 8578,15207 8578,15268 8578,15332 8539,15370 8473,15370 8404,15370 8370,15336 8366,15262 L 8303,15262 C 8306,15303 8313,15329 8325,15352 8351,15401 8401,15426 8470,15426 8575,15426 8642,15363 8642,15267 8642,15203 8617,15167 8556,15147 8603,15128 8627,15092 8627,15041 8627,14954 8569,14902 8473,14902 8370,14902 8316,14957 8313,15066 L 8377,15066 C 8377,15035 8380,15018 8388,15002 8402,14974 8434,14957 8473,14957 8529,14957 8563,14990 8563,15044 8563,15079 8550,15101 8522,15112 8505,15119 8482,15122 8438,15123 L 8438,15177 Z"/>
         <path fill="rgb(0,0,0)" stroke="none" d="M 8831,15335 L 8757,15335 8757,15409 8831,15409 8831,15335 Z M 8831,15034 L 8757,15034 8757,15108 8831,15108 8831,15034 Z"/>
         <path fill="rgb(0,0,0)" stroke="none" d="M 9074,14902 C 9027,14902 8984,14922 8958,14957 8925,15002 8908,15070 8908,15164 8908,15335 8965,15426 9074,15426 9181,15426 9240,15335 9240,15168 9240,15069 9224,15003 9191,14957 9164,14922 9122,14902 9074,14902 L 9074,14902 Z M 9074,14957 C 9142,14957 9175,15026 9175,15162 9175,15306 9143,15373 9072,15373 9006,15373 8973,15303 8973,15165 8973,15026 9006,14957 9074,14957 L 9074,14957 Z"/>
         <path fill="rgb(0,0,0)" stroke="none" d="M 9292,15561 L 9425,15561 9425,14888 9292,14888 9292,14939 9365,14939 9365,15510 9292,15510 9292,15561 Z"/>
         <path fill="none" stroke="rgb(0,0,0)" stroke-width="215" stroke-linejoin="miter" d="M 6187,16584 L 6903,16584"/>
         <path fill="rgb(0,0,0)" stroke="none" d="M 7520,16482 C 7499,16367 7433,16311 7319,16311 7248,16311 7192,16333 7154,16376 7106,16428 7080,16502 7080,16587 7080,16672 7107,16746 7156,16797 7196,16838 7248,16858 7316,16858 7443,16858 7515,16789 7531,16651 L 7462,16651 C 7456,16687 7449,16711 7438,16732 7417,16775 7372,16799 7317,16799 7213,16799 7147,16716 7147,16586 7147,16452 7210,16370 7311,16370 7353,16370 7392,16383 7414,16403 7433,16420 7444,16443 7452,16482 L 7520,16482 Z"/>
         <path fill="rgb(0,0,0)" stroke="none" d="M 7977,16931 L 7547,16931 7547,16967 7977,16967 7977,16931 Z"/>
         <path fill="rgb(0,0,0)" stroke="none" d="M 8069,16466 L 8009,16466 8009,16841 8069,16841 8069,16466 Z M 8069,16320 L 8009,16320 8009,16395 8069,16395 8069,16320 Z"/>
         <path fill="none" stroke="rgb(0,0,0)" stroke-width="358" stroke-linejoin="miter" d="M 16212,14436 L 15496,14436"/>
         <path fill="rgb(0,0,0)" stroke="none" d="M 12963,14488 L 13159,14172 13079,14172 12930,14425 12777,14172 12695,14172 12896,14488 12896,14693 12963,14693 12963,14488 Z"/>
         <path fill="rgb(0,0,0)" stroke="none" d="M 13577,14783 L 13147,14783 13147,14819 13577,14819 13577,14783 Z"/>
         <path fill="rgb(0,0,0)" stroke="none" d="M 13756,14307 C 13651,14307 13587,14383 13587,14509 13587,14635 13650,14710 13756,14710 13862,14710 13927,14635 13927,14512 13927,14382 13864,14307 13756,14307 L 13756,14307 Z M 13756,14362 C 13824,14362 13864,14418 13864,14511 13864,14599 13822,14654 13756,14654 13690,14654 13649,14599 13649,14509 13649,14418 13690,14362 13756,14362 L 13756,14362 Z"/>
         <path fill="rgb(0,0,0)" stroke="none" d="M 14138,14172 L 14005,14172 14005,14845 14138,14845 14138,14793 14065,14793 14065,14223 14138,14223 14138,14172 Z"/>
         <path fill="rgb(0,0,0)" stroke="none" d="M 14317,14461 L 14325,14461 14351,14460 C 14421,14460 14456,14491 14456,14552 14456,14616 14417,14654 14351,14654 14283,14654 14249,14620 14244,14546 L 14181,14546 C 14184,14587 14191,14613 14204,14636 14229,14684 14280,14710 14349,14710 14454,14710 14521,14647 14521,14551 14521,14487 14496,14451 14435,14431 14482,14412 14506,14376 14506,14325 14506,14238 14448,14186 14351,14186 14249,14186 14194,14241 14192,14350 L 14255,14350 C 14256,14319 14259,14302 14267,14286 14281,14258 14313,14241 14352,14241 14408,14241 14441,14274 14441,14328 14441,14363 14428,14385 14401,14396 14383,14403 14361,14406 14317,14407 L 14317,14461 Z"/>
         <path fill="rgb(0,0,0)" stroke="none" d="M 14710,14619 L 14636,14619 14636,14693 14710,14693 14710,14619 Z M 14710,14318 L 14636,14318 14636,14392 14710,14392 14710,14318 Z"/>
         <path fill="rgb(0,0,0)" stroke="none" d="M 14952,14186 C 14905,14186 14862,14206 14836,14241 14803,14286 14787,14354 14787,14448 14787,14619 14844,14710 14952,14710 15060,14710 15119,14619 15119,14452 15119,14353 15103,14287 15069,14241 15043,14205 15000,14186 14952,14186 L 14952,14186 Z M 14952,14241 C 15021,14241 15054,14310 15054,14446 15054,14590 15021,14657 14951,14657 14885,14657 14851,14587 14851,14449 14851,14310 14885,14241 14952,14241 L 14952,14241 Z"/>
         <path fill="rgb(0,0,0)" stroke="none" d="M 15170,14845 L 15304,14845 15304,14172 15170,14172 15170,14223 15244,14223 15244,14793 15170,14793 15170,14845 Z"/>
         <path fill="none" stroke="rgb(0,0,0)" stroke-width="215" stroke-linejoin="miter" d="M 16212,15868 L 15496,15868"/>
         <path fill="rgb(0,0,0)" stroke="none" d="M 14513,15765 C 14493,15651 14427,15595 14312,15595 14242,15595 14186,15617 14147,15660 14100,15712 14074,15786 14074,15871 14074,15956 14101,16030 14150,16081 14190,16122 14242,16142 14309,16142 14437,16142 14509,16073 14525,15935 L 14456,15935 C 14450,15971 14443,15995 14432,16016 14411,16059 14366,16083 14310,16083 14206,16083 14140,16000 14140,15870 14140,15736 14203,15654 14305,15654 14347,15654 14386,15667 14408,15686 14427,15704 14438,15727 14446,15765 L 14513,15765 Z"/>
         <path fill="rgb(0,0,0)" stroke="none" d="M 14970,16215 L 14541,16215 14541,16251 14970,16251 14970,16215 Z"/>
         <path fill="rgb(0,0,0)" stroke="none" d="M 15150,15739 C 15044,15739 14981,15815 14981,15941 14981,16067 15044,16142 15150,16142 15256,16142 15320,16067 15320,15944 15320,15814 15258,15739 15150,15739 L 15150,15739 Z M 15150,15795 C 15217,15795 15258,15850 15258,15943 15258,16031 15216,16087 15150,16087 15084,16087 15043,16031 15043,15941 15043,15850 15084,15795 15150,15795 L 15150,15795 Z"/>
         <path fill="none" stroke="rgb(63,110,158)" stroke-width="72" stroke-linejoin="miter" d="M 7404,12288 L 14995,12288"/>
         <path fill="none" stroke="rgb(63,110,158)" stroke-width="72" stroke-linejoin="miter" d="M 15496,12789 C 15496,12781 15496,12773 15496,12765 15490,12495 15265,12281 14995,12288"/>
         <path fill="none" stroke="rgb(63,110,158)" stroke-width="72" stroke-linejoin="miter" d="M 15496,12789 L 15496,17515"/>
         <path fill="none" stroke="rgb(63,110,158)" stroke-width="72" stroke-linejoin="miter" d="M 14995,18016 C 15003,18017 15011,18017 15019,18016 15289,18010 15503,17785 15496,17515"/>
         <path fill="none" stroke="rgb(63,110,158)" stroke-width="72" stroke-linejoin="miter" d="M 14995,18016 L 7404,18016"/>
         <path fill="none" stroke="rgb(63,110,158)" stroke-width="72" stroke-linejoin="miter" d="M 6903,17515 C 6903,17523 6903,17531 6903,17539 6909,17809 7134,18023 7404,18016"/>
         <path fill="none" stroke="rgb(63,110,158)" stroke-width="72" stroke-linejoin="miter" d="M 6903,17515 L 6903,12789"/>
         <path fill="none" stroke="rgb(63,110,158)" stroke-width="72" stroke-linejoin="miter" d="M 7404,12288 C 7396,12288 7388,12288 7380,12288 7110,12295 6896,12519 6903,12789"/>
        </g>
       </g>
      </g>
     </g>
    </g>
   </g>
  </g>
 </g>
</svg>